<?xml version="1.0" encoding="utf-8"?>
<!-- Generator: Adobe Illustrator 16.0.4, SVG Export Plug-In . SVG Version: 6.00 Build 0)  -->
<!DOCTYPE svg PUBLIC "-//W3C//DTD SVG 1.1//EN" "http://www.w3.org/Graphics/SVG/1.1/DTD/svg11.dtd">
<svg version="1.1" id="Layer_1" xmlns="http://www.w3.org/2000/svg" xmlns:xlink="http://www.w3.org/1999/xlink" x="0px" y="0px"
	 width="80px" height="360px" viewBox="-257.5 580.5 80 360" enable-background="new -257.5 580.5 80 360" xml:space="preserve">
<g id="Layer_1_1_">
	<line fill="none" x1="-217.5" y1="580.5" x2="-217.5" y2="900.5"/>
	<line fill="none" x1="-257.5" y1="620.5" x2="-177.5" y2="620.5"/>
	<line fill="none" x1="-257.5" y1="660.5" x2="-177.5" y2="660.5"/>
	<line fill="none" x1="-257.5" y1="700.5" x2="-177.5" y2="700.5"/>
	<line fill="none" x1="-257.5" y1="740.5" x2="-177.5" y2="740.5"/>
	<line fill="none" x1="-257.5" y1="780.5" x2="-177.5" y2="780.5"/>
	<line fill="none" x1="-257.5" y1="820.5" x2="-177.5" y2="820.5"/>
	<line fill="none" x1="-257.5" y1="860.5" x2="-177.5" y2="860.5"/>
</g>
<g id="nodes">
	<g>
		<path fill="#8C8C8C" d="M-227.559,599.078c0.023-0.192,0.059-0.38,0.059-0.577c0-2.762-2.238-5.001-5-5.001
			c-1.307,0-2.486,0.514-3.378,1.334c-0.893-2.523-3.293-4.334-6.122-4.334c-3.59,0-6.5,2.911-6.5,6.501
			c0,0.854,0.169,1.666,0.468,2.413c-1.488,0.984-2.468,2.67-2.468,4.587c0,2.868,2.196,5.222,5,5.474v0.025h15.32v-0.009
			c0.061,0.002,0.119,0.009,0.18,0.009c3.037,0,5.5-2.462,5.5-5.499C-224.5,601.842-225.748,599.979-227.559,599.078z"/>
		<g opacity="0.25">
			<path d="M-227.5,599.501c0,0.197-0.036,0.385-0.059,0.577c1.688,0.84,2.875,2.523,3.027,4.5c0.02-0.189,0.03-0.383,0.03-0.576
				c0-2.152-1.24-4.01-3.042-4.914C-227.529,599.227-227.5,599.359-227.5,599.501z"/>
			<path d="M-248.032,600.414c-0.104-0.26-0.186-0.531-0.257-0.807c-1.338,1.002-2.211,2.592-2.211,4.394
				c0,0.138,0.027,0.267,0.038,0.401C-250.281,602.736-249.361,601.294-248.032,600.414z"/>
			<path d="M-242,591.5c2.829,0,5.229,1.811,6.122,4.334c0.892-0.82,2.071-1.334,3.378-1.334c2.589,0,4.693,1.977,4.949,4.499
				c0.024-0.165,0.051-0.328,0.051-0.498c0-2.762-2.238-5.001-5-5.001c-1.307,0-2.486,0.514-3.378,1.334
				c-0.893-2.523-3.293-4.334-6.122-4.334c-3.59,0-6.5,2.911-6.5,6.501c0,0.171,0.012,0.339,0.024,0.507
				C-248.223,594.148-245.423,591.5-242,591.5z"/>
		</g>
		<g opacity="0.4">
			<path fill="#FFFFFF" d="M-227.559,599.078c0.006,0.003,0.011,0.007,0.017,0.01c-0.002-0.029-0.006-0.059-0.009-0.088
				C-227.555,599.025-227.557,599.051-227.559,599.078z"/>
			<path fill="#FFFFFF" d="M-230,609.5c-0.061,0-0.119-0.007-0.18-0.009v0.009h-15.32v-0.025c-2.669-0.24-4.766-2.392-4.962-5.072
				c-0.021,0.197-0.038,0.396-0.038,0.599c0,2.868,2.196,5.222,5,5.474v0.025h15.32v-0.009c0.061,0.002,0.119,0.009,0.18,0.009
				c3.037,0,5.5-2.462,5.5-5.499c0-0.144-0.02-0.282-0.029-0.424C-224.818,607.344-227.157,609.5-230,609.5z"/>
			<path fill="#FFFFFF" d="M-248.032,599.414c-0.239-0.598-0.39-1.237-0.443-1.906c-0.012,0.163-0.025,0.326-0.025,0.493
				c0,0.556,0.078,1.092,0.211,1.606C-248.204,599.543-248.122,599.473-248.032,599.414z"/>
		</g>
	</g>
</g>
<g id="nodes-hover">
	<g>
		<path fill="#5988A5" d="M-187.559,599.078c0.022-0.192,0.059-0.38,0.059-0.577c0-2.762-2.238-5.001-5-5.001
			c-1.307,0-2.486,0.514-3.378,1.334c-0.894-2.523-3.293-4.334-6.122-4.334c-3.59,0-6.5,2.911-6.5,6.501
			c0,0.854,0.169,1.666,0.468,2.413c-1.487,0.984-2.468,2.67-2.468,4.587c0,2.868,2.197,5.222,5,5.474v0.025h15.32v-0.009
			c0.061,0.002,0.119,0.009,0.18,0.009c3.037,0,5.5-2.462,5.5-5.499C-184.5,601.842-185.748,599.979-187.559,599.078z"/>
		<g opacity="0.25">
			<path d="M-187.499,599.501c0,0.197-0.036,0.385-0.06,0.577c1.688,0.84,2.875,2.523,3.026,4.5c0.021-0.189,0.03-0.383,0.03-0.576
				c0-2.152-1.24-4.01-3.042-4.914C-187.527,599.227-187.499,599.359-187.499,599.501z"/>
			<path d="M-208.031,600.414c-0.104-0.26-0.186-0.531-0.257-0.807c-1.338,1.002-2.211,2.592-2.211,4.394
				c0,0.138,0.028,0.267,0.038,0.401C-210.279,602.736-209.359,601.294-208.031,600.414z"/>
			<path d="M-201.999,591.5c2.829,0,5.229,1.811,6.122,4.334c0.893-0.82,2.07-1.334,3.378-1.334c2.589,0,4.692,1.977,4.949,4.499
				c0.022-0.165,0.051-0.328,0.051-0.498c0-2.762-2.237-5.001-5-5.001c-1.308,0-2.485,0.514-3.378,1.334
				c-0.895-2.523-3.293-4.334-6.122-4.334c-3.59,0-6.5,2.911-6.5,6.501c0,0.171,0.013,0.339,0.024,0.507
				C-208.221,594.148-205.422,591.5-201.999,591.5z"/>
		</g>
		<g opacity="0.4">
			<path fill="#FFFFFF" d="M-187.559,599.078c0.006,0.003,0.011,0.007,0.017,0.01c-0.002-0.029-0.006-0.059-0.009-0.088
				C-187.555,599.025-187.557,599.051-187.559,599.078z"/>
			<path fill="#FFFFFF" d="M-190,609.5c-0.061,0-0.119-0.007-0.18-0.009v0.009h-15.32v-0.025c-2.669-0.24-4.766-2.392-4.962-5.072
				c-0.021,0.197-0.038,0.396-0.038,0.599c0,2.868,2.197,5.222,5,5.474v0.025h15.32v-0.009c0.061,0.002,0.119,0.009,0.18,0.009
				c3.037,0,5.5-2.462,5.5-5.499c0-0.144-0.02-0.282-0.029-0.424C-184.818,607.344-187.157,609.5-190,609.5z"/>
			<path fill="#FFFFFF" d="M-208.032,599.414c-0.239-0.598-0.39-1.237-0.442-1.906c-0.012,0.163-0.025,0.326-0.025,0.493
				c0,0.556,0.078,1.092,0.211,1.606C-208.204,599.543-208.122,599.473-208.032,599.414z"/>
		</g>
	</g>
</g>
<g id="networks">
	<g>
		<g>
			<path fill="#8C8C8C" d="M-243.021,638.145c0.252,0,0.492,0.049,0.722,0.119c0.764-0.99,1.599-1.92,2.5-2.785
				c-0.128-0.299-0.2-0.631-0.2-0.979c0-0.191,0.025-0.377,0.066-0.557c-1.776-1.303-3.752-2.346-5.864-3.101
				c-1.365,1.31-2.417,2.935-3.044,4.763c1.31,1.176,2.749,2.211,4.302,3.064C-244.117,638.346-243.596,638.145-243.021,638.145z"/>
			<path fill="#8C8C8C" d="M-233.95,641.488c0.087-0.193,0.201-0.368,0.331-0.532c-0.863-1.481-1.888-2.86-3.05-4.108
				c-0.261,0.092-0.538,0.152-0.831,0.152c-0.295,0-0.575-0.061-0.838-0.154c-0.883,0.84-1.699,1.746-2.439,2.715
				c0.125,0.256,0.201,0.535,0.231,0.832C-238.46,641.064-236.246,641.443-233.95,641.488z"/>
			<path fill="#8C8C8C" d="M-245.521,640.645c0-0.074,0.017-0.146,0.022-0.219c-1.376-0.756-2.662-1.652-3.865-2.644
				c-0.079,0.562-0.136,1.133-0.136,1.718c0,2.938,1.061,5.627,2.812,7.714c0.444-1.704,1.057-3.341,1.832-4.884
				C-245.266,641.885-245.521,641.297-245.521,640.645z"/>
			<path fill="#8C8C8C" d="M-231.854,640.02c0.062-0.006,0.123-0.02,0.187-0.02c0.646,0,1.226,0.25,1.669,0.65
				c1.443-0.455,2.945-0.772,4.488-0.959c0.001-0.063,0.01-0.127,0.01-0.191c0-3.145-1.219-5.997-3.198-8.137
				c-2.268,0.638-4.399,1.604-6.329,2.863c0.01,0.09,0.027,0.18,0.027,0.273c0,0.352-0.073,0.686-0.204,0.986
				C-233.925,636.863-232.8,638.383-231.854,640.02z"/>
			<path fill="#8C8C8C" d="M-235.859,643.386c-1.83-0.173-3.603-0.543-5.297-1.09c-0.457,0.517-1.119,0.849-1.863,0.849
				c-0.002,0-0.004,0-0.006,0c-0.902,1.78-1.572,3.696-1.988,5.703c0.635,0.512,1.324,0.955,2.057,1.33
				C-241.061,647.477-238.652,645.158-235.859,643.386z"/>
			<path fill="#8C8C8C" d="M-243.965,629.4c1.865,0.773,3.619,1.76,5.227,2.939c0.366-0.21,0.785-0.34,1.238-0.34
				c0.555,0,1.061,0.186,1.477,0.491c1.727-1.115,3.604-2.011,5.586-2.679c-1.985-1.447-4.42-2.312-7.063-2.312
				C-239.883,627.5-242.098,628.203-243.965,629.4z"/>
			<path fill="#8C8C8C" d="M-229.258,643.133c-0.114,0.436-0.333,0.827-0.643,1.135c0.41,1.174,0.726,2.393,0.959,3.638
				c1.502-1.53,2.59-3.464,3.104-5.617C-226.948,642.643-228.087,642.932-229.258,643.133z"/>
			<path fill="#8C8C8C" d="M-241.068,650.96c1.127,0.351,2.325,0.54,3.568,0.54c2.514,0,4.843-0.775,6.771-2.096
				c-0.209-1.521-0.547-3.002-1.037-4.414c-0.648-0.026-1.236-0.292-1.668-0.721C-236.451,645.906-239.057,648.204-241.068,650.96z"
				/>
		</g>
		<g opacity="0.4">
			<path fill="#FFFFFF" d="M-244.539,639.671c0.422-0.325,0.943-0.526,1.52-0.526c0.252,0,0.49,0.049,0.721,0.119
				c0.764-0.99,1.599-1.92,2.5-2.785c-0.107-0.25-0.164-0.525-0.184-0.811c-0.828,0.812-1.606,1.675-2.316,2.596
				c-0.229-0.07-0.469-0.119-0.721-0.119c-0.574,0-1.098,0.201-1.52,0.526c-1.436-0.789-2.77-1.739-3.997-2.806
				c-0.104,0.246-0.218,0.486-0.305,0.74C-247.531,637.782-246.093,638.816-244.539,639.671z"/>
			<path fill="#FFFFFF" d="M-239.934,634.943c-0.008-0.006-0.016-0.01-0.023-0.017c0.006,0.033,0.007,0.066,0.014,0.099
				C-239.938,634.999-239.938,634.97-239.934,634.943z"/>
			<path fill="#FFFFFF" d="M-240.546,640.393c-0.003-0.031-0.013-0.061-0.017-0.092c-0.069,0.088-0.146,0.17-0.215,0.26
				c0.125,0.256,0.201,0.535,0.231,0.832c2.085,0.672,4.3,1.053,6.596,1.098c0.087-0.193,0.201-0.368,0.331-0.532
				c-0.099-0.17-0.207-0.333-0.311-0.501c-0.006,0.012-0.016,0.021-0.021,0.033C-236.246,641.443-238.46,641.064-240.546,640.393z"
				/>
			<path fill="#FFFFFF" d="M-245.145,642.945c-0.635,1.363-1.155,2.787-1.543,4.269c-1.653-1.969-2.679-4.476-2.791-7.219
				c-0.007,0.168-0.021,0.335-0.021,0.505c0,2.938,1.061,5.627,2.812,7.714c0.444-1.704,1.057-3.341,1.832-4.884
				C-244.964,643.212-245.061,643.083-245.145,642.945z"/>
			<path fill="#FFFFFF" d="M-229.998,640.65c-0.443-0.4-1.023-0.65-1.669-0.65c-0.063,0-0.123,0.014-0.187,0.02
				c-0.899-1.556-1.965-3-3.168-4.321c-0.021,0.278-0.078,0.546-0.184,0.791c1.279,1.375,2.404,2.896,3.352,4.532
				c0.062-0.006,0.123-0.021,0.187-0.021c0.646,0,1.226,0.25,1.669,0.649c1.443-0.455,2.945-0.771,4.488-0.957
				c0.001-0.064,0.01-0.129,0.01-0.193c0-0.271-0.021-0.536-0.039-0.802C-227.07,639.884-228.562,640.199-229.998,640.65z"/>
			<path fill="#FFFFFF" d="M-235.859,644.386c-0.406-0.038-0.807-0.09-1.207-0.146c-2.275,1.644-4.276,3.642-5.893,5.938
				c-0.656-0.336-1.271-0.734-1.852-1.182c-0.069,0.283-0.146,0.564-0.205,0.852c0.635,0.512,1.324,0.955,2.057,1.33
				C-241.061,648.477-238.652,646.158-235.859,644.386z"/>
			<path fill="#FFFFFF" d="M-238.738,633.34c0.366-0.21,0.785-0.34,1.238-0.34c0.555,0,1.061,0.186,1.477,0.491
				c1.727-1.115,3.604-2.011,5.586-2.679c-0.314-0.229-0.645-0.438-0.979-0.637c-1.62,0.619-3.168,1.387-4.606,2.315
				c-0.417-0.306-0.923-0.491-1.478-0.491c-0.453,0-0.872,0.13-1.238,0.34c-1.32-0.97-2.746-1.801-4.246-2.499
				c-0.334,0.175-0.664,0.357-0.98,0.56C-242.1,631.174-240.346,632.161-238.738,633.34z"/>
			<path fill="#FFFFFF" d="M-229.684,644.98c-0.069,0.098-0.131,0.201-0.217,0.287c0.41,1.174,0.726,2.391,0.959,3.635
				c1.502-1.529,2.59-3.461,3.104-5.616c-0.112,0.036-0.229,0.062-0.344,0.098c-0.584,1.71-1.521,3.257-2.76,4.521
				C-229.128,646.906-229.384,645.936-229.684,644.98z"/>
			<path fill="#FFFFFF" d="M-240.43,651.133c-0.219,0.272-0.434,0.547-0.641,0.827c1.13,0.351,2.328,0.54,3.571,0.54
				c2.514,0,4.843-0.775,6.771-2.096c-0.043-0.305-0.094-0.607-0.146-0.908c-1.898,1.262-4.174,2.004-6.625,2.004
				C-238.512,651.5-239.491,651.369-240.43,651.133z"/>
		</g>
		<g opacity="0.25">
			<path d="M-239.982,635.667c0.062-0.062,0.119-0.128,0.183-0.188c-0.062-0.146-0.107-0.297-0.142-0.453
				c-0.034,0.154-0.059,0.311-0.059,0.475C-240,635.559-239.986,635.611-239.982,635.667z"/>
			<path d="M-239.957,634.927c-0.023-0.139-0.043-0.28-0.043-0.427c0-0.191,0.025-0.377,0.066-0.557
				c-1.776-1.303-3.752-2.346-5.863-3.101c-1.365,1.31-2.417,2.935-3.045,4.763c0.1,0.088,0.205,0.172,0.306,0.259
				c0.64-1.523,1.563-2.896,2.739-4.021C-243.695,632.595-241.729,633.632-239.957,634.927z"/>
			<path d="M-236.669,636.848c-0.261,0.092-0.538,0.152-0.831,0.152c-0.295,0-0.574-0.061-0.838-0.154
				c-0.883,0.84-1.699,1.746-2.439,2.715c0.111,0.229,0.18,0.479,0.215,0.74c0.686-0.869,1.424-1.693,2.226-2.455
				c0.262,0.094,0.541,0.154,0.836,0.154c0.293,0,0.57-0.061,0.831-0.152c1.028,1.105,1.94,2.317,2.739,3.607
				c0.084-0.18,0.188-0.346,0.311-0.499C-234.482,639.475-235.507,638.096-236.669,636.848z"/>
			<path d="M-245.498,641.426c-0.007,0.073-0.021,0.145-0.021,0.219c0,0.479,0.14,0.924,0.375,1.304
				c0.097-0.205,0.188-0.414,0.289-0.616c-0.41-0.445-0.664-1.033-0.664-1.688c0-0.074,0.016-0.146,0.021-0.219
				c-1.377-0.756-2.662-1.652-3.865-2.644c-0.08,0.562-0.137,1.133-0.137,1.718c0,0.167,0.016,0.33,0.021,0.495
				c0.021-0.409,0.059-0.813,0.114-1.213C-248.16,639.773-246.875,640.67-245.498,641.426z"/>
			<path d="M-235.027,635.227c1.93-1.259,4.062-2.226,6.329-2.863c1.81,1.955,2.972,4.51,3.159,7.335
				c0.01-0.001,0.02-0.005,0.029-0.005c0.001-0.065,0.01-0.129,0.01-0.193c0-3.145-1.219-5.997-3.198-8.137
				c-2.268,0.638-4.399,1.604-6.329,2.863c0.01,0.09,0.027,0.18,0.027,0.273c0,0.352-0.073,0.686-0.204,0.986
				c0.063,0.068,0.121,0.142,0.185,0.209c0.003-0.065,0.019-0.129,0.019-0.195C-235,635.406-235.018,635.316-235.027,635.227z"/>
			<path d="M-243.021,644.145c0.746,0,1.405-0.332,1.864-0.849c1.319,0.427,2.687,0.741,4.091,0.942
				c0.398-0.288,0.789-0.588,1.205-0.854c-1.828-0.173-3.602-0.543-5.296-1.09c-0.459,0.519-1.118,0.851-1.864,0.851
				c-0.002,0-0.004-0.002-0.006-0.002c-0.902,1.781-1.572,3.697-1.988,5.705c0.065,0.053,0.139,0.098,0.205,0.147
				c0.42-1.696,1.011-3.326,1.783-4.854C-243.023,644.145-243.021,644.145-243.021,644.145z"/>
			<path d="M-231.418,630.175c0.325-0.124,0.648-0.251,0.979-0.362c-1.983-1.447-4.418-2.312-7.061-2.312
				c-2.383,0-4.598,0.703-6.465,1.9c0.332,0.138,0.656,0.289,0.98,0.44c1.645-0.85,3.506-1.341,5.485-1.341
				C-235.275,628.5-233.202,629.118-231.418,630.175z"/>
			<path d="M-229.258,643.133c-0.114,0.436-0.333,0.827-0.643,1.135c0.082,0.233,0.144,0.479,0.217,0.713
				c0.188-0.254,0.343-0.531,0.426-0.848c1.052-0.181,2.074-0.441,3.076-0.749c0.125-0.36,0.254-0.722,0.344-1.098
				C-226.948,642.643-228.087,642.932-229.258,643.133z"/>
			<path d="M-231.766,644.99c-0.649-0.026-1.237-0.292-1.668-0.721c-3.019,1.637-5.623,3.935-7.637,6.688
				c0.211,0.063,0.426,0.119,0.641,0.173c1.914-2.388,4.287-4.395,6.996-5.861c0.431,0.429,1.019,0.692,1.668,0.721
				c0.392,1.13,0.683,2.304,0.892,3.506c0.047-0.031,0.099-0.061,0.146-0.092C-230.938,647.883-231.275,646.402-231.766,644.99z"/>
			<path d="M-239.934,634.943c-0.008-0.006-0.017-0.01-0.023-0.017c0.006,0.033,0.008,0.066,0.016,0.099
				C-239.938,634.999-239.938,634.97-239.934,634.943z"/>
		</g>
	</g>
</g>
<g id="networks-hover">
	<g>
		<g>
			<path fill="#5988A5" d="M-203.021,638.145c0.252,0,0.492,0.049,0.723,0.119c0.764-0.99,1.599-1.92,2.5-2.785
				c-0.128-0.299-0.2-0.631-0.2-0.979c0-0.191,0.024-0.377,0.065-0.557c-1.775-1.303-3.752-2.346-5.863-3.101
				c-1.365,1.31-2.417,2.935-3.044,4.763c1.31,1.176,2.749,2.211,4.302,3.064C-204.117,638.346-203.596,638.145-203.021,638.145z"/>
			<path fill="#5988A5" d="M-193.95,641.488c0.087-0.193,0.201-0.368,0.331-0.532c-0.863-1.481-1.888-2.86-3.05-4.108
				c-0.261,0.092-0.538,0.152-0.831,0.152c-0.295,0-0.575-0.061-0.838-0.154c-0.883,0.84-1.699,1.746-2.439,2.715
				c0.125,0.256,0.201,0.535,0.231,0.832C-198.46,641.064-196.246,641.443-193.95,641.488z"/>
			<path fill="#5988A5" d="M-205.521,640.645c0-0.074,0.018-0.146,0.022-0.219c-1.376-0.756-2.662-1.652-3.864-2.644
				c-0.08,0.562-0.137,1.133-0.137,1.718c0,2.938,1.061,5.627,2.812,7.714c0.443-1.704,1.057-3.341,1.832-4.884
				C-205.266,641.885-205.521,641.297-205.521,640.645z"/>
			<path fill="#5988A5" d="M-191.854,640.02c0.062-0.006,0.123-0.02,0.187-0.02c0.646,0,1.226,0.25,1.669,0.65
				c1.443-0.455,2.945-0.772,4.488-0.959c0.001-0.063,0.01-0.127,0.01-0.191c0-3.145-1.219-5.997-3.197-8.137
				c-2.269,0.638-4.4,1.604-6.33,2.863c0.01,0.09,0.027,0.18,0.027,0.273c0,0.352-0.072,0.686-0.204,0.986
				C-193.925,636.863-192.8,638.383-191.854,640.02z"/>
			<path fill="#5988A5" d="M-195.859,643.386c-1.83-0.173-3.603-0.543-5.297-1.09c-0.457,0.517-1.119,0.849-1.863,0.849
				c-0.002,0-0.004,0-0.006,0c-0.902,1.78-1.572,3.696-1.988,5.703c0.636,0.512,1.324,0.955,2.058,1.33
				C-201.061,647.477-198.652,645.158-195.859,643.386z"/>
			<path fill="#5988A5" d="M-203.965,629.4c1.865,0.773,3.619,1.76,5.227,2.939c0.366-0.21,0.785-0.34,1.238-0.34
				c0.555,0,1.061,0.186,1.477,0.491c1.729-1.115,3.604-2.011,5.586-2.679c-1.984-1.447-4.42-2.312-7.062-2.312
				C-199.883,627.5-202.098,628.203-203.965,629.4z"/>
			<path fill="#5988A5" d="M-189.258,643.133c-0.114,0.436-0.333,0.827-0.643,1.135c0.408,1.174,0.726,2.394,0.959,3.639
				c1.502-1.53,2.59-3.465,3.104-5.617C-186.947,642.643-188.087,642.932-189.258,643.133z"/>
			<path fill="#5988A5" d="M-201.068,650.96c1.127,0.351,2.325,0.54,3.568,0.54c2.514,0,4.843-0.775,6.771-2.096
				c-0.209-1.521-0.547-3.002-1.037-4.414c-0.648-0.026-1.236-0.292-1.668-0.721C-196.451,645.906-199.057,648.204-201.068,650.96z"
				/>
		</g>
		<g opacity="0.4">
			<path fill="#FFFFFF" d="M-204.539,639.671c0.422-0.325,0.943-0.526,1.52-0.526c0.252,0,0.49,0.049,0.722,0.119
				c0.764-0.99,1.599-1.92,2.5-2.785c-0.106-0.25-0.164-0.525-0.185-0.811c-0.828,0.812-1.605,1.675-2.315,2.596
				c-0.229-0.07-0.47-0.119-0.722-0.119c-0.573,0-1.098,0.201-1.52,0.526c-1.436-0.789-2.77-1.739-3.997-2.806
				c-0.104,0.246-0.218,0.486-0.305,0.74C-207.531,637.782-206.093,638.816-204.539,639.671z"/>
			<path fill="#FFFFFF" d="M-199.934,634.943c-0.008-0.006-0.017-0.01-0.023-0.017c0.006,0.033,0.007,0.066,0.014,0.099
				C-199.938,634.999-199.938,634.97-199.934,634.943z"/>
			<path fill="#FFFFFF" d="M-200.546,640.393c-0.003-0.031-0.013-0.061-0.017-0.092c-0.069,0.088-0.146,0.17-0.215,0.26
				c0.125,0.256,0.2,0.535,0.23,0.832c2.085,0.672,4.3,1.053,6.596,1.099c0.088-0.193,0.201-0.368,0.331-0.532
				c-0.099-0.17-0.207-0.333-0.312-0.501c-0.006,0.012-0.016,0.021-0.021,0.033C-196.246,641.443-198.46,641.064-200.546,640.393z"
				/>
			<path fill="#FFFFFF" d="M-205.145,642.945c-0.635,1.363-1.155,2.787-1.543,4.269c-1.653-1.969-2.68-4.476-2.791-7.219
				c-0.008,0.168-0.021,0.335-0.021,0.505c0,2.938,1.061,5.627,2.812,7.714c0.443-1.704,1.057-3.341,1.832-4.884
				C-204.964,643.212-205.061,643.083-205.145,642.945z"/>
			<path fill="#FFFFFF" d="M-189.998,640.65c-0.443-0.4-1.023-0.65-1.669-0.65c-0.063,0-0.123,0.014-0.187,0.02
				c-0.899-1.556-1.965-3-3.168-4.321c-0.021,0.278-0.078,0.546-0.186,0.791c1.279,1.375,2.404,2.896,3.354,4.532
				c0.062-0.006,0.123-0.021,0.187-0.021c0.646,0,1.226,0.25,1.669,0.649c1.443-0.455,2.945-0.771,4.488-0.957
				c0.001-0.064,0.01-0.129,0.01-0.193c0-0.271-0.021-0.536-0.039-0.802C-187.07,639.884-188.562,640.199-189.998,640.65z"/>
			<path fill="#FFFFFF" d="M-195.859,644.386c-0.406-0.038-0.807-0.09-1.207-0.146c-2.274,1.644-4.275,3.642-5.893,5.938
				c-0.656-0.336-1.271-0.734-1.852-1.182c-0.069,0.283-0.146,0.564-0.205,0.852c0.635,0.512,1.324,0.955,2.057,1.33
				C-201.061,648.477-198.652,646.158-195.859,644.386z"/>
			<path fill="#FFFFFF" d="M-198.738,633.34c0.366-0.21,0.785-0.34,1.238-0.34c0.555,0,1.061,0.186,1.477,0.491
				c1.729-1.115,3.604-2.011,5.586-2.679c-0.312-0.229-0.645-0.438-0.979-0.637c-1.62,0.619-3.168,1.387-4.605,2.315
				c-0.418-0.306-0.924-0.491-1.479-0.491c-0.453,0-0.872,0.13-1.238,0.34c-1.32-0.97-2.746-1.801-4.246-2.499
				c-0.334,0.175-0.664,0.357-0.979,0.56C-202.1,631.174-200.346,632.161-198.738,633.34z"/>
			<path fill="#FFFFFF" d="M-189.684,644.98c-0.069,0.098-0.131,0.201-0.217,0.287c0.408,1.174,0.726,2.391,0.959,3.635
				c1.502-1.529,2.59-3.461,3.104-5.616c-0.112,0.036-0.229,0.062-0.344,0.098c-0.584,1.71-1.521,3.257-2.76,4.521
				C-189.128,646.906-189.384,645.936-189.684,644.98z"/>
			<path fill="#FFFFFF" d="M-200.43,651.133c-0.219,0.271-0.434,0.547-0.641,0.827c1.129,0.351,2.327,0.54,3.57,0.54
				c2.514,0,4.843-0.775,6.771-2.096c-0.043-0.305-0.096-0.607-0.146-0.908c-1.898,1.262-4.174,2.004-6.625,2.004
				C-198.512,651.5-199.491,651.369-200.43,651.133z"/>
		</g>
		<g opacity="0.25">
			<path d="M-199.982,635.667c0.062-0.062,0.119-0.128,0.184-0.188c-0.062-0.146-0.107-0.297-0.143-0.453
				c-0.033,0.154-0.059,0.311-0.059,0.475C-200,635.559-199.986,635.611-199.982,635.667z"/>
			<path d="M-199.957,634.927c-0.023-0.139-0.043-0.28-0.043-0.427c0-0.191,0.025-0.377,0.066-0.557
				c-1.776-1.303-3.752-2.346-5.863-3.101c-1.365,1.31-2.417,2.935-3.045,4.763c0.1,0.088,0.205,0.172,0.306,0.259
				c0.64-1.523,1.563-2.896,2.739-4.021C-203.695,632.595-201.729,633.632-199.957,634.927z"/>
			<path d="M-196.669,636.848c-0.261,0.092-0.538,0.152-0.831,0.152c-0.295,0-0.574-0.061-0.838-0.154
				c-0.883,0.84-1.699,1.746-2.439,2.715c0.111,0.229,0.18,0.479,0.215,0.74c0.687-0.869,1.424-1.693,2.227-2.455
				c0.262,0.094,0.541,0.154,0.836,0.154c0.293,0,0.57-0.061,0.831-0.152c1.028,1.105,1.94,2.317,2.739,3.607
				c0.084-0.18,0.188-0.346,0.311-0.499C-194.482,639.475-195.507,638.096-196.669,636.848z"/>
			<path d="M-205.498,641.426c-0.007,0.073-0.021,0.145-0.021,0.219c0,0.479,0.141,0.924,0.375,1.305
				c0.098-0.205,0.188-0.414,0.289-0.616c-0.41-0.444-0.664-1.033-0.664-1.688c0-0.074,0.017-0.146,0.021-0.219
				c-1.377-0.756-2.662-1.652-3.865-2.644c-0.08,0.562-0.137,1.133-0.137,1.718c0,0.167,0.016,0.33,0.021,0.495
				c0.021-0.409,0.059-0.813,0.113-1.213C-208.16,639.773-206.875,640.67-205.498,641.426z"/>
			<path d="M-195.027,635.227c1.93-1.259,4.062-2.226,6.33-2.863c1.809,1.955,2.971,4.51,3.158,7.335
				c0.01-0.001,0.02-0.005,0.029-0.005c0.001-0.065,0.01-0.129,0.01-0.193c0-3.145-1.219-5.997-3.197-8.137
				c-2.269,0.638-4.4,1.604-6.33,2.863c0.01,0.09,0.027,0.18,0.027,0.273c0,0.352-0.072,0.686-0.204,0.986
				c0.063,0.068,0.121,0.142,0.185,0.209c0.004-0.065,0.02-0.129,0.02-0.195C-195,635.406-195.018,635.316-195.027,635.227z"/>
			<path d="M-203.021,644.145c0.746,0,1.405-0.332,1.864-0.849c1.319,0.427,2.687,0.741,4.091,0.942
				c0.398-0.288,0.789-0.588,1.205-0.854c-1.828-0.173-3.602-0.543-5.296-1.09c-0.459,0.519-1.118,0.851-1.864,0.851
				c-0.002,0-0.004-0.002-0.006-0.002c-0.902,1.782-1.572,3.698-1.988,5.705c0.065,0.053,0.14,0.098,0.205,0.148
				c0.42-1.696,1.012-3.326,1.783-4.854C-203.023,644.145-203.021,644.145-203.021,644.145z"/>
			<path d="M-191.418,630.175c0.325-0.124,0.648-0.251,0.979-0.362c-1.982-1.447-4.418-2.312-7.061-2.312
				c-2.383,0-4.598,0.703-6.465,1.9c0.332,0.138,0.656,0.289,0.98,0.44c1.645-0.85,3.506-1.341,5.484-1.341
				C-195.275,628.5-193.202,629.118-191.418,630.175z"/>
			<path d="M-189.258,643.133c-0.114,0.436-0.333,0.827-0.643,1.135c0.082,0.233,0.144,0.479,0.217,0.713
				c0.188-0.254,0.343-0.53,0.426-0.848c1.052-0.181,2.074-0.441,3.076-0.749c0.125-0.36,0.254-0.722,0.344-1.098
				C-186.947,642.643-188.087,642.932-189.258,643.133z"/>
			<path d="M-191.766,644.99c-0.649-0.026-1.237-0.292-1.668-0.721c-3.021,1.637-5.623,3.935-7.637,6.688
				c0.211,0.062,0.426,0.119,0.641,0.173c1.914-2.388,4.287-4.396,6.996-5.86c0.432,0.429,1.02,0.691,1.668,0.721
				c0.393,1.13,0.684,2.304,0.893,3.506c0.047-0.031,0.1-0.061,0.146-0.092C-190.938,647.883-191.275,646.402-191.766,644.99z"/>
			<path d="M-199.934,634.943c-0.008-0.006-0.018-0.01-0.023-0.017c0.006,0.033,0.008,0.066,0.016,0.099
				C-199.938,634.999-199.938,634.97-199.934,634.943z"/>
		</g>
	</g>
</g>
<g id="settings">
	<g>
		<path fill="#8C8C8C" d="M-226.5,677.5h-2.344c-0.213-0.781-0.52-1.521-0.912-2.209l1.654-1.655c0.39-0.389,0.39-1.024,0-1.413
			l-2.121-2.121c-0.389-0.39-1.024-0.39-1.414,0l-1.654,1.654c-0.688-0.393-1.428-0.699-2.209-0.913V668.5c0-0.55-0.45-1-1-1h-3
			c-0.55,0-1,0.45-1,1v2.343c-0.781,0.214-1.521,0.521-2.209,0.913l-1.655-1.654c-0.389-0.39-1.025-0.39-1.414,0l-2.121,2.121
			c-0.389,0.389-0.389,1.024,0,1.413l1.655,1.655c-0.393,0.688-0.7,1.428-0.913,2.209h-2.343c-0.55,0-1,0.45-1,1v3
			c0,0.55,0.45,1,1,1h2.344c0.213,0.781,0.519,1.521,0.913,2.209l-1.656,1.655c-0.389,0.389-0.389,1.024,0,1.413l2.121,2.121
			c0.389,0.39,1.025,0.39,1.414,0l1.656-1.654c0.687,0.393,1.428,0.699,2.208,0.912v2.344c0,0.55,0.45,1,1,1h3c0.55,0,1-0.45,1-1
			v-2.344c0.781-0.213,1.521-0.521,2.209-0.912l1.654,1.654c0.39,0.39,1.025,0.39,1.414,0l2.121-2.121
			c0.39-0.389,0.39-1.024,0-1.413l-1.654-1.655c0.393-0.688,0.699-1.428,0.912-2.209h2.344c0.55,0,1-0.45,1-1v-3
			C-225.5,677.95-225.95,677.5-226.5,677.5z M-238,685.5c-3.038,0-5.5-2.463-5.5-5.5c0-3.038,2.462-5.5,5.5-5.5
			c3.037,0,5.5,2.462,5.5,5.5C-232.5,683.037-234.963,685.5-238,685.5z"/>
		<g opacity="0.4">
			<path fill="#FFFFFF" d="M-246.573,675.962c0.106-0.226,0.205-0.456,0.329-0.671l-1.655-1.655
				c-0.061-0.061-0.096-0.136-0.138-0.206c-0.225,0.383-0.19,0.879,0.137,1.206L-246.573,675.962z"/>
			<path fill="#FFFFFF" d="M-238,674.5c-3.038,0-5.5,2.462-5.5,5.5c0,0.169,0.01,0.335,0.025,0.5c0.253-2.803,2.605-5,5.475-5
				c2.868,0,5.223,2.197,5.475,5c0.015-0.165,0.025-0.331,0.025-0.5C-232.5,676.962-234.963,674.5-238,674.5z"/>
			<path fill="#FFFFFF" d="M-246.573,685.038l0.329-0.329c-0.394-0.688-0.7-1.428-0.913-2.209h-2.343c-0.55,0-1-0.45-1-1v1
				c0,0.55,0.45,1,1,1h2.344C-247.01,684.036-246.805,684.544-246.573,685.038z"/>
			<path fill="#FFFFFF" d="M-229.756,675.291c0.123,0.216,0.223,0.445,0.328,0.671l1.326-1.327c0.328-0.328,0.363-0.824,0.138-1.207
				c-0.042,0.072-0.076,0.147-0.138,0.208L-229.756,675.291z"/>
			<path fill="#FFFFFF" d="M-228.102,687.777l-2.121,2.121c-0.389,0.39-1.024,0.39-1.414,0l-1.654-1.654
				c-0.688,0.393-1.428,0.699-2.209,0.912v1c0.781-0.213,1.521-0.521,2.209-0.912l1.654,1.654c0.39,0.39,1.025,0.39,1.414,0
				l2.121-2.121c0.328-0.327,0.363-0.823,0.138-1.207C-228.006,687.643-228.04,687.718-228.102,687.777z"/>
			<path fill="#FFFFFF" d="M-226.5,682.5h-2.344c-0.213,0.781-0.52,1.521-0.912,2.209l0.328,0.328
				c0.232-0.493,0.438-1.001,0.584-1.537h2.344c0.55,0,1-0.45,1-1v-1C-225.5,682.05-225.95,682.5-226.5,682.5z"/>
			<path fill="#FFFFFF" d="M-236.5,692.5h-3c-0.55,0-1-0.45-1-1v1c0,0.55,0.45,1,1,1h3c0.55,0,1-0.45,1-1v-1
				C-235.5,692.05-235.95,692.5-236.5,692.5z"/>
			<path fill="#FFFFFF" d="M-240.5,689.156c-0.781-0.213-1.521-0.521-2.208-0.912l-1.656,1.654c-0.389,0.39-1.025,0.39-1.414,0
				l-2.121-2.121c-0.061-0.062-0.095-0.135-0.137-0.207c-0.225,0.384-0.19,0.88,0.137,1.207l2.121,2.121
				c0.389,0.39,1.025,0.39,1.414,0l1.656-1.654c0.687,0.393,1.428,0.699,2.208,0.912V689.156z"/>
		</g>
		<g opacity="0.25">
			<path d="M-232.5,681c0-0.169-0.012-0.335-0.025-0.5c-0.252,2.803-2.605,5-5.475,5s-5.222-2.197-5.475-5
				c-0.015,0.165-0.025,0.331-0.025,0.5c0,3.037,2.462,5.5,5.5,5.5C-234.963,686.5-232.5,684.037-232.5,681z"/>
			<path d="M-235.5,671.843c0.781,0.214,1.521,0.521,2.209,0.913l1.654-1.654c0.39-0.39,1.025-0.39,1.414,0l2.121,2.121
				c0.062,0.061,0.096,0.135,0.138,0.207c0.226-0.384,0.19-0.88-0.138-1.207l-2.121-2.121c-0.389-0.39-1.024-0.39-1.414,0
				l-1.654,1.654c-0.688-0.393-1.428-0.699-2.209-0.913V671.843z"/>
			<path d="M-239.5,668.5h3c0.55,0,1,0.45,1,1v-1c0-0.55-0.45-1-1-1h-3c-0.55,0-1,0.45-1,1v1
				C-240.5,668.95-240.05,668.5-239.5,668.5z"/>
			<path d="M-246.244,685.709c-0.124-0.216-0.223-0.445-0.329-0.671l-1.327,1.326c-0.328,0.327-0.362,0.823-0.137,1.206
				c0.042-0.07,0.076-0.146,0.137-0.206L-246.244,685.709z"/>
			<path d="M-229.428,685.037c-0.105,0.227-0.205,0.456-0.328,0.672l1.654,1.655c0.062,0.061,0.096,0.136,0.138,0.206
				c0.226-0.383,0.19-0.879-0.138-1.206L-229.428,685.037z"/>
			<path d="M-226.5,677.5h-2.344c-0.146-0.536-0.352-1.044-0.584-1.538l-0.328,0.329c0.393,0.688,0.699,1.428,0.912,2.209h2.344
				c0.55,0,1,0.45,1,1v-1C-225.5,677.95-225.95,677.5-226.5,677.5z"/>
			<path d="M-249.5,678.5h2.343c0.213-0.781,0.52-1.521,0.913-2.209l-0.329-0.329c-0.232,0.494-0.438,1.001-0.584,1.538h-2.343
				c-0.55,0-1,0.45-1,1v1C-250.5,678.95-250.05,678.5-249.5,678.5z"/>
			<path d="M-247.899,673.223l2.121-2.121c0.389-0.39,1.025-0.39,1.414,0l1.655,1.654c0.688-0.393,1.428-0.699,2.209-0.913v-1
				c-0.781,0.214-1.521,0.521-2.209,0.913l-1.655-1.654c-0.389-0.39-1.025-0.39-1.414,0l-2.121,2.121
				c-0.328,0.326-0.363,0.823-0.138,1.207C-247.995,673.357-247.96,673.283-247.899,673.223z"/>
		</g>
	</g>
</g>
<g id="settings-hover">
	<g>
		<path fill="#5988A5" d="M-186.5,677.5h-2.344c-0.213-0.781-0.52-1.521-0.912-2.209l1.654-1.655c0.39-0.389,0.39-1.024,0-1.413
			l-2.121-2.121c-0.389-0.39-1.024-0.39-1.414,0l-1.654,1.654c-0.688-0.393-1.428-0.699-2.209-0.913V668.5c0-0.55-0.45-1-1-1h-3
			c-0.55,0-1,0.45-1,1v2.343c-0.781,0.214-1.521,0.521-2.209,0.913l-1.654-1.654c-0.39-0.39-1.025-0.39-1.414,0l-2.121,2.121
			c-0.39,0.389-0.39,1.024,0,1.413l1.654,1.655c-0.393,0.688-0.699,1.428-0.913,2.209h-2.343c-0.55,0-1,0.45-1,1v3
			c0,0.55,0.45,1,1,1h2.344c0.213,0.781,0.52,1.521,0.913,2.209l-1.655,1.655c-0.39,0.389-0.39,1.024,0,1.413l2.121,2.121
			c0.389,0.39,1.024,0.39,1.414,0l1.655-1.654c0.687,0.393,1.429,0.699,2.208,0.912v2.344c0,0.55,0.45,1,1,1h3c0.55,0,1-0.45,1-1
			v-2.344c0.781-0.213,1.521-0.521,2.209-0.912l1.654,1.654c0.39,0.39,1.025,0.39,1.414,0l2.121-2.121
			c0.39-0.389,0.39-1.024,0-1.413l-1.654-1.655c0.393-0.688,0.699-1.428,0.912-2.209h2.344c0.55,0,1-0.45,1-1v-3
			C-185.5,677.95-185.95,677.5-186.5,677.5z M-198,685.5c-3.038,0-5.5-2.463-5.5-5.5c0-3.038,2.462-5.5,5.5-5.5
			c3.037,0,5.5,2.462,5.5,5.5C-192.5,683.037-194.963,685.5-198,685.5z"/>
		<g opacity="0.4">
			<path fill="#FFFFFF" d="M-206.573,675.962c0.106-0.226,0.205-0.456,0.329-0.671l-1.654-1.655
				c-0.062-0.061-0.097-0.136-0.139-0.206c-0.225,0.383-0.189,0.879,0.137,1.206L-206.573,675.962z"/>
			<path fill="#FFFFFF" d="M-198,674.5c-3.038,0-5.5,2.462-5.5,5.5c0,0.169,0.01,0.335,0.025,0.5c0.252-2.803,2.604-5,5.475-5
				c2.868,0,5.223,2.197,5.475,5c0.016-0.165,0.025-0.331,0.025-0.5C-192.5,676.962-194.963,674.5-198,674.5z"/>
			<path fill="#FFFFFF" d="M-206.573,685.038l0.329-0.329c-0.395-0.688-0.699-1.428-0.913-2.209h-2.343c-0.55,0-1-0.45-1-1v1
				c0,0.55,0.45,1,1,1h2.344C-207.01,684.036-206.805,684.544-206.573,685.038z"/>
			<path fill="#FFFFFF" d="M-189.756,675.291c0.123,0.216,0.223,0.445,0.328,0.671l1.326-1.327c0.328-0.328,0.363-0.824,0.138-1.207
				c-0.042,0.072-0.076,0.147-0.138,0.208L-189.756,675.291z"/>
			<path fill="#FFFFFF" d="M-188.102,687.777l-2.121,2.121c-0.389,0.39-1.024,0.39-1.414,0l-1.654-1.654
				c-0.688,0.393-1.428,0.699-2.209,0.912v1c0.781-0.213,1.521-0.521,2.209-0.912l1.654,1.654c0.39,0.39,1.025,0.39,1.414,0
				l2.121-2.121c0.328-0.327,0.363-0.823,0.138-1.207C-188.006,687.643-188.04,687.718-188.102,687.777z"/>
			<path fill="#FFFFFF" d="M-186.5,682.5h-2.344c-0.213,0.781-0.52,1.521-0.912,2.209l0.328,0.328
				c0.232-0.493,0.438-1.001,0.584-1.537h2.344c0.55,0,1-0.45,1-1v-1C-185.5,682.05-185.95,682.5-186.5,682.5z"/>
			<path fill="#FFFFFF" d="M-196.5,692.5h-3c-0.55,0-1-0.45-1-1v1c0,0.55,0.45,1,1,1h3c0.55,0,1-0.45,1-1v-1
				C-195.5,692.05-195.95,692.5-196.5,692.5z"/>
			<path fill="#FFFFFF" d="M-200.5,689.156c-0.781-0.213-1.521-0.521-2.208-0.912l-1.655,1.654c-0.39,0.39-1.025,0.39-1.414,0
				l-2.121-2.121c-0.062-0.062-0.096-0.135-0.138-0.207c-0.226,0.384-0.19,0.88,0.138,1.207l2.121,2.121
				c0.389,0.39,1.024,0.39,1.414,0l1.655-1.654c0.687,0.393,1.429,0.699,2.208,0.912V689.156z"/>
		</g>
		<g opacity="0.25">
			<path d="M-192.5,681c0-0.169-0.012-0.335-0.025-0.5c-0.252,2.803-2.604,5-5.475,5s-5.223-2.197-5.475-5
				c-0.016,0.165-0.025,0.331-0.025,0.5c0,3.037,2.462,5.5,5.5,5.5C-194.963,686.5-192.5,684.037-192.5,681z"/>
			<path d="M-195.5,671.843c0.781,0.214,1.521,0.521,2.209,0.913l1.654-1.654c0.39-0.39,1.025-0.39,1.414,0l2.121,2.121
				c0.062,0.061,0.096,0.135,0.138,0.207c0.226-0.384,0.19-0.88-0.138-1.207l-2.121-2.121c-0.389-0.39-1.024-0.39-1.414,0
				l-1.654,1.654c-0.688-0.393-1.428-0.699-2.209-0.913V671.843z"/>
			<path d="M-199.5,668.5h3c0.55,0,1,0.45,1,1v-1c0-0.55-0.45-1-1-1h-3c-0.55,0-1,0.45-1,1v1
				C-200.5,668.95-200.05,668.5-199.5,668.5z"/>
			<path d="M-206.244,685.709c-0.124-0.216-0.223-0.445-0.328-0.671l-1.328,1.326c-0.328,0.327-0.361,0.823-0.137,1.206
				c0.042-0.07,0.076-0.146,0.137-0.206L-206.244,685.709z"/>
			<path d="M-189.428,685.037c-0.105,0.227-0.205,0.456-0.328,0.672l1.654,1.655c0.062,0.061,0.096,0.136,0.138,0.206
				c0.226-0.383,0.19-0.879-0.138-1.206L-189.428,685.037z"/>
			<path d="M-186.5,677.5h-2.344c-0.146-0.536-0.352-1.044-0.584-1.538l-0.328,0.329c0.393,0.688,0.699,1.428,0.912,2.209h2.344
				c0.55,0,1,0.45,1,1v-1C-185.5,677.95-185.95,677.5-186.5,677.5z"/>
			<path d="M-209.5,678.5h2.343c0.214-0.781,0.521-1.521,0.913-2.209l-0.329-0.329c-0.231,0.494-0.438,1.001-0.584,1.538h-2.343
				c-0.55,0-1,0.45-1,1v1C-210.5,678.95-210.05,678.5-209.5,678.5z"/>
			<path d="M-207.898,673.223l2.121-2.121c0.389-0.39,1.024-0.39,1.414,0l1.654,1.654c0.688-0.393,1.428-0.699,2.209-0.913v-1
				c-0.781,0.214-1.521,0.521-2.209,0.913l-1.654-1.654c-0.39-0.39-1.025-0.39-1.414,0l-2.121,2.121
				c-0.328,0.326-0.363,0.823-0.139,1.207C-207.995,673.357-207.96,673.283-207.898,673.223z"/>
		</g>
	</g>
</g>
<g id="logs">
	<g>
		<g>
			<g>
				<path fill="#8C8C8C" d="M-232.216,708.761l-4.568-1.185c-0.394-0.102-1.038-0.102-1.432,0l-4.568,1.185
					c-0.394,0.103-0.716,0.466-0.716,0.808v0.932c0,0.55,0.45,1,1,1h10c0.55,0,1-0.45,1-1v-0.934
					C-231.5,709.227-231.822,708.861-232.216,708.761z M-237.5,710.5c-0.553,0-1-0.447-1-1s0.447-1,1-1s1,0.447,1,1
					S-236.947,710.5-237.5,710.5z"/>
			</g>
		</g>
		<path fill="#8C8C8C" d="M-229.5,709.5h-1.007c0.001,0,0.007,0.045,0.007,0.066v0.934c0,1.104-0.896,2-2,2h-10
			c-1.103,0-2-0.896-2-2v-0.934c0-0.021,0.006-0.066,0.007-0.066h-1.007c-1.1,0-2,0.9-2,2v18c0,1.1,0.9,2,2,2h16c1.1,0,2-0.9,2-2
			v-18C-227.5,710.4-228.4,709.5-229.5,709.5z M-243.5,715.5h6v1h-6V715.5z M-243.5,717.5h8v1h-8V717.5z M-243.5,725.5h6v1h-6V725.5
			z M-235.5,728.5h-8v-1h8V728.5z M-233.5,724.5h-10v-1h10V724.5z M-231.5,722.5h-12v-1h12V722.5z M-231.5,720.5h-12v-1h12V720.5z"
			/>
		<g opacity="0.4">
			<g>
				<g>
					<path fill="#FFFFFF" d="M-237.5,708.5c-0.553,0-1,0.447-1,1c0,0.188,0.064,0.352,0.153,0.5c0.174-0.293,0.481-0.5,0.847-0.5
						s0.673,0.207,0.848,0.5c0.088-0.148,0.152-0.312,0.152-0.5C-236.5,708.947-236.947,708.5-237.5,708.5z"/>
				</g>
				<g>
					<path fill="#FFFFFF" d="M-232.5,711.5h-10c-0.537,0-0.973-0.432-0.993-0.965c0,0.011-0.007,0.021-0.007,0.031v0.934
						c0,0.55,0.45,1,1,1h10c0.55,0,1-0.45,1-1v-0.934c0-0.01-0.007-0.021-0.007-0.031C-231.527,711.068-231.963,711.5-232.5,711.5z"
						/>
				</g>
			</g>
			<g>
				<rect x="-243.5" y="715.5" fill="#FFFFFF" width="6" height="1"/>
				<polygon fill="#FFFFFF" points="-237.5,727.5 -243.5,727.5 -243.5,728.5 -235.5,728.5 -235.5,727.5 				"/>
				<polygon fill="#FFFFFF" points="-235.5,718.5 -235.5,717.5 -237.5,717.5 -243.5,717.5 -243.5,718.5 				"/>
				<path fill="#FFFFFF" d="M-230.5,710.5h-0.007c0.001,0,0.002,0.014,0.004,0.027C-230.503,710.52-230.5,710.51-230.5,710.5z"/>
				<path fill="#FFFFFF" d="M-244.493,710.5h-0.007c0,0.01,0.003,0.02,0.003,0.027C-244.495,710.514-244.494,710.5-244.493,710.5z"
					/>
				<path fill="#FFFFFF" d="M-229.5,731.5h-16c-1.1,0-2-0.9-2-2v1c0,1.1,0.9,2,2,2h16c1.1,0,2-0.9,2-2v-1
					C-227.5,730.6-228.4,731.5-229.5,731.5z"/>
				<rect x="-243.5" y="725.5" fill="#FFFFFF" width="6" height="1"/>
				<polygon fill="#FFFFFF" points="-235.5,719.5 -243.5,719.5 -243.5,720.5 -231.5,720.5 -231.5,719.5 				"/>
				<rect x="-243.5" y="721.5" fill="#FFFFFF" width="12" height="1"/>
				<rect x="-243.5" y="723.5" fill="#FFFFFF" width="10" height="1"/>
			</g>
		</g>
		<g opacity="0.25">
			<g>
				<g>
					<path d="M-236.5,710.5c0-0.188-0.064-0.352-0.152-0.5c-0.175,0.293-0.481,0.5-0.848,0.5s-0.673-0.207-0.847-0.5
						c-0.089,0.148-0.153,0.312-0.153,0.5c0,0.553,0.447,1,1,1S-236.5,711.053-236.5,710.5z"/>
				</g>
				<g>
					<path d="M-232.216,708.761l-4.568-1.185c-0.394-0.102-1.038-0.102-1.432,0l-4.568,1.185c-0.394,0.103-0.716,0.466-0.716,0.808
						v0.932c0,0.014,0.007,0.023,0.007,0.035c0.02-0.332,0.328-0.676,0.709-0.774l4.568-1.185c0.394-0.102,1.038-0.102,1.432,0
						l4.568,1.185c0.381,0.101,0.688,0.442,0.709,0.774c0-0.012,0.007-0.021,0.007-0.035v-0.934
						C-231.5,709.227-231.822,708.861-232.216,708.761z"/>
				</g>
			</g>
			<g>
				<polygon points="-233.5,723.5 -231.5,723.5 -231.5,722.5 -243.5,722.5 -243.5,723.5 				"/>
				<rect x="-243.5" y="720.5" width="12" height="1"/>
				<rect x="-243.5" y="718.5" width="8" height="1"/>
				<path d="M-244.5,710.566v0.934c0,1.104,0.897,2,2,2h10c1.104,0,2-0.896,2-2v-0.934c0-0.01-0.001-0.025-0.003-0.039
					c-0.017,1.09-0.904,1.973-1.997,1.973h-10c-1.093,0-1.981-0.883-1.997-1.973C-244.499,710.542-244.5,710.559-244.5,710.566z"/>
				<rect x="-243.5" y="716.5" width="6" height="1"/>
				<rect x="-243.5" y="726.5" width="6" height="1"/>
				<path d="M-245.5,710.5h1v-0.934c0-0.021,0.006-0.066,0.007-0.066h-1.007c-1.1,0-2,0.9-2,2v1
					C-247.5,711.4-246.6,710.5-245.5,710.5z"/>
				<path d="M-229.5,709.5h-1.007c0.001,0,0.007,0.045,0.007,0.066v0.934h1c1.1,0,2,0.9,2,2v-1
					C-227.5,710.4-228.4,709.5-229.5,709.5z"/>
				<polygon points="-237.5,725.5 -233.5,725.5 -233.5,724.5 -243.5,724.5 -243.5,725.5 				"/>
				<rect x="-243.5" y="728.5" width="8" height="1"/>
			</g>
		</g>
	</g>
</g>
<g id="logs-health">
	<g>
		<g>
			<g>
				<path fill="#5988A5" d="M-192.216,708.761l-4.568-1.185c-0.394-0.102-1.038-0.102-1.432,0l-4.568,1.185
					c-0.394,0.103-0.716,0.466-0.716,0.808v0.932c0,0.55,0.45,1,1,1h10c0.55,0,1-0.45,1-1v-0.934
					C-191.5,709.227-191.822,708.861-192.216,708.761z M-197.5,710.5c-0.553,0-1-0.447-1-1s0.447-1,1-1s1,0.447,1,1
					S-196.947,710.5-197.5,710.5z"/>
			</g>
		</g>
		<path fill="#5988A5" d="M-189.5,709.5h-1.007c0.001,0,0.007,0.045,0.007,0.066v0.934c0,1.104-0.896,2-2,2h-10
			c-1.104,0-2-0.896-2-2v-0.934c0-0.021,0.006-0.066,0.007-0.066h-1.007c-1.1,0-2,0.9-2,2v18c0,1.1,0.9,2,2,2h16c1.1,0,2-0.9,2-2
			v-18C-187.5,710.4-188.4,709.5-189.5,709.5z M-203.5,715.5h6v1h-6V715.5z M-203.5,717.5h8v1h-8V717.5z M-203.5,725.5h6v1h-6V725.5
			z M-195.5,728.5h-8v-1h8V728.5z M-193.5,724.5h-10v-1h10V724.5z M-191.5,722.5h-12v-1h12V722.5z M-191.5,720.5h-12v-1h12V720.5z"
			/>
		<g opacity="0.4">
			<g>
				<g>
					<path fill="#FFFFFF" d="M-197.5,708.5c-0.553,0-1,0.447-1,1c0,0.188,0.064,0.352,0.152,0.5c0.175-0.293,0.48-0.5,0.848-0.5
						s0.673,0.207,0.848,0.5c0.088-0.148,0.152-0.312,0.152-0.5C-196.5,708.947-196.947,708.5-197.5,708.5z"/>
				</g>
				<g>
					<path fill="#FFFFFF" d="M-192.5,711.5h-10c-0.537,0-0.973-0.432-0.993-0.965c0,0.011-0.007,0.021-0.007,0.031v0.934
						c0,0.55,0.45,1,1,1h10c0.55,0,1-0.45,1-1v-0.934c0-0.01-0.007-0.021-0.007-0.031C-191.527,711.068-191.963,711.5-192.5,711.5z"
						/>
				</g>
			</g>
			<g>
				<rect x="-203.5" y="715.5" fill="#FFFFFF" width="6" height="1"/>
				<polygon fill="#FFFFFF" points="-197.5,727.5 -203.5,727.5 -203.5,728.5 -195.5,728.5 -195.5,727.5 				"/>
				<polygon fill="#FFFFFF" points="-195.5,718.5 -195.5,717.5 -197.5,717.5 -203.5,717.5 -203.5,718.5 				"/>
				<path fill="#FFFFFF" d="M-190.5,710.5h-0.007c0.001,0,0.002,0.014,0.004,0.027C-190.503,710.52-190.5,710.51-190.5,710.5z"/>
				<path fill="#FFFFFF" d="M-204.493,710.5h-0.007c0,0.01,0.003,0.02,0.003,0.027C-204.495,710.514-204.494,710.5-204.493,710.5z"
					/>
				<path fill="#FFFFFF" d="M-189.5,731.5h-16c-1.1,0-2-0.9-2-2v1c0,1.1,0.9,2,2,2h16c1.1,0,2-0.9,2-2v-1
					C-187.5,730.6-188.4,731.5-189.5,731.5z"/>
				<rect x="-203.5" y="725.5" fill="#FFFFFF" width="6" height="1"/>
				<polygon fill="#FFFFFF" points="-195.5,719.5 -203.5,719.5 -203.5,720.5 -191.5,720.5 -191.5,719.5 				"/>
				<rect x="-203.5" y="721.5" fill="#FFFFFF" width="12" height="1"/>
				<rect x="-203.5" y="723.5" fill="#FFFFFF" width="10" height="1"/>
			</g>
		</g>
		<g opacity="0.25">
			<g>
				<g>
					<path d="M-196.5,710.5c0-0.188-0.064-0.352-0.152-0.5c-0.175,0.293-0.48,0.5-0.848,0.5s-0.673-0.207-0.848-0.5
						c-0.088,0.148-0.152,0.312-0.152,0.5c0,0.553,0.447,1,1,1S-196.5,711.053-196.5,710.5z"/>
				</g>
				<g>
					<path d="M-192.216,708.761l-4.568-1.185c-0.394-0.102-1.038-0.102-1.432,0l-4.568,1.185c-0.394,0.103-0.716,0.466-0.716,0.808
						v0.932c0,0.014,0.007,0.023,0.007,0.035c0.021-0.332,0.328-0.676,0.709-0.774l4.568-1.185c0.394-0.102,1.038-0.102,1.432,0
						l4.568,1.185c0.381,0.101,0.688,0.442,0.709,0.774c0-0.012,0.007-0.021,0.007-0.035v-0.934
						C-191.5,709.227-191.822,708.861-192.216,708.761z"/>
				</g>
			</g>
			<g>
				<polygon points="-193.5,723.5 -191.5,723.5 -191.5,722.5 -203.5,722.5 -203.5,723.5 				"/>
				<rect x="-203.5" y="720.5" width="12" height="1"/>
				<rect x="-203.5" y="718.5" width="8" height="1"/>
				<path d="M-204.5,710.566v0.934c0,1.104,0.896,2,2,2h10c1.104,0,2-0.896,2-2v-0.934c0-0.01-0.001-0.025-0.003-0.039
					c-0.017,1.09-0.904,1.973-1.997,1.973h-10c-1.093,0-1.98-0.883-1.997-1.973C-204.499,710.542-204.5,710.559-204.5,710.566z"/>
				<rect x="-203.5" y="716.5" width="6" height="1"/>
				<rect x="-203.5" y="726.5" width="6" height="1"/>
				<path d="M-205.5,710.5h1v-0.934c0-0.021,0.006-0.066,0.007-0.066h-1.007c-1.1,0-2,0.9-2,2v1
					C-207.5,711.4-206.6,710.5-205.5,710.5z"/>
				<path d="M-189.5,709.5h-1.007c0.001,0,0.007,0.045,0.007,0.066v0.934h1c1.1,0,2,0.9,2,2v-1
					C-187.5,710.4-188.4,709.5-189.5,709.5z"/>
				<polygon points="-197.5,725.5 -193.5,725.5 -193.5,724.5 -203.5,724.5 -203.5,725.5 				"/>
				<rect x="-203.5" y="728.5" width="8" height="1"/>
			</g>
		</g>
	</g>
</g>
<g id="health">
	<g>
		<g>
			<path fill="#8C8C8C" d="M-249.016,757.635h2.851l1.665-4.959l2.643,6.579l0.81-1.62h1.265l1.602-3.171l3.5,5.788l1.514-8.854
				l1.718,6.906l0.632-0.645h1.16l1.622-3.312l1.66,3.286h0.396c0.479-1.502,0.485-2.493,0.478-2.761
				c0-0.018,0.003-0.031,0.003-0.047c0-3.494-2.828-6.326-6.314-6.326c-2.506,0-4.664,1.464-5.686,3.582
				c-1.021-2.117-3.179-3.582-5.684-3.582c-3.491,0.002-6.319,2.832-6.319,6.326c0,0.013,0.002,0.023,0.002,0.039
				C-249.507,755.109-249.505,756.107-249.016,757.635z"/>
			<path fill="#8C8C8C" d="M-227.15,758.896l-0.867-1.713l-0.852,1.739h-1.418l-1.842,1.882l-0.809-3.25l-1.067,6.25l-4.077-6.738
				l-0.924,1.83h-1.261l-1.716,3.434l-2.411-6.001l-0.862,2.567h-3.282c1.276,2.953,4.229,7.196,11.047,11.707v0.004
				c0.001-0.002,0.001-0.002,0.002-0.002c0.001,0,0.001,0,0.002,0.002v-0.004c6.818-4.51,9.762-8.754,11.032-11.707H-227.15z"/>
		</g>
		<g opacity="0.4">
			<path fill="#FFFFFF" d="M-225.521,755.425c-0.037,0.486-0.147,1.24-0.457,2.21h-0.396l-1.66-3.287l-1.622,3.313h-1.16
				l-0.632,0.646l-1.718-6.908l-1.514,8.854l-3.501-5.788l-1.602,3.172h-1.267l-0.809,1.619l-2.641-6.58l-1.664,4.959h-2.852
				c-0.312-0.969-0.425-1.723-0.464-2.208c-0.008,0.132-0.02,0.267-0.02,0.4c0,0.012,0.002,0.022,0.002,0.038
				c-0.009,0.244-0.008,1.244,0.482,2.77h2.852l1.664-4.959l2.643,6.579l0.809-1.62h1.266l1.602-3.171l3.502,5.788l1.513-8.854
				l1.718,6.906l0.631-0.645h1.162l1.621-3.312l1.66,3.286h0.396c0.478-1.502,0.483-2.493,0.476-2.76
				c0-0.017,0.003-0.032,0.003-0.048C-225.5,755.689-225.512,755.559-225.521,755.425z"/>
			<path fill="#FFFFFF" d="M-237.485,770.604v0.004c-0.001-0.002-0.001-0.002-0.003-0.002c0,0,0,0-0.002,0.002v-0.004
				c-6.084-4.025-9.086-7.834-10.57-10.707h-0.477c1.275,2.953,4.229,7.196,11.047,11.707v0.004
				c0.002-0.002,0.002-0.002,0.002-0.002c0.002,0,0.002,0,0.003,0.002v-0.004c6.818-4.51,9.762-8.754,11.032-11.707h-0.477
				C-228.406,762.77-231.4,766.58-237.485,770.604z"/>
		</g>
		<path opacity="0.25" enable-background="new    " d="M-249.479,755.426c0.207-3.306,2.942-5.924,6.296-5.924
			c2.505,0,4.662,1.464,5.684,3.581c1.021-2.117,3.179-3.581,5.685-3.581c3.354,0,6.088,2.617,6.295,5.922
			c0.021-0.267,0.021-0.456,0.02-0.55c0-0.017,0.003-0.032,0.003-0.048c0-3.494-2.828-6.325-6.313-6.325
			c-2.506,0-4.664,1.464-5.687,3.581c-1.021-2.117-3.179-3.581-5.684-3.581c-3.492,0.001-6.32,2.832-6.32,6.326
			c0,0.012,0.002,0.022,0.002,0.038C-249.501,754.954-249.503,755.146-249.479,755.426z"/>
		<path opacity="0.25" enable-background="new    " d="M-245.256,759.896l0.861-2.567l2.41,6.001l1.717-3.436h1.262l0.924-1.83
			l4.077,6.738l1.067-6.248l0.809,3.25l1.842-1.882h1.418l0.852-1.739l0.867,1.713h0.224c0.179-0.348,0.339-0.683,0.476-1h-0.7
			l-0.865-1.713l-0.853,1.739h-1.418l-1.842,1.882l-0.81-3.25l-1.067,6.25l-4.077-6.738l-0.924,1.83h-1.262l-1.717,3.434l-2.41-6
			l-0.861,2.566h-3.281c0.138,0.318,0.299,0.653,0.478,1H-245.256L-245.256,759.896z"/>
	</g>
</g>
<g id="health-hover">
	<g>
		<g>
			<path fill="#5988A5" d="M-209.016,757.635h2.852l1.664-4.959l2.645,6.579l0.81-1.62h1.267l1.602-3.171l3.5,5.788l1.514-8.854
				l1.719,6.906l0.631-0.645h1.16l1.623-3.312l1.66,3.286h0.395c0.48-1.502,0.486-2.493,0.479-2.761
				c0-0.018,0.002-0.031,0.002-0.047c0-3.494-2.827-6.326-6.313-6.326c-2.506,0-4.664,1.464-5.687,3.582
				c-1.021-2.117-3.178-3.582-5.685-3.582c-3.489,0.002-6.317,2.832-6.317,6.326c0,0.013,0.002,0.023,0.002,0.039
				C-209.506,755.109-209.504,756.107-209.016,757.635z"/>
			<path fill="#5988A5" d="M-187.15,758.896l-0.867-1.713l-0.852,1.739h-1.418l-1.842,1.882l-0.809-3.25l-1.066,6.25l-4.078-6.738
				l-0.924,1.83h-1.262l-1.715,3.434l-2.412-6.001l-0.861,2.567h-3.281c1.275,2.953,4.229,7.196,11.047,11.707v0.004
				c0-0.002,0-0.002,0.002-0.002s0.002,0,0.002,0.002v-0.004c6.818-4.51,9.762-8.754,11.031-11.707H-187.15z"/>
		</g>
		<g opacity="0.4">
			<path fill="#FFFFFF" d="M-185.521,755.425c-0.037,0.486-0.146,1.24-0.457,2.21h-0.395l-1.66-3.287l-1.623,3.313h-1.16
				l-0.631,0.646l-1.719-6.908l-1.514,8.854l-3.502-5.788l-1.603,3.172h-1.266l-0.81,1.619l-2.641-6.58l-1.664,4.959h-2.852
				c-0.312-0.969-0.426-1.723-0.465-2.208c-0.008,0.132-0.021,0.267-0.021,0.4c0,0.012,0.002,0.022,0.002,0.038
				c-0.008,0.244-0.008,1.244,0.481,2.77h2.853l1.665-4.959l2.645,6.579l0.81-1.62h1.267l1.602-3.171l3.502,5.788l1.514-8.854
				l1.717,6.906l0.631-0.645h1.162l1.621-3.312l1.66,3.286h0.396c0.479-1.502,0.483-2.493,0.477-2.76
				c0-0.017,0.002-0.032,0.002-0.048C-185.5,755.689-185.512,755.559-185.521,755.425z"/>
			<path fill="#FFFFFF" d="M-197.484,770.604v0.004c0-0.002,0-0.002-0.002-0.002c0,0,0,0-0.004,0.002v-0.004
				c-6.084-4.025-9.086-7.834-10.568-10.707h-0.479c1.275,2.953,4.229,7.196,11.047,11.707v0.004
				c0.004-0.002,0.004-0.002,0.004-0.002c0.002,0,0.002,0,0.002,0.002v-0.004c6.818-4.51,9.762-8.754,11.031-11.707h-0.477
				C-188.406,762.77-191.4,766.58-197.484,770.604z"/>
		</g>
		<path opacity="0.25" enable-background="new    " d="M-209.479,755.426c0.207-3.306,2.94-5.924,6.295-5.924
			c2.506,0,4.662,1.464,5.686,3.581c1.02-2.117,3.178-3.581,5.684-3.581c3.354,0,6.088,2.617,6.295,5.922
			c0.021-0.267,0.021-0.456,0.021-0.55c0-0.017,0.004-0.032,0.004-0.048c0-3.494-2.828-6.325-6.313-6.325
			c-2.506,0-4.664,1.464-5.687,3.581c-1.021-2.117-3.18-3.581-5.685-3.581c-3.491,0.001-6.319,2.832-6.319,6.326
			c0,0.012,0.002,0.022,0.002,0.038C-209.5,754.954-209.502,755.146-209.479,755.426z"/>
		<path opacity="0.25" enable-background="new    " d="M-205.256,759.896l0.861-2.567l2.41,6.001l1.717-3.436h1.262l0.924-1.83
			l4.078,6.738l1.066-6.248l0.809,3.25l1.842-1.882h1.418l0.852-1.739l0.867,1.713h0.226c0.178-0.348,0.338-0.683,0.475-1h-0.7
			l-0.865-1.713l-0.852,1.739h-1.418l-1.842,1.882l-0.811-3.25l-1.066,6.25l-4.078-6.738l-0.924,1.83h-1.262l-1.717,3.434l-2.41-6
			l-0.861,2.566h-3.281c0.139,0.318,0.301,0.653,0.479,1H-205.256L-205.256,759.896z"/>
	</g>
</g>
<g id="actions">
	<g>
		<g>
			<path fill="#8C8C8C" d="M-227.611,799.895c-0.199,0.323-0.434,0.617-0.699,0.879l0.547,0.983
				c0.127,0.232,0.045,0.524-0.188,0.653l-1.265,0.701c-0.229,0.128-0.523,0.043-0.651-0.188l-0.547-0.985
				c-0.369,0.09-0.754,0.136-1.142,0.127l-0.312,1.086c-0.072,0.255-0.34,0.402-0.595,0.33l-1.39-0.396
				c-0.254-0.073-0.402-0.343-0.33-0.594l0.312-1.085c-0.335-0.202-0.636-0.443-0.9-0.718l-0.986,0.547
				c-0.229,0.127-0.526,0.043-0.652-0.188l-0.702-1.265c-0.129-0.23-0.045-0.524,0.188-0.653l0.986-0.544
				c-0.09-0.372-0.135-0.755-0.129-1.146l-1.084-0.312c-0.254-0.071-0.404-0.34-0.329-0.594l0.397-1.39
				c0.072-0.254,0.341-0.401,0.595-0.33l1.084,0.311c0.201-0.333,0.44-0.634,0.717-0.896l-0.084-0.151
				c-0.047,0.024-0.097,0.043-0.143,0.069c-0.969-2.707-3.548-4.646-6.587-4.646c-3.866,0-7,3.134-7,7
				c0,1.264,0.339,2.445,0.924,3.468c-1.718,0.793-2.924,2.524-2.924,4.532c0,2.75,2.25,5,5,5h0.061l0.119-0.293
				c-0.317-0.239-0.598-0.518-0.837-0.82l-1.061,0.449c-0.246,0.104-0.537-0.014-0.641-0.26l-0.575-1.358
				c-0.107-0.247,0.009-0.536,0.259-0.642l1.057-0.449c-0.053-0.385-0.056-0.779-0.009-1.173l-1.067-0.433
				c-0.25-0.102-0.372-0.389-0.271-0.637l0.553-1.367c0.101-0.25,0.388-0.371,0.638-0.271l1.066,0.434
				c0.241-0.318,0.516-0.599,0.822-0.84l-0.449-1.058c-0.107-0.247,0.01-0.539,0.26-0.642l1.355-0.578
				c0.248-0.107,0.539,0.011,0.643,0.26l0.449,1.059c0.386-0.053,0.78-0.058,1.174-0.008l0.431-1.066
				c0.101-0.25,0.387-0.375,0.638-0.271l1.366,0.552c0.25,0.103,0.371,0.39,0.27,0.64l-0.431,1.064
				c0.316,0.24,0.598,0.518,0.838,0.821l1.058-0.449c0.248-0.104,0.537,0.012,0.643,0.26l0.575,1.359
				c0.106,0.243-0.011,0.536-0.259,0.641l-1.058,0.449c0.051,0.385,0.054,0.776,0.007,1.173l1.067,0.432
				c0.25,0.103,0.373,0.39,0.271,0.637l-0.552,1.369c-0.1,0.25-0.387,0.371-0.64,0.27l-1.066-0.432
				c-0.241,0.315-0.516,0.599-0.821,0.84l0.147,0.34h9.97c2.75,0,5-2.25,5-5C-224.5,802.42-225.795,800.645-227.611,799.895z"/>
			<circle fill="#8C8C8C" cx="-231.5" cy="797.5" r="2.646"/>
			<circle fill="#8C8C8C" cx="-242.5" cy="805.5" r="2.699"/>
		</g>
		<g opacity="0.4">
			<g>
				<path fill="#FFFFFF" d="M-247.117,807.127c-0.045-0.325-0.046-0.659-0.02-0.991l-1.038,0.44
					c-0.249,0.105-0.366,0.395-0.259,0.642l0.176,0.415c0.027-0.019,0.051-0.043,0.083-0.057L-247.117,807.127z"/>
				<path fill="#FFFFFF" d="M-236.488,794.818c-0.254-0.073-0.523,0.076-0.596,0.33l-0.396,1.389
					c-0.055,0.183,0.012,0.371,0.146,0.49l0.251-0.879c0.072-0.254,0.342-0.402,0.597-0.33l1.084,0.31
					c0.2-0.333,0.439-0.634,0.715-0.897l-0.084-0.15c-0.045,0.023-0.096,0.043-0.142,0.068c-0.055-0.152-0.132-0.293-0.196-0.44
					c-0.104,0.135-0.203,0.272-0.293,0.422L-236.488,794.818z"/>
				<path fill="#FFFFFF" d="M-247.127,805.954l-0.003-0.001c0.001,0.008,0.001,0.015,0.002,0.021
					C-247.127,805.969-247.128,805.961-247.127,805.954z"/>
				<path fill="#FFFFFF" d="M-246.207,802.68l-1.066-0.433c-0.25-0.101-0.537,0.021-0.639,0.271l-0.553,1.369
					c-0.085,0.211-0.004,0.442,0.173,0.571l0.38-0.94c0.102-0.248,0.389-0.369,0.639-0.271l1.066,0.433
					c0.24-0.315,0.516-0.598,0.822-0.839l-0.308-0.725C-245.876,802.29-246.052,802.475-246.207,802.68z"/>
				<path fill="#FFFFFF" d="M-227.952,802.41c0.231-0.129,0.313-0.421,0.188-0.653l-0.221-0.396
					c-0.109,0.137-0.201,0.289-0.326,0.41l0.354,0.641L-227.952,802.41z"/>
				<path fill="#FFFFFF" d="M-236.809,806.477l-1.062-0.429c0.031,0.329,0.035,0.663-0.005,0.998l1.066,0.431
					c0.039,0.018,0.067,0.043,0.1,0.065l0.173-0.429C-236.436,806.865-236.557,806.578-236.809,806.477z"/>
				<path fill="#FFFFFF" d="M-237.873,806.006c0.006-0.047,0.005-0.094,0.008-0.14l-0.017,0.007
					C-237.876,805.917-237.877,805.962-237.873,806.006z"/>
				<path fill="#FFFFFF" d="M-247.576,799.968c-0.517-0.905-0.827-1.938-0.896-3.038c-0.014,0.189-0.028,0.379-0.028,0.57
					c0,0.951,0.193,1.855,0.537,2.68C-247.835,800.107-247.71,800.03-247.576,799.968z"/>
				<path fill="#FFFFFF" d="M-239.421,801.152l0.173-0.426c0.101-0.25-0.021-0.539-0.271-0.641l-1.366-0.552
					c-0.25-0.103-0.537,0.021-0.638,0.271l-0.431,1.067c-0.395-0.05-0.789-0.045-1.175,0.008l-0.448-1.06
					c-0.104-0.248-0.396-0.366-0.643-0.258l-1.355,0.576c-0.25,0.104-0.367,0.396-0.26,0.643l0.176,0.414
					c0.028-0.021,0.052-0.043,0.084-0.057l1.355-0.576c0.247-0.108,0.539,0.01,0.643,0.26l0.448,1.059
					c0.386-0.053,0.78-0.058,1.175-0.008l0.431-1.066c0.101-0.252,0.388-0.375,0.638-0.271l1.366,0.553
					C-239.48,801.104-239.452,801.13-239.421,801.152z"/>
				<path fill="#FFFFFF" d="M-238.841,803.613l1.058-0.449c0.248-0.105,0.537,0.012,0.643,0.26l0.398,0.943
					c0.186-0.129,0.27-0.37,0.176-0.584l-0.574-1.359c-0.105-0.248-0.395-0.365-0.643-0.26l-1.058,0.449
					c-0.16-0.203-0.345-0.389-0.539-0.562l-0.3,0.741C-239.363,803.032-239.082,803.309-238.841,803.613z"/>
				<path fill="#FFFFFF" d="M-229.5,809.5h-7.6c-0.107,0.234-0.382,0.35-0.628,0.251l-0.621-0.251h-0.6
					c-0.204,0.241-0.423,0.467-0.667,0.659l0.146,0.341h9.97c2.75,0,5-2.25,5-5c0-0.193-0.021-0.38-0.044-0.566
					C-224.77,807.479-226.898,809.5-229.5,809.5z"/>
				<path fill="#FFFFFF" d="M-236.057,798.652l-0.867,0.479c-0.232,0.128-0.317,0.422-0.188,0.653l0.191,0.345l0.981-0.542
					C-236.012,799.282-236.046,798.969-236.057,798.652z"/>
				<path fill="#FFFFFF" d="M-234.036,802.979l0.166-0.572c-0.085-0.053-0.159-0.111-0.239-0.167l-0.074,0.252
					C-234.234,802.67-234.17,802.857-234.036,802.979z"/>
				<path fill="#FFFFFF" d="M-246.112,809.438c-0.045-0.004-0.09-0.006-0.134-0.014l-0.973,0.412
					c-0.245,0.104-0.537-0.014-0.641-0.26l-0.384-0.907c-1.242-0.821-2.079-2.187-2.214-3.745c-0.021,0.189-0.042,0.381-0.042,0.576
					c0,2.75,2.25,5,5,5h0.061l0.119-0.293C-245.618,809.98-245.882,809.721-246.112,809.438z"/>
			</g>
			<path fill="#FFFFFF" d="M-228.956,798.229c-0.403,1.403-1.869,2.22-3.274,1.813c-0.986-0.282-1.67-1.093-1.854-2.035
				c-0.255,1.328,0.528,2.656,1.854,3.035c1.405,0.403,2.871-0.41,3.274-1.813c0.12-0.416,0.121-0.836,0.043-1.234
				C-228.93,798.072-228.934,798.15-228.956,798.229z"/>
			<path fill="#FFFFFF" d="M-239.998,806.512c-0.559,1.383-2.132,2.051-3.513,1.491c-0.889-0.358-1.475-1.137-1.638-2.013
				c-0.24,1.242,0.419,2.521,1.638,3.013c1.381,0.56,2.954-0.108,3.513-1.491c0.2-0.494,0.236-1.013,0.146-1.502
				C-239.885,806.18-239.932,806.348-239.998,806.512z"/>
		</g>
		<g opacity="0.25">
			<g>
				<path d="M-247.128,805.977c-0.006,0.055-0.005,0.105-0.009,0.159l0.02-0.009C-247.124,806.077-247.123,806.025-247.128,805.977z
					"/>
				<path d="M-248.193,805.521l1.063,0.432c-0.032-0.33-0.037-0.665,0.003-0.999l-1.066-0.433c-0.038-0.017-0.066-0.041-0.099-0.063
					l-0.173,0.429C-248.565,805.135-248.443,805.422-248.193,805.521z"/>
				<path d="M-245.658,801.197c-0.186,0.13-0.27,0.371-0.176,0.586l0.142,0.333c0.101-0.095,0.199-0.19,0.308-0.275
					L-245.658,801.197z"/>
				<path d="M-227.611,800.895c1.647,0.683,2.855,2.209,3.067,4.039c0.013-0.146,0.044-0.285,0.044-0.434
					c0-2.08-1.295-3.855-3.111-4.605c-0.199,0.323-0.434,0.617-0.699,0.879l0.326,0.588
					C-227.857,801.206-227.718,801.064-227.611,800.895z"/>
				<path d="M-237.152,798.13l1.085,0.312c-0.002,0.07,0.008,0.141,0.01,0.211l0.119-0.065c-0.09-0.372-0.135-0.755-0.129-1.146
					l-1.085-0.312c-0.07-0.021-0.131-0.058-0.183-0.104l-0.146,0.512C-237.556,797.79-237.406,798.059-237.152,798.13z"/>
				<path d="M-236.536,808.113c0.086-0.211,0.005-0.442-0.173-0.571l-0.379,0.938c-0.1,0.25-0.387,0.371-0.64,0.271l-1.065-0.431
					c-0.241,0.314-0.517,0.598-0.822,0.839l0.145,0.341h0.521c0.051-0.061,0.106-0.116,0.155-0.18l0.445,0.18h1.249
					c0.003-0.007,0.009-0.012,0.012-0.02L-236.536,808.113z"/>
				<path d="M-239.421,801.152l-0.259,0.64c0.106,0.081,0.202,0.171,0.3,0.259l0.132-0.324
					C-239.163,801.516-239.243,801.282-239.421,801.152z"/>
				<path d="M-246.158,808.387l-1.061,0.449c-0.245,0.104-0.537-0.014-0.641-0.26l-0.398-0.943c-0.186,0.131-0.27,0.37-0.176,0.585
					l0.19,0.451c0.591,0.392,1.27,0.646,1.997,0.755l0.088-0.037c0.014,0.019,0.031,0.033,0.046,0.051
					c0.204,0.025,0.403,0.062,0.613,0.062h0.061l0.119-0.293C-245.637,808.968-245.918,808.689-246.158,808.387z"/>
				<path d="M-241.5,790.5c2.867,0,5.309,1.736,6.389,4.206c0.131-0.169,0.271-0.33,0.424-0.478l-0.084-0.15
					c-0.047,0.023-0.097,0.043-0.143,0.068c-0.968-2.707-3.547-4.646-6.586-4.646c-3.866,0-7,3.134-7,7
					c0,0.146,0.02,0.287,0.028,0.43C-248.181,793.331-245.174,790.5-241.5,790.5z"/>
				<path d="M-235.758,801.234c-0.229,0.127-0.526,0.043-0.652-0.188l-0.51-0.919l-0.004,0.002
					c-0.232,0.128-0.317,0.422-0.188,0.653l0.701,1.265c0.126,0.229,0.423,0.312,0.652,0.188l0.985-0.545
					c0.198,0.203,0.424,0.383,0.662,0.549l0.239-0.834c-0.335-0.201-0.636-0.442-0.901-0.715L-235.758,801.234z"/>
				<path d="M-247.576,800.968c-0.145-0.253-0.273-0.516-0.387-0.788c-1.506,0.863-2.537,2.469-2.537,4.32
					c0,0.145,0.031,0.281,0.043,0.424C-250.251,803.166-249.126,801.684-247.576,800.968z"/>
				<path d="M-234.036,802.979l-0.147,0.513c-0.071,0.251,0.076,0.521,0.332,0.594l1.389,0.397c0.255,0.072,0.521-0.076,0.595-0.332
					l0.312-1.084c0.389,0.008,0.772-0.037,1.143-0.129l0.547,0.986c0.129,0.23,0.422,0.315,0.651,0.188l1.265-0.699
					c0.232-0.129,0.314-0.421,0.188-0.653l-0.19-0.345l-1.261,0.697c-0.229,0.13-0.523,0.045-0.651-0.188l-0.547-0.986
					c-0.369,0.092-0.754,0.137-1.142,0.129l-0.312,1.084c-0.072,0.256-0.34,0.404-0.595,0.332l-1.39-0.397
					C-233.924,803.062-233.982,803.023-234.036,802.979z"/>
				<path d="M-237.87,806.048c-0.001-0.014-0.001-0.028-0.003-0.042c-0.001,0.014,0,0.026-0.002,0.04L-237.87,806.048z"/>
				<path d="M-237.882,804.873c0.043,0.326,0.044,0.659,0.017,0.993l1.041-0.442c0.248-0.104,0.365-0.396,0.258-0.641l-0.176-0.416
					c-0.027,0.02-0.05,0.043-0.082,0.057L-237.882,804.873z"/>
			</g>
			<path d="M-234.043,797.771c0.402-1.405,1.867-2.22,3.271-1.815c0.987,0.284,1.672,1.095,1.857,2.038
				c0.254-1.33-0.529-2.656-1.857-3.038c-1.404-0.403-2.869,0.41-3.271,1.815c-0.12,0.416-0.122,0.836-0.043,1.235
				C-234.07,797.93-234.064,797.85-234.043,797.771z"/>
			<path d="M-245.002,805.488c0.559-1.383,2.131-2.053,3.513-1.491c0.888,0.358,1.475,1.137,1.638,2.013
				c0.24-1.242-0.421-2.521-1.638-3.013c-1.382-0.562-2.954,0.108-3.513,1.491c-0.2,0.494-0.237,1.014-0.146,1.502
				C-245.115,805.82-245.068,805.652-245.002,805.488z"/>
		</g>
	</g>
</g>
<g id="actions-hover">
	<g>
		<g>
			<path fill="#5988A5" d="M-187.611,799.895c-0.199,0.323-0.434,0.617-0.699,0.879l0.547,0.982
				c0.127,0.232,0.047,0.524-0.188,0.653l-1.265,0.7c-0.229,0.129-0.522,0.043-0.651-0.188l-0.547-0.983
				c-0.369,0.09-0.754,0.135-1.143,0.127l-0.312,1.086c-0.07,0.254-0.34,0.4-0.595,0.33l-1.392-0.397
				c-0.254-0.073-0.4-0.343-0.33-0.595l0.312-1.084c-0.335-0.202-0.636-0.443-0.9-0.717l-0.984,0.547
				c-0.229,0.127-0.526,0.043-0.652-0.188l-0.701-1.265c-0.13-0.23-0.046-0.524,0.188-0.653l0.984-0.544
				c-0.09-0.372-0.135-0.755-0.129-1.145l-1.084-0.312c-0.254-0.07-0.404-0.34-0.328-0.594l0.396-1.391
				c0.072-0.254,0.341-0.4,0.596-0.33l1.084,0.312c0.2-0.333,0.439-0.634,0.717-0.897l-0.084-0.15
				c-0.047,0.023-0.098,0.043-0.144,0.068c-0.967-2.705-3.546-4.645-6.585-4.645c-3.866,0-7,3.134-7,7
				c0,1.264,0.339,2.445,0.924,3.468c-1.718,0.793-2.924,2.524-2.924,4.532c0,2.75,2.25,5,5,5h0.061l0.119-0.293
				c-0.316-0.239-0.598-0.518-0.837-0.82l-1.061,0.449c-0.246,0.104-0.537-0.014-0.642-0.26l-0.574-1.358
				c-0.107-0.247,0.009-0.536,0.259-0.642l1.057-0.449c-0.053-0.385-0.056-0.779-0.009-1.173l-1.066-0.433
				c-0.25-0.103-0.373-0.39-0.271-0.638l0.553-1.366c0.103-0.25,0.39-0.371,0.64-0.271l1.064,0.434
				c0.241-0.318,0.518-0.599,0.822-0.84l-0.449-1.058c-0.105-0.247,0.01-0.539,0.26-0.642l1.354-0.578
				c0.248-0.108,0.539,0.01,0.645,0.258l0.449,1.06c0.386-0.053,0.779-0.058,1.174-0.008l0.432-1.067
				c0.102-0.25,0.387-0.373,0.639-0.271l1.365,0.552c0.25,0.104,0.371,0.391,0.271,0.641l-0.431,1.064
				c0.316,0.239,0.598,0.518,0.838,0.82l1.058-0.448c0.248-0.104,0.537,0.012,0.644,0.26l0.574,1.359
				c0.106,0.243-0.011,0.536-0.258,0.641l-1.059,0.449c0.051,0.385,0.054,0.776,0.007,1.173l1.067,0.432
				c0.25,0.104,0.373,0.391,0.271,0.637l-0.552,1.369c-0.1,0.25-0.387,0.371-0.641,0.27l-1.065-0.432
				c-0.241,0.314-0.517,0.599-0.821,0.84l0.145,0.34h9.971c2.75,0,5-2.25,5-5C-184.5,802.42-185.795,800.645-187.611,799.895z"/>
			<circle fill="#5988A5" cx="-191.5" cy="797.5" r="2.646"/>
			<circle fill="#5988A5" cx="-202.5" cy="805.5" r="2.699"/>
		</g>
		<g opacity="0.4">
			<g>
				<path fill="#FFFFFF" d="M-207.117,807.127c-0.045-0.325-0.046-0.659-0.02-0.991l-1.038,0.44
					c-0.249,0.105-0.366,0.395-0.259,0.642l0.176,0.415c0.027-0.019,0.051-0.043,0.083-0.057L-207.117,807.127z"/>
				<path fill="#FFFFFF" d="M-196.488,794.818c-0.254-0.073-0.521,0.076-0.596,0.33l-0.396,1.389
					c-0.055,0.183,0.014,0.371,0.146,0.49l0.251-0.879c0.071-0.254,0.342-0.402,0.597-0.33l1.084,0.31
					c0.2-0.333,0.439-0.634,0.715-0.897l-0.084-0.15c-0.045,0.023-0.096,0.043-0.142,0.068c-0.055-0.152-0.132-0.293-0.196-0.44
					c-0.104,0.135-0.203,0.272-0.293,0.422L-196.488,794.818z"/>
				<path fill="#FFFFFF" d="M-207.127,805.954l-0.003-0.001c0.001,0.008,0.001,0.015,0.002,0.021
					C-207.127,805.969-207.128,805.961-207.127,805.954z"/>
				<path fill="#FFFFFF" d="M-206.207,802.68l-1.066-0.433c-0.25-0.101-0.537,0.021-0.639,0.271l-0.553,1.369
					c-0.085,0.211-0.004,0.442,0.173,0.571l0.38-0.94c0.102-0.248,0.389-0.369,0.639-0.271l1.066,0.433
					c0.24-0.314,0.516-0.598,0.822-0.839l-0.309-0.725C-205.876,802.29-206.052,802.475-206.207,802.68z"/>
				<path fill="#FFFFFF" d="M-187.952,802.41c0.231-0.129,0.313-0.421,0.188-0.653l-0.221-0.396
					c-0.109,0.137-0.201,0.289-0.326,0.41l0.354,0.641L-187.952,802.41z"/>
				<path fill="#FFFFFF" d="M-196.809,806.477l-1.062-0.429c0.031,0.329,0.035,0.663-0.005,0.998l1.065,0.431
					c0.039,0.019,0.066,0.043,0.101,0.065l0.173-0.429C-196.436,806.865-196.557,806.578-196.809,806.477z"/>
				<path fill="#FFFFFF" d="M-197.873,806.006c0.006-0.047,0.005-0.094,0.008-0.14l-0.017,0.007
					C-197.876,805.917-197.877,805.962-197.873,806.006z"/>
				<path fill="#FFFFFF" d="M-207.576,799.968c-0.517-0.905-0.826-1.938-0.896-3.038c-0.014,0.189-0.027,0.379-0.027,0.57
					c0,0.951,0.193,1.855,0.537,2.68C-207.835,800.107-207.71,800.029-207.576,799.968z"/>
				<path fill="#FFFFFF" d="M-199.421,801.152l0.173-0.426c0.102-0.25-0.021-0.539-0.271-0.642l-1.364-0.552
					c-0.25-0.104-0.537,0.021-0.64,0.271l-0.431,1.066c-0.396-0.051-0.789-0.045-1.175,0.008l-0.448-1.059
					c-0.104-0.25-0.396-0.367-0.644-0.26l-1.354,0.578c-0.25,0.104-0.366,0.396-0.26,0.643l0.176,0.414
					c0.028-0.021,0.052-0.043,0.084-0.057l1.354-0.576c0.248-0.108,0.539,0.01,0.644,0.26l0.448,1.059
					c0.386-0.053,0.779-0.058,1.175-0.008l0.431-1.066c0.103-0.252,0.39-0.375,0.64-0.271l1.364,0.553
					C-199.48,801.104-199.452,801.13-199.421,801.152z"/>
				<path fill="#FFFFFF" d="M-198.841,803.613l1.058-0.449c0.248-0.105,0.537,0.012,0.643,0.26l0.398,0.943
					c0.186-0.129,0.27-0.37,0.176-0.584l-0.574-1.359c-0.104-0.248-0.395-0.365-0.643-0.26l-1.058,0.449
					c-0.16-0.203-0.345-0.389-0.539-0.562l-0.3,0.741C-199.363,803.032-199.082,803.309-198.841,803.613z"/>
				<path fill="#FFFFFF" d="M-189.5,809.5h-7.6c-0.107,0.234-0.383,0.35-0.629,0.251l-0.621-0.251h-0.601
					c-0.202,0.241-0.423,0.467-0.667,0.659l0.146,0.341h9.971c2.75,0,5-2.25,5-5c0-0.193-0.021-0.38-0.044-0.566
					C-184.77,807.479-186.898,809.5-189.5,809.5z"/>
				<path fill="#FFFFFF" d="M-196.057,798.652l-0.867,0.479c-0.232,0.128-0.317,0.422-0.188,0.653l0.189,0.345l0.98-0.542
					C-196.012,799.282-196.046,798.969-196.057,798.652z"/>
				<path fill="#FFFFFF" d="M-194.036,802.979l0.166-0.572c-0.085-0.053-0.159-0.11-0.239-0.166l-0.074,0.252
					C-194.234,802.67-194.17,802.857-194.036,802.979z"/>
				<path fill="#FFFFFF" d="M-206.111,809.438c-0.046-0.004-0.091-0.006-0.135-0.014l-0.973,0.412
					c-0.245,0.104-0.537-0.014-0.641-0.26l-0.386-0.907c-1.241-0.821-2.079-2.187-2.214-3.745c-0.02,0.189-0.041,0.381-0.041,0.576
					c0,2.75,2.25,5,5,5h0.061l0.119-0.293C-205.618,809.98-205.882,809.721-206.111,809.438z"/>
			</g>
			<path fill="#FFFFFF" d="M-188.956,798.229c-0.403,1.403-1.869,2.22-3.274,1.813c-0.984-0.282-1.67-1.093-1.854-2.035
				c-0.255,1.328,0.527,2.656,1.854,3.035c1.405,0.403,2.871-0.41,3.274-1.813c0.12-0.416,0.121-0.836,0.043-1.234
				C-188.93,798.072-188.934,798.15-188.956,798.229z"/>
			<path fill="#FFFFFF" d="M-199.998,806.512c-0.559,1.383-2.132,2.051-3.514,1.491c-0.889-0.358-1.475-1.137-1.637-2.013
				c-0.24,1.242,0.418,2.521,1.637,3.013c1.382,0.56,2.955-0.108,3.514-1.491c0.2-0.494,0.236-1.013,0.146-1.502
				C-199.885,806.18-199.932,806.348-199.998,806.512z"/>
		</g>
		<g opacity="0.25">
			<g>
				<path d="M-207.128,805.977c-0.006,0.055-0.005,0.105-0.009,0.159l0.02-0.009C-207.124,806.077-207.123,806.025-207.128,805.977z
					"/>
				<path d="M-208.193,805.521l1.063,0.432c-0.032-0.33-0.037-0.665,0.003-0.999l-1.066-0.433c-0.037-0.018-0.064-0.041-0.099-0.063
					l-0.173,0.429C-208.564,805.135-208.443,805.422-208.193,805.521z"/>
				<path d="M-205.658,801.197c-0.186,0.13-0.27,0.371-0.176,0.586l0.143,0.333c0.102-0.095,0.198-0.19,0.309-0.275
					L-205.658,801.197z"/>
				<path d="M-187.611,800.895c1.647,0.684,2.855,2.209,3.067,4.039c0.013-0.146,0.044-0.285,0.044-0.434
					c0-2.08-1.295-3.855-3.111-4.605c-0.199,0.323-0.434,0.617-0.699,0.879l0.326,0.588
					C-187.857,801.206-187.718,801.064-187.611,800.895z"/>
				<path d="M-197.152,798.13l1.086,0.312c-0.002,0.07,0.008,0.141,0.01,0.211l0.119-0.065c-0.09-0.372-0.136-0.755-0.129-1.146
					l-1.086-0.312c-0.07-0.021-0.131-0.058-0.183-0.104l-0.146,0.512C-197.557,797.79-197.406,798.059-197.152,798.13z"/>
				<path d="M-196.536,808.113c0.086-0.211,0.005-0.442-0.173-0.571l-0.379,0.938c-0.1,0.25-0.387,0.371-0.641,0.271l-1.064-0.431
					c-0.241,0.313-0.518,0.598-0.822,0.839l0.145,0.341h0.521c0.052-0.061,0.106-0.116,0.155-0.18l0.445,0.18h1.25
					c0.002-0.007,0.009-0.012,0.012-0.02L-196.536,808.113z"/>
				<path d="M-199.421,801.152l-0.259,0.64c0.104,0.081,0.201,0.171,0.3,0.259l0.132-0.324
					C-199.163,801.516-199.243,801.282-199.421,801.152z"/>
				<path d="M-206.158,808.387l-1.061,0.449c-0.245,0.104-0.537-0.014-0.641-0.26l-0.398-0.943c-0.186,0.131-0.27,0.37-0.176,0.585
					l0.188,0.451c0.593,0.392,1.271,0.646,1.997,0.755l0.088-0.037c0.016,0.019,0.031,0.033,0.047,0.051
					c0.204,0.025,0.403,0.062,0.613,0.062h0.061l0.119-0.293C-205.637,808.968-205.918,808.689-206.158,808.387z"/>
				<path d="M-201.5,790.5c2.867,0,5.309,1.736,6.389,4.206c0.131-0.169,0.271-0.33,0.424-0.478l-0.084-0.15
					c-0.047,0.023-0.097,0.043-0.143,0.068c-0.968-2.707-3.547-4.646-6.586-4.646c-3.866,0-7,3.134-7,7
					c0,0.146,0.02,0.287,0.027,0.43C-208.182,793.331-205.174,790.5-201.5,790.5z"/>
				<path d="M-195.758,801.234c-0.229,0.127-0.526,0.043-0.652-0.188l-0.51-0.919l-0.004,0.002
					c-0.232,0.128-0.317,0.422-0.188,0.653l0.699,1.265c0.126,0.229,0.424,0.312,0.652,0.188l0.984-0.545
					c0.197,0.203,0.424,0.384,0.662,0.55l0.238-0.835c-0.335-0.2-0.637-0.441-0.9-0.715L-195.758,801.234z"/>
				<path d="M-207.576,800.968c-0.145-0.253-0.273-0.516-0.387-0.788c-1.506,0.863-2.537,2.469-2.537,4.32
					c0,0.145,0.031,0.281,0.043,0.424C-210.251,803.166-209.126,801.684-207.576,800.968z"/>
				<path d="M-194.036,802.979l-0.147,0.514c-0.069,0.251,0.076,0.521,0.332,0.594l1.391,0.396c0.255,0.072,0.521-0.076,0.595-0.332
					l0.312-1.084c0.39,0.009,0.771-0.035,1.144-0.129l0.548,0.986c0.129,0.23,0.422,0.315,0.65,0.188l1.265-0.698
					c0.232-0.129,0.314-0.421,0.188-0.653l-0.189-0.345l-1.261,0.696c-0.229,0.131-0.522,0.045-0.651-0.188l-0.547-0.986
					c-0.369,0.094-0.754,0.138-1.142,0.129l-0.312,1.084c-0.072,0.256-0.342,0.404-0.597,0.332l-1.392-0.396
					C-193.924,803.062-193.982,803.023-194.036,802.979z"/>
				<path d="M-197.87,806.048c-0.001-0.014-0.001-0.028-0.003-0.042c-0.001,0.014,0,0.026-0.002,0.04L-197.87,806.048z"/>
				<path d="M-197.882,804.873c0.043,0.326,0.044,0.659,0.017,0.993l1.041-0.442c0.248-0.104,0.365-0.396,0.258-0.641l-0.176-0.416
					c-0.027,0.02-0.05,0.043-0.082,0.057L-197.882,804.873z"/>
			</g>
			<path d="M-194.043,797.771c0.402-1.405,1.867-2.22,3.271-1.815c0.985,0.284,1.672,1.095,1.855,2.038
				c0.254-1.33-0.527-2.656-1.855-3.038c-1.404-0.403-2.869,0.41-3.271,1.815c-0.12,0.416-0.122,0.836-0.043,1.235
				C-194.07,797.93-194.064,797.85-194.043,797.771z"/>
			<path d="M-205.002,805.488c0.559-1.383,2.131-2.053,3.514-1.491c0.887,0.358,1.475,1.137,1.637,2.013
				c0.24-1.242-0.42-2.521-1.637-3.013c-1.383-0.562-2.955,0.108-3.514,1.491c-0.2,0.494-0.236,1.014-0.146,1.502
				C-205.115,805.82-205.068,805.652-205.002,805.488z"/>
		</g>
	</g>
</g>
<g id="virtual">
	<g>
		<g>
			<path fill="#8C8C8C" d="M-228.244,830.467c-0.141-0.531-0.706-0.967-1.256-0.967h-8h-8c-0.55,0-1.115,0.436-1.256,0.967
				l-0.009,0.033h9.265h9.266L-228.244,830.467z"/>
			<path fill="#8C8C8C" d="M-228.244,848.533c-0.141,0.531-0.706,0.967-1.256,0.967h-8h-8c-0.55,0-1.115-0.436-1.256-0.967
				l-0.009-0.033h9.265h9.266L-228.244,848.533z"/>
			<path fill="#8C8C8C" d="M-226.5,831.5h-22c-0.55,0-1,0.45-1,1v14c0,0.55,0.45,1,1,1h22c0.55,0,1-0.45,1-1v-14
				C-225.5,831.95-225.95,831.5-226.5,831.5z M-242.467,843.5h-2.054l-2.979-8h1.869l2.137,6.152l2.125-6.152h1.869L-242.467,843.5z
				 M-228.5,843.5h-1.779v-5.602l-2.341,5.602h-0.772l-2.34-5.602v5.602h-1.768v-8h2.479l2.016,4.834l2.017-4.834h2.488V843.5z"/>
		</g>
		<g opacity="0.25">
			<path d="M-228.244,830.467c-0.141-0.531-0.706-0.967-1.256-0.967h-8h-8c-0.55,0-1.115,0.436-1.256,0.967l-0.009,0.033h9.265
				h9.266L-228.244,830.467z"/>
			<path d="M-228.244,848.533c-0.141,0.531-0.706,0.967-1.256,0.967h-8h-8c-0.55,0-1.115-0.436-1.256-0.967l-0.009-0.033h9.265
				h9.266L-228.244,848.533z"/>
			<g>
				<polygon points="-244.521,844.5 -242.467,844.5 -239.5,836.5 -239.871,836.5 -242.467,843.5 -244.521,843.5 -247.128,836.5 
					-247.5,836.5 				"/>
				<polygon points="-232.62,844.5 -230.279,838.898 -230.279,837.898 -232.62,843.5 -233.393,843.5 -235.732,837.898 
					-235.732,838.898 -233.393,844.5 				"/>
				<rect x="-230.279" y="843.5" width="1.779" height="1"/>
				<rect x="-237.5" y="843.5" width="1.768" height="1"/>
				<path d="M-226.5,831.5h-22c-0.55,0-1,0.45-1,1v1c0-0.55,0.45-1,1-1h22c0.55,0,1,0.45,1,1v-1
					C-225.5,831.95-225.95,831.5-226.5,831.5z"/>
			</g>
		</g>
		<g opacity="0.4">
			<path fill="#FFFFFF" d="M-228.244,831.467c-0.141-0.531-0.706-0.967-1.256-0.967h-8h-8c-0.55,0-1.115,0.436-1.256,0.967
				l-0.009,0.033h9.265h9.266L-228.244,831.467z"/>
			<path fill="#FFFFFF" d="M-229.008,849.533c-0.131,0.531-0.648,0.967-1.152,0.967h-7.34h-7.34c-0.504,0-1.022-0.436-1.152-0.967
				L-246,849.5h8.5h8.5L-229.008,849.533z"/>
			<g>
				<polygon fill="#FFFFFF" points="-230.988,835.5 -233.007,840.334 -235.021,835.5 -237.5,835.5 -237.5,836.5 -235.021,836.5 
					-233.007,841.334 -230.988,836.5 -228.5,836.5 -228.5,835.5 				"/>
				<path fill="#FFFFFF" d="M-226.5,847.5h-22c-0.55,0-1-0.45-1-1v1c0,0.55,0.45,1,1,1h22c0.55,0,1-0.45,1-1v-1
					C-225.5,847.05-225.95,847.5-226.5,847.5z"/>
				<polygon fill="#FFFFFF" points="-241.369,835.5 -243.494,841.652 -245.631,835.5 -247.5,835.5 -247.128,836.5 -245.631,836.5 
					-243.494,842.652 -241.369,836.5 -239.871,836.5 -239.5,835.5 				"/>
			</g>
		</g>
	</g>
</g>
<g id="virtual-hover">
	<g>
		<g>
			<path fill="#5988A5" d="M-188.244,830.467c-0.141-0.531-0.706-0.967-1.256-0.967h-8h-8c-0.55,0-1.115,0.436-1.256,0.967
				l-0.01,0.033h9.266h9.266L-188.244,830.467z"/>
			<path fill="#5988A5" d="M-188.244,848.533c-0.141,0.531-0.706,0.967-1.256,0.967h-8h-8c-0.55,0-1.115-0.436-1.256-0.967
				l-0.01-0.033h9.266h9.266L-188.244,848.533z"/>
			<path fill="#5988A5" d="M-186.5,831.5h-22c-0.55,0-1,0.45-1,1v14c0,0.55,0.45,1,1,1h22c0.55,0,1-0.45,1-1v-14
				C-185.5,831.95-185.95,831.5-186.5,831.5z M-202.467,843.5h-2.055l-2.979-8h1.869l2.137,6.152l2.125-6.152h1.869L-202.467,843.5z
				 M-188.5,843.5h-1.779v-5.602l-2.341,5.602h-0.772l-2.34-5.602v5.602h-1.768v-8h2.479l2.017,4.834l2.017-4.834h2.488V843.5z"/>
		</g>
		<g opacity="0.25">
			<path d="M-188.244,830.467c-0.141-0.531-0.706-0.967-1.256-0.967h-8h-8c-0.55,0-1.115,0.436-1.256,0.967l-0.01,0.033h9.266h9.266
				L-188.244,830.467z"/>
			<path d="M-188.244,848.533c-0.141,0.531-0.706,0.967-1.256,0.967h-8h-8c-0.55,0-1.115-0.436-1.256-0.967l-0.01-0.033h9.266h9.266
				L-188.244,848.533z"/>
			<g>
				<polygon points="-204.521,844.5 -202.467,844.5 -199.5,836.5 -199.871,836.5 -202.467,843.5 -204.521,843.5 -207.128,836.5 
					-207.5,836.5 				"/>
				<polygon points="-192.62,844.5 -190.279,838.898 -190.279,837.898 -192.62,843.5 -193.393,843.5 -195.732,837.898 
					-195.732,838.898 -193.393,844.5 				"/>
				<rect x="-190.279" y="843.5" width="1.779" height="1"/>
				<rect x="-197.5" y="843.5" width="1.768" height="1"/>
				<path d="M-186.5,831.5h-22c-0.55,0-1,0.45-1,1v1c0-0.55,0.45-1,1-1h22c0.55,0,1,0.45,1,1v-1
					C-185.5,831.95-185.95,831.5-186.5,831.5z"/>
			</g>
		</g>
		<g opacity="0.4">
			<path fill="#FFFFFF" d="M-188.244,831.467c-0.141-0.531-0.706-0.967-1.256-0.967h-8h-8c-0.55,0-1.115,0.436-1.256,0.967
				l-0.01,0.033h9.266h9.266L-188.244,831.467z"/>
			<path fill="#FFFFFF" d="M-189.008,849.533c-0.131,0.531-0.648,0.967-1.152,0.967h-7.34h-7.34c-0.504,0-1.021-0.436-1.152-0.967
				L-206,849.5h8.5h8.5L-189.008,849.533z"/>
			<g>
				<polygon fill="#FFFFFF" points="-190.988,835.5 -193.007,840.334 -195.021,835.5 -197.5,835.5 -197.5,836.5 -195.021,836.5 
					-193.007,841.334 -190.988,836.5 -188.5,836.5 -188.5,835.5 				"/>
				<path fill="#FFFFFF" d="M-186.5,847.5h-22c-0.55,0-1-0.45-1-1v1c0,0.55,0.45,1,1,1h22c0.55,0,1-0.45,1-1v-1
					C-185.5,847.05-185.95,847.5-186.5,847.5z"/>
				<polygon fill="#FFFFFF" points="-201.369,835.5 -203.494,841.652 -205.631,835.5 -207.5,835.5 -207.128,836.5 -205.631,836.5 
					-203.494,842.652 -201.369,836.5 -199.871,836.5 -199.5,835.5 				"/>
			</g>
		</g>
	</g>
</g>
<g id="plugin">
	<g>
		<path fill="#8C8C8C" d="M-227.707,879.848c0.121-0.431,0.207-0.878,0.207-1.348c0-2.762-2.238-5-5-5
			c-0.881,0-1.695,0.247-2.414,0.646c-0.968-2.707-3.547-4.646-6.586-4.646c-3.866,0-7,3.134-7,7c0,1.264,0.339,2.445,0.924,3.468
			c-1.718,0.793-2.924,2.524-2.924,4.532c0,2.75,2.25,5,5,5h8c0.553,0,1-0.447,1-1v-1v-2h2c0.55,0,1-0.45,1-1v-2c0.55,0,1-0.45,1-1
			s-0.45-1-1-1h-1v-2c0-0.55-0.45-1-1-1s-1,0.45-1,1v2h-2v-2c0-0.55-0.45-1-1-1s-1,0.45-1,1v2h-1c-0.55,0-1,0.45-1,1s0.45,1,1,1v2
			c0,0.55,0.45,1,1,1h2v2h-7c-1.654,0-3-1.346-3-3c0-1.156,0.691-2.223,1.762-2.717c0.51-0.234,0.896-0.674,1.066-1.206
			c0.172-0.534,0.11-1.116-0.168-1.603c-0.431-0.755-0.66-1.61-0.66-2.475c0-2.757,2.243-5,5-5c2.104,0,3.992,1.334,4.703,3.32
			c0.197,0.553,0.629,0.992,1.179,1.199c0.228,0.084,0.466,0.127,0.704,0.127c0.337,0,0.672-0.084,0.973-0.252
			c0.47-0.262,0.955-0.395,1.441-0.395c1.654,0,3,1.346,3,3c0,0.229-0.042,0.484-0.133,0.807c-0.278,0.992,0.24,2.032,1.201,2.405
			c1.157,0.449,1.932,1.569,1.932,2.788c0,1.654-1.346,3-3,3h-3c-0.553,0-1,0.447-1,1s0.447,1,1,1h3c2.75,0,5-2.25,5-5
			C-224.5,882.383-225.839,880.574-227.707,879.848z"/>
		<g opacity="0.4">
			<path fill="#FFFFFF" d="M-248.45,884.992c0.169-0.952,0.801-1.788,1.712-2.209c0.51-0.234,0.896-0.674,1.066-1.206
				c0.117-0.364,0.117-0.748,0.023-1.111c-0.01,0.037-0.012,0.075-0.023,0.111c-0.17,0.532-0.557,0.972-1.066,1.206
				c-1.071,0.494-1.762,1.561-1.762,2.717C-248.5,884.668-248.478,884.831-248.45,884.992z"/>
			<path fill="#FFFFFF" d="M-240.5,885.5c-0.55,0-1-0.45-1-1v1c0,0.55,0.45,1,1,1h2v-1H-240.5z"/>
			<path fill="#FFFFFF" d="M-232.5,875.5c-0.486,0-0.971,0.133-1.441,0.395c-0.301,0.168-0.636,0.252-0.973,0.252
				c-0.238,0-0.477-0.041-0.704-0.127c-0.55-0.207-0.981-0.646-1.179-1.199c-0.711-1.986-2.599-3.32-4.703-3.32
				c-2.757,0-5,2.243-5,5c0,0.203,0.015,0.405,0.04,0.605c0.205-2.569,2.338-4.605,4.96-4.605c2.104,0,3.992,1.334,4.703,3.32
				c0.197,0.553,0.629,0.992,1.179,1.199c0.228,0.084,0.466,0.127,0.704,0.127c0.337,0,0.672-0.084,0.973-0.252
				c0.47-0.262,0.955-0.395,1.441-0.395c1.471,0,2.691,1.064,2.945,2.464c0.034-0.168,0.055-0.323,0.055-0.464
				C-229.5,876.846-230.846,875.5-232.5,875.5z"/>
			<path fill="#FFFFFF" d="M-241.5,882.5c-0.364,0-0.671-0.207-0.846-0.5c-0.089,0.148-0.154,0.314-0.154,0.5c0,0.55,0.45,1,1,1
				V882.5z"/>
			<path fill="#FFFFFF" d="M-232.5,882.5c0-0.186-0.064-0.352-0.154-0.5c-0.175,0.293-0.482,0.5-0.846,0.5v1
				C-232.95,883.5-232.5,883.05-232.5,882.5z"/>
			<path fill="#FFFFFF" d="M-227.536,879.93c0.015-0.143,0.036-0.283,0.036-0.43c0-0.156-0.032-0.303-0.046-0.456
				c-0.036,0.274-0.088,0.543-0.161,0.804C-227.646,879.871-227.596,879.904-227.536,879.93z"/>
			<path fill="#FFFFFF" d="M-229.5,889.5h-3c-0.366,0-0.673-0.206-0.848-0.5c-0.088,0.148-0.152,0.312-0.152,0.5
				c0,0.553,0.447,1,1,1h3c2.75,0,5-2.25,5-5c0-0.191-0.023-0.378-0.044-0.562C-224.771,887.48-226.898,889.5-229.5,889.5z"/>
			<path fill="#FFFFFF" d="M-233.5,884.5c0,0.55-0.45,1-1,1h-2v1h2c0.55,0,1-0.45,1-1V884.5z"/>
			<path fill="#FFFFFF" d="M-237.5,889.5h-8c-2.605,0-4.736-2.025-4.957-4.576c-0.022,0.189-0.043,0.381-0.043,0.576
				c0,2.75,2.25,5,5,5h8c0.553,0,1-0.447,1-1v-1C-236.5,889.053-236.947,889.5-237.5,889.5z"/>
			<path fill="#FFFFFF" d="M-247.576,879.968c-0.518-0.905-0.827-1.938-0.896-3.036c-0.014,0.188-0.028,0.377-0.028,0.568
				c0,0.951,0.192,1.855,0.537,2.682C-247.836,880.107-247.711,880.03-247.576,879.968z"/>
			<path fill="#FFFFFF" d="M-228.432,881.712c-0.62-0.241-1.053-0.762-1.209-1.366c-0.254,0.979,0.262,1.998,1.209,2.366
				c0.99,0.386,1.699,1.267,1.882,2.278c0.028-0.16,0.05-0.322,0.05-0.49C-226.5,883.281-227.275,882.161-228.432,881.712z"/>
		</g>
		<g opacity="0.25">
			<path d="M-233.5,880.5h-1v1h1c0.363,0,0.671,0.207,0.846,0.5c0.09-0.148,0.154-0.314,0.154-0.5
				C-232.5,880.95-232.95,880.5-233.5,880.5z"/>
			<path d="M-242.5,881.5c0,0.186,0.065,0.352,0.154,0.5c0.176-0.293,0.482-0.5,0.846-0.5h1v-1h-1
				C-242.05,880.5-242.5,880.95-242.5,881.5z"/>
			<path d="M-238.5,878.5c0-0.55-0.45-1-1-1s-1,0.45-1,1v1c0-0.55,0.45-1,1-1s1,0.45,1,1V878.5z"/>
			<path d="M-232.5,888.5h3c1.654,0,3-1.346,3-3c0-0.173-0.02-0.343-0.05-0.51c-0.235,1.421-1.464,2.51-2.95,2.51h-3
				c-0.553,0-1,0.447-1,1c0,0.188,0.064,0.352,0.152,0.5C-233.173,888.706-232.866,888.5-232.5,888.5z"/>
			<path d="M-227.707,880.848c1.699,0.661,2.948,2.221,3.163,4.09c0.013-0.147,0.044-0.289,0.044-0.438
				c0-2.05-1.262-3.802-3.036-4.57C-227.568,880.244-227.624,880.552-227.707,880.848z"/>
			<path d="M-235.5,878.5c0.55,0,1,0.45,1,1v-1c0-0.55-0.45-1-1-1s-1,0.45-1,1v1C-236.5,878.95-236.05,878.5-235.5,878.5z"/>
			<path d="M-241.5,870.5c3.039,0,5.618,1.939,6.586,4.646c0.719-0.399,1.533-0.646,2.414-0.646c2.605,0,4.721,2,4.954,4.544
				c0.025-0.179,0.046-0.358,0.046-0.544c0-2.762-2.238-5-5-5c-0.881,0-1.695,0.247-2.414,0.646
				c-0.968-2.707-3.547-4.646-6.586-4.646c-3.866,0-7,3.134-7,7c0,0.146,0.02,0.287,0.029,0.432
				C-248.181,873.332-245.174,870.5-241.5,870.5z"/>
			<path d="M-247.576,880.968c-0.145-0.253-0.274-0.516-0.387-0.786c-1.506,0.861-2.537,2.467-2.537,4.318
				c0,0.145,0.031,0.281,0.043,0.424C-250.25,883.166-249.126,881.684-247.576,880.968z"/>
			<rect x="-238.5" y="880.5" width="2" height="1"/>
			<path d="M-229.5,879.5c0-0.184-0.021-0.361-0.055-0.536c-0.021,0.108-0.043,0.218-0.078,0.343
				c-0.1,0.353-0.094,0.707-0.008,1.039c0.004-0.013,0.004-0.025,0.008-0.039C-229.542,879.984-229.5,879.729-229.5,879.5z"/>
			<path d="M-245.84,879.975c0.089,0.155,0.147,0.321,0.191,0.491c0.13-0.503,0.068-1.038-0.191-1.491
				c-0.33-0.578-0.539-1.215-0.62-1.869c-0.011,0.133-0.04,0.26-0.04,0.395C-246.5,878.364-246.271,879.22-245.84,879.975z"/>
			<path d="M-245.5,888.5h7v-1h-7c-1.486,0-2.714-1.088-2.95-2.508c-0.03,0.166-0.05,0.336-0.05,0.508
				C-248.5,887.154-247.154,888.5-245.5,888.5z"/>
		</g>
	</g>
</g>
<g id="plugin-hover">
	<g>
		<path fill="#5988A5" d="M-187.707,879.848c0.121-0.431,0.207-0.878,0.207-1.348c0-2.762-2.238-5-5-5
			c-0.881,0-1.695,0.247-2.414,0.646c-0.968-2.707-3.547-4.646-6.586-4.646c-3.866,0-7,3.134-7,7c0,1.264,0.339,2.445,0.924,3.468
			c-1.718,0.793-2.924,2.524-2.924,4.532c0,2.75,2.25,5,5,5h8c0.553,0,1-0.447,1-1v-1v-2h2c0.55,0,1-0.45,1-1v-2c0.55,0,1-0.45,1-1
			s-0.45-1-1-1h-1v-2c0-0.55-0.45-1-1-1s-1,0.45-1,1v2h-2v-2c0-0.55-0.45-1-1-1s-1,0.45-1,1v2h-1c-0.55,0-1,0.45-1,1s0.45,1,1,1v2
			c0,0.55,0.45,1,1,1h2v2h-7c-1.654,0-3-1.346-3-3c0-1.156,0.689-2.223,1.762-2.717c0.51-0.234,0.896-0.674,1.066-1.206
			c0.172-0.534,0.109-1.116-0.168-1.603c-0.432-0.755-0.66-1.61-0.66-2.475c0-2.757,2.243-5,5-5c2.104,0,3.992,1.334,4.703,3.32
			c0.197,0.553,0.629,0.992,1.179,1.199c0.228,0.084,0.466,0.127,0.704,0.127c0.337,0,0.672-0.084,0.973-0.252
			c0.471-0.262,0.955-0.395,1.441-0.395c1.654,0,3,1.346,3,3c0,0.229-0.042,0.484-0.133,0.807c-0.278,0.992,0.24,2.032,1.201,2.405
			c1.156,0.449,1.932,1.569,1.932,2.788c0,1.654-1.346,3-3,3h-3c-0.553,0-1,0.447-1,1s0.447,1,1,1h3c2.75,0,5-2.25,5-5
			C-184.5,882.383-185.839,880.574-187.707,879.848z"/>
		<g opacity="0.4">
			<path fill="#FFFFFF" d="M-208.45,884.992c0.169-0.952,0.802-1.788,1.712-2.209c0.51-0.234,0.896-0.674,1.066-1.206
				c0.115-0.364,0.115-0.748,0.021-1.111c-0.01,0.037-0.012,0.075-0.021,0.111c-0.17,0.532-0.559,0.972-1.066,1.206
				c-1.072,0.494-1.762,1.561-1.762,2.717C-208.5,884.668-208.479,884.831-208.45,884.992z"/>
			<path fill="#FFFFFF" d="M-200.5,885.5c-0.55,0-1-0.45-1-1v1c0,0.55,0.45,1,1,1h2v-1H-200.5z"/>
			<path fill="#FFFFFF" d="M-192.5,875.5c-0.486,0-0.971,0.133-1.441,0.395c-0.301,0.168-0.636,0.252-0.973,0.252
				c-0.238,0-0.477-0.041-0.704-0.127c-0.55-0.207-0.981-0.646-1.179-1.199c-0.711-1.985-2.6-3.319-4.703-3.319
				c-2.757,0-5,2.243-5,5c0,0.203,0.016,0.405,0.04,0.604c0.205-2.569,2.338-4.605,4.96-4.605c2.104,0,3.992,1.334,4.703,3.32
				c0.197,0.553,0.629,0.992,1.179,1.199c0.228,0.084,0.466,0.127,0.704,0.127c0.337,0,0.672-0.084,0.973-0.252
				c0.471-0.262,0.955-0.395,1.441-0.395c1.471,0,2.691,1.064,2.945,2.464c0.033-0.168,0.055-0.323,0.055-0.464
				C-189.5,876.846-190.846,875.5-192.5,875.5z"/>
			<path fill="#FFFFFF" d="M-201.5,882.5c-0.363,0-0.671-0.207-0.848-0.5c-0.088,0.148-0.152,0.314-0.152,0.5c0,0.55,0.45,1,1,1
				V882.5z"/>
			<path fill="#FFFFFF" d="M-192.5,882.5c0-0.186-0.064-0.352-0.154-0.5c-0.175,0.293-0.482,0.5-0.846,0.5v1
				C-192.95,883.5-192.5,883.05-192.5,882.5z"/>
			<path fill="#FFFFFF" d="M-187.536,879.93c0.015-0.143,0.036-0.283,0.036-0.43c0-0.156-0.032-0.303-0.046-0.456
				c-0.036,0.274-0.088,0.543-0.161,0.804C-187.646,879.871-187.596,879.904-187.536,879.93z"/>
			<path fill="#FFFFFF" d="M-189.5,889.5h-3c-0.366,0-0.673-0.206-0.848-0.5c-0.088,0.148-0.152,0.312-0.152,0.5
				c0,0.553,0.447,1,1,1h3c2.75,0,5-2.25,5-5c0-0.191-0.023-0.378-0.044-0.562C-184.771,887.48-186.898,889.5-189.5,889.5z"/>
			<path fill="#FFFFFF" d="M-193.5,884.5c0,0.55-0.45,1-1,1h-2v1h2c0.55,0,1-0.45,1-1V884.5z"/>
			<path fill="#FFFFFF" d="M-197.5,889.5h-8c-2.605,0-4.736-2.025-4.957-4.576c-0.021,0.189-0.043,0.381-0.043,0.576
				c0,2.75,2.25,5,5,5h8c0.553,0,1-0.447,1-1v-1C-196.5,889.053-196.947,889.5-197.5,889.5z"/>
			<path fill="#FFFFFF" d="M-207.576,879.968c-0.518-0.905-0.826-1.938-0.896-3.036c-0.014,0.188-0.027,0.377-0.027,0.568
				c0,0.951,0.191,1.855,0.537,2.682C-207.836,880.107-207.711,880.029-207.576,879.968z"/>
			<path fill="#FFFFFF" d="M-188.432,881.712c-0.621-0.241-1.053-0.762-1.209-1.366c-0.254,0.979,0.262,1.998,1.209,2.366
				c0.99,0.386,1.699,1.267,1.882,2.278c0.028-0.16,0.05-0.322,0.05-0.49C-186.5,883.281-187.275,882.161-188.432,881.712z"/>
		</g>
		<g opacity="0.25">
			<path d="M-193.5,880.5h-1v1h1c0.363,0,0.671,0.207,0.846,0.5c0.09-0.148,0.154-0.314,0.154-0.5
				C-192.5,880.95-192.95,880.5-193.5,880.5z"/>
			<path d="M-202.5,881.5c0,0.186,0.064,0.352,0.152,0.5c0.178-0.293,0.482-0.5,0.848-0.5h1v-1h-1
				C-202.05,880.5-202.5,880.95-202.5,881.5z"/>
			<path d="M-198.5,878.5c0-0.55-0.45-1-1-1s-1,0.45-1,1v1c0-0.55,0.45-1,1-1s1,0.45,1,1V878.5z"/>
			<path d="M-192.5,888.5h3c1.654,0,3-1.346,3-3c0-0.173-0.02-0.343-0.05-0.51c-0.235,1.421-1.464,2.51-2.95,2.51h-3
				c-0.553,0-1,0.447-1,1c0,0.188,0.064,0.352,0.152,0.5C-193.173,888.706-192.866,888.5-192.5,888.5z"/>
			<path d="M-187.707,880.848c1.699,0.661,2.948,2.221,3.163,4.09c0.013-0.147,0.044-0.289,0.044-0.438
				c0-2.05-1.262-3.802-3.036-4.57C-187.568,880.244-187.624,880.552-187.707,880.848z"/>
			<path d="M-195.5,878.5c0.55,0,1,0.45,1,1v-1c0-0.55-0.45-1-1-1s-1,0.45-1,1v1C-196.5,878.95-196.05,878.5-195.5,878.5z"/>
			<path d="M-201.5,870.5c3.039,0,5.618,1.939,6.586,4.646c0.719-0.399,1.533-0.646,2.414-0.646c2.605,0,4.721,2,4.954,4.544
				c0.024-0.179,0.046-0.358,0.046-0.544c0-2.762-2.238-5-5-5c-0.881,0-1.695,0.247-2.414,0.646
				c-0.968-2.707-3.547-4.646-6.586-4.646c-3.866,0-7,3.134-7,7c0,0.146,0.02,0.287,0.027,0.432
				C-208.182,873.332-205.174,870.5-201.5,870.5z"/>
			<path d="M-207.576,880.968c-0.146-0.253-0.273-0.516-0.387-0.786c-1.506,0.861-2.537,2.467-2.537,4.318
				c0,0.145,0.031,0.281,0.043,0.424C-210.25,883.166-209.126,881.684-207.576,880.968z"/>
			<rect x="-198.5" y="880.5" width="2" height="1"/>
			<path d="M-189.5,879.5c0-0.184-0.021-0.361-0.055-0.536c-0.021,0.108-0.043,0.218-0.078,0.343
				c-0.1,0.353-0.094,0.707-0.008,1.039c0.004-0.013,0.004-0.025,0.008-0.039C-189.542,879.984-189.5,879.729-189.5,879.5z"/>
			<path d="M-205.84,879.975c0.089,0.155,0.146,0.321,0.189,0.491c0.131-0.503,0.068-1.038-0.189-1.491
				c-0.33-0.578-0.539-1.215-0.62-1.869c-0.013,0.133-0.04,0.26-0.04,0.395C-206.5,878.364-206.271,879.22-205.84,879.975z"/>
			<path d="M-205.5,888.5h7v-1h-7c-1.486,0-2.714-1.088-2.95-2.508c-0.03,0.166-0.05,0.336-0.05,0.508
				C-208.5,887.154-207.154,888.5-205.5,888.5z"/>
		</g>
	</g>
</g>
<g>
	<g>
		<g>
			<path fill="#8C8C8C" d="M-237.5,910.5c-7.18,0-13,6.715-13,15c0,2.2,1.8,4,4,4h18c2.2,0,4-1.8,4-4
				C-224.5,917.215-230.32,910.5-237.5,910.5z M-237.5,911.5c0.552,0,1,0.447,1,1s-0.448,1-1,1s-1-0.447-1-1
				S-238.052,911.5-237.5,911.5z M-247.5,924.5c-0.552,0-1-0.447-1-1s0.448-1,1-1s1,0.447,1,1S-246.948,924.5-247.5,924.5z
				 M-246.5,919.5c-0.552,0-1-0.447-1-1s0.448-1,1-1s1,0.447,1,1S-245.948,919.5-246.5,919.5z M-242.5,915.5c-0.552,0-1-0.447-1-1
				s0.448-1,1-1s1,0.447,1,1S-241.948,915.5-242.5,915.5z M-240.5,927.5c0-1.104,1.343-2,3-2s3,0.896,3,2H-240.5z M-231.843,919.758
				l-4.243,4.242c-0.391,0.391-1.023,0.391-1.414,0s-0.391-1.023,0-1.414l4.243-4.243c0.391-0.391,1.024-0.39,1.414,0
				C-231.453,918.733-231.452,919.366-231.843,919.758z M-232.5,915.5c-0.552,0-1-0.447-1-1s0.448-1,1-1s1,0.447,1,1
				S-231.948,915.5-232.5,915.5z M-229.5,918.5c0-0.553,0.448-1,1-1s1,0.447,1,1s-0.448,1-1,1S-229.5,919.053-229.5,918.5z
				 M-227.5,924.5c-0.552,0-1-0.447-1-1s0.448-1,1-1s1,0.447,1,1S-226.948,924.5-227.5,924.5z"/>
		</g>
	</g>
	<g opacity="0.25">
		<g>
			<path d="M-247.5,925.5c0.552,0,1-0.447,1-1c0-0.187-0.064-0.351-0.153-0.5c-0.174,0.294-0.48,0.5-0.847,0.5
				s-0.673-0.206-0.847-0.5c-0.089,0.149-0.153,0.313-0.153,0.5C-248.5,925.053-248.052,925.5-247.5,925.5z"/>
		</g>
		<g>
			<path d="M-232.5,916.5c0.552,0,1-0.447,1-1c0-0.187-0.064-0.351-0.153-0.5c-0.174,0.294-0.48,0.5-0.847,0.5
				s-0.673-0.206-0.847-0.5c-0.089,0.149-0.153,0.313-0.153,0.5C-233.5,916.053-233.052,916.5-232.5,916.5z"/>
		</g>
		<g>
			<path d="M-242.5,916.5c0.552,0,1-0.447,1-1c0-0.187-0.064-0.351-0.153-0.5c-0.174,0.294-0.48,0.5-0.847,0.5
				s-0.673-0.206-0.847-0.5c-0.089,0.149-0.153,0.313-0.153,0.5C-243.5,916.053-243.052,916.5-242.5,916.5z"/>
		</g>
		<g>
			<path d="M-237.5,911.5c6.975,0,12.651,6.343,12.969,14.301c0.008-0.101,0.031-0.197,0.031-0.301c0-8.285-5.82-15-13-15
				s-13,6.715-13,15c0,0.104,0.023,0.2,0.031,0.301C-250.151,917.843-244.475,911.5-237.5,911.5z"/>
		</g>
		<g>
			<path d="M-246.5,920.5c0.552,0,1-0.447,1-1c0-0.187-0.064-0.351-0.153-0.5c-0.174,0.294-0.48,0.5-0.847,0.5
				s-0.673-0.206-0.847-0.5c-0.089,0.149-0.153,0.313-0.153,0.5C-247.5,920.053-247.052,920.5-246.5,920.5z"/>
		</g>
		<g>
			<path d="M-227.5,924.5c-0.366,0-0.673-0.206-0.847-0.5c-0.089,0.149-0.153,0.313-0.153,0.5c0,0.553,0.448,1,1,1s1-0.447,1-1
				c0-0.187-0.064-0.351-0.153-0.5C-226.827,924.294-227.134,924.5-227.5,924.5z"/>
		</g>
		<g>
			<path d="M-228.5,920.5c0.552,0,1-0.447,1-1c0-0.187-0.064-0.351-0.153-0.5c-0.174,0.294-0.48,0.5-0.847,0.5
				s-0.673-0.206-0.847-0.5c-0.089,0.149-0.153,0.313-0.153,0.5C-229.5,920.053-229.052,920.5-228.5,920.5z"/>
		</g>
		<g>
			<path d="M-234.5,928.5c0-0.366-0.158-0.705-0.416-1h-5.168c-0.258,0.295-0.416,0.634-0.416,1H-234.5z"/>
		</g>
		<g>
			<path d="M-236.086,924c-0.391,0.391-1.023,0.391-1.414,0c-0.061-0.062-0.096-0.136-0.138-0.207
				c-0.226,0.384-0.192,0.878,0.138,1.207c0.391,0.391,1.023,0.391,1.414,0l4.243-4.242c0.33-0.33,0.364-0.824,0.138-1.208
				c-0.042,0.071-0.077,0.146-0.138,0.208L-236.086,924z"/>
		</g>
		<g>
			<path d="M-237.5,914.5c0.552,0,1-0.447,1-1c0-0.187-0.064-0.351-0.153-0.5c-0.174,0.294-0.48,0.5-0.847,0.5
				s-0.673-0.206-0.847-0.5c-0.089,0.149-0.153,0.313-0.153,0.5C-238.5,914.053-238.052,914.5-237.5,914.5z"/>
		</g>
	</g>
	<g opacity="0.4">
		<g>
			<path fill="#FFFFFF" d="M-231.843,918.343c-0.39-0.39-1.023-0.391-1.414,0l-4.243,4.243c-0.33,0.329-0.364,0.823-0.138,1.207
				c0.042-0.071,0.077-0.146,0.138-0.207l4.243-4.243c0.391-0.391,1.024-0.39,1.414,0c0.061,0.062,0.096,0.136,0.138,0.207
				C-231.479,919.166-231.514,918.672-231.843,918.343z"/>
		</g>
		<g>
			<path fill="#FFFFFF" d="M-242.5,913.5c-0.552,0-1,0.447-1,1c0,0.187,0.064,0.351,0.153,0.5c0.174-0.294,0.48-0.5,0.847-0.5
				s0.673,0.206,0.847,0.5c0.089-0.149,0.153-0.313,0.153-0.5C-241.5,913.947-241.948,913.5-242.5,913.5z"/>
		</g>
		<g>
			<path fill="#FFFFFF" d="M-237.5,925.5c-1.657,0-3,0.896-3,2h0.416c0.52-0.596,1.477-1,2.584-1s2.064,0.404,2.584,1h0.416
				C-234.5,926.396-235.843,925.5-237.5,925.5z"/>
		</g>
		<g>
			<path fill="#FFFFFF" d="M-247.5,922.5c-0.552,0-1,0.447-1,1c0,0.187,0.064,0.351,0.153,0.5c0.174-0.294,0.48-0.5,0.847-0.5
				s0.673,0.206,0.847,0.5c0.089-0.149,0.153-0.313,0.153-0.5C-246.5,922.947-246.948,922.5-247.5,922.5z"/>
		</g>
		<g>
			<path fill="#FFFFFF" d="M-246.5,917.5c-0.552,0-1,0.447-1,1c0,0.187,0.064,0.351,0.153,0.5c0.174-0.294,0.48-0.5,0.847-0.5
				s0.673,0.206,0.847,0.5c0.089-0.149,0.153-0.313,0.153-0.5C-245.5,917.947-245.948,917.5-246.5,917.5z"/>
		</g>
		<g>
			<path fill="#FFFFFF" d="M-232.5,913.5c-0.552,0-1,0.447-1,1c0,0.187,0.064,0.351,0.153,0.5c0.174-0.294,0.48-0.5,0.847-0.5
				s0.673,0.206,0.847,0.5c0.089-0.149,0.153-0.313,0.153-0.5C-231.5,913.947-231.948,913.5-232.5,913.5z"/>
		</g>
		<g>
			<path fill="#FFFFFF" d="M-227.5,922.5c-0.552,0-1,0.447-1,1c0,0.187,0.064,0.351,0.153,0.5c0.174-0.294,0.48-0.5,0.847-0.5
				s0.673,0.206,0.847,0.5c0.089-0.149,0.153-0.313,0.153-0.5C-226.5,922.947-226.948,922.5-227.5,922.5z"/>
		</g>
		<g>
			<path fill="#FFFFFF" d="M-228.5,929.5h-18c-2.097,0-3.812-1.641-3.969-3.699c-0.009,0.233-0.031,0.463-0.031,0.699
				c0,2.2,1.8,4,4,4h18c2.2,0,4-1.8,4-4c0-0.236-0.021-0.466-0.031-0.699C-224.688,927.859-226.403,929.5-228.5,929.5z"/>
		</g>
		<g>
			<path fill="#FFFFFF" d="M-238.5,912.5c0,0.187,0.064,0.351,0.153,0.5c0.174-0.294,0.48-0.5,0.847-0.5s0.673,0.206,0.847,0.5
				c0.089-0.149,0.153-0.313,0.153-0.5c0-0.553-0.448-1-1-1S-238.5,911.947-238.5,912.5z"/>
		</g>
		<g>
			<path fill="#FFFFFF" d="M-228.5,917.5c-0.552,0-1,0.447-1,1c0,0.187,0.064,0.351,0.153,0.5c0.174-0.294,0.48-0.5,0.847-0.5
				s0.673,0.206,0.847,0.5c0.089-0.149,0.153-0.313,0.153-0.5C-227.5,917.947-227.948,917.5-228.5,917.5z"/>
		</g>
	</g>
</g>
<g>
	<g>
		<g>
			<path fill="#5988A5" d="M-197.5,910.5c-7.18,0-13,6.715-13,15c0,2.2,1.8,4,4,4h18c2.2,0,4-1.8,4-4
				C-184.5,917.215-190.32,910.5-197.5,910.5z M-197.5,911.5c0.553,0,1,0.447,1,1s-0.447,1-1,1s-1-0.447-1-1
				S-198.053,911.5-197.5,911.5z M-207.5,924.5c-0.553,0-1-0.447-1-1s0.447-1,1-1s1,0.447,1,1S-206.947,924.5-207.5,924.5z
				 M-206.5,919.5c-0.553,0-1-0.447-1-1s0.447-1,1-1s1,0.447,1,1S-205.947,919.5-206.5,919.5z M-202.5,915.5c-0.553,0-1-0.447-1-1
				s0.447-1,1-1s1,0.447,1,1S-201.947,915.5-202.5,915.5z M-200.5,927.5c0-1.104,1.344-2,3-2s3,0.896,3,2H-200.5z M-191.844,919.758
				l-4.242,4.242c-0.391,0.391-1.023,0.391-1.414,0s-0.391-1.023,0-1.414l4.242-4.243c0.391-0.391,1.024-0.39,1.414,0
				C-191.453,918.733-191.452,919.366-191.844,919.758z M-192.5,915.5c-0.553,0-1-0.447-1-1s0.447-1,1-1s1,0.447,1,1
				S-191.947,915.5-192.5,915.5z M-189.5,918.5c0-0.553,0.447-1,1-1s1,0.447,1,1s-0.447,1-1,1S-189.5,919.053-189.5,918.5z
				 M-187.5,924.5c-0.553,0-1-0.447-1-1s0.447-1,1-1s1,0.447,1,1S-186.947,924.5-187.5,924.5z"/>
		</g>
	</g>
	<g opacity="0.25">
		<g>
			<path d="M-207.5,925.5c0.553,0,1-0.447,1-1c0-0.187-0.064-0.351-0.153-0.5c-0.174,0.294-0.48,0.5-0.847,0.5
				s-0.673-0.206-0.847-0.5c-0.089,0.149-0.153,0.313-0.153,0.5C-208.5,925.053-208.053,925.5-207.5,925.5z"/>
		</g>
		<g>
			<path d="M-192.5,916.5c0.553,0,1-0.447,1-1c0-0.187-0.064-0.351-0.153-0.5c-0.174,0.294-0.48,0.5-0.847,0.5
				s-0.673-0.206-0.847-0.5c-0.089,0.149-0.153,0.313-0.153,0.5C-193.5,916.053-193.053,916.5-192.5,916.5z"/>
		</g>
		<g>
			<path d="M-202.5,916.5c0.553,0,1-0.447,1-1c0-0.187-0.064-0.351-0.153-0.5c-0.174,0.294-0.48,0.5-0.847,0.5
				s-0.673-0.206-0.847-0.5c-0.089,0.149-0.153,0.313-0.153,0.5C-203.5,916.053-203.053,916.5-202.5,916.5z"/>
		</g>
		<g>
			<path d="M-197.5,911.5c6.975,0,12.65,6.343,12.969,14.301c0.008-0.101,0.031-0.197,0.031-0.301c0-8.285-5.82-15-13-15
				s-13,6.715-13,15c0,0.104,0.023,0.2,0.031,0.301C-210.15,917.843-204.475,911.5-197.5,911.5z"/>
		</g>
		<g>
			<path d="M-206.5,920.5c0.553,0,1-0.447,1-1c0-0.187-0.064-0.351-0.153-0.5c-0.174,0.294-0.48,0.5-0.847,0.5
				s-0.673-0.206-0.847-0.5c-0.089,0.149-0.153,0.313-0.153,0.5C-207.5,920.053-207.053,920.5-206.5,920.5z"/>
		</g>
		<g>
			<path d="M-187.5,924.5c-0.366,0-0.673-0.206-0.847-0.5c-0.089,0.149-0.153,0.313-0.153,0.5c0,0.553,0.447,1,1,1s1-0.447,1-1
				c0-0.187-0.064-0.351-0.153-0.5C-186.827,924.294-187.134,924.5-187.5,924.5z"/>
		</g>
		<g>
			<path d="M-188.5,920.5c0.553,0,1-0.447,1-1c0-0.187-0.064-0.351-0.153-0.5c-0.174,0.294-0.48,0.5-0.847,0.5
				s-0.673-0.206-0.847-0.5c-0.089,0.149-0.153,0.313-0.153,0.5C-189.5,920.053-189.053,920.5-188.5,920.5z"/>
		</g>
		<g>
			<path d="M-194.5,928.5c0-0.366-0.158-0.705-0.416-1h-5.168c-0.258,0.295-0.416,0.634-0.416,1H-194.5z"/>
		</g>
		<g>
			<path d="M-196.086,924c-0.391,0.391-1.023,0.391-1.414,0c-0.061-0.062-0.096-0.136-0.138-0.207
				c-0.226,0.384-0.192,0.878,0.138,1.207c0.391,0.391,1.023,0.391,1.414,0l4.242-4.242c0.33-0.33,0.365-0.824,0.139-1.208
				c-0.043,0.071-0.077,0.146-0.139,0.208L-196.086,924z"/>
		</g>
		<g>
			<path d="M-197.5,914.5c0.553,0,1-0.447,1-1c0-0.187-0.064-0.351-0.153-0.5c-0.174,0.294-0.48,0.5-0.847,0.5
				s-0.673-0.206-0.847-0.5c-0.089,0.149-0.153,0.313-0.153,0.5C-198.5,914.053-198.053,914.5-197.5,914.5z"/>
		</g>
	</g>
	<g opacity="0.4">
		<g>
			<path fill="#FFFFFF" d="M-191.844,918.343c-0.39-0.39-1.023-0.391-1.414,0l-4.242,4.243c-0.33,0.329-0.363,0.823-0.138,1.207
				c0.042-0.071,0.077-0.146,0.138-0.207l4.242-4.243c0.391-0.391,1.024-0.39,1.414,0c0.062,0.062,0.096,0.136,0.139,0.207
				C-191.479,919.166-191.514,918.672-191.844,918.343z"/>
		</g>
		<g>
			<path fill="#FFFFFF" d="M-202.5,913.5c-0.553,0-1,0.447-1,1c0,0.187,0.064,0.351,0.153,0.5c0.174-0.294,0.48-0.5,0.847-0.5
				s0.673,0.206,0.847,0.5c0.089-0.149,0.153-0.313,0.153-0.5C-201.5,913.947-201.947,913.5-202.5,913.5z"/>
		</g>
		<g>
			<path fill="#FFFFFF" d="M-197.5,925.5c-1.656,0-3,0.896-3,2h0.416c0.52-0.596,1.477-1,2.584-1s2.064,0.404,2.584,1h0.416
				C-194.5,926.396-195.844,925.5-197.5,925.5z"/>
		</g>
		<g>
			<path fill="#FFFFFF" d="M-207.5,922.5c-0.553,0-1,0.447-1,1c0,0.187,0.064,0.351,0.153,0.5c0.174-0.294,0.48-0.5,0.847-0.5
				s0.673,0.206,0.847,0.5c0.089-0.149,0.153-0.313,0.153-0.5C-206.5,922.947-206.947,922.5-207.5,922.5z"/>
		</g>
		<g>
			<path fill="#FFFFFF" d="M-206.5,917.5c-0.553,0-1,0.447-1,1c0,0.187,0.064,0.351,0.153,0.5c0.174-0.294,0.48-0.5,0.847-0.5
				s0.673,0.206,0.847,0.5c0.089-0.149,0.153-0.313,0.153-0.5C-205.5,917.947-205.947,917.5-206.5,917.5z"/>
		</g>
		<g>
			<path fill="#FFFFFF" d="M-192.5,913.5c-0.553,0-1,0.447-1,1c0,0.187,0.064,0.351,0.153,0.5c0.174-0.294,0.48-0.5,0.847-0.5
				s0.673,0.206,0.847,0.5c0.089-0.149,0.153-0.313,0.153-0.5C-191.5,913.947-191.947,913.5-192.5,913.5z"/>
		</g>
		<g>
			<path fill="#FFFFFF" d="M-187.5,922.5c-0.553,0-1,0.447-1,1c0,0.187,0.064,0.351,0.153,0.5c0.174-0.294,0.48-0.5,0.847-0.5
				s0.673,0.206,0.847,0.5c0.089-0.149,0.153-0.313,0.153-0.5C-186.5,922.947-186.947,922.5-187.5,922.5z"/>
		</g>
		<g>
			<path fill="#FFFFFF" d="M-188.5,929.5h-18c-2.098,0-3.812-1.641-3.969-3.699c-0.01,0.233-0.031,0.463-0.031,0.699
				c0,2.2,1.8,4,4,4h18c2.2,0,4-1.8,4-4c0-0.236-0.021-0.466-0.031-0.699C-184.688,927.859-186.402,929.5-188.5,929.5z"/>
		</g>
		<g>
			<path fill="#FFFFFF" d="M-198.5,912.5c0,0.187,0.064,0.351,0.153,0.5c0.174-0.294,0.48-0.5,0.847-0.5s0.673,0.206,0.847,0.5
				c0.089-0.149,0.153-0.313,0.153-0.5c0-0.553-0.447-1-1-1S-198.5,911.947-198.5,912.5z"/>
		</g>
		<g>
			<path fill="#FFFFFF" d="M-188.5,917.5c-0.553,0-1,0.447-1,1c0,0.187,0.064,0.351,0.153,0.5c0.174-0.294,0.48-0.5,0.847-0.5
				s0.673,0.206,0.847,0.5c0.089-0.149,0.153-0.313,0.153-0.5C-187.5,917.947-187.947,917.5-188.5,917.5z"/>
		</g>
	</g>
</g>
</svg>
