<?xml version="1.0" encoding="utf-8"?>
<!-- Generator: Adobe Illustrator 16.0.0, SVG Export Plug-In . SVG Version: 6.00 Build 0)  -->
<!DOCTYPE svg PUBLIC "-//W3C//DTD SVG 1.1//EN" "http://www.w3.org/Graphics/SVG/1.1/DTD/svg11.dtd">
<svg version="1.1" xmlns="http://www.w3.org/2000/svg" xmlns:xlink="http://www.w3.org/1999/xlink" x="0px" y="0px" width="80px"
	 height="320px" viewBox="0 0 80 320" enable-background="new 0 0 80 320" xml:space="preserve">
<g id="Layer_1">
	<line fill="#221F20" x1="40" y1="0" x2="40" y2="320"/>
	<line fill="#221F20" x1="0" y1="40" x2="80" y2="40"/>
	<line fill="#221F20" x1="0" y1="80" x2="80" y2="80"/>
	<line fill="#221F20" x1="0" y1="120" x2="80" y2="120"/>
	<line fill="#221F20" x1="0" y1="160" x2="80" y2="160"/>
	<line fill="#221F20" x1="0" y1="200" x2="80" y2="200"/>
	<line fill="#221F20" x1="0" y1="240" x2="80" y2="240"/>
	<line fill="#221F20" x1="0" y1="280" x2="80" y2="280"/>
</g>
<g id="nodes">
	<g>
		<path fill="#8C8C8C" d="M29.941,18.578C29.964,18.386,30,18.198,30,18.001C30,15.239,27.762,13,25,13
			c-1.307,0-2.486,0.513-3.378,1.334C20.729,11.811,18.329,10,15.5,10C11.91,10,9,12.911,9,16.501c0,0.854,0.169,1.666,0.468,2.413
			C7.98,19.898,7,21.584,7,23.501c0,2.868,2.196,5.222,5,5.474V29h15.32v-0.009C27.381,28.993,27.439,29,27.5,29
			c3.037,0,5.5-2.462,5.5-5.499C33,21.342,31.752,19.478,29.941,18.578z"/>
		<g opacity="0.25">
			<path d="M30,19.001c0,0.197-0.036,0.385-0.059,0.577c1.688,0.84,2.875,2.523,3.027,4.5c0.02-0.189,0.03-0.383,0.03-0.576
				c0-2.152-1.24-4.01-3.042-4.914C29.971,18.726,30,18.859,30,19.001z"/>
			<path d="M9.468,19.914c-0.104-0.26-0.186-0.531-0.257-0.807C7.873,20.109,7,21.699,7,23.501c0,0.138,0.027,0.267,0.038,0.401
				C7.219,22.236,8.139,20.794,9.468,19.914z"/>
			<path d="M15.5,11c2.829,0,5.229,1.811,6.122,4.334C22.514,14.513,23.693,14,25,14c2.589,0,4.693,1.976,4.949,4.499
				C29.973,18.334,30,18.171,30,18.001C30,15.239,27.762,13,25,13c-1.307,0-2.486,0.513-3.378,1.334
				C20.729,11.811,18.329,10,15.5,10C11.91,10,9,12.911,9,16.501c0,0.171,0.012,0.339,0.024,0.507C9.277,13.648,12.077,11,15.5,11z"
				/>
		</g>
		<g opacity="0.4">
			<path fill="#FFFFFF" d="M29.941,18.578c0.006,0.003,0.011,0.007,0.017,0.01c-0.002-0.03-0.006-0.059-0.009-0.088
				C29.945,18.525,29.943,18.551,29.941,18.578z"/>
			<path fill="#FFFFFF" d="M27.5,29c-0.061,0-0.119-0.007-0.18-0.009V29H12v-0.025c-2.669-0.24-4.766-2.392-4.962-5.072
				C7.017,24.1,7,24.298,7,24.501c0,2.868,2.196,5.222,5,5.474V30h15.32v-0.009C27.381,29.993,27.439,30,27.5,30
				c3.037,0,5.5-2.462,5.5-5.499c0-0.144-0.02-0.282-0.029-0.424C32.682,26.844,30.343,29,27.5,29z"/>
			<path fill="#FFFFFF" d="M9.468,18.914c-0.239-0.597-0.39-1.237-0.443-1.906C9.013,17.171,9,17.334,9,17.501
				c0,0.556,0.078,1.092,0.211,1.606C9.296,19.043,9.378,18.973,9.468,18.914z"/>
		</g>
	</g>
</g>
<g id="nodes-hover">
	<g>
		<path fill="#5988A5" d="M69.941,18.578C69.964,18.386,70,18.198,70,18.001C70,15.239,67.762,13,65,13
			c-1.307,0-2.486,0.513-3.378,1.334C60.729,11.811,58.329,10,55.5,10c-3.59,0-6.5,2.911-6.5,6.501c0,0.854,0.169,1.666,0.468,2.413
			C47.98,19.898,47,21.584,47,23.501c0,2.868,2.197,5.222,5,5.474V29h15.32v-0.009C67.381,28.993,67.439,29,67.5,29
			c3.037,0,5.5-2.462,5.5-5.499C73,21.342,71.752,19.478,69.941,18.578z"/>
		<g opacity="0.25">
			<path d="M70.001,19.001c0,0.197-0.036,0.385-0.059,0.577c1.688,0.84,2.875,2.523,3.026,4.5c0.021-0.189,0.03-0.383,0.03-0.576
				c0-2.152-1.24-4.01-3.042-4.914C69.972,18.726,70.001,18.859,70.001,19.001z"/>
			<path d="M49.469,19.914c-0.104-0.26-0.186-0.531-0.257-0.807c-1.338,1.002-2.211,2.592-2.211,4.394
				c0,0.138,0.028,0.267,0.038,0.401C47.22,22.236,48.141,20.794,49.469,19.914z"/>
			<path d="M55.501,11c2.829,0,5.229,1.811,6.122,4.334C62.515,14.513,63.694,14,65.001,14c2.589,0,4.693,1.976,4.949,4.499
				c0.023-0.165,0.051-0.328,0.051-0.498c0-2.762-2.238-5.001-5-5.001c-1.307,0-2.486,0.513-3.378,1.334
				C60.729,11.811,58.33,10,55.501,10c-3.59,0-6.5,2.911-6.5,6.501c0,0.171,0.013,0.339,0.024,0.507
				C49.279,13.648,52.078,11,55.501,11z"/>
		</g>
		<g opacity="0.4">
			<path fill="#FFFFFF" d="M69.941,18.578c0.006,0.003,0.011,0.007,0.017,0.01c-0.002-0.03-0.006-0.059-0.009-0.088
				C69.945,18.525,69.943,18.551,69.941,18.578z"/>
			<path fill="#FFFFFF" d="M67.5,29c-0.061,0-0.119-0.007-0.18-0.009V29H52v-0.025c-2.669-0.24-4.766-2.392-4.962-5.072
				C47.018,24.1,47,24.298,47,24.501c0,2.868,2.197,5.222,5,5.474V30h15.32v-0.009C67.381,29.993,67.439,30,67.5,30
				c3.037,0,5.5-2.462,5.5-5.499c0-0.144-0.02-0.282-0.029-0.424C72.682,26.844,70.343,29,67.5,29z"/>
			<path fill="#FFFFFF" d="M49.468,18.914c-0.239-0.597-0.39-1.237-0.442-1.906C49.014,17.171,49,17.334,49,17.501
				c0,0.556,0.078,1.092,0.211,1.606C49.296,19.043,49.378,18.973,49.468,18.914z"/>
		</g>
	</g>
</g>
<g id="networks">
	<g>
		<g>
			<path fill="#8C8C8C" d="M14.479,57.645c0.252,0,0.492,0.048,0.722,0.118c0.764-0.99,1.599-1.919,2.5-2.784
				c-0.128-0.3-0.2-0.631-0.2-0.979c0-0.192,0.025-0.377,0.066-0.557c-1.776-1.303-3.752-2.345-5.864-3.1
				c-1.365,1.309-2.417,2.935-3.044,4.762c1.31,1.176,2.749,2.211,4.302,3.065C13.383,57.846,13.904,57.645,14.479,57.645z"/>
			<path fill="#8C8C8C" d="M23.55,60.988c0.087-0.193,0.201-0.368,0.331-0.532c-0.863-1.482-1.888-2.86-3.05-4.108
				C20.57,56.44,20.293,56.5,20,56.5c-0.295,0-0.575-0.061-0.838-0.154c-0.883,0.839-1.699,1.746-2.439,2.714
				c0.125,0.256,0.201,0.536,0.231,0.833C19.04,60.564,21.254,60.943,23.55,60.988z"/>
			<path fill="#8C8C8C" d="M11.979,60.145c0-0.074,0.017-0.146,0.022-0.219c-1.376-0.756-2.662-1.652-3.865-2.644
				C8.057,57.845,8,58.415,8,59c0,2.938,1.061,5.627,2.812,7.714c0.444-1.704,1.057-3.341,1.832-4.884
				C12.234,61.385,11.979,60.797,11.979,60.145z"/>
			<path fill="#8C8C8C" d="M25.646,59.52c0.062-0.006,0.123-0.02,0.187-0.02c0.646,0,1.226,0.25,1.669,0.65
				c1.443-0.455,2.945-0.772,4.488-0.958C31.991,59.128,32,59.065,32,59c0-3.145-1.219-5.997-3.198-8.137
				c-2.268,0.638-4.399,1.604-6.329,2.863c0.01,0.091,0.027,0.18,0.027,0.274c0,0.351-0.073,0.685-0.204,0.987
				C23.575,56.363,24.7,57.883,25.646,59.52z"/>
			<path fill="#8C8C8C" d="M21.641,62.886c-1.83-0.173-3.603-0.543-5.297-1.09c-0.457,0.517-1.119,0.849-1.863,0.849
				c-0.002,0-0.004,0-0.006,0c-0.902,1.78-1.572,3.696-1.988,5.703c0.635,0.512,1.324,0.955,2.057,1.33
				C16.439,66.977,18.848,64.658,21.641,62.886z"/>
			<path fill="#8C8C8C" d="M13.535,48.9c1.865,0.774,3.619,1.76,5.227,2.94c0.366-0.21,0.785-0.34,1.238-0.34
				c0.555,0,1.061,0.186,1.477,0.491c1.727-1.115,3.604-2.011,5.586-2.678C25.078,47.865,22.643,47,20,47
				C17.617,47,15.402,47.703,13.535,48.9z"/>
			<path fill="#8C8C8C" d="M28.242,62.633c-0.114,0.436-0.333,0.827-0.643,1.135c0.41,1.174,0.726,2.392,0.959,3.637
				c1.502-1.53,2.59-3.463,3.104-5.617C30.552,62.143,29.413,62.432,28.242,62.633z"/>
			<path fill="#8C8C8C" d="M16.432,70.46C17.559,70.811,18.757,71,20,71c2.514,0,4.843-0.775,6.771-2.096
				c-0.209-1.521-0.547-3.002-1.037-4.414c-0.648-0.026-1.236-0.292-1.668-0.721C21.049,65.406,18.443,67.704,16.432,70.46z"/>
		</g>
		<g opacity="0.4">
			<path fill="#FFFFFF" d="M12.961,59.171c0.422-0.325,0.943-0.526,1.52-0.526c0.252,0,0.49,0.048,0.721,0.118
				c0.764-0.99,1.599-1.919,2.5-2.784c-0.107-0.251-0.164-0.526-0.184-0.811c-0.828,0.812-1.606,1.675-2.316,2.595
				c-0.229-0.07-0.469-0.118-0.721-0.118c-0.574,0-1.098,0.201-1.52,0.526c-1.436-0.789-2.77-1.739-3.997-2.806
				c-0.104,0.246-0.218,0.486-0.305,0.741C9.969,57.282,11.407,58.317,12.961,59.171z"/>
			<path fill="#FFFFFF" d="M17.566,54.443c-0.008-0.006-0.016-0.01-0.023-0.016c0.006,0.033,0.007,0.066,0.014,0.098
				C17.562,54.499,17.562,54.47,17.566,54.443z"/>
			<path fill="#FFFFFF" d="M16.954,59.893c-0.003-0.031-0.013-0.061-0.017-0.092c-0.069,0.088-0.146,0.17-0.215,0.26
				c0.125,0.256,0.201,0.535,0.231,0.832c2.085,0.672,4.3,1.053,6.596,1.097c0.087-0.193,0.201-0.368,0.331-0.532
				c-0.099-0.17-0.207-0.333-0.311-0.501c-0.006,0.012-0.016,0.021-0.021,0.033C21.254,60.943,19.04,60.564,16.954,59.893z"/>
			<path fill="#FFFFFF" d="M12.355,62.445c-0.635,1.363-1.155,2.787-1.543,4.269c-1.653-1.969-2.679-4.476-2.791-7.219
				C8.014,59.663,8,59.83,8,60c0,2.938,1.061,5.627,2.812,7.714c0.444-1.704,1.057-3.341,1.832-4.884
				C12.536,62.712,12.439,62.583,12.355,62.445z"/>
			<path fill="#FFFFFF" d="M27.502,60.15c-0.443-0.4-1.023-0.65-1.669-0.65c-0.063,0-0.123,0.014-0.187,0.02
				c-0.899-1.556-1.965-3.001-3.168-4.322c-0.021,0.278-0.078,0.546-0.184,0.791c1.279,1.375,2.404,2.896,3.352,4.532
				c0.062-0.006,0.123-0.02,0.187-0.02c0.646,0,1.226,0.25,1.669,0.65c1.443-0.455,2.945-0.771,4.488-0.957
				C31.991,60.129,32,60.064,32,60c0-0.271-0.021-0.536-0.039-0.802C30.43,59.384,28.938,59.699,27.502,60.15z"/>
			<path fill="#FFFFFF" d="M21.641,63.886c-0.406-0.038-0.807-0.09-1.207-0.146c-2.275,1.644-4.276,3.642-5.893,5.938
				c-0.656-0.336-1.271-0.734-1.852-1.182c-0.069,0.283-0.146,0.564-0.205,0.852c0.635,0.512,1.324,0.955,2.057,1.33
				C16.439,67.977,18.848,65.658,21.641,63.886z"/>
			<path fill="#FFFFFF" d="M18.762,52.84c0.366-0.21,0.785-0.34,1.238-0.34c0.555,0,1.061,0.186,1.477,0.491
				c1.727-1.115,3.604-2.011,5.586-2.678c-0.314-0.229-0.645-0.438-0.979-0.637c-1.62,0.619-3.168,1.386-4.606,2.315
				C21.061,51.686,20.555,51.5,20,51.5c-0.453,0-0.872,0.13-1.238,0.34c-1.32-0.97-2.746-1.801-4.246-2.499
				c-0.334,0.174-0.664,0.357-0.98,0.559C15.4,50.674,17.154,51.661,18.762,52.84z"/>
			<path fill="#FFFFFF" d="M27.816,64.48c-0.069,0.098-0.131,0.201-0.217,0.287c0.41,1.174,0.726,2.391,0.959,3.635
				c1.502-1.529,2.59-3.461,3.104-5.616c-0.112,0.036-0.229,0.062-0.344,0.098c-0.584,1.71-1.521,3.257-2.76,4.521
				C28.372,66.406,28.116,65.436,27.816,64.48z"/>
			<path fill="#FFFFFF" d="M17.07,70.633c-0.219,0.272-0.434,0.547-0.641,0.827C17.559,71.811,18.757,72,20,72
				c2.514,0,4.843-0.775,6.771-2.096c-0.043-0.305-0.094-0.607-0.146-0.908C24.727,70.258,22.451,71,20,71
				C18.988,71,18.009,70.869,17.07,70.633z"/>
		</g>
		<g opacity="0.25">
			<path d="M17.518,55.167c0.062-0.062,0.119-0.128,0.183-0.189c-0.062-0.145-0.107-0.296-0.142-0.453
				C17.525,54.68,17.5,54.836,17.5,55C17.5,55.058,17.514,55.111,17.518,55.167z"/>
			<path d="M17.543,54.427C17.52,54.288,17.5,54.146,17.5,54c0-0.192,0.025-0.377,0.066-0.557c-1.776-1.303-3.752-2.345-5.863-3.1
				c-1.365,1.309-2.417,2.935-3.045,4.762c0.1,0.089,0.205,0.172,0.306,0.259c0.64-1.523,1.563-2.896,2.739-4.021
				C13.805,52.095,15.771,53.132,17.543,54.427z"/>
			<path d="M20.831,56.348C20.57,56.44,20.293,56.5,20,56.5c-0.295,0-0.574-0.061-0.838-0.154c-0.883,0.839-1.699,1.746-2.439,2.714
				c0.111,0.229,0.18,0.479,0.215,0.741c0.686-0.869,1.424-1.693,2.226-2.455C19.426,57.439,19.705,57.5,20,57.5
				c0.293,0,0.57-0.06,0.831-0.152c1.028,1.105,1.94,2.317,2.739,3.607c0.084-0.18,0.188-0.346,0.311-0.499
				C23.018,58.974,21.993,57.596,20.831,56.348z"/>
			<path d="M12.002,60.926c-0.007,0.073-0.021,0.145-0.021,0.219c0,0.479,0.14,0.924,0.375,1.303
				c0.097-0.205,0.188-0.414,0.289-0.616c-0.41-0.445-0.664-1.033-0.664-1.687c0-0.074,0.016-0.146,0.021-0.219
				c-1.377-0.756-2.662-1.652-3.865-2.644C8.057,57.845,8,58.415,8,59c0,0.167,0.016,0.33,0.021,0.495
				c0.021-0.409,0.059-0.814,0.114-1.213C9.34,59.274,10.625,60.17,12.002,60.926z"/>
			<path d="M22.473,54.726c1.93-1.258,4.062-2.225,6.329-2.863c1.81,1.956,2.972,4.51,3.159,7.335
				c0.01-0.001,0.02-0.004,0.029-0.005C31.991,59.128,32,59.065,32,59c0-3.145-1.219-5.997-3.198-8.137
				c-2.268,0.638-4.399,1.604-6.329,2.863c0.01,0.091,0.027,0.18,0.027,0.274c0,0.351-0.073,0.685-0.204,0.987
				c0.063,0.068,0.121,0.141,0.185,0.209C22.484,55.13,22.5,55.067,22.5,55C22.5,54.906,22.482,54.817,22.473,54.726z"/>
			<path d="M14.479,63.645c0.746,0,1.405-0.332,1.864-0.849c1.319,0.427,2.687,0.741,4.091,0.942
				c0.398-0.288,0.789-0.588,1.205-0.854c-1.828-0.173-3.602-0.543-5.296-1.09c-0.459,0.518-1.118,0.85-1.864,0.85
				c-0.002,0-0.004-0.002-0.006-0.002c-0.902,1.782-1.572,3.698-1.988,5.705c0.065,0.053,0.139,0.098,0.205,0.148
				c0.42-1.696,1.011-3.326,1.783-4.854C14.477,63.645,14.479,63.645,14.479,63.645z"/>
			<path d="M26.082,49.675c0.325-0.124,0.648-0.251,0.979-0.363C25.078,47.865,22.643,47,20,47c-2.383,0-4.598,0.703-6.465,1.9
				c0.332,0.138,0.656,0.29,0.98,0.441C16.16,48.491,18.021,48,20,48C22.225,48,24.298,48.618,26.082,49.675z"/>
			<path d="M28.242,62.633c-0.114,0.436-0.333,0.827-0.643,1.135c0.082,0.233,0.144,0.478,0.217,0.713
				c0.188-0.254,0.343-0.532,0.426-0.848c1.052-0.181,2.074-0.441,3.076-0.749c0.125-0.36,0.254-0.722,0.344-1.098
				C30.552,62.143,29.413,62.432,28.242,62.633z"/>
			<path d="M25.734,64.49c-0.649-0.026-1.237-0.292-1.668-0.721c-3.019,1.637-5.623,3.935-7.637,6.689
				c0.211,0.064,0.426,0.119,0.641,0.173c1.914-2.388,4.287-4.394,6.996-5.862c0.431,0.429,1.019,0.693,1.668,0.721
				c0.392,1.13,0.683,2.304,0.892,3.506c0.047-0.031,0.099-0.061,0.146-0.092C26.562,67.383,26.225,65.902,25.734,64.49z"/>
			<path d="M17.566,54.443c-0.008-0.006-0.017-0.01-0.023-0.016c0.006,0.033,0.008,0.066,0.016,0.098
				C17.562,54.499,17.562,54.47,17.566,54.443z"/>
		</g>
	</g>
</g>
<g id="networks-hover">
	<g>
		<g>
			<path fill="#5988A5" d="M54.479,57.645c0.252,0,0.492,0.048,0.722,0.118c0.764-0.99,1.599-1.919,2.5-2.784
				c-0.128-0.3-0.2-0.631-0.2-0.979c0-0.192,0.025-0.377,0.066-0.557c-1.776-1.303-3.752-2.345-5.864-3.1
				c-1.365,1.309-2.417,2.935-3.044,4.762c1.31,1.176,2.749,2.211,4.302,3.065C53.383,57.846,53.904,57.645,54.479,57.645z"/>
			<path fill="#5988A5" d="M63.55,60.988c0.087-0.193,0.201-0.368,0.331-0.532c-0.863-1.482-1.888-2.86-3.05-4.108
				C60.57,56.44,60.293,56.5,60,56.5c-0.295,0-0.575-0.061-0.838-0.154c-0.883,0.839-1.699,1.746-2.439,2.714
				c0.125,0.256,0.201,0.536,0.231,0.833C59.04,60.564,61.254,60.943,63.55,60.988z"/>
			<path fill="#5988A5" d="M51.979,60.145c0-0.074,0.017-0.146,0.022-0.219c-1.376-0.756-2.662-1.652-3.865-2.644
				C48.057,57.845,48,58.415,48,59c0,2.938,1.061,5.627,2.812,7.714c0.444-1.704,1.057-3.341,1.832-4.884
				C52.234,61.385,51.979,60.797,51.979,60.145z"/>
			<path fill="#5988A5" d="M65.646,59.52c0.062-0.006,0.123-0.02,0.187-0.02c0.646,0,1.226,0.25,1.669,0.65
				c1.443-0.455,2.945-0.772,4.488-0.958C71.991,59.128,72,59.065,72,59c0-3.145-1.219-5.997-3.198-8.137
				c-2.268,0.638-4.399,1.604-6.329,2.863c0.01,0.091,0.027,0.18,0.027,0.274c0,0.351-0.073,0.685-0.204,0.987
				C63.575,56.363,64.7,57.883,65.646,59.52z"/>
			<path fill="#5988A5" d="M61.641,62.886c-1.83-0.173-3.603-0.543-5.297-1.09c-0.457,0.517-1.119,0.849-1.863,0.849
				c-0.002,0-0.004,0-0.006,0c-0.902,1.78-1.572,3.696-1.988,5.703c0.635,0.512,1.324,0.955,2.057,1.33
				C56.439,66.977,58.848,64.658,61.641,62.886z"/>
			<path fill="#5988A5" d="M53.535,48.9c1.865,0.774,3.619,1.76,5.227,2.94c0.366-0.21,0.785-0.34,1.238-0.34
				c0.555,0,1.061,0.186,1.477,0.491c1.728-1.115,3.604-2.011,5.586-2.678C65.078,47.865,62.643,47,60,47
				C57.617,47,55.402,47.703,53.535,48.9z"/>
			<path fill="#5988A5" d="M68.242,62.633c-0.114,0.436-0.333,0.827-0.643,1.135c0.409,1.174,0.726,2.393,0.959,3.638
				c1.502-1.53,2.59-3.464,3.104-5.617C70.552,62.143,69.413,62.432,68.242,62.633z"/>
			<path fill="#5988A5" d="M56.432,70.46C57.559,70.811,58.757,71,60,71c2.514,0,4.843-0.775,6.771-2.096
				c-0.209-1.521-0.547-3.002-1.037-4.414c-0.648-0.026-1.236-0.292-1.668-0.721C61.049,65.406,58.443,67.704,56.432,70.46z"/>
		</g>
		<g opacity="0.4">
			<path fill="#FFFFFF" d="M52.961,59.171c0.422-0.325,0.943-0.526,1.52-0.526c0.252,0,0.49,0.048,0.721,0.118
				c0.764-0.99,1.599-1.919,2.5-2.784c-0.107-0.251-0.164-0.526-0.184-0.811c-0.828,0.812-1.606,1.675-2.316,2.595
				c-0.229-0.07-0.469-0.118-0.721-0.118c-0.574,0-1.098,0.201-1.52,0.526c-1.436-0.789-2.77-1.739-3.997-2.806
				c-0.104,0.246-0.218,0.486-0.305,0.741C49.969,57.282,51.407,58.317,52.961,59.171z"/>
			<path fill="#FFFFFF" d="M57.566,54.443c-0.008-0.006-0.016-0.01-0.023-0.016c0.006,0.033,0.007,0.066,0.014,0.098
				C57.562,54.499,57.562,54.47,57.566,54.443z"/>
			<path fill="#FFFFFF" d="M56.954,59.893c-0.003-0.031-0.013-0.061-0.017-0.092c-0.069,0.088-0.146,0.17-0.215,0.26
				c0.125,0.256,0.201,0.535,0.231,0.832c2.085,0.672,4.3,1.053,6.596,1.098c0.087-0.193,0.201-0.368,0.331-0.532
				c-0.099-0.17-0.207-0.333-0.311-0.501c-0.006,0.012-0.016,0.021-0.021,0.033C61.254,60.943,59.04,60.564,56.954,59.893z"/>
			<path fill="#FFFFFF" d="M52.355,62.445c-0.635,1.363-1.155,2.787-1.543,4.269c-1.653-1.969-2.679-4.476-2.791-7.219
				C48.014,59.663,48,59.83,48,60c0,2.938,1.061,5.627,2.812,7.714c0.444-1.704,1.057-3.341,1.832-4.884
				C52.536,62.712,52.439,62.583,52.355,62.445z"/>
			<path fill="#FFFFFF" d="M67.502,60.15c-0.443-0.4-1.023-0.65-1.669-0.65c-0.063,0-0.123,0.014-0.187,0.02
				c-0.899-1.556-1.965-3-3.168-4.322c-0.021,0.278-0.078,0.546-0.185,0.791c1.279,1.375,2.404,2.896,3.353,4.532
				c0.062-0.006,0.123-0.02,0.187-0.02c0.646,0,1.226,0.25,1.669,0.65c1.443-0.455,2.945-0.771,4.488-0.957
				C71.991,60.129,72,60.064,72,60c0-0.271-0.021-0.536-0.039-0.802C70.43,59.384,68.938,59.699,67.502,60.15z"/>
			<path fill="#FFFFFF" d="M61.641,63.886c-0.406-0.038-0.807-0.09-1.207-0.146c-2.275,1.644-4.276,3.642-5.893,5.938
				c-0.656-0.336-1.271-0.734-1.852-1.182c-0.069,0.283-0.146,0.564-0.205,0.852c0.635,0.512,1.324,0.955,2.057,1.33
				C56.439,67.977,58.848,65.658,61.641,63.886z"/>
			<path fill="#FFFFFF" d="M58.762,52.84c0.366-0.21,0.785-0.34,1.238-0.34c0.555,0,1.061,0.186,1.477,0.491
				c1.728-1.115,3.604-2.011,5.586-2.678c-0.313-0.229-0.645-0.438-0.979-0.637c-1.62,0.619-3.168,1.386-4.605,2.315
				C61.061,51.686,60.555,51.5,60,51.5c-0.453,0-0.872,0.13-1.238,0.34c-1.32-0.97-2.746-1.801-4.246-2.499
				c-0.334,0.174-0.664,0.357-0.98,0.559C55.4,50.674,57.154,51.661,58.762,52.84z"/>
			<path fill="#FFFFFF" d="M67.816,64.48c-0.069,0.098-0.131,0.201-0.217,0.287c0.409,1.174,0.726,2.391,0.959,3.635
				c1.502-1.529,2.59-3.461,3.104-5.616c-0.112,0.036-0.229,0.062-0.344,0.098c-0.584,1.71-1.521,3.257-2.76,4.521
				C68.372,66.406,68.116,65.436,67.816,64.48z"/>
			<path fill="#FFFFFF" d="M57.07,70.633c-0.219,0.271-0.434,0.547-0.641,0.827C57.559,71.811,58.757,72,60,72
				c2.514,0,4.843-0.775,6.771-2.096c-0.043-0.305-0.095-0.607-0.146-0.908C64.727,70.258,62.451,71,60,71
				C58.988,71,58.009,70.869,57.07,70.633z"/>
		</g>
		<g opacity="0.25">
			<path d="M57.518,55.167c0.062-0.062,0.119-0.128,0.183-0.189c-0.062-0.145-0.107-0.296-0.142-0.453
				C57.525,54.68,57.5,54.836,57.5,55C57.5,55.058,57.514,55.111,57.518,55.167z"/>
			<path d="M57.543,54.427C57.52,54.288,57.5,54.146,57.5,54c0-0.192,0.025-0.377,0.066-0.557c-1.776-1.303-3.752-2.345-5.863-3.1
				c-1.365,1.309-2.417,2.935-3.045,4.762c0.1,0.089,0.205,0.172,0.306,0.259c0.64-1.523,1.563-2.896,2.739-4.021
				C53.805,52.095,55.771,53.132,57.543,54.427z"/>
			<path d="M60.831,56.348C60.57,56.44,60.293,56.5,60,56.5c-0.295,0-0.574-0.061-0.838-0.154c-0.883,0.839-1.699,1.746-2.439,2.714
				c0.111,0.229,0.18,0.479,0.215,0.741c0.686-0.869,1.424-1.693,2.226-2.455C59.426,57.439,59.705,57.5,60,57.5
				c0.293,0,0.57-0.06,0.831-0.152c1.028,1.105,1.94,2.317,2.739,3.607c0.084-0.18,0.188-0.346,0.311-0.499
				C63.018,58.974,61.993,57.596,60.831,56.348z"/>
			<path d="M52.002,60.926c-0.007,0.073-0.021,0.145-0.021,0.219c0,0.479,0.14,0.924,0.375,1.304
				c0.097-0.205,0.188-0.414,0.289-0.616c-0.41-0.445-0.664-1.033-0.664-1.688c0-0.074,0.016-0.146,0.021-0.219
				c-1.377-0.756-2.662-1.652-3.865-2.644C48.057,57.845,48,58.415,48,59c0,0.167,0.016,0.33,0.021,0.495
				c0.021-0.409,0.059-0.814,0.114-1.213C49.34,59.274,50.625,60.17,52.002,60.926z"/>
			<path d="M62.473,54.726c1.93-1.258,4.062-2.225,6.329-2.863c1.81,1.956,2.972,4.51,3.159,7.335
				c0.01-0.001,0.02-0.004,0.029-0.005C71.991,59.128,72,59.065,72,59c0-3.145-1.219-5.997-3.198-8.137
				c-2.268,0.638-4.399,1.604-6.329,2.863c0.01,0.091,0.027,0.18,0.027,0.274c0,0.351-0.073,0.685-0.204,0.987
				c0.063,0.068,0.121,0.141,0.185,0.209C62.484,55.13,62.5,55.067,62.5,55C62.5,54.906,62.482,54.817,62.473,54.726z"/>
			<path d="M54.479,63.645c0.746,0,1.405-0.332,1.864-0.849c1.319,0.427,2.687,0.741,4.091,0.942
				c0.398-0.288,0.789-0.588,1.205-0.854c-1.828-0.173-3.602-0.543-5.296-1.09c-0.459,0.519-1.118,0.851-1.864,0.851
				c-0.002,0-0.004-0.002-0.006-0.002c-0.902,1.782-1.572,3.698-1.988,5.705c0.065,0.053,0.139,0.098,0.205,0.148
				c0.42-1.696,1.011-3.326,1.783-4.854C54.477,63.645,54.479,63.645,54.479,63.645z"/>
			<path d="M66.082,49.675c0.325-0.124,0.648-0.251,0.979-0.363C65.078,47.865,62.643,47,60,47c-2.383,0-4.598,0.703-6.465,1.9
				c0.332,0.138,0.656,0.29,0.98,0.441C56.16,48.491,58.021,48,60,48C62.225,48,64.298,48.618,66.082,49.675z"/>
			<path d="M68.242,62.633c-0.114,0.436-0.333,0.827-0.643,1.135c0.082,0.233,0.144,0.479,0.217,0.713
				c0.188-0.254,0.343-0.531,0.426-0.848c1.052-0.181,2.074-0.441,3.076-0.749c0.125-0.36,0.254-0.722,0.344-1.098
				C70.552,62.143,69.413,62.432,68.242,62.633z"/>
			<path d="M65.734,64.49c-0.649-0.026-1.237-0.292-1.668-0.721c-3.02,1.637-5.623,3.935-7.637,6.688
				c0.211,0.063,0.426,0.119,0.641,0.173c1.914-2.388,4.287-4.395,6.996-5.861c0.432,0.429,1.02,0.692,1.668,0.721
				c0.393,1.13,0.684,2.304,0.893,3.506c0.047-0.031,0.1-0.061,0.146-0.092C66.562,67.383,66.225,65.902,65.734,64.49z"/>
			<path d="M57.566,54.443c-0.008-0.006-0.017-0.01-0.023-0.016c0.006,0.033,0.008,0.066,0.016,0.098
				C57.562,54.499,57.562,54.47,57.566,54.443z"/>
		</g>
	</g>
</g>
<g id="settings">
	<g>
		<path fill="#8C8C8C" d="M31,97h-2.344c-0.213-0.781-0.52-1.521-0.912-2.209l1.654-1.655c0.39-0.389,0.39-1.025,0-1.414
			l-2.121-2.121c-0.389-0.389-1.024-0.389-1.414,0l-1.654,1.655c-0.688-0.393-1.428-0.7-2.209-0.913V88c0-0.55-0.45-1-1-1h-3
			c-0.55,0-1,0.45-1,1v2.343c-0.781,0.213-1.521,0.52-2.209,0.913l-1.655-1.655c-0.389-0.389-1.025-0.389-1.414,0l-2.121,2.121
			c-0.389,0.389-0.389,1.025,0,1.414l1.655,1.655c-0.393,0.688-0.7,1.428-0.913,2.209H8c-0.55,0-1,0.45-1,1v3c0,0.55,0.45,1,1,1
			h2.344c0.213,0.781,0.519,1.521,0.913,2.209l-1.656,1.655c-0.389,0.389-0.389,1.024,0,1.413l2.121,2.121
			c0.389,0.39,1.025,0.39,1.414,0l1.656-1.654c0.687,0.393,1.428,0.699,2.208,0.912V111c0,0.55,0.45,1,1,1h3c0.55,0,1-0.45,1-1
			v-2.344c0.781-0.213,1.521-0.521,2.209-0.912l1.654,1.654c0.39,0.39,1.025,0.39,1.414,0l2.121-2.121
			c0.39-0.389,0.39-1.024,0-1.413l-1.654-1.655c0.393-0.688,0.699-1.428,0.912-2.209H31c0.55,0,1-0.45,1-1v-3
			C32,97.45,31.55,97,31,97z M19.5,105c-3.038,0-5.5-2.463-5.5-5.5c0-3.038,2.462-5.5,5.5-5.5c3.037,0,5.5,2.462,5.5,5.5
			C25,102.537,22.537,105,19.5,105z"/>
		<g opacity="0.4">
			<path fill="#FFFFFF" d="M10.927,95.462c0.106-0.226,0.205-0.456,0.329-0.671l-1.655-1.655C9.54,93.075,9.505,93,9.463,92.929
				c-0.225,0.383-0.19,0.879,0.137,1.207L10.927,95.462z"/>
			<path fill="#FFFFFF" d="M19.5,94c-3.038,0-5.5,2.462-5.5,5.5c0,0.169,0.01,0.335,0.025,0.5c0.253-2.803,2.605-5,5.475-5
				c2.868,0,5.223,2.197,5.475,5C24.99,99.835,25,99.669,25,99.5C25,96.462,22.537,94,19.5,94z"/>
			<path fill="#FFFFFF" d="M10.927,104.538l0.329-0.329c-0.394-0.688-0.7-1.428-0.913-2.209H8c-0.55,0-1-0.45-1-1v1
				c0,0.55,0.45,1,1,1h2.344C10.49,103.536,10.695,104.044,10.927,104.538z"/>
			<path fill="#FFFFFF" d="M27.744,94.791c0.123,0.216,0.223,0.445,0.328,0.671l1.326-1.327c0.328-0.328,0.363-0.824,0.138-1.207
				c-0.042,0.072-0.076,0.147-0.138,0.208L27.744,94.791z"/>
			<path fill="#FFFFFF" d="M29.398,107.277l-2.121,2.121c-0.389,0.39-1.024,0.39-1.414,0l-1.654-1.654
				c-0.688,0.393-1.428,0.699-2.209,0.912v1c0.781-0.213,1.521-0.521,2.209-0.912l1.654,1.654c0.39,0.39,1.025,0.39,1.414,0
				l2.121-2.121c0.328-0.327,0.363-0.823,0.138-1.207C29.494,107.143,29.46,107.218,29.398,107.277z"/>
			<path fill="#FFFFFF" d="M31,102h-2.344c-0.213,0.781-0.52,1.521-0.912,2.209l0.328,0.328c0.232-0.493,0.438-1.001,0.584-1.537H31
				c0.55,0,1-0.45,1-1v-1C32,101.55,31.55,102,31,102z"/>
			<path fill="#FFFFFF" d="M21,112h-3c-0.55,0-1-0.45-1-1v1c0,0.55,0.45,1,1,1h3c0.55,0,1-0.45,1-1v-1C22,111.55,21.55,112,21,112z"
				/>
			<path fill="#FFFFFF" d="M17,108.656c-0.781-0.213-1.521-0.521-2.208-0.912l-1.656,1.654c-0.389,0.39-1.025,0.39-1.414,0
				l-2.121-2.121c-0.061-0.061-0.095-0.135-0.137-0.207c-0.225,0.384-0.19,0.88,0.137,1.207l2.121,2.121
				c0.389,0.39,1.025,0.39,1.414,0l1.656-1.654c0.687,0.393,1.428,0.699,2.208,0.912V108.656z"/>
		</g>
		<g opacity="0.25">
			<path d="M25,100.5c0-0.169-0.012-0.335-0.025-0.5c-0.252,2.803-2.605,5-5.475,5s-5.222-2.197-5.475-5
				C14.01,100.165,14,100.331,14,100.5c0,3.037,2.462,5.5,5.5,5.5C22.537,106,25,103.537,25,100.5z"/>
			<path d="M22,91.343c0.781,0.213,1.521,0.52,2.209,0.913l1.654-1.655c0.39-0.389,1.025-0.389,1.414,0l2.121,2.121
				c0.062,0.061,0.096,0.136,0.138,0.207c0.226-0.383,0.19-0.879-0.138-1.207l-2.121-2.121c-0.389-0.389-1.024-0.389-1.414,0
				l-1.654,1.655c-0.688-0.393-1.428-0.7-2.209-0.913V91.343z"/>
			<path d="M18,88h3c0.55,0,1,0.45,1,1v-1c0-0.55-0.45-1-1-1h-3c-0.55,0-1,0.45-1,1v1C17,88.45,17.45,88,18,88z"/>
			<path d="M11.256,105.209c-0.124-0.216-0.223-0.445-0.329-0.671L9.6,105.864c-0.328,0.327-0.362,0.823-0.137,1.206
				c0.042-0.07,0.076-0.146,0.137-0.206L11.256,105.209z"/>
			<path d="M28.072,104.537c-0.105,0.227-0.205,0.456-0.328,0.672l1.654,1.655c0.062,0.061,0.096,0.136,0.138,0.206
				c0.226-0.383,0.19-0.879-0.138-1.206L28.072,104.537z"/>
			<path d="M31,97h-2.344c-0.146-0.536-0.352-1.044-0.584-1.538l-0.328,0.329c0.393,0.688,0.699,1.428,0.912,2.209H31
				c0.55,0,1,0.45,1,1v-1C32,97.45,31.55,97,31,97z"/>
			<path d="M8,98h2.343c0.213-0.781,0.52-1.521,0.913-2.209l-0.329-0.329c-0.232,0.494-0.438,1.001-0.584,1.538H8
				c-0.55,0-1,0.45-1,1v1C7,98.45,7.45,98,8,98z"/>
			<path d="M9.601,92.722l2.121-2.121c0.389-0.389,1.025-0.389,1.414,0l1.655,1.655c0.688-0.393,1.428-0.7,2.209-0.913v-1
				c-0.781,0.213-1.521,0.52-2.209,0.913l-1.655-1.655c-0.389-0.389-1.025-0.389-1.414,0l-2.121,2.121
				c-0.328,0.327-0.363,0.824-0.138,1.207C9.505,92.857,9.54,92.783,9.601,92.722z"/>
		</g>
	</g>
</g>
<g id="settings-hover">
	<g>
		<path fill="#5988A5" d="M71,97h-2.344c-0.213-0.781-0.52-1.521-0.912-2.209l1.654-1.655c0.39-0.389,0.39-1.025,0-1.414
			l-2.121-2.121c-0.389-0.389-1.024-0.389-1.414,0l-1.654,1.655c-0.688-0.393-1.428-0.7-2.209-0.913V88c0-0.55-0.45-1-1-1h-3
			c-0.55,0-1,0.45-1,1v2.343c-0.781,0.213-1.521,0.52-2.209,0.913l-1.655-1.655c-0.389-0.389-1.024-0.389-1.413,0l-2.121,2.121
			c-0.39,0.389-0.39,1.025,0,1.414l1.654,1.655c-0.393,0.688-0.699,1.428-0.913,2.209H48c-0.55,0-1,0.45-1,1v3c0,0.55,0.45,1,1,1
			h2.344c0.213,0.781,0.52,1.521,0.913,2.209l-1.655,1.655c-0.39,0.389-0.39,1.024,0,1.413l2.121,2.121
			c0.389,0.39,1.024,0.39,1.413,0l1.656-1.654c0.687,0.393,1.429,0.699,2.208,0.912V111c0,0.55,0.45,1,1,1h3c0.55,0,1-0.45,1-1
			v-2.344c0.781-0.213,1.521-0.521,2.209-0.912l1.654,1.654c0.39,0.39,1.025,0.39,1.414,0l2.121-2.121
			c0.39-0.389,0.39-1.024,0-1.413l-1.654-1.655c0.393-0.688,0.699-1.428,0.912-2.209H71c0.55,0,1-0.45,1-1v-3
			C72,97.45,71.55,97,71,97z M59.5,105c-3.038,0-5.5-2.463-5.5-5.5c0-3.038,2.462-5.5,5.5-5.5c3.037,0,5.5,2.462,5.5,5.5
			C65,102.537,62.537,105,59.5,105z"/>
		<g opacity="0.4">
			<path fill="#FFFFFF" d="M50.927,95.462c0.106-0.226,0.205-0.456,0.329-0.671l-1.654-1.655c-0.062-0.061-0.097-0.136-0.139-0.207
				c-0.225,0.383-0.189,0.879,0.137,1.207L50.927,95.462z"/>
			<path fill="#FFFFFF" d="M59.5,94c-3.038,0-5.5,2.462-5.5,5.5c0,0.169,0.01,0.335,0.025,0.5c0.252-2.803,2.604-5,5.475-5
				c2.868,0,5.223,2.197,5.475,5C64.99,99.835,65,99.669,65,99.5C65,96.462,62.537,94,59.5,94z"/>
			<path fill="#FFFFFF" d="M50.927,104.538l0.329-0.329c-0.395-0.688-0.699-1.428-0.913-2.209H48c-0.55,0-1-0.45-1-1v1
				c0,0.55,0.45,1,1,1h2.344C50.49,103.536,50.695,104.044,50.927,104.538z"/>
			<path fill="#FFFFFF" d="M67.744,94.791c0.123,0.216,0.223,0.445,0.328,0.671l1.326-1.327c0.328-0.328,0.363-0.824,0.138-1.207
				c-0.042,0.072-0.076,0.147-0.138,0.208L67.744,94.791z"/>
			<path fill="#FFFFFF" d="M69.398,107.277l-2.121,2.121c-0.389,0.39-1.024,0.39-1.414,0l-1.654-1.654
				c-0.688,0.393-1.428,0.699-2.209,0.912v1c0.781-0.213,1.521-0.521,2.209-0.912l1.654,1.654c0.39,0.39,1.025,0.39,1.414,0
				l2.121-2.121c0.328-0.327,0.363-0.823,0.138-1.207C69.494,107.143,69.46,107.218,69.398,107.277z"/>
			<path fill="#FFFFFF" d="M71,102h-2.344c-0.213,0.781-0.52,1.521-0.912,2.209l0.328,0.328c0.232-0.493,0.438-1.001,0.584-1.537H71
				c0.55,0,1-0.45,1-1v-1C72,101.55,71.55,102,71,102z"/>
			<path fill="#FFFFFF" d="M61,112h-3c-0.55,0-1-0.45-1-1v1c0,0.55,0.45,1,1,1h3c0.55,0,1-0.45,1-1v-1C62,111.55,61.55,112,61,112z"
				/>
			<path fill="#FFFFFF" d="M57,108.656c-0.781-0.213-1.521-0.521-2.208-0.912l-1.656,1.654c-0.389,0.39-1.024,0.39-1.413,0
				l-2.121-2.121c-0.062-0.062-0.096-0.135-0.138-0.207c-0.225,0.384-0.19,0.88,0.138,1.207l2.121,2.121
				c0.389,0.39,1.024,0.39,1.413,0l1.656-1.654c0.687,0.393,1.429,0.699,2.208,0.912V108.656z"/>
		</g>
		<g opacity="0.25">
			<path d="M65,100.5c0-0.169-0.012-0.335-0.025-0.5c-0.252,2.803-2.604,5-5.475,5s-5.223-2.197-5.475-5
				C54.01,100.165,54,100.331,54,100.5c0,3.037,2.462,5.5,5.5,5.5C62.537,106,65,103.537,65,100.5z"/>
			<path d="M62,91.343c0.781,0.213,1.521,0.52,2.209,0.913l1.654-1.655c0.39-0.389,1.025-0.389,1.414,0l2.121,2.121
				c0.062,0.061,0.096,0.136,0.138,0.207c0.226-0.383,0.19-0.879-0.138-1.207l-2.121-2.121c-0.389-0.389-1.024-0.389-1.414,0
				l-1.654,1.655c-0.688-0.393-1.428-0.7-2.209-0.913V91.343z"/>
			<path d="M58,88h3c0.55,0,1,0.45,1,1v-1c0-0.55-0.45-1-1-1h-3c-0.55,0-1,0.45-1,1v1C57,88.45,57.45,88,58,88z"/>
			<path d="M51.256,105.209c-0.124-0.216-0.223-0.445-0.329-0.671l-1.327,1.326c-0.328,0.327-0.361,0.823-0.137,1.206
				c0.042-0.07,0.076-0.146,0.137-0.206L51.256,105.209z"/>
			<path d="M68.072,104.537c-0.105,0.227-0.205,0.456-0.328,0.672l1.654,1.655c0.062,0.061,0.096,0.136,0.138,0.206
				c0.226-0.383,0.19-0.879-0.138-1.206L68.072,104.537z"/>
			<path d="M71,97h-2.344c-0.146-0.536-0.352-1.044-0.584-1.538l-0.328,0.329c0.393,0.688,0.699,1.428,0.912,2.209H71
				c0.55,0,1,0.45,1,1v-1C72,97.45,71.55,97,71,97z"/>
			<path d="M48,98h2.343c0.214-0.781,0.521-1.521,0.913-2.209l-0.329-0.329c-0.231,0.494-0.438,1.001-0.584,1.538H48
				c-0.55,0-1,0.45-1,1v1C47,98.45,47.45,98,48,98z"/>
			<path d="M49.602,92.722l2.121-2.121c0.389-0.389,1.024-0.389,1.413,0l1.655,1.655c0.688-0.393,1.428-0.7,2.209-0.913v-1
				c-0.781,0.213-1.521,0.52-2.209,0.913l-1.655-1.655c-0.389-0.389-1.024-0.389-1.413,0l-2.121,2.121
				c-0.328,0.327-0.363,0.824-0.139,1.207C49.505,92.857,49.54,92.783,49.602,92.722z"/>
		</g>
	</g>
</g>
<g id="logs">
	<g>
		<g>
			<g>
				<path fill="#8C8C8C" d="M25.284,128.261l-4.568-1.185c-0.394-0.102-1.038-0.102-1.432,0l-4.568,1.185
					c-0.394,0.102-0.716,0.466-0.716,0.807V130c0,0.55,0.45,1,1,1h10c0.55,0,1-0.45,1-1v-0.933
					C26,128.727,25.678,128.362,25.284,128.261z M20,130c-0.553,0-1-0.447-1-1s0.447-1,1-1c0.553,0,1,0.447,1,1S20.553,130,20,130z"
					/>
			</g>
		</g>
		<path fill="#8C8C8C" d="M28,129h-1.007c0.001,0,0.007,0.045,0.007,0.067V130c0,1.104-0.896,2-2,2H15c-1.103,0-2-0.896-2-2v-0.933
			c0-0.022,0.006-0.067,0.007-0.067H12c-1.1,0-2,0.9-2,2v18c0,1.1,0.9,2,2,2h16c1.1,0,2-0.9,2-2v-18C30,129.9,29.1,129,28,129z
			 M14,135h6v1h-6V135z M14,137h8v1h-8V137z M14,145h6v1h-6V145z M22,148h-8v-1h8V148z M24,144H14v-1h10V144z M26,142H14v-1h12V142z
			 M26,140H14v-1h12V140z"/>
		<g opacity="0.4">
			<g>
				<g>
					<path fill="#FFFFFF" d="M20,128c-0.553,0-1,0.447-1,1c0,0.188,0.064,0.352,0.153,0.5c0.174-0.293,0.481-0.5,0.847-0.5
						s0.673,0.207,0.848,0.5C20.936,129.352,21,129.188,21,129C21,128.447,20.553,128,20,128z"/>
				</g>
				<g>
					<path fill="#FFFFFF" d="M25,131H15c-0.537,0-0.973-0.432-0.993-0.965c0,0.011-0.007,0.022-0.007,0.032V131c0,0.55,0.45,1,1,1
						h10c0.55,0,1-0.45,1-1v-0.933c0-0.011-0.007-0.021-0.007-0.032C25.973,130.568,25.537,131,25,131z"/>
				</g>
			</g>
			<g>
				<rect x="14" y="135" fill="#FFFFFF" width="6" height="1"/>
				<polygon fill="#FFFFFF" points="20,147 14,147 14,148 22,148 22,147 				"/>
				<polygon fill="#FFFFFF" points="22,138 22,137 20,137 14,137 14,138 				"/>
				<path fill="#FFFFFF" d="M27,130h-0.007c0.001,0,0.002,0.014,0.004,0.028C26.997,130.02,27,130.01,27,130z"/>
				<path fill="#FFFFFF" d="M13.007,130H13c0,0.01,0.003,0.02,0.003,0.028C13.005,130.014,13.006,130,13.007,130z"/>
				<path fill="#FFFFFF" d="M28,151H12c-1.1,0-2-0.9-2-2v1c0,1.1,0.9,2,2,2h16c1.1,0,2-0.9,2-2v-1C30,150.1,29.1,151,28,151z"/>
				<rect x="14" y="145" fill="#FFFFFF" width="6" height="1"/>
				<polygon fill="#FFFFFF" points="22,139 14,139 14,140 26,140 26,139 				"/>
				<rect x="14" y="141" fill="#FFFFFF" width="12" height="1"/>
				<rect x="14" y="143" fill="#FFFFFF" width="10" height="1"/>
			</g>
		</g>
		<g opacity="0.25">
			<g>
				<g>
					<path d="M21,130c0-0.187-0.064-0.351-0.152-0.5c-0.175,0.293-0.481,0.5-0.848,0.5s-0.673-0.207-0.847-0.5
						C19.064,129.649,19,129.813,19,130c0,0.553,0.447,1,1,1C20.553,131,21,130.553,21,130z"/>
				</g>
				<g>
					<path d="M25.284,128.261l-4.568-1.185c-0.394-0.102-1.038-0.102-1.432,0l-4.568,1.185c-0.394,0.102-0.716,0.466-0.716,0.807
						V130c0,0.014,0.007,0.023,0.007,0.035c0.02-0.332,0.328-0.676,0.709-0.774l4.568-1.185c0.394-0.102,1.038-0.102,1.432,0
						l4.568,1.185c0.381,0.1,0.688,0.442,0.709,0.774c0-0.012,0.007-0.021,0.007-0.035v-0.933
						C26,128.727,25.678,128.362,25.284,128.261z"/>
				</g>
			</g>
			<g>
				<polygon points="24,143 26,143 26,142 14,142 14,143 				"/>
				<rect x="14" y="140" width="12" height="1"/>
				<rect x="14" y="138" width="8" height="1"/>
				<path d="M13,130.067V131c0,1.104,0.897,2,2,2h10c1.104,0,2-0.896,2-2v-0.933c0-0.011-0.001-0.026-0.003-0.039
					C26.98,131.117,26.093,132,25,132H15c-1.093,0-1.981-0.883-1.997-1.972C13.001,130.042,13,130.058,13,130.067z"/>
				<rect x="14" y="136" width="6" height="1"/>
				<rect x="14" y="146" width="6" height="1"/>
				<path d="M12,130h1v-0.933c0-0.022,0.006-0.067,0.007-0.067H12c-1.1,0-2,0.9-2,2v1C10,130.9,10.9,130,12,130z"/>
				<path d="M28,129h-1.007c0.001,0,0.007,0.045,0.007,0.067V130h1c1.1,0,2,0.9,2,2v-1C30,129.9,29.1,129,28,129z"/>
				<polygon points="20,145 24,145 24,144 14,144 14,145 				"/>
				<rect x="14" y="148" width="8" height="1"/>
			</g>
		</g>
	</g>
</g>
<g id="logs-health">
	<g>
		<g>
			<g>
				<path fill="#5988A5" d="M65.284,128.261l-4.568-1.185c-0.394-0.102-1.038-0.102-1.432,0l-4.568,1.185
					c-0.394,0.102-0.716,0.466-0.716,0.807V130c0,0.55,0.45,1,1,1h10c0.55,0,1-0.45,1-1v-0.933
					C66,128.727,65.678,128.362,65.284,128.261z M60,130c-0.553,0-1-0.447-1-1s0.447-1,1-1s1,0.447,1,1S60.553,130,60,130z"/>
			</g>
		</g>
		<path fill="#5988A5" d="M68,129h-1.007c0.001,0,0.007,0.045,0.007,0.067V130c0,1.104-0.896,2-2,2H55c-1.104,0-2-0.896-2-2v-0.933
			c0-0.022,0.006-0.067,0.007-0.067H52c-1.1,0-2,0.9-2,2v18c0,1.1,0.9,2,2,2h16c1.1,0,2-0.9,2-2v-18C70,129.9,69.1,129,68,129z
			 M54,135h6v1h-6V135z M54,137h8v1h-8V137z M54,145h6v1h-6V145z M62,148h-8v-1h8V148z M64,144H54v-1h10V144z M66,142H54v-1h12V142z
			 M66,140H54v-1h12V140z"/>
		<g opacity="0.4">
			<g>
				<g>
					<path fill="#FFFFFF" d="M60,128c-0.553,0-1,0.447-1,1c0,0.188,0.064,0.352,0.152,0.5c0.175-0.293,0.481-0.5,0.848-0.5
						s0.673,0.207,0.848,0.5C60.936,129.352,61,129.188,61,129C61,128.447,60.553,128,60,128z"/>
				</g>
				<g>
					<path fill="#FFFFFF" d="M65,131H55c-0.537,0-0.973-0.432-0.993-0.965c0,0.011-0.007,0.022-0.007,0.032V131c0,0.55,0.45,1,1,1
						h10c0.55,0,1-0.45,1-1v-0.933c0-0.011-0.007-0.021-0.007-0.032C65.973,130.568,65.537,131,65,131z"/>
				</g>
			</g>
			<g>
				<rect x="54" y="135" fill="#FFFFFF" width="6" height="1"/>
				<polygon fill="#FFFFFF" points="60,147 54,147 54,148 62,148 62,147 				"/>
				<polygon fill="#FFFFFF" points="62,138 62,137 60,137 54,137 54,138 				"/>
				<path fill="#FFFFFF" d="M67,130h-0.007c0.001,0,0.002,0.014,0.004,0.028C66.997,130.02,67,130.01,67,130z"/>
				<path fill="#FFFFFF" d="M53.007,130H53c0,0.01,0.003,0.02,0.003,0.028C53.005,130.014,53.006,130,53.007,130z"/>
				<path fill="#FFFFFF" d="M68,151H52c-1.1,0-2-0.9-2-2v1c0,1.1,0.9,2,2,2h16c1.1,0,2-0.9,2-2v-1C70,150.1,69.1,151,68,151z"/>
				<rect x="54" y="145" fill="#FFFFFF" width="6" height="1"/>
				<polygon fill="#FFFFFF" points="62,139 54,139 54,140 66,140 66,139 				"/>
				<rect x="54" y="141" fill="#FFFFFF" width="12" height="1"/>
				<rect x="54" y="143" fill="#FFFFFF" width="10" height="1"/>
			</g>
		</g>
		<g opacity="0.25">
			<g>
				<g>
					<path d="M61,130c0-0.187-0.064-0.351-0.152-0.5c-0.175,0.293-0.481,0.5-0.848,0.5s-0.673-0.207-0.848-0.5
						C59.064,129.649,59,129.813,59,130c0,0.553,0.447,1,1,1S61,130.553,61,130z"/>
				</g>
				<g>
					<path d="M65.284,128.261l-4.568-1.185c-0.394-0.102-1.038-0.102-1.432,0l-4.568,1.185c-0.394,0.102-0.716,0.466-0.716,0.807
						V130c0,0.014,0.007,0.023,0.007,0.035c0.021-0.332,0.328-0.676,0.709-0.774l4.568-1.185c0.394-0.102,1.038-0.102,1.432,0
						l4.568,1.185c0.381,0.1,0.688,0.442,0.709,0.774c0-0.012,0.007-0.021,0.007-0.035v-0.933
						C66,128.727,65.678,128.362,65.284,128.261z"/>
				</g>
			</g>
			<g>
				<polygon points="64,143 66,143 66,142 54,142 54,143 				"/>
				<rect x="54" y="140" width="12" height="1"/>
				<rect x="54" y="138" width="8" height="1"/>
				<path d="M53,130.067V131c0,1.104,0.896,2,2,2h10c1.104,0,2-0.896,2-2v-0.933c0-0.011-0.001-0.026-0.003-0.039
					C66.98,131.117,66.093,132,65,132H55c-1.093,0-1.98-0.883-1.997-1.972C53.001,130.042,53,130.058,53,130.067z"/>
				<rect x="54" y="136" width="6" height="1"/>
				<rect x="54" y="146" width="6" height="1"/>
				<path d="M52,130h1v-0.933c0-0.022,0.006-0.067,0.007-0.067H52c-1.1,0-2,0.9-2,2v1C50,130.9,50.9,130,52,130z"/>
				<path d="M68,129h-1.007c0.001,0,0.007,0.045,0.007,0.067V130h1c1.1,0,2,0.9,2,2v-1C70,129.9,69.1,129,68,129z"/>
				<polygon points="60,145 64,145 64,144 54,144 54,145 				"/>
				<rect x="54" y="148" width="8" height="1"/>
			</g>
		</g>
	</g>
</g>
<g id="health">
	<g>
		<g>
			<path fill="#8C8C8C" d="M8.484,177.135h2.851L13,172.176l2.643,6.579l0.81-1.62h1.265l1.602-3.171l3.5,5.788l1.514-8.854
				l1.718,6.907l0.632-0.645h1.16l1.622-3.313l1.66,3.287h0.396c0.479-1.502,0.485-2.494,0.478-2.761
				c0-0.017,0.003-0.031,0.003-0.047c0-3.494-2.828-6.326-6.314-6.326c-2.506,0-4.664,1.464-5.686,3.582
				c-1.021-2.117-3.179-3.582-5.684-3.582C10.828,168.002,8,170.832,8,174.326c0,0.013,0.002,0.023,0.002,0.039
				C7.993,174.61,7.995,175.607,8.484,177.135z"/>
			<path fill="#8C8C8C" d="M30.35,178.396l-0.867-1.713l-0.852,1.74h-1.418l-1.842,1.881l-0.809-3.25l-1.067,6.25l-4.077-6.737
				l-0.924,1.829h-1.261l-1.716,3.434l-2.411-6.001l-0.862,2.567H8.962c1.276,2.953,4.229,7.197,11.047,11.708v0.003
				c0.001-0.001,0.001-0.001,0.002-0.002c0.001,0.001,0.001,0.001,0.002,0.002v-0.003c6.818-4.51,9.762-8.755,11.032-11.708H30.35z"
				/>
		</g>
		<g opacity="0.4">
			<path fill="#FFFFFF" d="M31.979,174.925c-0.037,0.486-0.147,1.24-0.457,2.21h-0.396l-1.66-3.287l-1.622,3.313h-1.16l-0.632,0.645
				l-1.718-6.907l-1.514,8.854l-3.501-5.788l-1.602,3.171H16.45l-0.809,1.62L13,172.176l-1.664,4.959H8.484
				c-0.312-0.969-0.425-1.723-0.464-2.208c-0.008,0.132-0.02,0.266-0.02,0.4c0,0.012,0.002,0.023,0.002,0.038
				c-0.009,0.245-0.008,1.244,0.482,2.77h2.852L13,173.176l2.643,6.579l0.809-1.62h1.266l1.602-3.171l3.502,5.788l1.513-8.854
				l1.718,6.907l0.631-0.645h1.162l1.621-3.313l1.66,3.287h0.396c0.478-1.502,0.483-2.494,0.476-2.76
				c0-0.017,0.003-0.032,0.003-0.048C32,175.19,31.988,175.058,31.979,174.925z"/>
			<path fill="#FFFFFF" d="M20.015,190.104v0.003c-0.001-0.001-0.001-0.001-0.003-0.002c0,0.001,0,0.001-0.002,0.002v-0.003
				c-6.084-4.026-9.086-7.835-10.57-10.708H8.963c1.275,2.953,4.229,7.197,11.047,11.708v0.003c0.002-0.001,0.002-0.001,0.002-0.002
				c0.002,0.001,0.002,0.001,0.003,0.002v-0.003c6.818-4.51,9.762-8.755,11.032-11.708H30.57
				C29.094,182.27,26.1,186.08,20.015,190.104z"/>
		</g>
		<path opacity="0.25" enable-background="new    " d="M8.021,174.926c0.207-3.306,2.942-5.924,6.296-5.924
			c2.505,0,4.662,1.464,5.684,3.581c1.021-2.117,3.179-3.581,5.685-3.581c3.354,0,6.088,2.617,6.295,5.922
			c0.021-0.267,0.021-0.456,0.02-0.55c0-0.017,0.003-0.032,0.003-0.048c0-3.494-2.828-6.325-6.313-6.325
			c-2.506,0-4.664,1.464-5.687,3.581c-1.021-2.117-3.179-3.581-5.684-3.581C10.828,168.002,8,170.833,8,174.327
			c0,0.012,0.002,0.023,0.002,0.038C7.999,174.454,7.997,174.646,8.021,174.926z"/>
		<path opacity="0.25" enable-background="new    " d="M12.244,179.396l0.861-2.567l2.41,6.001l1.717-3.435h1.262l0.924-1.83
			l4.077,6.738l1.067-6.249l0.809,3.25l1.842-1.881h1.418l0.852-1.74l0.867,1.713h0.224c0.179-0.347,0.339-0.682,0.476-1H30.35
			l-0.865-1.713l-0.853,1.74h-1.418l-1.842,1.881l-0.81-3.25l-1.067,6.25l-4.077-6.737l-0.924,1.829h-1.262l-1.717,3.434l-2.41-6
			l-0.861,2.567H8.963c0.138,0.318,0.299,0.653,0.478,1L12.244,179.396L12.244,179.396z"/>
	</g>
</g>
<g id="health-hover">
	<g>
		<g>
			<path fill="#5988A5" d="M48.484,177.135h2.852L53,172.176l2.644,6.579l0.81-1.62h1.266l1.602-3.171l3.5,5.788l1.514-8.854
				l1.719,6.907l0.631-0.645h1.16l1.623-3.313l1.66,3.287h0.395c0.48-1.502,0.486-2.494,0.479-2.761
				c0-0.017,0.002-0.031,0.002-0.047c0-3.494-2.828-6.326-6.314-6.326c-2.506,0-4.664,1.464-5.686,3.582
				c-1.021-2.117-3.178-3.582-5.684-3.582c-3.49,0.002-6.318,2.832-6.318,6.326c0,0.013,0.002,0.023,0.002,0.039
				C47.994,174.61,47.996,175.607,48.484,177.135z"/>
			<path fill="#5988A5" d="M70.35,178.396l-0.867-1.713l-0.852,1.74h-1.418l-1.842,1.881l-0.809-3.25l-1.066,6.25l-4.078-6.737
				l-0.924,1.829h-1.261l-1.716,3.434l-2.411-6.001l-0.862,2.567h-3.281c1.275,2.953,4.229,7.197,11.047,11.708v0.003
				c0-0.001,0-0.001,0.002-0.002c0.001,0.001,0.001,0.001,0.002,0.002v-0.003c6.818-4.51,9.762-8.755,11.031-11.708H70.35z"/>
		</g>
		<g opacity="0.4">
			<path fill="#FFFFFF" d="M71.979,174.925c-0.037,0.486-0.146,1.24-0.457,2.21h-0.395l-1.66-3.287l-1.623,3.313h-1.16l-0.631,0.645
				l-1.719-6.907l-1.514,8.854l-3.501-5.788l-1.603,3.171h-1.266l-0.81,1.62L53,172.176l-1.664,4.959h-2.852
				c-0.312-0.969-0.425-1.723-0.464-2.208c-0.008,0.132-0.021,0.266-0.021,0.4c0,0.012,0.002,0.023,0.002,0.038
				c-0.008,0.245-0.008,1.244,0.482,2.77h2.852L53,173.176l2.644,6.579l0.81-1.62h1.266l1.602-3.171l3.502,5.788l1.514-8.854
				l1.717,6.907l0.631-0.645h1.162l1.621-3.313l1.66,3.287h0.396c0.479-1.502,0.484-2.494,0.477-2.76
				c0-0.017,0.002-0.032,0.002-0.048C72,175.19,71.988,175.058,71.979,174.925z"/>
			<path fill="#FFFFFF" d="M60.016,190.104v0.003c-0.001-0.001-0.001-0.001-0.003-0.002c0,0.001,0,0.001-0.003,0.002v-0.003
				c-6.084-4.026-9.086-7.835-10.569-10.708h-0.478c1.275,2.953,4.229,7.197,11.047,11.708v0.003
				c0.003-0.001,0.003-0.001,0.003-0.002c0.002,0.001,0.002,0.001,0.003,0.002v-0.003c6.818-4.51,9.762-8.755,11.031-11.708H70.57
				C69.094,182.27,66.1,186.08,60.016,190.104z"/>
		</g>
		<path opacity="0.25" enable-background="new    " d="M48.021,174.926c0.207-3.306,2.941-5.924,6.296-5.924
			c2.505,0,4.662,1.464,5.685,3.581c1.02-2.117,3.178-3.581,5.684-3.581c3.354,0,6.088,2.617,6.295,5.922
			c0.021-0.267,0.021-0.456,0.02-0.55c0-0.017,0.004-0.032,0.004-0.048c0-3.494-2.828-6.325-6.314-6.325
			c-2.506,0-4.664,1.464-5.686,3.581c-1.021-2.117-3.18-3.581-5.685-3.581c-3.491,0.001-6.319,2.832-6.319,6.326
			c0,0.012,0.002,0.023,0.002,0.038C48,174.454,47.998,174.646,48.021,174.926z"/>
		<path opacity="0.25" enable-background="new    " d="M52.244,179.396l0.861-2.567l2.41,6.001l1.717-3.435h1.262l0.924-1.83
			l4.078,6.738l1.066-6.249l0.809,3.25l1.842-1.881h1.418l0.852-1.74l0.867,1.713h0.225c0.178-0.347,0.338-0.682,0.475-1H70.35
			l-0.865-1.713l-0.852,1.74h-1.418l-1.842,1.881l-0.811-3.25l-1.066,6.25l-4.078-6.737l-0.924,1.829h-1.262l-1.717,3.434l-2.41-6
			l-0.861,2.567h-3.281c0.139,0.318,0.3,0.653,0.479,1L52.244,179.396L52.244,179.396z"/>
	</g>
</g>
<g id="actions">
	<g>
		<g>
			<path fill="#8C8C8C" d="M29.889,219.395c-0.199,0.323-0.434,0.617-0.699,0.879l0.547,0.983c0.127,0.232,0.045,0.524-0.188,0.653
				l-1.265,0.701c-0.229,0.128-0.523,0.043-0.651-0.188l-0.547-0.985c-0.369,0.09-0.754,0.135-1.142,0.127l-0.312,1.086
				c-0.072,0.254-0.34,0.402-0.595,0.33l-1.39-0.397c-0.254-0.073-0.402-0.343-0.33-0.594l0.312-1.085
				c-0.335-0.202-0.636-0.443-0.9-0.717l-0.986,0.547c-0.229,0.127-0.526,0.043-0.652-0.188l-0.702-1.265
				c-0.129-0.23-0.045-0.524,0.188-0.653l0.986-0.544c-0.09-0.372-0.135-0.755-0.129-1.146l-1.084-0.311
				c-0.254-0.072-0.404-0.34-0.329-0.594l0.397-1.389c0.072-0.254,0.341-0.402,0.595-0.33l1.084,0.31
				c0.201-0.333,0.44-0.634,0.717-0.897l-0.084-0.151c-0.047,0.024-0.097,0.043-0.143,0.069C21.618,210.939,19.039,209,16,209
				c-3.866,0-7,3.134-7,7c0,1.264,0.339,2.445,0.924,3.468C8.206,220.261,7,221.992,7,224c0,2.75,2.25,5,5,5h0.061l0.119-0.293
				c-0.317-0.239-0.598-0.518-0.837-0.82l-1.061,0.449c-0.246,0.104-0.537-0.014-0.641-0.26l-0.575-1.358
				c-0.107-0.247,0.009-0.536,0.259-0.642l1.057-0.449c-0.053-0.385-0.056-0.779-0.009-1.173l-1.067-0.433
				c-0.25-0.101-0.372-0.388-0.271-0.636l0.553-1.368c0.101-0.25,0.388-0.371,0.638-0.271l1.066,0.434
				c0.241-0.318,0.516-0.599,0.822-0.84l-0.449-1.058c-0.107-0.247,0.01-0.539,0.26-0.642l1.355-0.578
				c0.248-0.107,0.539,0.011,0.643,0.26l0.449,1.059c0.386-0.053,0.78-0.058,1.174-0.008l0.431-1.066
				c0.101-0.25,0.387-0.375,0.638-0.272l1.366,0.552c0.25,0.102,0.371,0.389,0.27,0.639l-0.431,1.065
				c0.316,0.24,0.598,0.517,0.838,0.821l1.058-0.449c0.248-0.105,0.537,0.012,0.643,0.26l0.575,1.359
				c0.106,0.244-0.011,0.537-0.259,0.641l-1.058,0.449c0.051,0.385,0.054,0.777,0.007,1.173l1.067,0.431
				c0.25,0.103,0.373,0.39,0.271,0.637l-0.552,1.369c-0.1,0.25-0.387,0.371-0.64,0.27l-1.066-0.432
				c-0.241,0.316-0.516,0.599-0.821,0.84L18.03,229H28c2.75,0,5-2.25,5-5C33,221.92,31.705,220.145,29.889,219.395z"/>
			<circle fill="#8C8C8C" cx="26" cy="217" r="2.646"/>
			<circle fill="#8C8C8C" cx="15" cy="225" r="2.699"/>
		</g>
		<g opacity="0.4">
			<g>
				<path fill="#FFFFFF" d="M10.383,226.627c-0.045-0.325-0.046-0.659-0.02-0.991l-1.038,0.44c-0.249,0.105-0.366,0.395-0.259,0.642
					l0.176,0.415c0.027-0.019,0.051-0.043,0.083-0.057L10.383,226.627z"/>
				<path fill="#FFFFFF" d="M21.012,214.318c-0.254-0.073-0.523,0.076-0.596,0.33l-0.396,1.389c-0.055,0.183,0.012,0.371,0.146,0.49
					l0.251-0.879c0.072-0.254,0.342-0.402,0.597-0.33l1.084,0.31c0.2-0.333,0.439-0.634,0.715-0.897l-0.084-0.151
					c-0.045,0.024-0.096,0.043-0.142,0.069c-0.055-0.153-0.132-0.293-0.196-0.441c-0.104,0.135-0.203,0.273-0.293,0.422
					L21.012,214.318z"/>
				<path fill="#FFFFFF" d="M10.373,225.454l-0.003-0.001c0.001,0.008,0.001,0.015,0.002,0.021
					C10.373,225.469,10.372,225.461,10.373,225.454z"/>
				<path fill="#FFFFFF" d="M11.293,222.18l-1.066-0.433c-0.25-0.101-0.537,0.021-0.639,0.271l-0.553,1.369
					c-0.085,0.211-0.004,0.442,0.173,0.571l0.38-0.94c0.102-0.248,0.389-0.369,0.639-0.271l1.066,0.433
					c0.24-0.316,0.516-0.598,0.822-0.839l-0.308-0.725C11.624,221.79,11.448,221.975,11.293,222.18z"/>
				<path fill="#FFFFFF" d="M29.548,221.91c0.231-0.129,0.313-0.421,0.188-0.653l-0.221-0.396c-0.109,0.137-0.201,0.289-0.326,0.41
					l0.354,0.641L29.548,221.91z"/>
				<path fill="#FFFFFF" d="M20.691,225.977l-1.062-0.429c0.031,0.329,0.035,0.663-0.005,0.998l1.066,0.431
					c0.039,0.017,0.067,0.043,0.1,0.065l0.173-0.429C21.064,226.365,20.943,226.078,20.691,225.977z"/>
				<path fill="#FFFFFF" d="M19.627,225.506c0.006-0.047,0.005-0.094,0.008-0.14l-0.017,0.007
					C19.624,225.417,19.623,225.462,19.627,225.506z"/>
				<path fill="#FFFFFF" d="M9.924,219.468c-0.517-0.905-0.827-1.938-0.896-3.038C9.014,216.619,9,216.809,9,217
					c0,0.951,0.193,1.855,0.537,2.68C9.665,219.607,9.79,219.53,9.924,219.468z"/>
				<path fill="#FFFFFF" d="M18.079,220.652l0.173-0.426c0.101-0.25-0.021-0.539-0.271-0.64l-1.366-0.552
					c-0.25-0.102-0.537,0.021-0.638,0.271l-0.431,1.067c-0.395-0.05-0.789-0.045-1.175,0.008l-0.448-1.059
					c-0.104-0.249-0.396-0.367-0.643-0.259l-1.355,0.576c-0.25,0.104-0.367,0.396-0.26,0.643l0.176,0.414
					c0.028-0.021,0.052-0.043,0.084-0.057l1.355-0.576c0.247-0.108,0.539,0.01,0.643,0.26l0.448,1.059
					c0.386-0.053,0.78-0.058,1.175-0.008l0.431-1.066c0.101-0.252,0.388-0.375,0.638-0.272l1.366,0.553
					C18.02,220.604,18.048,220.63,18.079,220.652z"/>
				<path fill="#FFFFFF" d="M18.659,223.113l1.058-0.449c0.248-0.105,0.537,0.012,0.643,0.26l0.398,0.943
					c0.186-0.129,0.27-0.37,0.176-0.584l-0.574-1.359c-0.105-0.248-0.395-0.365-0.643-0.26l-1.058,0.449
					c-0.16-0.203-0.345-0.389-0.539-0.562l-0.3,0.741C18.137,222.532,18.418,222.809,18.659,223.113z"/>
				<path fill="#FFFFFF" d="M28,229h-7.6c-0.107,0.234-0.382,0.35-0.628,0.251L19.151,229h-0.6
					c-0.204,0.241-0.423,0.467-0.667,0.659L18.03,230H28c2.75,0,5-2.25,5-5c0-0.193-0.021-0.38-0.044-0.566
					C32.73,226.979,30.602,229,28,229z"/>
				<path fill="#FFFFFF" d="M21.443,218.152l-0.867,0.479c-0.232,0.128-0.317,0.422-0.188,0.653l0.191,0.345l0.981-0.542
					C21.488,218.782,21.454,218.469,21.443,218.152z"/>
				<path fill="#FFFFFF" d="M23.464,222.479l0.166-0.573c-0.085-0.052-0.159-0.111-0.239-0.167l-0.074,0.252
					C23.266,222.17,23.33,222.357,23.464,222.479z"/>
				<path fill="#FFFFFF" d="M11.388,228.938c-0.045-0.004-0.09-0.006-0.134-0.014l-0.973,0.412c-0.245,0.104-0.537-0.014-0.641-0.26
					l-0.384-0.907c-1.242-0.821-2.079-2.187-2.214-3.745C7.021,224.613,7,224.805,7,225c0,2.75,2.25,5,5,5h0.061l0.119-0.293
					C11.882,229.48,11.618,229.221,11.388,228.938z"/>
			</g>
			<path fill="#FFFFFF" d="M28.544,217.729c-0.403,1.403-1.869,2.219-3.274,1.813c-0.986-0.282-1.67-1.093-1.854-2.035
				c-0.255,1.328,0.528,2.656,1.854,3.035c1.405,0.403,2.871-0.41,3.274-1.813c0.12-0.416,0.121-0.836,0.043-1.235
				C28.57,217.572,28.566,217.65,28.544,217.729z"/>
			<path fill="#FFFFFF" d="M17.502,226.012c-0.559,1.383-2.132,2.051-3.513,1.491c-0.889-0.358-1.475-1.137-1.638-2.013
				c-0.24,1.242,0.419,2.521,1.638,3.013c1.381,0.56,2.954-0.108,3.513-1.491c0.2-0.494,0.236-1.013,0.146-1.502
				C17.615,225.68,17.568,225.848,17.502,226.012z"/>
		</g>
		<g opacity="0.25">
			<g>
				<path d="M10.372,225.477c-0.006,0.054-0.005,0.105-0.009,0.159l0.02-0.009C10.376,225.577,10.377,225.525,10.372,225.477z"/>
				<path d="M9.307,225.021l1.063,0.432c-0.032-0.33-0.037-0.665,0.003-0.999l-1.066-0.433c-0.038-0.016-0.066-0.041-0.099-0.063
					l-0.173,0.429C8.935,224.635,9.057,224.922,9.307,225.021z"/>
				<path d="M11.842,220.697c-0.186,0.13-0.27,0.371-0.176,0.586l0.142,0.333c0.101-0.095,0.199-0.19,0.308-0.275L11.842,220.697z"
					/>
				<path d="M29.889,220.395c1.647,0.682,2.855,2.209,3.067,4.039C32.969,224.288,33,224.148,33,224c0-2.08-1.295-3.855-3.111-4.605
					c-0.199,0.323-0.434,0.617-0.699,0.879l0.326,0.588C29.643,220.706,29.782,220.564,29.889,220.395z"/>
				<path d="M20.348,217.63l1.085,0.312c-0.002,0.07,0.008,0.14,0.01,0.211l0.119-0.066c-0.09-0.372-0.135-0.755-0.129-1.145
					l-1.085-0.312c-0.07-0.021-0.131-0.058-0.183-0.104l-0.146,0.511C19.944,217.29,20.094,217.559,20.348,217.63z"/>
				<path d="M20.964,227.613c0.086-0.211,0.005-0.442-0.173-0.571l-0.379,0.938c-0.1,0.25-0.387,0.371-0.64,0.271l-1.065-0.431
					c-0.241,0.315-0.517,0.598-0.822,0.839L18.03,229h0.521c0.051-0.061,0.106-0.116,0.155-0.18l0.445,0.18H20.4
					c0.003-0.007,0.009-0.012,0.012-0.02L20.964,227.613z"/>
				<path d="M18.079,220.652l-0.259,0.64c0.106,0.081,0.202,0.171,0.3,0.259l0.132-0.324
					C18.337,221.016,18.257,220.782,18.079,220.652z"/>
				<path d="M11.342,227.887l-1.061,0.449c-0.245,0.104-0.537-0.014-0.641-0.26l-0.398-0.943c-0.186,0.131-0.27,0.37-0.176,0.585
					l0.19,0.451c0.591,0.392,1.27,0.646,1.997,0.755l0.088-0.037c0.014,0.018,0.031,0.033,0.046,0.051
					C11.591,228.963,11.79,229,12,229h0.061l0.119-0.293C11.863,228.468,11.582,228.189,11.342,227.887z"/>
				<path d="M16,210c2.867,0,5.309,1.736,6.389,4.206c0.131-0.169,0.271-0.33,0.424-0.478l-0.084-0.15
					c-0.047,0.023-0.097,0.043-0.143,0.068C21.618,210.939,19.039,209,16,209c-3.866,0-7,3.134-7,7c0,0.146,0.02,0.287,0.028,0.43
					C9.319,212.831,12.326,210,16,210z"/>
				<path d="M21.742,220.734c-0.229,0.127-0.526,0.043-0.652-0.188l-0.51-0.919l-0.004,0.002c-0.232,0.128-0.317,0.422-0.188,0.653
					l0.701,1.265c0.126,0.229,0.423,0.313,0.652,0.187l0.985-0.545c0.198,0.203,0.424,0.383,0.662,0.549l0.239-0.833
					c-0.335-0.202-0.636-0.443-0.901-0.716L21.742,220.734z"/>
				<path d="M9.924,220.468c-0.145-0.253-0.273-0.516-0.387-0.788C8.031,220.543,7,222.148,7,224c0,0.145,0.031,0.281,0.043,0.424
					C7.249,222.666,8.374,221.184,9.924,220.468z"/>
				<path d="M23.464,222.479l-0.147,0.512c-0.071,0.251,0.076,0.521,0.332,0.594l1.389,0.398c0.255,0.072,0.521-0.077,0.595-0.332
					l0.312-1.084c0.389,0.007,0.772-0.037,1.143-0.129l0.547,0.986c0.129,0.23,0.422,0.315,0.651,0.188l1.265-0.7
					c0.232-0.129,0.314-0.421,0.188-0.653l-0.19-0.345l-1.261,0.698c-0.229,0.129-0.523,0.044-0.651-0.188l-0.547-0.986
					c-0.369,0.092-0.754,0.136-1.142,0.129l-0.312,1.084c-0.072,0.255-0.34,0.404-0.595,0.332l-1.39-0.398
					C23.576,222.562,23.518,222.523,23.464,222.479z"/>
				<path d="M19.63,225.548c-0.001-0.014-0.001-0.028-0.003-0.042c-0.001,0.014,0,0.026-0.002,0.04L19.63,225.548z"/>
				<path d="M19.618,224.373c0.043,0.326,0.044,0.659,0.017,0.993l1.041-0.442c0.248-0.104,0.365-0.396,0.258-0.641l-0.176-0.416
					c-0.027,0.02-0.05,0.043-0.082,0.057L19.618,224.373z"/>
			</g>
			<path d="M23.457,217.271c0.402-1.405,1.867-2.219,3.271-1.815c0.987,0.284,1.672,1.095,1.857,2.038
				c0.254-1.33-0.529-2.656-1.857-3.038c-1.404-0.403-2.869,0.41-3.271,1.815c-0.12,0.416-0.122,0.836-0.043,1.236
				C23.43,217.43,23.436,217.35,23.457,217.271z"/>
			<path d="M12.498,224.988c0.559-1.383,2.131-2.053,3.513-1.491c0.888,0.358,1.475,1.137,1.638,2.013
				c0.24-1.242-0.421-2.521-1.638-3.013c-1.382-0.562-2.954,0.108-3.513,1.491c-0.2,0.494-0.237,1.014-0.146,1.502
				C12.385,225.32,12.432,225.152,12.498,224.988z"/>
		</g>
	</g>
</g>
<g id="actions-hover">
	<g>
		<g>
			<path fill="#5988A5" d="M69.889,219.395c-0.199,0.323-0.434,0.617-0.699,0.879l0.547,0.982c0.127,0.232,0.046,0.524-0.188,0.653
				l-1.265,0.7c-0.229,0.129-0.522,0.043-0.651-0.188l-0.547-0.984c-0.369,0.09-0.754,0.135-1.143,0.127l-0.312,1.086
				c-0.071,0.254-0.34,0.401-0.595,0.33l-1.391-0.397c-0.254-0.073-0.401-0.343-0.33-0.595l0.312-1.084
				c-0.335-0.202-0.636-0.443-0.9-0.717l-0.985,0.547c-0.229,0.127-0.526,0.043-0.652-0.188l-0.702-1.265
				c-0.129-0.23-0.045-0.524,0.188-0.653l0.985-0.544c-0.09-0.372-0.135-0.755-0.129-1.145l-1.084-0.312
				c-0.254-0.071-0.404-0.34-0.328-0.594l0.396-1.39c0.072-0.254,0.341-0.401,0.596-0.33l1.084,0.311
				c0.2-0.333,0.439-0.634,0.717-0.898l-0.084-0.15c-0.047,0.023-0.098,0.043-0.144,0.068C61.618,210.939,59.039,209,56,209
				c-3.866,0-7,3.134-7,7c0,1.264,0.339,2.445,0.924,3.468C48.206,220.261,47,221.992,47,224c0,2.75,2.25,5,5,5h0.061l0.119-0.293
				c-0.316-0.239-0.598-0.518-0.837-0.82l-1.061,0.449c-0.246,0.104-0.537-0.014-0.642-0.26l-0.574-1.358
				c-0.107-0.247,0.009-0.536,0.259-0.642l1.057-0.449c-0.053-0.385-0.056-0.779-0.009-1.173l-1.066-0.433
				c-0.25-0.102-0.373-0.389-0.271-0.637l0.553-1.367c0.102-0.25,0.389-0.371,0.639-0.271l1.065,0.434
				c0.241-0.318,0.517-0.599,0.822-0.84l-0.449-1.058c-0.106-0.247,0.01-0.539,0.26-0.642l1.354-0.578
				c0.248-0.108,0.539,0.01,0.644,0.258l0.449,1.06c0.386-0.053,0.78-0.058,1.174-0.008l0.431-1.067
				c0.102-0.25,0.387-0.373,0.639-0.271l1.365,0.552c0.25,0.103,0.371,0.39,0.271,0.64l-0.431,1.065
				c0.316,0.239,0.598,0.517,0.838,0.821l1.058-0.449c0.248-0.105,0.537,0.012,0.644,0.26l0.574,1.359
				c0.106,0.244-0.011,0.537-0.259,0.641l-1.058,0.449c0.051,0.385,0.054,0.777,0.007,1.173l1.067,0.431
				c0.25,0.104,0.373,0.391,0.271,0.637l-0.552,1.369c-0.1,0.25-0.387,0.371-0.641,0.27l-1.065-0.432
				c-0.241,0.315-0.517,0.599-0.821,0.84L58.029,229H68c2.75,0,5-2.25,5-5C73,221.92,71.705,220.145,69.889,219.395z"/>
			<circle fill="#5988A5" cx="66" cy="217" r="2.646"/>
			<circle fill="#5988A5" cx="55" cy="225" r="2.699"/>
		</g>
		<g opacity="0.4">
			<g>
				<path fill="#FFFFFF" d="M50.383,226.627c-0.045-0.325-0.046-0.659-0.02-0.991l-1.038,0.44c-0.249,0.105-0.366,0.395-0.259,0.642
					l0.176,0.415c0.027-0.019,0.051-0.043,0.083-0.057L50.383,226.627z"/>
				<path fill="#FFFFFF" d="M61.012,214.318c-0.254-0.073-0.521,0.076-0.596,0.33l-0.396,1.389c-0.055,0.183,0.013,0.371,0.146,0.49
					l0.251-0.879c0.071-0.254,0.342-0.402,0.597-0.33l1.084,0.31c0.2-0.333,0.439-0.634,0.715-0.897l-0.084-0.151
					c-0.045,0.024-0.096,0.043-0.142,0.069c-0.055-0.153-0.132-0.293-0.196-0.441c-0.104,0.135-0.203,0.273-0.293,0.422
					L61.012,214.318z"/>
				<path fill="#FFFFFF" d="M50.373,225.454l-0.003-0.001c0.001,0.008,0.001,0.015,0.002,0.021
					C50.373,225.469,50.372,225.461,50.373,225.454z"/>
				<path fill="#FFFFFF" d="M51.293,222.18l-1.066-0.433c-0.25-0.101-0.537,0.021-0.639,0.271l-0.553,1.369
					c-0.085,0.211-0.004,0.442,0.173,0.571l0.38-0.94c0.102-0.248,0.389-0.369,0.639-0.271l1.066,0.433
					c0.24-0.315,0.516-0.598,0.822-0.839l-0.309-0.725C51.624,221.79,51.448,221.975,51.293,222.18z"/>
				<path fill="#FFFFFF" d="M69.548,221.91c0.231-0.129,0.313-0.421,0.188-0.653l-0.221-0.396c-0.109,0.137-0.201,0.289-0.326,0.41
					l0.354,0.641L69.548,221.91z"/>
				<path fill="#FFFFFF" d="M60.691,225.977l-1.062-0.429c0.031,0.329,0.035,0.663-0.005,0.998l1.065,0.431
					c0.039,0.018,0.067,0.043,0.101,0.065l0.173-0.429C61.064,226.365,60.943,226.078,60.691,225.977z"/>
				<path fill="#FFFFFF" d="M59.627,225.506c0.006-0.047,0.005-0.094,0.008-0.14l-0.017,0.007
					C59.624,225.417,59.623,225.462,59.627,225.506z"/>
				<path fill="#FFFFFF" d="M49.924,219.468c-0.517-0.905-0.826-1.938-0.896-3.038C49.014,216.619,49,216.809,49,217
					c0,0.951,0.193,1.855,0.537,2.68C49.665,219.607,49.79,219.529,49.924,219.468z"/>
				<path fill="#FFFFFF" d="M58.079,220.652l0.173-0.426c0.102-0.25-0.021-0.539-0.271-0.641l-1.365-0.552
					c-0.25-0.103-0.537,0.021-0.639,0.272l-0.431,1.066c-0.396-0.05-0.789-0.045-1.175,0.008l-0.448-1.059
					c-0.104-0.249-0.396-0.367-0.644-0.26l-1.354,0.578c-0.25,0.104-0.366,0.396-0.26,0.643l0.176,0.414
					c0.028-0.021,0.052-0.043,0.084-0.057l1.354-0.576c0.248-0.108,0.539,0.01,0.644,0.26l0.448,1.059
					c0.386-0.053,0.779-0.058,1.175-0.008l0.431-1.066c0.102-0.252,0.389-0.375,0.639-0.271l1.365,0.553
					C58.02,220.604,58.048,220.63,58.079,220.652z"/>
				<path fill="#FFFFFF" d="M58.659,223.113l1.058-0.449c0.248-0.105,0.537,0.012,0.643,0.26l0.398,0.943
					c0.186-0.129,0.27-0.37,0.176-0.584l-0.574-1.359c-0.104-0.248-0.395-0.365-0.643-0.26l-1.058,0.449
					c-0.16-0.203-0.345-0.389-0.539-0.562l-0.3,0.741C58.137,222.532,58.418,222.809,58.659,223.113z"/>
				<path fill="#FFFFFF" d="M68,229h-7.6c-0.107,0.234-0.383,0.35-0.629,0.251L59.15,229h-0.6c-0.203,0.241-0.423,0.467-0.667,0.659
					L58.029,230H68c2.75,0,5-2.25,5-5c0-0.193-0.021-0.38-0.044-0.566C72.73,226.979,70.602,229,68,229z"/>
				<path fill="#FFFFFF" d="M61.443,218.152l-0.867,0.479c-0.232,0.128-0.317,0.422-0.188,0.653l0.19,0.345l0.981-0.542
					C61.488,218.782,61.454,218.469,61.443,218.152z"/>
				<path fill="#FFFFFF" d="M63.464,222.479l0.166-0.573c-0.085-0.052-0.159-0.11-0.239-0.166l-0.074,0.252
					C63.266,222.17,63.33,222.357,63.464,222.479z"/>
				<path fill="#FFFFFF" d="M51.389,228.938c-0.046-0.004-0.091-0.006-0.135-0.014l-0.973,0.412
					c-0.245,0.104-0.537-0.014-0.641-0.26l-0.385-0.907c-1.242-0.821-2.079-2.187-2.214-3.745C47.021,224.613,47,224.805,47,225
					c0,2.75,2.25,5,5,5h0.061l0.119-0.293C51.882,229.48,51.618,229.221,51.389,228.938z"/>
			</g>
			<path fill="#FFFFFF" d="M68.544,217.729c-0.403,1.403-1.869,2.219-3.274,1.813c-0.985-0.282-1.67-1.093-1.854-2.035
				c-0.255,1.328,0.527,2.656,1.854,3.035c1.405,0.403,2.871-0.41,3.274-1.813c0.12-0.416,0.121-0.836,0.043-1.235
				C68.57,217.572,68.566,217.65,68.544,217.729z"/>
			<path fill="#FFFFFF" d="M57.502,226.012c-0.559,1.383-2.132,2.051-3.513,1.491c-0.89-0.358-1.476-1.137-1.638-2.013
				c-0.24,1.242,0.418,2.521,1.638,3.013c1.381,0.56,2.954-0.108,3.513-1.491c0.2-0.494,0.236-1.013,0.146-1.502
				C57.615,225.68,57.568,225.848,57.502,226.012z"/>
		</g>
		<g opacity="0.25">
			<g>
				<path d="M50.372,225.477c-0.006,0.054-0.005,0.105-0.009,0.159l0.02-0.009C50.376,225.577,50.377,225.525,50.372,225.477z"/>
				<path d="M49.307,225.021l1.063,0.432c-0.032-0.33-0.037-0.665,0.003-0.999l-1.066-0.433c-0.037-0.017-0.065-0.041-0.099-0.063
					l-0.173,0.429C48.936,224.635,49.057,224.922,49.307,225.021z"/>
				<path d="M51.842,220.697c-0.186,0.13-0.27,0.371-0.176,0.586l0.143,0.333c0.101-0.095,0.198-0.19,0.308-0.275L51.842,220.697z"
					/>
				<path d="M69.889,220.395c1.647,0.683,2.855,2.209,3.067,4.039C72.969,224.288,73,224.148,73,224c0-2.08-1.295-3.855-3.111-4.605
					c-0.199,0.323-0.434,0.617-0.699,0.879l0.326,0.588C69.643,220.706,69.782,220.564,69.889,220.395z"/>
				<path d="M60.348,217.63l1.086,0.312c-0.002,0.07,0.008,0.14,0.01,0.211l0.119-0.066c-0.09-0.372-0.136-0.755-0.129-1.145
					l-1.086-0.312c-0.07-0.021-0.131-0.058-0.183-0.104l-0.146,0.511C59.943,217.29,60.094,217.559,60.348,217.63z"/>
				<path d="M60.964,227.613c0.086-0.211,0.005-0.442-0.173-0.571l-0.379,0.938c-0.1,0.25-0.387,0.371-0.641,0.271l-1.064-0.431
					c-0.241,0.314-0.518,0.598-0.822,0.839L58.029,229h0.521c0.051-0.061,0.106-0.116,0.155-0.18L59.15,229h1.25
					c0.002-0.007,0.009-0.012,0.012-0.02L60.964,227.613z"/>
				<path d="M58.079,220.652l-0.259,0.64c0.105,0.081,0.201,0.171,0.3,0.259l0.132-0.324
					C58.337,221.016,58.257,220.782,58.079,220.652z"/>
				<path d="M51.342,227.887l-1.061,0.449c-0.245,0.104-0.537-0.014-0.641-0.26l-0.398-0.943c-0.186,0.131-0.27,0.37-0.176,0.585
					l0.189,0.451c0.592,0.392,1.27,0.646,1.997,0.755l0.088-0.037c0.015,0.018,0.031,0.033,0.046,0.051
					C51.591,228.963,51.79,229,52,229h0.061l0.119-0.293C51.863,228.468,51.582,228.189,51.342,227.887z"/>
				<path d="M56,210c2.867,0,5.309,1.736,6.389,4.206c0.131-0.169,0.271-0.33,0.424-0.478l-0.084-0.15
					c-0.047,0.023-0.097,0.043-0.143,0.068C61.618,210.939,59.039,209,56,209c-3.866,0-7,3.134-7,7c0,0.146,0.02,0.287,0.027,0.43
					C49.318,212.831,52.326,210,56,210z"/>
				<path d="M61.742,220.734c-0.229,0.127-0.526,0.043-0.652-0.188l-0.51-0.919l-0.004,0.002c-0.232,0.128-0.317,0.422-0.188,0.653
					l0.7,1.265c0.126,0.229,0.423,0.312,0.652,0.188l0.985-0.545c0.197,0.203,0.424,0.383,0.662,0.549l0.238-0.834
					c-0.335-0.201-0.636-0.442-0.9-0.715L61.742,220.734z"/>
				<path d="M49.924,220.468c-0.145-0.253-0.273-0.516-0.387-0.788C48.031,220.543,47,222.148,47,224
					c0,0.145,0.031,0.281,0.043,0.424C47.249,222.666,48.374,221.184,49.924,220.468z"/>
				<path d="M63.464,222.479l-0.147,0.513c-0.07,0.251,0.076,0.521,0.332,0.594l1.39,0.397c0.255,0.072,0.521-0.077,0.595-0.332
					l0.312-1.084c0.389,0.008,0.771-0.036,1.143-0.129l0.547,0.986c0.129,0.23,0.422,0.315,0.651,0.188l1.265-0.699
					c0.232-0.129,0.314-0.421,0.188-0.653l-0.189-0.345l-1.261,0.697c-0.229,0.13-0.522,0.044-0.651-0.188l-0.547-0.986
					c-0.369,0.093-0.754,0.137-1.142,0.129l-0.312,1.084c-0.072,0.255-0.341,0.404-0.596,0.332l-1.391-0.397
					C63.576,222.562,63.518,222.523,63.464,222.479z"/>
				<path d="M59.63,225.548c-0.001-0.014-0.001-0.028-0.003-0.042c-0.001,0.014,0,0.026-0.002,0.04L59.63,225.548z"/>
				<path d="M59.618,224.373c0.043,0.326,0.044,0.659,0.017,0.993l1.041-0.442c0.248-0.104,0.365-0.396,0.258-0.641l-0.176-0.416
					c-0.027,0.02-0.05,0.043-0.082,0.057L59.618,224.373z"/>
			</g>
			<path d="M63.457,217.271c0.402-1.405,1.867-2.219,3.271-1.815c0.986,0.284,1.672,1.095,1.856,2.038
				c0.254-1.33-0.528-2.656-1.856-3.038c-1.404-0.403-2.869,0.41-3.271,1.815c-0.12,0.416-0.122,0.836-0.043,1.236
				C63.43,217.43,63.436,217.35,63.457,217.271z"/>
			<path d="M52.498,224.988c0.559-1.383,2.131-2.053,3.514-1.491c0.887,0.358,1.475,1.137,1.637,2.013
				c0.24-1.242-0.42-2.521-1.637-3.013c-1.383-0.562-2.955,0.108-3.514,1.491c-0.2,0.494-0.237,1.014-0.146,1.502
				C52.385,225.32,52.432,225.152,52.498,224.988z"/>
		</g>
	</g>
</g>
<g id="virtual">
	<g>
		<g>
			<path fill="#8C8C8C" d="M29.256,249.967C29.115,249.436,28.55,249,28,249h-8h-8c-0.55,0-1.115,0.436-1.256,0.967L10.735,250H20
				h9.266L29.256,249.967z"/>
			<path fill="#8C8C8C" d="M29.256,268.033C29.115,268.564,28.55,269,28,269h-8h-8c-0.55,0-1.115-0.436-1.256-0.967L10.735,268H20
				h9.266L29.256,268.033z"/>
			<path fill="#8C8C8C" d="M31,251H9c-0.55,0-1,0.45-1,1v14c0,0.55,0.45,1,1,1h22c0.55,0,1-0.45,1-1v-14C32,251.45,31.55,251,31,251
				z M15.033,263h-2.054L10,255h1.869l2.137,6.152L16.131,255H18L15.033,263z M29,263h-1.779v-5.602L24.88,263h-0.772l-2.34-5.602
				V263H20v-8h2.479l2.016,4.834L26.512,255H29V263z"/>
		</g>
		<g opacity="0.25">
			<path d="M29.256,249.967C29.115,249.436,28.55,249,28,249h-8h-8c-0.55,0-1.115,0.436-1.256,0.967L10.735,250H20h9.266
				L29.256,249.967z"/>
			<path d="M29.256,268.033C29.115,268.564,28.55,269,28,269h-8h-8c-0.55,0-1.115-0.436-1.256-0.967L10.735,268H20h9.266
				L29.256,268.033z"/>
			<g>
				<polygon points="12.979,264 15.033,264 18,256 17.629,256 15.033,263 12.979,263 10.372,256 10,256 				"/>
				<polygon points="24.88,264 27.221,258.398 27.221,257.398 24.88,263 24.107,263 21.768,257.398 21.768,258.398 24.107,264 				
					"/>
				<rect x="27.221" y="263" width="1.779" height="1"/>
				<rect x="20" y="263" width="1.768" height="1"/>
				<path d="M31,251H9c-0.55,0-1,0.45-1,1v1c0-0.55,0.45-1,1-1h22c0.55,0,1,0.45,1,1v-1C32,251.45,31.55,251,31,251z"/>
			</g>
		</g>
		<g opacity="0.4">
			<path fill="#FFFFFF" d="M29.256,250.967C29.115,250.436,28.55,250,28,250h-8h-8c-0.55,0-1.115,0.436-1.256,0.967L10.735,251H20
				h9.266L29.256,250.967z"/>
			<path fill="#FFFFFF" d="M28.492,269.033C28.361,269.564,27.844,270,27.34,270H20h-7.34c-0.504,0-1.022-0.436-1.152-0.967
				L11.5,269H20h8.5L28.492,269.033z"/>
			<g>
				<polygon fill="#FFFFFF" points="26.512,255 24.493,259.834 22.479,255 20,255 20,256 22.479,256 24.493,260.834 26.512,256 
					29,256 29,255 				"/>
				<path fill="#FFFFFF" d="M31,267H9c-0.55,0-1-0.45-1-1v1c0,0.55,0.45,1,1,1h22c0.55,0,1-0.45,1-1v-1C32,266.55,31.55,267,31,267z
					"/>
				<polygon fill="#FFFFFF" points="16.131,255 14.006,261.152 11.869,255 10,255 10.372,256 11.869,256 14.006,262.152 16.131,256 
					17.629,256 18,255 				"/>
			</g>
		</g>
	</g>
</g>
<g id="virtual-hover">
	<g>
		<g>
			<path fill="#5988A5" d="M69.256,249.967C69.115,249.436,68.55,249,68,249h-8h-8c-0.55,0-1.115,0.436-1.256,0.967L50.734,250H60
				h9.266L69.256,249.967z"/>
			<path fill="#5988A5" d="M69.256,268.033C69.115,268.564,68.55,269,68,269h-8h-8c-0.55,0-1.115-0.436-1.256-0.967L50.734,268H60
				h9.266L69.256,268.033z"/>
			<path fill="#5988A5" d="M71,251H49c-0.55,0-1,0.45-1,1v14c0,0.55,0.45,1,1,1h22c0.55,0,1-0.45,1-1v-14
				C72,251.45,71.55,251,71,251z M55.033,263h-2.055L50,255h1.869l2.137,6.152L56.131,255H58L55.033,263z M69,263h-1.779v-5.602
				L64.88,263h-0.772l-2.34-5.602V263H60v-8h2.479l2.016,4.834L66.512,255H69V263z"/>
		</g>
		<g opacity="0.25">
			<path d="M69.256,249.967C69.115,249.436,68.55,249,68,249h-8h-8c-0.55,0-1.115,0.436-1.256,0.967L50.734,250H60h9.266
				L69.256,249.967z"/>
			<path d="M69.256,268.033C69.115,268.564,68.55,269,68,269h-8h-8c-0.55,0-1.115-0.436-1.256-0.967L50.734,268H60h9.266
				L69.256,268.033z"/>
			<g>
				<polygon points="52.979,264 55.033,264 58,256 57.629,256 55.033,263 52.979,263 50.372,256 50,256 				"/>
				<polygon points="64.88,264 67.221,258.398 67.221,257.398 64.88,263 64.107,263 61.768,257.398 61.768,258.398 64.107,264 				
					"/>
				<rect x="67.221" y="263" width="1.779" height="1"/>
				<rect x="60" y="263" width="1.768" height="1"/>
				<path d="M71,251H49c-0.55,0-1,0.45-1,1v1c0-0.55,0.45-1,1-1h22c0.55,0,1,0.45,1,1v-1C72,251.45,71.55,251,71,251z"/>
			</g>
		</g>
		<g opacity="0.4">
			<path fill="#FFFFFF" d="M69.256,250.967C69.115,250.436,68.55,250,68,250h-8h-8c-0.55,0-1.115,0.436-1.256,0.967L50.734,251H60
				h9.266L69.256,250.967z"/>
			<path fill="#FFFFFF" d="M68.492,269.033C68.361,269.564,67.844,270,67.34,270H60h-7.34c-0.504,0-1.021-0.436-1.152-0.967
				L51.5,269H60h8.5L68.492,269.033z"/>
			<g>
				<polygon fill="#FFFFFF" points="66.512,255 64.493,259.834 62.479,255 60,255 60,256 62.479,256 64.493,260.834 66.512,256 
					69,256 69,255 				"/>
				<path fill="#FFFFFF" d="M71,267H49c-0.55,0-1-0.45-1-1v1c0,0.55,0.45,1,1,1h22c0.55,0,1-0.45,1-1v-1C72,266.55,71.55,267,71,267
					z"/>
				<polygon fill="#FFFFFF" points="56.131,255 54.006,261.152 51.869,255 50,255 50.372,256 51.869,256 54.006,262.152 56.131,256 
					57.629,256 58,255 				"/>
			</g>
		</g>
	</g>
</g>
<g id="plugin">
	<g>
		<path fill="#8C8C8C" d="M29.793,299.348C29.914,298.917,30,298.47,30,298c0-2.762-2.238-5-5-5c-0.881,0-1.695,0.247-2.414,0.646
			C21.618,290.939,19.039,289,16,289c-3.866,0-7,3.134-7,7c0,1.264,0.339,2.445,0.924,3.468C8.206,300.261,7,301.992,7,304
			c0,2.75,2.25,5,5,5h8c0.553,0,1-0.447,1-1v-1v-2h2c0.55,0,1-0.45,1-1v-2c0.55,0,1-0.45,1-1s-0.45-1-1-1h-1v-2c0-0.55-0.45-1-1-1
			s-1,0.45-1,1v2h-2v-2c0-0.55-0.45-1-1-1s-1,0.45-1,1v2h-1c-0.55,0-1,0.45-1,1s0.45,1,1,1v2c0,0.55,0.45,1,1,1h2v2h-7
			c-1.654,0-3-1.346-3-3c0-1.156,0.691-2.223,1.762-2.717c0.51-0.234,0.896-0.674,1.066-1.206c0.172-0.534,0.11-1.116-0.168-1.603
			C11.229,297.72,11,296.864,11,296c0-2.757,2.243-5,5-5c2.104,0,3.992,1.334,4.703,3.32c0.197,0.553,0.629,0.992,1.179,1.199
			c0.228,0.084,0.466,0.127,0.704,0.127c0.337,0,0.672-0.084,0.973-0.252C24.029,295.133,24.514,295,25,295c1.654,0,3,1.346,3,3
			c0,0.229-0.042,0.484-0.133,0.807c-0.278,0.992,0.24,2.032,1.201,2.405C30.225,301.661,31,302.781,31,304c0,1.654-1.346,3-3,3h-3
			c-0.553,0-1,0.447-1,1s0.447,1,1,1h3c2.75,0,5-2.25,5-5C33,301.883,31.661,300.074,29.793,299.348z"/>
		<g opacity="0.4">
			<path fill="#FFFFFF" d="M9.05,304.492c0.169-0.952,0.801-1.788,1.712-2.209c0.51-0.234,0.896-0.674,1.066-1.206
				c0.117-0.364,0.117-0.748,0.023-1.111c-0.01,0.037-0.012,0.075-0.023,0.111c-0.17,0.532-0.557,0.972-1.066,1.206
				C9.691,301.777,9,302.844,9,304C9,304.168,9.022,304.331,9.05,304.492z"/>
			<path fill="#FFFFFF" d="M17,305c-0.55,0-1-0.45-1-1v1c0,0.55,0.45,1,1,1h2v-1H17z"/>
			<path fill="#FFFFFF" d="M25,295c-0.486,0-0.971,0.133-1.441,0.395c-0.301,0.168-0.636,0.252-0.973,0.252
				c-0.238,0-0.477-0.041-0.704-0.127c-0.55-0.207-0.981-0.646-1.179-1.199C19.992,292.334,18.104,291,16,291c-2.757,0-5,2.243-5,5
				c0,0.203,0.015,0.405,0.04,0.605C11.245,294.036,13.378,292,16,292c2.104,0,3.992,1.334,4.703,3.32
				c0.197,0.553,0.629,0.992,1.179,1.199c0.228,0.084,0.466,0.127,0.704,0.127c0.337,0,0.672-0.084,0.973-0.252
				C24.029,296.133,24.514,296,25,296c1.471,0,2.691,1.064,2.945,2.464C27.979,298.296,28,298.141,28,298
				C28,296.346,26.654,295,25,295z"/>
			<path fill="#FFFFFF" d="M16,302c-0.364,0-0.671-0.207-0.846-0.5C15.065,301.648,15,301.814,15,302c0,0.55,0.45,1,1,1V302z"/>
			<path fill="#FFFFFF" d="M25,302c0-0.186-0.064-0.352-0.154-0.5c-0.175,0.293-0.482,0.5-0.846,0.5v1C24.55,303,25,302.55,25,302z"
				/>
			<path fill="#FFFFFF" d="M29.964,299.43C29.979,299.287,30,299.146,30,299c0-0.156-0.032-0.303-0.046-0.456
				c-0.036,0.274-0.088,0.543-0.161,0.804C29.854,299.371,29.904,299.404,29.964,299.43z"/>
			<path fill="#FFFFFF" d="M28,309h-3c-0.366,0-0.673-0.206-0.848-0.5C24.064,308.648,24,308.812,24,309c0,0.553,0.447,1,1,1h3
				c2.75,0,5-2.25,5-5c0-0.191-0.023-0.378-0.044-0.562C32.729,306.98,30.602,309,28,309z"/>
			<path fill="#FFFFFF" d="M24,304c0,0.55-0.45,1-1,1h-2v1h2c0.55,0,1-0.45,1-1V304z"/>
			<path fill="#FFFFFF" d="M20,309h-8c-2.605,0-4.736-2.025-4.957-4.576C7.021,304.613,7,304.805,7,305c0,2.75,2.25,5,5,5h8
				c0.553,0,1-0.447,1-1v-1C21,308.553,20.553,309,20,309z"/>
			<path fill="#FFFFFF" d="M9.924,299.468c-0.518-0.905-0.827-1.938-0.896-3.036C9.014,296.619,9,296.809,9,297
				c0,0.951,0.192,1.855,0.537,2.682C9.664,299.607,9.789,299.53,9.924,299.468z"/>
			<path fill="#FFFFFF" d="M29.068,301.212c-0.62-0.241-1.053-0.762-1.209-1.366c-0.254,0.979,0.262,1.998,1.209,2.366
				c0.99,0.386,1.699,1.267,1.882,2.278c0.028-0.16,0.05-0.322,0.05-0.49C31,302.781,30.225,301.661,29.068,301.212z"/>
		</g>
		<g opacity="0.25">
			<path d="M24,300h-1v1h1c0.363,0,0.671,0.207,0.846,0.5c0.09-0.148,0.154-0.314,0.154-0.5C25,300.45,24.55,300,24,300z"/>
			<path d="M15,301c0,0.186,0.065,0.352,0.154,0.5c0.176-0.293,0.482-0.5,0.846-0.5h1v-1h-1C15.45,300,15,300.45,15,301z"/>
			<path d="M19,298c0-0.55-0.45-1-1-1s-1,0.45-1,1v1c0-0.55,0.45-1,1-1s1,0.45,1,1V298z"/>
			<path d="M25,308h3c1.654,0,3-1.346,3-3c0-0.173-0.02-0.343-0.05-0.51C30.715,305.911,29.486,307,28,307h-3c-0.553,0-1,0.447-1,1
				c0,0.188,0.064,0.352,0.152,0.5C24.327,308.206,24.634,308,25,308z"/>
			<path d="M29.793,300.348c1.699,0.661,2.948,2.221,3.163,4.09C32.969,304.29,33,304.148,33,304c0-2.05-1.262-3.802-3.036-4.57
				C29.932,299.744,29.876,300.052,29.793,300.348z"/>
			<path d="M22,298c0.55,0,1,0.45,1,1v-1c0-0.55-0.45-1-1-1s-1,0.45-1,1v1C21,298.45,21.45,298,22,298z"/>
			<path d="M16,290c3.039,0,5.618,1.939,6.586,4.646C23.305,294.247,24.119,294,25,294c2.605,0,4.721,2,4.954,4.544
				C29.979,298.365,30,298.186,30,298c0-2.762-2.238-5-5-5c-0.881,0-1.695,0.247-2.414,0.646C21.618,290.939,19.039,289,16,289
				c-3.866,0-7,3.134-7,7c0,0.146,0.02,0.287,0.029,0.432C9.319,292.832,12.326,290,16,290z"/>
			<path d="M9.924,300.468c-0.145-0.253-0.274-0.516-0.387-0.786C8.031,300.543,7,302.148,7,304c0,0.145,0.031,0.281,0.043,0.424
				C7.25,302.666,8.374,301.184,9.924,300.468z"/>
			<rect x="19" y="300" width="2" height="1"/>
			<path d="M28,299c0-0.184-0.021-0.361-0.055-0.536c-0.021,0.108-0.043,0.218-0.078,0.343c-0.1,0.352-0.094,0.707-0.008,1.039
				c0.004-0.013,0.004-0.025,0.008-0.039C27.958,299.484,28,299.229,28,299z"/>
			<path d="M11.66,299.475c0.089,0.155,0.147,0.321,0.191,0.491c0.13-0.503,0.068-1.038-0.191-1.491
				c-0.33-0.578-0.539-1.215-0.62-1.869C11.029,296.738,11,296.865,11,297C11,297.864,11.229,298.72,11.66,299.475z"/>
			<path d="M12,308h7v-1h-7c-1.486,0-2.714-1.088-2.95-2.508C9.02,304.658,9,304.828,9,305C9,306.654,10.346,308,12,308z"/>
		</g>
	</g>
</g>
<g id="plugin-hover">
	<g>
		<path fill="#5988A5" d="M69.793,299.348C69.914,298.917,70,298.47,70,298c0-2.762-2.238-5-5-5c-0.881,0-1.695,0.247-2.414,0.646
			C61.618,290.939,59.039,289,56,289c-3.866,0-7,3.134-7,7c0,1.264,0.339,2.445,0.924,3.468C48.206,300.261,47,301.992,47,304
			c0,2.75,2.25,5,5,5h8c0.553,0,1-0.447,1-1v-1v-2h2c0.55,0,1-0.45,1-1v-2c0.55,0,1-0.45,1-1s-0.45-1-1-1h-1v-2c0-0.55-0.45-1-1-1
			s-1,0.45-1,1v2h-2v-2c0-0.55-0.45-1-1-1s-1,0.45-1,1v2h-1c-0.55,0-1,0.45-1,1s0.45,1,1,1v2c0,0.55,0.45,1,1,1h2v2h-7
			c-1.654,0-3-1.346-3-3c0-1.156,0.69-2.223,1.762-2.717c0.51-0.234,0.896-0.674,1.066-1.206c0.172-0.534,0.109-1.116-0.168-1.603
			C51.229,297.72,51,296.864,51,296c0-2.757,2.243-5,5-5c2.104,0,3.992,1.334,4.703,3.32c0.197,0.553,0.629,0.992,1.179,1.199
			c0.228,0.084,0.466,0.127,0.704,0.127c0.337,0,0.672-0.084,0.973-0.252C64.029,295.133,64.514,295,65,295c1.654,0,3,1.346,3,3
			c0,0.229-0.042,0.484-0.133,0.807c-0.278,0.992,0.24,2.032,1.201,2.405C70.225,301.661,71,302.781,71,304c0,1.654-1.346,3-3,3h-3
			c-0.553,0-1,0.447-1,1s0.447,1,1,1h3c2.75,0,5-2.25,5-5C73,301.883,71.661,300.074,69.793,299.348z"/>
		<g opacity="0.4">
			<path fill="#FFFFFF" d="M49.05,304.492c0.169-0.952,0.801-1.788,1.712-2.209c0.51-0.234,0.896-0.674,1.066-1.206
				c0.116-0.364,0.116-0.748,0.022-1.111c-0.01,0.037-0.012,0.075-0.022,0.111c-0.17,0.532-0.558,0.972-1.066,1.206
				C49.69,301.777,49,302.844,49,304C49,304.168,49.021,304.331,49.05,304.492z"/>
			<path fill="#FFFFFF" d="M57,305c-0.55,0-1-0.45-1-1v1c0,0.55,0.45,1,1,1h2v-1H57z"/>
			<path fill="#FFFFFF" d="M65,295c-0.486,0-0.971,0.133-1.441,0.395c-0.301,0.168-0.636,0.252-0.973,0.252
				c-0.238,0-0.477-0.041-0.704-0.127c-0.55-0.207-0.981-0.646-1.179-1.199c-0.711-1.986-2.6-3.32-4.703-3.32c-2.757,0-5,2.243-5,5
				c0,0.203,0.015,0.405,0.04,0.605C51.245,294.036,53.378,292,56,292c2.104,0,3.992,1.334,4.703,3.32
				c0.197,0.553,0.629,0.992,1.179,1.199c0.228,0.084,0.466,0.127,0.704,0.127c0.337,0,0.672-0.084,0.973-0.252
				C64.029,296.133,64.514,296,65,296c1.471,0,2.691,1.064,2.945,2.464C67.979,298.296,68,298.141,68,298
				C68,296.346,66.654,295,65,295z"/>
			<path fill="#FFFFFF" d="M56,302c-0.364,0-0.671-0.207-0.847-0.5C55.064,301.648,55,301.814,55,302c0,0.55,0.45,1,1,1V302z"/>
			<path fill="#FFFFFF" d="M65,302c0-0.186-0.064-0.352-0.154-0.5c-0.175,0.293-0.482,0.5-0.846,0.5v1C64.55,303,65,302.55,65,302z"
				/>
			<path fill="#FFFFFF" d="M69.964,299.43C69.979,299.287,70,299.146,70,299c0-0.156-0.032-0.303-0.046-0.456
				c-0.036,0.274-0.088,0.543-0.161,0.804C69.854,299.371,69.904,299.404,69.964,299.43z"/>
			<path fill="#FFFFFF" d="M68,309h-3c-0.366,0-0.673-0.206-0.848-0.5C64.064,308.648,64,308.812,64,309c0,0.553,0.447,1,1,1h3
				c2.75,0,5-2.25,5-5c0-0.191-0.023-0.378-0.044-0.562C72.729,306.98,70.602,309,68,309z"/>
			<path fill="#FFFFFF" d="M64,304c0,0.55-0.45,1-1,1h-2v1h2c0.55,0,1-0.45,1-1V304z"/>
			<path fill="#FFFFFF" d="M60,309h-8c-2.605,0-4.736-2.025-4.957-4.576C47.021,304.613,47,304.805,47,305c0,2.75,2.25,5,5,5h8
				c0.553,0,1-0.447,1-1v-1C61,308.553,60.553,309,60,309z"/>
			<path fill="#FFFFFF" d="M49.924,299.468c-0.518-0.905-0.827-1.938-0.896-3.036C49.014,296.619,49,296.809,49,297
				c0,0.951,0.191,1.855,0.537,2.682C49.664,299.607,49.789,299.529,49.924,299.468z"/>
			<path fill="#FFFFFF" d="M69.068,301.212c-0.62-0.241-1.053-0.762-1.209-1.366c-0.254,0.979,0.262,1.998,1.209,2.366
				c0.99,0.386,1.699,1.267,1.882,2.278c0.028-0.16,0.05-0.322,0.05-0.49C71,302.781,70.225,301.661,69.068,301.212z"/>
		</g>
		<g opacity="0.25">
			<path d="M64,300h-1v1h1c0.363,0,0.671,0.207,0.846,0.5c0.09-0.148,0.154-0.314,0.154-0.5C65,300.45,64.55,300,64,300z"/>
			<path d="M55,301c0,0.186,0.064,0.352,0.153,0.5c0.177-0.293,0.482-0.5,0.847-0.5h1v-1h-1C55.45,300,55,300.45,55,301z"/>
			<path d="M59,298c0-0.55-0.45-1-1-1s-1,0.45-1,1v1c0-0.55,0.45-1,1-1s1,0.45,1,1V298z"/>
			<path d="M65,308h3c1.654,0,3-1.346,3-3c0-0.173-0.02-0.343-0.05-0.51C70.715,305.911,69.486,307,68,307h-3c-0.553,0-1,0.447-1,1
				c0,0.188,0.064,0.352,0.152,0.5C64.327,308.206,64.634,308,65,308z"/>
			<path d="M69.793,300.348c1.699,0.661,2.948,2.221,3.163,4.09C72.969,304.29,73,304.148,73,304c0-2.05-1.262-3.802-3.036-4.57
				C69.932,299.744,69.876,300.052,69.793,300.348z"/>
			<path d="M62,298c0.55,0,1,0.45,1,1v-1c0-0.55-0.45-1-1-1s-1,0.45-1,1v1C61,298.45,61.45,298,62,298z"/>
			<path d="M56,290c3.039,0,5.618,1.939,6.586,4.646C63.305,294.247,64.119,294,65,294c2.605,0,4.721,2,4.954,4.544
				C69.979,298.365,70,298.186,70,298c0-2.762-2.238-5-5-5c-0.881,0-1.695,0.247-2.414,0.646C61.618,290.939,59.039,289,56,289
				c-3.866,0-7,3.134-7,7c0,0.146,0.02,0.287,0.028,0.432C49.318,292.832,52.326,290,56,290z"/>
			<path d="M49.924,300.468c-0.146-0.253-0.274-0.516-0.387-0.786C48.031,300.543,47,302.148,47,304
				c0,0.145,0.031,0.281,0.043,0.424C47.25,302.666,48.374,301.184,49.924,300.468z"/>
			<rect x="59" y="300" width="2" height="1"/>
			<path d="M68,299c0-0.184-0.021-0.361-0.055-0.536c-0.021,0.108-0.043,0.218-0.078,0.343c-0.1,0.352-0.094,0.707-0.008,1.039
				c0.004-0.013,0.004-0.025,0.008-0.039C67.958,299.484,68,299.229,68,299z"/>
			<path d="M51.66,299.475c0.089,0.155,0.146,0.321,0.19,0.491c0.13-0.503,0.068-1.038-0.19-1.491
				c-0.33-0.578-0.539-1.215-0.62-1.869C51.028,296.738,51,296.865,51,297C51,297.864,51.229,298.72,51.66,299.475z"/>
			<path d="M52,308h7v-1h-7c-1.486,0-2.714-1.088-2.95-2.508C49.02,304.658,49,304.828,49,305C49,306.654,50.346,308,52,308z"/>
		</g>
	</g>
</g>
</svg>
