<?xml version="1.0" encoding="utf-8"?>
<!-- Generator: Adobe Illustrator 16.0.4, SVG Export Plug-In . SVG Version: 6.00 Build 0)  -->
<!DOCTYPE svg PUBLIC "-//W3C//DTD SVG 1.1//EN" "http://www.w3.org/Graphics/SVG/1.1/DTD/svg11.dtd">
<svg version="1.1" xmlns="http://www.w3.org/2000/svg" xmlns:xlink="http://www.w3.org/1999/xlink" x="0px" y="0px" width="200px"
	 height="260px" viewBox="0 0 200 260" enable-background="new 0 0 200 260" xml:space="preserve">
<g id="Layer_1" display="none">
	<g id="zbi7Av_1_" display="inline">
		
			<image overflow="visible" width="180" height="239" id="zbi7Av" xlink:href="BA2734BBA17565C.jpg"  transform="matrix(1 0 0 1 10 11)">
		</image>
	</g>
</g>
<g id="Layer_2">
	<path d="M99.732,132.14c-1.964,0-3.95-0.12-5.909-0.355l-3.68-10.351c-0.085-0.237-0.281-0.419-0.524-0.483
		c-3.291-0.879-6.468-2.197-9.442-3.918c-0.118-0.069-0.251-0.104-0.385-0.104c-0.111,0-0.226,0.025-0.329,0.074l-9.926,4.719
		c-3.11-2.438-5.918-5.248-8.359-8.359l4.719-9.926c0.107-0.229,0.098-0.494-0.029-0.714c-1.721-2.972-3.038-6.149-3.917-9.441
		c-0.066-0.243-0.247-0.439-0.484-0.524l-10.351-3.682c-0.236-1.954-0.355-3.939-0.355-5.909c0-1.969,0.119-3.955,0.355-5.908
		l10.351-3.681c0.237-0.085,0.418-0.281,0.484-0.525c0.879-3.291,2.196-6.469,3.917-9.441c0.127-0.22,0.137-0.485,0.029-0.715
		l-4.719-9.924c2.441-3.111,5.249-5.92,8.359-8.36l9.926,4.718c0.104,0.05,0.218,0.075,0.329,0.075c0.134,0,0.267-0.034,0.385-0.104
		c2.634-1.523,5.433-2.733,8.332-3.602v24.366l-14.182,31.897c-0.388,0.873-0.309,1.872,0.212,2.674
		c0.521,0.801,1.402,1.279,2.357,1.279h45.674c0.954,0,1.836-0.479,2.356-1.279c0.521-0.802,0.6-1.801,0.212-2.674l-14.181-31.897
		V45.698c2.9,0.868,5.698,2.079,8.332,3.602c0.118,0.069,0.251,0.104,0.384,0.104c0.113,0,0.226-0.024,0.33-0.073l9.925-4.719
		c3.112,2.44,5.921,5.249,8.359,8.359l-4.718,9.925c-0.109,0.229-0.098,0.495,0.029,0.715c1.721,2.976,3.039,6.151,3.917,9.44
		c0.064,0.244,0.247,0.44,0.483,0.525l10.351,3.68c0.235,1.959,0.355,3.944,0.355,5.909s-0.12,3.951-0.355,5.91L138,92.756
		c-0.236,0.085-0.419,0.281-0.483,0.524c-0.879,3.293-2.196,6.47-3.917,9.441c-0.127,0.219-0.139,0.485-0.029,0.714l4.718,9.926
		c-2.438,3.109-5.247,5.918-8.359,8.359l-9.925-4.719c-0.104-0.049-0.217-0.074-0.33-0.074c-0.133,0-0.266,0.035-0.384,0.104
		c-2.974,1.721-6.149,3.038-9.442,3.916c-0.243,0.066-0.44,0.247-0.524,0.484l-3.68,10.352
		C103.684,132.02,101.698,132.14,99.732,132.14z"/>
	<circle fill="#D12F27" cx="95.582" cy="33.17" r="6.987"/>
	<polygon fill="#D12F27" points="108.146,70.661 108.146,45.591 91.32,45.591 91.32,70.661 76.896,103.104 122.57,103.104 	"/>
	<circle fill="#D12F27" cx="108.577" cy="25.311" r="4.528"/>
	<circle fill="#D12F27" cx="98.425" cy="14.481" r="3.37"/>
	<g>
		<g>
			<path fill="#959595" d="M14.487,225.121h2.174v-1.013c0-2.229,0.319-3.857,0.959-4.85c0.649-1.004,1.744-1.491,3.288-1.491
				c0.622,0,1.182,0.031,1.682,0.105c0.501,0.064,1.012,0.224,1.529,0.466l-0.637,2.208c-0.43-0.189-0.828-0.316-1.194-0.369
				c-0.37-0.062-0.718-0.096-1.054-0.096c-0.48,0-0.848,0.096-1.104,0.275c-0.267,0.189-0.462,0.496-0.592,0.897
				c-0.138,0.413-0.22,0.919-0.253,1.553c-0.035,0.634-0.053,1.395-0.053,2.313h3.714v2.316h-3.714v15.53h-2.571v-15.53h-2.174
				V225.121z"/>
			<path fill="#959595" d="M24.452,234.04c0-3.223,0.552-5.568,1.656-7.09c1.105-1.51,2.68-2.271,4.736-2.271
				c2.188,0,3.802,0.781,4.836,2.334c1.03,1.533,1.555,3.891,1.555,7.027c0,3.244-0.562,5.602-1.676,7.111
				c-1.128,1.5-2.699,2.241-4.715,2.241c-2.193,0-3.804-0.772-4.843-2.315C24.967,239.524,24.452,237.188,24.452,234.04z
				 M27.129,234.04c0,1.047,0.067,1.997,0.191,2.854c0.138,0.866,0.35,1.597,0.65,2.218c0.293,0.615,0.681,1.101,1.156,1.438
				c0.476,0.351,1.046,0.528,1.718,0.528c1.228,0,2.16-0.56,2.782-1.658c0.622-1.109,0.926-2.895,0.926-5.379
				c0-1.025-0.061-1.966-0.197-2.843c-0.131-0.865-0.339-1.605-0.643-2.229c-0.293-0.612-0.681-1.088-1.156-1.447
				c-0.484-0.339-1.043-0.509-1.712-0.509c-1.215,0-2.135,0.561-2.772,1.67C27.438,229.804,27.129,231.589,27.129,234.04z"/>
			<path fill="#959595" d="M40.48,225.121h1.818l0.46,1.892h0.113c0.33-0.696,0.77-1.235,1.307-1.637
				c0.526-0.38,1.176-0.581,1.94-0.581c0.549,0,1.162,0.105,1.854,0.326l-0.503,2.59c-0.615-0.211-1.164-0.316-1.638-0.316
				c-0.763,0-1.377,0.231-1.857,0.664c-0.472,0.444-0.783,1.025-0.927,1.776v13.133H40.48V225.121z"/>
			<path fill="#959595" d="M57.261,230.469c0-4.236,0.677-7.449,2.033-9.637c1.359-2.187,3.425-3.285,6.215-3.285
				c1.5,0,2.774,0.295,3.819,0.907c1.047,0.613,1.896,1.48,2.547,2.589c0.654,1.131,1.136,2.484,1.452,4.078
				c0.303,1.587,0.466,3.372,0.466,5.348c0,4.238-0.688,7.459-2.056,9.647c-1.368,2.187-3.449,3.276-6.229,3.276
				c-1.479,0-2.737-0.297-3.789-0.909c-1.046-0.603-1.896-1.469-2.566-2.578c-0.667-1.131-1.152-2.483-1.449-4.08
				C57.403,234.241,57.261,232.435,57.261,230.469z M60.082,230.469c0,1.406,0.096,2.736,0.302,3.993
				c0.201,1.27,0.511,2.38,0.951,3.329c0.417,0.951,0.987,1.712,1.674,2.282c0.693,0.581,1.518,0.857,2.5,0.857
				c1.785,0,3.138-0.857,4.072-2.568c0.919-1.723,1.391-4.353,1.391-7.894c0-1.385-0.106-2.704-0.308-3.963
				c-0.201-1.257-0.518-2.376-0.939-3.338c-0.434-0.963-0.994-1.733-1.681-2.292c-0.696-0.583-1.537-0.866-2.535-0.866
				c-1.759,0-3.112,0.866-4.031,2.565C60.548,224.299,60.082,226.918,60.082,230.469z"/>
			<path fill="#959595" d="M77.386,225.121h1.812l0.407,1.913h0.136c0.89-1.562,2.269-2.355,4.149-2.355
				c1.88,0,3.286,0.706,4.226,2.113c0.947,1.406,1.416,3.698,1.416,6.891c0,1.51-0.163,2.852-0.469,4.057
				c-0.302,1.204-0.745,2.219-1.327,3.063c-0.56,0.846-1.263,1.5-2.082,1.935c-0.818,0.433-1.728,0.655-2.73,0.655
				c-0.688,0-1.242-0.042-1.644-0.117c-0.406-0.083-0.846-0.265-1.321-0.518v7.355h-2.572V225.121z M79.958,240.139
				c0.333,0.295,0.708,0.516,1.126,0.687c0.418,0.158,0.972,0.252,1.658,0.252c1.263,0,2.262-0.644,2.996-1.933
				c0.739-1.279,1.104-3.107,1.104-5.484c0-1.015-0.059-1.924-0.19-2.737c-0.133-0.803-0.339-1.5-0.618-2.081
				c-0.296-0.582-0.65-1.025-1.1-1.352c-0.438-0.328-0.982-0.478-1.621-0.478c-1.738,0-2.854,1.046-3.355,3.17V240.139z"/>
			<path fill="#959595" d="M103.58,241.754c-0.57,0.519-1.3,0.92-2.177,1.214c-0.877,0.276-1.807,0.425-2.784,0.425
				c-1.115,0-2.091-0.223-2.905-0.655c-0.824-0.435-1.502-1.068-2.035-1.891c-0.544-0.826-0.936-1.808-1.184-2.949
				c-0.253-1.141-0.37-2.43-0.37-3.857c0-3.044,0.561-5.357,1.676-6.963c1.12-1.584,2.699-2.398,4.743-2.398
				c0.673,0,1.326,0.086,1.988,0.253c0.655,0.17,1.241,0.509,1.764,0.993c0.523,0.519,0.945,1.215,1.273,2.114
				c0.317,0.908,0.475,2.081,0.475,3.538c0,0.403-0.01,0.848-0.052,1.311c-0.036,0.456-0.079,0.94-0.122,1.438h-9.071
				c0,1.026,0.08,1.957,0.243,2.79c0.174,0.824,0.439,1.533,0.793,2.114c0.354,0.59,0.818,1.046,1.372,1.362
				c0.562,0.317,1.254,0.485,2.094,0.485c0.645,0,1.272-0.125,1.907-0.357c0.629-0.233,1.114-0.519,1.437-0.856L103.58,241.754z
				 M101.583,232.192c0.047-1.798-0.206-3.108-0.745-3.933c-0.554-0.834-1.3-1.247-2.251-1.247c-1.104,0-1.972,0.413-2.615,1.247
				c-0.639,0.824-1.015,2.135-1.141,3.933H101.583z"/>
			<path fill="#959595" d="M116.387,242.968v-10.881c0-1.798-0.2-3.087-0.624-3.889c-0.416-0.794-1.156-1.186-2.229-1.186
				c-0.952,0-1.743,0.276-2.356,0.847c-0.623,0.581-1.078,1.277-1.353,2.112v12.996h-2.58v-17.847h1.855l0.472,1.892h0.1
				c0.459-0.644,1.072-1.193,1.844-1.647c0.766-0.455,1.696-0.687,2.763-0.687c0.767,0,1.438,0.116,2.019,0.327
				c0.587,0.221,1.067,0.571,1.464,1.087c0.396,0.519,0.691,1.196,0.903,2.062c0.19,0.856,0.291,1.935,0.291,3.233v11.579H116.387z"
				/>
			<path fill="#959595" d="M122.796,239.642c0.443,0.316,1.088,0.603,1.901,0.876c0.824,0.274,1.755,0.413,2.807,0.413
				c1.324,0,2.413-0.317,3.249-0.973c0.834-0.666,1.252-1.679,1.252-3.107c0-0.919-0.243-1.721-0.72-2.419
				c-0.479-0.687-1.071-1.32-1.78-1.912c-0.724-0.57-1.49-1.153-2.308-1.702c-0.82-0.569-1.586-1.184-2.304-1.87
				c-0.709-0.665-1.306-1.447-1.781-2.336c-0.48-0.888-0.713-1.943-0.713-3.18c0-1.997,0.597-3.475,1.801-4.438
				c1.194-0.973,2.769-1.447,4.692-1.447c1.189,0,2.251,0.115,3.175,0.326c0.931,0.211,1.682,0.487,2.256,0.813l-0.865,2.356
				c-0.423-0.264-1.035-0.496-1.834-0.718c-0.799-0.2-1.718-0.315-2.764-0.315c-1.288,0-2.24,0.315-2.863,0.949
				c-0.612,0.624-0.92,1.426-0.92,2.377c0,0.835,0.233,1.564,0.708,2.21c0.481,0.644,1.078,1.246,1.787,1.817
				c0.713,0.57,1.483,1.151,2.308,1.733c0.813,0.58,1.582,1.235,2.294,1.942c0.723,0.719,1.315,1.532,1.785,2.43
				c0.481,0.9,0.724,1.966,0.724,3.214c0,2.092-0.622,3.729-1.864,4.923c-1.231,1.195-2.991,1.787-5.246,1.787
				c-1.428,0-2.594-0.127-3.52-0.392c-0.908-0.254-1.644-0.561-2.192-0.887L122.796,239.642z"/>
			<path fill="#959595" d="M135.777,225.121h2.176v-3.538l2.568-0.813v4.352h3.857v2.316h-3.857v10.64
				c0,1.046,0.127,1.808,0.38,2.26c0.243,0.466,0.656,0.698,1.23,0.698c0.471,0,0.883-0.052,1.232-0.157
				c0.348-0.106,0.718-0.254,1.12-0.413l0.501,2.04c-0.518,0.253-1.105,0.463-1.733,0.634c-0.623,0.148-1.289,0.212-1.97,0.212
				c-1.194,0-2.056-0.383-2.568-1.153c-0.502-0.77-0.761-2.027-0.761-3.772v-10.987h-2.176V225.121z"/>
			<path fill="#959595" d="M147.495,226.189c0.681-0.433,1.521-0.762,2.51-1.004c0.992-0.243,2.039-0.359,3.127-0.359
				c0.998,0,1.801,0.159,2.415,0.444c0.603,0.307,1.077,0.718,1.421,1.214c0.345,0.519,0.576,1.099,0.687,1.745
				c0.106,0.665,0.153,1.352,0.153,2.06c0,1.428-0.026,2.822-0.089,4.173c-0.064,1.363-0.09,2.653-0.09,3.87
				c0,0.897,0.025,1.741,0.09,2.515c0.062,0.771,0.18,1.5,0.337,2.188h-2.007l-0.63-2.104h-0.141
				c-0.354,0.622-0.867,1.162-1.554,1.615c-0.687,0.455-1.605,0.667-2.77,0.667c-1.272,0-2.313-0.443-3.132-1.332
				c-0.819-0.897-1.221-2.124-1.221-3.698c0-1.025,0.168-1.882,0.507-2.567c0.343-0.697,0.835-1.259,1.453-1.682
				c0.634-0.421,1.379-0.738,2.23-0.907c0.86-0.18,1.833-0.264,2.889-0.264c0.237,0,0.476,0,0.704,0c0.241,0,0.49,0.01,0.743,0.021
				c0.079-0.729,0.112-1.395,0.112-1.966c0-1.353-0.195-2.303-0.608-2.843c-0.396-0.549-1.126-0.823-2.192-0.823
				c-0.656,0-1.385,0.106-2.149,0.306c-0.782,0.191-1.433,0.456-1.939,0.772L147.495,226.189z M155.166,234.832
				c-0.237-0.031-0.464-0.053-0.701-0.062c-0.238-0.01-0.466-0.021-0.709-0.021c-0.565,0-1.12,0.053-1.659,0.148
				c-0.543,0.094-1.02,0.264-1.447,0.507c-0.417,0.242-0.756,0.549-0.999,0.951c-0.248,0.412-0.369,0.93-0.369,1.543
				c0,0.94,0.228,1.691,0.681,2.219c0.461,0.508,1.057,0.783,1.78,0.783c0.994,0,1.76-0.245,2.289-0.721
				c0.549-0.474,0.924-0.992,1.135-1.562V234.832z"/>
			<path fill="#959595" d="M171.544,242.07c-0.591,0.444-1.272,0.793-2.027,1.004c-0.767,0.213-1.569,0.318-2.41,0.318
				c-1.13,0-2.097-0.223-2.879-0.655c-0.787-0.435-1.422-1.068-1.912-1.891c-0.492-0.826-0.851-1.819-1.073-2.96
				c-0.228-1.164-0.343-2.452-0.343-3.847c0-3.044,0.543-5.357,1.632-6.963c1.078-1.584,2.632-2.398,4.659-2.398
				c0.931,0,1.729,0.086,2.383,0.253c0.667,0.17,1.247,0.391,1.723,0.646l-0.718,2.249c-0.951-0.547-1.986-0.813-3.102-0.813
				c-1.284,0-2.261,0.561-2.912,1.692c-0.654,1.13-0.987,2.916-0.987,5.335c0,0.984,0.079,1.892,0.217,2.749
				c0.148,0.865,0.375,1.595,0.718,2.229c0.328,0.644,0.757,1.141,1.28,1.5c0.533,0.382,1.183,0.56,1.965,0.56
				c0.623,0,1.2-0.105,1.728-0.317c0.544-0.211,0.978-0.476,1.314-0.749L171.544,242.07z"/>
			<path fill="#959595" d="M178.17,234.938h-1.357v8.03h-2.571v-24.989h2.571v15.217l1.173-0.519l4.179-7.556h2.963l-4.215,7.207
				l-1.241,1.141l1.463,1.385l4.603,8.114h-3.076L178.17,234.938z"/>
		</g>
		<g>
			<path fill="#959595" d="M187.146,221.308c0-0.528,0.085-0.993,0.26-1.404c0.174-0.392,0.406-0.729,0.707-1.015
				c0.296-0.286,0.64-0.488,1.042-0.634c0.384-0.14,0.808-0.212,1.245-0.212c0.455,0,0.889,0.072,1.29,0.212
				c0.392,0.146,0.74,0.348,1.031,0.634c0.293,0.285,0.522,0.623,0.701,1.015c0.164,0.411,0.254,0.876,0.254,1.404
				c0,0.519-0.09,1.004-0.264,1.405c-0.181,0.402-0.417,0.749-0.715,1.025c-0.295,0.286-0.633,0.485-1.029,0.634
				c-0.396,0.138-0.819,0.212-1.269,0.212c-0.454,0-0.892-0.074-1.277-0.212c-0.396-0.148-0.734-0.348-1.025-0.634
				c-0.292-0.276-0.534-0.623-0.698-1.025C187.231,222.312,187.146,221.826,187.146,221.308z M187.929,221.308
				c0,0.422,0.068,0.804,0.195,1.109c0.138,0.316,0.318,0.593,0.534,0.803c0.231,0.212,0.491,0.37,0.786,0.486
				c0.297,0.096,0.618,0.147,0.956,0.147c0.36,0,0.692-0.052,0.994-0.147c0.301-0.116,0.561-0.274,0.781-0.476
				c0.217-0.211,0.397-0.485,0.518-0.793c0.134-0.316,0.19-0.696,0.19-1.13c0-0.423-0.062-0.783-0.195-1.109
				c-0.126-0.308-0.312-0.571-0.533-0.781c-0.223-0.222-0.486-0.38-0.794-0.488c-0.3-0.094-0.617-0.146-0.961-0.146
				c-0.354,0-0.686,0.052-0.997,0.146c-0.296,0.108-0.556,0.267-0.777,0.488c-0.222,0.21-0.396,0.474-0.513,0.781
				C187.992,220.524,187.929,220.885,187.929,221.308z M189.132,219.712c0.128-0.031,0.318-0.062,0.562-0.095
				c0.242-0.021,0.46-0.032,0.682-0.032c0.332,0,0.629,0.074,0.881,0.213c0.245,0.146,0.371,0.4,0.371,0.749
				c0,0.264-0.085,0.466-0.243,0.603c-0.174,0.148-0.38,0.223-0.634,0.242l0.348,0.158l0.904,1.364h-0.755l-0.872-1.289l-0.604-0.19
				v1.479h-0.64V219.712z M190.231,220.146c-0.09,0-0.169,0-0.253,0c-0.09,0-0.159,0.032-0.207,0.053v0.877h0.429
				c0.497,0,0.745-0.168,0.745-0.497C190.945,220.283,190.702,220.146,190.231,220.146z"/>
		</g>
	</g>
	<g>
		<path fill="#D12F27" d="M46.009,155.759c1.855,0.3,2.934,1.379,3.235,3.236v3.912c-0.302,2.006-1.405,3.06-3.311,3.158H28.026
			c-1.003,0.1-1.556,0.655-1.655,1.656v9.706c0.1,1.003,0.652,1.529,1.655,1.58h11.362c1.854,0.25,2.883,1.277,3.083,3.083v4.063
			c-0.2,1.957-1.254,2.961-3.159,3.009H28.026c-1.003,0.149-1.556,0.73-1.655,1.731v8.353v9.778
			c-0.15,1.909-1.179,2.962-3.085,3.161H19.45c-1.806-0.099-2.811-1.026-3.01-2.784v-10.155v-0.979v-35.813v-3.537
			c0.049-1.754,0.928-2.808,2.633-3.159H46.009z"/>
		<path fill="#D12F27" d="M90.898,155.832c1.654,0.303,2.681,1.282,3.083,2.937v37.996c-0.149,2.759-0.903,5.341-2.257,7.748
			c-3.362,5.419-8.126,8.126-14.296,8.126c-6.168,0-10.937-2.707-14.294-8.126c-1.405-2.407-2.106-4.989-2.106-7.748v-37.996
			c0.25-1.704,1.253-2.684,3.01-2.937h3.91c1.907,0.303,2.937,1.382,3.086,3.236c0,12.592,0.024,25.156,0.075,37.696
			c0.151,3.86,2.206,5.865,6.169,6.016c4.113,0,6.294-1.979,6.547-5.942c0-12.539,0.023-25.129,0.074-37.77
			c0.151-1.854,1.179-2.934,3.085-3.236H90.898z"/>
		<path fill="#D12F27" d="M118.665,166.065c-0.953,0.15-1.479,0.677-1.58,1.58v10.157c0.15,0.903,0.677,1.405,1.58,1.505h11.359
			c1.908,0.15,2.961,1.183,3.161,3.087v3.911c-0.2,1.956-1.279,2.985-3.236,3.084h-11.284c-0.903,0.101-1.43,0.602-1.58,1.505v9.631
			c0.101,1.004,0.627,1.53,1.58,1.58h18.133c1.805,0.252,2.884,1.305,3.234,3.158v3.914c-0.351,1.907-1.479,2.91-3.384,3.009
			h-26.486c-1.856-0.049-2.859-1.026-3.009-2.934v-3.536v-43.262v-3.46c0.049-1.755,0.953-2.834,2.708-3.236h26.937
			c1.805,0.352,2.884,1.43,3.234,3.236v3.986c-0.351,1.907-1.479,2.932-3.384,3.084H118.665z"/>
		<path fill="#D12F27" d="M182.521,212.187h-26.934c-1.757-0.249-2.71-1.278-2.86-3.085v-3.385v-46.948
			c0.25-1.755,1.279-2.734,3.084-2.937h3.913c1.955,0.202,3.009,1.256,3.16,3.163V169v31.449c0.1,0.955,0.627,1.482,1.579,1.582
			h17.983c1.854,0.202,2.934,1.253,3.233,3.158v3.912C185.38,211.01,184.327,212.035,182.521,212.187z"/>
	</g>
</g>
</svg>
