<?xml version="1.0" encoding="utf-8"?>
<!-- Generator: Adobe Illustrator 16.0.4, SVG Export Plug-In . SVG Version: 6.00 Build 0)  -->
<!DOCTYPE svg PUBLIC "-//W3C//DTD SVG 1.1//EN" "http://www.w3.org/Graphics/SVG/1.1/DTD/svg11.dtd">
<svg version="1.1" id="Layer_1" xmlns="http://www.w3.org/2000/svg" xmlns:xlink="http://www.w3.org/1999/xlink" x="0px" y="0px"
	 width="98px" height="98px" viewBox="0 0 98 98" enable-background="new 0 0 98 98" xml:space="preserve">
<path fill="#FFFFFF" d="M97.498,43.062l-10.425-3.683c-0.236-0.085-0.455-0.282-0.52-0.526c-0.878-3.292-2.215-6.471-3.936-9.45
	c-0.061-0.104-0.101-0.221-0.108-0.337c0-0.114,0.015-0.228,0.064-0.334l4.716-9.935c-0.004-0.005-0.01-0.01-0.014-0.016
	l0.013-0.027c-2.438-3.114-5.248-5.925-8.36-8.368l-9.925,4.723c-0.104,0.049-0.217,0.073-0.33,0.073
	c-0.133,0-0.244-0.034-0.362-0.104C65.678,13.555,63,12.343,60,11.474v0.063c0-0.111-0.758-0.237-1.133-0.337
	c-0.242-0.064-0.449-0.246-0.534-0.484l-3.686-10.36C52.688,0.12,50.7,0,48.736,0c-1.966,0-3.952,0.12-5.912,0.356l-3.681,10.361
	c-0.084,0.238-0.036,0.418-0.279,0.485C38.491,11.302,38,11.428,38,11.539v-0.064c-3,0.869-5.944,2.08-8.578,3.605
	c-0.118,0.069-0.374,0.104-0.507,0.104c-0.111,0-0.287-0.025-0.391-0.075l-9.957-4.722c-3.11,2.443-5.934,5.254-8.375,8.369
	l0.006,0.027c-0.004,0.005-0.013,0.01-0.017,0.016l4.716,9.935c0.051,0.106,0.068,0.222,0.068,0.335
	c-0.008,0.116-0.038,0.231-0.098,0.335c-1.721,2.976-3.039,6.156-3.917,9.451c-0.066,0.244-0.247,0.441-0.484,0.526l-10.23,3.684
	C-0.001,45.019,0,47.007,0,48.978C0,48.985,0,48.992,0,49s0,0.015,0,0.022c0,1.967,0,3.954,0.235,5.915l10.291,3.684
	c0.236,0.085,0.389,0.281,0.454,0.525c0.878,3.292,2.181,6.472,3.902,9.45c0.061,0.104,0.083,0.22,0.09,0.337
	c0,0.113-0.021,0.229-0.071,0.334l-4.721,9.936c0.004,0.005,0.008,0.011,0.012,0.016l-0.014,0.027
	c2.438,3.113,5.247,5.925,8.359,8.368l9.925-4.724c0.104-0.049,0.217-0.073,0.33-0.073c0.133,0,0.512,0.034,0.63,0.104
	C32.056,84.444,35,85.657,38,86.526v-0.064c0,0.112,0.491,0.238,0.865,0.338c0.243,0.064,0.316,0.246,0.401,0.483l3.618,10.361
	C44.844,97.88,46.799,98,48.763,98c1.965,0,3.936-0.12,5.896-0.355l3.672-10.362c0.084-0.237,0.299-0.418,0.542-0.484
	c0.373-0.1,1.127-0.225,1.127-0.337v0.065c3-0.869,5.677-2.081,8.311-3.605c0.118-0.069,0.24-0.104,0.374-0.104
	c0.111,0,0.22,0.025,0.323,0.075l9.924,4.723c3.11-2.443,5.916-5.255,8.357-8.369l-0.013-0.027c0.004-0.005,0.008-0.011,0.012-0.016
	l-4.718-9.936c-0.051-0.106-0.069-0.221-0.068-0.335c0.007-0.116,0.037-0.231,0.097-0.335c1.721-2.976,3.038-6.157,3.917-9.451
	c0.066-0.244,0.247-0.44,0.484-0.525l10.498-3.685C97.734,52.981,98,50.993,98,49.022c0-0.008,0-0.015,0-0.022s0-0.015,0-0.022
	C98,47.011,97.732,45.023,97.498,43.062z"/>
</svg>
