<?xml version="1.0" encoding="utf-8"?>
<!-- Generator: Adobe Illustrator 16.0.4, SVG Export Plug-In . SVG Version: 6.00 Build 0)  -->
<!DOCTYPE svg PUBLIC "-//W3C//DTD SVG 1.1//EN" "http://www.w3.org/Graphics/SVG/1.1/DTD/svg11.dtd">
<svg version="1.1" id="Layer_1" xmlns="http://www.w3.org/2000/svg" xmlns:xlink="http://www.w3.org/1999/xlink" x="0px" y="0px"
	 width="98px" height="98px" viewBox="0 0 98 98" enable-background="new 0 0 98 98" xml:space="preserve">
<path fill="#415766" d="M79.271,36.387c-0.006-0.005-0.015-0.01-0.021-0.015l1.052-0.543c0,0-7.029-5.242-15.771-8.287L70.051,20
	H27.447l5.657,7.727c-8.439,2.993-15.26,8.305-15.26,8.305l3.488,1.804l7.17,3.755c0.104,0.055,0.219,0.083,0.331,0.083
	c0.068,0,0.13-0.04,0.196-0.06c2.789-1.803,5.8-3.227,8.971-4.234v2.48v4v18.064L23.572,93.822c-0.387,0.873-0.431,1.984,0.09,2.785
	S24.941,98,25.896,98H71.57c0.953,0,1.836-0.592,2.354-1.393c0.521-0.801,0.62-1.855,0.233-2.729L60,61.925V43.86v-4v-2.37
	c0.225,0.073,0.445,0.151,0.669,0.229c0.384,0.13,0.767,0.262,1.146,0.403c2.371,0.919,4.643,2.077,6.781,3.455
	c0.104,0.054,0.213,0.097,0.324,0.097c0.114,0,0.229-0.028,0.332-0.081l7.268-3.809l1.472-0.761l1.237-0.628l0.041,0.021
	c-0.014-0.011-0.025-0.022-0.041-0.033l0.02-0.009L79.271,36.387z"/>
<circle fill="#DA3C3B" cx="44.682" cy="25.03" r="6.987"/>
<polygon fill="#DA3C3B" points="57.486,62.521 57.486,37.451 40.661,37.451 40.661,62.521 26.237,94.964 71.91,94.964 "/>
<circle fill="#DA3C3B" cx="57.676" cy="17.171" r="4.527"/>
<circle fill="#DA3C3B" cx="47.525" cy="6.342" r="3.37"/>
</svg>
