<?xml version="1.0" encoding="utf-8"?>
<!-- Generator: Adobe Illustrator 15.1.0, SVG Export Plug-In . SVG Version: 6.00 Build 0)  -->
<!DOCTYPE svg PUBLIC "-//W3C//DTD SVG 1.1//EN" "http://www.w3.org/Graphics/SVG/1.1/DTD/svg11.dtd">
<svg version="1.1" id="Layer_1" xmlns="http://www.w3.org/2000/svg" xmlns:xlink="http://www.w3.org/1999/xlink" x="0px" y="0px"
	 width="360px" height="160px" viewBox="0 0 360 160" enable-background="new 0 0 360 160" xml:space="preserve">
<g>
	<path d="M94.336,125.961c-1.749,0-3.518-0.107-5.263-0.317l-3.278-9.218c-0.075-0.212-0.25-0.374-0.467-0.432
		c-2.931-0.782-5.76-1.957-8.409-3.489c-0.106-0.062-0.225-0.093-0.343-0.093c-0.1,0-0.201,0.022-0.292,0.066l-8.841,4.202
		c-2.771-2.172-5.271-4.675-7.446-7.445l4.203-8.841c0.096-0.203,0.087-0.439-0.026-0.636c-1.533-2.646-2.706-5.477-3.489-8.409
		c-0.059-0.216-0.22-0.392-0.431-0.467l-9.219-3.278c-0.21-1.741-0.316-3.509-0.316-5.265c0-1.753,0.106-3.521,0.316-5.262
		l9.219-3.278c0.211-0.076,0.373-0.25,0.431-0.468c0.783-2.931,1.956-5.761,3.489-8.409c0.113-0.196,0.122-0.432,0.026-0.637
		l-4.203-8.838c2.175-2.772,4.675-5.273,7.446-7.447l8.841,4.202c0.091,0.045,0.193,0.067,0.292,0.067
		c0.119,0,0.237-0.03,0.343-0.092c2.345-1.356,4.838-2.434,7.421-3.208v21.702l-12.631,28.41c-0.345,0.777-0.275,1.667,0.189,2.382
		c0.464,0.714,1.249,1.14,2.1,1.14h40.679c0.85,0,1.636-0.426,2.1-1.14c0.464-0.715,0.534-1.604,0.189-2.382l-12.63-28.41V48.97
		c2.583,0.773,5.075,1.852,7.421,3.208c0.105,0.062,0.224,0.092,0.342,0.092c0.101,0,0.2-0.022,0.293-0.065l8.84-4.203
		c2.772,2.174,5.273,4.675,7.445,7.446l-4.202,8.839c-0.097,0.204-0.087,0.441,0.026,0.637c1.533,2.649,2.707,5.478,3.489,8.407
		c0.058,0.218,0.22,0.392,0.431,0.468l9.218,3.277c0.21,1.745,0.317,3.514,0.317,5.263c0,1.75-0.107,3.521-0.317,5.266l-9.218,3.277
		c-0.211,0.075-0.374,0.251-0.431,0.467c-0.783,2.934-1.956,5.763-3.489,8.409c-0.113,0.195-0.124,0.433-0.026,0.636l4.202,8.841
		c-2.172,2.77-4.673,5.271-7.445,7.445l-8.84-4.202c-0.093-0.044-0.193-0.066-0.293-0.066c-0.119,0-0.237,0.03-0.342,0.093
		c-2.649,1.532-5.478,2.706-8.41,3.488c-0.216,0.059-0.393,0.22-0.467,0.432l-3.277,9.219
		C97.855,125.854,96.087,125.961,94.336,125.961z"/>
	<circle fill="#D12F27" cx="90.64" cy="37.812" r="6.223"/>
	<polygon fill="#D12F27" points="101.831,71.204 101.831,48.875 86.844,48.875 86.844,71.204 73.998,100.099 114.677,100.099 	"/>
	<circle fill="#D12F27" cx="102.214" cy="30.812" r="4.033"/>
	<circle fill="#D12F27" cx="93.172" cy="21.167" r="3.001"/>
	<g>
		<g>
			<path fill="#666666" d="M151.121,109.912h1.936v-0.902c0-1.985,0.284-3.435,0.854-4.318c0.578-0.896,1.554-1.328,2.928-1.328
				c0.555,0,1.054,0.027,1.499,0.093c0.446,0.058,0.901,0.199,1.362,0.416l-0.567,1.966c-0.383-0.169-0.737-0.282-1.063-0.328
				c-0.33-0.056-0.64-0.086-0.939-0.086c-0.427,0-0.754,0.086-0.983,0.245c-0.238,0.169-0.411,0.442-0.528,0.8
				c-0.123,0.368-0.195,0.818-0.225,1.383c-0.031,0.564-0.047,1.242-0.047,2.061h3.308v2.062h-3.308v13.833h-2.291v-13.833h-1.936
				V109.912z"/>
			<path fill="#666666" d="M159.996,117.855c0-2.869,0.491-4.959,1.475-6.313c0.984-1.346,2.387-2.023,4.219-2.023
				c1.947,0,3.386,0.695,4.307,2.078c0.917,1.365,1.385,3.466,1.385,6.259c0,2.89-0.501,4.99-1.493,6.334
				c-1.005,1.336-2.403,1.997-4.199,1.997c-1.954,0-3.388-0.688-4.313-2.063C160.455,122.74,159.996,120.66,159.996,117.855z
				 M162.38,117.855c0,0.933,0.06,1.779,0.171,2.542c0.123,0.771,0.311,1.422,0.579,1.975c0.26,0.549,0.606,0.981,1.029,1.281
				c0.424,0.312,0.932,0.47,1.531,0.47c1.093,0,1.923-0.498,2.477-1.477c0.555-0.987,0.825-2.578,0.825-4.791
				c0-0.913-0.053-1.75-0.175-2.531c-0.116-0.771-0.302-1.431-0.573-1.985c-0.26-0.545-0.606-0.969-1.029-1.288
				c-0.431-0.303-0.929-0.454-1.524-0.454c-1.083,0-1.902,0.5-2.47,1.487C162.656,114.083,162.38,115.673,162.38,117.855z"/>
			<path fill="#666666" d="M174.271,109.912h1.62l0.409,1.685h0.102c0.294-0.619,0.685-1.101,1.164-1.458
				c0.469-0.338,1.047-0.518,1.728-0.518c0.489,0,1.035,0.095,1.651,0.291l-0.448,2.308c-0.548-0.189-1.037-0.282-1.458-0.282
				c-0.679,0-1.227,0.205-1.655,0.592c-0.419,0.396-0.697,0.912-0.825,1.582v11.696h-2.288V109.912z"/>
			<path fill="#666666" d="M189.217,114.676c0-3.774,0.604-6.636,1.812-8.584c1.211-1.947,3.05-2.926,5.535-2.926
				c1.336,0,2.471,0.263,3.401,0.808c0.934,0.547,1.689,1.319,2.269,2.307c0.584,1.007,1.012,2.212,1.294,3.632
				c0.27,1.413,0.414,3.004,0.414,4.764c0,3.774-0.611,6.644-1.83,8.592s-3.072,2.919-5.548,2.919c-1.317,0-2.438-0.265-3.375-0.811
				c-0.931-0.537-1.689-1.308-2.285-2.296c-0.595-1.008-1.027-2.212-1.292-3.634C189.344,118.035,189.217,116.426,189.217,114.676z
				 M191.73,114.676c0,1.251,0.085,2.438,0.269,3.556c0.179,1.131,0.455,2.12,0.848,2.966c0.371,0.847,0.879,1.524,1.49,2.032
				c0.617,0.518,1.352,0.764,2.227,0.764c1.59,0,2.794-0.764,3.627-2.287c0.818-1.535,1.238-3.877,1.238-7.03
				c0-1.234-0.095-2.409-0.273-3.53c-0.18-1.119-0.461-2.116-0.837-2.973c-0.386-0.857-0.885-1.544-1.497-2.042
				c-0.62-0.52-1.369-0.771-2.258-0.771c-1.566,0-2.771,0.771-3.59,2.285C192.145,109.18,191.73,111.512,191.73,114.676z"/>
			<path fill="#666666" d="M207.142,109.912h1.614l0.362,1.704h0.121c0.792-1.392,2.021-2.098,3.695-2.098s2.927,0.629,3.764,1.881
				c0.845,1.253,1.261,3.295,1.261,6.139c0,1.345-0.145,2.54-0.416,3.613c-0.271,1.072-0.665,1.976-1.183,2.728
				c-0.499,0.754-1.125,1.337-1.854,1.723c-0.729,0.387-1.539,0.585-2.432,0.585c-0.613,0-1.107-0.038-1.465-0.105
				c-0.361-0.073-0.752-0.234-1.176-0.46v6.551h-2.292V109.912z M209.434,123.287c0.296,0.264,0.63,0.46,1.003,0.612
				c0.371,0.142,0.864,0.224,1.476,0.224c1.125,0,2.015-0.572,2.67-1.72c0.657-1.14,0.982-2.769,0.982-4.886
				c0-0.904-0.052-1.713-0.169-2.438c-0.118-0.714-0.302-1.335-0.551-1.853c-0.263-0.52-0.579-0.914-0.979-1.204
				c-0.39-0.292-0.875-0.426-1.444-0.426c-1.547,0-2.541,0.933-2.987,2.824V123.287z"/>
			<path fill="#666666" d="M230.473,124.727c-0.509,0.462-1.158,0.819-1.938,1.081c-0.782,0.246-1.609,0.379-2.48,0.379
				c-0.994,0-1.862-0.198-2.588-0.585c-0.734-0.386-1.337-0.951-1.812-1.684c-0.483-0.735-0.833-1.609-1.055-2.626
				c-0.225-1.016-0.329-2.165-0.329-3.437c0-2.711,0.499-4.771,1.493-6.2c0.997-1.411,2.403-2.137,4.224-2.137
				c0.601,0,1.182,0.075,1.771,0.225c0.584,0.151,1.105,0.453,1.57,0.885c0.467,0.463,0.843,1.083,1.134,1.883
				c0.284,0.81,0.423,1.854,0.423,3.152c0,0.358-0.008,0.754-0.046,1.166c-0.031,0.406-0.07,0.838-0.108,1.28h-8.079
				c0,0.915,0.071,1.744,0.217,2.485c0.154,0.734,0.392,1.365,0.706,1.884c0.314,0.524,0.729,0.932,1.222,1.213
				c0.5,0.283,1.117,0.432,1.865,0.432c0.574,0,1.133-0.11,1.698-0.317c0.561-0.208,0.993-0.463,1.279-0.763L230.473,124.727z
				 M228.693,116.211c0.042-1.602-0.184-2.77-0.663-3.504c-0.493-0.741-1.158-1.11-2.005-1.11c-0.984,0-1.757,0.369-2.329,1.11
				c-0.569,0.734-0.904,1.902-1.016,3.504H228.693z"/>
			<path fill="#666666" d="M241.879,125.808v-9.691c0-1.602-0.179-2.749-0.557-3.464c-0.37-0.707-1.029-1.056-1.983-1.056
				c-0.849,0-1.553,0.246-2.1,0.755c-0.556,0.518-0.96,1.138-1.205,1.881v11.575h-2.297v-15.896h1.652l0.419,1.685h0.09
				c0.409-0.573,0.954-1.062,1.642-1.468c0.683-0.404,1.511-0.61,2.461-0.61c0.683,0,1.28,0.103,1.798,0.291
				c0.522,0.197,0.951,0.509,1.303,0.968c0.354,0.462,0.616,1.065,0.806,1.838c0.17,0.763,0.259,1.723,0.259,2.88v10.312H241.879z"
				/>
			<path fill="#666666" d="M247.587,122.846c0.395,0.281,0.969,0.536,1.694,0.779c0.734,0.244,1.562,0.368,2.499,0.368
				c1.18,0,2.149-0.283,2.895-0.866c0.743-0.593,1.114-1.495,1.114-2.768c0-0.818-0.216-1.532-0.642-2.154
				c-0.427-0.611-0.953-1.176-1.585-1.703c-0.645-0.509-1.327-1.027-2.056-1.516c-0.729-0.508-1.412-1.055-2.051-1.666
				c-0.632-0.592-1.164-1.29-1.588-2.081c-0.427-0.79-0.635-1.731-0.635-2.832c0-1.778,0.532-3.095,1.604-3.952
				c1.064-0.866,2.466-1.289,4.179-1.289c1.06,0,2.006,0.103,2.828,0.29c0.829,0.188,1.498,0.435,2.009,0.726l-0.77,2.099
				c-0.377-0.235-0.923-0.442-1.634-0.64c-0.712-0.178-1.53-0.281-2.462-0.281c-1.146,0-1.995,0.281-2.55,0.846
				c-0.546,0.557-0.82,1.27-0.82,2.117c0,0.743,0.209,1.394,0.631,1.969c0.43,0.572,0.961,1.108,1.593,1.618
				c0.635,0.509,1.321,1.025,2.055,1.544c0.725,0.517,1.409,1.101,2.044,1.73c0.643,0.64,1.171,1.364,1.589,2.163
				c0.43,0.803,0.645,1.751,0.645,2.863c0,1.862-0.554,3.322-1.66,4.385c-1.096,1.063-2.664,1.592-4.672,1.592
				c-1.271,0-2.311-0.113-3.135-0.35c-0.81-0.226-1.464-0.499-1.953-0.789L247.587,122.846z"/>
			<path fill="#666666" d="M259.149,109.912h1.938v-3.15l2.287-0.726v3.876h3.436v2.062h-3.436v9.477
				c0,0.932,0.113,1.61,0.339,2.014c0.216,0.414,0.584,0.621,1.095,0.621c0.42,0,0.786-0.045,1.098-0.14
				c0.31-0.095,0.641-0.227,0.998-0.368l0.445,1.817c-0.46,0.226-0.983,0.412-1.543,0.564c-0.555,0.132-1.147,0.188-1.754,0.188
				c-1.064,0-1.831-0.341-2.287-1.027c-0.448-0.685-0.678-1.806-0.678-3.359v-9.787h-1.938V109.912z"/>
			<path fill="#666666" d="M269.586,110.863c0.606-0.385,1.355-0.679,2.234-0.894c0.885-0.217,1.816-0.32,2.786-0.32
				c0.889,0,1.604,0.142,2.15,0.396c0.537,0.273,0.96,0.64,1.266,1.081c0.308,0.463,0.513,0.979,0.611,1.555
				c0.095,0.592,0.137,1.204,0.137,1.834c0,1.271-0.023,2.515-0.078,3.717c-0.059,1.215-0.081,2.363-0.081,3.447
				c0,0.8,0.022,1.551,0.081,2.239c0.055,0.688,0.159,1.337,0.3,1.948h-1.788l-0.562-1.873h-0.125
				c-0.315,0.555-0.771,1.035-1.384,1.438c-0.611,0.405-1.43,0.594-2.467,0.594c-1.133,0-2.061-0.395-2.789-1.187
				c-0.729-0.798-1.087-1.892-1.087-3.293c0-0.914,0.149-1.677,0.451-2.286c0.306-0.621,0.743-1.122,1.294-1.499
				c0.564-0.374,1.229-0.657,1.987-0.808c0.767-0.16,1.633-0.234,2.573-0.234c0.211,0,0.423,0,0.626,0
				c0.215,0,0.438,0.008,0.662,0.018c0.07-0.648,0.101-1.241,0.101-1.75c0-1.206-0.174-2.052-0.542-2.533
				c-0.353-0.487-1.003-0.732-1.953-0.732c-0.584,0-1.233,0.095-1.914,0.272c-0.697,0.17-1.276,0.405-1.728,0.688L269.586,110.863z
				 M276.418,118.562c-0.212-0.028-0.413-0.047-0.624-0.056c-0.213-0.009-0.415-0.02-0.632-0.02c-0.503,0-0.997,0.047-1.478,0.132
				c-0.484,0.084-0.908,0.235-1.289,0.452c-0.371,0.216-0.674,0.489-0.89,0.847c-0.222,0.367-0.329,0.828-0.329,1.375
				c0,0.837,0.202,1.507,0.606,1.976c0.41,0.452,0.94,0.697,1.585,0.697c0.886,0,1.567-0.218,2.039-0.642
				c0.488-0.422,0.823-0.884,1.011-1.392V118.562z"/>
			<path fill="#666666" d="M291.005,125.008c-0.526,0.396-1.133,0.706-1.806,0.895c-0.683,0.189-1.397,0.284-2.146,0.284
				c-1.006,0-1.867-0.198-2.564-0.585c-0.7-0.386-1.266-0.951-1.702-1.684c-0.438-0.735-0.758-1.62-0.956-2.636
				c-0.202-1.036-0.306-2.185-0.306-3.427c0-2.711,0.484-4.771,1.453-6.2c0.96-1.411,2.345-2.137,4.15-2.137
				c0.828,0,1.54,0.075,2.122,0.225c0.594,0.151,1.111,0.349,1.534,0.575l-0.64,2.003c-0.847-0.487-1.769-0.725-2.762-0.725
				c-1.144,0-2.014,0.5-2.594,1.508c-0.583,1.007-0.88,2.597-0.88,4.751c0,0.877,0.07,1.686,0.193,2.449
				c0.132,0.77,0.334,1.42,0.639,1.984c0.293,0.573,0.675,1.016,1.141,1.336c0.476,0.34,1.054,0.498,1.75,0.498
				c0.556,0,1.069-0.093,1.539-0.281c0.484-0.188,0.87-0.425,1.17-0.668L291.005,125.008z"/>
			<path fill="#666666" d="M296.907,118.655h-1.21v7.152h-2.289v-22.257h2.289v13.553l1.045-0.462l3.722-6.729h2.64l-3.754,6.419
				l-1.105,1.016l1.303,1.234l4.1,7.227h-2.74L296.907,118.655z"/>
		</g>
		<g>
			<path fill="#666666" d="M304.902,106.516c0-0.471,0.075-0.884,0.23-1.25c0.155-0.35,0.362-0.651,0.631-0.905
				c0.263-0.255,0.569-0.434,0.927-0.564c0.343-0.123,0.72-0.188,1.109-0.188c0.405,0,0.792,0.065,1.149,0.188
				c0.349,0.131,0.659,0.31,0.919,0.564c0.26,0.254,0.465,0.556,0.624,0.905c0.146,0.366,0.227,0.779,0.227,1.25
				c0,0.462-0.081,0.895-0.235,1.252c-0.161,0.357-0.371,0.667-0.637,0.913c-0.263,0.255-0.563,0.432-0.917,0.564
				c-0.353,0.122-0.729,0.188-1.13,0.188c-0.404,0-0.794-0.066-1.138-0.188c-0.354-0.133-0.654-0.31-0.913-0.564
				c-0.26-0.246-0.476-0.556-0.621-0.913C304.978,107.41,304.902,106.978,304.902,106.516z M305.599,106.516
				c0,0.376,0.061,0.716,0.174,0.988c0.123,0.281,0.283,0.528,0.476,0.715c0.207,0.188,0.438,0.329,0.701,0.434
				c0.264,0.085,0.55,0.131,0.851,0.131c0.321,0,0.617-0.046,0.886-0.131c0.268-0.104,0.499-0.245,0.695-0.424
				c0.193-0.188,0.354-0.433,0.462-0.706c0.118-0.282,0.169-0.62,0.169-1.007c0-0.376-0.056-0.697-0.173-0.988
				c-0.112-0.273-0.278-0.509-0.476-0.695c-0.198-0.197-0.434-0.339-0.707-0.436c-0.268-0.083-0.55-0.129-0.856-0.129
				c-0.314,0-0.61,0.046-0.888,0.129c-0.264,0.097-0.495,0.238-0.692,0.436c-0.197,0.187-0.354,0.422-0.456,0.695
				C305.655,105.818,305.599,106.14,305.599,106.516z M306.67,105.094c0.114-0.026,0.284-0.055,0.5-0.083
				c0.217-0.02,0.409-0.03,0.607-0.03c0.295,0,0.56,0.066,0.784,0.19c0.219,0.13,0.331,0.356,0.331,0.667
				c0,0.235-0.076,0.415-0.217,0.537c-0.155,0.133-0.339,0.197-0.564,0.216l0.31,0.14l0.806,1.217h-0.672l-0.777-1.149l-0.538-0.169
				v1.318h-0.569V105.094z M307.649,105.48c-0.08,0-0.15,0-0.226,0c-0.079,0-0.142,0.029-0.185,0.047v0.781h0.382
				c0.443,0,0.664-0.149,0.664-0.442C308.285,105.604,308.068,105.48,307.649,105.48z"/>
		</g>
	</g>
	<g>
		<path fill="#D12F27" d="M179.195,48.133c1.652,0.268,2.613,1.229,2.882,2.883v3.484c-0.269,1.787-1.251,2.725-2.949,2.812h-15.949
			c-0.893,0.088-1.386,0.583-1.474,1.476v8.644c0.088,0.894,0.582,1.362,1.474,1.408h10.12c1.651,0.222,2.568,1.137,2.747,2.746
			v3.619c-0.178,1.743-1.117,2.638-2.814,2.68h-10.052c-0.893,0.133-1.386,0.65-1.474,1.542v7.439v8.709
			c-0.134,1.7-1.05,2.639-2.748,2.815h-3.417c-1.608-0.088-2.503-0.913-2.681-2.48v-9.044v-0.871V54.098v-3.15
			c0.043-1.562,0.826-2.5,2.345-2.814H179.195z"/>
		<path fill="#D12F27" d="M219.177,48.199c1.474,0.27,2.389,1.142,2.746,2.615v33.842c-0.133,2.457-0.805,4.757-2.01,6.901
			c-2.995,4.826-7.238,7.237-12.732,7.237s-9.741-2.411-12.731-7.237c-1.251-2.145-1.877-4.444-1.877-6.901V50.814
			c0.224-1.517,1.116-2.39,2.681-2.615h3.483c1.699,0.27,2.616,1.231,2.748,2.882c0,11.215,0.022,22.406,0.067,33.575
			c0.135,3.438,1.965,5.224,5.494,5.357c3.664,0,5.606-1.763,5.832-5.293c0-11.167,0.021-22.38,0.065-33.639
			c0.135-1.651,1.05-2.613,2.747-2.882H219.177z"/>
		<path fill="#D12F27" d="M243.908,57.313c-0.85,0.133-1.318,0.603-1.407,1.407v9.047c0.133,0.804,0.603,1.25,1.407,1.34h10.117
			c1.699,0.134,2.638,1.053,2.816,2.749v3.484c-0.179,1.742-1.14,2.659-2.884,2.747h-10.05c-0.805,0.089-1.274,0.535-1.407,1.34
			v8.578c0.089,0.894,0.558,1.363,1.407,1.407h16.15c1.607,0.225,2.568,1.162,2.881,2.812v3.486
			c-0.312,1.699-1.318,2.592-3.015,2.68h-23.59c-1.653-0.044-2.547-0.913-2.68-2.612V92.63V54.098v-3.081
			c0.043-1.563,0.849-2.524,2.412-2.883h23.991c1.607,0.313,2.568,1.273,2.881,2.883v3.55c-0.312,1.699-1.318,2.61-3.015,2.747
			H243.908z"/>
		<path fill="#D12F27" d="M300.782,98.392h-23.989c-1.564-0.221-2.413-1.138-2.548-2.747V92.63V50.814
			c0.223-1.562,1.14-2.435,2.747-2.615h3.485c1.741,0.18,2.68,1.119,2.814,2.817v8.911v28.01c0.089,0.852,0.559,1.321,1.406,1.409
			h16.018c1.651,0.181,2.612,1.116,2.88,2.813v3.484C303.328,97.344,302.392,98.257,300.782,98.392z"/>
	</g>
</g>
</svg>
