<?xml version="1.0" encoding="utf-8"?>
<!-- Generator: Adobe Illustrator 15.1.0, SVG Export Plug-In . SVG Version: 6.00 Build 0)  -->
<!DOCTYPE svg PUBLIC "-//W3C//DTD SVG 1.1//EN" "http://www.w3.org/Graphics/SVG/1.1/DTD/svg11.dtd">
<svg version="1.1" id="Layer_1" xmlns="http://www.w3.org/2000/svg" xmlns:xlink="http://www.w3.org/1999/xlink" x="0px" y="0px"
	 width="360px" height="160px" viewBox="0 0 360 160" enable-background="new 0 0 360 160" xml:space="preserve">
<g>
	<path d="M49.719,74.497c18.837-23.781,51.231-22.385,61.247-9.976c-5.98-3.964-14.783-6.989-21.67-5.997
		c10.863,1.357,14.32,6.374,15.987,8.728c-3.776-2.669-13.355-8.518-23.098-6.739c6.842,0.843,14.704,4.073,17.929,9.807
		c-5.51-4.077-14.731-9.282-23.486-7.269c7.544,1.024,15.127,4.256,18.518,10.505C89.046,69.281,67.029,60.421,49.719,74.497z"/>
	<path d="M159.778,68.398c-18.818,23.832-51.978,22.215-61.993,9.8c5.982,3.972,17.248,8.458,24.029,6.987
		c-10.697-1.835-16.733-7.346-18.347-9.716c3.72,2.687,13.465,8.778,23.208,7c-6.843-0.843-14.811-4.333-18.092-10.048
		c5.509,4.069,14.948,9.504,23.71,7.548c-7.55-1.077-15.3-4.558-18.744-10.79C119.706,73.442,142.484,82.525,159.778,68.398z"/>
	<path fill-rule="evenodd" clip-rule="evenodd" fill="#DF0C00" d="M140.969,55.682l0.318,2.218
		c-7.452,0.043-14.604,1.228-21.439,3.496c-5.71,1.915-12.109,4.973-19.198,9.212c-8.873,5.418-15.03,8.884-18.397,10.473
		c-7.249,3.427-14.584,5.379-22.031,5.832c8.583,0.326,16.731-0.776,24.545-3.344c5.753-1.912,12.234-5.017,19.403-9.336
		c7.861-4.645,13.938-7.908,18.235-9.825c6.174-2.667,12.471-4.67,18.954-5.996l0.321,2.201l7.026-3.544L140.969,55.682z"/>
	<polygon points="61.281,92.822 63.199,92.822 65.376,103.701 67.53,92.822 69.354,92.822 70.717,108.516 68.751,108.516 
		68.132,97.486 66.022,108.516 64.586,108.516 62.526,97.486 61.879,108.516 59.959,108.516 	"/>
	<rect x="75.87" y="92.822" width="2.157" height="15.693"/>
	<path d="M85.378,99.659c0.881,0,1.594-0.118,2.148-0.372c0.546-0.248,0.828-0.908,0.849-1.981v-0.288
		c0-1.107-0.237-1.771-0.722-1.994c-0.478-0.229-1.233-0.34-2.274-0.34V99.659z M85.378,108.516h-2.134V92.812h2.567
		c1.438,0,2.578,0.264,3.426,0.803c0.849,0.539,1.268,1.612,1.268,3.209c0,1.088-0.215,1.977-0.634,2.662
		c-0.426,0.688-1.195,1.113-2.309,1.295l3.735,7.734h-2.301l-3.566-7.633h-0.051V108.516z"/>
	<path d="M99.705,96.869l-1.438,6.777h2.849L99.705,96.869z M98.698,92.812h1.989l3.638,15.703h-2.081l-0.79-3.121h-3.571
		l-0.742,3.121h-2.135L98.698,92.812z"/>
	<polygon points="109.693,92.822 111.683,92.822 115.854,103.701 115.854,92.822 117.816,92.822 117.816,108.516 115.854,108.516 
		111.734,97.521 111.734,108.516 109.693,108.516 	"/>
	<polygon points="125.6,94.765 122.729,94.765 122.729,92.812 130.636,92.812 130.636,94.765 127.735,94.765 127.735,108.516 
		125.6,108.516 	"/>
	<rect x="134.93" y="92.822" width="2.154" height="15.693"/>
	<path d="M142.084,105.863c0.067,0.027,0.129,0.062,0.192,0.092c0.225,0.131,0.468,0.25,0.718,0.361
		c0.258,0.115,0.52,0.209,0.793,0.294c0.141,0.024,0.287,0.054,0.443,0.081c0.151,0.02,0.299,0.033,0.44,0.033h0.222
		c0.315-0.033,0.62-0.139,0.907-0.322c0.289-0.187,0.5-0.463,0.647-0.826c0.05-0.082,0.083-0.16,0.107-0.245
		c0.021-0.081,0.043-0.165,0.063-0.262c0-0.079,0.003-0.16,0.007-0.241c0.01-0.076,0.015-0.159,0.015-0.235
		c0-0.56-0.192-1.079-0.563-1.552c-0.376-0.467-0.795-0.904-1.266-1.305c-0.154-0.128-0.309-0.253-0.447-0.371
		c-0.143-0.121-0.291-0.236-0.435-0.355c-0.53-0.443-1.005-0.936-1.439-1.479c-0.431-0.547-0.716-1.18-0.857-1.899
		c0-0.06-0.011-0.123-0.022-0.194c-0.024-0.057-0.024-0.125-0.024-0.188c-0.019,0-0.029-0.008-0.029-0.022v-0.043
		c-0.009-0.064-0.028-0.139-0.038-0.223c-0.003-0.071-0.01-0.146-0.01-0.213c0-0.582,0.126-1.155,0.373-1.703
		c0.248-0.547,0.597-1.023,1.041-1.421c0.321-0.304,0.672-0.53,1.052-0.671c0.388-0.145,0.776-0.23,1.174-0.264h0.291
		c0.203,0,0.411,0.008,0.619,0.035c0.211,0.024,0.428,0.061,0.648,0.107c0.26,0.062,0.507,0.135,0.751,0.214
		c0.247,0.083,0.494,0.184,0.733,0.292v2.102c-0.027-0.018-0.064-0.034-0.109-0.059c-0.038-0.029-0.076-0.049-0.104-0.064
		c-0.211-0.106-0.433-0.219-0.685-0.318c-0.244-0.107-0.495-0.187-0.752-0.252c-0.145-0.037-0.29-0.062-0.433-0.086
		c-0.143-0.027-0.29-0.04-0.43-0.04h-0.063h-0.079c-0.32,0.021-0.634,0.107-0.939,0.268c-0.298,0.157-0.539,0.42-0.718,0.787
		c-0.046,0.099-0.089,0.204-0.128,0.325c-0.042,0.116-0.072,0.238-0.085,0.369c0,0.061-0.004,0.122-0.011,0.191
		c-0.008,0.061-0.013,0.127-0.013,0.188c0,0.066,0.005,0.131,0.013,0.191c0.006,0.064,0.011,0.119,0.011,0.168
		c0.013,0.128,0.042,0.252,0.085,0.377c0.039,0.119,0.082,0.229,0.128,0.34c0.26,0.494,0.581,0.922,0.984,1.282
		c0.399,0.36,0.815,0.715,1.246,1.067c0.477,0.383,0.94,0.789,1.377,1.199c0.438,0.42,0.78,0.924,1.018,1.514
		c0.064,0.143,0.109,0.305,0.146,0.49c0.03,0.186,0.054,0.365,0.067,0.543c0,0.094,0.009,0.186,0.014,0.271
		c0.011,0.088,0.015,0.181,0.015,0.277c0,0.095-0.004,0.195-0.015,0.301c-0.005,0.105-0.018,0.211-0.038,0.326
		c-0.029,0.266-0.082,0.539-0.152,0.814c-0.07,0.271-0.164,0.521-0.276,0.738c-0.354,0.723-0.85,1.23-1.49,1.527
		c-0.636,0.299-1.307,0.443-2.009,0.443c-0.141,0-0.294-0.01-0.443-0.025c-0.146-0.016-0.306-0.032-0.466-0.046
		c-0.334-0.032-0.674-0.106-1.005-0.218c-0.336-0.11-0.646-0.24-0.935-0.384v-2.181
		C141.967,105.799,142.027,105.828,142.084,105.863z"/>
	<rect x="173.896" y="86.926" fill="#DF0C00" width="135.822" height="21.73"/>
	<path d="M180.976,55.692h0.133c3.887,0,6.742,2.89,6.742,6.677v9.999c0,3.787-2.855,6.677-6.742,6.677h-0.133
		c-3.887,0-6.744-2.89-6.744-6.677v-9.999C174.232,58.582,177.089,55.692,180.976,55.692z M177.553,72.334
		c0,2.026,1.263,3.554,3.422,3.554h0.133c2.159,0,3.42-1.528,3.42-3.554v-9.932c0-2.027-1.261-3.554-3.42-3.554h-0.133
		c-2.16,0-3.422,1.527-3.422,3.554V72.334z"/>
	<path d="M204.095,73.497c0,3.322-2.559,5.547-5.714,5.547h-0.067c-0.963,0-2.092-0.365-2.723-1.096v6.51
		c0,0.864-0.731,1.527-1.595,1.527c-0.864,0-1.594-0.663-1.594-1.527v-20.96c0-0.864,0.729-1.527,1.594-1.527
		c0.73,0,1.329,0.465,1.527,1.129c0.898-0.83,1.762-1.129,2.625-1.129h0.232c3.155,0,5.714,2.192,5.714,5.547V73.497z
		 M200.904,67.518c0-1.561-1.096-2.491-2.523-2.491h-0.265c-1.43,0-2.525,0.93-2.525,2.491v6.013c0,1.461,1.03,2.458,2.525,2.458
		h0.265c1.428,0,2.523-0.897,2.523-2.491V67.518z"/>
	<path d="M219.241,70.474c0,0.83-0.698,1.528-1.595,1.528h-6.711v1.495c0,1.594,1.163,2.491,2.593,2.491h0.232
		c1.593,0,2.092-0.963,2.591-1.594c0.266-0.333,0.564-0.565,1.163-0.565c0.829,0,1.56,0.731,1.56,1.627
		c0,0.266-0.066,0.498-0.199,0.764c-0.996,2.027-3.122,2.824-5.114,2.824h-0.299c-3.322,0-5.714-2.325-5.714-5.547v-5.979
		c0-3.354,2.491-5.547,5.646-5.547h0.167c3.322,0,5.681,2.391,5.681,5.414V70.474z M216.085,67.518c0-1.627-1.128-2.491-2.557-2.491
		h-0.066c-1.563,0-2.526,0.93-2.526,2.491v1.627h5.149V67.518z"/>
	<path d="M223.492,63.498c0-0.864,0.731-1.527,1.595-1.527c0.731,0,1.361,0.498,1.528,1.163c0.599-0.599,1.727-1.163,2.658-1.163
		h0.265c3.189,0,5.514,2.325,5.514,5.679v9.867c0,0.863-0.731,1.527-1.595,1.527c-0.864,0-1.593-0.664-1.593-1.527v-9.999
		c0-1.329-0.831-2.491-2.394-2.491h-0.232c-1.792,0-2.556,1.328-2.556,2.491v9.999c0,0.863-0.731,1.527-1.596,1.527
		c-0.863,0-1.595-0.664-1.595-1.527V63.498z"/>
	<path d="M250.831,62.768c-1.131,0-1.527-0.598-1.628-1.295c-0.299-1.96-1.529-2.691-3.09-2.691h-0.199
		c-1.628,0-2.891,1.262-2.891,2.923c0,1.229,0.399,2.193,1.795,2.89l4.45,2.292c2.026,1.063,3.555,2.89,3.555,5.847
		c0,3.753-2.891,6.311-6.609,6.311h-0.332c-3.489,0-6.612-2.358-6.612-6.444c0-1.063,0.831-1.594,1.63-1.594
		c0.796,0,1.692,0.53,1.692,1.594c0,2.126,1.396,3.322,3.29,3.322h0.332c1.959,0,3.255-1.229,3.255-3.189
		c0-1.495-0.765-2.358-2.159-3.09l-4.351-2.259c-2.326-1.228-3.223-3.221-3.223-5.58c0-3.588,3.022-6.113,6.178-6.113h0.199
		c3.522,0,6.312,2.259,6.312,5.515C252.426,62.103,251.794,62.768,250.831,62.768z"/>
	<path d="M260.064,74.061c0,1.097,0.499,1.695,1.462,1.628l0.531-0.034c0.964-0.034,1.596,0.764,1.596,1.627
		c0,0.864-0.566,1.595-1.596,1.628c0,0-0.167,0.033-0.531,0.033c-3.09,0-4.65-2.125-4.65-4.816v-8.803h-1.062
		c-0.896,0-1.528-0.664-1.528-1.528s0.632-1.527,1.528-1.527h1.062v-5.049c0-0.864,0.731-1.529,1.595-1.529
		c0.864,0,1.594,0.665,1.594,1.529v5.049h2.158c0.898,0,1.53,0.664,1.53,1.527s-0.632,1.528-1.495,1.528h-2.193V74.061z"/>
	<path d="M277.67,74.858c0,0.498,0.265,0.831,0.731,1.063l0.332,0.166c0.664,0.365,0.829,0.83,0.829,1.429
		c0,0.764-0.664,1.527-1.561,1.527h-0.033c-1.163,0-2.193-0.664-2.69-1.495c-0.898,0.863-2.426,1.495-3.589,1.495h-0.332
		c-2.623,0-5.381-1.461-5.381-4.817v-0.365c0-1.86,0.831-3.056,1.994-3.82c1.659-1.097,3.854-1.329,5.846-1.695
		c0.531-0.099,0.664-0.365,0.664-0.83v-0.232c0-1.329-0.964-2.259-2.259-2.259h-0.266c-1.062,0-1.959,0.332-2.391,1.296
		c-0.268,0.664-0.866,0.963-1.396,0.963c-0.831,0-1.662-0.665-1.662-1.562c0-0.233,0.032-0.465,0.133-0.698
		c1.062-2.425,3.521-3.056,5.315-3.056h0.266c2.657,0,5.448,2.026,5.448,5.347V74.858z M274.48,71.138l-1.893,0.398
		c-1.762,0.366-3.422,0.731-3.422,2.292v0.134c0,1.096,0.597,2.092,2.225,2.092h0.334c1.593,0,2.756-1.428,2.756-2.723V71.138z"/>
	<path d="M287.534,65.026c-1.428,0-2.424,0.93-2.424,2.491v5.979c0,1.594,0.996,2.491,2.424,2.491h0.167
		c1.66,0,2.424-1.195,2.424-2.259c0-0.996,0.931-1.495,1.595-1.495c0.799,0,1.595,0.765,1.595,1.695
		c0,2.093-1.927,5.115-5.613,5.115h-0.167c-3.088,0-5.613-2.225-5.613-5.547v-5.979c0-3.354,2.525-5.547,5.613-5.547h0.167
		c3.287,0,5.613,2.491,5.613,5.315c0,0.996-0.896,1.527-1.595,1.527c-0.696,0-1.595-0.498-1.595-1.527
		c0-1.097-0.863-2.259-2.424-2.259H287.534z"/>
	<path d="M309.06,76.686c0.167,0.232,0.232,0.531,0.232,0.831c0,0.83-0.697,1.527-1.66,1.527c-0.499,0-0.964-0.166-1.33-0.797
		l-3.919-6.777l-1.628,1.794v4.252c0,0.863-0.73,1.527-1.595,1.527c-0.863,0-1.595-0.664-1.595-1.527V57.221
		c0-0.864,0.731-1.529,1.595-1.529c0.864,0,1.595,0.665,1.595,1.529v11.393l5.382-6.111c0.364-0.365,0.731-0.531,1.163-0.531
		c0.896,0,1.627,0.697,1.627,1.595c0,0.398-0.167,0.796-0.466,1.096l-3.852,4.318L309.06,76.686z"/>
	<polygon fill="#FFFFFF" points="182.056,93.301 186.546,93.301 186.546,94.79 183.673,94.79 183.673,97.125 186.315,97.125 
		186.315,98.613 183.673,98.613 183.673,102.281 182.056,102.281 	"/>
	<path fill="#FFFFFF" d="M193.704,93.301h1.525v5.826c0,1.163-0.236,2.005-0.711,2.525c-0.476,0.523-1.132,0.783-1.971,0.783
		c-0.981,0-1.703-0.254-2.161-0.764c-0.457-0.508-0.687-1.283-0.687-2.328v-6.043h1.617v5.761c0,0.702,0.093,1.19,0.282,1.469
		c0.188,0.278,0.501,0.418,0.937,0.418c0.419,0,0.718-0.147,0.898-0.443c0.179-0.294,0.27-0.774,0.27-1.443V93.301z"/>
	<polygon fill="#FFFFFF" points="198.655,93.301 203.146,93.301 203.146,94.79 200.271,94.79 200.271,96.996 202.876,96.996 
		202.876,98.485 200.271,98.485 200.271,100.795 203.196,100.795 203.196,102.281 198.655,102.281 	"/>
	<polygon fill="#FFFFFF" points="211.253,102.281 206.48,102.281 206.48,93.301 208.098,93.301 208.098,100.795 211.253,100.795 	
		"/>
	<path fill="#FFFFFF" d="M218.602,93.301c0.154-0.025,0.327-0.043,0.521-0.057c0.191-0.012,0.389-0.025,0.59-0.037
		c0.201-0.014,0.396-0.021,0.583-0.026c0.188-0.006,0.355-0.008,0.502-0.008c0.709,0,1.301,0.11,1.776,0.327
		c0.474,0.219,0.854,0.527,1.142,0.926c0.286,0.396,0.489,0.873,0.609,1.43c0.118,0.556,0.18,1.175,0.18,1.859
		c0,0.625-0.058,1.221-0.174,1.79c-0.116,0.567-0.319,1.069-0.609,1.501s-0.685,0.775-1.182,1.033
		c-0.495,0.256-1.119,0.385-1.871,0.385c-0.112,0-0.262-0.004-0.449-0.014c-0.188-0.008-0.385-0.02-0.59-0.032
		c-0.205-0.014-0.402-0.025-0.59-0.039c-0.189-0.013-0.335-0.028-0.438-0.044V93.301z M220.962,94.662
		c-0.136,0-0.276,0.002-0.416,0.006c-0.142,0.004-0.251,0.016-0.327,0.033v6.182c0.025,0.008,0.071,0.017,0.134,0.021
		c0.065,0.004,0.134,0.008,0.206,0.012s0.142,0.01,0.206,0.014c0.063,0.004,0.108,0.006,0.135,0.006
		c0.384,0,0.699-0.089,0.948-0.271c0.248-0.18,0.443-0.418,0.584-0.717c0.142-0.301,0.24-0.643,0.295-1.031
		c0.056-0.391,0.083-0.799,0.083-1.227c0-0.393-0.023-0.773-0.07-1.143c-0.048-0.366-0.137-0.689-0.269-0.969
		c-0.135-0.277-0.322-0.5-0.566-0.666C221.662,94.744,221.349,94.662,220.962,94.662z"/>
	<polygon fill="#FFFFFF" points="227.775,93.301 232.263,93.301 232.263,94.79 229.39,94.79 229.39,96.996 231.995,96.996 
		231.995,98.485 229.39,98.485 229.39,100.795 232.314,100.795 232.314,102.281 227.775,102.281 	"/>
	<path fill="#FFFFFF" d="M235.6,93.393c0.308-0.069,0.645-0.123,1.014-0.16c0.366-0.039,0.735-0.06,1.103-0.06
		c0.394,0,0.781,0.038,1.161,0.11c0.381,0.073,0.72,0.215,1.02,0.43c0.3,0.213,0.542,0.516,0.731,0.904
		c0.188,0.391,0.282,0.896,0.282,1.52c0,0.564-0.079,1.043-0.237,1.438c-0.159,0.393-0.37,0.715-0.635,0.963
		c-0.266,0.246-0.571,0.426-0.919,0.538c-0.345,0.11-0.702,0.165-1.07,0.165c-0.033,0-0.089,0-0.166,0s-0.157-0.002-0.244-0.006
		c-0.085-0.004-0.17-0.01-0.251-0.02c-0.081-0.008-0.138-0.016-0.173-0.025v3.092H235.6V93.393z M237.215,97.74
		c0.051,0.018,0.147,0.033,0.29,0.045c0.14,0.014,0.236,0.02,0.288,0.02c0.188,0,0.368-0.025,0.538-0.076
		c0.171-0.051,0.323-0.141,0.455-0.265c0.134-0.122,0.238-0.294,0.315-0.513c0.077-0.217,0.114-0.492,0.114-0.826
		c0-0.282-0.035-0.522-0.108-0.72c-0.073-0.195-0.172-0.353-0.296-0.468s-0.266-0.199-0.43-0.25
		c-0.161-0.051-0.333-0.076-0.513-0.076c-0.264,0-0.483,0.021-0.654,0.064V97.74z"/>
	<polygon fill="#FFFFFF" points="248.8,102.281 244.027,102.281 244.027,93.301 245.643,93.301 245.643,100.795 248.8,100.795 	"/>
	<path fill="#FFFFFF" d="M250.543,97.791c0-1.521,0.262-2.68,0.783-3.477c0.521-0.795,1.317-1.192,2.386-1.192
		c0.556,0,1.035,0.11,1.438,0.327c0.402,0.219,0.731,0.531,0.988,0.937c0.256,0.406,0.445,0.899,0.569,1.476
		c0.124,0.577,0.188,1.221,0.188,1.93c0,1.523-0.269,2.682-0.803,3.477c-0.534,0.797-1.327,1.193-2.38,1.193
		c-0.563,0-1.045-0.108-1.443-0.327c-0.396-0.218-0.724-0.53-0.98-0.937c-0.256-0.406-0.445-0.897-0.565-1.476
		C250.604,99.146,250.543,98.502,250.543,97.791z M252.237,97.791c0,0.454,0.024,0.876,0.076,1.264
		c0.052,0.389,0.136,0.727,0.257,1.008c0.12,0.283,0.271,0.506,0.455,0.667s0.412,0.245,0.687,0.245
		c0.497,0,0.867-0.253,1.116-0.758c0.248-0.505,0.372-1.312,0.372-2.426c0-0.436-0.025-0.848-0.076-1.236
		c-0.052-0.391-0.137-0.728-0.251-1.014c-0.115-0.287-0.268-0.514-0.455-0.68c-0.188-0.168-0.424-0.25-0.706-0.25
		C252.728,94.611,252.237,95.672,252.237,97.791z"/>
	<polygon fill="#FFFFFF" points="261.408,98.947 258.997,93.301 260.922,93.301 262.166,96.701 262.294,97.678 262.358,97.678 
		262.499,96.676 263.718,93.301 265.449,93.301 263.025,98.934 263.025,102.281 261.408,102.281 	"/>
	<polygon fill="#FFFFFF" points="274.03,97.651 274.213,95.932 274.147,95.932 273.672,97.472 272.211,100.627 271.673,100.627 
		270.118,97.458 269.646,95.906 269.568,95.906 269.811,97.638 269.811,102.281 268.285,102.281 268.285,93.301 269.837,93.301 
		271.71,97.189 272.018,98.307 272.069,98.307 272.364,97.164 274.121,93.301 275.647,93.301 275.647,102.281 274.03,102.281 	"/>
	<polygon fill="#FFFFFF" points="279.112,93.301 283.601,93.301 283.601,94.79 280.728,94.79 280.728,96.996 283.332,96.996 
		283.332,98.485 280.728,98.485 280.728,100.795 283.652,100.795 283.652,102.281 279.112,102.281 	"/>
	<polygon fill="#FFFFFF" points="288.913,97.868 288.321,96.291 288.259,96.291 288.464,97.843 288.464,102.281 286.938,102.281 
		286.938,93.238 288.182,93.238 290.759,97.754 291.312,99.306 291.388,99.306 291.183,97.779 291.183,93.301 292.709,93.301 
		292.709,102.347 291.465,102.347 	"/>
	<polygon fill="#FFFFFF" points="301.562,94.79 299.443,94.79 299.443,102.281 297.828,102.281 297.828,94.79 295.698,94.79 
		295.698,93.301 301.562,93.301 	"/>
</g>
</svg>
