<?xml version="1.0" encoding="utf-8"?>
<!-- Generator: Adobe Illustrator 15.1.0, SVG Export Plug-In . SVG Version: 6.00 Build 0)  -->
<!DOCTYPE svg PUBLIC "-//W3C//DTD SVG 1.1//EN" "http://www.w3.org/Graphics/SVG/1.1/DTD/svg11.dtd">
<svg version="1.1" id="Layer_1" xmlns="http://www.w3.org/2000/svg" xmlns:xlink="http://www.w3.org/1999/xlink" x="0px" y="0px"
	 width="170px" height="36px" viewBox="0 0 170 36" enable-background="new 0 0 170 36" xml:space="preserve">
<g>
	<path fill="#231F20" d="M1,13.154C13.168-2.207,34.094-1.305,40.563,6.71C36.7,4.149,31.014,2.196,26.565,2.837
		c7.017,0.877,9.25,4.117,10.327,5.638c-2.439-1.725-8.627-5.502-14.92-4.353c4.419,0.544,9.498,2.631,11.581,6.334
		c-3.559-2.633-9.515-5.996-15.171-4.695c4.874,0.661,9.772,2.75,11.962,6.786C26.404,9.785,12.182,4.062,1,13.154L1,13.154z"/>
	<path fill="#231F20" d="M72.096,9.215c-12.157,15.395-33.576,14.35-40.046,6.33c3.865,2.565,11.142,5.463,15.522,4.514
		c-6.91-1.187-10.81-4.745-11.852-6.275c2.403,1.734,8.699,5.67,14.992,4.521c-4.42-0.544-9.567-2.798-11.687-6.49
		c3.558,2.629,9.656,6.141,15.317,4.876c-4.878-0.695-9.883-2.944-12.108-6.97C46.209,12.473,60.924,18.341,72.096,9.215
		L72.096,9.215z"/>
	<path fill-rule="evenodd" clip-rule="evenodd" fill="#D33127" d="M59.944,1l0.206,1.433c-4.813,0.028-9.434,0.794-13.849,2.258
		c-3.689,1.237-7.822,3.213-12.401,5.951c-5.731,3.5-9.708,5.739-11.884,6.765c-4.683,2.214-9.421,3.476-14.231,3.768
		c5.544,0.21,10.808-0.501,15.855-2.159c3.716-1.236,7.903-3.241,12.534-6.031c5.078-3.001,9.003-5.108,11.779-6.347
		c3.988-1.724,8.055-3.018,12.244-3.874l0.207,1.422l4.538-2.289L59.944,1L59.944,1z"/>
	<polygon fill="#231F20" points="8.469,24.991 9.708,24.991 11.115,32.02 12.506,24.991 13.683,24.991 14.564,35.129 13.294,35.129 
		12.895,28.005 11.532,35.129 10.604,35.129 9.273,28.005 8.855,35.129 7.615,35.129 8.469,24.991 	"/>
	<polygon fill="#231F20" points="17.893,24.991 19.286,24.991 19.286,35.129 17.893,35.129 17.893,24.991 	"/>
	<path fill="#231F20" d="M24.035,35.129h-1.378V24.986h1.658c0.929,0,1.665,0.169,2.213,0.518s0.819,1.042,0.819,2.073
		c0,0.702-0.139,1.277-0.409,1.72c-0.275,0.444-0.772,0.719-1.492,0.836l2.413,4.996h-1.487l-2.304-4.93h-0.034V35.129
		L24.035,35.129z M24.035,29.408c0.569,0,1.03-0.076,1.388-0.24c0.353-0.16,0.535-0.586,0.548-1.28v-0.187
		c0-0.715-0.153-1.144-0.467-1.288c-0.308-0.146-0.796-0.219-1.469-0.219V29.408L24.035,29.408z"/>
	<path fill="#231F20" d="M32.64,24.986h1.284l2.351,10.143H34.93l-0.511-2.017h-2.307l-0.479,2.017h-1.379L32.64,24.986
		L32.64,24.986z M33.29,27.606l-0.929,4.377h1.84L33.29,27.606L33.29,27.606z"/>
	<polygon fill="#231F20" points="39.742,24.991 41.027,24.991 43.722,32.02 43.722,24.991 44.989,24.991 44.989,35.129 
		43.722,35.129 41.06,28.026 41.06,35.129 39.742,35.129 39.742,24.991 	"/>
	<polygon fill="#231F20" points="50.017,26.247 48.162,26.247 48.162,24.986 53.27,24.986 53.27,26.247 51.396,26.247 
		51.396,35.129 50.017,35.129 50.017,26.247 	"/>
	<polygon fill="#231F20" points="56.044,24.991 57.436,24.991 57.436,35.129 56.044,35.129 56.044,24.991 	"/>
	<path fill="#231F20" d="M60.665,33.416c0.044,0.018,0.083,0.04,0.125,0.06c0.146,0.084,0.302,0.16,0.464,0.233
		c0.166,0.073,0.335,0.135,0.512,0.189c0.091,0.016,0.186,0.034,0.286,0.052c0.098,0.013,0.193,0.022,0.285,0.022h0.143
		c0.203-0.022,0.401-0.09,0.586-0.208c0.186-0.121,0.323-0.3,0.418-0.534c0.032-0.054,0.053-0.104,0.069-0.158
		c0.014-0.053,0.028-0.107,0.041-0.169c0-0.052,0.002-0.104,0.005-0.155c0.006-0.049,0.009-0.104,0.009-0.153
		c0-0.36-0.124-0.697-0.364-1.002c-0.243-0.303-0.514-0.584-0.817-0.844c-0.1-0.082-0.2-0.163-0.289-0.239
		c-0.092-0.078-0.188-0.152-0.281-0.229c-0.342-0.288-0.649-0.604-0.93-0.956c-0.278-0.353-0.462-0.762-0.553-1.227
		c0-0.039-0.007-0.079-0.014-0.125c-0.016-0.037-0.016-0.08-0.016-0.122c-0.013,0-0.02-0.006-0.02-0.015V27.81
		c-0.005-0.043-0.018-0.09-0.024-0.145c-0.002-0.046-0.006-0.095-0.006-0.137c0-0.377,0.082-0.747,0.24-1.101
		c0.161-0.354,0.386-0.661,0.672-0.918c0.208-0.196,0.434-0.342,0.68-0.434c0.25-0.094,0.501-0.149,0.759-0.17h0.188
		c0.131,0,0.266,0.005,0.399,0.022c0.137,0.016,0.277,0.04,0.419,0.069c0.168,0.041,0.328,0.087,0.485,0.139
		c0.16,0.053,0.319,0.117,0.474,0.188v1.357c-0.018-0.011-0.042-0.021-0.07-0.037c-0.025-0.019-0.049-0.031-0.068-0.042
		c-0.136-0.069-0.279-0.141-0.442-0.205c-0.158-0.07-0.32-0.121-0.486-0.163c-0.093-0.023-0.188-0.04-0.279-0.056
		c-0.092-0.018-0.187-0.025-0.278-0.025h-0.041h-0.051c-0.206,0.013-0.41,0.068-0.606,0.173c-0.192,0.102-0.348,0.271-0.464,0.508
		c-0.03,0.063-0.058,0.132-0.083,0.21c-0.028,0.076-0.046,0.155-0.055,0.239c0,0.038-0.002,0.078-0.006,0.123
		c-0.006,0.04-0.009,0.082-0.009,0.122c0,0.042,0.003,0.084,0.009,0.123c0.004,0.042,0.006,0.077,0.006,0.109
		c0.009,0.082,0.027,0.162,0.055,0.243c0.024,0.075,0.053,0.147,0.083,0.218c0.167,0.32,0.375,0.596,0.635,0.829
		c0.259,0.233,0.527,0.462,0.805,0.69c0.309,0.247,0.607,0.509,0.89,0.774c0.282,0.271,0.503,0.596,0.658,0.977
		c0.042,0.093,0.07,0.197,0.094,0.317c0.02,0.12,0.035,0.235,0.044,0.35c0,0.062,0.005,0.121,0.008,0.178
		c0.007,0.056,0.01,0.116,0.01,0.179c0,0.061-0.003,0.125-0.01,0.193c-0.003,0.068-0.012,0.137-0.024,0.211
		c-0.019,0.173-0.054,0.349-0.098,0.525c-0.045,0.176-0.105,0.337-0.179,0.479c-0.229,0.465-0.549,0.793-0.961,0.986
		c-0.411,0.193-0.844,0.285-1.298,0.285c-0.091,0-0.19-0.005-0.286-0.016c-0.095-0.01-0.198-0.021-0.301-0.029
		c-0.216-0.021-0.435-0.069-0.649-0.141c-0.217-0.072-0.417-0.156-0.604-0.248v-1.409C60.59,33.374,60.628,33.393,60.665,33.416
		L60.665,33.416z"/>
	<polygon fill="#D33127" points="169,21.111 81.263,21.111 81.263,35.147 169,35.147 169,21.111 	"/>
	<path fill="#231F20" d="M83.578,11.757c0,1.31,0.815,2.296,2.21,2.296h0.086c1.395,0,2.21-0.986,2.21-2.296V5.342
		c0-1.31-0.815-2.296-2.21-2.296h-0.086c-1.395,0-2.21,0.986-2.21,2.296V11.757L83.578,11.757z M85.788,1.007h0.086
		c2.51,0,4.355,1.867,4.355,4.313v6.458c0,2.446-1.846,4.313-4.355,4.313h-0.086c-2.511,0-4.356-1.867-4.356-4.313V5.32
		C81.432,2.874,83.277,1.007,85.788,1.007L85.788,1.007z"/>
	<path fill="#231F20" d="M98.662,8.646c0-1.008-0.708-1.609-1.631-1.609h-0.172c-0.922,0-1.63,0.602-1.63,1.609v3.884
		c0,0.944,0.665,1.588,1.63,1.588h0.172c0.923,0,1.631-0.579,1.631-1.609V8.646L98.662,8.646z M100.722,12.508
		c0,2.146-1.651,3.584-3.69,3.584h-0.043c-0.622,0-1.352-0.236-1.759-0.708v4.205c0,0.558-0.473,0.987-1.03,0.987
		s-1.03-0.43-1.03-0.987V6.05c0-0.559,0.473-0.987,1.03-0.987c0.472,0,0.858,0.301,0.987,0.729c0.579-0.536,1.137-0.729,1.694-0.729
		h0.15c2.039,0,3.69,1.416,3.69,3.583V12.508L100.722,12.508z"/>
	<path fill="#231F20" d="M108.468,8.646c0-1.051-0.729-1.609-1.652-1.609h-0.042c-1.01,0-1.632,0.602-1.632,1.609v1.052h3.326V8.646
		L108.468,8.646z M110.506,10.556c0,0.536-0.45,0.987-1.029,0.987h-4.335v0.965c0,1.03,0.751,1.609,1.674,1.609h0.15
		c1.03,0,1.352-0.622,1.674-1.029c0.172-0.215,0.364-0.365,0.751-0.365c0.536,0,1.008,0.472,1.008,1.052
		c0,0.171-0.042,0.321-0.128,0.493c-0.645,1.309-2.018,1.824-3.305,1.824h-0.192c-2.146,0-3.691-1.502-3.691-3.584V8.646
		c0-2.167,1.609-3.583,3.647-3.583h0.107c2.146,0,3.669,1.545,3.669,3.497V10.556L110.506,10.556z"/>
	<path fill="#231F20" d="M113.253,6.05c0-0.559,0.472-0.987,1.029-0.987c0.473,0,0.88,0.322,0.987,0.751
		c0.387-0.386,1.116-0.751,1.717-0.751h0.172c2.06,0,3.562,1.502,3.562,3.669v6.373c0,0.558-0.472,0.987-1.03,0.987
		c-0.558,0-1.029-0.43-1.029-0.987V8.646c0-0.858-0.536-1.609-1.545-1.609h-0.15c-1.159,0-1.652,0.858-1.652,1.609v6.459
		c0,0.558-0.472,0.987-1.03,0.987c-0.558,0-1.029-0.43-1.029-0.987V6.05L113.253,6.05z"/>
	<path fill="#231F20" d="M130.912,5.577c-0.729,0-0.987-0.386-1.052-0.837c-0.192-1.266-0.986-1.737-1.995-1.737h-0.129
		c-1.052,0-1.866,0.815-1.866,1.888c0,0.794,0.257,1.416,1.158,1.867l2.875,1.48c1.31,0.687,2.296,1.866,2.296,3.776
		c0,2.425-1.866,4.077-4.27,4.077h-0.215c-2.253,0-4.27-1.523-4.27-4.163c0-0.687,0.536-1.03,1.051-1.03
		c0.516,0,1.095,0.344,1.095,1.03c0,1.373,0.901,2.146,2.124,2.146h0.215c1.266,0,2.103-0.794,2.103-2.06
		c0-0.966-0.493-1.523-1.395-1.995l-2.811-1.46c-1.502-0.794-2.082-2.081-2.082-3.604c0-2.317,1.953-3.948,3.991-3.948h0.129
		c2.274,0,4.077,1.459,4.077,3.562C131.942,5.148,131.534,5.577,130.912,5.577L130.912,5.577z"/>
	<path fill="#231F20" d="M136.877,12.873c0,0.708,0.322,1.094,0.944,1.052l0.344-0.021c0.622-0.021,1.029,0.493,1.029,1.051
		c0,0.559-0.364,1.03-1.029,1.052c0,0-0.107,0.021-0.344,0.021c-1.995,0-3.004-1.373-3.004-3.111V7.229h-0.687
		c-0.579,0-0.987-0.429-0.987-0.987c0-0.558,0.408-0.986,0.987-0.986h0.687V1.994c0-0.558,0.472-0.987,1.03-0.987
		c0.558,0,1.029,0.43,1.029,0.987v3.262h1.396c0.579,0,0.986,0.429,0.986,0.986c0,0.559-0.407,0.987-0.965,0.987h-1.417V12.873
		L136.877,12.873z"/>
	<path fill="#231F20" d="M146.189,10.984l-1.224,0.258c-1.137,0.236-2.21,0.472-2.21,1.48v0.086c0,0.708,0.387,1.352,1.438,1.352
		h0.214c1.03,0,1.781-0.923,1.781-1.759V10.984L146.189,10.984z M148.249,13.388c0,0.322,0.172,0.537,0.473,0.687l0.214,0.107
		c0.43,0.236,0.537,0.537,0.537,0.923c0,0.493-0.43,0.987-1.009,0.987h-0.021c-0.751,0-1.416-0.43-1.738-0.966
		c-0.579,0.558-1.566,0.966-2.317,0.966h-0.214c-1.695,0-3.477-0.944-3.477-3.111v-0.236c0-1.201,0.536-1.974,1.287-2.468
		c1.073-0.708,2.489-0.858,3.776-1.094c0.344-0.064,0.43-0.236,0.43-0.537V8.496c0-0.858-0.622-1.46-1.459-1.46h-0.172
		c-0.687,0-1.266,0.215-1.545,0.837c-0.172,0.43-0.558,0.623-0.901,0.623c-0.536,0-1.072-0.43-1.072-1.009
		c0-0.15,0.021-0.301,0.085-0.451c0.688-1.566,2.274-1.974,3.434-1.974h0.172c1.717,0,3.519,1.309,3.519,3.455V13.388
		L148.249,13.388z"/>
	<path fill="#231F20" d="M154.622,7.036c-0.923,0-1.566,0.602-1.566,1.609v3.862c0,1.03,0.644,1.609,1.566,1.609h0.107
		c1.073,0,1.566-0.772,1.566-1.459c0-0.644,0.601-0.966,1.03-0.966c0.515,0,1.029,0.494,1.029,1.095
		c0,1.352-1.244,3.305-3.626,3.305h-0.107c-1.995,0-3.626-1.438-3.626-3.584V8.646c0-2.167,1.631-3.583,3.626-3.583h0.107
		c2.124,0,3.626,1.609,3.626,3.434c0,0.644-0.579,0.986-1.029,0.986c-0.451,0-1.03-0.321-1.03-0.986c0-0.709-0.558-1.46-1.566-1.46
		H154.622L154.622,7.036z"/>
	<path fill="#231F20" d="M168.526,14.568c0.107,0.15,0.15,0.343,0.15,0.536c0,0.536-0.45,0.987-1.073,0.987
		c-0.321,0-0.622-0.107-0.858-0.516l-2.531-4.377l-1.052,1.159v2.746c0,0.558-0.472,0.987-1.03,0.987
		c-0.558,0-1.029-0.43-1.029-0.987V1.994c0-0.558,0.472-0.987,1.029-0.987c0.559,0,1.03,0.43,1.03,0.987v7.359l3.477-3.947
		c0.235-0.236,0.472-0.344,0.751-0.344c0.579,0,1.051,0.45,1.051,1.03c0,0.257-0.107,0.515-0.3,0.708l-2.489,2.789L168.526,14.568
		L168.526,14.568z"/>
	<polygon fill="#FFFFFF" points="111.689,24.451 115.259,24.451 115.259,25.634 112.975,25.634 112.975,27.49 115.075,27.49 
		115.075,28.673 112.975,28.673 112.975,31.59 111.689,31.59 111.689,24.451 	"/>
	<path fill="#FFFFFF" d="M122.174,24.451h1.214v4.63c0,0.925-0.188,1.595-0.566,2.01c-0.377,0.414-0.898,0.622-1.564,0.622
		c-0.782,0-1.355-0.202-1.719-0.607c-0.364-0.404-0.546-1.021-0.546-1.851v-4.804h1.285v4.579c0,0.558,0.074,0.947,0.225,1.168
		c0.148,0.221,0.397,0.331,0.744,0.331c0.333,0,0.571-0.117,0.714-0.352s0.214-0.617,0.214-1.147V24.451L122.174,24.451z"/>
	<polygon fill="#FFFFFF" points="127.335,24.451 130.904,24.451 130.904,25.634 128.619,25.634 128.619,27.389 130.69,27.389 
		130.69,28.571 128.619,28.571 128.619,30.407 130.945,30.407 130.945,31.59 127.335,31.59 127.335,24.451 	"/>
	<polygon fill="#FFFFFF" points="138.573,31.59 134.779,31.59 134.779,24.451 136.064,24.451 136.064,30.407 138.573,30.407 
		138.573,31.59 	"/>
</g>
</svg>
