<?xml version="1.0" encoding="utf-8"?>
<!-- Generator: Adobe Illustrator 15.1.0, SVG Export Plug-In . SVG Version: 6.00 Build 0)  -->
<!DOCTYPE svg PUBLIC "-//W3C//DTD SVG 1.1//EN" "http://www.w3.org/Graphics/SVG/1.1/DTD/svg11.dtd">
<svg version="1.1" id="Layer_1" xmlns="http://www.w3.org/2000/svg" xmlns:xlink="http://www.w3.org/1999/xlink" x="0px" y="0px"
	 width="360px" height="160px" viewBox="0 0 360 160" enable-background="new 0 0 360 160" xml:space="preserve">
<g>
	<path d="M49.718,74.544c18.832-23.773,51.217-22.377,61.229-9.973c-5.979-3.963-14.779-6.986-21.664-5.995
		c10.86,1.357,14.316,6.373,15.982,8.727c-3.774-2.669-13.352-8.516-23.09-6.738c6.84,0.843,14.699,4.072,17.923,9.804
		c-5.508-4.076-14.726-9.279-23.479-7.267c7.542,1.023,15.124,4.255,18.513,10.501C89.034,69.33,67.023,60.473,49.718,74.544z"/>
	<path d="M159.747,68.448c-18.813,23.825-51.963,22.208-61.976,9.796c5.981,3.971,17.243,8.455,24.022,6.986
		c-10.693-1.836-16.729-7.344-18.342-9.713c3.719,2.685,13.462,8.776,23.201,6.997c-6.842-0.842-14.807-4.331-18.087-10.044
		c5.507,4.068,14.944,9.503,23.705,7.545c-7.549-1.076-15.295-4.556-18.739-10.787C119.685,73.489,142.457,82.57,159.747,68.448z"/>
	<path fill-rule="evenodd" clip-rule="evenodd" fill="#DF0C00" d="M140.941,55.734l0.319,2.218c-7.45,0.043-14.6,1.228-21.433,3.494
		c-5.709,1.915-12.106,4.972-19.193,9.209c-8.87,5.417-15.025,8.882-18.393,10.47c-7.247,3.427-14.58,5.378-22.024,5.83
		c8.581,0.326,16.727-0.775,24.538-3.341c5.752-1.914,12.231-5.017,19.398-9.335c7.859-4.644,13.933-7.905,18.23-9.822
		c6.171-2.667,12.466-4.669,18.948-5.995l0.32,2.201l7.024-3.543L140.941,55.734z"/>
	<polygon points="61.277,92.864 63.194,92.864 65.371,103.74 67.524,92.864 69.347,92.864 70.71,108.553 68.745,108.553 
		68.127,97.528 66.017,108.553 64.581,108.553 62.521,97.528 61.875,108.553 59.956,108.553 	"/>
	<rect x="75.861" y="92.864" width="2.156" height="15.688"/>
	<path d="M85.367,99.699c0.881,0,1.594-0.117,2.147-0.371c0.546-0.248,0.828-0.907,0.849-1.981v-0.289
		c0-1.105-0.237-1.77-0.723-1.993c-0.477-0.228-1.232-0.34-2.273-0.34V99.699z M85.367,108.553h-2.133V92.855H85.8
		c1.438,0,2.577,0.262,3.424,0.801c0.849,0.54,1.268,1.613,1.268,3.209c0,1.088-0.214,1.977-0.633,2.661
		c-0.426,0.688-1.195,1.113-2.309,1.295l3.734,7.731h-2.301l-3.565-7.63h-0.051V108.553z"/>
	<path d="M99.69,96.91l-1.438,6.775h2.848L99.69,96.91z M98.684,92.855h1.987l3.638,15.697h-2.081l-0.79-3.12h-3.57l-0.741,3.12
		h-2.134L98.684,92.855z"/>
	<polygon points="109.675,92.864 111.664,92.864 115.834,103.74 115.834,92.864 117.796,92.864 117.796,108.553 115.834,108.553 
		111.715,97.561 111.715,108.553 109.675,108.553 	"/>
	<polygon points="125.578,94.807 122.707,94.807 122.707,92.855 130.611,92.855 130.611,94.807 127.712,94.807 127.712,108.553 
		125.578,108.553 	"/>
	<rect x="134.905" y="92.864" width="2.153" height="15.688"/>
	<path d="M142.057,105.902c0.067,0.027,0.129,0.062,0.192,0.092c0.226,0.13,0.468,0.248,0.719,0.361
		c0.257,0.113,0.519,0.209,0.792,0.293c0.141,0.024,0.288,0.053,0.443,0.081c0.151,0.019,0.3,0.034,0.44,0.034h0.222
		c0.314-0.034,0.62-0.14,0.907-0.322c0.289-0.188,0.5-0.463,0.647-0.827c0.05-0.083,0.082-0.16,0.106-0.245
		c0.021-0.081,0.043-0.164,0.062-0.262c0-0.079,0.004-0.16,0.008-0.24c0.01-0.074,0.015-0.159,0.015-0.235
		c0-0.559-0.192-1.079-0.563-1.552c-0.375-0.469-0.795-0.904-1.265-1.306c-0.154-0.127-0.31-0.253-0.447-0.37
		c-0.143-0.121-0.291-0.236-0.435-0.354c-0.529-0.445-1.005-0.937-1.439-1.479c-0.43-0.546-0.715-1.179-0.856-1.899
		c0-0.06-0.011-0.122-0.021-0.192c-0.024-0.058-0.024-0.124-0.024-0.189c-0.02,0-0.029-0.009-0.029-0.022v-0.043
		c-0.009-0.064-0.028-0.139-0.038-0.223c-0.003-0.072-0.01-0.146-0.01-0.212c0-0.583,0.126-1.157,0.372-1.704
		c0.249-0.547,0.597-1.023,1.041-1.42c0.322-0.303,0.671-0.529,1.052-0.672c0.388-0.145,0.776-0.23,1.175-0.262h0.291
		c0.203,0,0.411,0.007,0.619,0.033c0.212,0.025,0.429,0.062,0.648,0.109c0.261,0.062,0.507,0.134,0.751,0.214
		c0.247,0.081,0.494,0.183,0.733,0.29v2.101c-0.027-0.016-0.065-0.032-0.109-0.057c-0.038-0.03-0.076-0.049-0.104-0.065
		c-0.21-0.106-0.433-0.219-0.685-0.317c-0.245-0.108-0.496-0.187-0.752-0.252c-0.144-0.037-0.29-0.063-0.432-0.087
		c-0.143-0.026-0.29-0.039-0.431-0.039h-0.062h-0.08c-0.319,0.02-0.634,0.106-0.939,0.267c-0.297,0.157-0.539,0.421-0.718,0.787
		c-0.046,0.099-0.089,0.204-0.128,0.325c-0.042,0.117-0.071,0.239-0.084,0.369c0,0.061-0.004,0.122-0.01,0.19
		c-0.009,0.062-0.014,0.128-0.014,0.189c0,0.065,0.005,0.13,0.014,0.19c0.006,0.064,0.01,0.119,0.01,0.169
		c0.013,0.128,0.042,0.251,0.084,0.376c0.039,0.118,0.082,0.229,0.128,0.338c0.26,0.495,0.581,0.922,0.984,1.283
		c0.4,0.361,0.815,0.715,1.246,1.068c0.478,0.383,0.94,0.788,1.377,1.199c0.437,0.418,0.778,0.921,1.018,1.512
		c0.065,0.142,0.108,0.305,0.146,0.49c0.03,0.186,0.055,0.363,0.068,0.541c0,0.097,0.008,0.188,0.014,0.275
		c0.011,0.085,0.015,0.18,0.015,0.276c0,0.094-0.004,0.193-0.015,0.3c-0.005,0.105-0.019,0.211-0.038,0.325
		c-0.029,0.268-0.083,0.54-0.152,0.813c-0.07,0.272-0.163,0.521-0.277,0.74c-0.354,0.721-0.849,1.228-1.488,1.526
		c-0.636,0.3-1.306,0.442-2.009,0.442c-0.142,0-0.294-0.009-0.442-0.025c-0.146-0.015-0.307-0.031-0.466-0.045
		c-0.334-0.033-0.674-0.107-1.005-0.218c-0.336-0.11-0.646-0.241-0.935-0.384v-2.18C141.94,105.837,142,105.866,142.057,105.902z"/>
	<rect x="173.935" y="86.858" fill="#DF0C00" width="135.783" height="21.724"/>
	<path d="M180.938,55.745h0.133c3.885,0,6.74,2.889,6.74,6.675v9.995c0,3.786-2.855,6.675-6.74,6.675h-0.133
		c-3.886,0-6.742-2.889-6.742-6.675V62.42C174.196,58.634,177.052,55.745,180.938,55.745z M177.517,72.382
		c0,2.026,1.262,3.553,3.421,3.553h0.133c2.158,0,3.42-1.527,3.42-3.553v-9.929c0-2.026-1.262-3.553-3.42-3.553h-0.133
		c-2.159,0-3.421,1.527-3.421,3.553V72.382z"/>
	<path d="M204.05,73.544c0,3.321-2.558,5.545-5.712,5.545h-0.066c-0.963,0-2.092-0.365-2.723-1.096v6.509
		c0,0.863-0.73,1.527-1.595,1.527c-0.863,0-1.594-0.664-1.594-1.527V63.549c0-0.863,0.73-1.527,1.594-1.527
		c0.731,0,1.329,0.465,1.528,1.129c0.896-0.83,1.76-1.129,2.623-1.129h0.232c3.154,0,5.712,2.191,5.712,5.545V73.544z
		 M200.861,67.567c0-1.561-1.096-2.491-2.523-2.491h-0.266c-1.428,0-2.523,0.93-2.523,2.491v6.011c0,1.461,1.029,2.458,2.523,2.458
		h0.266c1.428,0,2.523-0.897,2.523-2.491V67.567z"/>
	<path d="M219.191,70.522c0,0.83-0.697,1.527-1.594,1.527h-6.708v1.495c0,1.594,1.162,2.491,2.591,2.491h0.232
		c1.594,0,2.092-0.963,2.59-1.594c0.266-0.332,0.564-0.564,1.162-0.564c0.83,0,1.561,0.73,1.561,1.627
		c0,0.266-0.066,0.498-0.199,0.764c-0.996,2.026-3.121,2.823-5.113,2.823h-0.299c-3.32,0-5.712-2.324-5.712-5.545v-5.978
		c0-3.354,2.491-5.545,5.646-5.545h0.166c3.32,0,5.678,2.391,5.678,5.413V70.522z M216.037,67.567c0-1.627-1.129-2.491-2.557-2.491
		h-0.066c-1.562,0-2.524,0.93-2.524,2.491v1.627h5.147V67.567z"/>
	<path d="M223.442,63.549c0-0.863,0.73-1.527,1.594-1.527c0.73,0,1.361,0.498,1.527,1.162c0.599-0.598,1.728-1.162,2.657-1.162
		h0.266c3.188,0,5.512,2.324,5.512,5.678v9.863c0,0.863-0.73,1.527-1.594,1.527s-1.594-0.664-1.594-1.527v-9.996
		c0-1.328-0.83-2.491-2.391-2.491h-0.232c-1.793,0-2.557,1.329-2.557,2.491v9.996c0,0.863-0.731,1.527-1.595,1.527
		s-1.594-0.664-1.594-1.527V63.549z"/>
	<path d="M250.772,62.818c-1.13,0-1.528-0.598-1.628-1.295c-0.299-1.959-1.527-2.689-3.088-2.689h-0.199
		c-1.627,0-2.889,1.262-2.889,2.922c0,1.229,0.398,2.192,1.793,2.889l4.449,2.292c2.026,1.062,3.554,2.889,3.554,5.845
		c0,3.752-2.889,6.309-6.608,6.309h-0.332c-3.486,0-6.608-2.357-6.608-6.442c0-1.062,0.83-1.594,1.628-1.594
		c0.797,0,1.693,0.531,1.693,1.594c0,2.125,1.395,3.321,3.287,3.321h0.332c1.959,0,3.254-1.229,3.254-3.188
		c0-1.495-0.764-2.358-2.158-3.088l-4.35-2.258c-2.324-1.229-3.222-3.221-3.222-5.579c0-3.587,3.022-6.11,6.177-6.11h0.199
		c3.521,0,6.31,2.258,6.31,5.512C252.366,62.154,251.735,62.818,250.772,62.818z"/>
	<path d="M260.004,74.109c0,1.096,0.498,1.693,1.461,1.627l0.531-0.033c0.963-0.033,1.595,0.764,1.595,1.627
		s-0.565,1.594-1.595,1.627c0,0-0.166,0.033-0.531,0.033c-3.088,0-4.648-2.125-4.648-4.815v-8.8h-1.062
		c-0.896,0-1.527-0.664-1.527-1.527s0.631-1.527,1.527-1.527h1.062v-5.048c0-0.863,0.73-1.527,1.594-1.527s1.594,0.664,1.594,1.527
		v5.048h2.158c0.897,0,1.528,0.664,1.528,1.527s-0.631,1.527-1.495,1.527h-2.191V74.109z"/>
	<path d="M277.604,74.906c0,0.498,0.266,0.83,0.73,1.062l0.332,0.166c0.664,0.365,0.83,0.831,0.83,1.428
		c0,0.764-0.664,1.527-1.561,1.527h-0.033c-1.162,0-2.191-0.664-2.689-1.494c-0.896,0.863-2.424,1.494-3.587,1.494h-0.332
		c-2.623,0-5.38-1.461-5.38-4.815V73.91c0-1.86,0.83-3.055,1.992-3.819c1.661-1.096,3.853-1.329,5.846-1.694
		c0.531-0.1,0.664-0.365,0.664-0.83v-0.232c0-1.328-0.963-2.258-2.259-2.258h-0.266c-1.062,0-1.959,0.332-2.391,1.295
		c-0.266,0.664-0.863,0.963-1.396,0.963c-0.83,0-1.66-0.664-1.66-1.561c0-0.232,0.033-0.465,0.133-0.698
		c1.062-2.424,3.521-3.055,5.313-3.055h0.266c2.657,0,5.446,2.025,5.446,5.346V74.906z M274.416,71.187l-1.893,0.398
		c-1.761,0.365-3.421,0.73-3.421,2.292v0.133c0,1.096,0.598,2.092,2.225,2.092h0.332c1.595,0,2.757-1.428,2.757-2.723V71.187z"/>
	<path d="M287.467,65.076c-1.429,0-2.425,0.93-2.425,2.491v5.978c0,1.594,0.996,2.491,2.425,2.491h0.166
		c1.66,0,2.424-1.196,2.424-2.258c0-0.996,0.93-1.495,1.594-1.495c0.797,0,1.594,0.764,1.594,1.694c0,2.092-1.926,5.114-5.611,5.114
		h-0.166c-3.089,0-5.613-2.225-5.613-5.545v-5.978c0-3.354,2.524-5.545,5.613-5.545h0.166c3.287,0,5.611,2.49,5.611,5.313
		c0,0.996-0.896,1.527-1.594,1.527s-1.594-0.498-1.594-1.527c0-1.096-0.863-2.258-2.424-2.258H287.467z"/>
	<path d="M308.984,76.732c0.167,0.232,0.233,0.531,0.233,0.83c0,0.83-0.698,1.527-1.661,1.527c-0.498,0-0.963-0.166-1.328-0.797
		l-3.918-6.774l-1.627,1.793v4.25c0,0.863-0.731,1.527-1.595,1.527s-1.594-0.664-1.594-1.527v-20.29c0-0.863,0.73-1.527,1.594-1.527
		s1.595,0.664,1.595,1.527v11.39l5.379-6.11c0.365-0.365,0.73-0.531,1.162-0.531c0.896,0,1.627,0.697,1.627,1.594
		c0,0.398-0.166,0.797-0.465,1.096l-3.852,4.317L308.984,76.732z"/>
	<polygon fill="#FFFFFF" points="221.023,92.027 226.547,92.027 226.547,93.858 223.012,93.858 223.012,96.73 226.264,96.73 
		226.264,98.562 223.012,98.562 223.012,103.076 221.023,103.076 	"/>
	<path fill="#FFFFFF" d="M237.25,92.027h1.877v7.166c0,1.432-0.292,2.468-0.875,3.109c-0.585,0.643-1.393,0.963-2.423,0.963
		c-1.21,0-2.098-0.312-2.66-0.939c-0.562-0.625-0.845-1.58-0.845-2.864v-7.435h1.988v7.088c0,0.862,0.116,1.465,0.348,1.807
		s0.616,0.513,1.152,0.513c0.516,0,0.885-0.181,1.104-0.544c0.222-0.363,0.333-0.955,0.333-1.775V92.027z"/>
	<polygon fill="#FFFFFF" points="245.235,92.027 250.76,92.027 250.76,93.858 247.225,93.858 247.225,96.573 250.429,96.573 
		250.429,98.404 247.225,98.404 247.225,101.246 250.823,101.246 250.823,103.076 245.235,103.076 	"/>
	<polygon fill="#FFFFFF" points="262.629,103.076 256.758,103.076 256.758,92.027 258.746,92.027 258.746,101.246 262.629,101.246 	
		"/>
</g>
</svg>
