<?xml version="1.0" encoding="utf-8"?>
<!-- Generator: Adobe Illustrator 16.0.4, SVG Export Plug-In . SVG Version: 6.00 Build 0)  -->
<!DOCTYPE svg PUBLIC "-//W3C//DTD SVG 1.1//EN" "http://www.w3.org/Graphics/SVG/1.1/DTD/svg11.dtd">
<svg version="1.1" id="Layer_1" xmlns="http://www.w3.org/2000/svg" xmlns:xlink="http://www.w3.org/1999/xlink" x="0px" y="0px"
	 width="200px" height="58px" viewBox="0 0 200 58" enable-background="new 0 0 200 58" xml:space="preserve">
<g>
	<polygon fill="#FFFFFF" points="10.704,17.5 37.176,0.5 162.824,0.5 189.296,17.5 	"/>
	<path fill="#7F8083" d="M162.678,1l24.914,16H12.408L37.323,1H162.678 M162.971,0H37.029L9,18h182L162.971,0L162.971,0z"/>
</g>
<path fill="#7F8083" d="M198.36,16.299c0.053,0.008,0.106,0.018,0.158,0.03c0.024,0.006,0.049,0.013,0.074,0.02
	c0.048,0.014,0.096,0.03,0.143,0.047c0.024,0.009,0.049,0.018,0.072,0.027c0.065,0.027,0.131,0.056,0.192,0.091
	c-0.158-0.087-0.318-0.174-0.479-0.261c-0.623-0.339-1.246-0.679-1.869-1.019c-0.013-0.007-0.025-0.014-0.038-0.021
	c-0.013-0.006-0.026-0.013-0.039-0.02c-0.013-0.007-0.025-0.013-0.039-0.019c-0.013-0.006-0.027-0.012-0.04-0.018
	c-0.011-0.004-0.021-0.008-0.032-0.012c-0.009-0.004-0.018-0.009-0.026-0.012c-0.016-0.006-0.032-0.01-0.049-0.017
	c-0.024-0.009-0.048-0.02-0.073-0.027c-0.019-0.006-0.038-0.01-0.057-0.016c-0.016-0.004-0.029-0.011-0.045-0.015
	c-0.012-0.003-0.024-0.005-0.037-0.007c-0.016-0.004-0.031-0.009-0.047-0.013c-0.034-0.007-0.068-0.011-0.102-0.016
	c-0.016-0.002-0.031-0.007-0.047-0.009c-0.006,0-0.012,0-0.018-0.001c-0.009,0-0.018-0.003-0.026-0.003
	C195.873,15.004,195.807,15,195.74,15H4.259c-0.007,0-0.015,0-0.022,0c-0.008,0-0.015,0-0.023,0c-0.007,0-0.015,0-0.022,0.001
	c-0.008,0-0.015,0-0.023,0.001c-0.027,0.001-0.054,0.003-0.082,0.006c-0.021,0.001-0.042,0.004-0.062,0.007
	c-0.001,0-0.003,0-0.005,0c-0.001,0-0.002,0-0.003,0c-0.004,0-0.007,0.001-0.011,0.001c-0.027,0.003-0.053,0.008-0.08,0.013
	c-0.026,0.005-0.053,0.01-0.079,0.016c-0.019,0.004-0.038,0.009-0.057,0.014l-0.001,0c0,0-0.001,0-0.001,0
	c-0.002,0-0.003,0.001-0.004,0.001c-0.016,0.004-0.032,0.009-0.048,0.013c-0.019,0.005-0.037,0.011-0.056,0.017
	s-0.037,0.012-0.056,0.019c-0.016,0.005-0.031,0.012-0.047,0.018c-0.016,0.006-0.031,0.012-0.047,0.019
	c-0.015,0.007-0.031,0.013-0.046,0.021c-0.016,0.006-0.031,0.014-0.046,0.021c-0.007,0.003-0.015,0.007-0.022,0.01
	c-0.007,0.004-0.015,0.008-0.022,0.011c-0.007,0.004-0.015,0.008-0.022,0.012c-0.007,0.003-0.015,0.008-0.022,0.012
	c-0.774,0.422-1.549,0.844-2.323,1.266c-0.001,0-0.002,0.001-0.003,0.001C1.015,16.507,1.007,16.511,1,16.515
	c0.071-0.039,0.144-0.073,0.219-0.103c0.075-0.03,0.151-0.056,0.229-0.076c0.077-0.021,0.157-0.036,0.236-0.046
	C1.687,16.29,1.688,16.29,1.69,16.29c0.08-0.01,0.161-0.016,0.243-0.016h196.134c0.077,0,0.152,0.006,0.228,0.015
	C198.317,16.291,198.338,16.295,198.36,16.299z"/>
<g>
	<path fill="#FFFFFF" d="M2.273,57.5c-0.978,0-1.773-0.804-1.773-1.791V18.291c0-0.987,0.795-1.791,1.773-1.791h195.455
		c0.978,0,1.772,0.803,1.772,1.791v37.418c0,0.987-0.795,1.791-1.772,1.791H2.273z"/>
	<path fill="#7F8083" d="M197.728,17c0.701,0,1.272,0.579,1.272,1.291v37.418c0,0.712-0.571,1.291-1.272,1.291H2.273
		C1.571,57,1,56.421,1,55.709V18.291C1,17.579,1.571,17,2.273,17H197.728 M197.728,16H2.273C1.023,16,0,17.031,0,18.291v37.418
		C0,56.969,1.023,58,2.273,58h195.455c1.25,0,2.272-1.031,2.272-2.291V18.291C200,17.031,198.978,16,197.728,16L197.728,16z"/>
</g>
<g>
	<path fill="#FFFFFF" d="M192,24.201c0,1.031,0.899,1.875,2,1.875l0,0c1.1,0,2-0.844,2-1.875v-2.25c0-1.031-0.9-1.875-2-1.875l0,0
		c-1.101,0-2,0.844-2,1.875V24.201z"/>
	<path fill="#7F8083" d="M192.8,24.951c1.101,0,2-0.843,2-1.875v-2.25c0-0.223-0.049-0.434-0.125-0.632
		c0.768,0.262,1.325,0.948,1.325,1.757v2.25c0,1.031-0.9,1.875-2,1.875c-0.863,0-1.596-0.521-1.875-1.243
		C192.338,24.905,192.562,24.951,192.8,24.951z"/>
</g>
<g>
	<path fill="#FFFFFF" d="M192,52.231c0,1.03,0.899,1.874,2,1.874l0,0c1.1,0,2-0.844,2-1.874V49.98c0-1.03-0.9-1.875-2-1.875l0,0
		c-1.101,0-2,0.845-2,1.875V52.231z"/>
	<path fill="#7F8083" d="M192.8,52.98c1.101,0,2-0.843,2-1.875v-2.25c0-0.223-0.049-0.434-0.125-0.632
		c0.768,0.263,1.325,0.948,1.325,1.757v2.251c0,1.03-0.9,1.874-2,1.874c-0.863,0-1.596-0.521-1.875-1.242
		C192.338,52.936,192.562,52.98,192.8,52.98z"/>
</g>
<g>
	<path fill="#FFFFFF" d="M8,24.201c0,1.031-0.899,1.875-2,1.875l0,0c-1.1,0-2-0.844-2-1.875v-2.25c0-1.031,0.9-1.875,2-1.875l0,0
		c1.101,0,2,0.844,2,1.875V24.201z"/>
	<path fill="#7F8083" d="M7.2,24.951c-1.101,0-2-0.843-2-1.875v-2.25c0-0.223,0.049-0.434,0.125-0.632
		C4.558,20.456,4,21.142,4,21.951v2.25c0,1.031,0.9,1.875,2,1.875c0.863,0,1.596-0.521,1.875-1.243
		C7.662,24.905,7.438,24.951,7.2,24.951z"/>
</g>
<g>
	<path fill="#FFFFFF" d="M8,52.231c0,1.03-0.899,1.874-2,1.874l0,0c-1.1,0-2-0.844-2-1.874V49.98c0-1.03,0.9-1.875,2-1.875l0,0
		c1.101,0,2,0.845,2,1.875V52.231z"/>
	<path fill="#7F8083" d="M7.2,52.98c-1.101,0-2-0.843-2-1.875v-2.25c0-0.223,0.049-0.434,0.125-0.632C4.558,48.486,4,49.172,4,49.98
		v2.251c0,1.03,0.9,1.874,2,1.874c0.863,0,1.596-0.521,1.875-1.242C7.662,52.936,7.438,52.98,7.2,52.98z"/>
</g>
<rect x="186" y="17" fill="#7F8083" width="1" height="41"/>
<rect x="110" y="17" fill="#7F8083" width="1" height="41"/>
<rect x="13" y="17" fill="#7F8083" width="1" height="41"/>
<g>
	<path fill="#BABBBE" d="M180,24c0,0.55-0.338,1-0.749,1H150.75c-0.412,0-0.75-0.45-0.75-1v-1c0-0.55,0.338-1,0.75-1h28.501
		c0.411,0,0.749,0.45,0.749,1V24z"/>
	<path fill="#7F8083" d="M180,23c0,0.55-0.338,1-0.749,1H150.75c-0.412,0-0.75-0.45-0.75-1v-1c0-0.55,0.338-1,0.75-1h28.501
		c0.411,0,0.749,0.45,0.749,1V23z"/>
</g>
<g>
	<path fill="#BABBBE" d="M180,31c0,0.551-0.338,1-0.749,1H150.75c-0.412,0-0.75-0.449-0.75-1v-1c0-0.55,0.338-1,0.75-1h28.501
		c0.411,0,0.749,0.45,0.749,1V31z"/>
	<path fill="#7F8083" d="M180,30c0,0.551-0.338,1-0.749,1H150.75c-0.412,0-0.75-0.449-0.75-1v-1c0-0.55,0.338-1,0.75-1h28.501
		c0.411,0,0.749,0.45,0.749,1V30z"/>
</g>
<g>
	<path fill="#BABBBE" d="M180,38c0,0.551-0.338,1-0.749,1H150.75c-0.412,0-0.75-0.449-0.75-1v-1c0-0.551,0.338-1,0.75-1h28.501
		c0.411,0,0.749,0.449,0.749,1V38z"/>
	<path fill="#7F8083" d="M180,37c0,0.551-0.338,1-0.749,1H150.75c-0.412,0-0.75-0.449-0.75-1v-1c0-0.551,0.338-1,0.75-1h28.501
		c0.411,0,0.749,0.449,0.749,1V37z"/>
</g>
<g>
	<path fill="#BABBBE" d="M180,45c0,0.551-0.338,1-0.749,1H150.75c-0.412,0-0.75-0.449-0.75-1v-1c0-0.551,0.338-1,0.75-1h28.501
		c0.411,0,0.749,0.449,0.749,1V45z"/>
	<path fill="#7F8083" d="M180,44c0,0.551-0.338,1-0.749,1H150.75c-0.412,0-0.75-0.449-0.75-1v-1c0-0.551,0.338-1,0.75-1h28.501
		c0.411,0,0.749,0.449,0.749,1V44z"/>
</g>
<g>
	<path fill="#BABBBE" d="M180,52c0,0.551-0.338,1-0.749,1H150.75c-0.412,0-0.75-0.449-0.75-1v-1c0-0.551,0.338-1,0.75-1h28.501
		c0.411,0,0.749,0.449,0.749,1V52z"/>
	<path fill="#7F8083" d="M180,51c0,0.551-0.338,1-0.749,1H150.75c-0.412,0-0.75-0.449-0.75-1v-1c0-0.551,0.338-1,0.75-1h28.501
		c0.411,0,0.749,0.449,0.749,1V51z"/>
</g>
<g>
	<path fill="#BABBBE" d="M147,24c0,0.55-0.338,1-0.749,1H117.75c-0.412,0-0.75-0.45-0.75-1v-1c0-0.55,0.338-1,0.75-1h28.501
		c0.411,0,0.749,0.45,0.749,1V24z"/>
	<path fill="#7F8083" d="M147,23c0,0.55-0.338,1-0.749,1H117.75c-0.412,0-0.75-0.45-0.75-1v-1c0-0.55,0.338-1,0.75-1h28.501
		c0.411,0,0.749,0.45,0.749,1V23z"/>
</g>
<g>
	<path fill="#BABBBE" d="M147,31c0,0.551-0.338,1-0.749,1H117.75c-0.412,0-0.75-0.449-0.75-1v-1c0-0.55,0.338-1,0.75-1h28.501
		c0.411,0,0.749,0.45,0.749,1V31z"/>
	<path fill="#7F8083" d="M147,30c0,0.551-0.338,1-0.749,1H117.75c-0.412,0-0.75-0.449-0.75-1v-1c0-0.55,0.338-1,0.75-1h28.501
		c0.411,0,0.749,0.45,0.749,1V30z"/>
</g>
<g>
	<path fill="#BABBBE" d="M147,38c0,0.551-0.338,1-0.749,1H117.75c-0.412,0-0.75-0.449-0.75-1v-1c0-0.551,0.338-1,0.75-1h28.501
		c0.411,0,0.749,0.449,0.749,1V38z"/>
	<path fill="#7F8083" d="M147,37c0,0.551-0.338,1-0.749,1H117.75c-0.412,0-0.75-0.449-0.75-1v-1c0-0.551,0.338-1,0.75-1h28.501
		c0.411,0,0.749,0.449,0.749,1V37z"/>
</g>
<g>
	<path fill="#BABBBE" d="M147,45c0,0.551-0.338,1-0.749,1H117.75c-0.412,0-0.75-0.449-0.75-1v-1c0-0.551,0.338-1,0.75-1h28.501
		c0.411,0,0.749,0.449,0.749,1V45z"/>
	<path fill="#7F8083" d="M147,44c0,0.551-0.338,1-0.749,1H117.75c-0.412,0-0.75-0.449-0.75-1v-1c0-0.551,0.338-1,0.75-1h28.501
		c0.411,0,0.749,0.449,0.749,1V44z"/>
</g>
<g>
	<path fill="#BABBBE" d="M147,52c0,0.551-0.338,1-0.749,1H117.75c-0.412,0-0.75-0.449-0.75-1v-1c0-0.551,0.338-1,0.75-1h28.501
		c0.411,0,0.749,0.449,0.749,1V52z"/>
	<path fill="#7F8083" d="M147,51c0,0.551-0.338,1-0.749,1H117.75c-0.412,0-0.75-0.449-0.75-1v-1c0-0.551,0.338-1,0.75-1h28.501
		c0.411,0,0.749,0.449,0.749,1V51z"/>
</g>
<circle fill="#7F8083" cx="24" cy="26" r="4"/>
<circle fill="#CFD0D2" cx="24" cy="26" r="3"/>
<path fill="#CFD0D2" d="M90,41.5c-0.827,0-1.5-0.673-1.5-1.5v-4c0-0.827,0.673-1.5,1.5-1.5h12c0.827,0,1.5,0.673,1.5,1.5v4
	c0,0.827-0.673,1.5-1.5,1.5H90z"/>
<path fill="#7F8083" d="M102,35c0.55,0,1,0.45,1,1v4c0,0.55-0.45,1-1,1H90c-0.55,0-1-0.45-1-1v-4c0-0.55,0.45-1,1-1H102 M102,34H90
	c-1.103,0-2,0.896-2,2v4c0,1.104,0.897,2,2,2h12c1.103,0,2-0.896,2-2v-4C104,34.896,103.103,34,102,34L102,34z"/>
<path fill="#CFD0D2" d="M90,52.5c-0.827,0-1.5-0.673-1.5-1.5v-4c0-0.827,0.673-1.5,1.5-1.5h12c0.827,0,1.5,0.673,1.5,1.5v4
	c0,0.827-0.673,1.5-1.5,1.5H90z"/>
<path fill="#7F8083" d="M102,46c0.55,0,1,0.45,1,1v4c0,0.55-0.45,1-1,1H90c-0.55,0-1-0.45-1-1v-4c0-0.55,0.45-1,1-1H102 M102,45H90
	c-1.103,0-2,0.896-2,2v4c0,1.104,0.897,2,2,2h12c1.103,0,2-0.896,2-2v-4C104,45.896,103.103,45,102,45L102,45z"/>
</svg>
