<?xml version="1.0" encoding="utf-8"?>
<!-- Generator: Adobe Illustrator 15.1.0, SVG Export Plug-In . SVG Version: 6.00 Build 0)  -->
<!DOCTYPE svg PUBLIC "-//W3C//DTD SVG 1.1//EN" "http://www.w3.org/Graphics/SVG/1.1/DTD/svg11.dtd">
<svg version="1.1" id="Layer_1" xmlns="http://www.w3.org/2000/svg" xmlns:xlink="http://www.w3.org/1999/xlink" x="0px" y="0px"
	 width="88px" height="176px" viewBox="0 0 88 176" enable-background="new 0 0 88 176" xml:space="preserve">
<circle fill="#E0E0E0" cx="66" cy="66" r="22"/>
<circle fill="#E0E0E0" cx="66" cy="154" r="22"/>
<circle fill="#E0E0E0" cx="66" cy="110" r="22"/>
<circle fill="#E0E0E0" cx="66" cy="22" r="22"/>
<g>
	<path fill="#5988A5" d="M22,5c9.374,0,17,7.626,17,17s-7.626,17-17,17S5,31.374,5,22S12.626,5,22,5 M22,2C10.954,2,2,10.954,2,22
		s8.954,20,20,20c11.045,0,20-8.954,20-20S33.045,2,22,2L22,2z"/>
</g>
<g>
	<g>
		<path fill="#5988A5" d="M22,49c9.374,0,17,7.626,17,17s-7.626,17-17,17S5,75.374,5,66S12.626,49,22,49 M22,46
			C10.954,46,2,54.954,2,66s8.954,20,20,20c11.045,0,20-8.954,20-20S33.045,46,22,46L22,46z"/>
	</g>
</g>
<path fill="#5988A5" d="M55.241,163.967c0.008,0,0.017-0.002,0.022-0.002l0.016-0.023C55.27,163.948,55.256,163.957,55.241,163.967z
	"/>
<path d="M55.18,164.008c0.021-0.015,0.041-0.027,0.062-0.041c-0.014,0-0.024,0.002-0.037,0.002L55.18,164.008z"/>
<g>
	<g>
		<g>
			<path fill="#5988A5" d="M22,137c9.374,0,17,7.626,17,17s-7.626,17-17,17s-17-7.626-17-17S12.626,137,22,137 M22,134
				c-11.046,0-20,8.954-20,20s8.954,20,20,20c11.045,0,20-8.954,20-20S33.045,134,22,134L22,134z"/>
		</g>
	</g>
	<g>
		<path fill="#5988A5" d="M22,160.215c5.128,0,9.418,0.631,10.5,1.475l-3.663-5.797c0.011-0.136,0.015-0.271,0.015-0.406v-5.68
			c0-3.224-2.416-5.928-5.582-6.508c0-0.023,0.004-0.045,0.004-0.07C23.271,142.551,22.702,142,22,142s-1.272,0.551-1.272,1.229
			c0,0.024,0.003,0.047,0.003,0.07c-3.167,0.579-5.582,3.284-5.582,6.508v5.678c0,0.138,0.005,0.271,0.015,0.406l-3.664,5.797
			C12.582,160.848,16.871,160.215,22,160.215z"/>
		<path fill="#5988A5" d="M19.065,161.232C19.106,162.768,20.403,164,22,164c1.598,0,2.895-1.232,2.936-2.768
			c-0.934-0.045-1.916-0.072-2.936-0.072C20.982,161.16,19.999,161.188,19.065,161.232z"/>
	</g>
</g>
<g>
	<g>
		<path fill="#5988A5" d="M22,93c9.374,0,17,7.626,17,17s-7.626,17-17,17s-17-7.626-17-17S12.626,93,22,93 M22,90
			c-11.046,0-20,8.954-20,20s8.954,20,20,20c11.045,0,20-8.954,20-20S33.045,90,22,90L22,90z"/>
	</g>
	<path fill="#5988A5" d="M25.105,114.211c0-1.396,1.131-0.941,1.627-3.498c0.205-1.061,1.205-0.018,1.396-2.438
		c0-0.965-0.544-1.207-0.544-1.207s0.274-1.426,0.383-2.524c0.136-1.368-0.827-4.905-5.968-4.905c-5.143,0-6.104,3.537-5.971,4.906
		c0.109,1.1,0.386,2.525,0.386,2.525s-0.544,0.24-0.544,1.205c0.189,2.42,1.189,1.379,1.395,2.438
		c0.496,2.559,1.627,2.102,1.627,3.498c0,2.325-1.183,3.412-4.887,4.698c-0.729,0.254-1.386,0.507-2.006,0.76
		c2.561,2.449,6.098,3.97,10,3.97s7.439-1.521,9.999-3.97c-0.62-0.252-1.276-0.506-2.006-0.76
		C26.29,117.623,25.105,116.536,25.105,114.211z"/>
</g>
<path fill="#5988A5" d="M66,5c9.374,0,17,7.626,17,17s-7.626,17-17,17s-17-7.626-17-17S56.626,5,66,5 M66,2
	c-11.046,0-20,8.954-20,20s8.954,20,20,20c11.045,0,20-8.954,20-20S77.045,2,66,2L66,2z"/>
<g>
	<g>
		<path fill="#5988A5" d="M66,49c9.374,0,17,7.626,17,17s-7.626,17-17,17s-17-7.626-17-17S56.626,49,66,49 M66,46
			c-11.046,0-20,8.954-20,20s8.954,20,20,20c11.045,0,20-8.954,20-20S77.045,46,66,46L66,46z"/>
	</g>
</g>
<g>
	<g>
		<g>
			<path fill="#5988A5" d="M66,137c9.374,0,17,7.626,17,17s-7.626,17-17,17s-17-7.626-17-17S56.626,137,66,137 M66,134
				c-11.046,0-20,8.954-20,20s8.954,20,20,20c11.045,0,20-8.954,20-20S77.045,134,66,134L66,134z"/>
		</g>
	</g>
	<g>
		<g>
			<path fill="#5988A5" d="M66,160.871c5.594,0,10.273,0.688,11.454,1.607l-3.996-6.324c0.013-0.146,0.017-0.295,0.017-0.442v-6.194
				c0-3.518-2.636-6.468-6.09-7.101c0-0.024,0.006-0.049,0.006-0.077C67.387,141.602,66.766,141,66,141s-1.387,0.602-1.387,1.34
				c0,0.027,0.002,0.053,0.002,0.077c-3.454,0.632-6.09,3.583-6.09,7.101v6.192c0,0.147,0.007,0.297,0.018,0.442l-3.997,6.324
				C55.727,161.562,60.404,160.871,66,160.871z"/>
		</g>
		<g>
			<path fill="#5988A5" d="M62.798,161.98C62.843,163.654,64.257,165,66,165s3.157-1.346,3.202-3.02
				c-1.019-0.049-2.091-0.078-3.202-0.078C64.891,161.902,63.816,161.932,62.798,161.98z"/>
		</g>
	</g>
</g>
<g>
	<g>
		<path fill="#5988A5" d="M66,93c9.374,0,17,7.626,17,17s-7.626,17-17,17s-17-7.626-17-17S56.626,93,66,93 M66,90
			c-11.046,0-20,8.954-20,20s8.954,20,20,20c11.045,0,20-8.954,20-20S77.045,90,66,90L66,90z"/>
	</g>
	<path fill="#5988A5" d="M69.363,114.426c0-1.514,1.227-1.021,1.764-3.79c0.223-1.149,1.307-0.019,1.514-2.641
		c0-1.045-0.59-1.308-0.59-1.308s0.297-1.545,0.414-2.734c0.146-1.482-0.896-5.314-6.465-5.314c-5.57,0-6.611,3.832-6.468,5.315
		c0.118,1.19,0.417,2.735,0.417,2.735s-0.59,0.261-0.59,1.306c0.205,2.622,1.289,1.494,1.512,2.642
		c0.537,2.771,1.763,2.275,1.763,3.79c0,2.519-1.28,3.696-5.294,5.089c-0.789,0.275-1.501,0.551-2.173,0.823
		c2.772,2.653,6.604,4.3,10.833,4.3s8.061-1.646,10.832-4.3c-0.672-0.272-1.383-0.548-2.173-0.823
		C70.646,118.122,69.363,116.943,69.363,114.426z"/>
</g>
<rect x="8" y="65" fill="#5988A5" width="28" height="2"/>
<rect x="52" y="65" fill="#5988A5" width="28" height="2"/>
</svg>
