<?xml version="1.0" encoding="utf-8"?>
<!-- Generator: Adobe Illustrator 16.0.0, SVG Export Plug-In . SVG Version: 6.00 Build 0)  -->
<!DOCTYPE svg PUBLIC "-//W3C//DTD SVG 1.1//EN" "http://www.w3.org/Graphics/SVG/1.1/DTD/svg11.dtd">
<svg version="1.1" id="Layer_1" xmlns="http://www.w3.org/2000/svg" xmlns:xlink="http://www.w3.org/1999/xlink" x="0px" y="0px"
	 width="88px" height="176px" viewBox="0 0 88 176" enable-background="new 0 0 88 176" xml:space="preserve">
<circle fill="#E0E0E0" cx="66" cy="66" r="22"/>
<circle fill="#E0E0E0" cx="66" cy="154" r="22"/>
<circle fill="#E0E0E0" cx="66" cy="110" r="22"/>
<circle fill="#E0E0E0" cx="66" cy="22" r="22"/>
<g>
	<path fill="#5988A5" d="M22,5c9.374,0,17,7.626,17,17s-7.626,17-17,17S5,31.374,5,22S12.626,5,22,5 M22,2C10.954,2,2,10.954,2,22
		s8.954,20,20,20c11.045,0,20-8.954,20-20S33.045,2,22,2L22,2z"/>
</g>
<g>
	<g>
		<g>
			<path fill="#5988A5" d="M22,49c9.374,0,17,7.626,17,17s-7.626,17-17,17S5,75.374,5,66S12.626,49,22,49 M22,46
				C10.954,46,2,54.954,2,66s8.954,20,20,20c11.045,0,20-8.954,20-20S33.045,46,22,46L22,46z"/>
		</g>
	</g>
	<path fill="#5988A5" d="M17,66c0-1.332,0.527-2.534,1.377-3.43l-4.054-5.79C11.684,58.981,10,62.293,10,66
		c0,1.091,0.158,2.143,0.432,3.146l6.643-2.418C17.038,66.489,17,66.25,17,66z"/>
	<path fill="#5988A5" d="M21.863,61.014l1.228-6.958C22.73,54.022,22.368,54,22,54c-2.202,0-4.26,0.604-6.034,1.639l4.046,5.777
		C20.581,61.168,21.207,61.032,21.863,61.014z"/>
	<path fill="#5988A5" d="M23.988,70.584c-0.569,0.248-1.195,0.385-1.854,0.402C22.09,70.986,22.047,71,22,71
		c-0.648,0-1.266-0.133-1.834-0.357c-1.01-0.399-1.85-1.117-2.413-2.031l-6.639,2.416c1.485,3.211,4.344,5.646,7.825,6.563
		c0.64,0.169,1.293,0.293,1.97,0.354C21.27,77.979,21.632,78,22,78c2.202,0,4.26-0.604,6.033-1.639L23.988,70.584z"/>
	<path fill="#5988A5" d="M33.568,62.854c-0.176-0.65-0.404-1.278-0.684-1.88c-1.484-3.211-4.344-5.647-7.826-6.565l-1.226,6.949
		c1.01,0.399,1.851,1.118,2.413,2.032c0.347,0.563,0.579,1.199,0.68,1.881C26.962,65.511,27,65.75,27,66
		c0,1.332-0.527,2.534-1.377,3.43l4.054,5.79C32.316,73.02,34,69.706,34,66C34,64.909,33.842,63.858,33.568,62.854z"/>
</g>
<path fill="#5988A5" d="M55.241,163.967c0.008,0,0.017-0.002,0.023-0.002l0.016-0.024C55.269,163.948,55.256,163.957,55.241,163.967
	z"/>
<path d="M55.18,164.008c0.019-0.015,0.04-0.027,0.062-0.041c-0.013,0-0.024,0.002-0.037,0.002L55.18,164.008z"/>
<g>
	<g>
		<g>
			<path fill="#5988A5" d="M22,137c9.374,0,17,7.626,17,17s-7.626,17-17,17s-17-7.626-17-17S12.626,137,22,137 M22,134
				c-11.046,0-20,8.954-20,20s8.954,20,20,20c11.045,0,20-8.954,20-20S33.045,134,22,134L22,134z"/>
		</g>
	</g>
	<g>
		<path fill="#5988A5" d="M22,160.215c5.128,0,9.418,0.631,10.5,1.475l-3.663-5.797c0.011-0.136,0.015-0.271,0.015-0.406v-5.68
			c0-3.224-2.416-5.928-5.582-6.508c0-0.023,0.004-0.045,0.004-0.07C23.271,142.551,22.702,142,22,142s-1.272,0.551-1.272,1.229
			c0,0.024,0.003,0.047,0.003,0.07c-3.167,0.579-5.582,3.284-5.582,6.508v5.678c0,0.136,0.005,0.271,0.015,0.406l-3.664,5.797
			C12.582,160.848,16.871,160.215,22,160.215z"/>
		<path fill="#5988A5" d="M19.065,161.232C19.106,162.768,20.403,164,22,164c1.598,0,2.895-1.232,2.936-2.768
			c-0.934-0.045-1.916-0.072-2.936-0.072C20.982,161.16,19.999,161.188,19.065,161.232z"/>
	</g>
</g>
<g>
	<g>
		<path fill="#5988A5" d="M22,93c9.374,0,17,7.626,17,17s-7.626,17-17,17s-17-7.626-17-17S12.626,93,22,93 M22,90
			c-11.046,0-20,8.954-20,20s8.954,20,20,20c11.045,0,20-8.954,20-20S33.045,90,22,90L22,90z"/>
	</g>
	<path fill="#5988A5" d="M25.105,114.211c0-1.396,1.131-0.941,1.627-3.498c0.205-1.061,1.205-0.018,1.396-2.438
		c0-0.965-0.544-1.207-0.544-1.207s0.274-1.426,0.383-2.524c0.136-1.368-0.827-4.905-5.968-4.905c-5.143,0-6.104,3.537-5.971,4.906
		c0.109,1.1,0.386,2.525,0.386,2.525s-0.544,0.24-0.544,1.205c0.189,2.42,1.189,1.379,1.395,2.438
		c0.496,2.558,1.627,2.101,1.627,3.498c0,2.325-1.183,3.412-4.887,4.698c-0.729,0.254-1.386,0.507-2.006,0.76
		c2.561,2.449,6.098,3.969,10,3.969s7.439-1.52,9.999-3.969c-0.62-0.252-1.276-0.506-2.006-0.76
		C26.29,117.623,25.105,116.536,25.105,114.211z"/>
</g>
<path fill="#5988A5" d="M66,5c9.374,0,17,7.626,17,17s-7.626,17-17,17s-17-7.626-17-17S56.626,5,66,5 M66,2
	c-11.046,0-20,8.954-20,20s8.954,20,20,20c11.045,0,20-8.954,20-20S77.045,2,66,2L66,2z"/>
<g>
	<g>
		<g>
			<path fill="#5988A5" d="M66,49c9.374,0,17,7.626,17,17s-7.626,17-17,17s-17-7.626-17-17S56.626,49,66,49 M66,46
				c-11.046,0-20,8.954-20,20s8.954,20,20,20c11.045,0,20-8.954,20-20S77.045,46,66,46L66,46z"/>
		</g>
	</g>
	<g>
		<path fill="#5988A5" d="M60.583,66c0-1.443,0.571-2.745,1.492-3.716l-4.392-6.272C54.824,58.396,53,61.984,53,66
			c0,1.182,0.172,2.321,0.468,3.409l7.196-2.62C60.625,66.53,60.583,66.271,60.583,66z"/>
		<path fill="#5988A5" d="M65.852,60.599l1.33-7.538C66.791,53.024,66.398,53,66,53c-2.386,0-4.614,0.654-6.537,1.776l4.383,6.258
			C64.463,60.765,65.141,60.618,65.852,60.599z"/>
		<path fill="#5988A5" d="M68.154,70.966c-0.617,0.269-1.295,0.417-2.008,0.436c-0.049,0-0.096,0.015-0.146,0.015
			c-0.702,0-1.371-0.144-1.986-0.387c-1.095-0.433-2.004-1.21-2.614-2.2l-7.192,2.617c1.609,3.479,4.706,6.117,8.478,7.11
			c0.692,0.183,1.4,0.317,2.134,0.384C65.209,78.977,65.602,79,66,79c2.386,0,4.615-0.654,6.536-1.775L68.154,70.966z"/>
		<path fill="#5988A5" d="M78.532,62.592c-0.19-0.704-0.438-1.384-0.74-2.037c-1.608-3.479-4.706-6.117-8.479-7.112l-1.328,7.528
			c1.095,0.432,2.005,1.211,2.614,2.202c0.376,0.61,0.628,1.298,0.736,2.038c0.039,0.259,0.081,0.519,0.081,0.79
			c0,1.443-0.571,2.745-1.492,3.715l4.392,6.273C77.176,73.604,79,70.015,79,66C79,64.818,78.828,63.679,78.532,62.592z"/>
	</g>
</g>
<g>
	<g>
		<g>
			<path fill="#5988A5" d="M66,137c9.374,0,17,7.626,17,17s-7.626,17-17,17s-17-7.626-17-17S56.626,137,66,137 M66,134
				c-11.046,0-20,8.954-20,20s8.954,20,20,20c11.045,0,20-8.954,20-20S77.045,134,66,134L66,134z"/>
		</g>
	</g>
	<g>
		<g>
			<path fill="#5988A5" d="M66,160.871c5.594,0,10.274,0.688,11.454,1.608l-3.996-6.324c0.012-0.147,0.017-0.296,0.017-0.443v-6.195
				c0-3.517-2.636-6.467-6.09-7.1c0-0.025,0.005-0.049,0.005-0.077C67.387,141.601,66.766,141,66,141s-1.387,0.601-1.387,1.34
				c0,0.027,0.002,0.052,0.002,0.077c-3.454,0.632-6.09,3.583-6.09,7.1v6.193c0,0.148,0.007,0.297,0.018,0.443l-3.997,6.324
				C55.726,161.562,60.405,160.871,66,160.871z"/>
		</g>
		<g>
			<path fill="#5988A5" d="M62.798,161.98C62.843,163.655,64.257,165,66,165s3.157-1.345,3.202-3.02
				c-1.019-0.049-2.09-0.078-3.202-0.078C64.89,161.902,63.817,161.932,62.798,161.98z"/>
		</g>
	</g>
</g>
<g>
	<g>
		<path fill="#5988A5" d="M66,93c9.374,0,17,7.626,17,17s-7.626,17-17,17s-17-7.626-17-17S56.626,93,66,93 M66,90
			c-11.046,0-20,8.954-20,20s8.954,20,20,20c11.045,0,20-8.954,20-20S77.045,90,66,90L66,90z"/>
	</g>
	<path fill="#5988A5" d="M69.364,114.426c0-1.514,1.226-1.021,1.763-3.79c0.222-1.149,1.306-0.019,1.513-2.641
		c0-1.045-0.589-1.308-0.589-1.308s0.297-1.545,0.414-2.734c0.147-1.482-0.896-5.314-6.465-5.314c-5.571,0-6.612,3.832-6.468,5.315
		c0.118,1.19,0.417,2.735,0.417,2.735s-0.589,0.261-0.589,1.306c0.205,2.622,1.289,1.494,1.511,2.642
		c0.537,2.771,1.763,2.275,1.763,3.79c0,2.519-1.281,3.696-5.294,5.089c-0.789,0.275-1.501,0.55-2.173,0.823
		c2.773,2.653,6.605,4.3,10.833,4.3s8.06-1.646,10.832-4.3c-0.672-0.272-1.383-0.548-2.173-0.823
		C70.647,118.122,69.364,116.944,69.364,114.426z"/>
</g>
</svg>
