<?xml version="1.0" encoding="utf-8"?>
<!-- Generator: Adobe Illustrator 16.0.4, SVG Export Plug-In . SVG Version: 6.00 Build 0)  -->
<!DOCTYPE svg PUBLIC "-//W3C//DTD SVG 1.1//EN" "http://www.w3.org/Graphics/SVG/1.1/DTD/svg11.dtd">
<svg version="1.1" id="Layer_1" xmlns="http://www.w3.org/2000/svg" xmlns:xlink="http://www.w3.org/1999/xlink" x="0px" y="0px"
	 width="80px" height="240px" viewBox="-257.5 540.5 80 240" enable-background="new -257.5 540.5 80 240" xml:space="preserve">
<path fill="#FFFFFF" d="M-191.055,640.545c0.028-0.179,0.055-0.358,0.055-0.545c0-1.934-1.567-3.5-3.5-3.5
	c-0.718,0-1.385,0.218-1.94,0.589c-0.72-1.526-2.26-2.589-4.06-2.589c-2.485,0-4.5,2.015-4.5,4.5c0,0.614,0.125,1.199,0.348,1.732
	c-1.082,0.454-1.848,1.525-1.848,2.768c0,1.65,1.35,3,3,3h12c1.65,0,3-1.35,3-3C-188.5,642.002-189.616,640.764-191.055,640.545z"/>
<line x1="-257.5" y1="580.5" x2="-177.499" y2="580.5"/>
<line x1="-257.5" y1="620.5" x2="-177.499" y2="620.5"/>
<line x1="-257.5" y1="660.5" x2="-177.499" y2="660.5"/>
<line x1="-257.5" y1="700.5" x2="-177.499" y2="700.5"/>
<line x1="-257.5" y1="740.5" x2="-177.499" y2="740.5"/>
<line x1="-217.5" y1="540.5" x2="-217.5" y2="780.499"/>
<g>
	<path fill="#8C8C8C" d="M-228.923,561.479h2.244c0.117-0.642,0.179-1.304,0.179-1.979s-0.062-1.338-0.18-1.979h-2.244
		c-0.223-0.965-0.604-1.87-1.113-2.685l1.589-1.587c-0.757-1.094-1.706-2.043-2.801-2.801l-1.587,1.588
		c-0.814-0.511-1.719-0.892-2.686-1.113v-2.245c-0.64-0.117-1.302-0.178-1.978-0.178s-1.338,0.061-1.98,0.178v2.246
		c-0.965,0.223-1.869,0.604-2.684,1.113l-1.586-1.588c-1.094,0.757-2.043,1.707-2.801,2.801l1.588,1.587
		c-0.51,0.815-0.891,1.719-1.113,2.684h-2.245c-0.117,0.642-0.179,1.304-0.179,1.979s0.061,1.338,0.178,1.979h2.246
		c0.222,0.967,0.603,1.869,1.113,2.687l-1.588,1.587c0.757,1.097,1.707,2.044,2.801,2.802l1.587-1.59
		c0.815,0.514,1.719,0.895,2.684,1.113v2.242c0.642,0.117,1.304,0.18,1.979,0.18s1.338-0.062,1.979-0.18v-2.244
		c0.967-0.223,1.869-0.604,2.687-1.113l1.587,1.589c1.096-0.757,2.044-1.706,2.801-2.801l-1.589-1.587
		C-229.525,563.351-229.146,562.444-228.923,561.479z M-237.5,564.778c-2.916,0-5.28-2.362-5.28-5.278s2.364-5.28,5.28-5.28
		s5.28,2.365,5.28,5.28C-232.22,562.416-234.583,564.778-237.5,564.778z"/>
	<g opacity="0.25">
		<path d="M-245.325,564.524l-1.226,1.227c0.136,0.196,0.284,0.382,0.432,0.566l1.156-1.153
			C-245.091,564.957-245.212,564.744-245.325,564.524z"/>
		<path d="M-235.521,551.923c0.967,0.222,1.871,0.603,2.687,1.113l1.587-1.588c0.898,0.622,1.691,1.378,2.368,2.231l0.433-0.432
			c-0.757-1.094-1.705-2.043-2.801-2.801l-1.587,1.588c-0.813-0.51-1.72-0.891-2.687-1.113V551.923z"/>
		<path d="M-232.22,560.5c0-0.171-0.034-0.333-0.051-0.5c-0.256,2.678-2.483,4.778-5.229,4.778c-2.745,0-4.974-2.103-5.229-4.778
			c-0.016,0.167-0.05,0.329-0.05,0.5c0,2.916,2.364,5.278,5.28,5.278S-232.22,563.416-232.22,560.5z"/>
		<path d="M-229.674,555.475l-0.362,0.361c0.51,0.815,0.891,1.72,1.113,2.685h2.244c0.088,0.481,0.134,0.978,0.156,1.479
			c0.008-0.167,0.023-0.332,0.023-0.5c0-0.676-0.062-1.338-0.18-1.979h-2.244C-229.089,556.8-229.345,556.114-229.674,555.475z"/>
		<path d="M-230.037,565.164l1.156,1.153c0.148-0.187,0.297-0.37,0.433-0.566l-1.226-1.227
			C-229.786,564.744-229.907,564.957-230.037,565.164z"/>
		<path d="M-248.321,558.521h2.245c0.222-0.965,0.603-1.869,1.113-2.684l-0.363-0.362c-0.33,0.642-0.584,1.326-0.75,2.046h-2.245
			c-0.117,0.642-0.179,1.304-0.179,1.979c0,0.168,0.015,0.333,0.022,0.5C-248.455,559.498-248.41,559.002-248.321,558.521z"/>
		<path d="M-235.521,549.678v-1c-0.641-0.117-1.303-0.178-1.979-0.178s-1.338,0.061-1.98,0.178v1
			c0.643-0.117,1.305-0.178,1.98-0.178S-236.162,549.561-235.521,549.678z"/>
		<path d="M-243.75,551.449l1.587,1.588c0.815-0.51,1.719-0.891,2.684-1.113v-1c-0.965,0.223-1.869,0.604-2.684,1.113l-1.587-1.588
			c-1.094,0.757-2.043,1.707-2.801,2.801l0.433,0.432C-245.441,552.828-244.648,552.07-243.75,551.449z"/>
	</g>
	<g opacity="0.4">
		<path fill="#FFFFFF" d="M-229.674,555.475l1.227-1.226c-0.136-0.196-0.284-0.382-0.433-0.567l-1.156,1.154
			C-229.907,555.043-229.787,555.256-229.674,555.475z"/>
		<path fill="#FFFFFF" d="M-244.963,554.837l-1.155-1.155c-0.148,0.188-0.297,0.373-0.433,0.568l1.225,1.225
			C-245.213,555.257-245.092,555.044-244.963,554.837z"/>
		<path fill="#FFFFFF" d="M-245.325,564.524l0.362-0.36c-0.51-0.815-0.891-1.72-1.113-2.687h-2.245
			c-0.088-0.479-0.133-0.978-0.156-1.479c-0.007,0.168-0.023,0.332-0.023,0.501c0,0.676,0.061,1.338,0.178,1.979h2.246
			C-245.91,563.2-245.656,563.886-245.325,564.524z"/>
		<path fill="#FFFFFF" d="M-237.5,554.22c-2.916,0-5.28,2.364-5.28,5.28c0,0.171,0.035,0.333,0.05,0.5
			c0.256-2.678,2.485-4.78,5.229-4.78c2.745,0,4.974,2.104,5.229,4.78c0.017-0.167,0.051-0.329,0.051-0.5
			C-232.22,556.585-234.583,554.22-237.5,554.22z"/>
		<path fill="#FFFFFF" d="M-231.249,568.552l-1.587-1.589c-0.816,0.51-1.719,0.891-2.686,1.113v1
			c0.967-0.223,1.869-0.604,2.686-1.113l1.587,1.589c1.095-0.757,2.044-1.706,2.801-2.801l-0.433-0.434
			C-229.556,567.174-230.351,567.932-231.249,568.552z"/>
		<path fill="#FFFFFF" d="M-226.679,561.479h-2.244c-0.223,0.967-0.602,1.871-1.113,2.687l0.363,0.362
			c0.33-0.641,0.584-1.326,0.75-2.049h2.244c0.117-0.642,0.179-1.304,0.179-1.979c0-0.169-0.016-0.333-0.021-0.5
			C-226.545,560.502-226.591,560.998-226.679,561.479z"/>
		<path fill="#FFFFFF" d="M-239.479,568.076c-0.965-0.221-1.869-0.602-2.684-1.113l-1.587,1.589c-0.898-0.62-1.692-1.378-2.369-2.23
			l-0.432,0.432c0.757,1.097,1.707,2.044,2.801,2.802l1.587-1.59c0.815,0.514,1.719,0.895,2.684,1.113V568.076z"/>
		<path fill="#FFFFFF" d="M-239.479,570.32v1c0.642,0.117,1.304,0.18,1.979,0.18s1.338-0.062,1.979-0.18v-1
			c-0.641,0.117-1.303,0.18-1.979,0.18S-238.837,570.438-239.479,570.32z"/>
	</g>
</g>
<g>
	<path fill="#5988A5" d="M-188.924,561.479h2.244c0.117-0.642,0.18-1.304,0.18-1.979s-0.062-1.338-0.18-1.979h-2.244
		c-0.223-0.965-0.604-1.87-1.113-2.685l1.589-1.587c-0.757-1.094-1.706-2.043-2.801-2.801l-1.587,1.588
		c-0.814-0.511-1.719-0.892-2.686-1.113v-2.245c-0.641-0.117-1.303-0.178-1.979-0.178s-1.338,0.061-1.98,0.178v2.246
		c-0.965,0.223-1.869,0.604-2.684,1.113l-1.587-1.588c-1.095,0.757-2.043,1.707-2.802,2.801l1.589,1.587
		c-0.511,0.815-0.892,1.719-1.113,2.684h-2.243c-0.117,0.642-0.18,1.304-0.18,1.979s0.062,1.338,0.18,1.979h2.244
		c0.223,0.967,0.604,1.869,1.113,2.687l-1.588,1.587c0.757,1.097,1.707,2.044,2.801,2.802l1.587-1.59
		c0.815,0.514,1.72,0.895,2.685,1.113v2.242c0.641,0.117,1.303,0.18,1.979,0.18s1.338-0.062,1.979-0.18v-2.244
		c0.967-0.223,1.869-0.604,2.688-1.113l1.587,1.589c1.098-0.757,2.044-1.706,2.803-2.801l-1.591-1.587
		C-189.525,563.351-189.146,562.444-188.924,561.479z M-197.5,564.778c-2.916,0-5.279-2.362-5.279-5.278s2.363-5.28,5.279-5.28
		s5.279,2.365,5.279,5.28C-192.221,562.416-194.584,564.778-197.5,564.778z"/>
	<g opacity="0.25">
		<path d="M-205.325,564.524l-1.226,1.227c0.136,0.196,0.283,0.382,0.432,0.566l1.156-1.153
			C-205.092,564.957-205.213,564.744-205.325,564.524z"/>
		<path d="M-195.521,551.923c0.967,0.222,1.871,0.603,2.688,1.113l1.587-1.588c0.896,0.622,1.689,1.378,2.368,2.231l0.435-0.432
			c-0.759-1.094-1.705-2.043-2.803-2.801l-1.587,1.588c-0.812-0.51-1.722-0.891-2.688-1.113V551.923z"/>
		<path d="M-192.221,560.5c0-0.171-0.034-0.333-0.051-0.5c-0.256,2.678-2.483,4.778-5.229,4.778c-2.745,0-4.974-2.103-5.229-4.778
			c-0.016,0.167-0.049,0.329-0.049,0.5c0,2.916,2.363,5.278,5.279,5.278S-192.221,563.416-192.221,560.5z"/>
		<path d="M-189.675,555.475l-0.362,0.361c0.51,0.815,0.891,1.72,1.113,2.685h2.244c0.088,0.481,0.134,0.978,0.156,1.479
			c0.008-0.167,0.023-0.332,0.023-0.5c0-0.676-0.062-1.338-0.18-1.979h-2.244C-189.09,556.8-189.346,556.114-189.675,555.475z"/>
		<path d="M-190.037,565.164l1.156,1.153c0.148-0.187,0.297-0.37,0.433-0.566l-1.226-1.227
			C-189.786,564.744-189.907,564.957-190.037,565.164z"/>
		<path d="M-208.32,558.521h2.243c0.224-0.965,0.604-1.869,1.113-2.684l-0.363-0.362c-0.33,0.642-0.584,1.326-0.75,2.046h-2.243
			c-0.117,0.642-0.18,1.304-0.18,1.979c0,0.168,0.016,0.333,0.021,0.5C-208.455,559.498-208.41,559.002-208.32,558.521z"/>
		<path d="M-195.521,549.678v-1c-0.641-0.117-1.303-0.178-1.979-0.178s-1.338,0.061-1.98,0.178v1
			c0.643-0.117,1.305-0.178,1.98-0.178S-196.162,549.561-195.521,549.678z"/>
		<path d="M-203.751,551.449l1.587,1.588c0.814-0.51,1.719-0.891,2.684-1.113v-1c-0.965,0.223-1.869,0.604-2.684,1.113l-1.587-1.588
			c-1.095,0.757-2.043,1.707-2.801,2.801l0.433,0.432C-205.441,552.828-204.648,552.07-203.751,551.449z"/>
	</g>
	<g opacity="0.4">
		<path fill="#FFFFFF" d="M-189.675,555.475l1.227-1.226c-0.136-0.196-0.284-0.382-0.433-0.567l-1.156,1.154
			C-189.907,555.043-189.787,555.256-189.675,555.475z"/>
		<path fill="#FFFFFF" d="M-204.964,554.837l-1.155-1.155c-0.146,0.188-0.297,0.373-0.433,0.568l1.225,1.225
			C-205.214,555.257-205.093,555.044-204.964,554.837z"/>
		<path fill="#FFFFFF" d="M-205.325,564.524l0.362-0.36c-0.51-0.815-0.891-1.72-1.113-2.687h-2.244
			c-0.09-0.479-0.135-0.978-0.156-1.479c-0.008,0.168-0.023,0.332-0.023,0.501c0,0.676,0.062,1.338,0.18,1.979h2.244
			C-205.91,563.2-205.656,563.886-205.325,564.524z"/>
		<path fill="#FFFFFF" d="M-197.5,554.22c-2.916,0-5.279,2.364-5.279,5.28c0,0.171,0.034,0.333,0.049,0.5
			c0.256-2.678,2.485-4.78,5.229-4.78c2.745,0,4.974,2.104,5.229,4.78c0.017-0.167,0.051-0.329,0.051-0.5
			C-192.221,556.585-194.584,554.22-197.5,554.22z"/>
		<path fill="#FFFFFF" d="M-191.249,568.552l-1.587-1.589c-0.816,0.51-1.719,0.891-2.686,1.113v1
			c0.967-0.223,1.869-0.604,2.686-1.113l1.587,1.589c1.095-0.757,2.044-1.706,2.802-2.801l-0.434-0.434
			C-189.557,567.174-190.352,567.932-191.249,568.552z"/>
		<path fill="#FFFFFF" d="M-186.68,561.479h-2.244c-0.223,0.967-0.602,1.871-1.113,2.687l0.363,0.362
			c0.33-0.641,0.584-1.326,0.75-2.049h2.244c0.117-0.642,0.18-1.304,0.18-1.979c0-0.169-0.016-0.333-0.021-0.5
			C-186.546,560.502-186.592,560.998-186.68,561.479z"/>
		<path fill="#FFFFFF" d="M-199.479,568.076c-0.965-0.221-1.869-0.602-2.688-1.113l-1.587,1.589c-0.896-0.62-1.688-1.378-2.369-2.23
			l-0.434,0.432c0.759,1.097,1.705,2.044,2.803,2.802l1.587-1.59c0.812,0.514,1.724,0.895,2.688,1.113V568.076z"/>
		<path fill="#FFFFFF" d="M-199.479,570.32v1c0.641,0.117,1.303,0.18,1.979,0.18s1.338-0.062,1.979-0.18v-1
			c-0.641,0.117-1.303,0.18-1.979,0.18S-198.838,570.438-199.479,570.32z"/>
	</g>
</g>
<g>
	<path fill="#E7E7E8" d="M-237.77,591.318c-4.561,0-8.271,3.67-8.271,8.182h-1.459l2.676,3.851l2.676-3.851h-1.545
		c0-3.23,2.657-5.859,5.923-5.859s5.924,2.629,5.924,5.859c0,3.231-2.658,5.86-5.924,5.86c-1.971,0-3.769-0.952-4.866-2.532
		l-1.394,2.004c1.559,1.803,3.815,2.851,6.26,2.851c4.56,0,8.27-3.67,8.27-8.183C-229.5,594.988-233.21,591.318-237.77,591.318z"/>
	<path fill="#E7E7E8" d="M-236.554,599.001v-3.66c-0.387-0.11-0.793-0.174-1.216-0.174s-0.83,0.063-1.217,0.174v2.415v2.044v0.199
		l0.143,0.141l1.459,1.444l1.727,1.708c0.723-0.395,1.32-0.986,1.72-1.701L-236.554,599.001z"/>
</g>
<g>
	<path fill="#5988A5" d="M-197.77,591.318c-4.562,0-8.271,3.67-8.271,8.182h-1.459l2.676,3.851l2.676-3.851h-1.545
		c0-3.23,2.657-5.859,5.924-5.859c3.27,0,5.924,2.629,5.924,5.859c0,3.231-2.654,5.86-5.924,5.86c-1.972,0-3.77-0.952-4.867-2.532
		l-1.393,2.004c1.559,1.803,3.814,2.851,6.26,2.851c4.562,0,8.271-3.67,8.271-8.183C-189.498,594.988-193.21,591.318-197.77,591.318
		z"/>
	<path fill="#5988A5" d="M-196.555,599.001v-3.66c-0.387-0.11-0.793-0.174-1.215-0.174c-0.424,0-0.83,0.063-1.217,0.174v2.415v2.044
		v0.199l0.143,0.141l1.459,1.444l1.728,1.708c0.724-0.395,1.32-0.986,1.72-1.701L-196.555,599.001z"/>
</g>
<path fill="#C17417" d="M-190.741,685.626l-6.231-11.355c-0.567-1.027-1.49-1.027-2.057,0l-6.23,11.355
	c-0.567,1.03-0.096,1.873,1.044,1.873h12.431C-190.646,687.499-190.175,686.656-190.741,685.626z M-198,685.999c-0.55,0-1-0.45-1-1
	s0.45-1,1-1s1,0.45,1,1S-197.45,685.999-198,685.999z M-196.896,682.003c-0.049,0.548-0.539,0.996-1.088,0.996
	c-0.551,0-1.043-0.448-1.095-0.996l-0.327-3.508c-0.052-0.548,0.356-0.996,0.906-0.996h1c0.55,0,0.961,0.448,0.912,0.996
	L-196.896,682.003z"/>
<path fill="#C94B4B" d="M-229.741,685.626l-6.231-11.355c-0.567-1.027-1.49-1.027-2.057,0l-6.23,11.355
	c-0.567,1.03-0.096,1.873,1.044,1.873h12.431C-229.646,687.499-229.174,686.656-229.741,685.626z M-237,685.999c-0.55,0-1-0.45-1-1
	s0.45-1,1-1s1,0.45,1,1S-236.45,685.999-237,685.999z M-235.896,682.003c-0.049,0.548-0.539,0.996-1.088,0.996
	c-0.551,0-1.043-0.448-1.095-0.996l-0.327-3.508c-0.052-0.548,0.356-0.996,0.906-0.996h1c0.55,0,0.961,0.448,0.912,0.996
	L-235.896,682.003z"/>
<g>
	<g opacity="0.25">
		<rect x="-253.5" y="726.5" fill="#FFFFFF" width="6" height="1"/>
		<rect x="-247.5" y="730.5" fill="#FFFFFF" width="3" height="1"/>
		<rect x="-227.5" y="726.5" fill="#FFFFFF" width="6" height="1"/>
		<rect x="-230.5" y="730.5" fill="#FFFFFF" width="3" height="1"/>
		<rect x="-244.5" y="733.5" fill="#FFFFFF" width="14" height="1"/>
	</g>
	<polygon fill="#297434" points="-227.5,707.5 -227.5,711.5 -229.5,711.5 -229.5,707.5 -230.5,707.5 -230.5,711.5 -232.5,711.5 
		-232.5,707.5 -233.5,707.5 -233.5,711.5 -235.5,711.5 -235.5,707.5 -236.5,707.5 -236.5,711.5 -238.5,711.5 -238.5,707.5 
		-239.5,707.5 -239.5,711.5 -241.5,711.5 -241.5,707.5 -242.5,707.5 -242.5,711.5 -244.5,711.5 -244.5,707.5 -245.5,707.5 
		-245.5,711.5 -247.5,711.5 -247.5,707.5 -253.5,707.5 -253.5,726.5 -247.5,726.5 -247.5,730.5 -244.5,730.5 -244.5,733.5 
		-230.5,733.5 -230.5,730.5 -227.5,730.5 -227.5,726.5 -221.5,726.5 -221.5,707.5 	"/>
	<g opacity="0.15">
		<rect x="-235.5" y="711.5" width="2" height="1"/>
		<rect x="-238.5" y="711.5" width="2" height="1"/>
		<rect x="-233.5" y="707.5" width="1" height="1"/>
		<rect x="-239.5" y="707.5" width="1" height="1"/>
		<rect x="-229.5" y="711.5" width="2" height="1"/>
		<rect x="-230.5" y="707.5" width="1" height="1"/>
		<rect x="-232.5" y="711.5" width="2" height="1"/>
		<rect x="-236.5" y="707.5" width="1" height="1"/>
		<rect x="-253.5" y="707.5" width="6" height="1"/>
		<rect x="-241.5" y="711.5" width="2" height="1"/>
		<rect x="-227.5" y="707.5" width="6" height="1"/>
		<rect x="-247.5" y="711.5" width="2" height="1"/>
		<rect x="-245.5" y="707.5" width="1" height="1"/>
		<rect x="-242.5" y="707.5" width="1" height="1"/>
		<rect x="-244.5" y="711.5" width="2" height="1"/>
	</g>
</g>
<g>
	<g opacity="0.25">
		<rect x="-213.5" y="726.5" fill="#FFFFFF" width="6" height="1"/>
		<rect x="-207.5" y="730.5" fill="#FFFFFF" width="3" height="1"/>
		<rect x="-187.5" y="726.5" fill="#FFFFFF" width="6" height="1"/>
		<rect x="-190.5" y="730.5" fill="#FFFFFF" width="3" height="1"/>
		<rect x="-204.5" y="733.5" fill="#FFFFFF" width="14" height="1"/>
	</g>
	<polygon fill="#6D6E71" points="-187.5,707.5 -187.5,711.5 -189.5,711.5 -189.5,707.5 -190.5,707.5 -190.5,711.5 -192.5,711.5 
		-192.5,707.5 -193.5,707.5 -193.5,711.5 -195.5,711.5 -195.5,707.5 -196.5,707.5 -196.5,711.5 -198.5,711.5 -198.5,707.5 
		-199.5,707.5 -199.5,711.5 -201.5,711.5 -201.5,707.5 -202.5,707.5 -202.5,711.5 -204.5,711.5 -204.5,707.5 -205.5,707.5 
		-205.5,711.5 -207.5,711.5 -207.5,707.5 -213.5,707.5 -213.5,726.5 -207.5,726.5 -207.5,730.5 -204.5,730.5 -204.5,733.5 
		-190.5,733.5 -190.5,730.5 -187.5,730.5 -187.5,726.5 -181.5,726.5 -181.5,707.5 	"/>
	<g opacity="0.2">
		<rect x="-195.5" y="711.5" width="2" height="1"/>
		<rect x="-198.5" y="711.5" width="2" height="1"/>
		<rect x="-193.5" y="707.5" width="1" height="1"/>
		<rect x="-199.5" y="707.5" width="1" height="1"/>
		<rect x="-189.5" y="711.5" width="2" height="1"/>
		<rect x="-190.5" y="707.5" width="1" height="1"/>
		<rect x="-192.5" y="711.5" width="2" height="1"/>
		<rect x="-196.5" y="707.5" width="1" height="1"/>
		<rect x="-213.5" y="707.5" width="6" height="1"/>
		<rect x="-201.5" y="711.5" width="2" height="1"/>
		<rect x="-187.5" y="707.5" width="6" height="1"/>
		<rect x="-207.5" y="711.5" width="2" height="1"/>
		<rect x="-205.5" y="707.5" width="1" height="1"/>
		<rect x="-202.5" y="707.5" width="1" height="1"/>
		<rect x="-204.5" y="711.5" width="2" height="1"/>
	</g>
</g>
<polygon fill="none" points="-237.469,752.5 -242.5,752.5 -242.5,766.5 -232.5,766.5 -232.5,757.469 -237.469,757.469 "/>
<g>
	<path fill="#5988A5" d="M-232.5,754.469l-1.969-1.969l-2-2h-1h-7.031v18h14v-11.031v-1L-232.5,754.469z M-232.5,766.5h-10v-14
		h5.031v4.969h4.969V766.5z"/>
</g>
<rect x="-240.5" y="759.792" opacity="0.6" fill="#5988A5" width="6" height="2"/>
<rect x="-240.5" y="762.792" opacity="0.6" fill="#5988A5" width="6" height="2"/>
<path fill="#FFFFFF" d="M-231.055,640.545c0.028-0.179,0.055-0.358,0.055-0.545c0-1.934-1.567-3.5-3.5-3.5
	c-0.718,0-1.385,0.218-1.94,0.589c-0.72-1.526-2.26-2.589-4.06-2.589c-2.485,0-4.5,2.015-4.5,4.5c0,0.614,0.125,1.199,0.348,1.732
	c-1.082,0.454-1.848,1.525-1.848,2.768c0,1.65,1.35,3,3,3h4v-3h-1l3-4l3,4h-1v3h4c1.65,0,3-1.35,3-3
	C-228.5,642.002-229.616,640.764-231.055,640.545z"/>
</svg>
