<?xml version="1.0" encoding="utf-8"?>
<!-- Generator: Adobe Illustrator 16.0.4, SVG Export Plug-In . SVG Version: 6.00 Build 0)  -->
<!DOCTYPE svg PUBLIC "-//W3C//DTD SVG 1.1//EN" "http://www.w3.org/Graphics/SVG/1.1/DTD/svg11.dtd">
<svg version="1.1" id="Layer_1" xmlns="http://www.w3.org/2000/svg" xmlns:xlink="http://www.w3.org/1999/xlink" x="0px" y="0px"
	 width="80px" height="240px" viewBox="0 0 80 240" enable-background="new 0 0 80 240" xml:space="preserve">
<path fill="#C17417" d="M53.784,147.5c-1.14,0-1.611-0.843-1.044-1.873l6.231-11.355c0.566-1.028,1.489-1.028,2.056,0l6.232,11.355
	c0.566,1.03,0.095,1.873-1.044,1.873H53.784z"/>
<g>
	<path fill="#FFFFFF" d="M61,145c0,0.55-0.45,1-1,1l0,0c-0.55,0-1-0.45-1-1l0,0c0-0.55,0.45-1,1-1l0,0C60.55,144,61,144.45,61,145
		L61,145z"/>
</g>
<line fill="none" x1="0" y1="40" x2="80.001" y2="40"/>
<line fill="none" x1="0" y1="80" x2="80.001" y2="80"/>
<line fill="none" x1="0" y1="120" x2="80.001" y2="120"/>
<line fill="none" x1="0" y1="160" x2="80.001" y2="160"/>
<line fill="none" x1="0" y1="200" x2="80.001" y2="200"/>
<line fill="none" x1="40" y1="0" x2="40" y2="239.999"/>
<g>
	<path fill="#8C8C8C" d="M28.577,20.979h2.244C30.938,20.338,31,19.676,31,19s-0.062-1.338-0.18-1.98h-2.244
		c-0.223-0.965-0.604-1.869-1.113-2.684l1.589-1.587c-0.757-1.094-1.706-2.043-2.801-2.801l-1.587,1.588
		c-0.814-0.51-1.719-0.891-2.686-1.113V8.178C21.338,8.061,20.676,8,20,8s-1.338,0.061-1.98,0.178v2.246
		c-0.965,0.222-1.869,0.603-2.684,1.113L13.75,9.949c-1.094,0.757-2.043,1.707-2.801,2.801l1.588,1.587
		c-0.51,0.815-0.891,1.719-1.113,2.684H9.179C9.062,17.662,9,18.324,9,19s0.061,1.338,0.178,1.979h2.246
		c0.222,0.967,0.603,1.869,1.113,2.687l-1.588,1.587c0.757,1.096,1.707,2.044,2.801,2.801l1.587-1.589
		c0.815,0.513,1.719,0.894,2.684,1.113v2.243C18.663,29.938,19.325,30,20,30s1.338-0.062,1.979-0.18v-2.244
		c0.967-0.223,1.869-0.604,2.687-1.113l1.587,1.589c1.096-0.757,2.044-1.706,2.801-2.801l-1.589-1.587
		C27.975,22.85,28.354,21.945,28.577,20.979z M20,24.279c-2.916,0-5.28-2.363-5.28-5.279s2.364-5.28,5.28-5.28s5.28,2.365,5.28,5.28
		C25.28,21.916,22.917,24.279,20,24.279z"/>
	<g opacity="0.25">
		<path d="M12.175,24.025l-1.226,1.226c0.136,0.196,0.284,0.382,0.432,0.567l1.156-1.154C12.409,24.457,12.288,24.244,12.175,24.025
			z"/>
		<path d="M21.979,11.423c0.967,0.222,1.871,0.603,2.687,1.113l1.587-1.588c0.898,0.622,1.691,1.378,2.368,2.232l0.433-0.432
			c-0.757-1.094-1.705-2.043-2.801-2.801l-1.587,1.588c-0.813-0.51-1.72-0.891-2.687-1.113V11.423z"/>
		<path d="M25.28,20c0-0.171-0.034-0.333-0.051-0.5c-0.256,2.678-2.483,4.779-5.229,4.779c-2.745,0-4.974-2.103-5.229-4.779
			c-0.016,0.167-0.05,0.329-0.05,0.5c0,2.916,2.364,5.279,5.28,5.279S25.28,22.916,25.28,20z"/>
		<path d="M27.826,14.974l-0.362,0.362c0.51,0.815,0.891,1.719,1.113,2.684h2.244c0.088,0.482,0.134,0.978,0.156,1.48
			C30.985,19.333,31,19.168,31,19c0-0.676-0.062-1.338-0.18-1.98h-2.244C28.411,16.3,28.155,15.614,27.826,14.974z"/>
		<path d="M27.463,24.664l1.156,1.154c0.148-0.187,0.297-0.371,0.433-0.567l-1.226-1.226C27.714,24.244,27.593,24.457,27.463,24.664
			z"/>
		<path d="M9.179,18.021h2.245c0.222-0.965,0.603-1.869,1.113-2.684l-0.363-0.362c-0.33,0.641-0.584,1.326-0.75,2.046H9.179
			C9.062,17.662,9,18.324,9,19c0,0.168,0.015,0.333,0.022,0.5C9.045,18.998,9.09,18.502,9.179,18.021z"/>
		<path d="M21.979,9.178v-1C21.338,8.061,20.676,8,20,8s-1.338,0.061-1.98,0.178v1C18.663,9.061,19.325,9,20,9
			S21.338,9.061,21.979,9.178z"/>
		<path d="M13.75,10.949l1.587,1.588c0.815-0.51,1.719-0.891,2.684-1.113v-1c-0.965,0.222-1.869,0.603-2.684,1.113L13.75,9.949
			c-1.094,0.757-2.043,1.707-2.801,2.801l0.433,0.432C12.059,12.328,12.852,11.57,13.75,10.949z"/>
	</g>
	<g opacity="0.4">
		<path fill="#FFFFFF" d="M27.826,14.974l1.227-1.225c-0.136-0.196-0.284-0.382-0.433-0.568l-1.156,1.155
			C27.593,14.543,27.713,14.756,27.826,14.974z"/>
		<path fill="#FFFFFF" d="M12.537,14.337l-1.155-1.155c-0.148,0.187-0.297,0.372-0.433,0.568l1.225,1.225
			C12.287,14.757,12.408,14.544,12.537,14.337z"/>
		<path fill="#FFFFFF" d="M12.175,24.025l0.362-0.361c-0.51-0.816-0.891-1.719-1.113-2.686H9.179
			C9.091,20.498,9.046,20,9.023,19.499C9.016,19.667,9,19.831,9,20c0,0.676,0.061,1.338,0.178,1.979h2.246
			C11.59,22.7,11.844,23.386,12.175,24.025z"/>
		<path fill="#FFFFFF" d="M20,13.72c-2.916,0-5.28,2.364-5.28,5.28c0,0.171,0.035,0.333,0.05,0.5c0.256-2.678,2.485-4.78,5.229-4.78
			c2.745,0,4.974,2.104,5.229,4.78c0.017-0.167,0.051-0.329,0.051-0.5C25.28,16.085,22.917,13.72,20,13.72z"/>
		<path fill="#FFFFFF" d="M26.251,28.052l-1.587-1.589c-0.816,0.51-1.719,0.891-2.686,1.113v1c0.967-0.223,1.869-0.604,2.686-1.113
			l1.587,1.589c1.095-0.757,2.044-1.706,2.801-2.801l-0.433-0.433C27.944,26.674,27.149,27.432,26.251,28.052z"/>
		<path fill="#FFFFFF" d="M30.821,20.979h-2.244c-0.223,0.967-0.602,1.871-1.113,2.687l0.363,0.362
			c0.33-0.641,0.584-1.326,0.75-2.049h2.244C30.938,21.338,31,20.676,31,20c0-0.169-0.016-0.333-0.021-0.5
			C30.955,20.002,30.909,20.498,30.821,20.979z"/>
		<path fill="#FFFFFF" d="M18.021,27.576c-0.965-0.221-1.869-0.602-2.684-1.113l-1.587,1.589c-0.898-0.62-1.692-1.378-2.369-2.231
			l-0.432,0.432c0.757,1.096,1.707,2.044,2.801,2.801l1.587-1.589c0.815,0.513,1.719,0.894,2.684,1.113V27.576z"/>
		<path fill="#FFFFFF" d="M18.021,29.82v1C18.663,30.938,19.325,31,20,31s1.338-0.062,1.979-0.18v-1C21.338,29.938,20.676,30,20,30
			S18.663,29.938,18.021,29.82z"/>
	</g>
</g>
<g>
	<path fill="#5988A5" d="M68.576,20.979h2.244C70.938,20.338,71,19.676,71,19s-0.062-1.338-0.18-1.98h-2.244
		c-0.223-0.965-0.604-1.869-1.113-2.684l1.589-1.587c-0.757-1.094-1.706-2.043-2.801-2.801l-1.587,1.588
		c-0.814-0.51-1.719-0.891-2.686-1.113V8.178C61.338,8.061,60.676,8,60,8s-1.338,0.061-1.98,0.178v2.246
		c-0.965,0.222-1.869,0.603-2.684,1.113l-1.587-1.588c-1.095,0.757-2.043,1.707-2.802,2.801l1.589,1.587
		c-0.511,0.815-0.892,1.719-1.113,2.684H49.18C49.062,17.662,49,18.324,49,19s0.062,1.338,0.18,1.979h2.244
		c0.223,0.967,0.604,1.869,1.113,2.687l-1.588,1.587c0.757,1.096,1.707,2.044,2.801,2.801l1.587-1.589
		c0.815,0.513,1.72,0.894,2.685,1.113v2.243C58.662,29.938,59.324,30,60,30s1.338-0.062,1.979-0.18v-2.244
		c0.967-0.223,1.869-0.604,2.688-1.113l1.587,1.589c1.098-0.757,2.044-1.706,2.803-2.801l-1.591-1.587
		C67.975,22.85,68.354,21.945,68.576,20.979z M60,24.279c-2.916,0-5.279-2.363-5.279-5.279s2.363-5.28,5.279-5.28
		s5.279,2.365,5.279,5.28C65.279,21.916,62.916,24.279,60,24.279z"/>
	<g opacity="0.25">
		<path d="M52.175,24.025l-1.226,1.226c0.136,0.196,0.283,0.382,0.432,0.567l1.156-1.154C52.408,24.457,52.287,24.244,52.175,24.025
			z"/>
		<path d="M61.979,11.423c0.967,0.222,1.871,0.603,2.688,1.113l1.587-1.588c0.896,0.622,1.689,1.378,2.368,2.232l0.435-0.432
			c-0.759-1.094-1.705-2.043-2.803-2.801l-1.587,1.588c-0.812-0.51-1.722-0.891-2.688-1.113V11.423z"/>
		<path d="M65.279,20c0-0.171-0.034-0.333-0.051-0.5c-0.256,2.678-2.483,4.779-5.229,4.779c-2.745,0-4.974-2.103-5.229-4.779
			c-0.016,0.167-0.049,0.329-0.049,0.5c0,2.916,2.363,5.279,5.279,5.279S65.279,22.916,65.279,20z"/>
		<path d="M67.825,14.974l-0.362,0.362c0.51,0.815,0.891,1.719,1.113,2.684h2.244c0.088,0.482,0.134,0.978,0.156,1.48
			C70.984,19.333,71,19.168,71,19c0-0.676-0.062-1.338-0.18-1.98h-2.244C68.41,16.3,68.154,15.614,67.825,14.974z"/>
		<path d="M67.463,24.664l1.156,1.154c0.148-0.187,0.297-0.371,0.433-0.567l-1.226-1.226C67.714,24.244,67.593,24.457,67.463,24.664
			z"/>
		<path d="M49.18,18.021h2.243c0.224-0.965,0.604-1.869,1.113-2.684l-0.363-0.362c-0.33,0.641-0.584,1.326-0.75,2.046H49.18
			C49.062,17.662,49,18.324,49,19c0,0.168,0.016,0.333,0.021,0.5C49.045,18.998,49.09,18.502,49.18,18.021z"/>
		<path d="M61.979,9.178v-1C61.338,8.061,60.676,8,60,8s-1.338,0.061-1.98,0.178v1C58.662,9.061,59.324,9,60,9
			S61.338,9.061,61.979,9.178z"/>
		<path d="M53.749,10.949l1.587,1.588c0.814-0.51,1.719-0.891,2.684-1.113v-1c-0.965,0.222-1.869,0.603-2.684,1.113l-1.587-1.588
			c-1.095,0.757-2.043,1.707-2.801,2.801l0.433,0.432C52.059,12.328,52.852,11.57,53.749,10.949z"/>
	</g>
	<g opacity="0.4">
		<path fill="#FFFFFF" d="M67.825,14.974l1.227-1.225c-0.136-0.196-0.284-0.382-0.433-0.568l-1.156,1.155
			C67.593,14.543,67.713,14.756,67.825,14.974z"/>
		<path fill="#FFFFFF" d="M52.536,14.337l-1.155-1.155c-0.146,0.187-0.297,0.372-0.433,0.568l1.225,1.225
			C52.286,14.757,52.407,14.544,52.536,14.337z"/>
		<path fill="#FFFFFF" d="M52.175,24.025l0.362-0.361c-0.51-0.816-0.891-1.719-1.113-2.686H49.18
			c-0.09-0.48-0.135-0.978-0.156-1.479C49.016,19.667,49,19.831,49,20c0,0.676,0.062,1.338,0.18,1.979h2.244
			C51.59,22.7,51.844,23.386,52.175,24.025z"/>
		<path fill="#FFFFFF" d="M60,13.72c-2.916,0-5.279,2.364-5.279,5.28c0,0.171,0.034,0.333,0.049,0.5
			c0.256-2.678,2.485-4.78,5.229-4.78c2.745,0,4.974,2.104,5.229,4.78c0.017-0.167,0.051-0.329,0.051-0.5
			C65.279,16.085,62.916,13.72,60,13.72z"/>
		<path fill="#FFFFFF" d="M66.251,28.052l-1.587-1.589c-0.816,0.51-1.719,0.891-2.686,1.113v1c0.967-0.223,1.869-0.604,2.686-1.113
			l1.587,1.589c1.095-0.757,2.044-1.706,2.802-2.801l-0.434-0.433C67.943,26.674,67.148,27.432,66.251,28.052z"/>
		<path fill="#FFFFFF" d="M70.82,20.979h-2.244c-0.223,0.967-0.602,1.871-1.113,2.687l0.363,0.362
			c0.33-0.641,0.584-1.326,0.75-2.049h2.244C70.938,21.338,71,20.676,71,20c0-0.169-0.016-0.333-0.021-0.5
			C70.954,20.002,70.908,20.498,70.82,20.979z"/>
		<path fill="#FFFFFF" d="M58.021,27.576c-0.965-0.221-1.869-0.602-2.688-1.113l-1.587,1.589c-0.896-0.62-1.688-1.378-2.369-2.231
			l-0.433,0.432c0.758,1.096,1.705,2.044,2.802,2.801l1.587-1.589c0.812,0.513,1.723,0.894,2.688,1.113V27.576z"/>
		<path fill="#FFFFFF" d="M58.021,29.82v1C58.662,30.938,59.324,31,60,31s1.338-0.062,1.979-0.18v-1C61.338,29.938,60.676,30,60,30
			S58.662,29.938,58.021,29.82z"/>
	</g>
</g>
<g>
	<path fill="#E7E7E8" d="M19.73,50.818c-4.561,0-8.271,3.67-8.271,8.182H10l2.676,3.851L15.352,59h-1.545
		c0-3.231,2.657-5.86,5.923-5.86s5.924,2.629,5.924,5.86s-2.658,5.861-5.924,5.861c-1.971,0-3.769-0.953-4.866-2.533l-1.394,2.004
		c1.559,1.803,3.815,2.85,6.26,2.85c4.56,0,8.27-3.67,8.27-8.182S24.29,50.818,19.73,50.818z"/>
	<path fill="#E7E7E8" d="M20.946,58.501v-3.66c-0.387-0.111-0.793-0.174-1.216-0.174s-0.83,0.063-1.217,0.174v2.415V59.3v0.199
		l0.143,0.141l1.459,1.444l1.727,1.708c0.723-0.395,1.32-0.987,1.72-1.701L20.946,58.501z"/>
</g>
<g>
	<path fill="#5988A5" d="M59.73,50.818c-4.562,0-8.271,3.67-8.271,8.182H50l2.676,3.851L55.352,59h-1.545
		c0-3.231,2.657-5.86,5.924-5.86c3.269,0,5.924,2.629,5.924,5.86s-2.655,5.861-5.924,5.861c-1.972,0-3.77-0.953-4.867-2.533
		l-1.393,2.004c1.559,1.803,3.814,2.85,6.26,2.85c4.562,0,8.271-3.67,8.271-8.182S64.29,50.818,59.73,50.818z"/>
	<path fill="#5988A5" d="M60.945,58.501v-3.66c-0.387-0.111-0.793-0.174-1.215-0.174c-0.424,0-0.83,0.063-1.217,0.174v2.415V59.3
		v0.199l0.143,0.141l1.459,1.444l1.728,1.708c0.724-0.395,1.32-0.987,1.72-1.701L60.945,58.501z"/>
</g>
<path fill="#FFFFFF" d="M25.398,98.31c0-0.008,0.001-0.017,0.001-0.024c0-1.421-1.208-2.572-2.7-2.572
	c-0.498,0-0.963,0.13-1.363,0.355C20.66,94.839,19.309,94,17.75,94c-2.237,0-4.05,1.727-4.05,3.857c0,0.216,0.023,0.426,0.059,0.632
	C12.156,99.002,11,100.442,11,102.143c0,2.13,1.812,3.857,4.05,3.857h3.15v-3.429h-1.575L20,98.714l3.375,3.857H21.8V106h3.15
	c2.237,0,4.05-1.727,4.05-3.857C29,100.157,27.424,98.523,25.398,98.31z"/>
<g>
	<path fill="#FFFFFF" d="M66.883,99.418c0.016-0.122,0.041-0.24,0.041-0.365c0-1.744-1.551-3.158-3.461-3.158
		c-0.906,0-1.723,0.324-2.34,0.842C60.504,95.144,58.844,94,56.885,94c-2.484,0-4.5,1.838-4.5,4.106c0,0.54,0.117,1.052,0.324,1.524
		C51.68,100.251,51,101.316,51,102.527c0,1.811,1.521,3.298,3.463,3.457V106h10.605v-0.006c0.041,0.001,0.082,0.006,0.125,0.006
		c2.102,0,3.807-1.555,3.807-3.473C69,101.163,68.137,99.986,66.883,99.418z"/>
</g>
<g>
	<path fill="#FFFFFF" d="M58.594,138.496c-0.052-0.548,0.356-0.996,0.906-0.996h1c0.55,0,0.961,0.448,0.912,0.996l-0.309,3.508
		c-0.049,0.548-0.538,0.996-1.088,0.996l0,0c-0.55,0-1.042-0.448-1.094-0.996L58.594,138.496z"/>
</g>
<g>
	<g opacity="0.25">
		<rect x="3.5" y="185.5" fill="#FFFFFF" width="6" height="1"/>
		<rect x="9.5" y="189.5" fill="#FFFFFF" width="3" height="1"/>
		<rect x="29.5" y="185.5" fill="#FFFFFF" width="6" height="1"/>
		<rect x="26.5" y="189.5" fill="#FFFFFF" width="3" height="1"/>
		<rect x="12.5" y="192.5" fill="#FFFFFF" width="14" height="1"/>
	</g>
	<polygon fill="#297434" points="29.5,166.5 29.5,170.5 27.5,170.5 27.5,166.5 26.5,166.5 26.5,170.5 24.5,170.5 24.5,166.5 
		23.5,166.5 23.5,170.5 21.5,170.5 21.5,166.5 20.5,166.5 20.5,170.5 18.5,170.5 18.5,166.5 17.5,166.5 17.5,170.5 15.5,170.5 
		15.5,166.5 14.5,166.5 14.5,170.5 12.5,170.5 12.5,166.5 11.5,166.5 11.5,170.5 9.5,170.5 9.5,166.5 3.5,166.5 3.5,185.5 
		9.5,185.5 9.5,189.5 12.5,189.5 12.5,192.5 26.5,192.5 26.5,189.5 29.5,189.5 29.5,185.5 35.5,185.5 35.5,166.5 	"/>
	<g opacity="0.15">
		<rect x="21.5" y="170.5" width="2" height="1"/>
		<rect x="18.5" y="170.5" width="2" height="1"/>
		<rect x="23.5" y="166.5" width="1" height="1"/>
		<rect x="17.5" y="166.5" width="1" height="1"/>
		<rect x="27.5" y="170.5" width="2" height="1"/>
		<rect x="26.5" y="166.5" width="1" height="1"/>
		<rect x="24.5" y="170.5" width="2" height="1"/>
		<rect x="20.5" y="166.5" width="1" height="1"/>
		<rect x="3.5" y="166.5" width="6" height="1"/>
		<rect x="15.5" y="170.5" width="2" height="1"/>
		<rect x="29.5" y="166.5" width="6" height="1"/>
		<rect x="9.5" y="170.5" width="2" height="1"/>
		<rect x="11.5" y="166.5" width="1" height="1"/>
		<rect x="14.5" y="166.5" width="1" height="1"/>
		<rect x="12.5" y="170.5" width="2" height="1"/>
	</g>
</g>
<g>
	<g opacity="0.25">
		<rect x="43.5" y="185.5" fill="#FFFFFF" width="6" height="1"/>
		<rect x="49.5" y="189.5" fill="#FFFFFF" width="3" height="1"/>
		<rect x="69.5" y="185.5" fill="#FFFFFF" width="6" height="1"/>
		<rect x="66.5" y="189.5" fill="#FFFFFF" width="3" height="1"/>
		<rect x="52.5" y="192.5" fill="#FFFFFF" width="14" height="1"/>
	</g>
	<polygon fill="#6D6E71" points="69.5,166.5 69.5,170.5 67.5,170.5 67.5,166.5 66.5,166.5 66.5,170.5 64.5,170.5 64.5,166.5 
		63.5,166.5 63.5,170.5 61.5,170.5 61.5,166.5 60.5,166.5 60.5,170.5 58.5,170.5 58.5,166.5 57.5,166.5 57.5,170.5 55.5,170.5 
		55.5,166.5 54.5,166.5 54.5,170.5 52.5,170.5 52.5,166.5 51.5,166.5 51.5,170.5 49.5,170.5 49.5,166.5 43.5,166.5 43.5,185.5 
		49.5,185.5 49.5,189.5 52.5,189.5 52.5,192.5 66.5,192.5 66.5,189.5 69.5,189.5 69.5,185.5 75.5,185.5 75.5,166.5 	"/>
	<g opacity="0.2">
		<rect x="61.5" y="170.5" width="2" height="1"/>
		<rect x="58.5" y="170.5" width="2" height="1"/>
		<rect x="63.5" y="166.5" width="1" height="1"/>
		<rect x="57.5" y="166.5" width="1" height="1"/>
		<rect x="67.5" y="170.5" width="2" height="1"/>
		<rect x="66.5" y="166.5" width="1" height="1"/>
		<rect x="64.5" y="170.5" width="2" height="1"/>
		<rect x="60.5" y="166.5" width="1" height="1"/>
		<rect x="43.5" y="166.5" width="6" height="1"/>
		<rect x="55.5" y="170.5" width="2" height="1"/>
		<rect x="69.5" y="166.5" width="6" height="1"/>
		<rect x="49.5" y="170.5" width="2" height="1"/>
		<rect x="51.5" y="166.5" width="1" height="1"/>
		<rect x="54.5" y="166.5" width="1" height="1"/>
		<rect x="52.5" y="170.5" width="2" height="1"/>
	</g>
</g>
</svg>
