<?xml version="1.0" encoding="utf-8"?>
<!-- Generator: Adobe Illustrator 15.1.0, SVG Export Plug-In . SVG Version: 6.00 Build 0)  -->
<!DOCTYPE svg PUBLIC "-//W3C//DTD SVG 1.1//EN" "http://www.w3.org/Graphics/SVG/1.1/DTD/svg11.dtd">
<svg version="1.1" id="Layer_1" xmlns="http://www.w3.org/2000/svg" xmlns:xlink="http://www.w3.org/1999/xlink" x="0px" y="0px"
	 width="80px" height="1080px" viewBox="0 0 80 1080" enable-background="new 0 0 80 1080" xml:space="preserve">
<g>
	<circle fill="#48A565" cx="20.5" cy="819.5" r="7.5"/>
</g>
<polygon fill="#FFFFFF" points="65,700 65,705 57,705 57,695 63,695 63,694 56,694 56,706 66,706 66,700 "/>
<path fill="#FFFFFF" d="M66.445,100.045c0.027-0.179,0.055-0.357,0.055-0.545c0-1.934-1.566-3.5-3.5-3.5
	c-0.718,0-1.385,0.218-1.939,0.589C60.34,95.063,58.799,94,57,94c-2.484,0-4.5,2.015-4.5,4.5c0,0.614,0.125,1.199,0.348,1.732
	C51.766,100.686,51,101.757,51,103c0,1.65,1.35,3,3,3h12c1.65,0,3-1.35,3-3C69,101.502,67.883,100.264,66.445,100.045"/>
<path fill="#8C8C8C" d="M28.577,20.979h2.244C30.938,20.337,31,19.674,31,19c0-0.675-0.062-1.338-0.18-1.979h-2.244
	c-0.223-0.966-0.604-1.87-1.113-2.685l1.589-1.587c-0.757-1.094-1.706-2.043-2.801-2.801l-1.587,1.588
	c-0.814-0.511-1.719-0.893-2.686-1.113V8.177C21.338,8.061,20.676,8,20,8s-1.338,0.06-1.98,0.177v2.247
	c-0.965,0.223-1.869,0.604-2.684,1.113L13.75,9.949c-1.094,0.757-2.043,1.707-2.801,2.801l1.588,1.587
	c-0.51,0.815-0.891,1.718-1.113,2.684H9.179C9.062,17.663,9,18.325,9,19c0,0.674,0.061,1.338,0.178,1.978h2.246
	c0.222,0.968,0.603,1.869,1.113,2.688l-1.588,1.587c0.757,1.096,1.707,2.044,2.801,2.801l1.587-1.589
	c0.815,0.513,1.719,0.895,2.684,1.113v2.242C18.663,29.937,19.325,30,20,30s1.338-0.063,1.979-0.18v-2.244
	c0.967-0.224,1.869-0.605,2.687-1.113l1.587,1.588c1.096-0.756,2.044-1.706,2.801-2.8l-1.589-1.587
	C27.975,22.851,28.354,21.944,28.577,20.979 M20,24.278c-2.916,0-5.28-2.362-5.28-5.278s2.364-5.281,5.28-5.281
	s5.28,2.366,5.28,5.281C25.28,21.917,22.917,24.278,20,24.278"/>
<g opacity="0.25">
	<g>
		<defs>
			<rect id="SVGID_1_" x="9" y="8" width="22" height="17.817"/>
		</defs>
		<clipPath id="SVGID_2_">
			<use xlink:href="#SVGID_1_"  overflow="visible"/>
		</clipPath>
		<path clip-path="url(#SVGID_2_)" d="M12.175,24.024l-1.226,1.227c0.136,0.196,0.284,0.381,0.432,0.566l1.156-1.153
			C12.409,24.458,12.288,24.245,12.175,24.024"/>
		<path clip-path="url(#SVGID_2_)" d="M21.979,11.423c0.967,0.222,1.871,0.604,2.687,1.113l1.587-1.588
			c0.898,0.622,1.691,1.378,2.368,2.231l0.433-0.432c-0.757-1.094-1.705-2.043-2.801-2.801l-1.587,1.588
			c-0.813-0.51-1.72-0.891-2.687-1.113V11.423z"/>
		<path clip-path="url(#SVGID_2_)" d="M25.28,20c0-0.171-0.034-0.333-0.051-0.5c-0.256,2.678-2.483,4.778-5.229,4.778
			c-2.745,0-4.974-2.103-5.229-4.778c-0.016,0.167-0.05,0.329-0.05,0.5c0,2.916,2.364,5.278,5.28,5.278S25.28,22.916,25.28,20"/>
		<path clip-path="url(#SVGID_2_)" d="M27.826,14.975l-0.362,0.361c0.51,0.816,0.891,1.72,1.113,2.686h2.244
			c0.088,0.48,0.134,0.977,0.156,1.478C30.985,19.333,31,19.167,31,19c0-0.675-0.062-1.337-0.18-1.978h-2.244
			C28.411,16.3,28.155,15.615,27.826,14.975"/>
		<path clip-path="url(#SVGID_2_)" d="M27.463,24.664l1.156,1.153c0.148-0.188,0.297-0.37,0.433-0.566l-1.226-1.227
			C27.714,24.244,27.593,24.457,27.463,24.664"/>
		<path clip-path="url(#SVGID_2_)" d="M9.179,18.021h2.245c0.222-0.966,0.603-1.869,1.113-2.685l-0.363-0.362
			c-0.33,0.643-0.584,1.326-0.75,2.047H9.179C9.062,17.664,9,18.326,9,19c0,0.167,0.015,0.333,0.022,0.5
			C9.045,18.999,9.09,18.501,9.179,18.021"/>
		<path clip-path="url(#SVGID_2_)" d="M21.979,9.178v-1C21.338,8.061,20.676,8,20,8s-1.338,0.061-1.98,0.178v1
			C18.663,9.061,19.325,9,20,9S21.338,9.061,21.979,9.178"/>
		<path clip-path="url(#SVGID_2_)" d="M13.75,10.949l1.587,1.588c0.815-0.51,1.719-0.891,2.684-1.113v-1
			c-0.965,0.223-1.869,0.604-2.684,1.113L13.75,9.949c-1.094,0.757-2.043,1.707-2.801,2.801l0.433,0.431
			C12.059,12.328,12.852,11.57,13.75,10.949"/>
	</g>
</g>
<g opacity="0.4">
	<g>
		<defs>
			<rect id="SVGID_3_" x="9" y="13.182" width="22" height="17.818"/>
		</defs>
		<clipPath id="SVGID_4_">
			<use xlink:href="#SVGID_3_"  overflow="visible"/>
		</clipPath>
		<path clip-path="url(#SVGID_4_)" fill="#FFFFFF" d="M27.826,14.975l1.227-1.226c-0.136-0.196-0.284-0.381-0.433-0.567
			l-1.156,1.154C27.593,14.542,27.713,14.756,27.826,14.975"/>
		<path clip-path="url(#SVGID_4_)" fill="#FFFFFF" d="M12.537,14.337l-1.155-1.155c-0.148,0.188-0.297,0.373-0.433,0.568
			l1.225,1.225C12.287,14.757,12.408,14.544,12.537,14.337"/>
		<path clip-path="url(#SVGID_4_)" fill="#FFFFFF" d="M12.175,24.024l0.362-0.36c-0.51-0.816-0.891-1.72-1.113-2.688H9.179
			C9.091,20.499,9.046,20,9.023,19.499C9.016,19.667,9,19.831,9,20c0,0.675,0.061,1.337,0.178,1.978h2.246
			C11.59,22.7,11.844,23.385,12.175,24.024"/>
		<path clip-path="url(#SVGID_4_)" fill="#FFFFFF" d="M20,13.72c-2.916,0-5.28,2.364-5.28,5.28c0,0.171,0.035,0.333,0.05,0.5
			c0.256-2.677,2.485-4.78,5.229-4.78c2.745,0,4.974,2.104,5.229,4.78c0.017-0.167,0.051-0.329,0.051-0.5
			C25.28,16.085,22.917,13.72,20,13.72"/>
		<path clip-path="url(#SVGID_4_)" fill="#FFFFFF" d="M26.251,28.052l-1.587-1.589c-0.816,0.51-1.719,0.891-2.686,1.113v1
			c0.967-0.223,1.869-0.604,2.686-1.113l1.587,1.589c1.095-0.757,2.044-1.706,2.801-2.801l-0.433-0.433
			C27.944,26.674,27.149,27.432,26.251,28.052"/>
		<path clip-path="url(#SVGID_4_)" fill="#FFFFFF" d="M30.821,20.979h-2.244c-0.223,0.968-0.602,1.871-1.113,2.688l0.363,0.362
			c0.33-0.642,0.584-1.326,0.75-2.05h2.244C30.938,21.336,31,20.675,31,20c0-0.168-0.016-0.333-0.021-0.5
			C30.955,20.001,30.909,20.499,30.821,20.979"/>
		<path clip-path="url(#SVGID_4_)" fill="#FFFFFF" d="M18.021,27.576c-0.965-0.221-1.869-0.603-2.684-1.113l-1.587,1.589
			c-0.898-0.621-1.692-1.378-2.369-2.23l-0.432,0.432c0.757,1.096,1.707,2.044,2.801,2.801l1.587-1.589
			c0.815,0.514,1.719,0.895,2.684,1.113V27.576z"/>
		<path clip-path="url(#SVGID_4_)" fill="#FFFFFF" d="M18.021,29.82v1C18.663,30.938,19.325,31,20,31s1.338-0.063,1.979-0.18v-1
			C21.338,29.938,20.676,30,20,30S18.663,29.938,18.021,29.82"/>
	</g>
</g>
<path fill="#5988A5" d="M68.576,20.979h2.244C70.938,20.337,71,19.674,71,19c0-0.675-0.062-1.338-0.18-1.979h-2.244
	c-0.223-0.966-0.604-1.87-1.113-2.685l1.589-1.587c-0.757-1.094-1.706-2.043-2.801-2.801l-1.587,1.588
	c-0.814-0.511-1.719-0.893-2.686-1.113V8.177C61.337,8.061,60.675,8,59.999,8s-1.338,0.06-1.979,0.177v2.247
	c-0.965,0.223-1.869,0.604-2.685,1.113l-1.587-1.588c-1.096,0.757-2.043,1.707-2.803,2.801l1.59,1.587
	c-0.512,0.815-0.893,1.718-1.113,2.684H49.18c-0.118,0.642-0.181,1.304-0.181,1.979c0,0.674,0.062,1.338,0.181,1.978h2.243
	c0.224,0.968,0.604,1.869,1.113,2.688l-1.588,1.587c0.757,1.096,1.706,2.044,2.801,2.801l1.587-1.589
	c0.814,0.513,1.721,0.895,2.686,1.113v2.242C58.662,29.937,59.324,30,60,30s1.338-0.063,1.979-0.18v-2.244
	c0.967-0.224,1.869-0.605,2.688-1.113l1.587,1.588c1.098-0.756,2.044-1.706,2.803-2.8l-1.591-1.587
	C67.975,22.851,68.354,21.944,68.576,20.979 M60,24.278c-2.916,0-5.279-2.362-5.279-5.278s2.363-5.281,5.279-5.281
	s5.279,2.366,5.279,5.281C65.279,21.917,62.916,24.278,60,24.278"/>
<g opacity="0.25">
	<g>
		<defs>
			<rect id="SVGID_5_" x="49" y="8" width="21.999" height="17.817"/>
		</defs>
		<clipPath id="SVGID_6_">
			<use xlink:href="#SVGID_5_"  overflow="visible"/>
		</clipPath>
		<path clip-path="url(#SVGID_6_)" d="M52.175,24.024l-1.226,1.227c0.136,0.196,0.283,0.381,0.432,0.566l1.156-1.153
			C52.408,24.458,52.287,24.245,52.175,24.024"/>
		<path clip-path="url(#SVGID_6_)" d="M61.979,11.423c0.967,0.222,1.871,0.604,2.688,1.113l1.588-1.588
			c0.896,0.622,1.689,1.378,2.368,2.231l0.435-0.432c-0.759-1.094-1.705-2.043-2.803-2.801l-1.588,1.588
			c-0.811-0.51-1.721-0.891-2.688-1.113V11.423z"/>
		<path clip-path="url(#SVGID_6_)" d="M65.279,20c0-0.171-0.034-0.333-0.051-0.5c-0.256,2.678-2.483,4.778-5.229,4.778
			c-2.745,0-4.974-2.103-5.229-4.778c-0.016,0.167-0.049,0.329-0.049,0.5c0,2.916,2.363,5.278,5.279,5.278S65.279,22.916,65.279,20"
			/>
		<path clip-path="url(#SVGID_6_)" d="M67.825,14.975l-0.362,0.361c0.51,0.816,0.891,1.72,1.113,2.686h2.244
			c0.088,0.48,0.134,0.977,0.156,1.478c0.008-0.167,0.022-0.332,0.022-0.5c0-0.675-0.062-1.337-0.181-1.978h-2.243
			C68.41,16.3,68.154,15.615,67.825,14.975"/>
		<path clip-path="url(#SVGID_6_)" d="M67.463,24.664l1.156,1.153c0.148-0.188,0.297-0.37,0.433-0.566l-1.226-1.227
			C67.714,24.244,67.593,24.457,67.463,24.664"/>
		<path clip-path="url(#SVGID_6_)" d="M49.18,18.021h2.243c0.224-0.966,0.604-1.869,1.113-2.685l-0.363-0.362
			c-0.33,0.643-0.584,1.326-0.75,2.047H49.18C49.062,17.664,49,18.326,49,19c0,0.167,0.016,0.333,0.021,0.5
			C49.045,18.999,49.09,18.501,49.18,18.021"/>
		<path clip-path="url(#SVGID_6_)" d="M61.979,9.178v-1C61.338,8.061,60.676,8,59.999,8c-0.675,0-1.337,0.061-1.979,0.178v1
			C58.663,9.061,59.325,9,59.999,9C60.675,9,61.338,9.061,61.979,9.178"/>
		<path clip-path="url(#SVGID_6_)" d="M53.749,10.949l1.587,1.588c0.814-0.51,1.719-0.891,2.684-1.113v-1
			c-0.965,0.223-1.869,0.604-2.684,1.113l-1.587-1.588c-1.095,0.757-2.043,1.707-2.801,2.801l0.433,0.431
			C52.059,12.328,52.852,11.57,53.749,10.949"/>
	</g>
</g>
<g opacity="0.4">
	<g>
		<defs>
			<rect id="SVGID_7_" x="49.001" y="13.182" width="21.999" height="17.818"/>
		</defs>
		<clipPath id="SVGID_8_">
			<use xlink:href="#SVGID_7_"  overflow="visible"/>
		</clipPath>
		<path clip-path="url(#SVGID_8_)" fill="#FFFFFF" d="M67.825,14.975l1.227-1.226c-0.136-0.196-0.284-0.381-0.433-0.567
			l-1.156,1.154C67.593,14.542,67.713,14.756,67.825,14.975"/>
		<path clip-path="url(#SVGID_8_)" fill="#FFFFFF" d="M52.536,14.337l-1.155-1.155c-0.146,0.188-0.297,0.373-0.433,0.568
			l1.225,1.225C52.286,14.757,52.407,14.544,52.536,14.337"/>
		<path clip-path="url(#SVGID_8_)" fill="#FFFFFF" d="M52.175,24.024l0.362-0.36c-0.51-0.816-0.891-1.72-1.113-2.688H49.18
			c-0.09-0.478-0.135-0.977-0.156-1.478c-0.008,0.168-0.022,0.332-0.022,0.501c0,0.675,0.062,1.337,0.181,1.978h2.243
			C51.59,22.7,51.844,23.385,52.175,24.024"/>
		<path clip-path="url(#SVGID_8_)" fill="#FFFFFF" d="M60,13.72c-2.916,0-5.279,2.364-5.279,5.28c0,0.171,0.034,0.333,0.049,0.5
			c0.256-2.677,2.485-4.78,5.229-4.78c2.745,0,4.974,2.104,5.229,4.78c0.017-0.167,0.051-0.329,0.051-0.5
			C65.279,16.085,62.916,13.72,60,13.72"/>
		<path clip-path="url(#SVGID_8_)" fill="#FFFFFF" d="M66.251,28.052l-1.587-1.589c-0.816,0.51-1.719,0.891-2.686,1.113v1
			c0.967-0.223,1.869-0.604,2.686-1.113l1.587,1.589c1.095-0.757,2.044-1.706,2.802-2.801l-0.434-0.433
			C67.943,26.674,67.148,27.432,66.251,28.052"/>
		<path clip-path="url(#SVGID_8_)" fill="#FFFFFF" d="M70.82,20.979h-2.244c-0.223,0.968-0.602,1.871-1.113,2.688l0.363,0.362
			c0.33-0.642,0.584-1.326,0.75-2.05h2.244C70.938,21.336,71,20.675,71,20c0-0.168-0.016-0.333-0.021-0.5
			C70.954,20.001,70.908,20.499,70.82,20.979"/>
		<path clip-path="url(#SVGID_8_)" fill="#FFFFFF" d="M58.021,27.576c-0.965-0.221-1.869-0.603-2.688-1.113l-1.588,1.589
			c-0.896-0.621-1.688-1.378-2.369-2.23l-0.434,0.432c0.759,1.096,1.705,2.044,2.803,2.801l1.588-1.589
			c0.811,0.514,1.723,0.895,2.688,1.113V27.576z"/>
		<path clip-path="url(#SVGID_8_)" fill="#FFFFFF" d="M58.021,29.82v1c0.641,0.117,1.303,0.18,1.979,0.18
			c0.675,0,1.337-0.063,1.978-0.18v-1C61.338,29.938,60.676,30,60.001,30C59.324,30,58.662,29.938,58.021,29.82"/>
	</g>
</g>
<path fill="#E7E7E8" d="M19.73,50.818c-4.561,0-8.271,3.67-8.271,8.182H10l2.676,3.85L15.352,59h-1.545
	c0-3.231,2.657-5.86,5.923-5.86s5.924,2.629,5.924,5.86s-2.658,5.86-5.924,5.86c-1.971,0-3.769-0.952-4.866-2.532l-1.394,2.004
	c1.559,1.802,3.815,2.85,6.26,2.85c4.56,0,8.27-3.67,8.27-8.182S24.29,50.818,19.73,50.818"/>
<path fill="#E7E7E8" d="M20.946,58.501v-3.66c-0.387-0.11-0.793-0.174-1.216-0.174c-0.423,0-0.83,0.063-1.217,0.174v2.415V59.3
	v0.199l0.143,0.141l1.459,1.444l1.727,1.708c0.723-0.395,1.32-0.986,1.72-1.701L20.946,58.501z"/>
<path fill="#5988A5" d="M59.73,50.818c-4.562,0-8.271,3.67-8.271,8.182h-1.459l2.675,3.85L55.352,59h-1.545
	c0-3.231,2.657-5.86,5.924-5.86c3.271,0,5.924,2.629,5.924,5.86s-2.652,5.86-5.924,5.86c-1.972,0-3.77-0.952-4.867-2.532
	l-1.393,2.004c1.559,1.802,3.814,2.85,6.26,2.85c4.562,0,8.271-3.67,8.271-8.182S64.29,50.818,59.73,50.818"/>
<path fill="#5988A5" d="M60.945,58.501v-3.66c-0.387-0.11-0.793-0.174-1.215-0.174c-0.424,0-0.83,0.063-1.217,0.174v2.415V59.3
	v0.199l0.143,0.141l1.459,1.444l1.728,1.708c0.724-0.395,1.32-0.986,1.72-1.701L60.945,58.501z"/>
<path fill="#C17417" d="M66.76,145.128l-6.232-11.356c-0.566-1.028-1.489-1.028-2.057,0l-6.23,11.356
	c-0.567,1.03-0.097,1.873,1.044,1.873h12.433C66.854,147.001,67.326,146.158,66.76,145.128 M59.499,145.501c-0.549,0-1-0.45-1-1
	s0.451-1.001,1-1.001c0.551,0,1,0.451,1,1.001S60.05,145.501,59.499,145.501 M60.604,141.504c-0.049,0.548-0.539,0.996-1.088,0.996
	c-0.551,0-1.043-0.448-1.095-0.996l-0.327-3.508C58.041,137.448,58.45,137,58.999,137h1c0.551,0,0.962,0.448,0.913,0.996
	L60.604,141.504z"/>
<g opacity="0.25">
	<g>
		<defs>
			<rect id="SVGID_9_" x="4" y="186" width="32" height="8"/>
		</defs>
		<clipPath id="SVGID_10_">
			<use xlink:href="#SVGID_9_"  overflow="visible"/>
		</clipPath>
		<rect x="4" y="186" clip-path="url(#SVGID_10_)" fill="#FFFFFF" width="6" height="1"/>
		<rect x="10" y="190" clip-path="url(#SVGID_10_)" fill="#FFFFFF" width="3" height="1"/>
		<rect x="30" y="186" clip-path="url(#SVGID_10_)" fill="#FFFFFF" width="6" height="1"/>
		<rect x="27" y="190" clip-path="url(#SVGID_10_)" fill="#FFFFFF" width="3" height="1"/>
		<rect x="13" y="193" clip-path="url(#SVGID_10_)" fill="#FFFFFF" width="14" height="1"/>
	</g>
</g>
<polygon fill="#297434" points="30,167 30,171 28,171 28,167 27,167 27,171 25,171 25,167 24,167 24,171 22,171 22,167 21,167 
	21,171 19,171 19,167 18,167 18,171 16,171 16,167 15,167 15,171 13,171 13,167 12,167 12,171 10,171 10,167 4,167 4,186 10,186 
	10,190 13,190 13,193 27,193 27,190 30,190 30,186 36,186 36,167 "/>
<g opacity="0.15">
	<g>
		<defs>
			<rect id="SVGID_11_" x="4" y="167" width="32" height="5"/>
		</defs>
		<clipPath id="SVGID_12_">
			<use xlink:href="#SVGID_11_"  overflow="visible"/>
		</clipPath>
		<rect x="22" y="171" clip-path="url(#SVGID_12_)" width="2" height="1"/>
		<rect x="19" y="171" clip-path="url(#SVGID_12_)" width="2" height="1"/>
		<rect x="24" y="167" clip-path="url(#SVGID_12_)" width="1" height="1"/>
		<rect x="18" y="167" clip-path="url(#SVGID_12_)" width="1" height="1"/>
		<rect x="28" y="171" clip-path="url(#SVGID_12_)" width="2" height="1"/>
		<rect x="27" y="167" clip-path="url(#SVGID_12_)" width="1" height="1"/>
		<rect x="25" y="171" clip-path="url(#SVGID_12_)" width="2" height="1"/>
		<rect x="21" y="167" clip-path="url(#SVGID_12_)" width="1" height="1"/>
		<rect x="4" y="167" clip-path="url(#SVGID_12_)" width="6" height="1"/>
		<rect x="16" y="171" clip-path="url(#SVGID_12_)" width="2" height="1"/>
		<rect x="30" y="167" clip-path="url(#SVGID_12_)" width="6" height="1"/>
		<rect x="10" y="171" clip-path="url(#SVGID_12_)" width="2" height="1"/>
		<rect x="12" y="167" clip-path="url(#SVGID_12_)" width="1" height="1"/>
		<rect x="15" y="167" clip-path="url(#SVGID_12_)" width="1" height="1"/>
		<rect x="13" y="171" clip-path="url(#SVGID_12_)" width="2" height="1"/>
	</g>
</g>
<g opacity="0.25">
	<g>
		<defs>
			<rect id="SVGID_13_" x="44" y="186" width="32" height="8"/>
		</defs>
		<clipPath id="SVGID_14_">
			<use xlink:href="#SVGID_13_"  overflow="visible"/>
		</clipPath>
		<rect x="44" y="186" clip-path="url(#SVGID_14_)" fill="#FFFFFF" width="6" height="1"/>
		<rect x="50" y="190" clip-path="url(#SVGID_14_)" fill="#FFFFFF" width="3" height="1"/>
		<rect x="70" y="186" clip-path="url(#SVGID_14_)" fill="#FFFFFF" width="6" height="1"/>
		<rect x="67" y="190" clip-path="url(#SVGID_14_)" fill="#FFFFFF" width="3" height="1"/>
		<rect x="53" y="193" clip-path="url(#SVGID_14_)" fill="#FFFFFF" width="14" height="1"/>
	</g>
</g>
<polygon fill="#6D6E71" points="70,167 70,171 68,171 68,167 67,167 67,171 65,171 65,167 64,167 64,171 62,171 62,167 61,167 
	61,171 59,171 59,167 58,167 58,171 56,171 56,167 55,167 55,171 53,171 53,167 52,167 52,171 50,171 50,167 44,167 44,186 50,186 
	50,190 53,190 53,193 67,193 67,190 70,190 70,186 76,186 76,167 "/>
<g opacity="0.2">
	<g>
		<defs>
			<rect id="SVGID_15_" x="44" y="167" width="32" height="5"/>
		</defs>
		<clipPath id="SVGID_16_">
			<use xlink:href="#SVGID_15_"  overflow="visible"/>
		</clipPath>
		<rect x="62" y="171" clip-path="url(#SVGID_16_)" width="2" height="1"/>
		<rect x="59" y="171" clip-path="url(#SVGID_16_)" width="2" height="1"/>
		<rect x="64" y="167" clip-path="url(#SVGID_16_)" width="1" height="1"/>
		<rect x="58" y="167" clip-path="url(#SVGID_16_)" width="1" height="1"/>
		<rect x="68" y="171" clip-path="url(#SVGID_16_)" width="2" height="1"/>
		<rect x="67" y="167" clip-path="url(#SVGID_16_)" width="1" height="1"/>
		<rect x="65" y="171" clip-path="url(#SVGID_16_)" width="2" height="1"/>
		<rect x="61" y="167" clip-path="url(#SVGID_16_)" width="1" height="1"/>
		<rect x="44" y="167" clip-path="url(#SVGID_16_)" width="6" height="1"/>
		<rect x="56" y="171" clip-path="url(#SVGID_16_)" width="2" height="1"/>
		<rect x="70" y="167" clip-path="url(#SVGID_16_)" width="6" height="1"/>
		<rect x="50" y="171" clip-path="url(#SVGID_16_)" width="2" height="1"/>
		<rect x="52" y="167" clip-path="url(#SVGID_16_)" width="1" height="1"/>
		<rect x="55" y="167" clip-path="url(#SVGID_16_)" width="1" height="1"/>
		<rect x="53" y="171" clip-path="url(#SVGID_16_)" width="2" height="1"/>
	</g>
</g>
<path fill="#5988A5" d="M25,213.969L23.031,212l-2-2h-1H13v18h14v-11.031v-1L25,213.969z M25,226H15v-14h5.031v4.969H25V226z"/>
<g opacity="0.6" enable-background="new    ">
	<g>
		<defs>
			<rect id="SVGID_17_" x="17" y="219" width="6" height="2"/>
		</defs>
		<clipPath id="SVGID_18_">
			<use xlink:href="#SVGID_17_"  overflow="visible"/>
		</clipPath>
		<rect x="17" y="219" clip-path="url(#SVGID_18_)" fill="#5988A5" width="6" height="2"/>
	</g>
</g>
<g opacity="0.6" enable-background="new    ">
	<g>
		<defs>
			<rect id="SVGID_19_" x="17" y="222" width="6" height="2"/>
		</defs>
		<clipPath id="SVGID_20_">
			<use xlink:href="#SVGID_19_"  overflow="visible"/>
		</clipPath>
		<rect x="17" y="222" clip-path="url(#SVGID_20_)" fill="#5988A5" width="6" height="2"/>
	</g>
</g>
<path fill="#FFFFFF" d="M26.445,100.045c0.028-0.179,0.055-0.357,0.055-0.545c0-1.934-1.567-3.5-3.5-3.5
	c-0.718,0-1.385,0.218-1.94,0.589C20.34,95.063,18.8,94,17,94c-2.485,0-4.5,2.015-4.5,4.5c0,0.614,0.125,1.199,0.348,1.732
	C11.766,100.686,11,101.757,11,103c0,1.65,1.35,3,3,3h4v-3h-1l3-4l3,4h-1v3h4c1.65,0,3-1.35,3-3
	C29,101.502,27.884,100.264,26.445,100.045"/>
<rect x="12" y="252" fill="#8C8C8C" width="4" height="4"/>
<rect x="24" y="252" fill="#8C8C8C" width="4" height="4"/>
<rect x="18" y="252" fill="#8C8C8C" width="4" height="4"/>
<rect x="12" y="258" fill="#8C8C8C" width="4" height="4"/>
<rect x="24" y="258" fill="#8C8C8C" width="4" height="4"/>
<rect x="18" y="258" fill="#8C8C8C" width="4" height="4"/>
<rect x="12" y="264" fill="#8C8C8C" width="4" height="4"/>
<rect x="24" y="264" fill="#8C8C8C" width="4" height="4"/>
<rect x="18" y="264" fill="#8C8C8C" width="4" height="4"/>
<g opacity="0.25">
	<g>
		<defs>
			<rect id="SVGID_21_" x="12" y="252" width="16" height="13"/>
		</defs>
		<clipPath id="SVGID_22_">
			<use xlink:href="#SVGID_21_"  overflow="visible"/>
		</clipPath>
		<rect x="12" y="252" clip-path="url(#SVGID_22_)" width="4" height="1"/>
		<rect x="18" y="252" clip-path="url(#SVGID_22_)" width="4" height="1"/>
		<rect x="24" y="252" clip-path="url(#SVGID_22_)" width="4" height="1"/>
		<rect x="12" y="258" clip-path="url(#SVGID_22_)" width="4" height="1"/>
		<rect x="18" y="258" clip-path="url(#SVGID_22_)" width="4" height="1"/>
		<rect x="24" y="258" clip-path="url(#SVGID_22_)" width="4" height="1"/>
		<rect x="12" y="264" clip-path="url(#SVGID_22_)" width="4" height="1"/>
		<rect x="18" y="264" clip-path="url(#SVGID_22_)" width="4" height="1"/>
		<rect x="24" y="264" clip-path="url(#SVGID_22_)" width="4" height="1"/>
	</g>
</g>
<g opacity="0.4">
	<g>
		<defs>
			<rect id="SVGID_23_" x="12" y="256" width="16" height="13"/>
		</defs>
		<clipPath id="SVGID_24_">
			<use xlink:href="#SVGID_23_"  overflow="visible"/>
		</clipPath>
		<rect x="12" y="256" clip-path="url(#SVGID_24_)" fill="#FFFFFF" width="4" height="1"/>
		<rect x="18" y="256" clip-path="url(#SVGID_24_)" fill="#FFFFFF" width="4" height="1"/>
		<rect x="24" y="256" clip-path="url(#SVGID_24_)" fill="#FFFFFF" width="4" height="1"/>
		<rect x="12" y="262" clip-path="url(#SVGID_24_)" fill="#FFFFFF" width="4" height="1"/>
		<rect x="18" y="262" clip-path="url(#SVGID_24_)" fill="#FFFFFF" width="4" height="1"/>
		<rect x="24" y="262" clip-path="url(#SVGID_24_)" fill="#FFFFFF" width="4" height="1"/>
		<rect x="12" y="268" clip-path="url(#SVGID_24_)" fill="#FFFFFF" width="4" height="1"/>
		<rect x="18" y="268" clip-path="url(#SVGID_24_)" fill="#FFFFFF" width="4" height="1"/>
		<rect x="24" y="268" clip-path="url(#SVGID_24_)" fill="#FFFFFF" width="4" height="1"/>
	</g>
</g>
<rect x="52" y="252" fill="#5988A5" width="4" height="4"/>
<rect x="64" y="252" fill="#5988A5" width="4" height="4"/>
<rect x="58" y="252" fill="#5988A5" width="4" height="4"/>
<rect x="52" y="258" fill="#5988A5" width="4" height="4"/>
<rect x="64" y="258" fill="#5988A5" width="4" height="4"/>
<rect x="58" y="258" fill="#5988A5" width="4" height="4"/>
<rect x="52" y="264" fill="#5988A5" width="4" height="4"/>
<rect x="64" y="264" fill="#5988A5" width="4" height="4"/>
<rect x="58" y="264" fill="#5988A5" width="4" height="4"/>
<g opacity="0.25">
	<g>
		<defs>
			<rect id="SVGID_25_" x="52" y="252" width="16" height="13"/>
		</defs>
		<clipPath id="SVGID_26_">
			<use xlink:href="#SVGID_25_"  overflow="visible"/>
		</clipPath>
		<rect x="52" y="252" clip-path="url(#SVGID_26_)" width="4" height="1"/>
		<rect x="58" y="252" clip-path="url(#SVGID_26_)" width="4" height="1"/>
		<rect x="64" y="252" clip-path="url(#SVGID_26_)" width="4" height="1"/>
		<rect x="52" y="258" clip-path="url(#SVGID_26_)" width="4" height="1"/>
		<rect x="58" y="258" clip-path="url(#SVGID_26_)" width="4" height="1"/>
		<rect x="64" y="258" clip-path="url(#SVGID_26_)" width="4" height="1"/>
		<rect x="52" y="264" clip-path="url(#SVGID_26_)" width="4" height="1"/>
		<rect x="58" y="264" clip-path="url(#SVGID_26_)" width="4" height="1"/>
		<rect x="64" y="264" clip-path="url(#SVGID_26_)" width="4" height="1"/>
	</g>
</g>
<g opacity="0.4">
	<g>
		<defs>
			<rect id="SVGID_27_" x="52" y="256" width="16" height="13"/>
		</defs>
		<clipPath id="SVGID_28_">
			<use xlink:href="#SVGID_27_"  overflow="visible"/>
		</clipPath>
		<rect x="52" y="256" clip-path="url(#SVGID_28_)" fill="#FFFFFF" width="4" height="1"/>
		<rect x="58" y="256" clip-path="url(#SVGID_28_)" fill="#FFFFFF" width="4" height="1"/>
		<rect x="64" y="256" clip-path="url(#SVGID_28_)" fill="#FFFFFF" width="4" height="1"/>
		<rect x="52" y="262" clip-path="url(#SVGID_28_)" fill="#FFFFFF" width="4" height="1"/>
		<rect x="58" y="262" clip-path="url(#SVGID_28_)" fill="#FFFFFF" width="4" height="1"/>
		<rect x="64" y="262" clip-path="url(#SVGID_28_)" fill="#FFFFFF" width="4" height="1"/>
		<rect x="52" y="268" clip-path="url(#SVGID_28_)" fill="#FFFFFF" width="4" height="1"/>
		<rect x="58" y="268" clip-path="url(#SVGID_28_)" fill="#FFFFFF" width="4" height="1"/>
		<rect x="64" y="268" clip-path="url(#SVGID_28_)" fill="#FFFFFF" width="4" height="1"/>
	</g>
</g>
<rect x="12" y="292" fill="#8C8C8C" width="16" height="4"/>
<rect x="12" y="298" fill="#8C8C8C" width="16" height="4"/>
<rect x="12" y="304" fill="#8C8C8C" width="16" height="4"/>
<g opacity="0.25">
	<g>
		<defs>
			<rect id="SVGID_29_" x="12" y="292" width="16" height="1"/>
		</defs>
		<clipPath id="SVGID_30_">
			<use xlink:href="#SVGID_29_"  overflow="visible"/>
		</clipPath>
		<rect x="12" y="292" clip-path="url(#SVGID_30_)" width="16" height="1"/>
	</g>
</g>
<g opacity="0.25">
	<g>
		<defs>
			<rect id="SVGID_31_" x="12" y="298" width="16" height="1"/>
		</defs>
		<clipPath id="SVGID_32_">
			<use xlink:href="#SVGID_31_"  overflow="visible"/>
		</clipPath>
		<rect x="12" y="298" clip-path="url(#SVGID_32_)" width="16" height="1"/>
	</g>
</g>
<g opacity="0.25">
	<g>
		<defs>
			<rect id="SVGID_33_" x="12" y="304" width="16" height="1"/>
		</defs>
		<clipPath id="SVGID_34_">
			<use xlink:href="#SVGID_33_"  overflow="visible"/>
		</clipPath>
		<rect x="12" y="304" clip-path="url(#SVGID_34_)" width="16" height="1"/>
	</g>
</g>
<g opacity="0.4">
	<g>
		<defs>
			<rect id="SVGID_35_" x="12" y="296" width="16" height="1"/>
		</defs>
		<clipPath id="SVGID_36_">
			<use xlink:href="#SVGID_35_"  overflow="visible"/>
		</clipPath>
		<rect x="12" y="296" clip-path="url(#SVGID_36_)" fill="#FFFFFF" width="16" height="1"/>
	</g>
</g>
<g opacity="0.4">
	<g>
		<defs>
			<rect id="SVGID_37_" x="12" y="302" width="16" height="1"/>
		</defs>
		<clipPath id="SVGID_38_">
			<use xlink:href="#SVGID_37_"  overflow="visible"/>
		</clipPath>
		<rect x="12" y="302" clip-path="url(#SVGID_38_)" fill="#FFFFFF" width="16" height="1"/>
	</g>
</g>
<g opacity="0.4">
	<g>
		<defs>
			<rect id="SVGID_39_" x="12" y="308" width="16" height="1"/>
		</defs>
		<clipPath id="SVGID_40_">
			<use xlink:href="#SVGID_39_"  overflow="visible"/>
		</clipPath>
		<rect x="12" y="308" clip-path="url(#SVGID_40_)" fill="#FFFFFF" width="16" height="1"/>
	</g>
</g>
<rect x="52" y="292" fill="#5988A5" width="16" height="4"/>
<rect x="52" y="298" fill="#5988A5" width="16" height="4"/>
<rect x="52" y="304" fill="#5988A5" width="16" height="4"/>
<g opacity="0.25">
	<g>
		<defs>
			<rect id="SVGID_41_" x="52" y="292" width="16" height="1"/>
		</defs>
		<clipPath id="SVGID_42_">
			<use xlink:href="#SVGID_41_"  overflow="visible"/>
		</clipPath>
		<rect x="52" y="292" clip-path="url(#SVGID_42_)" width="16" height="1"/>
	</g>
</g>
<g opacity="0.25">
	<g>
		<defs>
			<rect id="SVGID_43_" x="52" y="298" width="16" height="1"/>
		</defs>
		<clipPath id="SVGID_44_">
			<use xlink:href="#SVGID_43_"  overflow="visible"/>
		</clipPath>
		<rect x="52" y="298" clip-path="url(#SVGID_44_)" width="16" height="1"/>
	</g>
</g>
<g opacity="0.25">
	<g>
		<defs>
			<rect id="SVGID_45_" x="52" y="304" width="16" height="1"/>
		</defs>
		<clipPath id="SVGID_46_">
			<use xlink:href="#SVGID_45_"  overflow="visible"/>
		</clipPath>
		<rect x="52" y="304" clip-path="url(#SVGID_46_)" width="16" height="1"/>
	</g>
</g>
<g opacity="0.4">
	<g>
		<defs>
			<rect id="SVGID_47_" x="52" y="296" width="16" height="1"/>
		</defs>
		<clipPath id="SVGID_48_">
			<use xlink:href="#SVGID_47_"  overflow="visible"/>
		</clipPath>
		<rect x="52" y="296" clip-path="url(#SVGID_48_)" fill="#FFFFFF" width="16" height="1"/>
	</g>
</g>
<g opacity="0.4">
	<g>
		<defs>
			<rect id="SVGID_49_" x="52" y="302" width="16" height="1"/>
		</defs>
		<clipPath id="SVGID_50_">
			<use xlink:href="#SVGID_49_"  overflow="visible"/>
		</clipPath>
		<rect x="52" y="302" clip-path="url(#SVGID_50_)" fill="#FFFFFF" width="16" height="1"/>
	</g>
</g>
<g opacity="0.4">
	<g>
		<defs>
			<rect id="SVGID_51_" x="52" y="308" width="16" height="1"/>
		</defs>
		<clipPath id="SVGID_52_">
			<use xlink:href="#SVGID_51_"  overflow="visible"/>
		</clipPath>
		<rect x="52" y="308" clip-path="url(#SVGID_52_)" fill="#FFFFFF" width="16" height="1"/>
	</g>
</g>
<path fill="#8C8C8C" d="M28,335.062L24.939,332l-4.648,0.818L12,341.109L18.89,348l8.292-8.292L28,335.062z M23.713,336.287
	c-0.76-0.762-1.07-1.687-0.689-2.068c0.381-0.381,1.306-0.073,2.068,0.689c0.76,0.762,1.069,1.686,0.689,2.066
	C25.399,337.357,24.475,337.047,23.713,336.287"/>
<g opacity="0.4">
	<g>
		<defs>
			<rect id="SVGID_53_" x="12" y="334.056" width="16" height="14.944"/>
		</defs>
		<clipPath id="SVGID_54_">
			<use xlink:href="#SVGID_53_"  overflow="visible"/>
		</clipPath>
		<path clip-path="url(#SVGID_54_)" fill="#FFFFFF" d="M25.092,334.908c-0.762-0.762-1.687-1.07-2.068-0.689
			c-0.214,0.213-0.203,0.602-0.023,1.035c0.009-0.011,0.013-0.026,0.023-0.035c0.381-0.381,1.306-0.073,2.068,0.689
			c0.333,0.333,0.572,0.695,0.712,1.031C26.139,336.542,25.832,335.65,25.092,334.908"/>
		<polygon clip-path="url(#SVGID_54_)" fill="#FFFFFF" points="27.182,339.708 18.89,348 12.5,341.609 12,342.109 18.89,349 
			27.182,340.708 28,336.062 27.85,335.913 		"/>
	</g>
</g>
<g opacity="0.25">
	<g>
		<defs>
			<rect id="SVGID_55_" x="12" y="332" width="16" height="9.609"/>
		</defs>
		<clipPath id="SVGID_56_">
			<use xlink:href="#SVGID_55_"  overflow="visible"/>
		</clipPath>
		<polygon clip-path="url(#SVGID_56_)" points="20.291,333.818 24.939,333 27.85,335.914 28,335.062 24.939,332 20.291,332.818 
			12,341.109 12.5,341.609 		"/>
		<path clip-path="url(#SVGID_56_)" d="M23.713,337.287c0.762,0.76,1.686,1.07,2.068,0.687c0.214-0.213,0.203-0.602,0.023-1.035
			c-0.009,0.011-0.013,0.026-0.023,0.036c-0.382,0.382-1.306,0.072-2.068-0.688c-0.333-0.333-0.572-0.696-0.712-1.033
			C22.665,335.652,22.973,336.546,23.713,337.287"/>
	</g>
</g>
<path fill="#5988A5" d="M68,335.062L64.939,332l-4.648,0.818L52,341.109L58.891,348l8.291-8.292L68,335.062z M63.713,336.287
	c-0.76-0.762-1.07-1.687-0.689-2.068c0.381-0.381,1.307-0.073,2.068,0.689c0.76,0.762,1.068,1.686,0.689,2.066
	C65.398,337.357,64.475,337.047,63.713,336.287"/>
<g opacity="0.4">
	<g>
		<defs>
			<rect id="SVGID_57_" x="52" y="334.056" width="16" height="14.944"/>
		</defs>
		<clipPath id="SVGID_58_">
			<use xlink:href="#SVGID_57_"  overflow="visible"/>
		</clipPath>
		<path clip-path="url(#SVGID_58_)" fill="#FFFFFF" d="M65.092,334.908c-0.762-0.762-1.687-1.07-2.068-0.689
			c-0.214,0.213-0.203,0.602-0.023,1.035c0.01-0.011,0.014-0.026,0.023-0.035c0.382-0.381,1.307-0.073,2.068,0.689
			c0.332,0.333,0.572,0.695,0.712,1.031C66.139,336.542,65.832,335.65,65.092,334.908"/>
		<polygon clip-path="url(#SVGID_58_)" fill="#FFFFFF" points="67.182,339.708 58.891,348 52.5,341.609 52,342.109 58.891,349 
			67.182,340.708 68,336.062 67.85,335.913 		"/>
	</g>
</g>
<g opacity="0.25">
	<g>
		<defs>
			<rect id="SVGID_59_" x="52" y="332" width="16" height="9.609"/>
		</defs>
		<clipPath id="SVGID_60_">
			<use xlink:href="#SVGID_59_"  overflow="visible"/>
		</clipPath>
		<polygon clip-path="url(#SVGID_60_)" points="60.291,333.818 64.939,333 67.85,335.914 68,335.062 64.939,332 60.291,332.818 
			52,341.109 52.5,341.609 		"/>
		<path clip-path="url(#SVGID_60_)" d="M63.713,337.287c0.762,0.76,1.686,1.07,2.068,0.687c0.213-0.213,0.203-0.602,0.022-1.035
			c-0.009,0.011-0.013,0.026-0.022,0.036c-0.383,0.382-1.307,0.072-2.068-0.688c-0.332-0.333-0.572-0.696-0.713-1.033
			C62.665,335.652,62.973,336.546,63.713,337.287"/>
	</g>
</g>
<polygon fill="#8C8C8C" points="18,374 15,374 15,382 13,382 16.5,388 20,382 18,382 "/>
<polygon fill="#8C8C8C" points="27,378 23.5,372 20,378 22,378 22,386 25,386 25,378 "/>
<g opacity="0.25">
	<g>
		<defs>
			<rect id="SVGID_61_" x="13" y="374" width="7" height="9"/>
		</defs>
		<clipPath id="SVGID_62_">
			<use xlink:href="#SVGID_61_"  overflow="visible"/>
		</clipPath>
		<polygon clip-path="url(#SVGID_62_)" points="18,383 19.417,383 20,382 18,382 		"/>
		<rect x="15" y="374" clip-path="url(#SVGID_62_)" width="3" height="1"/>
		<polygon clip-path="url(#SVGID_62_)" points="15,383 15,382 13,382 13.583,383 		"/>
	</g>
</g>
<g opacity="0.25">
	<g>
		<defs>
			<rect id="SVGID_63_" x="20" y="372" width="7" height="6"/>
		</defs>
		<clipPath id="SVGID_64_">
			<use xlink:href="#SVGID_63_"  overflow="visible"/>
		</clipPath>
		<polygon clip-path="url(#SVGID_64_)" points="23.5,373 26.417,378 27,378 23.5,372 20,378 20.583,378 		"/>
	</g>
</g>
<g opacity="0.4">
	<g>
		<defs>
			<rect id="SVGID_65_" x="13" y="378" width="14" height="11"/>
		</defs>
		<clipPath id="SVGID_66_">
			<use xlink:href="#SVGID_65_"  overflow="visible"/>
		</clipPath>
		<polygon clip-path="url(#SVGID_66_)" fill="#FFFFFF" points="16.5,388 13.583,383 13,383 16.5,389 20,383 19.417,383 		"/>
		<rect x="22" y="386" clip-path="url(#SVGID_66_)" fill="#FFFFFF" width="3" height="1"/>
		<polygon clip-path="url(#SVGID_66_)" fill="#FFFFFF" points="22,378 20.583,378 20,379 22,379 		"/>
		<polygon clip-path="url(#SVGID_66_)" fill="#FFFFFF" points="25,378 25,379 27,379 26.417,378 		"/>
	</g>
</g>
<polygon fill="#5988A5" points="58,374 55,374 55,382 53,382 56.5,388 60,382 58,382 "/>
<polygon fill="#5988A5" points="67,378 63.5,372 60,378 62,378 62,386 65,386 65,378 "/>
<g opacity="0.25">
	<g>
		<defs>
			<rect id="SVGID_67_" x="53" y="374" width="7" height="9"/>
		</defs>
		<clipPath id="SVGID_68_">
			<use xlink:href="#SVGID_67_"  overflow="visible"/>
		</clipPath>
		<polygon clip-path="url(#SVGID_68_)" points="58,383 59.416,383 60,382 58,382 		"/>
		<rect x="55" y="374" clip-path="url(#SVGID_68_)" width="3" height="1"/>
		<polygon clip-path="url(#SVGID_68_)" points="55,383 55,382 53,382 53.584,383 		"/>
	</g>
</g>
<g opacity="0.25">
	<g>
		<defs>
			<rect id="SVGID_69_" x="60" y="372" width="7" height="6"/>
		</defs>
		<clipPath id="SVGID_70_">
			<use xlink:href="#SVGID_69_"  overflow="visible"/>
		</clipPath>
		<polygon clip-path="url(#SVGID_70_)" points="63.5,373 66.416,378 67,378 63.5,372 60,378 60.584,378 		"/>
	</g>
</g>
<g opacity="0.4">
	<g>
		<defs>
			<rect id="SVGID_71_" x="53" y="378" width="14" height="11"/>
		</defs>
		<clipPath id="SVGID_72_">
			<use xlink:href="#SVGID_71_"  overflow="visible"/>
		</clipPath>
		<polygon clip-path="url(#SVGID_72_)" fill="#FFFFFF" points="56.5,388 53.584,383 53,383 56.5,389 60,383 59.416,383 		"/>
		<rect x="62" y="386" clip-path="url(#SVGID_72_)" fill="#FFFFFF" width="3" height="1"/>
		<polygon clip-path="url(#SVGID_72_)" fill="#FFFFFF" points="62,378 60.584,378 60,379 62,379 		"/>
		<polygon clip-path="url(#SVGID_72_)" fill="#FFFFFF" points="65,378 65,379 67,379 66.416,378 		"/>
	</g>
</g>
<polygon fill="#8C8C8C" points="28,412 22,412 18,412 12,412 18,419.5 18,428.001 18.249,428.001 22,424 22,419.5 "/>
<g opacity="0.25">
	<g>
		<defs>
			<rect id="SVGID_73_" x="12" y="412" width="16" height="1"/>
		</defs>
		<clipPath id="SVGID_74_">
			<use xlink:href="#SVGID_73_"  overflow="visible"/>
		</clipPath>
		<polygon clip-path="url(#SVGID_74_)" points="18,413 22,413 27.2,413 28,412 22,412 18,412 12,412 12.8,413 		"/>
	</g>
</g>
<g opacity="0.4">
	<g>
		<defs>
			<rect id="SVGID_75_" x="12" y="413" width="16" height="16"/>
		</defs>
		<clipPath id="SVGID_76_">
			<use xlink:href="#SVGID_75_"  overflow="visible"/>
		</clipPath>
		<polygon clip-path="url(#SVGID_76_)" fill="#FFFFFF" points="18,419.5 12.8,413 12,413 18,420.5 		"/>
		<polygon clip-path="url(#SVGID_76_)" fill="#FFFFFF" points="18,428 18,429 18.249,429 22,425 22,424 18.249,428 		"/>
		<polygon clip-path="url(#SVGID_76_)" fill="#FFFFFF" points="22,419.5 22,420.5 28,413 27.2,413 		"/>
	</g>
</g>
<polygon fill="#5988A5" points="68,412 62,412 58,412 52,412 58,419.5 58,428.001 58.249,428.001 62,424 62,419.5 "/>
<g opacity="0.25">
	<g>
		<defs>
			<rect id="SVGID_77_" x="52" y="412" width="16" height="1"/>
		</defs>
		<clipPath id="SVGID_78_">
			<use xlink:href="#SVGID_77_"  overflow="visible"/>
		</clipPath>
		<polygon clip-path="url(#SVGID_78_)" points="58,413 62,413 67.2,413 68,412 62,412 58,412 52,412 52.8,413 		"/>
	</g>
</g>
<g opacity="0.4">
	<g>
		<defs>
			<rect id="SVGID_79_" x="52" y="413" width="16" height="16"/>
		</defs>
		<clipPath id="SVGID_80_">
			<use xlink:href="#SVGID_79_"  overflow="visible"/>
		</clipPath>
		<polygon clip-path="url(#SVGID_80_)" fill="#FFFFFF" points="58,419.5 52.8,413 52,413 58,420.5 		"/>
		<polygon clip-path="url(#SVGID_80_)" fill="#FFFFFF" points="58,428 58,429 58.249,429 62,425 62,424 58.249,428 		"/>
		<polygon clip-path="url(#SVGID_80_)" fill="#FFFFFF" points="62,419.5 62,420.5 68,413 67.2,413 		"/>
	</g>
</g>
<path fill="#8C8C8C" d="M27.634,465.866l-3.74-3.739C24.593,461.091,25,459.844,25,458.5c0-3.591-2.909-6.5-6.5-6.5
	c-1.344,0-2.591,0.407-3.627,1.105c-0.697,0.47-1.298,1.07-1.768,1.768C12.407,455.909,12,457.156,12,458.5
	c0,3.591,2.909,6.5,6.5,6.5c1.344,0,2.591-0.407,3.627-1.105l3.739,3.739C26.11,467.878,26.429,468,26.75,468
	c0.32,0,0.639-0.122,0.884-0.366C28.122,467.146,28.122,466.354,27.634,465.866 M20.657,462.425C20.013,462.78,19.285,463,18.5,463
	c-2.482,0-4.5-2.019-4.5-4.5c0-0.785,0.22-1.514,0.575-2.157c0.412-0.745,1.022-1.354,1.768-1.768
	C16.986,454.22,17.715,454,18.5,454c2.481,0,4.5,2.019,4.5,4.5c0,0.785-0.22,1.514-0.575,2.157
	C22.012,461.402,21.402,462.013,20.657,462.425"/>
<g opacity="0.25">
	<g>
		<defs>
			<rect id="SVGID_81_" x="12" y="452" width="15.996" height="15.25"/>
		</defs>
		<clipPath id="SVGID_82_">
			<use xlink:href="#SVGID_81_"  overflow="visible"/>
		</clipPath>
		<path clip-path="url(#SVGID_82_)" d="M23.895,463.127l3.739,3.739c0.114,0.114,0.195,0.245,0.255,0.384
			c0.201-0.458,0.12-1.009-0.255-1.384l-3.375-3.375C24.146,462.709,24.03,462.925,23.895,463.127"/>
		<path clip-path="url(#SVGID_82_)" d="M13.105,455.873c0.47-0.697,1.07-1.298,1.768-1.768C15.91,453.407,17.157,453,18.5,453
			c3.388,0,6.167,2.592,6.469,5.901C24.979,458.767,25,458.637,25,458.5c0-3.591-2.91-6.5-6.5-6.5c-1.344,0-2.591,0.407-3.627,1.105
			c-0.698,0.47-1.298,1.07-1.768,1.768C12.408,455.909,12,457.156,12,458.5c0,0.202,0.012,0.401,0.03,0.599
			C12.104,457.91,12.479,456.804,13.105,455.873"/>
		<path clip-path="url(#SVGID_82_)" d="M18.5,464c0.785,0,1.514-0.22,2.157-0.575c0.745-0.412,1.356-1.022,1.768-1.768
			C22.78,461.014,23,460.285,23,459.5c0-0.142-0.029-0.275-0.042-0.413c-0.079,0.562-0.268,1.091-0.533,1.57
			c-0.412,0.745-1.023,1.355-1.768,1.768C20.014,462.78,19.285,463,18.5,463c-2.34,0-4.246-1.802-4.458-4.087
			C14.015,459.104,14,459.301,14,459.5C14,461.981,16.019,464,18.5,464"/>
	</g>
</g>
<g opacity="0.4">
	<g>
		<defs>
			<rect id="SVGID_83_" x="12" y="454" width="15.996" height="15"/>
		</defs>
		<clipPath id="SVGID_84_">
			<use xlink:href="#SVGID_83_"  overflow="visible"/>
		</clipPath>
		<path clip-path="url(#SVGID_84_)" fill="#FFFFFF" d="M18.5,454c-0.785,0-1.514,0.22-2.157,0.575
			c-0.745,0.412-1.356,1.022-1.768,1.768C14.22,456.986,14,457.715,14,458.5c0,0.142,0.029,0.275,0.042,0.413
			c0.079-0.562,0.268-1.09,0.533-1.57c0.412-0.745,1.023-1.355,1.768-1.768C16.986,455.22,17.715,455,18.5,455
			c2.34,0,4.246,1.802,4.458,4.087c0.027-0.19,0.042-0.388,0.042-0.587C23,456.019,20.981,454,18.5,454"/>
		<path clip-path="url(#SVGID_84_)" fill="#FFFFFF" d="M27.634,467.634C27.39,467.878,27.071,468,26.75,468
			c-0.32,0-0.639-0.122-0.884-0.366l-3.739-3.739C21.091,464.593,19.844,465,18.5,465c-3.388,0-6.167-2.592-6.47-5.901
			c-0.008,0.135-0.03,0.265-0.03,0.401c0,3.591,2.909,6.5,6.5,6.5c1.344,0,2.591-0.407,3.627-1.105l3.739,3.739
			C26.111,468.878,26.43,469,26.75,469c0.321,0,0.64-0.122,0.884-0.366c0.375-0.375,0.456-0.926,0.255-1.384
			C27.828,467.389,27.747,467.521,27.634,467.634"/>
		<path clip-path="url(#SVGID_84_)" fill="#FFFFFF" d="M24.259,462.491C24.726,461.596,25,460.582,25,459.5
			c0-0.202-0.012-0.401-0.03-0.599c-0.073,1.188-0.448,2.295-1.075,3.226L24.259,462.491z"/>
	</g>
</g>
<path fill="#5988A5" d="M67.634,465.866l-3.739-3.739C64.593,461.091,65,459.844,65,458.5c0-3.591-2.909-6.5-6.5-6.5
	c-1.344,0-2.591,0.407-3.627,1.105c-0.697,0.47-1.298,1.07-1.768,1.768C52.407,455.909,52,457.156,52,458.5
	c0,3.591,2.909,6.5,6.5,6.5c1.344,0,2.591-0.407,3.627-1.105l3.739,3.739C66.11,467.878,66.43,468,66.75,468s0.64-0.122,0.884-0.366
	C68.122,467.146,68.122,466.354,67.634,465.866 M60.657,462.425C60.014,462.78,59.285,463,58.5,463c-2.481,0-4.5-2.019-4.5-4.5
	c0-0.785,0.22-1.514,0.575-2.157c0.412-0.745,1.022-1.354,1.768-1.768C56.986,454.22,57.715,454,58.5,454c2.481,0,4.5,2.019,4.5,4.5
	c0,0.785-0.22,1.514-0.575,2.157C62.012,461.402,61.402,462.013,60.657,462.425"/>
<g opacity="0.25">
	<g>
		<defs>
			<rect id="SVGID_85_" x="52" y="452" width="15.996" height="15.25"/>
		</defs>
		<clipPath id="SVGID_86_">
			<use xlink:href="#SVGID_85_"  overflow="visible"/>
		</clipPath>
		<path clip-path="url(#SVGID_86_)" d="M63.895,463.127l3.739,3.739c0.113,0.114,0.194,0.245,0.255,0.384
			c0.201-0.458,0.12-1.009-0.255-1.384l-3.375-3.375C64.146,462.709,64.031,462.925,63.895,463.127"/>
		<path clip-path="url(#SVGID_86_)" d="M53.105,455.873c0.47-0.697,1.07-1.298,1.768-1.768c1.036-0.698,2.283-1.105,3.628-1.105
			c3.388,0,6.167,2.592,6.469,5.901c0.009-0.135,0.031-0.265,0.031-0.401c0-3.591-2.91-6.5-6.5-6.5
			c-1.345,0-2.592,0.407-3.628,1.105c-0.697,0.47-1.298,1.07-1.768,1.768c-0.698,1.036-1.104,2.283-1.104,3.627
			c0,0.202,0.011,0.401,0.029,0.599C52.104,457.91,52.479,456.804,53.105,455.873"/>
		<path clip-path="url(#SVGID_86_)" d="M58.5,464c0.785,0,1.514-0.22,2.157-0.575c0.745-0.412,1.355-1.022,1.768-1.768
			C62.78,461.014,63,460.285,63,459.5c0-0.142-0.029-0.275-0.042-0.413c-0.079,0.562-0.269,1.091-0.533,1.57
			c-0.412,0.745-1.022,1.355-1.768,1.768C60.014,462.78,59.285,463,58.5,463c-2.34,0-4.246-1.802-4.458-4.087
			C54.015,459.104,54,459.301,54,459.5C54,461.981,56.019,464,58.5,464"/>
	</g>
</g>
<g opacity="0.4">
	<g>
		<defs>
			<rect id="SVGID_87_" x="52" y="454" width="15.996" height="15"/>
		</defs>
		<clipPath id="SVGID_88_">
			<use xlink:href="#SVGID_87_"  overflow="visible"/>
		</clipPath>
		<path clip-path="url(#SVGID_88_)" fill="#FFFFFF" d="M58.5,454c-0.785,0-1.514,0.22-2.157,0.575
			c-0.745,0.412-1.355,1.022-1.768,1.768C54.22,456.986,54,457.715,54,458.5c0,0.142,0.029,0.275,0.042,0.413
			c0.079-0.562,0.269-1.09,0.533-1.57c0.412-0.745,1.022-1.355,1.768-1.768C56.986,455.22,57.715,455,58.5,455
			c2.34,0,4.246,1.802,4.458,4.087c0.027-0.19,0.042-0.388,0.042-0.587C63,456.019,60.981,454,58.5,454"/>
		<path clip-path="url(#SVGID_88_)" fill="#FFFFFF" d="M67.634,467.634C67.39,467.878,67.07,468,66.75,468s-0.64-0.122-0.884-0.366
			l-3.739-3.739C61.091,464.593,59.844,465,58.5,465c-3.389,0-6.167-2.592-6.47-5.901c-0.009,0.135-0.03,0.265-0.03,0.401
			c0,3.591,2.909,6.5,6.5,6.5c1.344,0,2.591-0.407,3.627-1.105l3.739,3.739C66.11,468.878,66.43,469,66.75,469
			s0.64-0.122,0.884-0.366c0.375-0.375,0.456-0.926,0.255-1.384C67.828,467.389,67.747,467.521,67.634,467.634"/>
		<path clip-path="url(#SVGID_88_)" fill="#FFFFFF" d="M64.259,462.491C64.727,461.596,65,460.582,65,459.5
			c0-0.202-0.012-0.401-0.03-0.599c-0.073,1.188-0.448,2.295-1.075,3.226L64.259,462.491z"/>
	</g>
</g>
<path fill="#BDBEC0" d="M55,212c-0.55,0-1,0.45-1,1v12c0,0.55,0.45,1,1,1h9c0.55,0,1-0.45,1-1v-8l-5-5H55z"/>
<path fill="#949598" d="M61,217h4l-5-5v4C60,216.55,60.45,217,61,217"/>
<path fill="#C94B4B" d="M20.5,532c-4.142,0-7.5,3.356-7.5,7.5c0,4.143,3.358,7.5,7.5,7.5s7.5-3.357,7.5-7.5
	C28,535.356,24.642,532,20.5,532 M20.5,544.499c-0.55,0-1-0.45-1-1s0.45-1,1-1s1,0.45,1,1S21.05,544.499,20.5,544.499
	 M21.604,540.503c-0.049,0.548-0.539,0.996-1.088,0.996c-0.551,0-1.043-0.448-1.095-0.996l-0.327-3.507
	C19.042,536.447,19.45,536,20,536h1c0.55,0,0.961,0.447,0.912,0.996L21.604,540.503z"/>
<path fill="#C17417" d="M60.499,532c-4.142,0-7.5,3.356-7.5,7.5c0,4.143,3.358,7.5,7.5,7.5c4.144,0,7.5-3.357,7.5-7.5
	C67.999,535.356,64.643,532,60.499,532 M60.499,544.499c-0.549,0-1-0.45-1-1s0.451-1,1-1c0.551,0,1,0.45,1,1
	S61.05,544.499,60.499,544.499 M61.604,540.503c-0.049,0.548-0.539,0.996-1.088,0.996c-0.551,0-1.043-0.448-1.095-0.996
	l-0.327-3.507C59.041,536.447,59.45,536,59.999,536h1c0.551,0,0.962,0.447,0.913,0.996L61.604,540.503z"/>
<path fill="#5988A5" d="M25.804,574.196c-2.93-2.929-7.678-2.929-10.607,0c-2.929,2.93-2.929,7.678,0,10.607
	c2.929,2.929,7.678,2.929,10.607,0C28.733,581.874,28.733,577.126,25.804,574.196 M24.743,581.621l-2.121,2.121l-2.122-2.121
	l-2.121,2.121l-2.121-2.121l2.121-2.121l-2.121-2.121l2.121-2.121l2.121,2.121l2.122-2.121l2.121,2.121l-2.121,2.121L24.743,581.621
	z"/>
<path fill="#4D7289" d="M65.805,574.196c-2.931-2.929-7.679-2.929-10.607,0c-2.93,2.93-2.93,7.678,0,10.607
	c2.929,2.929,7.678,2.929,10.607,0C68.732,581.874,68.732,577.126,65.805,574.196 M64.742,581.621l-2.121,2.121l-2.121-2.121
	l-2.121,2.121l-2.121-2.121l2.121-2.121l-2.121-2.121l2.121-2.121l2.121,2.121l2.121-2.121l2.121,2.121l-2.121,2.121L64.742,581.621
	z"/>
<path fill="#525960" d="M20.5,612c-4.142,0-7.5,3.357-7.5,7.5s3.358,7.5,7.5,7.5s7.5-3.357,7.5-7.5S24.642,612,20.5,612
	 M22.049,623.605c-0.387,0.152-0.695,0.269-0.926,0.348c-0.23,0.081-0.498,0.121-0.803,0.121c-0.468,0-0.833-0.114-1.092-0.343
	c-0.26-0.229-0.39-0.519-0.39-0.87c0-0.137,0.01-0.276,0.029-0.419c0.02-0.143,0.051-0.304,0.094-0.483l0.484-1.711
	c0.043-0.164,0.08-0.319,0.109-0.466c0.029-0.146,0.044-0.28,0.044-0.401c0-0.22-0.046-0.371-0.135-0.457
	c-0.091-0.086-0.263-0.129-0.518-0.129c-0.125,0-0.253,0.02-0.384,0.059c-0.132,0.039-0.244,0.076-0.338,0.111l0.129-0.527
	c0.317-0.129,0.62-0.239,0.909-0.331s0.563-0.138,0.821-0.138c0.466,0,0.824,0.112,1.077,0.337c0.252,0.225,0.378,0.517,0.378,0.876
	c0,0.074-0.009,0.205-0.026,0.393c-0.018,0.188-0.05,0.359-0.097,0.516l-0.482,1.705c-0.039,0.137-0.074,0.293-0.106,0.469
	c-0.031,0.176-0.047,0.309-0.047,0.397c0,0.228,0.051,0.382,0.152,0.464c0.102,0.082,0.278,0.123,0.527,0.123
	c0.117,0,0.25-0.021,0.398-0.062s0.255-0.077,0.322-0.108L22.049,623.605z M21.964,616.683c-0.225,0.209-0.495,0.313-0.812,0.313
	c-0.316,0-0.587-0.104-0.814-0.313s-0.34-0.462-0.34-0.759s0.113-0.551,0.34-0.763c0.227-0.21,0.498-0.315,0.814-0.315
	c0.317,0,0.587,0.105,0.812,0.315c0.225,0.212,0.337,0.466,0.337,0.763S22.189,616.474,21.964,616.683"/>
<path fill="#5988A5" d="M60.5,612c-4.143,0-7.5,3.357-7.5,7.5s3.357,7.5,7.5,7.5s7.5-3.357,7.5-7.5S64.643,612,60.5,612
	 M62.049,623.605c-0.387,0.152-0.695,0.269-0.926,0.348c-0.23,0.081-0.498,0.121-0.803,0.121c-0.469,0-0.833-0.114-1.093-0.343
	s-0.39-0.519-0.39-0.87c0-0.137,0.01-0.276,0.029-0.419s0.051-0.304,0.094-0.483l0.484-1.711c0.043-0.164,0.079-0.319,0.108-0.466
	s0.044-0.28,0.044-0.401c0-0.22-0.045-0.371-0.135-0.457c-0.091-0.086-0.263-0.129-0.518-0.129c-0.125,0-0.253,0.02-0.385,0.059
	c-0.131,0.039-0.243,0.076-0.338,0.111l0.129-0.527c0.316-0.129,0.62-0.239,0.909-0.331c0.29-0.092,0.563-0.138,0.821-0.138
	c0.466,0,0.824,0.112,1.076,0.337s0.379,0.517,0.379,0.876c0,0.074-0.009,0.205-0.026,0.393s-0.05,0.359-0.097,0.516l-0.482,1.705
	c-0.039,0.137-0.074,0.293-0.105,0.469s-0.047,0.309-0.047,0.397c0,0.228,0.051,0.382,0.152,0.464s0.277,0.123,0.526,0.123
	c0.117,0,0.249-0.021,0.397-0.062s0.256-0.077,0.322-0.108L62.049,623.605z M61.964,616.683c-0.225,0.209-0.495,0.313-0.812,0.313
	s-0.588-0.104-0.814-0.313s-0.34-0.462-0.34-0.759s0.113-0.551,0.34-0.763c0.227-0.21,0.498-0.315,0.814-0.315
	s0.587,0.105,0.812,0.315c0.225,0.212,0.337,0.466,0.337,0.763S62.188,616.474,61.964,616.683"/>
<path fill="#5988A5" d="M66.167,662.951L66.167,662.951l0.084-1.979c0.007,0,0.023-0.122,0.023-0.281
	c0-3.749-1.916-6.813-4.467-7.635c-0.112-0.653-0.653-1.104-1.308-1.104c-0.655,0-1.196,0.52-1.31,1.173
	c-2.55,0.822-4.466,3.805-4.466,7.555c0,0.158,0.016,0.292,0.023,0.292l0.085,1.979c-1.03,0.325-1.831,0.74-1.831,1.198
	c0,0.28,0.229,0.542,0.674,0.781c1.534-0.473,4.013-0.781,6.837-0.781s5.311,0.309,6.844,0.781c0.444-0.239,0.646-0.501,0.646-0.781
	C68.002,663.691,67.197,663.276,66.167,662.951"/>
<path fill="#5988A5" d="M58.341,665.148c0.229,1.033,1.104,1.805,2.159,1.805c1.053,0,1.928-0.771,2.158-1.805
	c-0.691-0.041-1.411-0.064-2.158-0.064C59.751,665.084,59.032,665.107,58.341,665.148"/>
<path fill="#525960" d="M26.167,662.951L26.167,662.951l0.084-1.979c0.008,0,0.024-0.122,0.024-0.281
	c0-3.749-1.916-6.813-4.466-7.635c-0.113-0.653-0.655-1.104-1.309-1.104c-0.655,0-1.196,0.52-1.309,1.173
	c-2.55,0.822-4.466,3.805-4.466,7.555c0,0.158,0.016,0.292,0.023,0.292l0.086,1.979c-1.031,0.325-1.832,0.74-1.832,1.198
	c0,0.28,0.23,0.542,0.675,0.781c1.533-0.473,4.011-0.781,6.837-0.781c2.824,0,5.31,0.309,6.842,0.781
	c0.445-0.239,0.646-0.501,0.646-0.781C28.001,663.691,27.196,663.276,26.167,662.951"/>
<path fill="#525960" d="M18.341,665.148c0.23,1.033,1.105,1.805,2.159,1.805c1.052,0,1.928-0.771,2.158-1.805
	c-0.691-0.041-1.41-0.064-2.158-0.064C19.752,665.084,19.032,665.107,18.341,665.148"/>
<path fill="#FFFFFF" d="M23,695v-1c0-0.55-0.45-1-1-1h-4c-0.55,0-1,0.45-1,1v1h-3v2h1v8c0,0.55,0.45,1,1,1h8c0.55,0,1-0.45,1-1v-8h1
	v-2H23z M17,704.5c0,0.275-0.225,0.5-0.5,0.5s-0.5-0.225-0.5-0.5v-6c0-0.275,0.225-0.5,0.5-0.5s0.5,0.225,0.5,0.5V704.5z M21,704
	c0,0.55-0.45,1-1,1s-1-0.45-1-1v-5c0-0.55,0.45-1,1-1s1,0.45,1,1V704z M22,695h-4v-1h4V695z M24,704.5c0,0.275-0.225,0.5-0.5,0.5
	s-0.5-0.225-0.5-0.5v-6c0-0.275,0.225-0.5,0.5-0.5s0.5,0.225,0.5,0.5V704.5z"/>
<rect x="61.404" y="695.348" transform="matrix(-0.7073 -0.7069 0.7069 -0.7073 -386.2922 1236.8881)" fill="#FFFFFF" width="3.074" height="6.149"/>
<path fill="#FFFFFF" d="M67.288,694.074c-0.599-0.597-1.413-0.76-1.812-0.362l-0.725,0.725l2.174,2.174l0.725-0.725
	C68.049,695.487,67.886,694.673,67.288,694.074"/>
<polygon fill="#FFFFFF" points="57.868,703.494 61.129,702.407 58.955,700.234 "/>
<path fill="#AFAFAF" d="M21.2,746c0.823-0.822,1.186-1.949,1.117-3.118c-0.013-0.215-0.038-0.431-0.08-0.646L21.2,741.2l2.4-2.4
	l1.201,1.2L26,738.8l-4.8-4.8l-1.2,1.2l1.2,1.199l-2.399,2.4l-1.037-1.036c-0.083-0.016-0.166-0.028-0.249-0.04
	c-1.308-0.185-2.6,0.161-3.515,1.076l3,3.001l-1.8,1.8L14,746l2.4-1.2l1.8-1.8L21.2,746z"/>
<path fill="#AFAFAF" d="M66,736.297L63.704,734l-3.485,0.613L54,740.832L59.168,746l6.218-6.219L66,736.297z M62.785,737.215
	c-0.57-0.57-0.803-1.266-0.518-1.551c0.286-0.285,0.98-0.055,1.551,0.518c0.571,0.57,0.803,1.263,0.518,1.549
	C64.049,738.018,63.355,737.785,62.785,737.215"/>
<path fill="#AFAFAF" d="M20,774c-3.313,0-6,2.687-6,6s2.687,6,6,6s6-2.687,6-6S23.313,774,20,774 M20,784c-2.209,0-4-1.791-4-4
	s1.791-4,4-4s4,1.791,4,4S22.209,784,20,784"/>
<polygon fill="#AFAFAF" points="22,777.75 19.5,780.25 18,778.75 17,779.75 19.5,782.25 23,778.75 "/>
<polygon fill="#FFFFFF" points="23,816.688 19.875,819.812 18,817.938 16.75,819.188 19.875,822.312 24.25,817.938 "/>
<rect x="19" y="136" fill="#FFFFFF" width="3" height="10"/>
<path fill="#B33131" d="M27.759,145.128l-6.231-11.356c-0.567-1.028-1.49-1.028-2.057,0l-6.23,11.356
	c-0.568,1.03-0.096,1.873,1.044,1.873h12.431C27.854,147.001,28.327,146.158,27.759,145.128 M20.5,145.501c-0.55,0-1-0.45-1-1
	s0.45-1.001,1-1.001s1,0.451,1,1.001S21.05,145.501,20.5,145.501 M21.604,141.504c-0.049,0.548-0.539,0.996-1.088,0.996
	c-0.551,0-1.043-0.448-1.095-0.996l-0.327-3.508C19.042,137.448,19.45,137,20,137h1c0.55,0,0.961,0.448,0.912,0.996L21.604,141.504z
	"/>
<path fill="#FFFFFF" d="M72.502,764h-24c-2.2,0-4,1.8-4,4v24c0,2.2,1.8,4,4,4h24c2.2,0,4-1.8,4-4v-24
	C76.502,765.8,74.702,764,72.502,764z M64.061,784l-3.559-4.447L56.943,784h-3.842l7.4-9.25l7.4,9.25H64.061z"/>
<polygon fill-rule="evenodd" clip-rule="evenodd" fill="#FFFFFF" points="15.243,858.039 17.906,860.646 25.757,853 28.5,855.671 
	17.92,866 12.5,860.71 "/>
<polygon fill-rule="evenodd" clip-rule="evenodd" fill="#48A565" points="55.242,858.039 57.906,860.646 65.758,853 68.5,855.671 
	57.92,866 52.5,860.71 "/>
<rect x="14" y="898" fill-rule="evenodd" clip-rule="evenodd" fill="#FFFFFF" width="13" height="4"/>
<rect x="54" y="898" fill-rule="evenodd" clip-rule="evenodd" fill="#48A565" width="13" height="4"/>
<path fill="#8C8C8C" d="M24,935h-1c0-1.104-1.119-2-2.5-2s-2.5,0.896-2.5,2h-1c-1.1,0-2,0.9-2,2v8c0,1.1,0.9,2,2,2h7
	c1.1,0,2-0.9,2-2v-8C26,935.9,25.1,935,24,935z M20.5,934.25c0.552,0,1,0.336,1,0.75s-0.448,0.75-1,0.75s-1-0.336-1-0.75
	S19.948,934.25,20.5,934.25z M20,945h-3v-1h3V945z M22,943h-5v-1h5V943z M24,941h-7v-1h7V941z M24,939h-7v-1h7V939z"/>
<path fill="#5988A5" d="M64,935h-1c0-1.104-1.119-2-2.5-2s-2.5,0.896-2.5,2h-1c-1.1,0-2,0.9-2,2v8c0,1.1,0.9,2,2,2h7
	c1.1,0,2-0.9,2-2v-8C66,935.9,65.1,935,64,935z M60.5,934.25c0.552,0,1,0.336,1,0.75s-0.448,0.75-1,0.75s-1-0.336-1-0.75
	S59.948,934.25,60.5,934.25z M60,945h-3v-1h3V945z M62,943h-5v-1h5V943z M64,941h-7v-1h7V941z M64,939h-7v-1h7V939z"/>
<g>
	<rect x="19" y="506" fill="#8C8C8C" width="7" height="1"/>
	
		<rect x="18.597" y="496.41" transform="matrix(-0.707 -0.7072 0.7072 -0.707 -318.7477 868.7516)" fill="#8C8C8C" width="3.995" height="7.994"/>
	<path fill="#8C8C8C" d="M26.244,494.754c-0.776-0.775-1.836-0.987-2.353-0.471l-0.942,0.941l2.825,2.826l0.942-0.941
		C27.233,496.592,27.023,495.533,26.244,494.754"/>
	<polygon fill="#8C8C8C" points="14,507 18.239,505.587 15.413,502.763 	"/>
</g>
<g>
	<rect x="59" y="506" fill="#5988A5" width="7" height="1"/>
	
		<rect x="58.597" y="496.41" transform="matrix(-0.707 -0.7072 0.7072 -0.707 -250.4688 897.0405)" fill="#5988A5" width="3.995" height="7.994"/>
	<path fill="#5988A5" d="M66.244,494.754c-0.776-0.775-1.836-0.987-2.353-0.471l-0.942,0.941l2.825,2.826l0.942-0.941
		C67.233,496.592,67.023,495.533,66.244,494.754"/>
	<polygon fill="#5988A5" points="54,507 58.239,505.587 55.413,502.763 	"/>
</g>
<polygon fill="#8C8C8C" points="26,977 22,977 22,973 18,973 18,977 14,977 14,981 18,981 18,985 22,985 22,981 26,981 "/>
<polygon fill="#5988A5" points="66,977 62,977 62,973 58,973 58,977 54,977 54,981 58,981 58,985 62,985 62,981 66,981 "/>
<g>
	<path fill="#8C8C8C" d="M61.484,1022.129c-0.297-0.054-0.303-0.967-0.303-0.967s0.87-0.968,1.06-2.271
		c0.51,0,0.825-1.383,0.314-1.869C62.577,1016.51,63.212,1013,60,1013s-2.577,3.51-2.556,4.022
		c-0.511,0.486-0.195,1.869,0.314,1.869c0.189,1.303,1.06,2.271,1.06,2.271s-0.006,0.913-0.303,0.967
		c-0.954,0.17-4.516,1.937-4.516,3.871h12C66,1024.065,62.438,1022.299,61.484,1022.129L61.484,1022.129z M61.484,1022.129"/>
</g>
<g>
	<path fill="#8C8C8C" d="M26.708,1019.168c-0.193-0.173-0.43-0.258-0.708-0.258h-0.334v-1.774c0-1.133-0.458-2.104-1.374-2.918
		C23.375,1013.406,22.278,1013,21,1013s-2.375,0.406-3.292,1.218c-0.916,0.813-1.374,1.785-1.374,2.918v1.774H16
		c-0.278,0-0.513,0.085-0.708,0.258c-0.194,0.172-0.292,0.381-0.292,0.627v5.318c0,0.246,0.098,0.454,0.292,0.628
		c0.195,0.172,0.43,0.259,0.708,0.259h10c0.278,0,0.514-0.087,0.708-0.259c0.194-0.174,0.292-0.382,0.292-0.628v-5.318
		C27,1019.549,26.903,1019.34,26.708,1019.168L26.708,1019.168z M23.667,1018.91h-5.334v-1.774c0-0.652,0.26-1.21,0.782-1.67
		c0.521-0.462,1.149-0.693,1.885-0.693s1.365,0.231,1.885,0.693c0.521,0.46,0.782,1.018,0.782,1.67V1018.91z M23.667,1018.91"/>
</g>
<g>
	<path fill="#FFFFFF" d="M63,813.5v2.902c0.907,0.734,1.5,1.842,1.5,3.098c0,2.206-1.794,4-4,4s-4-1.794-4-4
		c0-1.256,0.593-2.363,1.5-3.098V813.5c-2.349,0.979-4,3.296-4,6c0,3.59,2.91,6.5,6.5,6.5s6.5-2.91,6.5-6.5
		C67,816.796,65.349,814.479,63,813.5z"/>
	<rect x="59" y="812" fill="#FFFFFF" width="3" height="6"/>
</g>
</svg>
