<?xml version="1.0" encoding="utf-8"?>
<!-- Generator: Adobe Illustrator 16.0.4, SVG Export Plug-In . SVG Version: 6.00 Build 0)  -->
<!DOCTYPE svg PUBLIC "-//W3C//DTD SVG 1.1//EN" "http://www.w3.org/Graphics/SVG/1.1/DTD/svg11.dtd">
<svg version="1.1" id="Layer_1" xmlns="http://www.w3.org/2000/svg" xmlns:xlink="http://www.w3.org/1999/xlink" x="0px" y="0px"
	 width="80px" height="800px" viewBox="0 0 80 800" enable-background="new 0 0 80 800" xml:space="preserve">
<polygon fill="#FFFFFF" points="65,700 65,705 57,705 57,695 63,695 63,694 56,694 56,706 66,706 66,700 "/>
<path fill="#FFFFFF" d="M66.445,100.045c0.027-0.179,0.055-0.357,0.055-0.545c0-1.934-1.566-3.5-3.5-3.5
	c-0.718,0-1.385,0.218-1.939,0.589C60.34,95.062,58.8,94,57,94c-2.484,0-4.5,2.015-4.5,4.5c0,0.614,0.125,1.199,0.348,1.732
	C51.766,100.686,51,101.757,51,103c0,1.65,1.35,3,3,3h12c1.65,0,3-1.35,3-3C69,101.502,67.884,100.264,66.445,100.045z"/>
<line fill="none" x1="0" y1="40" x2="80.001" y2="40"/>
<line fill="none" x1="0" y1="80" x2="80.001" y2="80"/>
<line fill="none" x1="0" y1="120" x2="80.001" y2="120"/>
<line fill="none" x1="0" y1="160" x2="80.001" y2="160"/>
<line fill="none" x1="0" y1="200" x2="80.001" y2="200"/>
<line fill="none" x1="0" y1="200" x2="80.001" y2="200"/>
<line fill="none" x1="0" y1="240" x2="80.001" y2="240"/>
<line fill="none" x1="0" y1="280" x2="80.001" y2="280"/>
<line fill="none" x1="0" y1="320" x2="80.001" y2="320"/>
<line fill="none" x1="0" y1="360" x2="80.001" y2="360"/>
<line fill="none" x1="0" y1="400" x2="80.001" y2="400"/>
<line fill="none" x1="0" y1="440" x2="80.001" y2="440"/>
<line fill="none" x1="0" y1="480" x2="80.001" y2="480"/>
<line fill="none" x1="0" y1="520" x2="80.001" y2="520"/>
<line fill="none" x1="0" y1="560" x2="80.001" y2="560"/>
<line fill="none" x1="0" y1="600" x2="80.001" y2="600"/>
<line fill="none" x1="0" y1="640" x2="80.001" y2="640"/>
<line fill="none" x1="0" y1="680" x2="80.001" y2="680"/>
<line fill="none" x1="0" y1="720" x2="80.001" y2="720"/>
<line fill="none" x1="40" y1="0" x2="40" y2="800"/>
<g>
	<path fill="#8C8C8C" d="M28.577,20.979h2.244C30.938,20.337,31,19.675,31,19s-0.062-1.338-0.18-1.979h-2.244
		c-0.223-0.966-0.604-1.87-1.113-2.686l1.589-1.587c-0.757-1.094-1.706-2.043-2.801-2.801l-1.587,1.588
		c-0.814-0.511-1.719-0.893-2.686-1.113V8.178C21.338,8.061,20.676,8,20,8s-1.338,0.061-1.98,0.178v2.246
		c-0.965,0.224-1.869,0.604-2.684,1.113L13.75,9.949c-1.094,0.757-2.043,1.707-2.801,2.801l1.588,1.587
		c-0.51,0.815-0.891,1.719-1.113,2.685H9.179C9.062,17.663,9,18.325,9,19s0.061,1.338,0.178,1.979h2.246
		c0.222,0.968,0.603,1.869,1.113,2.688l-1.588,1.587c0.757,1.097,1.707,2.044,2.801,2.802l1.587-1.59
		c0.815,0.514,1.719,0.896,2.684,1.113v2.242C18.663,29.937,19.325,30,20,30s1.338-0.062,1.979-0.18v-2.244
		c0.967-0.224,1.869-0.604,2.687-1.113l1.587,1.589c1.096-0.757,2.044-1.706,2.801-2.801l-1.589-1.587
		C27.975,22.851,28.354,21.944,28.577,20.979z M20,24.278c-2.916,0-5.28-2.362-5.28-5.278s2.364-5.28,5.28-5.28
		s5.28,2.365,5.28,5.28C25.28,21.916,22.917,24.278,20,24.278z"/>
	<g opacity="0.25">
		<path d="M12.175,24.024l-1.226,1.227c0.136,0.196,0.284,0.382,0.432,0.566l1.156-1.153C12.409,24.457,12.288,24.244,12.175,24.024
			z"/>
		<path d="M21.979,11.423c0.967,0.222,1.871,0.604,2.687,1.113l1.587-1.588c0.898,0.622,1.691,1.378,2.368,2.23l0.433-0.432
			c-0.757-1.094-1.705-2.043-2.801-2.801l-1.587,1.588c-0.813-0.511-1.72-0.892-2.687-1.113V11.423z"/>
		<path d="M25.28,20c0-0.171-0.034-0.333-0.051-0.5c-0.256,2.678-2.483,4.778-5.229,4.778c-2.745,0-4.974-2.104-5.229-4.778
			c-0.016,0.167-0.05,0.329-0.05,0.5c0,2.916,2.364,5.278,5.28,5.278S25.28,22.916,25.28,20z"/>
		<path d="M27.826,14.975l-0.362,0.361c0.51,0.815,0.891,1.72,1.113,2.686h2.244c0.088,0.48,0.134,0.978,0.156,1.479
			C30.985,19.333,31,19.168,31,19c0-0.676-0.062-1.338-0.18-1.979h-2.244C28.411,16.3,28.155,15.614,27.826,14.975z"/>
		<path d="M27.463,24.664l1.156,1.153c0.148-0.188,0.297-0.37,0.433-0.566l-1.226-1.227C27.714,24.244,27.593,24.457,27.463,24.664z
			"/>
		<path d="M9.179,18.021h2.245c0.222-0.966,0.603-1.869,1.113-2.685l-0.363-0.362c-0.33,0.643-0.584,1.326-0.75,2.047H9.179
			C9.062,17.663,9,18.325,9,19c0,0.168,0.015,0.333,0.022,0.5C9.045,18.998,9.09,18.502,9.179,18.021z"/>
		<path d="M21.979,9.178v-1C21.338,8.061,20.676,8,20,8s-1.338,0.061-1.98,0.178v1C18.663,9.061,19.325,9,20,9
			S21.338,9.061,21.979,9.178z"/>
		<path d="M13.75,10.949l1.587,1.588c0.815-0.51,1.719-0.891,2.684-1.113v-1c-0.965,0.224-1.869,0.604-2.684,1.113L13.75,9.949
			c-1.094,0.757-2.043,1.707-2.801,2.801l0.433,0.432C12.059,12.328,12.852,11.57,13.75,10.949z"/>
	</g>
	<g opacity="0.4">
		<path fill="#FFFFFF" d="M27.826,14.975l1.227-1.226c-0.136-0.196-0.284-0.382-0.433-0.567l-1.156,1.154
			C27.593,14.543,27.713,14.756,27.826,14.975z"/>
		<path fill="#FFFFFF" d="M12.537,14.337l-1.155-1.155c-0.148,0.188-0.297,0.373-0.433,0.568l1.225,1.225
			C12.287,14.757,12.408,14.544,12.537,14.337z"/>
		<path fill="#FFFFFF" d="M12.175,24.024l0.362-0.36c-0.51-0.815-0.891-1.72-1.113-2.688H9.179
			c-0.088-0.479-0.133-0.978-0.156-1.479C9.016,19.666,9,19.83,9,19.999c0,0.676,0.061,1.338,0.178,1.979h2.246
			C11.59,22.7,11.844,23.386,12.175,24.024z"/>
		<path fill="#FFFFFF" d="M20,13.72c-2.916,0-5.28,2.364-5.28,5.28c0,0.171,0.035,0.333,0.05,0.5c0.256-2.678,2.485-4.78,5.229-4.78
			c2.745,0,4.974,2.104,5.229,4.78c0.017-0.167,0.051-0.329,0.051-0.5C25.28,16.085,22.917,13.72,20,13.72z"/>
		<path fill="#FFFFFF" d="M26.251,28.052l-1.587-1.589c-0.816,0.51-1.719,0.891-2.686,1.113v1c0.967-0.224,1.869-0.604,2.686-1.113
			l1.587,1.589c1.095-0.757,2.044-1.706,2.801-2.801l-0.433-0.434C27.944,26.674,27.149,27.432,26.251,28.052z"/>
		<path fill="#FFFFFF" d="M30.821,20.979h-2.244c-0.223,0.968-0.602,1.871-1.113,2.688l0.363,0.362
			c0.33-0.642,0.584-1.326,0.75-2.05h2.244C30.938,21.337,31,20.675,31,20c0-0.169-0.016-0.333-0.021-0.5
			C30.955,20.002,30.909,20.498,30.821,20.979z"/>
		<path fill="#FFFFFF" d="M18.021,27.576c-0.965-0.221-1.869-0.603-2.684-1.113l-1.587,1.589c-0.898-0.62-1.692-1.378-2.369-2.229
			l-0.432,0.432c0.757,1.097,1.707,2.044,2.801,2.802l1.587-1.59c0.815,0.515,1.719,0.896,2.684,1.113V27.576z"/>
		<path fill="#FFFFFF" d="M18.021,29.82v1C18.663,30.938,19.325,31,20,31s1.338-0.062,1.979-0.18v-1C21.338,29.938,20.676,30,20,30
			S18.663,29.938,18.021,29.82z"/>
	</g>
</g>
<g>
	<path fill="#5988A5" d="M68.576,20.979h2.244C70.938,20.337,71,19.675,71,19s-0.062-1.338-0.18-1.979h-2.244
		c-0.223-0.966-0.604-1.87-1.113-2.686l1.589-1.587c-0.757-1.094-1.706-2.043-2.801-2.801l-1.587,1.588
		c-0.814-0.511-1.719-0.893-2.686-1.113V8.178C61.337,8.061,60.675,8,59.999,8s-1.338,0.061-1.979,0.178v2.246
		c-0.965,0.224-1.869,0.604-2.685,1.113l-1.587-1.588c-1.096,0.757-2.043,1.707-2.803,2.801l1.59,1.587
		c-0.512,0.815-0.893,1.719-1.113,2.685H49.18c-0.117,0.642-0.181,1.304-0.181,1.979s0.062,1.338,0.181,1.979h2.243
		c0.224,0.968,0.604,1.869,1.113,2.688l-1.588,1.587c0.757,1.097,1.706,2.044,2.801,2.802l1.587-1.59
		c0.814,0.514,1.721,0.896,2.686,1.113v2.242C58.662,29.937,59.324,30,60,30s1.338-0.062,1.979-0.18v-2.244
		c0.967-0.224,1.869-0.604,2.688-1.113l1.587,1.589c1.098-0.757,2.044-1.706,2.803-2.801l-1.591-1.587
		C67.975,22.851,68.354,21.944,68.576,20.979z M60,24.278c-2.916,0-5.279-2.362-5.279-5.278s2.363-5.28,5.279-5.28
		s5.279,2.365,5.279,5.28C65.279,21.916,62.916,24.278,60,24.278z"/>
	<g opacity="0.25">
		<path d="M52.175,24.024l-1.226,1.227c0.136,0.196,0.283,0.382,0.432,0.566l1.156-1.153C52.408,24.457,52.287,24.244,52.175,24.024
			z"/>
		<path d="M61.979,11.423c0.967,0.222,1.871,0.604,2.688,1.113l1.587-1.588c0.896,0.622,1.689,1.378,2.368,2.23l0.435-0.432
			c-0.759-1.094-1.705-2.043-2.803-2.801l-1.587,1.588c-0.812-0.511-1.722-0.892-2.688-1.113V11.423z"/>
		<path d="M65.279,20c0-0.171-0.034-0.333-0.051-0.5c-0.256,2.678-2.483,4.778-5.229,4.778c-2.745,0-4.974-2.104-5.229-4.778
			c-0.016,0.167-0.049,0.329-0.049,0.5c0,2.916,2.363,5.278,5.279,5.278S65.279,22.916,65.279,20z"/>
		<path d="M67.825,14.975l-0.362,0.361c0.51,0.815,0.891,1.72,1.113,2.686h2.244c0.088,0.48,0.134,0.978,0.156,1.479
			c0.008-0.167,0.022-0.332,0.022-0.5c0-0.676-0.062-1.338-0.181-1.979h-2.243C68.41,16.3,68.154,15.614,67.825,14.975z"/>
		<path d="M67.463,24.664l1.156,1.153c0.148-0.188,0.297-0.37,0.433-0.566l-1.226-1.227C67.714,24.244,67.593,24.457,67.463,24.664z
			"/>
		<path d="M49.18,18.021h2.243c0.224-0.966,0.604-1.869,1.113-2.685l-0.363-0.362c-0.33,0.643-0.584,1.326-0.75,2.047H49.18
			C49.062,17.663,49,18.325,49,19c0,0.168,0.016,0.333,0.021,0.5C49.045,18.998,49.09,18.502,49.18,18.021z"/>
		<path d="M61.979,9.178v-1C61.338,8.061,60.676,8,60,8s-1.338,0.061-1.98,0.178v1C58.663,9.061,59.325,9,60,9
			S61.338,9.061,61.979,9.178z"/>
		<path d="M53.749,10.949l1.587,1.588c0.814-0.51,1.719-0.891,2.684-1.113v-1c-0.965,0.224-1.869,0.604-2.684,1.113l-1.587-1.588
			c-1.095,0.757-2.043,1.707-2.801,2.801l0.433,0.432C52.059,12.328,52.852,11.57,53.749,10.949z"/>
	</g>
	<g opacity="0.4">
		<path fill="#FFFFFF" d="M67.825,14.975l1.227-1.226c-0.136-0.196-0.284-0.382-0.433-0.567l-1.156,1.154
			C67.593,14.543,67.713,14.756,67.825,14.975z"/>
		<path fill="#FFFFFF" d="M52.536,14.337l-1.155-1.155c-0.146,0.188-0.297,0.373-0.433,0.568l1.225,1.225
			C52.286,14.757,52.407,14.544,52.536,14.337z"/>
		<path fill="#FFFFFF" d="M52.175,24.024l0.362-0.36c-0.51-0.815-0.891-1.72-1.113-2.688H49.18c-0.09-0.479-0.135-0.978-0.156-1.479
			c-0.008,0.168-0.022,0.332-0.022,0.501c0,0.676,0.062,1.338,0.181,1.979h2.243C51.59,22.7,51.844,23.386,52.175,24.024z"/>
		<path fill="#FFFFFF" d="M60,13.72c-2.916,0-5.279,2.364-5.279,5.28c0,0.171,0.034,0.333,0.049,0.5
			c0.256-2.678,2.485-4.78,5.229-4.78c2.745,0,4.974,2.104,5.229,4.78c0.017-0.167,0.051-0.329,0.051-0.5
			C65.279,16.085,62.916,13.72,60,13.72z"/>
		<path fill="#FFFFFF" d="M66.251,28.052l-1.587-1.589c-0.816,0.51-1.719,0.891-2.686,1.113v1c0.967-0.224,1.869-0.604,2.686-1.113
			l1.587,1.589c1.095-0.757,2.044-1.706,2.802-2.801l-0.434-0.434C67.943,26.674,67.148,27.432,66.251,28.052z"/>
		<path fill="#FFFFFF" d="M70.82,20.979h-2.244c-0.223,0.968-0.602,1.871-1.113,2.688l0.363,0.362c0.33-0.642,0.584-1.326,0.75-2.05
			h2.244C70.938,21.337,71,20.675,71,20c0-0.169-0.016-0.333-0.021-0.5C70.954,20.002,70.908,20.498,70.82,20.979z"/>
		<path fill="#FFFFFF" d="M58.021,27.576c-0.965-0.221-1.869-0.603-2.688-1.113l-1.587,1.589c-0.896-0.62-1.688-1.378-2.369-2.229
			l-0.434,0.432c0.759,1.097,1.705,2.044,2.803,2.802l1.587-1.59c0.812,0.515,1.724,0.896,2.688,1.113V27.576z"/>
		<path fill="#FFFFFF" d="M58.021,29.82v1C58.662,30.938,59.324,31,60,31s1.338-0.062,1.979-0.18v-1C61.338,29.938,60.676,30,60,30
			S58.662,29.938,58.021,29.82z"/>
	</g>
</g>
<g>
	<path fill="#E7E7E8" d="M19.73,50.818c-4.561,0-8.271,3.67-8.271,8.182H10l2.676,3.851L15.352,59h-1.545
		c0-3.23,2.657-5.859,5.923-5.859S25.654,55.77,25.654,59c0,3.231-2.658,5.86-5.924,5.86c-1.971,0-3.769-0.952-4.866-2.532
		l-1.395,2.004c1.559,1.803,3.815,2.851,6.26,2.851c4.56,0,8.27-3.67,8.27-8.183C28,54.488,24.29,50.818,19.73,50.818z"/>
	<path fill="#E7E7E8" d="M20.946,58.501v-3.66c-0.387-0.109-0.793-0.174-1.216-0.174s-0.83,0.063-1.217,0.174v2.415V59.3v0.199
		l0.143,0.141l1.459,1.444l1.727,1.708c0.723-0.396,1.32-0.986,1.72-1.701L20.946,58.501z"/>
</g>
<g>
	<path fill="#5988A5" d="M59.73,50.818c-4.562,0-8.271,3.67-8.271,8.182H50l2.676,3.851L55.352,59h-1.545
		c0-3.23,2.657-5.859,5.924-5.859c3.271,0,5.924,2.629,5.924,5.859c0,3.231-2.653,5.86-5.924,5.86c-1.972,0-3.77-0.952-4.867-2.532
		l-1.393,2.004c1.559,1.803,3.814,2.851,6.26,2.851c4.562,0,8.271-3.67,8.271-8.183C68.002,54.488,64.29,50.818,59.73,50.818z"/>
	<path fill="#5988A5" d="M60.945,58.501v-3.66c-0.387-0.109-0.793-0.174-1.215-0.174c-0.424,0-0.83,0.063-1.217,0.174v2.415V59.3
		v0.199l0.143,0.141l1.459,1.444l1.728,1.708c0.724-0.396,1.32-0.986,1.72-1.701L60.945,58.501z"/>
</g>
<path fill="#C17417" d="M66.76,145.128l-6.232-11.356c-0.566-1.027-1.489-1.027-2.057,0l-6.23,11.356
	c-0.567,1.03-0.097,1.873,1.044,1.873h12.433C66.854,147.001,67.326,146.158,66.76,145.128z M59.5,145.501c-0.55,0-1-0.45-1-1
	s0.45-1.001,1-1.001s1,0.451,1,1.001S60.05,145.501,59.5,145.501z M60.604,141.504c-0.049,0.548-0.539,0.996-1.088,0.996
	c-0.551,0-1.043-0.448-1.095-0.996l-0.327-3.508C58.042,137.448,58.45,137,59,137h1c0.55,0,0.961,0.448,0.912,0.996L60.604,141.504z
	"/>
<path fill="#C94B4B" d="M27.759,145.128l-6.231-11.356c-0.567-1.027-1.49-1.027-2.057,0l-6.23,11.356
	c-0.567,1.03-0.096,1.873,1.044,1.873h12.432C27.854,147.001,28.327,146.158,27.759,145.128z M20.5,145.501c-0.55,0-1-0.45-1-1
	s0.45-1.001,1-1.001s1,0.451,1,1.001S21.05,145.501,20.5,145.501z M21.604,141.504c-0.049,0.548-0.539,0.996-1.088,0.996
	c-0.551,0-1.043-0.448-1.095-0.996l-0.327-3.508C19.042,137.448,19.45,137,20,137h1c0.55,0,0.961,0.448,0.912,0.996L21.604,141.504z
	"/>
<g>
	<g opacity="0.25">
		<rect x="4" y="186" fill="#FFFFFF" width="6" height="1"/>
		<rect x="10" y="190" fill="#FFFFFF" width="3" height="1"/>
		<rect x="30" y="186" fill="#FFFFFF" width="6" height="1"/>
		<rect x="27" y="190" fill="#FFFFFF" width="3" height="1"/>
		<rect x="13" y="193" fill="#FFFFFF" width="14" height="1"/>
	</g>
	<polygon fill="#297434" points="30,167 30,171 28,171 28,167 27,167 27,171 25,171 25,167 24,167 24,171 22,171 22,167 21,167 
		21,171 19,171 19,167 18,167 18,171 16,171 16,167 15,167 15,171 13,171 13,167 12,167 12,171 10,171 10,167 4,167 4,186 10,186 
		10,190 13,190 13,193 27,193 27,190 30,190 30,186 36,186 36,167 	"/>
	<g opacity="0.15">
		<rect x="22" y="171" width="2" height="1"/>
		<rect x="19" y="171" width="2" height="1"/>
		<rect x="24" y="167" width="1" height="1"/>
		<rect x="18" y="167" width="1" height="1"/>
		<rect x="28" y="171" width="2" height="1"/>
		<rect x="27" y="167" width="1" height="1"/>
		<rect x="25" y="171" width="2" height="1"/>
		<rect x="21" y="167" width="1" height="1"/>
		<rect x="4" y="167" width="6" height="1"/>
		<rect x="16" y="171" width="2" height="1"/>
		<rect x="30" y="167" width="6" height="1"/>
		<rect x="10" y="171" width="2" height="1"/>
		<rect x="12" y="167" width="1" height="1"/>
		<rect x="15" y="167" width="1" height="1"/>
		<rect x="13" y="171" width="2" height="1"/>
	</g>
</g>
<g>
	<g opacity="0.25">
		<rect x="44" y="186" fill="#FFFFFF" width="6" height="1"/>
		<rect x="50" y="190" fill="#FFFFFF" width="3" height="1"/>
		<rect x="70" y="186" fill="#FFFFFF" width="6" height="1"/>
		<rect x="67" y="190" fill="#FFFFFF" width="3" height="1"/>
		<rect x="53" y="193" fill="#FFFFFF" width="14" height="1"/>
	</g>
	<polygon fill="#6D6E71" points="70,167 70,171 68,171 68,167 67,167 67,171 65,171 65,167 64,167 64,171 62,171 62,167 61,167 
		61,171 59,171 59,167 58,167 58,171 56,171 56,167 55,167 55,171 53,171 53,167 52,167 52,171 50,171 50,167 44,167 44,186 50,186 
		50,190 53,190 53,193 67,193 67,190 70,190 70,186 76,186 76,167 	"/>
	<g opacity="0.2">
		<rect x="62" y="171" width="2" height="1"/>
		<rect x="59" y="171" width="2" height="1"/>
		<rect x="64" y="167" width="1" height="1"/>
		<rect x="58" y="167" width="1" height="1"/>
		<rect x="68" y="171" width="2" height="1"/>
		<rect x="67" y="167" width="1" height="1"/>
		<rect x="65" y="171" width="2" height="1"/>
		<rect x="61" y="167" width="1" height="1"/>
		<rect x="44" y="167" width="6" height="1"/>
		<rect x="56" y="171" width="2" height="1"/>
		<rect x="70" y="167" width="6" height="1"/>
		<rect x="50" y="171" width="2" height="1"/>
		<rect x="52" y="167" width="1" height="1"/>
		<rect x="55" y="167" width="1" height="1"/>
		<rect x="53" y="171" width="2" height="1"/>
	</g>
</g>
<polygon fill="none" points="20.031,212 15,212 15,226 25,226 25,216.969 20.031,216.969 "/>
<g>
	<path fill="#5988A5" d="M25,213.969L23.031,212l-2-2h-1H13v18h14v-11.031v-1L25,213.969z M25,226H15v-14h5.031v4.969H25V226z"/>
</g>
<rect x="17" y="219" opacity="0.6" fill="#5988A5" enable-background="new    " width="6" height="2"/>
<rect x="17" y="222" opacity="0.6" fill="#5988A5" enable-background="new    " width="6" height="2"/>
<path fill="#FFFFFF" d="M26.445,100.045c0.028-0.179,0.055-0.357,0.055-0.545c0-1.934-1.567-3.5-3.5-3.5
	c-0.718,0-1.385,0.218-1.94,0.589C20.34,95.062,18.8,94,17,94c-2.485,0-4.5,2.015-4.5,4.5c0,0.614,0.125,1.199,0.348,1.732
	C11.766,100.686,11,101.757,11,103c0,1.65,1.35,3,3,3h4v-3h-1l3-4l3,4h-1v3h4c1.65,0,3-1.35,3-3
	C29,101.502,27.884,100.264,26.445,100.045z"/>
<g>
	<rect x="12" y="252" fill="#8C8C8C" width="4" height="4"/>
	<rect x="24" y="252" fill="#8C8C8C" width="4" height="4"/>
	<rect x="18" y="252" fill="#8C8C8C" width="4" height="4"/>
	<rect x="12" y="258" fill="#8C8C8C" width="4" height="4"/>
	<rect x="24" y="258" fill="#8C8C8C" width="4" height="4"/>
	<rect x="18" y="258" fill="#8C8C8C" width="4" height="4"/>
	<rect x="12" y="264" fill="#8C8C8C" width="4" height="4"/>
	<rect x="24" y="264" fill="#8C8C8C" width="4" height="4"/>
	<rect x="18" y="264" fill="#8C8C8C" width="4" height="4"/>
</g>
<g opacity="0.25">
	<rect x="12" y="252" width="4" height="1"/>
	<rect x="18" y="252" width="4" height="1"/>
	<rect x="24" y="252" width="4" height="1"/>
	<rect x="12" y="258" width="4" height="1"/>
	<rect x="18" y="258" width="4" height="1"/>
	<rect x="24" y="258" width="4" height="1"/>
	<rect x="12" y="264" width="4" height="1"/>
	<rect x="18" y="264" width="4" height="1"/>
	<rect x="24" y="264" width="4" height="1"/>
</g>
<g opacity="0.4">
	<rect x="12" y="256" fill="#FFFFFF" width="4" height="1"/>
	<rect x="18" y="256" fill="#FFFFFF" width="4" height="1"/>
	<rect x="24" y="256" fill="#FFFFFF" width="4" height="1"/>
	<rect x="12" y="262" fill="#FFFFFF" width="4" height="1"/>
	<rect x="18" y="262" fill="#FFFFFF" width="4" height="1"/>
	<rect x="24" y="262" fill="#FFFFFF" width="4" height="1"/>
	<rect x="12" y="268" fill="#FFFFFF" width="4" height="1"/>
	<rect x="18" y="268" fill="#FFFFFF" width="4" height="1"/>
	<rect x="24" y="268" fill="#FFFFFF" width="4" height="1"/>
</g>
<g>
	<rect x="52" y="252" fill="#5988A5" width="4" height="4"/>
	<rect x="64" y="252" fill="#5988A5" width="4" height="4"/>
	<rect x="58" y="252" fill="#5988A5" width="4" height="4"/>
	<rect x="52" y="258" fill="#5988A5" width="4" height="4"/>
	<rect x="64" y="258" fill="#5988A5" width="4" height="4"/>
	<rect x="58" y="258" fill="#5988A5" width="4" height="4"/>
	<rect x="52" y="264" fill="#5988A5" width="4" height="4"/>
	<rect x="64" y="264" fill="#5988A5" width="4" height="4"/>
	<rect x="58" y="264" fill="#5988A5" width="4" height="4"/>
</g>
<g opacity="0.25">
	<rect x="52" y="252" width="4" height="1"/>
	<rect x="58" y="252" width="4" height="1"/>
	<rect x="64" y="252" width="4" height="1"/>
	<rect x="52" y="258" width="4" height="1"/>
	<rect x="58" y="258" width="4" height="1"/>
	<rect x="64" y="258" width="4" height="1"/>
	<rect x="52" y="264" width="4" height="1"/>
	<rect x="58" y="264" width="4" height="1"/>
	<rect x="64" y="264" width="4" height="1"/>
</g>
<g opacity="0.4">
	<rect x="52" y="256" fill="#FFFFFF" width="4" height="1"/>
	<rect x="58" y="256" fill="#FFFFFF" width="4" height="1"/>
	<rect x="64" y="256" fill="#FFFFFF" width="4" height="1"/>
	<rect x="52" y="262" fill="#FFFFFF" width="4" height="1"/>
	<rect x="58" y="262" fill="#FFFFFF" width="4" height="1"/>
	<rect x="64" y="262" fill="#FFFFFF" width="4" height="1"/>
	<rect x="52" y="268" fill="#FFFFFF" width="4" height="1"/>
	<rect x="58" y="268" fill="#FFFFFF" width="4" height="1"/>
	<rect x="64" y="268" fill="#FFFFFF" width="4" height="1"/>
</g>
<rect x="12" y="292" fill="#8C8C8C" width="16" height="4"/>
<rect x="12" y="298" fill="#8C8C8C" width="16" height="4"/>
<rect x="12" y="304" fill="#8C8C8C" width="16" height="4"/>
<rect x="12" y="292" opacity="0.25" width="16" height="1"/>
<rect x="12" y="298" opacity="0.25" width="16" height="1"/>
<rect x="12" y="304" opacity="0.25" width="16" height="1"/>
<rect x="12" y="296" opacity="0.4" fill="#FFFFFF" width="16" height="1"/>
<rect x="12" y="302" opacity="0.4" fill="#FFFFFF" width="16" height="1"/>
<rect x="12" y="308" opacity="0.4" fill="#FFFFFF" width="16" height="1"/>
<rect x="52" y="292" fill="#5988A5" width="16" height="4"/>
<rect x="52" y="298" fill="#5988A5" width="16" height="4"/>
<rect x="52" y="304" fill="#5988A5" width="16" height="4"/>
<rect x="52" y="292" opacity="0.25" width="16" height="1"/>
<rect x="52" y="298" opacity="0.25" width="16" height="1"/>
<rect x="52" y="304" opacity="0.25" width="16" height="1"/>
<rect x="52" y="296" opacity="0.4" fill="#FFFFFF" width="16" height="1"/>
<rect x="52" y="302" opacity="0.4" fill="#FFFFFF" width="16" height="1"/>
<rect x="52" y="308" opacity="0.4" fill="#FFFFFF" width="16" height="1"/>
<path fill="#8C8C8C" d="M28,335.062L24.939,332l-4.648,0.818L12,341.109L18.89,348l8.292-8.292L28,335.062z M23.713,336.287
	c-0.76-0.762-1.07-1.688-0.689-2.068s1.306-0.072,2.068,0.689c0.76,0.762,1.069,1.686,0.689,2.066
	C25.399,337.357,24.475,337.047,23.713,336.287z"/>
<g opacity="0.4">
	<path fill="#FFFFFF" d="M25.092,334.908c-0.762-0.762-1.687-1.07-2.068-0.689c-0.214,0.214-0.204,0.603-0.023,1.035
		c0.009-0.011,0.013-0.025,0.023-0.035c0.381-0.381,1.306-0.072,2.068,0.689c0.333,0.333,0.572,0.695,0.712,1.031
		C26.139,336.542,25.832,335.65,25.092,334.908z"/>
	<polygon fill="#FFFFFF" points="27.182,339.708 18.89,348 12.5,341.609 12,342.109 18.89,349 27.182,340.708 28,336.062 
		27.85,335.913 	"/>
</g>
<g opacity="0.25">
	<polygon points="20.291,333.818 24.939,333 27.85,335.913 28,335.062 24.939,332 20.291,332.818 12,341.109 12.5,341.609 	"/>
	<path d="M23.713,337.287c0.762,0.76,1.686,1.07,2.068,0.688c0.214-0.214,0.203-0.603,0.023-1.035
		c-0.009,0.011-0.013,0.025-0.023,0.035c-0.382,0.383-1.306,0.072-2.068-0.688c-0.333-0.333-0.572-0.696-0.712-1.033
		C22.665,335.652,22.973,336.546,23.713,337.287z"/>
</g>
<path fill="#5988A5" d="M68,335.062L64.939,332l-4.648,0.818L52,341.109L58.891,348l8.291-8.292L68,335.062z M63.713,336.287
	c-0.76-0.762-1.07-1.688-0.689-2.068s1.307-0.072,2.068,0.689c0.76,0.762,1.068,1.686,0.689,2.066
	C65.398,337.357,64.475,337.047,63.713,336.287z"/>
<g opacity="0.4">
	<path fill="#FFFFFF" d="M65.092,334.908c-0.762-0.762-1.688-1.07-2.068-0.689c-0.214,0.214-0.203,0.603-0.023,1.035
		c0.01-0.011,0.014-0.025,0.023-0.035c0.381-0.381,1.307-0.072,2.068,0.689c0.332,0.333,0.572,0.695,0.712,1.031
		C66.139,336.542,65.832,335.65,65.092,334.908z"/>
	<polygon fill="#FFFFFF" points="67.182,339.708 58.891,348 52.5,341.609 52,342.109 58.891,349 67.182,340.708 68,336.062 
		67.85,335.913 	"/>
</g>
<g opacity="0.25">
	<polygon points="60.291,333.818 64.939,333 67.85,335.913 68,335.062 64.939,332 60.291,332.818 52,341.109 52.5,341.609 	"/>
	<path d="M63.713,337.287c0.762,0.76,1.686,1.07,2.068,0.688c0.213-0.214,0.203-0.603,0.022-1.035
		c-0.009,0.011-0.013,0.025-0.022,0.035c-0.383,0.383-1.307,0.072-2.068-0.688c-0.332-0.333-0.572-0.696-0.713-1.033
		C62.665,335.652,62.973,336.546,63.713,337.287z"/>
</g>
<g>
	<polygon fill="#8C8C8C" points="18,374 15,374 15,382 13,382 16.5,388 20,382 18,382 	"/>
	<polygon fill="#8C8C8C" points="27,378 23.5,372 20,378 22,378 22,386 25,386 25,378 	"/>
</g>
<g>
	<g opacity="0.25">
		<polygon points="18,383 19.417,383 20,382 18,382 		"/>
		<rect x="15" y="374" width="3" height="1"/>
		<polygon points="15,383 15,382 13,382 13.583,383 		"/>
	</g>
	<polygon opacity="0.25" points="23.5,373 26.417,378 27,378 23.5,372 20,378 20.583,378 	"/>
</g>
<g opacity="0.4">
	<polygon fill="#FFFFFF" points="16.5,388 13.583,383 13,383 16.5,389 20,383 19.417,383 	"/>
	<g>
		<rect x="22" y="386" fill="#FFFFFF" width="3" height="1"/>
		<polygon fill="#FFFFFF" points="22,378 20.583,378 20,379 22,379 		"/>
		<polygon fill="#FFFFFF" points="25,378 25,379 27,379 26.417,378 		"/>
	</g>
</g>
<g>
	<polygon fill="#5988A5" points="58,374 55,374 55,382 53,382 56.5,388 60,382 58,382 	"/>
	<polygon fill="#5988A5" points="67,378 63.5,372 60,378 62,378 62,386 65,386 65,378 	"/>
</g>
<g>
	<g opacity="0.25">
		<polygon points="58,383 59.416,383 60,382 58,382 		"/>
		<rect x="55" y="374" width="3" height="1"/>
		<polygon points="55,383 55,382 53,382 53.584,383 		"/>
	</g>
	<polygon opacity="0.25" points="63.5,373 66.416,378 67,378 63.5,372 60,378 60.584,378 	"/>
</g>
<g opacity="0.4">
	<polygon fill="#FFFFFF" points="56.5,388 53.584,383 53,383 56.5,389 60,383 59.416,383 	"/>
	<g>
		<rect x="62" y="386" fill="#FFFFFF" width="3" height="1"/>
		<polygon fill="#FFFFFF" points="62,378 60.584,378 60,379 62,379 		"/>
		<polygon fill="#FFFFFF" points="65,378 65,379 67,379 66.416,378 		"/>
	</g>
</g>
<g>
	<polygon fill="#8C8C8C" points="28,412 22,412 18,412 12,412 18,419.5 18,428.001 18.249,428.001 22,424 22,419.5 	"/>
</g>
<g opacity="0.25">
	<polygon points="18,413 22,413 27.2,413 28,412 22,412 18,412 12,412 12.8,413 	"/>
</g>
<g opacity="0.4">
	<g>
		<polygon fill="#FFFFFF" points="18,419.5 12.8,413 12,413 18,420.5 		"/>
	</g>
	<g>
		<polygon fill="#FFFFFF" points="18,428 18,429 18.249,429 22,425 22,424 18.249,428 		"/>
	</g>
	<g>
		<polygon fill="#FFFFFF" points="22,419.5 22,420.5 28,413 27.2,413 		"/>
	</g>
</g>
<g>
	<polygon fill="#5988A5" points="68,412 62,412 58,412 52,412 58,419.5 58,428.001 58.249,428.001 62,424 62,419.5 	"/>
</g>
<g opacity="0.25">
	<polygon points="58,413 62,413 67.2,413 68,412 62,412 58,412 52,412 52.8,413 	"/>
</g>
<g opacity="0.4">
	<g>
		<polygon fill="#FFFFFF" points="58,419.5 52.8,413 52,413 58,420.5 		"/>
	</g>
	<g>
		<polygon fill="#FFFFFF" points="58,428 58,429 58.249,429 62,425 62,424 58.249,428 		"/>
	</g>
	<g>
		<polygon fill="#FFFFFF" points="62,419.5 62,420.5 68,413 67.2,413 		"/>
	</g>
</g>
<path fill="#8C8C8C" d="M27.634,465.866l-3.739-3.739C24.593,461.091,25,459.844,25,458.5c0-3.591-2.909-6.5-6.5-6.5
	c-1.344,0-2.591,0.407-3.627,1.105c-0.697,0.47-1.298,1.07-1.768,1.768C12.407,455.909,12,457.156,12,458.5
	c0,3.591,2.909,6.5,6.5,6.5c1.344,0,2.591-0.407,3.627-1.105l3.739,3.739C26.11,467.878,26.43,468,26.75,468s0.64-0.122,0.884-0.366
	C28.122,467.146,28.122,466.354,27.634,465.866z M20.657,462.425C20.014,462.78,19.285,463,18.5,463c-2.481,0-4.5-2.019-4.5-4.5
	c0-0.785,0.22-1.514,0.575-2.157c0.412-0.745,1.022-1.355,1.768-1.768C16.986,454.22,17.715,454,18.5,454c2.481,0,4.5,2.019,4.5,4.5
	c0,0.785-0.22,1.514-0.575,2.157C22.013,461.402,21.402,462.013,20.657,462.425z"/>
<g opacity="0.25">
	<path d="M23.895,463.127l3.739,3.739c0.113,0.113,0.194,0.245,0.255,0.384c0.201-0.458,0.12-1.009-0.255-1.384l-3.375-3.375
		C24.146,462.709,24.031,462.925,23.895,463.127z"/>
	<path d="M13.105,455.873c0.47-0.697,1.07-1.298,1.768-1.768C15.909,453.407,17.156,453,18.5,453c3.389,0,6.167,2.592,6.47,5.901
		c0.008-0.135,0.03-0.265,0.03-0.401c0-3.591-2.909-6.5-6.5-6.5c-1.344,0-2.591,0.407-3.627,1.105
		c-0.697,0.47-1.298,1.07-1.768,1.768C12.407,455.909,12,457.156,12,458.5c0,0.202,0.012,0.401,0.03,0.599
		C12.104,457.91,12.478,456.804,13.105,455.873z"/>
	<path d="M18.5,464c0.785,0,1.514-0.22,2.157-0.575c0.745-0.412,1.355-1.022,1.768-1.768C22.78,461.014,23,460.285,23,459.5
		c0-0.142-0.029-0.275-0.042-0.413c-0.079,0.562-0.268,1.091-0.533,1.57c-0.412,0.745-1.022,1.355-1.768,1.768
		C20.014,462.78,19.285,463,18.5,463c-2.34,0-4.246-1.802-4.458-4.087C14.015,459.104,14,459.301,14,459.5
		C14,461.981,16.019,464,18.5,464z"/>
</g>
<g opacity="0.4">
	<path fill="#FFFFFF" d="M18.5,454c-0.785,0-1.514,0.22-2.157,0.575c-0.745,0.412-1.355,1.022-1.768,1.768
		C14.22,456.986,14,457.715,14,458.5c0,0.142,0.029,0.275,0.042,0.413c0.079-0.562,0.268-1.09,0.533-1.57
		c0.412-0.745,1.022-1.355,1.768-1.768C16.986,455.22,17.715,455,18.5,455c2.34,0,4.246,1.802,4.458,4.087
		C22.985,458.896,23,458.699,23,458.5C23,456.019,20.981,454,18.5,454z"/>
	<path fill="#FFFFFF" d="M27.634,467.634C27.39,467.878,27.07,468,26.75,468s-0.64-0.122-0.884-0.366l-3.739-3.739
		C21.091,464.593,19.844,465,18.5,465c-3.389,0-6.167-2.592-6.47-5.901c-0.008,0.135-0.03,0.265-0.03,0.401
		c0,3.591,2.909,6.5,6.5,6.5c1.344,0,2.591-0.407,3.627-1.105l3.739,3.739C26.11,468.878,26.43,469,26.75,469
		s0.64-0.122,0.884-0.366c0.375-0.375,0.456-0.926,0.255-1.384C27.828,467.389,27.747,467.521,27.634,467.634z"/>
	<path fill="#FFFFFF" d="M24.259,462.491C24.726,461.595,25,460.582,25,459.5c0-0.202-0.012-0.401-0.03-0.599
		c-0.073,1.188-0.448,2.295-1.075,3.226L24.259,462.491z"/>
</g>
<path fill="#5988A5" d="M67.634,465.866l-3.739-3.739C64.593,461.091,65,459.844,65,458.5c0-3.591-2.909-6.5-6.5-6.5
	c-1.344,0-2.591,0.407-3.627,1.105c-0.697,0.47-1.298,1.07-1.768,1.768C52.407,455.909,52,457.156,52,458.5
	c0,3.591,2.909,6.5,6.5,6.5c1.344,0,2.591-0.407,3.627-1.105l3.739,3.739C66.11,467.878,66.43,468,66.75,468s0.64-0.122,0.884-0.366
	C68.122,467.146,68.122,466.354,67.634,465.866z M60.657,462.425C60.014,462.78,59.285,463,58.5,463c-2.481,0-4.5-2.019-4.5-4.5
	c0-0.785,0.22-1.514,0.575-2.157c0.412-0.745,1.022-1.355,1.768-1.768C56.986,454.22,57.715,454,58.5,454c2.481,0,4.5,2.019,4.5,4.5
	c0,0.785-0.22,1.514-0.575,2.157C62.013,461.402,61.402,462.013,60.657,462.425z"/>
<g opacity="0.25">
	<path d="M63.895,463.127l3.739,3.739c0.113,0.113,0.194,0.245,0.255,0.384c0.201-0.458,0.12-1.009-0.255-1.384l-3.375-3.375
		C64.146,462.709,64.031,462.925,63.895,463.127z"/>
	<path d="M53.105,455.873c0.47-0.697,1.07-1.298,1.768-1.768C55.909,453.407,57.156,453,58.5,453c3.389,0,6.167,2.592,6.47,5.901
		c0.009-0.135,0.03-0.265,0.03-0.401c0-3.591-2.909-6.5-6.5-6.5c-1.344,0-2.591,0.407-3.627,1.105
		c-0.697,0.47-1.298,1.07-1.768,1.768C52.407,455.909,52,457.156,52,458.5c0,0.202,0.012,0.401,0.03,0.599
		C52.104,457.91,52.479,456.804,53.105,455.873z"/>
	<path d="M58.5,464c0.785,0,1.514-0.22,2.157-0.575c0.745-0.412,1.355-1.022,1.768-1.768C62.78,461.014,63,460.285,63,459.5
		c0-0.142-0.029-0.275-0.042-0.413c-0.079,0.562-0.269,1.091-0.533,1.57c-0.412,0.745-1.022,1.355-1.768,1.768
		C60.014,462.78,59.285,463,58.5,463c-2.34,0-4.246-1.802-4.458-4.087C54.015,459.104,54,459.301,54,459.5
		C54,461.981,56.019,464,58.5,464z"/>
</g>
<g opacity="0.4">
	<path fill="#FFFFFF" d="M58.5,454c-0.785,0-1.514,0.22-2.157,0.575c-0.745,0.412-1.355,1.022-1.768,1.768
		C54.22,456.986,54,457.715,54,458.5c0,0.142,0.029,0.275,0.042,0.413c0.079-0.562,0.269-1.09,0.533-1.57
		c0.412-0.745,1.022-1.355,1.768-1.768C56.986,455.22,57.715,455,58.5,455c2.34,0,4.246,1.802,4.458,4.087
		C62.985,458.896,63,458.699,63,458.5C63,456.019,60.981,454,58.5,454z"/>
	<path fill="#FFFFFF" d="M67.634,467.634C67.39,467.878,67.07,468,66.75,468s-0.64-0.122-0.884-0.366l-3.739-3.739
		C61.091,464.593,59.844,465,58.5,465c-3.389,0-6.167-2.592-6.47-5.901c-0.009,0.135-0.03,0.265-0.03,0.401
		c0,3.591,2.909,6.5,6.5,6.5c1.344,0,2.591-0.407,3.627-1.105l3.739,3.739C66.11,468.878,66.43,469,66.75,469
		s0.64-0.122,0.884-0.366c0.375-0.375,0.456-0.926,0.255-1.384C67.828,467.389,67.747,467.521,67.634,467.634z"/>
	<path fill="#FFFFFF" d="M64.259,462.491C64.727,461.595,65,460.582,65,459.5c0-0.202-0.012-0.401-0.03-0.599
		c-0.073,1.188-0.448,2.295-1.075,3.226L64.259,462.491z"/>
</g>
<g>
	<path fill="#BDBEC0" d="M55,212c-0.55,0-1,0.45-1,1v12c0,0.55,0.45,1,1,1h9c0.55,0,1-0.45,1-1v-8l-5-5H55z"/>
</g>
<path fill="#949598" d="M61,217h4l-5-5v4C60,216.55,60.45,217,61,217z"/>
<g>
	<rect x="19" y="504" fill="#8C8C8C" width="7" height="1"/>
	<g>
		
			<rect x="18.404" y="497.348" transform="matrix(-0.7072 -0.707 0.707 -0.7072 -319.7699 868.4127)" fill="#8C8C8C" width="3.073" height="6.149"/>
		<path fill="#8C8C8C" d="M24.288,496.074c-0.598-0.597-1.413-0.76-1.812-0.362l-0.725,0.725l2.174,2.174l0.724-0.725
			C25.048,497.487,24.886,496.673,24.288,496.074z"/>
		<polygon fill="#8C8C8C" points="14.868,505.494 18.129,504.407 15.955,502.234 		"/>
	</g>
</g>
<g>
	<rect x="59" y="504" fill="#5988A5" width="7" height="1"/>
	<g>
		
			<rect x="58.404" y="497.348" transform="matrix(-0.7073 -0.7069 0.7069 -0.7073 -251.4383 896.7286)" fill="#5988A5" width="3.074" height="6.149"/>
		<path fill="#5988A5" d="M64.288,496.074c-0.599-0.597-1.413-0.76-1.812-0.362l-0.725,0.725l2.174,2.174l0.725-0.725
			C65.049,497.487,64.886,496.673,64.288,496.074z"/>
		<polygon fill="#5988A5" points="54.868,505.494 58.129,504.407 55.955,502.234 		"/>
	</g>
</g>
<path fill="#C94B4B" d="M20.5,532c-4.142,0-7.5,3.357-7.5,7.5s3.358,7.5,7.5,7.5s7.5-3.357,7.5-7.5S24.642,532,20.5,532z
	 M20.5,544.499c-0.55,0-1-0.45-1-1s0.45-1,1-1s1,0.45,1,1S21.05,544.499,20.5,544.499z M21.604,540.503
	c-0.049,0.548-0.539,0.996-1.088,0.996c-0.551,0-1.043-0.448-1.095-0.996l-0.327-3.507C19.042,536.447,19.45,536,20,536h1
	c0.55,0,0.961,0.447,0.912,0.996L21.604,540.503z"/>
<path fill="#C17417" d="M60.5,532c-4.143,0-7.5,3.357-7.5,7.5s3.357,7.5,7.5,7.5s7.5-3.357,7.5-7.5S64.643,532,60.5,532z
	 M60.5,544.499c-0.55,0-1-0.45-1-1s0.45-1,1-1s1,0.45,1,1S61.05,544.499,60.5,544.499z M61.604,540.503
	c-0.049,0.548-0.539,0.996-1.088,0.996c-0.551,0-1.043-0.448-1.095-0.996l-0.327-3.507C59.042,536.447,59.45,536,60,536h1
	c0.55,0,0.961,0.447,0.912,0.996L61.604,540.503z"/>
<path fill="#8C8C8C" d="M25.804,574.196c-2.93-2.929-7.678-2.929-10.607,0c-2.929,2.93-2.929,7.678,0,10.607
	c2.929,2.929,7.678,2.929,10.607,0C28.732,581.874,28.733,577.126,25.804,574.196z M24.743,581.621l-2.121,2.121l-2.122-2.121
	l-2.121,2.121l-2.122-2.121l2.122-2.121l-2.122-2.121l2.122-2.121l2.121,2.121l2.122-2.121l2.121,2.121l-2.121,2.121L24.743,581.621
	z"/>
<path fill="#5988A5" d="M65.804,574.196c-2.93-2.929-7.678-2.929-10.606,0c-2.93,2.93-2.93,7.678,0,10.607
	c2.929,2.929,7.678,2.929,10.606,0C68.732,581.874,68.732,577.126,65.804,574.196z M64.742,581.621l-2.121,2.121l-2.121-2.121
	l-2.121,2.121l-2.121-2.121l2.121-2.121l-2.121-2.121l2.121-2.121l2.121,2.121l2.121-2.121l2.121,2.121l-2.121,2.121L64.742,581.621
	z"/>
<path fill="#525960" d="M20.5,612c-4.142,0-7.5,3.357-7.5,7.5s3.358,7.5,7.5,7.5s7.5-3.357,7.5-7.5S24.642,612,20.5,612z
	 M22.049,623.605c-0.387,0.152-0.695,0.269-0.926,0.349s-0.498,0.12-0.803,0.12c-0.469,0-0.833-0.114-1.093-0.343
	s-0.39-0.519-0.39-0.87c0-0.137,0.01-0.276,0.029-0.419s0.051-0.304,0.094-0.483l0.484-1.711c0.043-0.164,0.08-0.319,0.109-0.466
	s0.044-0.28,0.044-0.401c0-0.219-0.045-0.371-0.135-0.457c-0.09-0.086-0.262-0.129-0.517-0.129c-0.125,0-0.253,0.02-0.385,0.059
	s-0.244,0.076-0.338,0.111l0.129-0.527c0.317-0.129,0.62-0.239,0.909-0.331c0.29-0.092,0.563-0.138,0.821-0.138
	c0.466,0,0.824,0.112,1.077,0.337c0.252,0.225,0.378,0.517,0.378,0.876c0,0.074-0.009,0.205-0.026,0.393s-0.05,0.359-0.097,0.516
	l-0.482,1.705c-0.039,0.137-0.075,0.293-0.106,0.469s-0.047,0.309-0.047,0.398c0,0.227,0.051,0.381,0.152,0.463
	c0.102,0.082,0.277,0.123,0.527,0.123c0.117,0,0.25-0.021,0.398-0.062c0.148-0.041,0.255-0.077,0.322-0.108L22.049,623.605z
	 M21.964,616.683c-0.225,0.209-0.495,0.313-0.812,0.313s-0.588-0.104-0.814-0.313s-0.34-0.462-0.34-0.759s0.113-0.551,0.34-0.762
	s0.498-0.316,0.814-0.316s0.587,0.105,0.812,0.316s0.337,0.465,0.337,0.762S22.188,616.474,21.964,616.683z"/>
<path fill="#5988A5" d="M60.5,612c-4.143,0-7.5,3.357-7.5,7.5s3.357,7.5,7.5,7.5s7.5-3.357,7.5-7.5S64.643,612,60.5,612z
	 M62.049,623.605c-0.387,0.152-0.695,0.269-0.926,0.349s-0.498,0.12-0.803,0.12c-0.469,0-0.833-0.114-1.093-0.343
	s-0.39-0.519-0.39-0.87c0-0.137,0.01-0.276,0.029-0.419s0.051-0.304,0.094-0.483l0.484-1.711c0.043-0.164,0.079-0.319,0.108-0.466
	s0.044-0.28,0.044-0.401c0-0.219-0.045-0.371-0.135-0.457c-0.091-0.086-0.263-0.129-0.518-0.129c-0.125,0-0.254,0.02-0.385,0.059
	s-0.244,0.076-0.338,0.111l0.129-0.527c0.316-0.129,0.62-0.239,0.909-0.331c0.29-0.092,0.563-0.138,0.821-0.138
	c0.466,0,0.824,0.112,1.076,0.337s0.379,0.517,0.379,0.876c0,0.074-0.009,0.205-0.026,0.393s-0.05,0.359-0.097,0.516l-0.482,1.705
	c-0.039,0.137-0.074,0.293-0.105,0.469s-0.047,0.309-0.047,0.398c0,0.227,0.051,0.381,0.152,0.463s0.277,0.123,0.526,0.123
	c0.117,0,0.249-0.021,0.397-0.062s0.256-0.077,0.322-0.108L62.049,623.605z M61.964,616.683c-0.225,0.209-0.495,0.313-0.812,0.313
	s-0.588-0.104-0.814-0.313s-0.34-0.462-0.34-0.759s0.113-0.551,0.34-0.762s0.498-0.316,0.814-0.316s0.587,0.105,0.812,0.316
	s0.337,0.465,0.337,0.762S62.188,616.474,61.964,616.683z"/>
<g>
	<path fill="#5988A5" d="M66.167,662.951L66.167,662.951l0.084-1.979c0.007,0,0.023-0.121,0.023-0.28
		c0-3.749-1.916-6.813-4.467-7.635c-0.112-0.653-0.653-1.104-1.308-1.104c-0.655,0-1.196,0.52-1.31,1.173
		c-2.55,0.822-4.466,3.805-4.466,7.554c0,0.159,0.016,0.292,0.023,0.292l0.085,1.979l0,0c-1.03,0.325-1.831,0.74-1.831,1.198
		c0,0.279,0.229,0.542,0.674,0.78c1.534-0.472,4.012-0.78,6.837-0.78c2.824,0,5.311,0.309,6.844,0.78
		c0.444-0.238,0.646-0.501,0.646-0.78C68.002,663.691,67.197,663.276,66.167,662.951z"/>
	<path fill="#5988A5" d="M58.341,665.148c0.23,1.033,1.105,1.805,2.159,1.805c1.053,0,1.928-0.771,2.158-1.805
		c-0.691-0.041-1.411-0.064-2.158-0.064C59.751,665.084,59.032,665.107,58.341,665.148z"/>
</g>
<g>
	<path fill="#525960" d="M26.167,662.951L26.167,662.951l0.084-1.979c0.007,0,0.023-0.121,0.023-0.28
		c0-3.749-1.916-6.813-4.466-7.635c-0.113-0.653-0.654-1.104-1.308-1.104c-0.655,0-1.196,0.52-1.309,1.173
		c-2.551,0.822-4.466,3.805-4.466,7.554c0,0.159,0.016,0.292,0.023,0.292l0.085,1.979l0,0c-1.03,0.325-1.831,0.74-1.831,1.198
		c0,0.279,0.229,0.542,0.674,0.78c1.533-0.472,4.011-0.78,6.837-0.78c2.824,0,5.311,0.309,6.843,0.78
		c0.445-0.238,0.646-0.501,0.646-0.78C28.002,663.691,27.197,663.276,26.167,662.951z"/>
	<path fill="#525960" d="M18.341,665.148c0.23,1.033,1.105,1.805,2.159,1.805c1.052,0,1.928-0.771,2.158-1.805
		c-0.691-0.041-1.411-0.064-2.158-0.064C19.751,665.084,19.032,665.107,18.341,665.148z"/>
</g>
<path fill="#FFFFFF" d="M23,695v-1c0-0.55-0.45-1-1-1h-4c-0.55,0-1,0.45-1,1v1h-3v2h1v8c0,0.55,0.45,1,1,1h8c0.55,0,1-0.45,1-1v-8h1
	v-2H23z M17,704.5c0,0.275-0.225,0.5-0.5,0.5s-0.5-0.225-0.5-0.5v-6c0-0.275,0.225-0.5,0.5-0.5s0.5,0.225,0.5,0.5V704.5z M21,704
	c0,0.55-0.45,1-1,1s-1-0.45-1-1v-5c0-0.55,0.45-1,1-1s1,0.45,1,1V704z M22,695h-4v-1h4V695z M24,704.5c0,0.275-0.225,0.5-0.5,0.5
	s-0.5-0.225-0.5-0.5v-6c0-0.275,0.225-0.5,0.5-0.5s0.5,0.225,0.5,0.5V704.5z"/>
<g>
	
		<rect x="61.404" y="695.348" transform="matrix(-0.7073 -0.7069 0.7069 -0.7073 -386.2922 1236.8881)" fill="#FFFFFF" width="3.074" height="6.149"/>
	<path fill="#FFFFFF" d="M67.288,694.074c-0.599-0.597-1.413-0.76-1.812-0.362l-0.725,0.725l2.174,2.174l0.725-0.725
		C68.049,695.487,67.886,694.673,67.288,694.074z"/>
	<polygon fill="#FFFFFF" points="57.868,703.494 61.129,702.407 58.955,700.234 	"/>
</g>
<path fill="#AFAFAF" d="M21.2,746c0.823-0.822,1.186-1.949,1.117-3.118c-0.012-0.215-0.038-0.431-0.08-0.646L21.2,741.2l2.4-2.4
	l1.2,1.2l1.2-1.2l-4.8-4.8l-1.2,1.2l1.2,1.199l-2.399,2.4l-1.037-1.036c-0.083-0.016-0.166-0.028-0.249-0.04
	c-1.309-0.185-2.6,0.161-3.515,1.076l3,3.001l-1.8,1.8L14,746l2.4-1.2l1.8-1.8L21.2,746z"/>
<path fill="#AFAFAF" d="M66,736.297L63.704,734l-3.485,0.613L54,740.832L59.168,746l6.218-6.219L66,736.297z M62.785,737.215
	c-0.57-0.57-0.803-1.266-0.518-1.551c0.286-0.285,0.98-0.055,1.551,0.518c0.57,0.57,0.803,1.264,0.518,1.549
	C64.049,738.018,63.355,737.785,62.785,737.215z"/>
<path fill="#AFAFAF" d="M20,774c-3.313,0-6,2.687-6,6s2.687,6,6,6s6-2.687,6-6S23.313,774,20,774z M20,784c-2.209,0-4-1.791-4-4
	s1.791-4,4-4s4,1.791,4,4S22.209,784,20,784z"/>
<polygon fill="#AFAFAF" points="22,777.75 19.5,780.25 18,778.75 17,779.75 19.5,782.25 23,778.75 "/>
</svg>
