<?xml version="1.0" encoding="utf-8"?>
<!-- Generator: Adobe Illustrator 15.1.0, SVG Export Plug-In . SVG Version: 6.00 Build 0)  -->
<!DOCTYPE svg PUBLIC "-//W3C//DTD SVG 1.1//EN" "http://www.w3.org/Graphics/SVG/1.1/DTD/svg11.dtd">
<svg version="1.1" id="Layer_1" xmlns="http://www.w3.org/2000/svg" xmlns:xlink="http://www.w3.org/1999/xlink" x="0px" y="0px"
	 width="240px" height="136px" viewBox="0 0 240 136" enable-background="new 0 0 240 136" xml:space="preserve">
<path fill="#5988A5" d="M167.031,56.633c0.104-0.912,0.277-1.8,0.277-2.734c0-13.082-10.591-23.688-23.656-23.688
	c-6.182,0-11.762,2.43-15.979,6.319C123.445,24.579,112.095,16,98.712,16c-16.983,0-30.751,13.79-30.751,30.794
	c0,4.046,0.8,7.892,2.214,11.431C63.14,62.884,58.5,70.872,58.5,79.951c0,13.588,10.393,24.734,23.654,25.928V106h72.477v-0.042
	c0.286,0.009,0.562,0.042,0.852,0.042c14.367,0,26.018-11.661,26.018-26.049C181.499,69.727,175.598,60.896,167.031,56.633z M140,76
	h-15v15h-10V76h-15V66h15V51h10v15h15V76z"/>
</svg>
