<?xml version="1.0" encoding="utf-8"?>
<!-- Generator: Adobe Illustrator 16.0.4, SVG Export Plug-In . SVG Version: 6.00 Build 0)  -->
<!DOCTYPE svg PUBLIC "-//W3C//DTD SVG 1.1//EN" "http://www.w3.org/Graphics/SVG/1.1/DTD/svg11.dtd">
<svg version="1.1" id="Layer_1" xmlns="http://www.w3.org/2000/svg" xmlns:xlink="http://www.w3.org/1999/xlink" x="0px" y="0px"
	 width="120px" height="720px" viewBox="0 0 120 720" enable-background="new 0 0 120 720" xml:space="preserve">
<path opacity="0.2" d="M79,80H35c-1.65,0-3-1.35-3-3v2c0,1.65,1.35,3,3,3h44c1.65,0,3-1.35,3-3v-2C82,78.65,80.65,80,79,80z"/>
<path opacity="0.75" fill="#FFFFFF" d="M79,48H61v1c0,2.206-1.794,4-4,4c-2.206,0-4-1.794-4-4v-1H35c-1.65,0-3,1.35-3,3v26
	c0,1.65,1.35,3,3,3h44c1.65,0,3-1.35,3-3V51C82,49.35,80.65,48,79,48z"/>
<path opacity="0.75" fill="#FFFFFF" d="M57,42c-1.65,0-3,1.35-3,3v4c0,1.65,1.35,3,3,3c1.65,0,3-1.35,3-3v-4
	C60,43.35,58.65,42,57,42z M57,50c-0.552,0-1-0.447-1-1s0.448-1,1-1c0.553,0,1,0.447,1,1S57.553,50,57,50z"/>
<path fill="#DD7A4F" d="M50,56H38c-0.55,0-1,0.45-1,1v16c0,0.55,0.45,1,1,1h12c0.55,0,1-0.45,1-1V57C51,56.45,50.55,56,50,56z
	 M38.002,73c0-0.012-0.002-0.02-0.002-0.031c0,0,0.107-3.281,1.025-4.754c0,0,0.263-0.388,0.882-0.646c0,0,1.416-0.465,2.012-0.96
	c0.074-0.09,0.149-0.188,0.225-0.296c0.176-0.375,0.109-0.732,0.109-0.732c0.001,0.002,0.003,0.003,0.004,0.004
	c-0.339-0.519-0.58-1.146-0.636-1.763c-0.003-0.011-0.007-0.021-0.01-0.033c-0.002,0.001-0.003,0.001-0.005,0.001
	c-0.167,0.029-0.364-0.347-0.44-0.837c-0.069-0.447-0.014-0.833,0.122-0.921c0-0.002,0-0.005,0-0.008H41.28
	c0.001-0.021,0.004-0.045,0.006-0.066c0-0.155,0.005-0.319,0.019-0.492c0,0,0.141-0.949,0.771-1.618
	C42.852,58.962,43.901,59,43.901,59s0.84-0.012,1.617,0.541c0.811,0.415,0.97,1.188,0.97,1.188c0.186,0.341,0.253,0.717,0.265,1.061
	c0.013,0.091,0.023,0.188,0.032,0.285l-0.024,0.007c0.166,0.031,0.239,0.45,0.164,0.939c-0.076,0.492-0.274,0.866-0.441,0.839
	c-0.029-0.005-0.057-0.022-0.081-0.052c-0.063,0.625-0.339,1.306-0.735,1.854c0.01-0.011,0.016-0.019,0.016-0.019
	c-0.013,0.267,0.032,0.476,0.103,0.64c0-0.009,0.001-0.017,0.002-0.025c0,0,0.001,0.006,0.005,0.016
	c0.001-0.004,0.002-0.006,0.003-0.01c0,0,0.001,0.018,0.01,0.046c0.005,0.017,0.012,0.032,0.02,0.05
	c0.066,0.143,0.287,0.424,1.025,0.706c0,0,1.966,0.673,2.288,1.445c0,0,0.922,2.281,0.855,4.489H38.002z"/>
<g>
	<path fill="#4E85AA" d="M56,57.71c1.711-2.161,4.655-2.034,5.564-0.907c-0.543-0.359-1.344-0.635-1.969-0.544
		c0.986,0.123,1.302,0.579,1.453,0.793c-0.344-0.243-1.214-0.774-2.099-0.612c0.621,0.076,1.335,0.37,1.628,0.891
		c-0.5-0.371-1.338-0.843-2.133-0.66c0.686,0.093,1.374,0.387,1.683,0.953C59.572,57.236,57.573,56.431,56,57.71"/>
	<path fill="#4E85AA" d="M66,57.154c-1.711,2.167-4.724,2.02-5.633,0.892c0.543,0.361,1.567,0.769,2.184,0.635
		c-0.972-0.166-1.521-0.667-1.667-0.883c0.338,0.244,1.223,0.798,2.108,0.636c-0.623-0.077-1.346-0.393-1.644-0.912
		c0.499,0.369,1.357,0.863,2.153,0.686c-0.686-0.098-1.391-0.414-1.703-0.98C62.359,57.613,64.428,58.439,66,57.154"/>
	<path fill-rule="evenodd" clip-rule="evenodd" fill="#4E85AA" d="M64.291,56l0.029,0.202c-0.678,0.004-1.327,0.111-1.948,0.317
		c-0.521,0.174-1.101,0.452-1.745,0.837c-0.807,0.491-1.365,0.808-1.672,0.95c-0.658,0.312-1.324,0.489-2.001,0.531
		c0.781,0.029,1.521-0.071,2.231-0.304c0.522-0.174,1.11-0.456,1.763-0.849c0.715-0.422,1.266-0.719,1.656-0.893
		c0.562-0.242,1.133-0.424,1.723-0.546l0.028,0.2l0.64-0.322L64.291,56z"/>
	<polygon fill="#4E85AA" points="57.051,59.375 57.225,59.375 57.422,60.363 57.617,59.375 57.783,59.375 57.908,60.801 
		57.729,60.801 57.673,59.799 57.48,60.801 57.351,60.801 57.164,59.799 57.104,60.801 56.93,60.801 	"/>
	<rect x="58.375" y="59.375" fill="#4E85AA" width="0.197" height="1.426"/>
	<path fill="#4E85AA" d="M59.24,60.801h-0.195v-1.427h0.234c0.131,0,0.234,0.022,0.312,0.073c0.077,0.049,0.115,0.146,0.115,0.291
		c0,0.098-0.02,0.18-0.059,0.242c-0.038,0.062-0.107,0.1-0.209,0.117l0.339,0.703h-0.21l-0.323-0.693H59.24V60.801z M59.24,59.996
		c0.08,0,0.145-0.011,0.195-0.034c0.049-0.023,0.075-0.083,0.077-0.181v-0.025c0-0.102-0.021-0.161-0.067-0.181
		c-0.042-0.022-0.11-0.031-0.205-0.031V59.996z"/>
	<path fill="#4E85AA" d="M60.45,59.374h0.181l0.33,1.427h-0.188l-0.073-0.283h-0.323l-0.067,0.283h-0.194L60.45,59.374z
		 M60.542,59.742l-0.131,0.615h0.259L60.542,59.742z"/>
	<polygon fill="#4E85AA" points="61.449,59.375 61.63,59.375 62.008,60.363 62.008,59.375 62.188,59.375 62.188,60.801 
		62.008,60.801 61.635,59.801 61.635,60.801 61.449,60.801 	"/>
	<polygon fill="#4E85AA" points="62.895,59.552 62.633,59.552 62.633,59.374 63.352,59.374 63.352,59.552 63.088,59.552 
		63.088,60.801 62.895,60.801 	"/>
	<rect x="63.742" y="59.375" fill="#4E85AA" width="0.195" height="1.426"/>
	<path fill="#4E85AA" d="M64.392,60.56c0.007,0.003,0.012,0.006,0.019,0.009c0.02,0.012,0.042,0.022,0.064,0.032
		c0.023,0.011,0.048,0.02,0.072,0.027c0.013,0.002,0.025,0.004,0.039,0.007c0.015,0.002,0.027,0.002,0.04,0.002h0.01h0.012
		c0.027-0.002,0.056-0.012,0.082-0.029c0.026-0.016,0.046-0.041,0.06-0.074c0.004-0.007,0.007-0.014,0.01-0.021
		c0.002-0.008,0.003-0.017,0.005-0.024c0-0.007,0.001-0.015,0.001-0.022c0.001-0.006,0.001-0.014,0.001-0.021
		c0-0.051-0.017-0.098-0.051-0.141c-0.034-0.044-0.072-0.083-0.115-0.119c-0.015-0.013-0.028-0.022-0.04-0.033
		c-0.014-0.012-0.027-0.022-0.04-0.032c-0.048-0.041-0.091-0.085-0.132-0.135c-0.038-0.05-0.063-0.107-0.076-0.174
		c0-0.004-0.001-0.01-0.002-0.017c-0.003-0.005-0.003-0.012-0.003-0.017c-0.001,0-0.002-0.001-0.002-0.001v-0.005
		c-0.002-0.006-0.003-0.014-0.005-0.021c0-0.008,0-0.014,0-0.02c0-0.053,0.012-0.105,0.034-0.155
		c0.022-0.049,0.054-0.093,0.095-0.129c0.029-0.027,0.06-0.048,0.096-0.061c0.035-0.013,0.07-0.021,0.105-0.023h0.014h0.014
		c0.019,0,0.036,0,0.056,0.003c0.02,0.001,0.039,0.005,0.059,0.01c0.024,0.005,0.047,0.011,0.068,0.02
		c0.023,0.007,0.046,0.016,0.067,0.025v0.191c-0.002-0.001-0.006-0.003-0.01-0.006c-0.004-0.002-0.007-0.005-0.01-0.005
		c-0.019-0.01-0.039-0.02-0.062-0.029c-0.021-0.01-0.045-0.017-0.068-0.022c-0.013-0.004-0.025-0.006-0.039-0.008
		c-0.013-0.003-0.026-0.005-0.039-0.005h-0.006h-0.007c-0.029,0.003-0.058,0.01-0.085,0.025c-0.027,0.014-0.05,0.038-0.065,0.071
		c-0.004,0.009-0.009,0.019-0.013,0.03c-0.003,0.01-0.006,0.021-0.007,0.033c0,0.005,0,0.011-0.001,0.017
		c-0.002,0.005-0.002,0.012-0.002,0.018s0,0.011,0.002,0.018c0.001,0.006,0.001,0.011,0.001,0.016
		c0.001,0.012,0.004,0.022,0.007,0.034c0.004,0.011,0.009,0.021,0.013,0.03c0.023,0.045,0.053,0.084,0.089,0.117
		c0.037,0.032,0.074,0.064,0.113,0.097c0.043,0.035,0.086,0.07,0.125,0.109c0.04,0.037,0.071,0.083,0.092,0.137
		c0.007,0.013,0.011,0.028,0.015,0.045c0.003,0.017,0.005,0.033,0.006,0.049c0,0.009,0.001,0.018,0.001,0.024
		c0.001,0.009,0.001,0.018,0.001,0.026c0,0.008,0,0.018-0.001,0.026c0,0.01-0.001,0.02-0.004,0.03
		c-0.002,0.023-0.007,0.049-0.013,0.073c-0.007,0.024-0.017,0.048-0.025,0.067c-0.032,0.065-0.077,0.112-0.136,0.138
		c-0.058,0.028-0.119,0.042-0.184,0.042c-0.012,0-0.025-0.001-0.039-0.004c-0.014,0-0.028-0.002-0.043-0.003
		c-0.029-0.003-0.062-0.011-0.091-0.02c-0.031-0.011-0.059-0.022-0.085-0.036v-0.197C64.381,60.553,64.387,60.557,64.392,60.56"/>
</g>
<rect x="57" y="64" opacity="0.2" width="9" height="2"/>
<rect x="57" y="68" opacity="0.2" width="14" height="2"/>
<rect x="57" y="72" opacity="0.2" width="7" height="2"/>
<g>
	<linearGradient id="SVGID_1_" gradientUnits="userSpaceOnUse" x1="46.811" y1="45.5" x2="46.811" y2="28.5415">
		<stop  offset="0" style="stop-color:#FFFFFF"/>
		<stop  offset="1" style="stop-color:#FFFFFF;stop-opacity:0"/>
	</linearGradient>
	<path fill="url(#SVGID_1_)" d="M54,45c0-0.229,0.032-0.451,0.081-0.667l-13.663-15.62c-0.183-0.209-0.499-0.229-0.706-0.047
		c-0.208,0.182-0.229,0.497-0.047,0.705l13.958,15.958C53.719,45.438,53.856,45.5,54,45.5V45z"/>
	<linearGradient id="SVGID_2_" gradientUnits="userSpaceOnUse" x1="67.2305" y1="45.5" x2="67.2305" y2="28.501">
		<stop  offset="0" style="stop-color:#FFFFFF"/>
		<stop  offset="1" style="stop-color:#FFFFFF;stop-opacity:0"/>
	</linearGradient>
	<path fill="url(#SVGID_2_)" d="M74.372,28.625c-0.207-0.182-0.524-0.161-0.706,0.046L59.919,44.334C59.969,44.549,60,44.771,60,45
		v0.5c0.144,0,0.281-0.062,0.376-0.17l14.042-15.999C74.6,29.123,74.579,28.808,74.372,28.625z"/>
</g>
<path opacity="0.75" fill="#FFFFFF" d="M57,156.167l-25,12.5v16.667v13.332C32,200.5,33.5,202,35.333,202H57h21.667
	C80.5,202,82,200.5,82,198.666v-13.332v-16.667L57,156.167z M57,179.304l-21.273-10.637L57,158.03l21.272,10.637L57,179.304z"/>
<g opacity="0.2">
	<path opacity="0.75" d="M78.667,202H57H35.334C33.5,202,32,200.5,32,198.666v2C32,202.5,33.5,204,35.334,204H57h21.667
		C80.5,204,82,202.5,82,200.666v-2C82,200.5,80.5,202,78.667,202z"/>
	<polygon opacity="0.75" points="35.863,168.735 37.727,169.667 57,160.03 76.272,169.667 78.137,168.734 57,158.167 	"/>
</g>
<path opacity="0.05" enable-background="new    " d="M57,156.167v1.863l21.272,10.637L57,179.304V202h21.667
	C80.5,202,82,200.5,82,198.666v-13.332v-16.667L57,156.167z"/>
<polygon fill="#FFFFFF" points="43,150.182 43,159.348 43,161.211 43,169.152 57.001,175.818 71,169.152 71,161.211 71,159.348 
	71,150.182 "/>
<g>
	<rect x="46" y="153" fill="#DD7A4F" width="10" height="2"/>
	<rect x="46" y="157" fill="#DD7A4F" width="16" height="2"/>
	<rect x="46" y="161" fill="#DD7A4F" width="8" height="2"/>
	<rect x="46" y="165" fill="#DD7A4F" width="10" height="2"/>
</g>
<path opacity="0.75" fill="#FFFFFF" d="M57,271c7.701,0,14.524,3.808,18.701,9.636l3.253-2.323C74.051,271.471,66.04,267,57,267
	s-17.051,4.471-21.954,11.312l3.253,2.323C42.476,274.808,49.299,271,57,271z"/>
<path opacity="0.5" fill="#FFFFFF" d="M33,295.977V294c0-5.198,1.667-10.011,4.486-13.945l-1.627-1.161
	C32.805,283.154,31,288.369,31,294v2.905C31.584,296.461,32.257,296.129,33,295.977z"/>
<path opacity="0.5" fill="#FFFFFF" d="M81,295.977c0.743,0.152,1.415,0.484,2,0.929V294c0-5.631-1.805-10.846-4.859-15.106
	l-1.626,1.161C79.334,283.989,81,288.802,81,294V295.977z"/>
<path opacity="0.5" fill="#FFFFFF" d="M85,300.875v12c1.65,0,3-1.012,3-2.25v-7.5C88,301.887,86.65,300.875,85,300.875z"/>
<path opacity="0.75" fill="#FFFFFF" d="M80,295.875h-3v22h3c2.75,0,5-2.25,5-5v-12C85,298.125,82.75,295.875,80,295.875z"/>
<path opacity="0.5" fill="#FFFFFF" d="M26,303.125v7.5c0,1.238,1.35,2.25,3,2.25v-12C27.35,300.875,26,301.887,26,303.125z"/>
<path opacity="0.75" fill="#FFFFFF" d="M37,295.875h-3c-2.75,0-5,2.25-5,5v12c0,2.75,2.25,5,5,5h3V295.875z"/>
<rect x="35" y="294.875" fill="#DD7A4F" width="2" height="24"/>
<rect x="77" y="294.875" fill="#DD7A4F" width="2" height="24"/>
<g opacity="0.2">
	<path d="M75.701,282.636l0.813-0.581c2.815,3.929,4.479,8.732,4.484,13.922H81V294c0-5.198-1.666-10.011-4.485-13.945l-0.813,0.581
		C71.524,274.808,64.701,271,57,271s-14.524,3.808-18.701,9.636l-0.812-0.58C34.666,283.989,33,288.802,33,294v1.977h0.001
		c0.005-5.189,1.669-9.993,4.485-13.921l0.812,0.58C42.476,276.808,49.299,273,57,273S71.524,276.808,75.701,282.636z"/>
	<path d="M80,317.875h-1v1h-2v1v1h2v-1h1c0.342,0,0.677-0.035,1-0.102v-2C80.677,317.84,80.342,317.875,80,317.875z"/>
	<path d="M35,317.875h-1c-2.75,0-5-2.25-5-5c-1.65,0-3-1.012-3-2.25v2c0,1.238,1.35,2.25,3,2.25c0,2.75,2.25,5,5,5h1v1h2v-1v-1h-2
		V317.875z"/>
	<path d="M85,312.875c0,1.621-0.794,3.055-2,3.97v2c1.206-0.915,2-2.349,2-3.97c1.65,0,3-1.012,3-2.25v-2
		C88,311.863,86.65,312.875,85,312.875z"/>
	<path d="M78.604,328.939C78.409,328.979,78.207,329,78,329H60.721c-0.349,0.594-0.986,1-1.721,1h-4c-0.734,0-1.372-0.406-1.721-1
		c-0.173,0.296-0.279,0.635-0.279,1c0,1.1,0.9,2,2,2h4c0.734,0,1.372-0.406,1.721-1H78c2.757,0,5-2.243,5-5v-2
		C83,326.55,81.073,328.637,78.604,328.939z"/>
</g>
<path opacity="0.5" fill="#FFFFFF" d="M81,312.875V324c0,1.654-1.346,3-3,3H57v2h21c2.757,0,5-2.243,5-5v-11.125H81z"/>
<path fill="#DD7A4F" d="M61,328c0,1.1-0.9,2-2,2h-4c-1.1,0-2-0.9-2-2l0,0c0-1.1,0.9-2,2-2h4C60.1,326,61,326.9,61,328L61,328z"/>
<polygon opacity="0.75" fill="#FFFFFF" points="79,397 79,441 51,441 51,445 53.667,445 62.89,445 79,445 83,445 83,441 83,397 "/>
<path opacity="0.75" fill="#FFFFFF" d="M59.917,389H53H37c-3.3,0-6,2.7-6,6v44c0,3.3,2.7,6,6,6h4v-4h-3c-1.65,0-3-1.35-3-3
	s1.35-3,3-3h37v-46H59.917z"/>
<polygon fill="#DD7A4F" points="43,437 43,452 46,450 49,452 49,437 "/>
<g>
	<polygon opacity="0.08" enable-background="new    " points="79,397 79,441 51,441 51,445 53.666,445 62.89,445 79,445 83,445 
		83,441 83,397 	"/>
	<path opacity="0.08" enable-background="new    " d="M39,441h-1c-1.65,0-3-1.35-3-3s1.35-3,3-3h1v-46h-2c-3.3,0-6,2.7-6,6v44
		c0,3.3,2.7,6,6,6h2h2v-4H39z"/>
</g>
<g opacity="0.2">
	<polygon points="62.89,445 53.666,445 51,445 51,447 53.666,447 62.89,447 79,447 83,447 83,445 79,445 	"/>
	<g>
		<path d="M31,439v2c0,3.3,2.7,6,6,6h4v-2h-4C33.7,445,31,442.3,31,439z"/>
		<path d="M35,438c0,0.352,0.072,0.686,0.186,1c0.415-1.16,1.517-2,2.814-2h37v-2H38C36.35,435,35,436.35,35,438z"/>
	</g>
	<polygon points="43,452 43,454 46,452 49,454 49,452 46,450 	"/>
</g>
<g opacity="0.2">
	<rect x="55" y="413" width="10" height="2"/>
	<rect x="55" y="417" width="16" height="2"/>
	<rect x="55" y="421" width="8" height="2"/>
	<rect x="55" y="425" width="10" height="2"/>
	<rect x="55" y="429" width="12" height="2"/>
</g>
<polygon opacity="0.5" fill="#FFFFFF" points="77,515 77,550.1 89.953,518.83 61.391,507 58.076,515 "/>
<polygon opacity="0.5" fill="#FFFFFF" points="37,559 37,529.186 23.953,534.591 37.099,566.326 54.787,559 "/>
<polygon opacity="0.08" enable-background="new    " points="37,559 37,531.975 27.319,535.984 37.178,559.787 39.078,559 "/>
<g opacity="0.2">
	<polygon points="29.563,537.106 29.892,537.901 30.877,540.281 31.672,539.952 30.686,537.571 33.065,536.586 32.737,535.792 
		30.357,536.777 	"/>
	<polygon points="37.13,554.421 36.793,554.562 37.13,555.375 	"/>
	<polygon points="84.343,520.544 84.014,521.339 83.028,523.719 82.234,523.39 83.221,521.009 80.841,520.023 81.17,519.23 
		83.55,520.216 	"/>
	<polygon points="63.603,514.514 64.18,513.123 66.56,514.108 66.888,513.314 64.509,512.329 63.714,512 63.385,512.794 
		62.672,514.514 	"/>
</g>
<path fill="#FFFFFF" d="M80.497,562.47c0-0.012-0.001-0.024-0.001-0.037c-0.026,0.015-0.052,0.028-0.078,0.043
	C80.445,562.473,80.471,562.472,80.497,562.47z"/>
<path fill="#FFFFFF" d="M33.512,562.47c0.026,0.002,0.052,0.003,0.078,0.006c-0.026-0.015-0.052-0.028-0.077-0.043
	C33.513,562.445,33.513,562.458,33.512,562.47z"/>
<g opacity="0.08" enable-background="new    ">
	<polygon enable-background="new    " points="77,516.253 77,543.37 86.587,520.225 	"/>
	<polygon enable-background="new    " points="73.976,515 62.784,510.365 60.864,515 	"/>
</g>
<rect x="37" y="515" opacity="0.75" fill="#FFFFFF" width="40" height="44"/>
<rect x="37" y="559" opacity="0.2" width="40" height="2"/>
<rect x="40" y="518" opacity="0.08" enable-background="new    " width="34" height="34"/>
<path fill="#DD7A4F" d="M58,529c1.814,0,3.275,1.423,3.327,3.24l0.042,1.479l1.428,0.393C64.094,534.469,65,535.656,65,537
	c0,1.654-1.346,3-3,3H52c-1.654,0-3-1.346-3-3s1.346-3,3-3c0.112,0,0.243,0.011,0.412,0.033l2.153,0.293l0.113-2.17
	C54.771,530.387,56.23,529,58,529 M58,527c-2.85,0-5.172,2.238-5.319,5.052C52.458,532.021,52.232,532,52,532c-2.762,0-5,2.238-5,5
	s2.238,5,5,5h10c2.762,0,5-2.238,5-5c0-2.302-1.558-4.235-3.674-4.816C63.245,529.307,60.895,527,58,527L58,527z"/>
<g opacity="0.2">
	<polygon points="71,549 68,549 68,550 71,550 72,550 72,549 72,546 71,546 	"/>
	<polygon points="71,520 68,520 68,521 71,521 71,524 72,524 72,521 72,520 	"/>
	<polygon points="43,546 42,546 42,549 42,550 43,550 46,550 46,549 43,549 	"/>
	<polygon points="42,520 42,521 42,524 43,524 43,521 46,521 46,520 43,520 	"/>
</g>
<path opacity="0.75" fill="#FFFFFF" d="M82,645H61v-13c0-1.65-1.35-3-3-3H32c-1.65,0-3,1.35-3,3v34c0,1.65,1.35,3,3,3h21v13
	c0,1.65,1.35,3,3,3h26c1.65,0,3-1.35,3-3v-34C85,646.35,83.65,645,82,645z"/>
<g opacity="0.2">
	<rect x="56" y="648" width="10" height="2"/>
	<rect x="56" y="652" width="16" height="2"/>
	<rect x="56" y="656" width="8" height="2"/>
	<rect x="56" y="660" width="10" height="2"/>
	<rect x="56" y="664" width="12" height="2"/>
	<rect x="56" y="668" width="10" height="2"/>
	<rect x="56" y="672" width="16" height="2"/>
	<rect x="56" y="676" width="8" height="2"/>
	<rect x="56" y="680" width="10" height="2"/>
</g>
<g opacity="0.2">
	<rect x="32" y="632" width="10" height="2"/>
	<rect x="32" y="636" width="16" height="2"/>
	<rect x="32" y="640" width="8" height="2"/>
	<rect x="32" y="644" width="10" height="2"/>
	<rect x="32" y="648" width="12" height="2"/>
	<rect x="32" y="652" width="10" height="2"/>
	<rect x="32" y="656" width="16" height="2"/>
	<rect x="32" y="660" width="8" height="2"/>
	<rect x="32" y="664" width="10" height="2"/>
</g>
<path opacity="0.2" d="M77.435,676.606l-8.485-8.485c-0.389-0.389-1.025-0.389-1.414,0l-1.379-1.379
	c3.995-4.715,3.777-11.78-0.671-16.229c-4.685-4.685-12.284-4.685-16.971,0.002s-4.686,12.285,0,16.97
	c4.447,4.448,11.513,4.666,16.228,0.671l1.379,1.379c-0.389,0.389-0.389,1.025,0,1.414l8.485,8.485c0.389,0.389,1.025,0.389,1.414,0
	l1.414-1.414C77.823,677.632,77.824,676.995,77.435,676.606z M50.211,665.789c-3.742-3.743-3.742-9.834,0-13.577
	c3.743-3.743,9.835-3.743,13.578,0c3.742,3.743,3.742,9.834,0,13.577C60.046,669.532,53.954,669.532,50.211,665.789z"/>
<circle fill="#FFFFFF" cx="57" cy="657" r="11.4"/>
<g>
	<polygon fill="#DD7A4F" points="51,652 51,648 50,648 50,649 49,649 49,650 50,650 50,652 49,652 49,653 50,653 51,653 52,653 
		52,652 	"/>
	<g>
		<rect x="53" y="649" fill="#DD7A4F" width="1" height="3"/>
		<rect x="56" y="649" fill="#DD7A4F" width="1" height="3"/>
		<rect x="54" y="648" fill="#DD7A4F" width="2" height="1"/>
		<rect x="54" y="652" fill="#DD7A4F" width="2" height="1"/>
	</g>
	<polygon fill="#DD7A4F" points="60,652 60,648 59,648 59,649 58,649 58,650 59,650 59,652 58,652 58,653 59,653 60,653 61,653 
		61,652 	"/>
	<g>
		<rect x="62" y="649" fill="#DD7A4F" width="1" height="3"/>
		<rect x="65" y="649" fill="#DD7A4F" width="1" height="3"/>
		<rect x="63" y="648" fill="#DD7A4F" width="2" height="1"/>
		<rect x="63" y="652" fill="#DD7A4F" width="2" height="1"/>
	</g>
	<polygon fill="#DD7A4F" points="49,658 49,654 48,654 48,655 47,655 47,656 48,656 48,658 47,658 47,659 48,659 49,659 50,659 
		50,658 	"/>
	<g>
		<rect x="51" y="655" fill="#DD7A4F" width="1" height="3"/>
		<rect x="54" y="655" fill="#DD7A4F" width="1" height="3"/>
		<rect x="52" y="654" fill="#DD7A4F" width="2" height="1"/>
		<rect x="52" y="658" fill="#DD7A4F" width="2" height="1"/>
	</g>
	<polygon fill="#DD7A4F" points="58,658 58,654 57,654 57,655 56,655 56,656 57,656 57,658 56,658 56,659 57,659 58,659 59,659 
		59,658 	"/>
	<polygon fill="#DD7A4F" points="67,658 67,654 66,654 66,655 65,655 65,656 66,656 66,658 65,658 65,659 66,659 67,659 68,659 
		68,658 	"/>
	<g>
		<rect x="60" y="655" fill="#DD7A4F" width="1" height="3"/>
		<rect x="63" y="655" fill="#DD7A4F" width="1" height="3"/>
		<rect x="61" y="654" fill="#DD7A4F" width="2" height="1"/>
		<rect x="61" y="658" fill="#DD7A4F" width="2" height="1"/>
	</g>
	<polygon fill="#DD7A4F" points="51,664 51,660 50,660 50,661 49,661 49,662 50,662 50,664 49,664 49,665 50,665 51,665 52,665 
		52,664 	"/>
	<g>
		<rect x="53" y="661" fill="#DD7A4F" width="1" height="3"/>
		<rect x="56" y="661" fill="#DD7A4F" width="1" height="3"/>
		<rect x="54" y="660" fill="#DD7A4F" width="2" height="1"/>
		<rect x="54" y="664" fill="#DD7A4F" width="2" height="1"/>
	</g>
	<polygon fill="#DD7A4F" points="60,664 60,660 59,660 59,661 58,661 58,662 59,662 59,664 58,664 58,665 59,665 60,665 61,665 
		61,664 	"/>
	<g>
		<rect x="62" y="661" fill="#DD7A4F" width="1" height="3"/>
		<rect x="65" y="661" fill="#DD7A4F" width="1" height="3"/>
		<rect x="63" y="660" fill="#DD7A4F" width="2" height="1"/>
		<rect x="63" y="664" fill="#DD7A4F" width="2" height="1"/>
	</g>
</g>
<path fill="#7B94A5" d="M77.435,674.606l-8.485-8.485c-0.389-0.389-1.025-0.389-1.414,0l-1.379-1.379
	c3.995-4.715,3.777-11.78-0.671-16.229c-4.685-4.685-12.285-4.685-16.971,0.002c-4.687,4.687-4.686,12.285,0,16.97
	c4.447,4.448,11.513,4.666,16.228,0.671l1.379,1.379c-0.389,0.389-0.389,1.025,0,1.414l8.485,8.485c0.389,0.389,1.025,0.389,1.414,0
	l1.414-1.414C77.823,675.632,77.824,674.995,77.435,674.606z M50.211,663.789c-3.743-3.743-3.743-9.834,0-13.577
	c3.743-3.743,9.834-3.743,13.578,0c3.742,3.743,3.742,9.834,0,13.577C60.046,667.532,53.954,667.532,50.211,663.789z"/>
<g opacity="0.2">
	<path d="M82,685H56c-1.65,0-3-1.35-3-3v2c0,1.65,1.35,3,3,3h26c1.65,0,3-1.35,3-3v-2C85,683.65,83.65,685,82,685z"/>
	<path d="M53,669H32c-1.65,0-3-1.35-3-3v2c0,1.65,1.35,3,3,3h21V669z"/>
</g>
<path fill="#FFFFFF" d="M62.797,534.112l-1.428-0.393l-0.042-1.479C61.275,530.423,59.814,529,58,529
	c-1.77,0-3.229,1.387-3.322,3.156l-0.113,2.17l-2.152-0.293C52.243,534.011,52.112,534,52,534c-1.654,0-3,1.346-3,3s1.346,3,3,3h10
	c1.654,0,3-1.346,3-3C65,535.656,64.094,534.469,62.797,534.112z"/>
</svg>
