<?xml version="1.0" encoding="utf-8"?>
<!-- Generator: Adobe Illustrator 16.0.0, SVG Export Plug-In . SVG Version: 6.00 Build 0)  -->
<!DOCTYPE svg PUBLIC "-//W3C//DTD SVG 1.1//EN" "http://www.w3.org/Graphics/SVG/1.1/DTD/svg11.dtd">
<svg version="1.1" id="Layer_1" xmlns="http://www.w3.org/2000/svg" xmlns:xlink="http://www.w3.org/1999/xlink" x="0px" y="0px"
	 width="66px" height="44px" viewBox="0 0 66 44" enable-background="new 0 0 66 44" xml:space="preserve">
<g>
	<path fill="#EDEDED" d="M4,20.5c-1.378,0-2.5-1.121-2.5-2.5V4c0-1.378,1.122-2.5,2.5-2.5h14c1.379,0,2.5,1.122,2.5,2.5v14
		c0,1.379-1.121,2.5-2.5,2.5H4z"/>
	
		<linearGradient id="SVGID_1_" gradientUnits="userSpaceOnUse" x1="315" y1="-235.5" x2="315" y2="-216.5" gradientTransform="matrix(1 0 0 -1 -304 -215)">
		<stop  offset="0" style="stop-color:#ECEDEE;stop-opacity:0"/>
		<stop  offset="1" style="stop-color:#D1D2D3"/>
	</linearGradient>
	<path fill="url(#SVGID_1_)" d="M4,20.5c-1.378,0-2.5-1.121-2.5-2.5V4c0-1.378,1.122-2.5,2.5-2.5h14c1.379,0,2.5,1.122,2.5,2.5v14
		c0,1.379-1.121,2.5-2.5,2.5H4z"/>
	<path fill="#AFAFAF" d="M18,2c1.104,0,2,0.897,2,2v14c0,1.104-0.896,2-2,2H4c-1.103,0-2-0.896-2-2V4c0-1.103,0.897-2,2-2H18 M18,1
		H4C2.35,1,1,2.35,1,4v14c0,1.65,1.35,3,3,3h14c1.65,0,3-1.35,3-3V4C21,2.35,19.65,1,18,1L18,1z"/>
	<path opacity="0.4" fill="#FFFFFF" enable-background="new    " d="M18,21H4c-1.65,0-3-1.35-3-3v1c0,1.65,1.35,3,3,3h14
		c1.65,0,3-1.35,3-3v-1C21,19.65,19.65,21,18,21z"/>
</g>
<g>
	<path fill="#EDEDED" d="M26,20.5c-1.378,0-2.5-1.121-2.5-2.5V4c0-1.378,1.122-2.5,2.5-2.5h14c1.379,0,2.5,1.122,2.5,2.5v14
		c0,1.379-1.121,2.5-2.5,2.5H26z"/>
	
		<linearGradient id="SVGID_2_" gradientUnits="userSpaceOnUse" x1="337" y1="-235.5" x2="337" y2="-216.5" gradientTransform="matrix(1 0 0 -1 -304 -215)">
		<stop  offset="0" style="stop-color:#ECEDEE;stop-opacity:0"/>
		<stop  offset="1" style="stop-color:#D1D2D3"/>
	</linearGradient>
	<path fill="url(#SVGID_2_)" d="M26,20.5c-1.378,0-2.5-1.121-2.5-2.5V4c0-1.378,1.122-2.5,2.5-2.5h14c1.379,0,2.5,1.122,2.5,2.5v14
		c0,1.379-1.121,2.5-2.5,2.5H26z"/>
	<path fill="#AFAFAF" d="M40,2c1.104,0,2,0.897,2,2v14c0,1.104-0.896,2-2,2H26c-1.103,0-2-0.896-2-2V4c0-1.103,0.897-2,2-2H40 M40,1
		H26c-1.65,0-3,1.35-3,3v14c0,1.65,1.35,3,3,3h14c1.65,0,3-1.35,3-3V4C43,2.35,41.65,1,40,1L40,1z"/>
	<path opacity="0.4" fill="#FFFFFF" enable-background="new    " d="M40,21H26c-1.65,0-3-1.35-3-3v1c0,1.65,1.35,3,3,3h14
		c1.65,0,3-1.35,3-3v-1C43,19.65,41.65,21,40,21z"/>
	<polygon opacity="0.5" fill="#FFFFFF" enable-background="new    " points="37.316,7.562 31.5,13.379 28.684,10.562 25.439,10.562 
		25.439,11.561 31.5,17.621 40.561,8.561 40.561,7.562 	"/>
	<g>
		<polygon fill="#333333" points="31.5,16.591 25.439,10.53 27.561,8.409 31.5,12.35 38.439,5.409 40.561,7.53 		"/>
	</g>
</g>
<g>
	<path fill="#EDEDED" d="M48,20.5c-1.378,0-2.5-1.121-2.5-2.5V4c0-1.378,1.122-2.5,2.5-2.5h14c1.379,0,2.5,1.122,2.5,2.5v14
		c0,1.379-1.121,2.5-2.5,2.5H48z"/>
	
		<linearGradient id="SVGID_3_" gradientUnits="userSpaceOnUse" x1="654" y1="732.5" x2="654" y2="713.5" gradientTransform="matrix(1 0 0 1 -599 -712)">
		<stop  offset="0" style="stop-color:#ECEDEE;stop-opacity:0"/>
		<stop  offset="1" style="stop-color:#D1D2D3"/>
	</linearGradient>
	<path fill="url(#SVGID_3_)" d="M48,20.5c-1.378,0-2.5-1.121-2.5-2.5V4c0-1.378,1.122-2.5,2.5-2.5h14c1.379,0,2.5,1.122,2.5,2.5v14
		c0,1.379-1.121,2.5-2.5,2.5H48z"/>
	<path fill="#AFAFAF" d="M62,2c1.104,0,2,0.897,2,2v14c0,1.104-0.896,2-2,2H48c-1.104,0-2-0.896-2-2V4c0-1.103,0.896-2,2-2H62 M62,1
		H48c-1.65,0-3,1.35-3,3v14c0,1.65,1.35,3,3,3h14c1.65,0,3-1.35,3-3V4C65,2.35,63.65,1,62,1L62,1z"/>
	<path opacity="0.4" fill="#FFFFFF" enable-background="new    " d="M62,21H48c-1.65,0-3-1.35-3-3v1c0,1.65,1.35,3,3,3h14
		c1.65,0,3-1.35,3-3v-1C65,19.65,63.65,21,62,21z"/>
	<rect x="49" y="9" fill="#333333" width="12" height="3"/>
	<rect x="49" y="12" opacity="0.5" fill="#FFFFFF" enable-background="new    " width="12" height="1"/>
</g>
<g>
	<circle opacity="0.4" fill="#FFFFFF" enable-background="new    " cx="11" cy="34" r="10"/>
	<circle fill="#AFAFAF" cx="11" cy="33" r="10"/>
	<circle fill="#EDEDED" cx="11" cy="33" r="9"/>
	
		<linearGradient id="SVGID_4_" gradientUnits="userSpaceOnUse" x1="609.999" y1="755" x2="609.999" y2="737" gradientTransform="matrix(1 0 0 1 -599 -713)">
		<stop  offset="0" style="stop-color:#ECEDEE;stop-opacity:0"/>
		<stop  offset="1" style="stop-color:#D1D2D3"/>
	</linearGradient>
	<circle fill="url(#SVGID_4_)" cx="11" cy="33" r="9"/>
</g>
<g>
	<circle opacity="0.4" fill="#FFFFFF" enable-background="new    " cx="33" cy="34" r="10"/>
	<circle fill="#AFAFAF" cx="33" cy="33" r="10"/>
	<circle fill="#EDEDED" cx="33" cy="33" r="9"/>
	
		<linearGradient id="SVGID_5_" gradientUnits="userSpaceOnUse" x1="337" y1="-256.9995" x2="337" y2="-238.9995" gradientTransform="matrix(1 0 0 -1 -304 -215)">
		<stop  offset="0" style="stop-color:#ECEDEE;stop-opacity:0"/>
		<stop  offset="1" style="stop-color:#D1D2D3"/>
	</linearGradient>
	<circle fill="url(#SVGID_5_)" cx="33" cy="33" r="9"/>
	<circle opacity="0.5" fill="#FFFFFF" enable-background="new    " cx="33" cy="34" r="4"/>
	<circle fill="#333333" cx="33" cy="33" r="4"/>
</g>
</svg>
