<?xml version="1.0" encoding="utf-8"?>
<!-- Generator: Adobe Illustrator 16.0.0, SVG Export Plug-In . SVG Version: 6.00 Build 0)  -->
<!DOCTYPE svg PUBLIC "-//W3C//DTD SVG 1.1//EN" "http://www.w3.org/Graphics/SVG/1.1/DTD/svg11.dtd">
<svg version="1.1" id="Layer_1" xmlns="http://www.w3.org/2000/svg" xmlns:xlink="http://www.w3.org/1999/xlink" x="0px" y="0px"
	 width="990px" height="611px" viewBox="0 0 990 611" enable-background="new 0 0 990 611" xml:space="preserve">
<g id="DataBase">
	<line fill="none" stroke="#4E86AD" stroke-miterlimit="10" x1="254.278" y1="97.604" x2="254.278" y2="540"/>
	<line fill="none" stroke="#4E86AD" stroke-miterlimit="10" x1="413.278" y1="97.604" x2="413.278" y2="540"/>
</g>
<line fill="none" stroke="#4E86AD" stroke-miterlimit="10" x1="95" y1="128.507" x2="95" y2="497"/>
<g>
	<path fill="#4E86AD" d="M304.278,95.315c0,2.2-1.8,4-4,4h-92c-2.2,0-4-1.8-4-4v-18c0-2.2,1.8-4,4-4h92c2.2,0,4,1.8,4,4V95.315z"/>
</g>
<g>
	<path fill="#4E86AD" d="M463.278,95.315c0,2.2-1.8,4-4,4h-92c-2.2,0-4-1.8-4-4v-18c0-2.2,1.8-4,4-4h92c2.2,0,4,1.8,4,4V95.315z"/>
</g>
<g>
	<path fill="#4E86AD" d="M552,95.315c0,2.2-1.8,4-4,4h-70c-2.2,0-4-1.8-4-4v-18c0-2.2,1.8-4,4-4h70c2.2,0,4,1.8,4,4V95.315z"/>
</g>
<g>
	<path fill="#4E86AD" d="M638,95.315c0,2.2-1.8,4-4,4h-42c-2.2,0-4-1.8-4-4v-18c0-2.2,1.8-4,4-4h42c2.2,0,4,1.8,4,4V95.315z"/>
</g>
<text transform="matrix(1 0 0 1 234.167 89.9458)" fill="#FFFFFF" font-family="'PTSans-Regular'" font-size="12">Nailgun</text>
<g>
	<path fill="#4E86AD" d="M763,95.315c0,2.2-1.8,4-4,4h-92c-2.2,0-4-1.8-4-4v-18c0-2.2,1.8-4,4-4h92c2.2,0,4,1.8,4,4V95.315z"/>
</g>
<text transform="matrix(1 0 0 1 679.9102 89.9458)" fill="#FFFFFF" font-family="'PTSans-Regular'" font-size="12">net_probe.py</text>
<text transform="matrix(1 0 0 1 399.9473 89.9458)" fill="#FFFFFF" font-family="'PTSans-Regular'" font-size="12">Naily</text>
<text transform="matrix(1 0 0 1 604.8164 89.9458)" fill="#FFFFFF" font-family="'PTSans-Regular'" font-size="12">MC</text>
<text transform="matrix(1 0 0 1 496.6133 89.9458)" fill="#FFFFFF" font-family="'PTSans-Regular'" font-size="12">Astute</text>
<g>
	<path fill="#899596" d="M94.742,67.212c-4.397,0-7.245-7.365-7.245-7.365c-0.586,2.247-9.281,4.884-9.281,4.884
		c-2.54,0.976-3.615,2.443-3.615,2.443c-3.759,5.566-4.198,17.974-4.198,17.974c0.047,2.834,1.269,3.13,1.269,3.13
		c8.646,3.858,23.546,4.541,23.546,4.541c0.463,0.009,0.92,0.015,1.374,0.015c13.119,0,21.337-3.97,21.337-3.97
		c1.471-0.93,1.515-1.662,1.515-1.662c1.025-8.892-3.369-18.905-3.369-18.905c-1.321-2.93-9.378-5.47-9.378-5.47
		c-4.301-1.515-4.33-3.029-4.33-3.029C99.544,65.361,96.948,67.212,94.742,67.212z"/>
	<path fill="#B8C1C1" d="M85.203,48.624c-0.006,0.313-0.009,0.627-0.009,0.94c0,2.631,1.066,5.42,2.657,7.664
		c-0.006-0.009-0.012-0.012-0.018-0.021c0,0,0.053,0.278,0.05,0.715l0.595,1.544c0.721,1.863,3.246,6.694,6.264,6.694
		c2.104,0,4.415-2.364,6.686-6.841l0.495-0.979c-0.026-0.278-0.038-0.568-0.023-0.888c0,0-0.023,0.026-0.064,0.067
		c1.857-2.382,3.07-5.399,3.07-8.03c0-0.144,0.094-0.762,0.152-1.667c0.161-0.363,0.378-0.677,0.653-0.677
		c0,0,1.611-4.69-0.513-8.279c0,0-0.732-3.299-4.617-4.764c-3.589-2.197-8.938-0.879-8.938-0.879
		c-6.521,1.099-7.693,8.426-7.693,8.426c-0.293,3.516,0.366,6.129,0.366,6.129C84.734,48.143,85.016,48.418,85.203,48.624z"/>
</g>
<g>
	<rect x="42" y="99.833" fill="none" width="106" height="13.165"/>
	<text transform="matrix(1 0 0 1 73.9746 106.8335)" font-family="'PTSans-Regular'" font-size="10">Web_User</text>
</g>
<g>
	<path fill="#899596" d="M94.742,547.213c-4.397,0-7.245-7.365-7.245-7.365c-0.586,2.246-9.281,4.883-9.281,4.883
		c-2.54,0.977-3.615,2.443-3.615,2.443c-3.759,5.566-4.198,17.975-4.198,17.975c0.047,2.834,1.269,3.129,1.269,3.129
		c8.646,3.859,23.546,4.541,23.546,4.541c0.463,0.01,0.92,0.016,1.374,0.016c13.119,0,21.337-3.971,21.337-3.971
		c1.471-0.93,1.515-1.662,1.515-1.662c1.025-8.891-3.369-18.904-3.369-18.904c-1.321-2.93-9.378-5.471-9.378-5.471
		c-4.301-1.514-4.33-3.029-4.33-3.029C99.544,545.361,96.948,547.213,94.742,547.213z"/>
	<path fill="#B8C1C1" d="M85.203,528.623c-0.006,0.314-0.009,0.627-0.009,0.941c0,2.631,1.066,5.42,2.657,7.664
		c-0.006-0.01-0.012-0.012-0.018-0.021c0,0,0.053,0.279,0.05,0.715l0.595,1.545c0.721,1.863,3.246,6.693,6.264,6.693
		c2.104,0,4.415-2.363,6.686-6.84l0.495-0.979c-0.026-0.279-0.038-0.568-0.023-0.889c0,0-0.023,0.027-0.064,0.068
		c1.857-2.383,3.07-5.4,3.07-8.031c0-0.143,0.094-0.762,0.152-1.666c0.161-0.363,0.378-0.678,0.653-0.678
		c0,0,1.611-4.689-0.513-8.279c0,0-0.732-3.299-4.617-4.764c-3.589-2.197-8.938-0.879-8.938-0.879
		c-6.521,1.1-7.693,8.426-7.693,8.426c-0.293,3.516,0.366,6.129,0.366,6.129C84.734,528.143,85.016,528.418,85.203,528.623z"/>
</g>
<g>
	<rect x="42" y="579.834" fill="none" width="106" height="13.164"/>
	<text transform="matrix(1 0 0 1 73.9746 586.834)" font-family="'PTSans-Regular'" font-size="10">Web_User</text>
</g>
<rect x="139.893" y="32.833" fill="none" width="623.403" height="18.223"/>
<text transform="matrix(1 0 0 1 381.3633 44.0332)" fill="#899596" font-family="'PTSans-Bold'" font-size="16">Network Verification</text>
<line fill="none" stroke="#4E86AD" stroke-miterlimit="10" x1="513" y1="97.604" x2="513" y2="540"/>
<line fill="none" stroke="#4E86AD" stroke-miterlimit="10" x1="613" y1="97.604" x2="613" y2="540"/>
<line fill="none" stroke="#4E86AD" stroke-miterlimit="10" x1="713" y1="97.604" x2="713" y2="540"/>
<g>
	<g>
		<line fill="none" stroke="#F15A29" stroke-miterlimit="10" x1="95" y1="155.63" x2="248.309" y2="155.63"/>
		<g>
			<polygon fill="#F15A29" points="245.5,159.333 247.073,155.63 245.5,151.927 254.278,155.63 			"/>
		</g>
	</g>
</g>
<text transform="matrix(1 0 0 1 101 149.6304)" fill="#333333" font-family="'MyriadPro-Regular'" font-size="12">Verify networks (cluster #1)</text>
<g>
	<g>
		<line fill="none" stroke="#F15A29" stroke-miterlimit="10" x1="254" y1="175.63" x2="407.309" y2="175.63"/>
		<g>
			<polygon fill="#F15A29" points="404.5,179.333 406.073,175.63 404.5,171.927 413.278,175.63 			"/>
		</g>
	</g>
</g>
<text transform="matrix(1 0 0 1 260 169.6304)" fill="#333333" font-family="'MyriadPro-Regular'" font-size="12">Verify nets (100-120 vlans)</text>
<g>
	<g>
		<line fill="none" stroke="#F15A29" stroke-miterlimit="10" x1="413" y1="195.63" x2="507.03" y2="195.63"/>
		<g>
			<polygon fill="#F15A29" points="504.222,199.333 505.795,195.63 504.222,191.927 513,195.63 			"/>
		</g>
	</g>
</g>
<text transform="matrix(1 0 0 1 419 189.6304)" fill="#333333" font-family="'MyriadPro-Regular'" font-size="12">Verify nets</text>
<g>
	<g>
		<line fill="none" stroke="#F15A29" stroke-miterlimit="10" x1="513" y1="215.63" x2="607.03" y2="215.63"/>
		<g>
			<polygon fill="#F15A29" points="604.222,219.333 605.795,215.63 604.222,211.927 613,215.63 			"/>
		</g>
	</g>
</g>
<text transform="matrix(1 0 0 1 518 209.6304)" fill="#333333" font-family="'MyriadPro-Regular'" font-size="12">Start listeners</text>
<g>
	<g>
		<line fill="none" stroke="#F15A29" stroke-miterlimit="10" x1="513" y1="275.631" x2="607.03" y2="275.631"/>
		<g>
			<polygon fill="#F15A29" points="604.222,279.334 605.795,275.631 604.222,271.928 613,275.631 			"/>
		</g>
	</g>
</g>
<text transform="matrix(1 0 0 1 518 269.6309)" fill="#333333" font-family="'MyriadPro-Regular'" font-size="12">Send frames</text>
<g>
	<g>
		<line fill="none" stroke="#F15A29" stroke-miterlimit="10" x1="613" y1="295.631" x2="707.03" y2="295.631"/>
		<g>
			<polygon fill="#F15A29" points="704.222,299.334 705.795,295.631 704.222,291.928 713,295.631 			"/>
		</g>
	</g>
</g>
<text transform="matrix(1 0 0 1 618 289.6309)" fill="#333333" font-family="'MyriadPro-Regular'" font-size="12">Send frames</text>
<g>
	<g>
		
			<line fill="none" stroke="#F15A29" stroke-miterlimit="10" stroke-dasharray="4,4" x1="519.035" y1="255.631" x2="613" y2="255.631"/>
		<g>
			<path fill="#F15A29" d="M513,255.631c2.84,1.054,6.363,2.852,8.547,4.756l-1.72-4.756l1.72-4.755
				C519.363,252.78,515.84,254.578,513,255.631z"/>
		</g>
	</g>
</g>
<text transform="matrix(1 0 0 1 518 249.6309)" fill="#333333" font-family="'MyriadPro-Regular'" font-size="12">Listening</text>
<g>
	<g>
		<line fill="none" stroke="#F15A29" stroke-miterlimit="10" x1="513" y1="355.631" x2="607.03" y2="355.631"/>
		<g>
			<polygon fill="#F15A29" points="604.222,359.334 605.795,355.631 604.222,351.928 613,355.631 			"/>
		</g>
	</g>
</g>
<text transform="matrix(1 0 0 1 518 349.6309)" fill="#333333" font-family="'MyriadPro-Regular'" font-size="12">Get result</text>
<g>
	<g>
		
			<line fill="none" stroke="#F15A29" stroke-miterlimit="10" stroke-dasharray="4,4" x1="519.035" y1="335.631" x2="613" y2="335.631"/>
		<g>
			<path fill="#F15A29" d="M513,335.631c2.84,1.054,6.363,2.852,8.547,4.756l-1.72-4.756l1.72-4.755
				C519.363,332.78,515.84,334.578,513,335.631z"/>
		</g>
	</g>
</g>
<text transform="matrix(1 0 0 1 518 329.6309)" fill="#333333" font-family="'MyriadPro-Regular'" font-size="12">Sent</text>
<g>
	<g>
		
			<line fill="none" stroke="#F15A29" stroke-miterlimit="10" stroke-dasharray="4,4" x1="619.035" y1="315.631" x2="713" y2="315.631"/>
		<g>
			<path fill="#F15A29" d="M613,315.631c2.84,1.054,6.363,2.852,8.547,4.756l-1.72-4.756l1.72-4.755
				C619.363,312.78,615.84,314.578,613,315.631z"/>
		</g>
	</g>
</g>
<text transform="matrix(1 0 0 1 618 309.6309)" fill="#333333" font-family="'MyriadPro-Regular'" font-size="12">Sent</text>
<g>
	<g>
		<line fill="none" stroke="#F15A29" stroke-miterlimit="10" x1="613" y1="375.631" x2="707.03" y2="375.631"/>
		<g>
			<polygon fill="#F15A29" points="704.222,379.334 705.795,375.631 704.222,371.928 713,375.631 			"/>
		</g>
	</g>
</g>
<text transform="matrix(1 0 0 1 618 369.6309)" fill="#333333" font-family="'MyriadPro-Regular'" font-size="12">Stop listeners</text>
<g>
	<g>
		
			<line fill="none" stroke="#F15A29" stroke-miterlimit="10" stroke-dasharray="4,4" x1="619.035" y1="395.631" x2="713" y2="395.631"/>
		<g>
			<path fill="#F15A29" d="M613,395.631c2.84,1.054,6.363,2.852,8.547,4.756l-1.72-4.756l1.72-4.755
				C619.363,392.78,615.84,394.578,613,395.631z"/>
		</g>
	</g>
</g>
<text transform="matrix(1 0 0 1 618 389.6309)" fill="#333333" font-family="'MyriadPro-Regular'" font-size="12">Result</text>
<g>
	<g>
		
			<line fill="none" stroke="#F15A29" stroke-miterlimit="10" stroke-dasharray="4,4" x1="519.035" y1="415.631" x2="613" y2="415.631"/>
		<g>
			<path fill="#F15A29" d="M513,415.631c2.84,1.054,6.363,2.852,8.547,4.756l-1.72-4.756l1.72-4.755
				C519.363,412.78,515.84,414.578,513,415.631z"/>
		</g>
	</g>
</g>
<text transform="matrix(1 0 0 1 518 409.6309)" fill="#333333" font-family="'MyriadPro-Regular'" font-size="12">Result graph</text>
<g>
	<g>
		
			<line fill="none" stroke="#F15A29" stroke-miterlimit="10" stroke-dasharray="4,4" x1="419.035" y1="435.631" x2="513" y2="435.631"/>
		<g>
			<path fill="#F15A29" d="M413,435.631c2.84,1.054,6.363,2.852,8.547,4.756l-1.72-4.756l1.72-4.755
				C419.363,432.78,415.84,434.578,413,435.631z"/>
		</g>
	</g>
</g>
<text transform="matrix(1 0 0 1 418 429.6309)" fill="#333333" font-family="'MyriadPro-Regular'" font-size="12">Vlans Ok</text>
<g>
	<g>
		
			<line fill="none" stroke="#F15A29" stroke-miterlimit="10" stroke-dasharray="4,4" x1="260.313" y1="455.631" x2="413" y2="455.631"/>
		<g>
			<path fill="#F15A29" d="M254.278,455.631c2.84,1.054,6.363,2.852,8.548,4.756l-1.721-4.756l1.721-4.755
				C260.642,452.78,257.118,454.578,254.278,455.631z"/>
		</g>
	</g>
</g>
<text transform="matrix(1 0 0 1 260 449.6309)" fill="#333333" font-family="'MyriadPro-Regular'" font-size="12">Response</text>
<g>
	<g>
		
			<line fill="none" stroke="#F15A29" stroke-miterlimit="10" stroke-dasharray="4,4" x1="100.313" y1="475.631" x2="253" y2="475.631"/>
		<g>
			<path fill="#F15A29" d="M94.278,475.631c2.84,1.054,6.363,2.852,8.548,4.756l-1.721-4.756l1.721-4.755
				C100.642,472.78,97.118,474.578,94.278,475.631z"/>
		</g>
	</g>
</g>
<text transform="matrix(1 0 0 1 100 469.6309)" fill="#333333" font-family="'MyriadPro-Regular'" font-size="12">Response</text>
<g>
	<g>
		<line fill="none" stroke="#F15A29" stroke-miterlimit="10" x1="613" y1="235.63" x2="707.03" y2="235.63"/>
		<g>
			<polygon fill="#F15A29" points="704.222,239.333 705.795,235.63 704.222,231.927 713,235.63 			"/>
		</g>
	</g>
</g>
<text transform="matrix(1 0 0 1 618 229.6304)" fill="#333333" font-family="'MyriadPro-Regular'" font-size="12">Forks to listen</text>
<g>
	<path fill="#4E86AD" d="M304.278,535.315c0,2.2-1.8,4-4,4h-92c-2.2,0-4-1.8-4-4v-18c0-2.2,1.8-4,4-4h92c2.2,0,4,1.8,4,4V535.315z"
		/>
</g>
<g>
	<path fill="#4E86AD" d="M463.278,535.315c0,2.2-1.8,4-4,4h-92c-2.2,0-4-1.8-4-4v-18c0-2.2,1.8-4,4-4h92c2.2,0,4,1.8,4,4V535.315z"
		/>
</g>
<g>
	<path fill="#4E86AD" d="M552,535.315c0,2.2-1.8,4-4,4h-70c-2.2,0-4-1.8-4-4v-18c0-2.2,1.8-4,4-4h70c2.2,0,4,1.8,4,4V535.315z"/>
</g>
<g>
	<path fill="#4E86AD" d="M638,535.315c0,2.2-1.8,4-4,4h-42c-2.2,0-4-1.8-4-4v-18c0-2.2,1.8-4,4-4h42c2.2,0,4,1.8,4,4V535.315z"/>
</g>
<text transform="matrix(1 0 0 1 234.167 529.9453)" fill="#FFFFFF" font-family="'PTSans-Regular'" font-size="12">Nailgun</text>
<g>
	<path fill="#4E86AD" d="M763,535.315c0,2.2-1.8,4-4,4h-92c-2.2,0-4-1.8-4-4v-18c0-2.2,1.8-4,4-4h92c2.2,0,4,1.8,4,4V535.315z"/>
</g>
<text transform="matrix(1 0 0 1 679.9102 529.9453)" fill="#FFFFFF" font-family="'PTSans-Regular'" font-size="12">net_probe.py</text>
<text transform="matrix(1 0 0 1 399.9473 529.9453)" fill="#FFFFFF" font-family="'PTSans-Regular'" font-size="12">Naily</text>
<text transform="matrix(1 0 0 1 604.8164 529.9453)" fill="#FFFFFF" font-family="'PTSans-Regular'" font-size="12">MC</text>
<text transform="matrix(1 0 0 1 496.6133 529.9453)" fill="#FFFFFF" font-family="'PTSans-Regular'" font-size="12">Astute</text>
</svg>
