<?xml version="1.0" encoding="utf-8"?>
<!-- Generator: Adobe Illustrator 16.0.0, SVG Export Plug-In . SVG Version: 6.00 Build 0)  -->
<!DOCTYPE svg PUBLIC "-//W3C//DTD SVG 1.1//EN" "http://www.w3.org/Graphics/SVG/1.1/DTD/svg11.dtd">
<svg version="1.1" id="Layer_1" xmlns="http://www.w3.org/2000/svg" xmlns:xlink="http://www.w3.org/1999/xlink" x="0px" y="0px"
	 width="50px" height="50px" viewBox="0 0 50 50" enable-background="new 0 0 50 50" xml:space="preserve">
<g opacity="0.35">
	<path fill="#FFFFFF" d="M24.535,11c0.311,0,0.62,0,0.93,0c4.523,0.256,7.749,1.979,10.141,4.393
		c2.394,2.415,4.158,5.6,4.396,10.156c0,0.301,0,0.602,0,0.902c-0.229,4.63-2.027,7.685-4.396,10.171
		c-2.484,2.36-5.541,4.149-10.153,4.378c-0.306,0-0.61,0-0.915,0c-4.523-0.257-7.748-1.979-10.14-4.393
		c-2.392-2.416-4.159-5.602-4.396-10.156c0-0.301,0-0.602,0-0.902c0.012-0.004,0.018-0.013,0.016-0.029
		c0.226-4.54,2.003-7.756,4.38-10.141C16.783,12.983,20.041,11.248,24.535,11z M21.595,13.152c-0.892,0.238-1.69,0.542-2.415,0.902
		c-2.205,1.093-4.022,2.657-5.295,4.664c-1.24,1.957-2.315,4.476-2.16,7.777c0.099,2.082,0.572,3.834,1.32,5.325
		c1.478,2.947,3.727,5.121,6.841,6.438c1.538,0.653,3.446,1.111,5.595,1.009c2.061-0.1,3.846-0.562,5.324-1.31
		c2.899-1.463,5.187-3.718,6.451-6.83c0.641-1.573,1.124-3.396,1.02-5.599c-0.196-4.173-1.892-7.003-4.125-9.161
		c-1.104-1.068-2.437-1.977-4.004-2.633c-1.521-0.637-3.504-1.109-5.625-1.008C23.478,12.779,22.493,12.91,21.595,13.152z"/>
	<path fill="#FFFFFF" d="M23.62,22.104c0.476,0.315,0.962,0.62,1.41,0.963c-1.013,0.639-2.007,1.297-3.015,1.94
		c0.152,0.118,0.326,0.214,0.479,0.331c1.017-0.646,2.033-1.291,3.046-1.941c0.453,0.282,0.899,0.571,1.319,0.889
		c-1.017,0.643-1.995,1.319-3,1.971c0.148,0.121,0.332,0.209,0.495,0.316c1.039-0.64,2.053-1.303,3.074-1.957
		c0-0.711,0-1.424,0-2.136c0.75,0,1.5,0,2.25,0c0,1.419,0,2.839,0,4.258c0.637,0.033,1.336,0.005,1.996,0.015
		c0,0.668,0,1.334,0,2.001c-1.416,0-2.83,0-4.246,0c0-0.677,0-1.354,0-2.029c-1.246,0.76-2.525,1.618-3.779,2.422
		c-1.307-0.852-2.566-1.75-3.87-2.604c-0.378,1.201-1.275,2.104-2.76,2.212c-0.927,0.065-1.979-0.05-3.045,0
		c0-2.091,0-4.183,0-6.273c1.333,0.089,2.797-0.179,3.854,0.149c0.935,0.292,1.598,1.041,1.905,1.973
		C21.041,23.778,22.324,22.936,23.62,22.104z M16.12,24.496c0,0.752,0,1.504,0,2.256c0.536,0.003,0.943,0.034,1.26-0.211
		c0.471-0.363,0.565-1.265,0.15-1.744c-0.277-0.321-0.746-0.389-1.396-0.347C16.118,24.453,16.119,24.475,16.12,24.496z"/>
	<path fill="#FFFFFF" d="M32.261,22.479c0.75,0,1.5,0,2.25,0c0,1.425,0,2.849,0,4.272c0.659,0,1.319,0,1.979,0
		c0,0.668,0,1.334,0,2.001c-1.415,0-2.83,0-4.245,0c0-2.075,0-4.151,0-6.229C32.244,22.504,32.243,22.482,32.261,22.479z"/>
</g>
<g>
	<path fill="#8C8C94" d="M24.535,10c0.311,0,0.62,0,0.93,0c4.523,0.256,7.749,1.979,10.141,4.393
		c2.394,2.415,4.158,5.6,4.396,10.156c0,0.301,0,0.602,0,0.902c-0.229,4.63-2.027,7.685-4.396,10.171
		c-2.484,2.36-5.541,4.149-10.153,4.378c-0.306,0-0.61,0-0.915,0c-4.523-0.257-7.748-1.979-10.14-4.393
		c-2.392-2.416-4.159-5.602-4.396-10.156c0-0.301,0-0.602,0-0.902c0.012-0.004,0.018-0.013,0.016-0.03
		c0.226-4.539,2.003-7.757,4.38-10.14C16.783,11.983,20.041,10.248,24.535,10z M21.595,12.152c-0.892,0.238-1.69,0.542-2.415,0.902
		c-2.205,1.093-4.022,2.657-5.295,4.664c-1.24,1.957-2.315,4.476-2.16,7.777c0.099,2.082,0.572,3.834,1.32,5.325
		c1.478,2.947,3.727,5.121,6.841,6.438c1.538,0.653,3.446,1.111,5.595,1.009c2.061-0.1,3.846-0.562,5.324-1.31
		c2.899-1.463,5.187-3.718,6.451-6.83c0.641-1.573,1.124-3.396,1.02-5.598c-0.196-4.174-1.892-7.004-4.125-9.162
		c-1.104-1.068-2.437-1.977-4.004-2.633c-1.521-0.637-3.504-1.109-5.625-1.008C23.478,11.779,22.493,11.91,21.595,12.152z"/>
	<path fill="#8C8C94" d="M23.62,21.104c0.476,0.315,0.962,0.62,1.41,0.963c-1.013,0.639-2.007,1.297-3.015,1.94
		c0.152,0.118,0.326,0.214,0.479,0.331c1.017-0.646,2.033-1.291,3.046-1.941c0.453,0.282,0.899,0.571,1.319,0.889
		c-1.017,0.643-1.995,1.319-3,1.971c0.148,0.121,0.332,0.209,0.495,0.316c1.039-0.639,2.053-1.303,3.074-1.957
		c0-0.711,0-1.424,0-2.136c0.75,0,1.5,0,2.25,0c0,1.419,0,2.839,0,4.258c0.637,0.033,1.336,0.005,1.996,0.015
		c0,0.668,0,1.334,0,2.001c-1.416,0-2.83,0-4.246,0c0-0.677,0-1.354,0-2.029c-1.246,0.76-2.525,1.618-3.779,2.422
		c-1.307-0.852-2.566-1.75-3.87-2.604c-0.378,1.201-1.275,2.104-2.76,2.212c-0.927,0.065-1.979-0.05-3.045,0
		c0-2.091,0-4.183,0-6.273c1.333,0.089,2.797-0.179,3.854,0.149c0.935,0.292,1.598,1.041,1.905,1.973
		C21.041,22.778,22.324,21.936,23.62,21.104z M16.12,23.496c0,0.752,0,1.504,0,2.256c0.536,0.003,0.943,0.034,1.26-0.211
		c0.471-0.363,0.565-1.265,0.15-1.744c-0.277-0.321-0.746-0.389-1.396-0.347C16.118,23.453,16.119,23.475,16.12,23.496z"/>
	<path fill="#8C8C94" d="M32.261,21.479c0.75,0,1.5,0,2.25,0c0,1.425,0,2.849,0,4.272c0.659,0,1.319,0,1.979,0
		c0,0.668,0,1.334,0,2.001c-1.415,0-2.83,0-4.245,0c0-2.075,0-4.151,0-6.229C32.244,21.504,32.243,21.482,32.261,21.479z"/>
</g>
</svg>
