<?xml version="1.0" encoding="utf-8"?>
<!-- Generator: Adobe Illustrator 16.0.0, SVG Export Plug-In . SVG Version: 6.00 Build 0)  -->
<!DOCTYPE svg PUBLIC "-//W3C//DTD SVG 1.1//EN" "http://www.w3.org/Graphics/SVG/1.1/DTD/svg11.dtd">
<svg version="1.1" xmlns="http://www.w3.org/2000/svg" xmlns:xlink="http://www.w3.org/1999/xlink" x="0px" y="0px" width="50px"
	 height="50px" viewBox="0 0 50 50" enable-background="new 0 0 50 50" xml:space="preserve">
<g id="Layer_3" display="none">
	<rect display="inline" fill="#6B2000" width="50" height="50"/>
</g>
<g id="Layer_1" display="none">
	<g display="inline" opacity="0.35">
		<path fill="#FFFFFF" d="M24.535,11c0.311,0,0.62,0,0.93,0c4.523,0.256,7.749,1.979,10.141,4.393
			c2.394,2.415,4.158,5.6,4.396,10.156c0,0.301,0,0.602,0,0.902c-0.229,4.63-2.027,7.685-4.396,10.171
			c-2.484,2.36-5.541,4.149-10.153,4.378c-0.306,0-0.61,0-0.915,0c-4.523-0.257-7.748-1.979-10.14-4.393
			c-2.392-2.416-4.159-5.602-4.396-10.156c0-0.301,0-0.602,0-0.902c0.012-0.004,0.018-0.013,0.016-0.029
			c0.226-4.54,2.003-7.756,4.38-10.141C16.783,12.983,20.041,11.248,24.535,11z M21.595,13.152c-0.892,0.238-1.69,0.542-2.415,0.902
			c-2.205,1.093-4.022,2.657-5.295,4.664c-1.24,1.957-2.315,4.476-2.16,7.777c0.099,2.082,0.572,3.834,1.32,5.325
			c1.478,2.947,3.727,5.121,6.841,6.438c1.538,0.653,3.446,1.111,5.595,1.009c2.061-0.1,3.846-0.562,5.324-1.31
			c2.899-1.463,5.187-3.718,6.451-6.83c0.641-1.573,1.124-3.396,1.02-5.599c-0.196-4.173-1.892-7.003-4.125-9.161
			c-1.104-1.068-2.437-1.977-4.004-2.633c-1.521-0.637-3.504-1.109-5.625-1.008C23.478,12.779,22.493,12.91,21.595,13.152z"/>
		<path fill="#FFFFFF" d="M23.62,22.104c0.476,0.315,0.962,0.62,1.41,0.963c-1.013,0.639-2.007,1.297-3.015,1.94
			c0.152,0.118,0.326,0.214,0.479,0.331c1.017-0.646,2.033-1.291,3.046-1.941c0.453,0.282,0.899,0.571,1.319,0.889
			c-1.017,0.643-1.995,1.319-3,1.971c0.148,0.121,0.332,0.209,0.495,0.316c1.039-0.64,2.053-1.303,3.074-1.957
			c0-0.711,0-1.424,0-2.136c0.75,0,1.5,0,2.25,0c0,1.419,0,2.839,0,4.258c0.637,0.033,1.336,0.005,1.996,0.015
			c0,0.668,0,1.334,0,2.001c-1.416,0-2.83,0-4.246,0c0-0.677,0-1.354,0-2.029c-1.246,0.76-2.525,1.618-3.779,2.422
			c-1.307-0.852-2.566-1.75-3.87-2.604c-0.378,1.201-1.275,2.104-2.76,2.212c-0.927,0.065-1.979-0.05-3.045,0
			c0-2.091,0-4.183,0-6.273c1.333,0.089,2.797-0.179,3.854,0.149c0.935,0.292,1.598,1.041,1.905,1.973
			C21.041,23.778,22.324,22.936,23.62,22.104z M16.12,24.496c0,0.752,0,1.504,0,2.256c0.536,0.003,0.943,0.034,1.26-0.211
			c0.471-0.363,0.565-1.265,0.15-1.744c-0.277-0.321-0.746-0.389-1.396-0.347C16.118,24.453,16.119,24.475,16.12,24.496z"/>
		<path fill="#FFFFFF" d="M32.261,22.479c0.75,0,1.5,0,2.25,0c0,1.425,0,2.849,0,4.272c0.659,0,1.319,0,1.979,0
			c0,0.668,0,1.334,0,2.001c-1.415,0-2.83,0-4.245,0c0-2.075,0-4.151,0-6.229C32.244,22.504,32.243,22.482,32.261,22.479z"/>
	</g>
	<g display="inline">
		<path fill="#8C8C94" d="M24.535,10c0.311,0,0.62,0,0.93,0c4.523,0.256,7.749,1.979,10.141,4.393
			c2.394,2.415,4.158,5.6,4.396,10.156c0,0.301,0,0.602,0,0.902c-0.229,4.63-2.027,7.685-4.396,10.171
			c-2.484,2.36-5.541,4.149-10.153,4.378c-0.306,0-0.61,0-0.915,0c-4.523-0.257-7.748-1.979-10.14-4.393
			c-2.392-2.416-4.159-5.602-4.396-10.156c0-0.301,0-0.602,0-0.902c0.012-0.004,0.018-0.013,0.016-0.03
			c0.226-4.539,2.003-7.757,4.38-10.14C16.783,11.983,20.041,10.248,24.535,10z M21.595,12.152c-0.892,0.238-1.69,0.542-2.415,0.902
			c-2.205,1.093-4.022,2.657-5.295,4.664c-1.24,1.957-2.315,4.476-2.16,7.777c0.099,2.082,0.572,3.834,1.32,5.325
			c1.478,2.947,3.727,5.121,6.841,6.438c1.538,0.653,3.446,1.111,5.595,1.009c2.061-0.1,3.846-0.562,5.324-1.31
			c2.899-1.463,5.187-3.718,6.451-6.83c0.641-1.573,1.124-3.396,1.02-5.598c-0.196-4.174-1.892-7.004-4.125-9.162
			c-1.104-1.068-2.437-1.977-4.004-2.633c-1.521-0.637-3.504-1.109-5.625-1.008C23.478,11.779,22.493,11.91,21.595,12.152z"/>
		<path fill="#8C8C94" d="M23.62,21.104c0.476,0.315,0.962,0.62,1.41,0.963c-1.013,0.639-2.007,1.297-3.015,1.94
			c0.152,0.118,0.326,0.214,0.479,0.331c1.017-0.646,2.033-1.291,3.046-1.941c0.453,0.282,0.899,0.571,1.319,0.889
			c-1.017,0.643-1.995,1.319-3,1.971c0.148,0.121,0.332,0.209,0.495,0.316c1.039-0.639,2.053-1.303,3.074-1.957
			c0-0.711,0-1.424,0-2.136c0.75,0,1.5,0,2.25,0c0,1.419,0,2.839,0,4.258c0.637,0.033,1.336,0.005,1.996,0.015
			c0,0.668,0,1.334,0,2.001c-1.416,0-2.83,0-4.246,0c0-0.677,0-1.354,0-2.029c-1.246,0.76-2.525,1.618-3.779,2.422
			c-1.307-0.852-2.566-1.75-3.87-2.604c-0.378,1.201-1.275,2.104-2.76,2.212c-0.927,0.065-1.979-0.05-3.045,0
			c0-2.091,0-4.183,0-6.273c1.333,0.089,2.797-0.179,3.854,0.149c0.935,0.292,1.598,1.041,1.905,1.973
			C21.041,22.778,22.324,21.936,23.62,21.104z M16.12,23.496c0,0.752,0,1.504,0,2.256c0.536,0.003,0.943,0.034,1.26-0.211
			c0.471-0.363,0.565-1.265,0.15-1.744c-0.277-0.321-0.746-0.389-1.396-0.347C16.118,23.453,16.119,23.475,16.12,23.496z"/>
		<path fill="#8C8C94" d="M32.261,21.479c0.75,0,1.5,0,2.25,0c0,1.425,0,2.849,0,4.272c0.659,0,1.319,0,1.979,0
			c0,0.668,0,1.334,0,2.001c-1.415,0-2.83,0-4.245,0c0-2.075,0-4.151,0-6.229C32.244,21.504,32.243,21.482,32.261,21.479z"/>
	</g>
</g>
<g id="Layer_2" display="none">
	<g display="inline" opacity="0.35">
		<path fill="#FFFFFF" d="M37.562,16.313l-12.081-5.229C25.35,11.028,25.178,11,25.006,11c-0.005,0-0.011,0-0.016,0
			s-0.011,0-0.017,0c-0.176,0-0.351,0.029-0.483,0.088l-4.673,2.058l-7.41,3.262c-0.14,0.062-0.26,0.182-0.34,0.324l0.025,0.015
			c-0.065,0.122-0.1,0.259-0.09,0.386l1,12.581c0.023,0.283,0.228,0.656,0.457,0.828l4.367,3.286c0,0.004,0,0.009,0,0.013
			c0,0.119,0.004,0.236,0.012,0.354c-0.008,0.118-0.012,0.235-0.012,0.354c0,3.562,3.286,6.451,7.339,6.451
			c4.052,0,7.337-2.889,7.337-6.451c0-0.119-0.003-0.236-0.011-0.354c0.008-0.118,0.011-0.235,0.011-0.354
			c0-0.033,0-0.064-0.001-0.098c-0.059,3.519-3.319,6.354-7.336,6.354c-3.983,0-7.224-2.789-7.335-6.266l6.754,5.082
			c0.114,0.086,0.265,0.129,0.416,0.129c0.152,0,0.303-0.043,0.417-0.129l11.093-8.371c0.229-0.172,0.435-0.545,0.457-0.828
			l1.031-12.678C38.021,16.752,37.823,16.428,37.562,16.313z M24.975,12.994l8.994,3.893l-8.941,5.336l-8.909-5.33L24.975,12.994z
			 M35.666,29.549c-0.001,0.002-0.001,0.004-0.003,0.006l-10.664,8.047l-10.694-8.048c0-0.001-0.001-0.002-0.002-0.003
			l-0.958-12.054l0.656,0.392l10.577,6.33c0.123,0.074,0.285,0.111,0.448,0.111c0.163,0,0.325-0.037,0.448-0.11l10.441-6.232
			l0.725-0.433L35.666,29.549z"/>
		<path fill="#FFFFFF" d="M35.427,19.699l-9.035,5.533c-0.122,0.075-0.223,0.252-0.223,0.395l-0.021,9.267
			c0,0.142,0.096,0.188,0.21,0.104l8.425-6.123c0.116-0.084,0.22-0.269,0.229-0.41l0.619-8.645
			C35.641,19.679,35.548,19.624,35.427,19.699z"/>
		<path fill="#FFFFFF" d="M23.676,25.274L14.642,19.7c-0.124-0.075-0.215-0.021-0.206,0.12l0.577,8.666
			c0.009,0.142,0.112,0.326,0.229,0.411l8.489,6.208c0.115,0.084,0.211,0.037,0.21-0.104l-0.042-9.332
			C23.898,25.527,23.797,25.35,23.676,25.274z"/>
	</g>
	<g display="inline">
		<path fill="#8C8C94" d="M37.562,15.313l-12.081-5.229C25.35,10.028,25.178,10,25.006,10c-0.005,0-0.011,0-0.016,0
			s-0.011,0-0.017,0c-0.176,0-0.351,0.029-0.483,0.088l-4.673,2.058l-7.41,3.262c-0.14,0.062-0.26,0.182-0.34,0.324l0.025,0.015
			c-0.065,0.122-0.1,0.259-0.09,0.386l1,12.581c0.023,0.283,0.228,0.656,0.457,0.828l4.367,3.286c0,0.004,0,0.009,0,0.013
			c0,0.119,0.004,0.236,0.012,0.354c-0.008,0.118-0.012,0.235-0.012,0.354c0,3.562,3.286,6.451,7.339,6.451
			c4.052,0,7.337-2.889,7.337-6.451c0-0.119-0.003-0.236-0.011-0.354c0.008-0.118,0.011-0.235,0.011-0.354
			c0-0.033,0-0.064-0.001-0.098c-0.059,3.519-3.319,6.354-7.336,6.354c-3.983,0-7.224-2.789-7.335-6.266l6.754,5.082
			c0.114,0.086,0.265,0.129,0.416,0.129c0.152,0,0.303-0.043,0.417-0.129l11.093-8.371c0.229-0.172,0.435-0.545,0.457-0.828
			l1.031-12.678C38.021,15.752,37.823,15.428,37.562,15.313z M24.975,11.994l8.994,3.893l-8.941,5.336l-8.909-5.33L24.975,11.994z
			 M35.666,28.549c-0.001,0.002-0.001,0.004-0.003,0.006l-10.664,8.047l-10.694-8.048c0-0.001-0.001-0.002-0.002-0.003
			l-0.958-12.054l0.656,0.392l10.577,6.33c0.123,0.074,0.285,0.111,0.448,0.111c0.163,0,0.325-0.037,0.448-0.11l10.441-6.232
			l0.725-0.433L35.666,28.549z"/>
		<path fill="#8C8C94" d="M35.427,18.699l-9.035,5.533c-0.122,0.075-0.223,0.252-0.223,0.395l-0.021,9.267
			c0,0.142,0.096,0.188,0.21,0.104l8.425-6.123c0.116-0.084,0.22-0.269,0.229-0.41l0.619-8.645
			C35.641,18.679,35.548,18.624,35.427,18.699z"/>
		<path fill="#8C8C94" d="M23.676,24.274L14.642,18.7c-0.124-0.075-0.215-0.021-0.206,0.12l0.577,8.666
			c0.009,0.142,0.112,0.326,0.229,0.411l8.489,6.208c0.115,0.084,0.211,0.037,0.21-0.104l-0.042-9.332
			C23.898,24.527,23.797,24.35,23.676,24.274z"/>
	</g>
</g>
<g id="Layer_4" display="none">
	<g display="inline" opacity="0.35">
		<rect x="18.484" y="28.602" fill="#FFFFFF" width="1.316" height="5.213"/>
		<path fill="#FFFFFF" d="M30.407,30.095c-0.054-0.028-0.478-0.279-1.107-0.279c-0.849,0-1.44,0.593-1.44,1.39
			c0,0.776,0.566,1.393,1.44,1.393c0.618,0,1.051-0.244,1.107-0.276v1.399c-0.167,0.047-0.614,0.185-1.2,0.185
			c-1.479,0-2.775-1.02-2.775-2.7c0-1.556,1.174-2.697,2.775-2.697c0.62,0,1.076,0.15,1.2,0.188V30.095z"/>
		<path fill="#FFFFFF" d="M16.677,30.095c-0.053-0.028-0.476-0.279-1.106-0.279c-0.852,0-1.441,0.593-1.441,1.39
			c0,0.776,0.564,1.393,1.441,1.393c0.619,0,1.047-0.244,1.106-0.276v1.399c-0.165,0.047-0.613,0.185-1.201,0.185
			c-1.478,0-2.775-1.02-2.775-2.7c0-1.556,1.175-2.697,2.775-2.697c0.619,0,1.076,0.15,1.201,0.188V30.095z"/>
		<path fill="#FFFFFF" d="M37.3,31.205c0,1.493-1.15,2.7-2.754,2.7c-1.604,0-2.753-1.207-2.753-2.7c0-1.488,1.148-2.697,2.753-2.697
			C36.149,28.508,37.3,29.717,37.3,31.205z M34.546,29.834c-0.781,0-1.361,0.614-1.361,1.371c0,0.76,0.58,1.374,1.361,1.374
			c0.779,0,1.359-0.614,1.359-1.374C35.905,30.448,35.325,29.834,34.546,29.834z"/>
		<path fill="#FFFFFF" d="M24.79,29.785c-0.02-0.005-0.574-0.159-1.027-0.159c-0.53,0-0.816,0.178-0.816,0.427
			c0,0.318,0.387,0.429,0.603,0.499l0.364,0.114c0.854,0.272,1.244,0.855,1.244,1.491c0,1.31-1.152,1.748-2.16,1.748
			c-0.701,0-1.355-0.126-1.42-0.141v-1.2c0.117,0.028,0.669,0.192,1.243,0.192c0.653,0,0.956-0.189,0.956-0.485
			c0-0.265-0.261-0.417-0.589-0.52c-0.079-0.026-0.199-0.063-0.28-0.092c-0.734-0.229-1.344-0.661-1.344-1.523
			c0-0.975,0.731-1.631,1.944-1.631c0.641,0,1.244,0.156,1.283,0.166V29.785z"/>
		<path fill="#FFFFFF" d="M11.307,22.998c0-0.358-0.294-0.65-0.654-0.65c-0.359,0-0.653,0.292-0.653,0.65v1.369
			c0,0.362,0.294,0.654,0.653,0.654c0.36,0,0.654-0.292,0.654-0.654V22.998z"/>
		<path fill="#FFFFFF" d="M14.894,21.202c0-0.358-0.294-0.651-0.654-0.651c-0.358,0-0.653,0.293-0.653,0.651v3.165
			c0,0.362,0.294,0.654,0.653,0.654c0.36,0,0.654-0.292,0.654-0.654V21.202z"/>
		<path fill="#FFFFFF" d="M18.482,18.745c0-0.359-0.294-0.651-0.653-0.651c-0.362,0-0.656,0.292-0.656,0.651v6.923
			c0,0.36,0.294,0.651,0.656,0.651c0.359,0,0.653-0.291,0.653-0.651V18.745z"/>
		<path fill="#FFFFFF" d="M22.067,21.202c0-0.358-0.291-0.651-0.653-0.651c-0.358,0-0.653,0.293-0.653,0.651v3.165
			c0,0.362,0.294,0.654,0.653,0.654c0.362,0,0.653-0.292,0.653-0.654V21.202z"/>
		<path fill="#FFFFFF" d="M25.652,22.998c0-0.358-0.294-0.65-0.649-0.65c-0.362,0-0.653,0.292-0.653,0.65v1.369
			c0,0.362,0.291,0.654,0.653,0.654c0.355,0,0.649-0.292,0.649-0.654V22.998z"/>
		<path fill="#FFFFFF" d="M29.241,21.202c0-0.358-0.291-0.651-0.653-0.651c-0.358,0-0.648,0.293-0.648,0.651v3.165
			c0,0.362,0.29,0.654,0.648,0.654c0.362,0,0.653-0.292,0.653-0.654V21.202z"/>
		<path fill="#FFFFFF" d="M32.829,18.745c0-0.359-0.292-0.651-0.65-0.651c-0.36,0-0.651,0.292-0.651,0.651v6.923
			c0,0.36,0.291,0.651,0.651,0.651c0.358,0,0.65-0.291,0.65-0.651V18.745z"/>
		<path fill="#FFFFFF" d="M36.418,21.202c0-0.358-0.291-0.651-0.659-0.651c-0.357,0-0.649,0.293-0.649,0.651v3.165
			c0,0.362,0.292,0.654,0.649,0.654c0.368,0,0.659-0.292,0.659-0.654V21.202z"/>
		<path fill="#FFFFFF" d="M40,22.998c0-0.358-0.291-0.65-0.649-0.65c-0.36,0-0.652,0.292-0.652,0.65v1.369
			c0,0.362,0.292,0.654,0.652,0.654c0.358,0,0.649-0.292,0.649-0.654V22.998z"/>
	</g>
	<g display="inline">
		<rect x="18.484" y="27.602" fill="#8C8C94" width="1.316" height="5.213"/>
		<path fill="#8C8C94" d="M30.407,29.095c-0.054-0.028-0.478-0.279-1.107-0.279c-0.849,0-1.44,0.593-1.44,1.39
			c0,0.776,0.566,1.393,1.44,1.393c0.618,0,1.051-0.244,1.107-0.276v1.399c-0.167,0.047-0.614,0.185-1.2,0.185
			c-1.479,0-2.775-1.02-2.775-2.7c0-1.556,1.174-2.697,2.775-2.697c0.62,0,1.076,0.15,1.2,0.188V29.095z"/>
		<path fill="#8C8C94" d="M16.677,29.095c-0.053-0.028-0.476-0.279-1.106-0.279c-0.852,0-1.441,0.593-1.441,1.39
			c0,0.776,0.564,1.393,1.441,1.393c0.619,0,1.047-0.244,1.106-0.276v1.399c-0.165,0.047-0.613,0.185-1.201,0.185
			c-1.478,0-2.775-1.02-2.775-2.7c0-1.556,1.175-2.697,2.775-2.697c0.619,0,1.076,0.15,1.201,0.188V29.095z"/>
		<path fill="#8C8C94" d="M37.3,30.205c0,1.493-1.15,2.7-2.754,2.7c-1.604,0-2.753-1.207-2.753-2.7c0-1.488,1.148-2.697,2.753-2.697
			C36.149,27.508,37.3,28.717,37.3,30.205z M34.546,28.834c-0.781,0-1.361,0.614-1.361,1.371c0,0.76,0.58,1.374,1.361,1.374
			c0.779,0,1.359-0.614,1.359-1.374C35.905,29.448,35.325,28.834,34.546,28.834z"/>
		<path fill="#8C8C94" d="M24.79,28.785c-0.02-0.005-0.574-0.159-1.027-0.159c-0.53,0-0.816,0.178-0.816,0.427
			c0,0.318,0.387,0.429,0.603,0.499l0.364,0.114c0.854,0.272,1.244,0.855,1.244,1.491c0,1.31-1.152,1.748-2.16,1.748
			c-0.701,0-1.355-0.126-1.42-0.141v-1.2c0.117,0.028,0.669,0.192,1.243,0.192c0.653,0,0.956-0.189,0.956-0.485
			c0-0.265-0.261-0.417-0.589-0.52c-0.079-0.026-0.199-0.063-0.28-0.092c-0.734-0.229-1.344-0.661-1.344-1.523
			c0-0.975,0.731-1.631,1.944-1.631c0.641,0,1.244,0.156,1.283,0.166V28.785z"/>
		<path fill="#8C8C94" d="M11.307,21.998c0-0.358-0.294-0.65-0.654-0.65c-0.359,0-0.653,0.292-0.653,0.65v1.369
			c0,0.362,0.294,0.654,0.653,0.654c0.36,0,0.654-0.292,0.654-0.654V21.998z"/>
		<path fill="#8C8C94" d="M14.894,20.202c0-0.358-0.294-0.651-0.654-0.651c-0.358,0-0.653,0.293-0.653,0.651v3.165
			c0,0.362,0.294,0.654,0.653,0.654c0.36,0,0.654-0.292,0.654-0.654V20.202z"/>
		<path fill="#8C8C94" d="M18.482,17.745c0-0.359-0.294-0.651-0.653-0.651c-0.362,0-0.656,0.292-0.656,0.651v6.923
			c0,0.36,0.294,0.651,0.656,0.651c0.359,0,0.653-0.291,0.653-0.651V17.745z"/>
		<path fill="#8C8C94" d="M22.067,20.202c0-0.358-0.291-0.651-0.653-0.651c-0.358,0-0.653,0.293-0.653,0.651v3.165
			c0,0.362,0.294,0.654,0.653,0.654c0.362,0,0.653-0.292,0.653-0.654V20.202z"/>
		<path fill="#8C8C94" d="M25.652,21.998c0-0.358-0.294-0.65-0.649-0.65c-0.362,0-0.653,0.292-0.653,0.65v1.369
			c0,0.362,0.291,0.654,0.653,0.654c0.355,0,0.649-0.292,0.649-0.654V21.998z"/>
		<path fill="#8C8C94" d="M29.241,20.202c0-0.358-0.291-0.651-0.653-0.651c-0.358,0-0.648,0.293-0.648,0.651v3.165
			c0,0.362,0.29,0.654,0.648,0.654c0.362,0,0.653-0.292,0.653-0.654V20.202z"/>
		<path fill="#8C8C94" d="M32.829,17.745c0-0.359-0.292-0.651-0.65-0.651c-0.36,0-0.651,0.292-0.651,0.651v6.923
			c0,0.36,0.291,0.651,0.651,0.651c0.358,0,0.65-0.291,0.65-0.651V17.745z"/>
		<path fill="#8C8C94" d="M36.418,20.202c0-0.358-0.291-0.651-0.659-0.651c-0.357,0-0.649,0.293-0.649,0.651v3.165
			c0,0.362,0.292,0.654,0.649,0.654c0.368,0,0.659-0.292,0.659-0.654V20.202z"/>
		<path fill="#8C8C94" d="M40,21.998c0-0.358-0.291-0.65-0.649-0.65c-0.36,0-0.652,0.292-0.652,0.65v1.369
			c0,0.362,0.292,0.654,0.652,0.654c0.358,0,0.649-0.292,0.649-0.654V21.998z"/>
	</g>
</g>
<g id="Layer_5" display="none">
	<path display="inline" opacity="0.35" fill="#FFFFFF" d="M13.146,20.878c-0.378-0.826-1.31-1.201-2.18-0.812
		c-0.873,0.385-1.193,1.352-0.8,2.18l3.655,7.944c0.576,1.242,1.182,1.9,2.317,1.9c1.215,0,1.745-0.714,2.318-1.9
		c0,0,3.188-6.94,3.22-7.014c0.033-0.073,0.134-0.297,0.457-0.294c0.275,0.001,0.507,0.219,0.507,0.512v6.79
		c0,1.048,0.582,1.906,1.697,1.906c1.116,0,1.72-0.858,1.72-1.906v-5.555c0-1.07,0.765-1.765,1.812-1.765
		c1.047,0,1.741,0.719,1.741,1.765v5.555c0,1.048,0.581,1.906,1.696,1.906s1.722-0.858,1.722-1.906v-5.555
		c0-1.07,0.766-1.765,1.812-1.765c1.046,0,1.742,0.719,1.742,1.765v5.555c0,1.048,0.58,1.906,1.697,1.906
		c1.114,0,1.72-0.858,1.72-1.906v-6.322c0-2.324-1.869-3.951-4.113-3.951c-2.246,0-3.652,1.553-3.652,1.553
		c-0.75-0.968-1.78-1.551-3.522-1.551c-1.839,0-3.449,1.551-3.449,1.551c-0.749-0.968-2.021-1.551-3.076-1.551
		c-1.628,0-2.924,0.716-3.715,2.524l-2.333,5.499L13.146,20.878z"/>
	<path display="inline" fill="#8C8C94" d="M13.146,19.878c-0.378-0.826-1.31-1.201-2.18-0.812c-0.873,0.385-1.193,1.352-0.8,2.18
		l3.655,7.944c0.576,1.242,1.182,1.9,2.317,1.9c1.215,0,1.745-0.714,2.318-1.9c0,0,3.188-6.94,3.22-7.014
		c0.033-0.073,0.134-0.297,0.457-0.294c0.275,0.001,0.507,0.219,0.507,0.512v6.79c0,1.048,0.582,1.906,1.697,1.906
		c1.116,0,1.72-0.858,1.72-1.906v-5.555c0-1.07,0.765-1.765,1.812-1.765c1.047,0,1.741,0.719,1.741,1.765v5.555
		c0,1.048,0.581,1.906,1.696,1.906s1.722-0.858,1.722-1.906v-5.555c0-1.07,0.766-1.765,1.812-1.765c1.046,0,1.742,0.719,1.742,1.765
		v5.555c0,1.048,0.58,1.906,1.697,1.906c1.114,0,1.72-0.858,1.72-1.906v-6.322c0-2.324-1.869-3.951-4.113-3.951
		c-2.246,0-3.652,1.553-3.652,1.553c-0.75-0.968-1.78-1.551-3.522-1.551c-1.839,0-3.449,1.551-3.449,1.551
		c-0.749-0.968-2.021-1.551-3.076-1.551c-1.628,0-2.924,0.716-3.715,2.524l-2.333,5.499L13.146,19.878z"/>
</g>
<g id="Layer_6" display="none">
	<g display="inline" opacity="0.35">
		<path fill="#FFFFFF" d="M24.999,12c-0.446,0-0.889,0.022-1.326,0.063l-2.538,7.166c-0.061,0.17,0.039,0.312,0.222,0.312h1.314
			c0.184,0,0.54,0.007,1.228,0.007c0.689,0,2.193,0.859,1.669,2.589c-0.526,1.729-3.391,9.603-3.391,9.603
			c-0.062,0.17-0.262,0.311-0.446,0.311h-2.77c-0.184,0-0.286-0.142-0.224-0.312l3.222-9.062l0.347-0.984
			c0,0,0.071-0.422-0.393-0.422l-1.14-0.001c-0.185,0-0.384,0.141-0.445,0.31l-3.632,10.159c-0.06,0.171-0.261,0.31-0.443,0.31
			l-2.655-0.002c-0.184,0-0.283-0.141-0.224-0.312l6.621-18.812C14.735,14.936,11,20.031,11,26c0,6.564,4.518,12.072,10.615,13.587
			l3.082-8.841L28.513,19.8l0,0l0.108-0.312l5.439,0.003c1.636,0.002,3.331,0.871,2.453,3.245l-0.11,0.31
			c0,0.002,0,0.002-0.002,0.002l-0.998,2.802l-1.409,3.948c-0.468,1.33-0.877,2.257-3.335,2.256h-0.33c-0.001,0-0.003,0-0.003,0
			l-1.203-0.001l-1.206-0.001c-0.184,0-0.382,0.139-0.441,0.309l-1.631,4.668l-1.039,2.969C24.871,39.998,24.934,40,24.999,40
			C32.732,40,39,33.732,39,26C39,18.268,32.732,12,24.999,12z"/>
		<path fill="#FFFFFF" d="M29.656,30.317h0.01c0.585,0,0.88-0.638,0.937-0.984c0.06-0.349,2.521-7.238,2.521-7.238
			c0.174-0.462-0.043-0.649-0.043-0.649c-0.139-0.12-0.4-0.218-0.586-0.218l-0.396,0h-0.397c-0.184,0-0.383,0.14-0.442,0.311
			l-2.959,8.465c-0.06,0.171,0.041,0.312,0.225,0.312L29.656,30.317z"/>
	</g>
	<g display="inline">
		<path fill="#8C8C94" d="M24.999,11c-0.446,0-0.889,0.022-1.326,0.063l-2.538,7.166c-0.061,0.17,0.039,0.312,0.222,0.312h1.314
			c0.184,0,0.54,0.007,1.228,0.007c0.689,0,2.193,0.859,1.669,2.589c-0.526,1.729-3.391,9.603-3.391,9.603
			c-0.062,0.17-0.262,0.311-0.446,0.311h-2.77c-0.184,0-0.286-0.142-0.224-0.312l3.222-9.062l0.347-0.984
			c0,0,0.071-0.422-0.393-0.422l-1.14-0.001c-0.185,0-0.384,0.141-0.445,0.31l-3.632,10.159c-0.06,0.171-0.261,0.31-0.443,0.31
			l-2.655-0.002c-0.184,0-0.283-0.141-0.224-0.312l6.621-18.812C14.735,13.936,11,19.031,11,25c0,6.564,4.518,12.072,10.615,13.587
			l3.082-8.841L28.513,18.8l0,0l0.108-0.312l5.439,0.003c1.636,0.002,3.331,0.871,2.453,3.245l-0.11,0.31
			c0,0.002,0,0.002-0.002,0.002l-0.998,2.802l-1.409,3.948c-0.468,1.33-0.877,2.257-3.335,2.256h-0.33c-0.001,0-0.003,0-0.003,0
			l-1.203-0.001l-1.206-0.001c-0.184,0-0.382,0.139-0.441,0.309l-1.631,4.668l-1.039,2.969C24.871,38.998,24.934,39,24.999,39
			C32.732,39,39,32.732,39,25C39,17.268,32.732,11,24.999,11z"/>
		<path fill="#8C8C94" d="M29.656,29.317h0.01c0.585,0,0.88-0.638,0.937-0.984c0.06-0.349,2.521-7.238,2.521-7.238
			c0.174-0.462-0.043-0.649-0.043-0.649c-0.139-0.12-0.4-0.218-0.586-0.218l-0.396,0h-0.397c-0.184,0-0.383,0.14-0.442,0.311
			l-2.959,8.465c-0.06,0.171,0.041,0.312,0.225,0.312L29.656,29.317z"/>
	</g>
</g>
<g id="Layer_7" display="none">
	<g display="inline" opacity="0.35">
		<g>
			<path fill="#FFFFFF" d="M17.232,34.131c-2.171,0-4.213-0.847-5.749-2.382C9.947,30.213,9.102,28.171,9.102,26
				c0-2.171,0.846-4.213,2.381-5.749c1.536-1.536,3.578-2.381,5.749-2.381s4.213,0.845,5.749,2.381
				c1.536,1.536,2.381,3.578,2.381,5.749c0,2.171-0.846,4.213-2.381,5.749C21.445,33.284,19.403,34.131,17.232,34.131z
				 M17.232,18.569c-1.984,0-3.851,0.773-5.255,2.177C10.574,22.15,9.801,24.016,9.801,26c0,1.985,0.773,3.851,2.176,5.256
				c1.404,1.402,3.271,2.176,5.255,2.176c1.985,0,3.852-0.773,5.255-2.176c1.403-1.405,2.175-3.271,2.175-5.256
				c0-1.986-0.772-3.85-2.175-5.254C21.083,19.342,19.217,18.569,17.232,18.569z"/>
		</g>
		<path fill="#FFFFFF" d="M28.412,26.061c0.168-0.721-0.099-1.2-0.917-1.2c-0.771,0-1.308,0.467-1.479,1.2H28.412z M25.767,27.126
			c-0.223,0.945,0.092,1.378,0.913,1.378c0.695,0,1.045-0.289,1.226-0.645h3.521c-0.329,0.935-1.797,1.822-4.962,1.822
			c-2.874,0-4.619-0.855-4.125-2.965c0.507-2.167,2.715-3.032,5.429-3.032c2.349,0,4.562,0.677,3.983,3.142l-0.069,0.3H25.767z"/>
		<path fill="#FFFFFF" d="M32.588,26.083c0.174-0.744,0.333-1.478,0.438-2.188h3.546l-0.18,0.978h0.024
			c0.772-0.79,1.831-1.188,3.077-1.188c1.102,0,2.918,0.332,2.421,2.454l-0.778,3.331h-3.594l0.697-2.987
			c0.192-0.82-0.095-1.11-0.718-1.11c-0.831,0-1.283,0.465-1.482,1.321l-0.651,2.776h-3.594L32.588,26.083z"/>
		<polygon fill="#FFFFFF" points="14.989,26.189 11.143,21.449 15.856,21.458 17.897,24.22 21.292,21.449 26.747,21.449 
			19.938,26.677 23.767,31.605 19.017,31.605 17.066,28.735 13.437,31.605 8,31.605 		"/>
	</g>
	<g display="inline">
		<g>
			<path fill="#8C8C94" d="M17.232,33.131c-2.171,0-4.213-0.847-5.749-2.382C9.947,29.213,9.102,27.171,9.102,25
				c0-2.171,0.846-4.213,2.381-5.749c1.536-1.536,3.578-2.381,5.749-2.381s4.213,0.845,5.749,2.381
				c1.536,1.536,2.381,3.578,2.381,5.749c0,2.171-0.846,4.213-2.381,5.749C21.445,32.284,19.403,33.131,17.232,33.131z
				 M17.232,17.569c-1.984,0-3.851,0.773-5.255,2.177C10.574,21.15,9.801,23.016,9.801,25c0,1.985,0.773,3.851,2.176,5.256
				c1.404,1.402,3.271,2.176,5.255,2.176c1.985,0,3.852-0.773,5.255-2.176c1.403-1.405,2.175-3.271,2.175-5.256
				c0-1.986-0.772-3.85-2.175-5.254C21.083,18.342,19.217,17.569,17.232,17.569z"/>
		</g>
		<path fill="#8C8C94" d="M28.412,25.061c0.168-0.722-0.099-1.2-0.917-1.2c-0.771,0-1.308,0.467-1.479,1.2H28.412z M25.767,26.126
			c-0.223,0.945,0.092,1.378,0.913,1.378c0.695,0,1.045-0.289,1.226-0.645h3.521c-0.329,0.935-1.797,1.822-4.962,1.822
			c-2.874,0-4.619-0.855-4.125-2.965c0.507-2.167,2.715-3.032,5.429-3.032c2.349,0,4.562,0.677,3.983,3.142l-0.069,0.3H25.767z"/>
		<path fill="#8C8C94" d="M32.588,25.083c0.174-0.744,0.333-1.478,0.438-2.188h3.546l-0.18,0.978h0.024
			c0.772-0.79,1.831-1.188,3.077-1.188c1.102,0,2.918,0.332,2.421,2.454l-0.778,3.332h-3.594l0.697-2.987
			c0.192-0.821-0.095-1.11-0.718-1.11c-0.831,0-1.283,0.466-1.482,1.321l-0.651,2.776h-3.594L32.588,25.083z"/>
		<polygon fill="#8C8C94" points="14.989,25.189 11.143,20.449 15.856,20.458 17.897,23.22 21.292,20.449 26.747,20.449 
			19.938,25.677 23.767,30.605 19.017,30.605 17.066,27.735 13.437,30.605 8,30.605 		"/>
	</g>
</g>
<g id="Layer_8" display="none">
	<g display="inline">
		<path fill-rule="evenodd" clip-rule="evenodd" fill="#303490" d="M9.568,21.873v2.055H9.411c-0.053-0.393-0.148-0.706-0.284-0.938
			c-0.137-0.233-0.332-0.417-0.584-0.555c-0.253-0.137-0.515-0.205-0.785-0.205c-0.306,0-0.559,0.093-0.758,0.28
			s-0.3,0.398-0.3,0.637c0,0.182,0.063,0.348,0.189,0.498c0.182,0.22,0.615,0.514,1.299,0.881c0.557,0.3,0.938,0.529,1.143,0.689
			s0.361,0.349,0.472,0.566c0.11,0.217,0.166,0.444,0.166,0.682c0,0.453-0.176,0.843-0.527,1.17c-0.351,0.327-0.803,0.49-1.356,0.49
			c-0.173,0-0.337-0.013-0.489-0.04c-0.091-0.015-0.28-0.068-0.567-0.162c-0.287-0.093-0.468-0.14-0.544-0.14
			c-0.074,0-0.132,0.022-0.174,0.066c-0.043,0.045-0.074,0.137-0.095,0.275H6.057v-2.055h0.157c0.077,0.431,0.18,0.753,0.309,0.967
			c0.129,0.215,0.327,0.393,0.593,0.533c0.266,0.142,0.558,0.213,0.875,0.213c0.367,0,0.658-0.098,0.871-0.291
			c0.213-0.194,0.32-0.424,0.32-0.688c0-0.146-0.041-0.296-0.121-0.445s-0.206-0.29-0.375-0.419
			c-0.115-0.089-0.427-0.274-0.938-0.561c-0.511-0.285-0.875-0.513-1.09-0.684c-0.216-0.171-0.379-0.359-0.491-0.565
			C6.056,23.922,6,23.696,6,23.449c0-0.429,0.165-0.8,0.494-1.11c0.329-0.311,0.748-0.466,1.256-0.466
			c0.317,0,0.654,0.078,1.009,0.233c0.165,0.073,0.281,0.11,0.348,0.11c0.077,0,0.139-0.022,0.188-0.068
			c0.048-0.045,0.087-0.137,0.117-0.275H9.568L9.568,21.873z"/>
		<path fill-rule="evenodd" clip-rule="evenodd" fill="#303490" d="M13.029,24.148v-0.104h1.398v0.104h-0.149
			c-0.156,0-0.276,0.066-0.36,0.199c-0.041,0.062-0.062,0.205-0.062,0.429v1.615c0,0.399-0.04,0.709-0.119,0.929
			c-0.079,0.221-0.235,0.409-0.467,0.566c-0.233,0.158-0.549,0.236-0.949,0.236c-0.436,0-0.766-0.075-0.991-0.226
			c-0.226-0.151-0.385-0.354-0.479-0.609c-0.063-0.174-0.094-0.502-0.094-0.982v-1.558c0-0.246-0.034-0.407-0.1-0.484
			s-0.174-0.115-0.323-0.115h-0.148v-0.104h1.702v0.104h-0.15c-0.162,0-0.278,0.052-0.348,0.157
			c-0.048,0.071-0.072,0.218-0.072,0.442v1.736c0,0.154,0.014,0.332,0.043,0.531c0.028,0.2,0.08,0.355,0.155,0.468
			c0.075,0.111,0.183,0.203,0.324,0.275c0.141,0.073,0.314,0.109,0.519,0.109c0.262,0,0.497-0.058,0.704-0.171
			c0.207-0.113,0.349-0.259,0.424-0.436c0.076-0.178,0.114-0.478,0.114-0.9v-1.613c0-0.25-0.027-0.406-0.082-0.469
			c-0.076-0.086-0.189-0.13-0.34-0.13H13.029L13.029,24.148z"/>
		<path fill-rule="evenodd" clip-rule="evenodd" fill="#303490" d="M15.73,26.168v1.166c0,0.252,0.027,0.408,0.082,0.47
			c0.074,0.086,0.187,0.13,0.336,0.13h0.152v0.104h-1.702v-0.104h0.15c0.168,0,0.289-0.056,0.362-0.166
			c0.039-0.061,0.059-0.205,0.059-0.434v-2.586c0-0.252-0.026-0.408-0.08-0.469c-0.076-0.086-0.19-0.13-0.341-0.13h-0.15v-0.104
			h1.456c0.355,0,0.636,0.037,0.841,0.11s0.377,0.198,0.519,0.373c0.141,0.175,0.211,0.382,0.211,0.622
			c0,0.326-0.107,0.591-0.321,0.796c-0.214,0.204-0.516,0.306-0.906,0.306c-0.096,0-0.199-0.007-0.31-0.021
			C15.977,26.216,15.857,26.195,15.73,26.168L15.73,26.168z M15.73,26.001c0.103,0.02,0.194,0.034,0.273,0.044
			s0.147,0.015,0.204,0.015c0.202,0,0.376-0.079,0.522-0.237s0.22-0.363,0.22-0.615c0-0.173-0.035-0.333-0.105-0.482
			s-0.168-0.259-0.296-0.333c-0.128-0.073-0.274-0.11-0.437-0.11c-0.099,0-0.226,0.019-0.381,0.056V26.001L15.73,26.001z"/>
		<path fill-rule="evenodd" clip-rule="evenodd" fill="#303490" d="M19.097,24.272v1.569h0.855c0.228,0,0.38-0.033,0.457-0.102
			c0.102-0.088,0.159-0.245,0.171-0.469h0.104v1.379h-0.104c-0.028-0.192-0.055-0.316-0.083-0.371
			c-0.036-0.067-0.093-0.121-0.174-0.16s-0.205-0.059-0.372-0.059h-0.855v1.307c0,0.175,0.007,0.281,0.023,0.319l0.082,0.091
			c0.039,0.022,0.114,0.033,0.223,0.033H20.1c0.225,0,0.388-0.016,0.49-0.046c0.102-0.031,0.199-0.092,0.293-0.183
			c0.121-0.12,0.245-0.301,0.373-0.542h0.124l-0.344,0.999h-3.07v-0.104h0.141c0.094,0,0.183-0.022,0.268-0.068
			c0.062-0.031,0.105-0.079,0.128-0.143s0.034-0.192,0.034-0.389v-2.586c0-0.259-0.025-0.418-0.076-0.479
			c-0.071-0.08-0.188-0.12-0.353-0.12h-0.141v-0.104h3.062l0.038,0.875h-0.124c-0.041-0.207-0.086-0.349-0.135-0.426
			s-0.123-0.136-0.219-0.177c-0.077-0.029-0.214-0.044-0.41-0.044H19.097L19.097,24.272z"/>
		<path fill-rule="evenodd" clip-rule="evenodd" fill="#303490" d="M25.589,28.038h-1.067l-1.353-1.864
			c-0.099,0.004-0.18,0.006-0.243,0.006l-0.082-0.001l-0.09-0.005v1.16c0,0.252,0.027,0.408,0.082,0.47
			c0.074,0.086,0.185,0.13,0.333,0.13h0.155v0.104h-1.702v-0.104h0.149c0.167,0,0.288-0.056,0.36-0.166
			c0.041-0.061,0.061-0.205,0.061-0.434v-2.586c0-0.252-0.027-0.408-0.082-0.469c-0.076-0.086-0.189-0.13-0.339-0.13h-0.149v-0.104
			h1.452c0.423,0,0.735,0.031,0.936,0.093c0.201,0.062,0.371,0.176,0.511,0.342s0.21,0.364,0.21,0.594
			c0,0.246-0.08,0.459-0.241,0.64c-0.16,0.181-0.409,0.309-0.745,0.383l0.828,1.145c0.188,0.265,0.35,0.441,0.485,0.528
			c0.135,0.087,0.311,0.142,0.529,0.166V28.038L25.589,28.038z M22.754,25.993l0.096,0.002l0.067,0.001
			c0.377,0,0.661-0.083,0.853-0.249s0.287-0.378,0.287-0.635c0-0.251-0.077-0.456-0.232-0.613c-0.154-0.158-0.359-0.236-0.613-0.236
			c-0.113,0-0.265,0.022-0.458,0.066V25.993L22.754,25.993z"/>
		<path fill-rule="evenodd" clip-rule="evenodd" fill="#303490" d="M27.995,28.038l-1.54-3.361v2.667
			c0,0.248,0.026,0.403,0.08,0.465c0.073,0.083,0.189,0.125,0.348,0.125h0.143v0.104h-1.397v-0.104h0.143
			c0.17,0,0.291-0.052,0.362-0.155c0.044-0.063,0.065-0.208,0.065-0.435v-2.605c0-0.179-0.02-0.308-0.06-0.387
			c-0.027-0.058-0.079-0.106-0.153-0.145s-0.193-0.058-0.357-0.058v-0.104h1.143l1.44,3.118l1.429-3.118h1.123v0.104h-0.14
			c-0.172,0-0.294,0.052-0.365,0.155c-0.044,0.064-0.065,0.208-0.065,0.435v2.605c0,0.248,0.027,0.403,0.083,0.465
			c0.073,0.083,0.189,0.125,0.348,0.125h0.14v0.104h-1.702v-0.104h0.143c0.173,0,0.293-0.052,0.362-0.155
			c0.044-0.063,0.065-0.208,0.065-0.435v-2.667l-1.54,3.361H27.995L27.995,28.038z"/>
		<path fill-rule="evenodd" clip-rule="evenodd" fill="#303490" d="M32.738,27.934v0.104h-1.702v-0.104h0.142
			c0.164,0,0.284-0.048,0.358-0.145c0.047-0.063,0.07-0.215,0.07-0.455v-2.586c0-0.203-0.013-0.336-0.038-0.401
			c-0.02-0.049-0.06-0.092-0.12-0.127c-0.087-0.047-0.177-0.071-0.271-0.071h-0.142v-0.104h1.702v0.104h-0.143
			c-0.162,0-0.28,0.048-0.354,0.145c-0.049,0.063-0.073,0.215-0.073,0.455v2.586c0,0.203,0.013,0.337,0.038,0.401
			c0.02,0.05,0.061,0.092,0.123,0.127c0.084,0.048,0.173,0.071,0.267,0.071H32.738L32.738,27.934z"/>
		<path fill-rule="evenodd" clip-rule="evenodd" fill="#303490" d="M36.045,23.958l0.096,1.369h-0.096
			c-0.12-0.412-0.293-0.708-0.517-0.889c-0.225-0.181-0.493-0.271-0.807-0.271c-0.263,0-0.5,0.067-0.713,0.202
			c-0.212,0.134-0.379,0.348-0.501,0.643c-0.121,0.294-0.183,0.659-0.183,1.097c0,0.36,0.058,0.673,0.173,0.938
			c0.115,0.264,0.289,0.467,0.521,0.608c0.231,0.141,0.495,0.212,0.793,0.212c0.257,0,0.484-0.056,0.683-0.167
			c0.197-0.11,0.413-0.331,0.65-0.661l0.091,0.058c-0.199,0.355-0.433,0.615-0.699,0.78c-0.266,0.164-0.582,0.246-0.948,0.246
			c-0.659,0-1.171-0.244-1.532-0.734c-0.271-0.363-0.405-0.793-0.405-1.286c0-0.397,0.089-0.763,0.267-1.096
			c0.178-0.333,0.422-0.591,0.733-0.774c0.311-0.183,0.651-0.274,1.02-0.274c0.287,0,0.57,0.07,0.85,0.211
			c0.081,0.043,0.14,0.064,0.175,0.064c0.053,0,0.099-0.019,0.138-0.056c0.051-0.053,0.087-0.126,0.108-0.22H36.045L36.045,23.958z"
			/>
		<path fill-rule="evenodd" clip-rule="evenodd" fill="#303490" d="M40.212,28.038h-1.066l-1.354-1.864
			c-0.099,0.004-0.18,0.006-0.242,0.006l-0.082-0.001l-0.091-0.005v1.16c0,0.252,0.027,0.408,0.083,0.47
			c0.073,0.086,0.185,0.13,0.333,0.13h0.155v0.104h-1.702v-0.104h0.148c0.168,0,0.288-0.056,0.36-0.166
			c0.041-0.061,0.062-0.205,0.062-0.434v-2.586c0-0.252-0.027-0.408-0.082-0.469c-0.076-0.086-0.189-0.13-0.34-0.13h-0.148v-0.104
			h1.452c0.423,0,0.734,0.031,0.936,0.093c0.201,0.062,0.371,0.176,0.512,0.342c0.14,0.166,0.21,0.364,0.21,0.594
			c0,0.246-0.08,0.459-0.24,0.64c-0.161,0.181-0.409,0.309-0.745,0.383l0.828,1.145c0.188,0.265,0.35,0.441,0.484,0.528
			c0.136,0.087,0.312,0.142,0.529,0.166V28.038L40.212,28.038z M37.377,25.993l0.097,0.002l0.067,0.001
			c0.377,0,0.661-0.083,0.853-0.249s0.287-0.378,0.287-0.635c0-0.251-0.077-0.456-0.232-0.613c-0.154-0.158-0.358-0.236-0.613-0.236
			c-0.112,0-0.266,0.022-0.458,0.066V25.993L37.377,25.993z"/>
		<path fill-rule="evenodd" clip-rule="evenodd" fill="#C23E32" d="M39.831,26.043c0-1.151,0.934-2.084,2.085-2.084
			c1.15,0,2.084,0.933,2.084,2.084c0,1.15-0.934,2.084-2.084,2.084C40.765,28.127,39.831,27.193,39.831,26.043L39.831,26.043z"/>
	</g>
</g>
<g id="Layer_9" display="none">
	<g display="inline" opacity="0.35">
		<path fill="#FFFFFF" d="M36.353,38.704c-1.297,0-3.031-0.544-5.299-1.661c-0.167-0.081-0.329-0.163-0.491-0.244
			c-3.177,1.122-7.697,1.842-11.62,1.842c-3.211,0-7.18-0.464-7.85-2.669c-0.492-1.619,0.962-3.539,4.447-5.87
			c0.154-0.103,0.306-0.204,0.458-0.304c0.583-3.136,2.066-7.104,3.905-10.435c1.251-2.266,3.703-6.067,6.059-6.067
			c1.921,0,3.046,2.302,3.346,6.842c0.013,0.184,0.023,0.366,0.034,0.546c4.643,3.977,10.766,12.961,9.486,16.5
			C38.578,37.877,37.944,38.704,36.353,38.704z M32.152,36.15c1.803,0.846,3.214,1.273,4.2,1.273c0.911,0,1.158-0.36,1.271-0.675
			c0.85-2.353-3.571-9.87-8.208-14.274c0.031,1.234,0.018,2.417-0.039,3.531v0.002l-0.001,0.021c0.096,0.347,0.068,0.747-0.08,1.188
			v0.006c-0.026,0.305-0.056,0.604-0.089,0.895l0.005,0.002l-0.001,0.002c0.101,0.037,0.202,0.076,0.304,0.114
			c3.821,1.445,5.676,2.959,5.669,4.627C35.179,34.097,34.16,35.201,32.152,36.15z M15.765,31.499
			c-3.482,2.429-3.577,3.67-3.447,4.101c0.325,1.069,2.925,1.761,6.625,1.761c3.33,0,7.096-0.534,10.03-1.395
			c-1.085-0.589-2.101-1.19-3.035-1.797h-0.001l-0.019-0.012c-0.349-0.091-0.681-0.313-0.99-0.664l-0.004-0.004
			c-0.25-0.174-0.495-0.349-0.729-0.522L24.19,32.97l-0.002-0.002c-0.083,0.069-0.166,0.137-0.25,0.206
			c-2.391,1.956-4.228,2.906-5.617,2.906c-0.738,0-1.362-0.276-1.803-0.8C15.874,34.518,15.623,33.248,15.765,31.499z M27.48,33.628
			c0.979,0.601,2.039,1.195,3.163,1.776c2.045-0.794,3.257-1.738,3.261-2.547c0.002-0.479-0.467-1.771-4.842-3.426
			c-0.013-0.004-0.024-0.009-0.036-0.014C28.753,31.066,28.284,32.767,27.48,33.628z M17.166,30.566
			c-0.291,1.882-0.174,3.29,0.331,3.888c0.199,0.237,0.46,0.346,0.824,0.346c0.733,0,2.162-0.454,4.807-2.616
			c0.01-0.009,0.02-0.017,0.029-0.025c-1.24-1.021-2.52-2.298-2.869-3.445C19.277,29.261,18.231,29.882,17.166,30.566z
			 M25.801,32.54c0.177,0.122,0.36,0.246,0.547,0.368c0.304-0.124,0.903-1.012,1.33-3.221c-0.605,0.683-1.362,1.429-2.264,2.23
			C25.543,32.167,25.672,32.373,25.801,32.54z M21.476,28.093c-0.002,0.024-0.002,0.057,0.003,0.097
			c0.06,0.482,0.662,1.406,2.12,2.668c-0.289-0.865-0.557-1.894-0.801-3.077c-0.279-0.012-0.524-0.004-0.731,0.024
			C21.873,27.896,21.675,27.993,21.476,28.093z M24.142,27.948c0.23,1.057,0.479,1.967,0.746,2.723
			c0.8-0.729,1.463-1.399,1.983-2.007C25.841,28.335,24.928,28.096,24.142,27.948z M25.962,14.577c-2.364,0-6.904,7.849-8.45,14.262
			c1.052-0.644,2.082-1.224,3.074-1.73l0-0.001l0.019-0.009c0.254-0.258,0.613-0.435,1.072-0.526l0.004-0.002
			c0.277-0.131,0.55-0.254,0.818-0.37l-0.001-0.005l0.003-0.002c-0.018-0.104-0.036-0.211-0.053-0.318
			c-0.558-3.413-0.37-5.611,0.573-6.722c0.443-0.521,1.056-0.797,1.769-0.797c0.896,0,1.967,0.429,3.195,1.277
			C27.597,15.084,26.451,14.577,25.962,14.577z M24.626,26.739c0.893,0.182,1.917,0.464,3.062,0.845
			c0.151-0.236,0.267-0.452,0.346-0.646c0.016-0.213,0.032-0.432,0.046-0.652c-0.105-0.076-0.343-0.141-0.71-0.141
			C26.695,26.145,25.744,26.353,24.626,26.739z M24.791,19.636c-0.34,0-0.592,0.11-0.793,0.347
			c-0.381,0.448-0.924,1.782-0.287,5.686c0.002,0.012,0.005,0.025,0.007,0.038c1.474-0.552,2.728-0.842,3.652-0.842
			c0.296,0,0.55,0.029,0.767,0.08c0.031-1.15,0.016-2.367-0.044-3.633C26.746,20.229,25.58,19.636,24.791,19.636z"/>
	</g>
	<g display="inline">
		<path fill="#8C8C94" d="M36.353,37.704c-1.297,0-3.031-0.544-5.299-1.661c-0.167-0.081-0.329-0.163-0.491-0.244
			c-3.177,1.122-7.697,1.842-11.62,1.842c-3.211,0-7.18-0.464-7.85-2.669c-0.492-1.619,0.962-3.539,4.447-5.87
			c0.154-0.103,0.306-0.204,0.458-0.304c0.583-3.136,2.066-7.104,3.905-10.435c1.251-2.266,3.703-6.067,6.059-6.067
			c1.921,0,3.046,2.302,3.346,6.842c0.013,0.184,0.023,0.366,0.034,0.546c4.643,3.977,10.766,12.961,9.486,16.5
			C38.578,36.877,37.944,37.704,36.353,37.704z M32.152,35.15c1.803,0.846,3.214,1.273,4.2,1.273c0.911,0,1.158-0.36,1.271-0.675
			c0.85-2.353-3.571-9.87-8.208-14.274c0.031,1.234,0.018,2.417-0.039,3.531v0.001l-0.001,0.021c0.096,0.347,0.068,0.747-0.08,1.188
			v0.006c-0.026,0.305-0.056,0.604-0.089,0.895l0.005,0.002l-0.001,0.002c0.101,0.037,0.202,0.076,0.304,0.114
			c3.821,1.445,5.676,2.959,5.669,4.627C35.179,33.097,34.16,34.201,32.152,35.15z M15.765,30.499
			c-3.482,2.429-3.577,3.67-3.447,4.101c0.325,1.069,2.925,1.761,6.625,1.761c3.33,0,7.096-0.534,10.03-1.395
			c-1.085-0.589-2.101-1.19-3.035-1.797h-0.001l-0.019-0.012c-0.349-0.091-0.681-0.313-0.99-0.664l-0.004-0.004
			c-0.25-0.174-0.495-0.349-0.729-0.522L24.19,31.97l-0.002-0.002c-0.083,0.069-0.166,0.137-0.25,0.206
			c-2.391,1.956-4.228,2.906-5.617,2.906c-0.738,0-1.362-0.276-1.803-0.8C15.874,33.518,15.623,32.248,15.765,30.499z M27.48,32.628
			c0.979,0.601,2.039,1.195,3.163,1.776c2.045-0.794,3.257-1.738,3.261-2.547c0.002-0.479-0.467-1.771-4.842-3.426
			c-0.013-0.004-0.024-0.009-0.036-0.014C28.753,30.066,28.284,31.767,27.48,32.628z M17.166,29.566
			c-0.291,1.882-0.174,3.29,0.331,3.888c0.199,0.237,0.46,0.346,0.824,0.346c0.733,0,2.162-0.454,4.807-2.616
			c0.01-0.009,0.02-0.017,0.029-0.025c-1.24-1.021-2.52-2.298-2.869-3.445C19.277,28.261,18.231,28.882,17.166,29.566z
			 M25.801,31.54c0.177,0.122,0.36,0.246,0.547,0.368c0.304-0.124,0.903-1.012,1.33-3.221c-0.605,0.683-1.362,1.429-2.264,2.23
			C25.543,31.167,25.672,31.373,25.801,31.54z M21.476,27.093c-0.002,0.024-0.002,0.057,0.003,0.097
			c0.06,0.482,0.662,1.406,2.12,2.668c-0.289-0.865-0.557-1.894-0.801-3.077c-0.279-0.012-0.524-0.004-0.731,0.024
			C21.873,26.896,21.675,26.993,21.476,27.093z M24.142,26.948c0.23,1.057,0.479,1.967,0.746,2.723
			c0.8-0.729,1.463-1.399,1.983-2.007C25.841,27.335,24.928,27.096,24.142,26.948z M25.962,13.577c-2.364,0-6.904,7.849-8.45,14.262
			c1.052-0.644,2.082-1.224,3.074-1.73l0-0.001l0.019-0.009c0.254-0.258,0.613-0.435,1.072-0.526l0.004-0.002
			c0.277-0.13,0.55-0.253,0.818-0.37l-0.001-0.005l0.003-0.001c-0.018-0.105-0.036-0.211-0.053-0.319
			c-0.558-3.412-0.37-5.611,0.573-6.722c0.443-0.521,1.056-0.797,1.769-0.797c0.896,0,1.967,0.429,3.195,1.277
			C27.597,14.084,26.451,13.577,25.962,13.577z M24.626,25.739c0.893,0.182,1.917,0.464,3.062,0.845
			c0.151-0.236,0.267-0.452,0.346-0.646c0.016-0.213,0.032-0.432,0.046-0.652c-0.105-0.076-0.343-0.141-0.71-0.141
			C26.695,25.145,25.744,25.353,24.626,25.739z M24.791,18.636c-0.34,0-0.592,0.11-0.793,0.347
			c-0.381,0.448-0.924,1.782-0.287,5.686c0.002,0.012,0.005,0.025,0.007,0.038c1.474-0.552,2.728-0.842,3.652-0.842
			c0.296,0,0.55,0.029,0.767,0.08c0.031-1.15,0.016-2.367-0.044-3.633C26.746,19.229,25.58,18.636,24.791,18.636z"/>
	</g>
</g>
<g id="Layer_10">
	<g opacity="0.35">
		<path fill="#FFFFFF" d="M11,30.826v-9.652h1.949v4.286l3.937-4.286h2.621l-3.635,3.759l3.832,5.893h-2.521l-2.653-4.529
			l-1.58,1.612v2.917H11z"/>
		<path fill="#FFFFFF" d="M23.173,30.826l-3.45-9.652h2.114l2.442,7.143l2.364-7.143h2.067l-3.457,9.652H23.173z"/>
		<path fill="#FFFFFF" d="M29.678,30.826v-9.652h2.917l1.75,6.583l1.732-6.583H39v9.652h-1.811v-7.598l-1.915,7.598h-1.877
			l-1.91-7.598v7.598H29.678z"/>
	</g>
	<g>
		<path fill="#8C8C94" d="M11,29.826v-9.652h1.949v4.286l3.937-4.286h2.621l-3.635,3.759l3.832,5.893h-2.521l-2.653-4.53
			l-1.58,1.613v2.917H11z"/>
		<path fill="#8C8C94" d="M23.173,29.826l-3.45-9.652h2.114l2.442,7.143l2.364-7.143h2.067l-3.457,9.652H23.173z"/>
		<path fill="#8C8C94" d="M29.678,29.826v-9.652h2.917l1.75,6.583l1.732-6.583H39v9.652h-1.811v-7.598l-1.915,7.598h-1.877
			l-1.91-7.598v7.598H29.678z"/>
	</g>
</g>
</svg>
