<?xml version="1.0" encoding="utf-8"?>
<!-- Generator: Adobe Illustrator 16.0.0, SVG Export Plug-In . SVG Version: 6.00 Build 0)  -->
<!DOCTYPE svg PUBLIC "-//W3C//DTD SVG 1.1//EN" "http://www.w3.org/Graphics/SVG/1.1/DTD/svg11.dtd">
<svg version="1.1" id="Layer_1" xmlns="http://www.w3.org/2000/svg" xmlns:xlink="http://www.w3.org/1999/xlink" x="0px" y="0px"
	 width="184px" height="90px" viewBox="0 0 184 90" enable-background="new 0 0 184 90" xml:space="preserve">
<g>
	<path fill="#FFFFFF" d="M2,32.566C32.808-6.065,85.788-3.797,102.168,16.361C92.387,9.92,77.99,5.008,66.728,6.619
		c17.766,2.206,23.419,10.355,26.146,14.18C86.697,16.461,71.03,6.961,55.099,9.851c11.189,1.369,24.046,6.618,29.32,15.931
		c-9.011-6.623-24.091-15.079-38.41-11.809c12.339,1.663,24.741,6.915,30.286,17.065C66.319,24.094,30.311,9.701,2,32.566"/>
	<path fill="#FFFFFF" d="M182,22.66C151.223,61.376,96.992,58.748,80.611,38.58c9.785,6.453,28.208,13.74,39.299,11.352
		c-17.494-2.982-27.367-11.934-30.006-15.784c6.084,4.364,22.023,14.26,37.956,11.371c-11.191-1.37-24.223-7.039-29.59-16.323
		c9.01,6.61,24.448,15.442,38.778,12.261c-12.349-1.748-25.021-7.403-30.655-17.528C116.461,30.853,153.715,45.61,182,22.66"/>
	<path fill="#B5432C" d="M151.234,2l0.522,3.603c-12.188,0.071-23.884,1.996-35.063,5.679c-9.338,3.112-19.803,8.08-31.396,14.966
		c-14.511,8.802-24.581,14.434-30.09,17.013C43.352,48.83,31.354,52,19.176,52.736c14.037,0.528,27.364-1.26,40.142-5.431
		c9.41-3.11,20.01-8.152,31.734-15.169c12.857-7.545,22.794-12.846,29.823-15.961c10.098-4.334,20.395-7.587,30.999-9.741
		l0.522,3.576l11.49-5.758L151.234,2z"/>
	<polygon fill="#FFFFFF" points="20.91,62.338 24.046,62.338 27.608,80.011 31.13,62.338 34.111,62.338 36.342,87.832 
		33.127,87.832 32.116,69.916 28.665,87.832 26.315,87.832 22.945,69.916 21.888,87.832 18.748,87.832 	"/>
	<rect x="44.769" y="62.338" fill="#FFFFFF" width="3.528" height="25.494"/>
	<path fill="#FFFFFF" d="M60.319,87.832H56.83v-25.51h4.198c2.353,0,4.216,0.428,5.602,1.303c1.388,0.878,2.074,2.621,2.074,5.215
		c0,1.768-0.351,3.211-1.037,4.325c-0.696,1.117-1.955,1.808-3.776,2.103L70,87.832h-3.764l-5.833-12.399h-0.085L60.319,87.832
		L60.319,87.832z M60.319,73.443c1.442,0,2.608-0.189,3.514-0.604c0.894-0.401,1.354-1.472,1.388-3.219v-0.469
		c0-1.797-0.388-2.875-1.182-3.238c-0.78-0.371-2.017-0.553-3.72-0.553V73.443z"/>
	<path fill="#FFFFFF" d="M82.104,62.322h3.252l5.952,25.51h-3.404l-1.293-5.07h-5.84l-1.213,5.07h-3.491L82.104,62.322z
		 M83.751,68.914l-2.353,11.008h4.659L83.751,68.914z"/>
	<polygon fill="#FFFFFF" points="100.086,62.338 103.34,62.338 110.162,80.011 110.162,62.338 113.372,62.338 113.372,87.832 
		110.162,87.832 103.424,69.969 103.424,87.832 100.086,87.832 	"/>
	<polygon fill="#FFFFFF" points="126.104,65.494 121.406,65.494 121.406,62.322 134.337,62.322 134.337,65.494 129.594,65.494 
		129.594,87.832 126.104,87.832 	"/>
	<rect x="141.361" y="62.338" fill="#FFFFFF" width="3.521" height="25.494"/>
	<path fill="#FFFFFF" d="M153.061,83.524c0.11,0.045,0.211,0.101,0.314,0.149c0.369,0.212,0.766,0.404,1.177,0.587
		c0.419,0.184,0.849,0.338,1.296,0.477c0.231,0.038,0.471,0.086,0.725,0.132c0.248,0.031,0.49,0.055,0.722,0.055h0.177h0.186
		c0.515-0.055,1.015-0.228,1.484-0.522c0.471-0.305,0.816-0.752,1.059-1.344c0.08-0.135,0.134-0.261,0.174-0.397
		c0.035-0.133,0.07-0.269,0.102-0.425c0-0.131,0.008-0.263,0.015-0.391c0.018-0.124,0.024-0.261,0.024-0.384
		c0-0.908-0.313-1.754-0.922-2.522c-0.615-0.761-1.301-1.469-2.068-2.121c-0.252-0.207-0.506-0.411-0.731-0.602
		c-0.233-0.195-0.476-0.384-0.71-0.576c-0.866-0.723-1.646-1.521-2.355-2.403c-0.703-0.887-1.17-1.914-1.399-3.086
		c0-0.097-0.019-0.199-0.035-0.313c-0.04-0.095-0.04-0.202-0.04-0.309c-0.031,0-0.047-0.014-0.047-0.034v-0.07
		c-0.016-0.107-0.047-0.227-0.062-0.363c-0.006-0.116-0.016-0.237-0.016-0.344c0-0.947,0.207-1.879,0.607-2.768
		c0.406-0.891,0.978-1.663,1.703-2.309c0.525-0.492,1.1-0.859,1.721-1.092c0.635-0.233,1.27-0.375,1.922-0.426h0.23h0.244
		c0.332,0,0.672,0.012,1.012,0.055c0.348,0.041,0.701,0.102,1.062,0.178c0.427,0.1,0.83,0.218,1.229,0.348
		c0.404,0.132,0.808,0.295,1.199,0.471v3.414c-0.045-0.025-0.107-0.053-0.179-0.093c-0.062-0.048-0.125-0.079-0.171-0.105
		c-0.346-0.174-0.708-0.355-1.121-0.517c-0.398-0.176-0.811-0.305-1.229-0.409c-0.235-0.06-0.476-0.103-0.709-0.142
		c-0.232-0.043-0.473-0.062-0.703-0.062h-0.103h-0.131c-0.521,0.031-1.037,0.172-1.536,0.434c-0.484,0.256-0.882,0.682-1.174,1.277
		c-0.074,0.16-0.146,0.332-0.209,0.529c-0.07,0.19-0.117,0.389-0.141,0.601c0,0.097-0.006,0.198-0.016,0.309
		c-0.016,0.101-0.021,0.208-0.021,0.308c0,0.106,0.007,0.212,0.021,0.309c0.01,0.105,0.016,0.194,0.016,0.275
		c0.022,0.208,0.068,0.408,0.141,0.611c0.062,0.191,0.135,0.371,0.209,0.55c0.424,0.803,0.949,1.498,1.607,2.086
		c0.656,0.586,1.334,1.16,2.039,1.734c0.779,0.623,1.537,1.28,2.252,1.947c0.715,0.682,1.273,1.498,1.664,2.459
		c0.107,0.23,0.179,0.494,0.24,0.797c0.049,0.301,0.088,0.59,0.11,0.879c0,0.157,0.015,0.305,0.022,0.446
		c0.018,0.14,0.023,0.293,0.023,0.45c0,0.15-0.007,0.313-0.023,0.486c-0.01,0.171-0.031,0.344-0.062,0.528
		c-0.049,0.435-0.135,0.879-0.248,1.322c-0.115,0.443-0.268,0.847-0.453,1.201c-0.578,1.172-1.389,1.996-2.435,2.482
		C159.695,87.768,158.6,88,157.451,88c-0.23,0-0.482-0.014-0.725-0.041c-0.24-0.024-0.502-0.05-0.763-0.073
		c-0.547-0.054-1.103-0.173-1.646-0.353c-0.549-0.181-1.057-0.395-1.528-0.625v-3.543C152.869,83.418,152.967,83.467,153.061,83.524
		"/>
</g>
</svg>
