<?xml version="1.0" encoding="utf-8"?>
<!-- Generator: Adobe Illustrator 16.0.0, SVG Export Plug-In . SVG Version: 6.00 Build 0)  -->
<!DOCTYPE svg PUBLIC "-//W3C//DTD SVG 1.1//EN" "http://www.w3.org/Graphics/SVG/1.1/DTD/svg11.dtd">
<svg version="1.1" id="Layer_1" xmlns="http://www.w3.org/2000/svg" xmlns:xlink="http://www.w3.org/1999/xlink" x="0px" y="0px"
	 width="184px" height="90px" viewBox="0 0 184 90" enable-background="new 0 0 184 90" xml:space="preserve">
<g>
	<path d="M2,32.566C32.808-6.066,85.788-3.797,102.168,16.361C92.387,9.92,77.99,5.007,66.728,6.619
		c17.766,2.205,23.419,10.355,26.146,14.18C86.698,16.461,71.031,6.961,55.1,9.852c11.189,1.369,24.046,6.617,29.32,15.931
		c-9.011-6.623-24.091-15.078-38.41-11.81c12.339,1.664,24.741,6.916,30.286,17.066C66.319,24.094,30.311,9.701,2,32.566"/>
	<path d="M182,22.66C151.223,61.376,96.992,58.748,80.611,38.58c9.785,6.453,28.208,13.74,39.299,11.352
		c-17.494-2.981-27.367-11.934-30.006-15.783c6.084,4.363,22.023,14.261,37.956,11.371c-11.191-1.369-24.223-7.039-29.59-16.324
		c9.01,6.611,24.448,15.443,38.778,12.263c-12.349-1.748-25.021-7.403-30.655-17.528C116.461,30.854,153.715,45.609,182,22.66"/>
	<path fill="#B5432C" d="M151.234,2l0.522,3.604c-12.188,0.07-23.884,1.996-35.063,5.679c-9.338,3.112-19.803,8.079-31.396,14.967
		c-14.511,8.802-24.581,14.435-30.09,17.015c-11.855,5.567-23.853,8.737-36.031,9.475c14.037,0.527,27.364-1.26,40.142-5.432
		c9.41-3.109,20.01-8.15,31.734-15.168c12.857-7.547,22.794-12.848,29.823-15.963c10.098-4.334,20.395-7.587,30.999-9.74
		l0.522,3.576l11.49-5.759L151.234,2z"/>
	<polygon points="20.91,62.338 24.046,62.338 27.608,80.012 31.13,62.338 34.111,62.338 36.342,87.832 33.127,87.832 32.116,69.916 
		28.665,87.832 26.315,87.832 22.945,69.916 21.888,87.832 18.748,87.832 	"/>
	<rect x="44.769" y="62.338" width="3.528" height="25.494"/>
	<path d="M60.319,87.832H56.83v-25.51h4.198c2.353,0,4.216,0.428,5.602,1.303c1.388,0.878,2.074,2.621,2.074,5.215
		c0,1.768-0.351,3.211-1.037,4.325c-0.696,1.117-1.955,1.808-3.776,2.103L70,87.832h-3.764l-5.833-12.398h-0.085L60.319,87.832
		L60.319,87.832z M60.319,73.443c1.442,0,2.608-0.189,3.514-0.604c0.894-0.401,1.354-1.472,1.388-3.219v-0.47
		c0-1.797-0.388-2.875-1.182-3.237c-0.78-0.371-2.017-0.554-3.72-0.554V73.443z"/>
	<path d="M82.104,62.322h3.252l5.952,25.51h-3.404l-1.293-5.07h-5.84l-1.213,5.07h-3.491L82.104,62.322z M83.751,68.914
		l-2.353,11.008h4.659L83.751,68.914z"/>
	<polygon points="100.086,62.338 103.34,62.338 110.162,80.012 110.162,62.338 113.372,62.338 113.372,87.832 110.162,87.832 
		103.424,69.969 103.424,87.832 100.086,87.832 	"/>
	<polygon points="126.104,65.494 121.406,65.494 121.406,62.322 134.337,62.322 134.337,65.494 129.594,65.494 129.594,87.832 
		126.104,87.832 	"/>
	<rect x="141.361" y="62.338" width="3.521" height="25.494"/>
	<path d="M153.061,83.523c0.11,0.045,0.211,0.102,0.314,0.149c0.369,0.212,0.766,0.404,1.177,0.587
		c0.419,0.184,0.849,0.338,1.296,0.477c0.231,0.039,0.471,0.087,0.725,0.133c0.248,0.031,0.49,0.055,0.722,0.055h0.177h0.186
		c0.515-0.055,1.015-0.229,1.484-0.521c0.471-0.305,0.816-0.752,1.059-1.344c0.08-0.136,0.134-0.262,0.174-0.397
		c0.035-0.134,0.07-0.269,0.102-0.425c0-0.131,0.008-0.264,0.015-0.391c0.018-0.125,0.024-0.262,0.024-0.385
		c0-0.908-0.313-1.754-0.922-2.521c-0.615-0.762-1.301-1.469-2.068-2.121c-0.252-0.207-0.506-0.411-0.731-0.603
		c-0.233-0.194-0.476-0.384-0.71-0.575c-0.866-0.724-1.646-1.521-2.355-2.404c-0.703-0.887-1.17-1.914-1.399-3.086
		c0-0.096-0.019-0.198-0.035-0.312c-0.04-0.095-0.04-0.202-0.04-0.309c-0.031,0-0.047-0.014-0.047-0.034v-0.07
		c-0.016-0.106-0.047-0.228-0.062-0.362c-0.006-0.117-0.016-0.237-0.016-0.345c0-0.946,0.207-1.879,0.607-2.768
		c0.406-0.892,0.978-1.663,1.703-2.31c0.525-0.492,1.1-0.859,1.721-1.092c0.635-0.232,1.27-0.375,1.922-0.426h0.23h0.244
		c0.332,0,0.672,0.012,1.012,0.055c0.348,0.041,0.701,0.102,1.062,0.178c0.427,0.101,0.83,0.219,1.229,0.349
		c0.404,0.132,0.808,0.295,1.199,0.471v3.414c-0.045-0.024-0.107-0.053-0.179-0.093c-0.062-0.049-0.125-0.079-0.171-0.105
		c-0.346-0.174-0.708-0.354-1.121-0.517c-0.398-0.177-0.811-0.306-1.229-0.409c-0.235-0.061-0.476-0.104-0.709-0.143
		c-0.232-0.043-0.473-0.062-0.703-0.062h-0.103h-0.131c-0.521,0.031-1.037,0.173-1.536,0.435c-0.484,0.256-0.882,0.682-1.174,1.277
		c-0.074,0.159-0.146,0.332-0.209,0.528c-0.07,0.19-0.117,0.39-0.141,0.601c0,0.098-0.006,0.198-0.016,0.31
		c-0.016,0.101-0.021,0.208-0.021,0.308c0,0.106,0.007,0.213,0.021,0.309c0.01,0.105,0.016,0.195,0.016,0.275
		c0.022,0.208,0.068,0.408,0.141,0.611c0.062,0.191,0.135,0.371,0.209,0.55c0.424,0.804,0.949,1.498,1.607,2.086
		c0.656,0.586,1.334,1.16,2.039,1.734c0.779,0.622,1.537,1.28,2.252,1.946c0.715,0.683,1.273,1.498,1.664,2.459
		c0.107,0.23,0.179,0.494,0.24,0.797c0.049,0.302,0.088,0.591,0.11,0.88c0,0.157,0.015,0.305,0.022,0.446
		c0.018,0.14,0.023,0.293,0.023,0.449c0,0.15-0.007,0.313-0.023,0.486c-0.01,0.171-0.031,0.344-0.062,0.527
		c-0.049,0.436-0.135,0.879-0.248,1.322c-0.115,0.443-0.268,0.848-0.453,1.201c-0.578,1.172-1.389,1.996-2.435,2.482
		c-1.041,0.486-2.138,0.719-3.286,0.719c-0.23,0-0.482-0.014-0.725-0.041c-0.239-0.023-0.502-0.05-0.763-0.073
		c-0.547-0.054-1.103-0.173-1.645-0.353c-0.55-0.182-1.058-0.395-1.529-0.625v-3.543C152.869,83.418,152.967,83.467,153.061,83.523"
		/>
</g>
</svg>
