<?xml version="1.0" encoding="utf-8"?>
<!-- Generator: Adobe Illustrator 15.1.0, SVG Export Plug-In . SVG Version: 6.00 Build 0)  -->
<!DOCTYPE svg PUBLIC "-//W3C//DTD SVG 1.1//EN" "http://www.w3.org/Graphics/SVG/1.1/DTD/svg11.dtd">
<svg version="1.1" id="Layer_1" xmlns="http://www.w3.org/2000/svg" xmlns:xlink="http://www.w3.org/1999/xlink" x="0px" y="0px"
	 width="166px" height="60px" viewBox="0 0 166 60" enable-background="new 0 0 166 60" xml:space="preserve">
<path d="M3,28.729c11.638-14.824,31.653-13.954,37.841-6.219c-3.695-2.471-9.133-4.355-13.389-3.738
	c6.712,0.846,8.848,3.974,9.877,5.442c-2.333-1.665-8.252-5.311-14.271-4.202c4.228,0.526,9.084,2.54,11.077,6.113
	c-3.404-2.541-9.101-5.786-14.511-4.531c4.661,0.638,9.347,2.653,11.441,6.548C27.298,25.478,13.695,19.955,3,28.729z"/>
<path d="M71,24.927c-11.627,14.857-32.115,13.849-38.302,6.11c3.696,2.476,10.656,5.271,14.846,4.355
	c-6.609-1.145-10.339-4.58-11.335-6.056c2.298,1.673,8.319,5.472,14.338,4.362c-4.228-0.524-9.151-2.7-11.178-6.262
	c3.403,2.536,9.236,5.925,14.65,4.705c-4.666-0.672-9.453-2.841-11.581-6.726C46.241,28.071,60.314,33.734,71,24.927z"/>
<path fill-rule="evenodd" clip-rule="evenodd" fill="#DF0C00" d="M59.377,17l0.197,1.382c-4.604,0.028-9.023,0.765-13.246,2.179
	c-3.528,1.194-7.481,3.1-11.861,5.742c-5.481,3.378-9.286,5.54-11.367,6.528c-4.479,2.138-9.011,3.354-13.612,3.637
	c5.303,0.202,10.337-0.483,15.165-2.085c3.555-1.192,7.56-3.128,11.989-5.82c4.857-2.896,8.611-4.93,11.267-6.125
	c3.814-1.664,7.705-2.912,11.71-3.739l0.198,1.372l4.341-2.209L59.377,17z"/>
<polygon points="10.144,40.152 11.329,40.152 12.674,46.936 14.005,40.152 15.131,40.152 15.974,49.936 14.759,49.936 
	14.377,43.062 13.073,49.936 12.186,49.936 10.913,43.062 10.513,49.936 9.327,49.936 "/>
<rect x="19.157" y="40.152" width="1.333" height="9.783"/>
<path d="M25.032,44.415c0.545,0,0.985-0.073,1.327-0.232c0.338-0.153,0.512-0.564,0.525-1.235v-0.18
	c0-0.689-0.147-1.104-0.447-1.242c-0.294-0.143-0.762-0.213-1.405-0.213V44.415z M25.032,49.936h-1.318v-9.788H25.3
	c0.889,0,1.593,0.163,2.116,0.499c0.524,0.337,0.783,1.006,0.783,2.001c0,0.679-0.132,1.232-0.391,1.659
	c-0.263,0.43-0.738,0.694-1.427,0.808l2.308,4.821h-1.421l-2.204-4.758h-0.032V49.936z"/>
<path d="M33.884,42.677L32.995,46.9h1.76L33.884,42.677z M33.262,40.147h1.229l2.248,9.788h-1.286l-0.488-1.945h-2.207L32.3,49.936
	h-1.319L33.262,40.147z"/>
<polygon points="40.055,40.152 41.284,40.152 43.861,46.936 43.861,40.152 45.074,40.152 45.074,49.936 43.861,49.936 
	41.315,43.081 41.315,49.936 40.055,49.936 "/>
<polygon points="49.883,41.363 48.109,41.363 48.109,40.147 52.994,40.147 52.994,41.363 51.202,41.363 51.202,49.936 
	49.883,49.936 "/>
<rect x="55.647" y="40.152" width="1.331" height="9.783"/>
<path d="M60.067,48.283c0.042,0.016,0.08,0.038,0.119,0.058c0.14,0.08,0.289,0.154,0.444,0.225c0.159,0.07,0.32,0.129,0.49,0.182
	c0.087,0.017,0.178,0.034,0.273,0.052c0.093,0.012,0.185,0.021,0.272,0.021h0.137c0.194-0.021,0.383-0.086,0.561-0.2
	c0.178-0.116,0.309-0.289,0.4-0.516c0.03-0.051,0.05-0.1,0.065-0.152c0.014-0.051,0.027-0.104,0.039-0.163
	c0-0.051,0.002-0.102,0.005-0.15c0.006-0.047,0.009-0.1,0.009-0.146c0-0.35-0.119-0.674-0.348-0.969
	c-0.232-0.292-0.491-0.562-0.781-0.813c-0.096-0.08-0.191-0.157-0.277-0.23c-0.088-0.076-0.18-0.148-0.269-0.221
	c-0.327-0.278-0.621-0.584-0.889-0.923c-0.266-0.34-0.442-0.735-0.529-1.185c0-0.037-0.007-0.076-0.013-0.119
	c-0.016-0.037-0.016-0.078-0.016-0.118c-0.012,0-0.018-0.006-0.018-0.014v-0.027c-0.005-0.041-0.018-0.087-0.023-0.139
	c-0.002-0.045-0.006-0.091-0.006-0.133c0-0.363,0.078-0.722,0.23-1.062c0.154-0.341,0.369-0.637,0.643-0.885
	c0.199-0.189,0.415-0.33,0.649-0.419c0.24-0.091,0.48-0.146,0.727-0.163h0.18c0.125,0,0.254,0.003,0.382,0.021
	c0.131,0.015,0.265,0.038,0.4,0.068c0.162,0.038,0.314,0.082,0.464,0.134c0.153,0.05,0.305,0.112,0.453,0.18v1.31
	c-0.017-0.009-0.041-0.021-0.067-0.034c-0.024-0.02-0.047-0.031-0.065-0.041c-0.13-0.067-0.268-0.137-0.423-0.198
	c-0.151-0.068-0.306-0.116-0.465-0.156c-0.088-0.024-0.179-0.041-0.267-0.055c-0.088-0.018-0.179-0.024-0.266-0.024H62.25h-0.05
	c-0.197,0.013-0.392,0.065-0.58,0.166c-0.184,0.098-0.333,0.263-0.444,0.491c-0.028,0.06-0.055,0.127-0.079,0.203
	c-0.026,0.071-0.044,0.148-0.052,0.229c0,0.037-0.003,0.075-0.007,0.118c-0.005,0.039-0.008,0.079-0.008,0.118
	c0,0.042,0.002,0.082,0.008,0.118c0.004,0.041,0.007,0.075,0.007,0.105c0.008,0.08,0.026,0.157,0.052,0.235
	c0.024,0.073,0.051,0.143,0.079,0.21c0.161,0.31,0.359,0.576,0.608,0.801c0.247,0.226,0.504,0.446,0.77,0.666
	c0.295,0.238,0.581,0.491,0.851,0.748c0.27,0.261,0.481,0.574,0.629,0.942c0.041,0.089,0.067,0.189,0.09,0.306
	c0.019,0.115,0.034,0.227,0.042,0.338c0,0.06,0.005,0.117,0.008,0.17c0.007,0.054,0.01,0.113,0.01,0.174
	c0,0.059-0.003,0.12-0.01,0.188c-0.003,0.066-0.011,0.132-0.023,0.202c-0.018,0.167-0.051,0.336-0.094,0.508
	c-0.043,0.169-0.1,0.324-0.171,0.461c-0.219,0.449-0.524,0.766-0.919,0.951C62.574,49.911,62.16,50,61.726,50
	c-0.087,0-0.182-0.005-0.274-0.015c-0.09-0.011-0.189-0.02-0.288-0.028c-0.207-0.021-0.417-0.066-0.621-0.137
	c-0.208-0.069-0.399-0.149-0.578-0.239v-1.358C59.995,48.241,60.032,48.261,60.067,48.283z"/>
<path d="M82.87,15.96h0.08c2.389,0,4.146,1.812,4.146,4.188v6.271c0,2.376-1.758,4.188-4.146,4.188h-0.08
	c-2.39,0-4.145-1.812-4.145-4.188v-6.271C78.725,17.772,80.48,15.96,82.87,15.96z M80.767,26.397c0,1.271,0.775,2.229,2.104,2.229
	h0.08c1.328,0,2.104-0.958,2.104-2.229v-6.229c0-1.271-0.775-2.23-2.104-2.23h-0.08c-1.328,0-2.104,0.958-2.104,2.23V26.397z"/>
<path d="M97.077,27.126c0,2.083-1.572,3.48-3.51,3.48h-0.041c-0.594,0-1.285-0.23-1.674-0.688v4.084c0,0.541-0.449,0.957-0.98,0.957
	s-0.98-0.416-0.98-0.957V20.856c0-0.542,0.449-0.958,0.98-0.958c0.451,0,0.816,0.292,0.939,0.708
	c0.551-0.521,1.08-0.708,1.613-0.708h0.143c1.938,0,3.51,1.375,3.51,3.479V27.126z M95.118,23.376c0-0.978-0.674-1.562-1.551-1.562
	h-0.164c-0.877,0-1.551,0.584-1.551,1.562v3.771c0,0.917,0.631,1.542,1.551,1.542h0.164c0.877,0,1.551-0.562,1.551-1.563V23.376z"/>
<path d="M106.385,25.23c0,0.521-0.43,0.958-0.979,0.958h-4.123v0.938c0,1,0.713,1.563,1.59,1.563h0.143c0.98,0,1.287-0.604,1.594-1
	c0.164-0.208,0.348-0.354,0.715-0.354c0.51,0,0.959,0.459,0.959,1.021c0,0.166-0.041,0.312-0.123,0.479
	c-0.613,1.271-1.92,1.772-3.145,1.772h-0.184c-2.039,0-3.51-1.459-3.51-3.48v-3.75c0-2.104,1.531-3.479,3.469-3.479h0.104
	c2.041,0,3.49,1.5,3.49,3.396V25.23z M104.446,23.376c0-1.02-0.693-1.562-1.572-1.562h-0.041c-0.959,0-1.549,0.584-1.549,1.562
	v1.021h3.162V23.376z"/>
<path d="M108.999,20.856c0-0.542,0.449-0.958,0.979-0.958c0.449,0,0.838,0.312,0.941,0.729c0.365-0.374,1.061-0.729,1.631-0.729
	h0.164c1.959,0,3.389,1.458,3.389,3.562v6.188c0,0.542-0.449,0.958-0.979,0.958c-0.531,0-0.982-0.417-0.982-0.958v-6.272
	c0-0.833-0.508-1.562-1.469-1.562h-0.143c-1.104,0-1.572,0.834-1.572,1.562v6.272c0,0.542-0.449,0.958-0.98,0.958
	c-0.529,0-0.979-0.417-0.979-0.958V20.856z"/>
<path d="M125.797,20.397c-0.691,0-0.938-0.375-0.998-0.812c-0.186-1.229-0.941-1.688-1.9-1.688h-0.123
	c-0.998,0-1.775,0.792-1.775,1.833c0,0.771,0.244,1.375,1.104,1.812l2.734,1.438c1.246,0.666,2.184,1.812,2.184,3.667
	c0,2.354-1.773,3.958-4.061,3.958h-0.205c-2.143,0-4.062-1.479-4.062-4.042c0-0.667,0.512-1,1-1c0.49,0,1.041,0.333,1.041,1
	c0,1.333,0.857,2.083,2.021,2.083h0.205c1.203,0,2-0.771,2-2c0-0.938-0.469-1.48-1.326-1.938l-2.674-1.417
	c-1.432-0.771-1.98-2.021-1.98-3.5c0-2.25,1.855-3.833,3.795-3.833h0.123c2.166,0,3.879,1.417,3.879,3.458
	C126.778,19.98,126.391,20.397,125.797,20.397z"/>
<path d="M131.473,27.481c0,0.688,0.307,1.062,0.898,1.021l0.326-0.021c0.592-0.021,0.98,0.479,0.98,1.02c0,0.542-0.348,1-0.98,1.021
	c0,0-0.102,0.02-0.326,0.02c-1.898,0-2.859-1.333-2.859-3.02v-5.521h-0.652c-0.551,0-0.938-0.417-0.938-0.958
	s0.387-0.958,0.938-0.958h0.652v-3.167c0-0.542,0.449-0.958,0.982-0.958c0.529,0,0.979,0.416,0.979,0.958v3.167h1.326
	c0.553,0,0.941,0.417,0.941,0.958s-0.389,0.958-0.92,0.958h-1.348V27.481z"/>
<path d="M142.292,27.98c0,0.312,0.162,0.522,0.449,0.667l0.205,0.104c0.408,0.229,0.51,0.521,0.51,0.896
	c0,0.479-0.408,0.958-0.961,0.958h-0.02c-0.713,0-1.348-0.417-1.654-0.938c-0.549,0.542-1.488,0.938-2.203,0.938h-0.205
	c-1.613,0-3.307-0.917-3.307-3.021v-0.23c0-1.167,0.51-1.916,1.227-2.396c1.02-0.688,2.367-0.833,3.592-1.062
	c0.326-0.063,0.408-0.23,0.408-0.522v-0.145c0-0.833-0.594-1.417-1.389-1.417h-0.162c-0.652,0-1.205,0.209-1.471,0.813
	c-0.164,0.416-0.531,0.604-0.859,0.604c-0.508,0-1.02-0.417-1.02-0.979c0-0.146,0.021-0.292,0.082-0.438
	c0.654-1.521,2.164-1.916,3.268-1.916h0.162c1.635,0,3.348,1.271,3.348,3.354V27.98z M140.333,25.647l-1.164,0.25
	c-1.082,0.229-2.104,0.459-2.104,1.437v0.084c0,0.688,0.369,1.312,1.369,1.312h0.203c0.98,0,1.695-0.896,1.695-1.709V25.647z"/>
<path d="M148.354,21.813c-0.877,0-1.49,0.584-1.49,1.562v3.75c0,1,0.613,1.563,1.49,1.563h0.102c1.023,0,1.49-0.75,1.49-1.417
	c0-0.625,0.572-0.938,0.98-0.938c0.49,0,0.98,0.479,0.98,1.062c0,1.313-1.186,3.209-3.451,3.209h-0.102
	c-1.896,0-3.449-1.396-3.449-3.48v-3.75c0-2.104,1.553-3.479,3.449-3.479h0.102c2.023,0,3.451,1.562,3.451,3.333
	c0,0.625-0.551,0.958-0.98,0.958c-0.428,0-0.98-0.312-0.98-0.958c0-0.688-0.531-1.417-1.49-1.417H148.354z"/>
<path d="M161.583,29.127c0.102,0.145,0.143,0.333,0.143,0.521c0,0.521-0.428,0.958-1.021,0.958c-0.305,0-0.592-0.104-0.816-0.501
	l-2.408-4.25l-1,1.126v2.667c0,0.542-0.449,0.958-0.98,0.958c-0.529,0-0.979-0.417-0.979-0.958v-12.73
	c0-0.542,0.449-0.958,0.979-0.958c0.531,0,0.98,0.416,0.98,0.958v7.146l3.307-3.833c0.225-0.23,0.449-0.333,0.715-0.333
	c0.551,0,1,0.437,1,1c0,0.25-0.102,0.5-0.285,0.688l-2.367,2.708L161.583,29.127z"/>
<g>
	<rect x="78.725" y="36.96" fill="#DF0C00" width="84" height="14"/>
	<polygon fill="#FFFFFF" points="83.77,41.067 86.547,41.067 86.547,42.025 84.77,42.025 84.77,43.529 86.405,43.529 86.405,44.488 
		84.77,44.488 84.77,46.853 83.77,46.853 	"/>
	<path fill="#FFFFFF" d="M90.973,41.067h0.945v3.752c0,0.748-0.148,1.293-0.441,1.627c-0.293,0.338-0.699,0.506-1.217,0.506
		c-0.609,0-1.055-0.164-1.338-0.493c-0.281-0.328-0.424-0.828-0.424-1.499v-3.893h1v3.711c0,0.453,0.059,0.766,0.174,0.947
		c0.115,0.178,0.311,0.268,0.578,0.268c0.26,0,0.447-0.096,0.557-0.285c0.111-0.189,0.166-0.5,0.166-0.93V41.067z"/>
	<polygon fill="#FFFFFF" points="94.036,41.067 96.813,41.067 96.813,42.025 95.036,42.025 95.036,43.448 96.647,43.448 
		96.647,44.406 95.036,44.406 95.036,45.893 96.844,45.893 96.844,46.853 94.036,46.853 	"/>
	<polygon fill="#FFFFFF" points="101.827,46.853 98.877,46.853 98.877,41.067 99.875,41.067 99.875,45.893 101.827,45.893 	"/>
	<path fill="#FFFFFF" d="M106.374,41.067c0.096-0.017,0.201-0.028,0.32-0.036c0.119-0.009,0.24-0.018,0.365-0.025
		c0.125-0.009,0.244-0.014,0.361-0.016c0.115-0.004,0.219-0.004,0.309-0.004c0.439,0,0.807,0.069,1.1,0.21
		c0.293,0.139,0.527,0.338,0.705,0.596c0.178,0.255,0.303,0.562,0.379,0.919c0.072,0.359,0.109,0.759,0.109,1.198
		c0,0.403-0.035,0.787-0.105,1.154c-0.074,0.365-0.199,0.688-0.379,0.966c-0.18,0.278-0.424,0.502-0.729,0.665
		c-0.307,0.166-0.693,0.25-1.158,0.25c-0.068,0-0.162-0.005-0.279-0.009c-0.115-0.006-0.238-0.012-0.363-0.021
		c-0.127-0.008-0.248-0.016-0.367-0.026c-0.115-0.008-0.205-0.016-0.268-0.027V41.067z M107.833,41.942
		c-0.084,0-0.17,0.002-0.258,0.004c-0.088,0.004-0.154,0.011-0.203,0.023v3.982c0.018,0.004,0.045,0.008,0.084,0.013
		c0.041,0.002,0.082,0.006,0.129,0.008c0.043,0.002,0.086,0.007,0.125,0.009c0.039,0.001,0.066,0.003,0.084,0.003
		c0.238,0,0.434-0.057,0.586-0.173c0.154-0.118,0.273-0.271,0.363-0.463c0.086-0.194,0.146-0.415,0.18-0.667
		c0.035-0.249,0.053-0.513,0.053-0.788c0-0.255-0.016-0.5-0.043-0.733c-0.029-0.238-0.086-0.447-0.166-0.627
		c-0.084-0.178-0.199-0.321-0.35-0.429C108.264,41.998,108.071,41.942,107.833,41.942z"/>
	<polygon fill="#FFFFFF" points="112.045,41.067 114.823,41.067 114.823,42.025 113.043,42.025 113.043,43.448 114.657,43.448 
		114.657,44.406 113.043,44.406 113.043,45.893 114.854,45.893 114.854,46.853 112.045,46.853 	"/>
	<path fill="#FFFFFF" d="M116.883,41.125c0.191-0.043,0.4-0.078,0.629-0.103c0.227-0.025,0.453-0.036,0.682-0.036
		c0.242,0,0.482,0.021,0.719,0.069c0.234,0.047,0.443,0.139,0.629,0.275c0.188,0.14,0.336,0.334,0.453,0.583
		c0.115,0.252,0.176,0.578,0.176,0.979c0,0.364-0.051,0.672-0.148,0.926s-0.23,0.461-0.393,0.619
		c-0.164,0.16-0.354,0.276-0.566,0.349c-0.215,0.07-0.436,0.106-0.664,0.106c-0.02,0-0.055,0-0.102,0s-0.098,0-0.152-0.004
		c-0.053-0.003-0.104-0.007-0.154-0.013c-0.049-0.004-0.086-0.011-0.105-0.018v1.993h-1.002V41.125z M117.885,43.926
		c0.031,0.013,0.09,0.022,0.178,0.03c0.086,0.009,0.146,0.013,0.178,0.013c0.117,0,0.227-0.017,0.334-0.051
		c0.105-0.033,0.199-0.089,0.281-0.168c0.08-0.08,0.148-0.19,0.195-0.331s0.07-0.319,0.07-0.533c0-0.183-0.021-0.336-0.066-0.462
		c-0.045-0.128-0.107-0.229-0.184-0.304c-0.076-0.073-0.164-0.126-0.266-0.158c-0.1-0.036-0.207-0.052-0.316-0.052
		c-0.166,0-0.301,0.014-0.404,0.04V43.926z"/>
	<polygon fill="#FFFFFF" points="125.047,46.853 122.096,46.853 122.096,41.067 123.096,41.067 123.096,45.893 125.047,45.893 	"/>
	<path fill="#FFFFFF" d="M126.127,43.961c0-0.982,0.16-1.728,0.484-2.24c0.322-0.512,0.814-0.77,1.473-0.77
		c0.348,0,0.641,0.071,0.891,0.212c0.248,0.14,0.451,0.342,0.611,0.604c0.158,0.261,0.275,0.576,0.352,0.949
		c0.078,0.372,0.117,0.787,0.117,1.245c0,0.979-0.166,1.726-0.498,2.238c-0.33,0.514-0.82,0.77-1.473,0.77
		c-0.346,0-0.645-0.07-0.889-0.211c-0.248-0.142-0.451-0.341-0.607-0.604c-0.16-0.262-0.277-0.578-0.35-0.951
		C126.165,44.831,126.127,44.416,126.127,43.961z M127.174,43.961c0,0.291,0.018,0.561,0.049,0.813
		c0.029,0.249,0.084,0.467,0.158,0.647c0.072,0.183,0.166,0.326,0.279,0.43c0.115,0.104,0.256,0.157,0.424,0.157
		c0.309,0,0.539-0.161,0.693-0.486c0.152-0.325,0.229-0.847,0.229-1.562c0-0.282-0.016-0.549-0.047-0.797
		c-0.031-0.252-0.084-0.469-0.156-0.655c-0.07-0.184-0.164-0.329-0.279-0.438c-0.119-0.105-0.264-0.161-0.439-0.161
		C127.479,41.91,127.174,42.594,127.174,43.961z"/>
	<polygon fill="#FFFFFF" points="132.846,44.703 131.356,41.067 132.545,41.067 133.315,43.258 133.393,43.885 133.436,43.885 
		133.522,43.24 134.276,41.067 135.346,41.067 133.848,44.694 133.848,46.853 132.846,46.853 	"/>
	<polygon fill="#FFFFFF" points="140.655,43.869 140.764,42.762 140.725,42.762 140.43,43.754 139.528,45.786 139.194,45.786 
		138.233,43.746 137.94,42.747 137.893,42.747 138.043,43.86 138.043,46.853 137.098,46.853 137.098,41.067 138.059,41.067 
		139.217,43.572 139.407,44.29 139.44,44.29 139.622,43.556 140.709,41.067 141.653,41.067 141.653,46.853 140.655,46.853 	"/>
	<polygon fill="#FFFFFF" points="143.795,41.067 146.573,41.067 146.573,42.025 144.793,42.025 144.793,43.448 146.405,43.448 
		146.405,44.406 144.793,44.406 144.793,45.893 146.604,45.893 146.604,46.853 143.795,46.853 	"/>
	<polygon fill="#FFFFFF" points="149.856,44.01 149.491,42.994 149.452,42.994 149.579,43.993 149.579,46.853 148.635,46.853 
		148.635,41.026 149.405,41.026 150.999,43.937 151.34,44.936 151.387,44.936 151.26,43.952 151.26,41.067 152.204,41.067 
		152.204,46.893 151.434,46.893 	"/>
	<polygon fill="#FFFFFF" points="157.678,42.025 156.37,42.025 156.37,46.853 155.37,46.853 155.37,42.025 154.053,42.025 
		154.053,41.067 157.678,41.067 	"/>
</g>
</svg>
