<?xml version="1.0" encoding="utf-8"?>
<!-- Generator: Adobe Illustrator 15.1.0, SVG Export Plug-In . SVG Version: 6.00 Build 0)  -->
<!DOCTYPE svg PUBLIC "-//W3C//DTD SVG 1.1//EN" "http://www.w3.org/Graphics/SVG/1.1/DTD/svg11.dtd">
<svg version="1.1" id="Layer_1" xmlns="http://www.w3.org/2000/svg" xmlns:xlink="http://www.w3.org/1999/xlink" x="0px" y="0px"
	 width="290px" height="60px" viewBox="0 0 290 60" enable-background="new 0 0 290 60" xml:space="preserve">
<g>
	<path fill="#231F20" d="M0,20.98C21.004-5.536,57.127-3.979,68.294,9.856c-6.668-4.42-16.484-7.792-24.163-6.686
		c12.113,1.514,15.968,7.107,17.827,9.732c-4.21-2.977-14.893-9.498-25.755-7.514c7.629,0.939,16.395,4.542,19.99,10.934
		c-6.144-4.544-16.425-10.35-26.188-8.105c8.413,1.142,16.869,4.747,20.649,11.714C43.853,15.165,19.302,5.285,0,20.98L0,20.98z"/>
	<path fill="#231F20" d="M122.725,14.18C101.74,40.754,64.766,38.95,53.597,25.107c6.671,4.429,19.232,9.43,26.794,7.791
		c-11.927-2.048-18.659-8.19-20.459-10.832c4.149,2.994,15.016,9.787,25.879,7.803c-7.63-0.938-16.515-4.829-20.174-11.203
		c6.142,4.538,16.668,10.6,26.44,8.417c-8.42-1.2-17.061-5.082-20.901-12.031C78.04,19.804,103.439,29.934,122.725,14.18
		L122.725,14.18z"/>
	<path fill-rule="evenodd" clip-rule="evenodd" fill="#D33127" d="M101.749,0l0.355,2.473c-8.309,0.049-16.284,1.37-23.906,3.897
		c-6.368,2.136-13.503,5.546-21.407,10.272c-9.894,6.042-16.759,9.908-20.515,11.677c-8.083,3.821-16.263,6-24.566,6.504
		c9.571,0.362,18.657-0.865,27.37-3.728c6.415-2.134,13.643-5.595,21.636-10.411c8.766-5.18,15.541-8.818,20.333-10.956
		c6.884-2.975,13.905-5.209,21.135-6.687l0.357,2.454l7.834-3.951L101.749,0L101.749,0z"/>
	<polygon fill="#231F20" points="12.893,41.413 15.031,41.413 17.46,53.546 19.861,41.413 21.894,41.413 23.414,58.913 
		21.223,58.913 20.533,46.615 18.18,58.913 16.578,58.913 14.281,46.615 13.559,58.913 11.419,58.913 12.893,41.413 	"/>
	<polygon fill="#231F20" points="29.16,41.413 31.565,41.413 31.565,58.913 29.16,58.913 29.16,41.413 	"/>
	<path fill="#231F20" d="M39.762,58.913h-2.378V41.405h2.862c1.604,0,2.874,0.291,3.82,0.894c0.946,0.602,1.414,1.798,1.414,3.578
		c0,1.212-0.239,2.205-0.707,2.969c-0.475,0.768-1.333,1.241-2.575,1.443l4.166,8.624h-2.567l-3.977-8.51h-0.058V58.913
		L39.762,58.913z M39.762,49.038c0.983,0,1.778-0.132,2.396-0.415c0.609-0.276,0.924-1.011,0.946-2.21v-0.321
		c0-1.234-0.265-1.975-0.806-2.224c-0.532-0.253-1.375-0.378-2.536-0.378V49.038L39.762,49.038z"/>
	<path fill="#231F20" d="M54.616,41.405h2.217l4.057,17.508h-2.32l-0.881-3.481h-3.982l-0.827,3.481h-2.381L54.616,41.405
		L54.616,41.405z M55.739,45.928l-1.604,7.556h3.176L55.739,45.928L55.739,45.928z"/>
	<polygon fill="#231F20" points="66.875,41.413 69.094,41.413 73.746,53.546 73.746,41.413 75.934,41.413 75.934,58.913 
		73.746,58.913 69.151,46.652 69.151,58.913 66.875,58.913 66.875,41.413 	"/>
	<polygon fill="#231F20" points="84.613,43.581 81.411,43.581 81.411,41.405 90.228,41.405 90.228,43.581 86.994,43.581 
		86.994,58.913 84.613,58.913 84.613,43.581 	"/>
	<polygon fill="#231F20" points="95.017,41.413 97.419,41.413 97.419,58.913 95.017,58.913 95.017,41.413 	"/>
	<path fill="#231F20" d="M102.993,55.956c0.076,0.03,0.145,0.069,0.215,0.103c0.252,0.146,0.521,0.277,0.802,0.403
		c0.286,0.126,0.578,0.232,0.884,0.327c0.157,0.027,0.32,0.059,0.494,0.089c0.169,0.022,0.334,0.039,0.491,0.039h0.246
		c0.351-0.039,0.692-0.155,1.013-0.359c0.321-0.209,0.557-0.518,0.722-0.922c0.055-0.093,0.092-0.179,0.118-0.272
		c0.024-0.092,0.049-0.186,0.07-0.292c0-0.09,0.004-0.181,0.01-0.269c0.011-0.084,0.016-0.179,0.016-0.265
		c0-0.622-0.214-1.203-0.628-1.729c-0.419-0.522-0.887-1.008-1.411-1.456c-0.172-0.142-0.345-0.281-0.499-0.413
		c-0.158-0.135-0.323-0.263-0.484-0.395c-0.59-0.497-1.121-1.043-1.604-1.65c-0.48-0.608-0.798-1.314-0.955-2.117
		c0-0.067-0.013-0.137-0.024-0.216c-0.026-0.063-0.026-0.138-0.026-0.211c-0.022,0-0.034-0.01-0.034-0.025v-0.047
		c-0.009-0.074-0.031-0.155-0.041-0.249c-0.004-0.08-0.011-0.164-0.011-0.236c0-0.65,0.141-1.29,0.414-1.899
		c0.277-0.61,0.666-1.142,1.161-1.585c0.359-0.339,0.749-0.59,1.173-0.748c0.433-0.162,0.866-0.259,1.311-0.294h0.324
		c0.227,0,0.458,0.009,0.689,0.039c0.236,0.026,0.479,0.069,0.724,0.119c0.291,0.071,0.565,0.15,0.838,0.24
		c0.275,0.091,0.551,0.202,0.817,0.323v2.343c-0.03-0.019-0.072-0.035-0.121-0.063c-0.043-0.032-0.085-0.054-0.117-0.072
		c-0.234-0.12-0.481-0.243-0.764-0.354c-0.272-0.121-0.552-0.209-0.839-0.281c-0.16-0.041-0.323-0.069-0.481-0.097
		c-0.159-0.03-0.323-0.044-0.479-0.044h-0.071h-0.088c-0.356,0.022-0.708,0.118-1.047,0.299c-0.332,0.176-0.602,0.469-0.801,0.877
		c-0.052,0.109-0.101,0.228-0.143,0.362c-0.048,0.131-0.08,0.268-0.096,0.413c0,0.065-0.004,0.135-0.011,0.212
		c-0.01,0.069-0.016,0.142-0.016,0.211c0,0.072,0.006,0.145,0.016,0.212c0.007,0.073,0.011,0.134,0.011,0.189
		c0.016,0.142,0.048,0.279,0.096,0.42c0.042,0.13,0.091,0.254,0.143,0.376c0.289,0.553,0.646,1.028,1.097,1.431
		c0.446,0.403,0.91,0.798,1.39,1.192c0.532,0.426,1.048,0.878,1.535,1.336c0.487,0.468,0.868,1.028,1.136,1.687
		c0.072,0.16,0.12,0.34,0.162,0.548c0.034,0.207,0.062,0.406,0.076,0.604c0,0.107,0.01,0.209,0.015,0.307
		c0.013,0.096,0.018,0.2,0.018,0.309c0,0.104-0.005,0.216-0.018,0.333c-0.005,0.118-0.021,0.236-0.041,0.364
		c-0.033,0.299-0.093,0.603-0.17,0.907c-0.078,0.304-0.182,0.581-0.31,0.826c-0.395,0.802-0.947,1.368-1.659,1.702
		c-0.71,0.334-1.457,0.492-2.241,0.492c-0.157,0-0.328-0.008-0.493-0.026c-0.163-0.018-0.342-0.036-0.521-0.051
		c-0.372-0.037-0.751-0.12-1.12-0.243c-0.376-0.124-0.721-0.27-1.043-0.428v-2.433C102.863,55.884,102.93,55.916,102.993,55.956
		L102.993,55.956z"/>
	<polygon fill="#D33127" points="290,34.716 138.55,34.716 138.55,58.945 290,58.945 290,34.716 	"/>
	<path fill="#231F20" d="M142.545,18.568c0,2.261,1.407,3.963,3.815,3.963h0.148c2.407,0,3.814-1.702,3.814-3.963V7.495
		c0-2.26-1.407-3.963-3.814-3.963h-0.148c-2.408,0-3.815,1.703-3.815,3.963V18.568L142.545,18.568z M146.36,0.012h0.148
		c4.332,0,7.519,3.223,7.519,7.446v11.148c0,4.223-3.187,7.446-7.519,7.446h-0.148c-4.334,0-7.521-3.224-7.521-7.446V7.458
		C138.84,3.235,142.026,0.012,146.36,0.012L146.36,0.012z"/>
	<path fill="#231F20" d="M168.583,13.198c0-1.74-1.222-2.778-2.814-2.778h-0.297c-1.592,0-2.813,1.039-2.813,2.778v6.704
		c0,1.631,1.147,2.741,2.813,2.741h0.297c1.593,0,2.814-0.999,2.814-2.778V13.198L168.583,13.198z M172.139,19.864
		c0,3.706-2.851,6.188-6.37,6.188h-0.074c-1.074,0-2.333-0.408-3.036-1.223v7.259c0,0.963-0.816,1.704-1.778,1.704
		c-0.963,0-1.778-0.741-1.778-1.704V8.717c0-0.964,0.815-1.704,1.778-1.704c0.813,0,1.481,0.519,1.704,1.259
		c1-0.926,1.962-1.259,2.925-1.259h0.26c3.52,0,6.37,2.444,6.37,6.185V19.864L172.139,19.864z"/>
	<path fill="#231F20" d="M185.51,13.198c0-1.814-1.259-2.778-2.853-2.778h-0.072c-1.743,0-2.816,1.039-2.816,2.778v1.815h5.741
		V13.198L185.51,13.198z M189.028,16.495c0,0.925-0.777,1.704-1.777,1.704h-7.482v1.665c0,1.779,1.296,2.778,2.889,2.778h0.26
		c1.778,0,2.333-1.073,2.89-1.776c0.297-0.371,0.629-0.631,1.296-0.631c0.926,0,1.74,0.814,1.74,1.815
		c0,0.295-0.072,0.555-0.221,0.852c-1.113,2.259-3.483,3.149-5.705,3.149h-0.332c-3.705,0-6.372-2.593-6.372-6.188v-6.667
		c0-3.741,2.778-6.185,6.296-6.185h0.186c3.704,0,6.334,2.667,6.334,6.037V16.495L189.028,16.495z"/>
	<path fill="#231F20" d="M193.77,8.717c0-0.964,0.814-1.704,1.777-1.704c0.815,0,1.519,0.556,1.704,1.296
		c0.668-0.666,1.927-1.296,2.964-1.296h0.296c3.556,0,6.148,2.593,6.148,6.333v11.001c0,0.963-0.814,1.705-1.778,1.705
		c-0.963,0-1.777-0.742-1.777-1.705V13.198c0-1.482-0.925-2.778-2.667-2.778h-0.259c-2.001,0-2.853,1.482-2.853,2.778v11.149
		c0,0.963-0.814,1.705-1.778,1.705c-0.963,0-1.777-0.742-1.777-1.705V8.717L193.77,8.717z"/>
	<path fill="#231F20" d="M224.253,7.901c-1.259,0-1.704-0.666-1.815-1.444c-0.332-2.185-1.702-2.999-3.444-2.999h-0.222
		c-1.816,0-3.222,1.408-3.222,3.258c0,1.371,0.443,2.444,1.999,3.223l4.963,2.556c2.261,1.185,3.963,3.222,3.963,6.519
		c0,4.186-3.222,7.038-7.37,7.038h-0.37c-3.89,0-7.37-2.63-7.37-7.187c0-1.185,0.925-1.779,1.813-1.779
		c0.89,0,1.89,0.594,1.89,1.779c0,2.37,1.556,3.703,3.667,3.703h0.37c2.185,0,3.63-1.37,3.63-3.555c0-1.667-0.852-2.63-2.407-3.444
		l-4.852-2.52c-2.593-1.371-3.594-3.592-3.594-6.222c0-4,3.371-6.815,6.89-6.815h0.222c3.927,0,7.038,2.519,7.038,6.149
		C226.031,7.161,225.327,7.901,224.253,7.901L224.253,7.901z"/>
	<path fill="#231F20" d="M234.55,20.495c0,1.223,0.556,1.888,1.63,1.815l0.594-0.037c1.073-0.037,1.776,0.852,1.776,1.814
		c0,0.964-0.629,1.778-1.776,1.815c0,0-0.186,0.037-0.594,0.037c-3.444,0-5.186-2.37-5.186-5.371v-9.816h-1.185
		c-1,0-1.705-0.74-1.705-1.705c0-0.962,0.705-1.703,1.705-1.703h1.185v-5.63c0-0.963,0.814-1.705,1.778-1.705
		c0.963,0,1.777,0.742,1.777,1.705v5.63h2.408c1,0,1.703,0.74,1.703,1.703c0,0.964-0.703,1.705-1.666,1.705h-2.445V20.495
		L234.55,20.495z"/>
	<path fill="#231F20" d="M250.625,17.235l-2.112,0.445c-1.963,0.408-3.815,0.814-3.815,2.555v0.148c0,1.223,0.668,2.333,2.483,2.333
		h0.369c1.778,0,3.075-1.593,3.075-3.036V17.235L250.625,17.235z M254.18,21.384c0,0.556,0.297,0.927,0.816,1.185l0.369,0.186
		c0.741,0.408,0.927,0.928,0.927,1.593c0,0.852-0.741,1.705-1.741,1.705h-0.037c-1.296,0-2.444-0.742-3.001-1.668
		c-0.999,0.963-2.703,1.668-4,1.668h-0.369c-2.927,0-6.001-1.631-6.001-5.371v-0.408c0-2.073,0.925-3.407,2.222-4.26
		c1.853-1.222,4.297-1.481,6.519-1.888c0.594-0.111,0.742-0.408,0.742-0.927v-0.258c0-1.481-1.074-2.52-2.519-2.52h-0.297
		c-1.186,0-2.185,0.371-2.667,1.445c-0.297,0.742-0.963,1.075-1.556,1.075c-0.926,0-1.852-0.742-1.852-1.741
		c0-0.26,0.037-0.519,0.147-0.779c1.187-2.704,3.926-3.407,5.927-3.407h0.297c2.963,0,6.073,2.259,6.073,5.964V21.384L254.18,21.384
		z"/>
	<path fill="#231F20" d="M265.181,10.419c-1.593,0-2.704,1.039-2.704,2.778v6.667c0,1.779,1.111,2.778,2.704,2.778h0.186
		c1.853,0,2.704-1.333,2.704-2.519c0-1.11,1.037-1.667,1.778-1.667c0.889,0,1.776,0.854,1.776,1.89c0,2.333-2.147,5.705-6.259,5.705
		h-0.186c-3.443,0-6.259-2.481-6.259-6.188v-6.667c0-3.741,2.815-6.185,6.259-6.185h0.186c3.667,0,6.259,2.778,6.259,5.927
		c0,1.111-0.999,1.703-1.776,1.703c-0.778,0-1.778-0.554-1.778-1.703c0-1.224-0.963-2.52-2.704-2.52H265.181L265.181,10.419z"/>
	<path fill="#231F20" d="M289.183,23.422c0.186,0.26,0.26,0.592,0.26,0.925c0,0.926-0.777,1.705-1.853,1.705
		c-0.555,0-1.074-0.186-1.482-0.891l-4.369-7.555l-1.815,2v4.74c0,0.963-0.814,1.705-1.778,1.705c-0.963,0-1.777-0.742-1.777-1.705
		V1.716c0-0.963,0.814-1.705,1.777-1.705c0.964,0,1.778,0.742,1.778,1.705V14.42l6.001-6.814c0.406-0.408,0.814-0.593,1.297-0.593
		c0.999,0,1.813,0.777,1.813,1.778c0,0.443-0.186,0.889-0.518,1.222l-4.297,4.814L289.183,23.422L289.183,23.422z"/>
	<polygon fill="#FFFFFF" points="191.071,40.481 197.232,40.481 197.232,42.522 193.289,42.522 193.289,45.728 196.915,45.728 
		196.915,47.769 193.289,47.769 193.289,52.804 191.071,52.804 191.071,40.481 	"/>
	<path fill="#FFFFFF" d="M209.169,40.481h2.096v7.992c0,1.596-0.325,2.752-0.978,3.469c-0.651,0.715-1.551,1.074-2.701,1.074
		c-1.35,0-2.34-0.35-2.967-1.049c-0.629-0.698-0.942-1.764-0.942-3.194v-8.292h2.219v7.904c0,0.962,0.128,1.635,0.388,2.016
		c0.256,0.381,0.686,0.572,1.284,0.572c0.575,0,0.986-0.203,1.232-0.607s0.369-1.065,0.369-1.98V40.481L209.169,40.481z"/>
	<polygon fill="#FFFFFF" points="218.078,40.481 224.239,40.481 224.239,42.522 220.295,42.522 220.295,45.552 223.87,45.552 
		223.87,47.594 220.295,47.594 220.295,50.763 224.311,50.763 224.311,52.804 218.078,52.804 218.078,40.481 	"/>
	<polygon fill="#FFFFFF" points="237.478,52.804 230.929,52.804 230.929,40.481 233.146,40.481 233.146,50.763 237.478,50.763 
		237.478,52.804 	"/>
</g>
</svg>
