<?xml version="1.0" encoding="utf-8"?>
<!-- Generator: Adobe Illustrator 15.1.0, SVG Export Plug-In . SVG Version: 6.00 Build 0)  -->
<!DOCTYPE svg PUBLIC "-//W3C//DTD SVG 1.1//EN" "http://www.w3.org/Graphics/SVG/1.1/DTD/svg11.dtd">
<svg version="1.1" id="Layer_1" xmlns="http://www.w3.org/2000/svg" xmlns:xlink="http://www.w3.org/1999/xlink" x="0px" y="0px"
	 width="166px" height="60px" viewBox="0 0 166 60" enable-background="new 0 0 166 60" xml:space="preserve">
<g>
	<path d="M2.725,29.008c11.589-14.63,31.519-13.771,37.68-6.138c-3.679-2.438-9.095-4.299-13.332-3.688
		c6.683,0.835,8.81,3.922,9.835,5.37c-2.323-1.644-8.216-5.24-14.209-4.146c4.209,0.519,9.046,2.506,11.03,6.033
		c-3.39-2.509-9.062-5.71-14.449-4.473c4.642,0.63,9.307,2.619,11.393,6.463C26.92,25.799,13.375,20.349,2.725,29.008z"/>
	<path d="M70.435,25.256c-11.578,14.661-31.977,13.666-38.139,6.028c3.681,2.444,10.611,5.203,14.783,4.3
		c-6.581-1.13-10.295-4.52-11.287-5.978c2.289,1.652,8.284,5.4,14.277,4.306c-4.21-0.519-9.112-2.665-11.13-6.182
		c3.389,2.504,9.196,5.849,14.587,4.644c-4.646-0.661-9.413-2.804-11.532-6.638C45.782,28.358,59.795,33.947,70.435,25.256z"/>
	<path fill-rule="evenodd" clip-rule="evenodd" fill="#DF0C00" d="M58.863,17.433l0.196,1.364c-4.584,0.026-8.984,0.756-13.19,2.15
		c-3.513,1.179-7.45,3.06-11.811,5.667c-5.458,3.334-9.246,5.466-11.318,6.443c-4.459,2.108-8.972,3.31-13.553,3.588
		c5.28,0.2,10.293-0.478,15.1-2.057c3.54-1.178,7.527-3.087,11.938-5.744c4.836-2.857,8.574-4.865,11.218-6.045
		c3.798-1.642,7.671-2.873,11.661-3.688l0.197,1.354l4.323-2.182L58.863,17.433z"/>
	<polygon points="9.838,40.281 11.018,40.281 12.358,46.975 13.683,40.281 14.804,40.281 15.644,49.937 14.434,49.937 
		14.054,43.151 12.755,49.937 11.872,49.937 10.604,43.151 10.206,49.937 9.025,49.937 	"/>
	<rect x="18.813" y="40.281" width="1.327" height="9.655"/>
	<path d="M24.663,44.487c0.542,0,0.981-0.071,1.322-0.228c0.336-0.153,0.509-0.559,0.522-1.22v-0.178
		c0-0.681-0.146-1.089-0.445-1.227c-0.293-0.141-0.758-0.209-1.399-0.209V44.487z M24.663,49.937h-1.312v-9.66h1.579
		c0.885,0,1.586,0.161,2.107,0.492c0.522,0.333,0.78,0.993,0.78,1.976c0,0.669-0.132,1.216-0.39,1.638
		c-0.262,0.423-0.735,0.685-1.421,0.797l2.298,4.758h-1.417l-2.194-4.695h-0.032V49.937z"/>
	<path d="M33.478,42.771l-0.885,4.169h1.753L33.478,42.771z M32.858,40.276h1.223l2.239,9.66h-1.28l-0.486-1.921h-2.197L31.9,49.937
		h-1.313L32.858,40.276z"/>
	<polygon points="39.622,40.281 40.846,40.281 43.412,46.975 43.412,40.281 44.619,40.281 44.619,49.937 43.412,49.937 
		40.877,43.172 40.877,49.937 39.622,49.937 	"/>
	<polygon points="49.408,41.477 47.642,41.477 47.642,40.276 52.506,40.276 52.506,41.477 50.722,41.477 50.722,49.937 
		49.408,49.937 	"/>
	<rect x="55.148" y="40.281" width="1.325" height="9.655"/>
	<path d="M59.549,48.305c0.042,0.018,0.08,0.038,0.119,0.057c0.139,0.08,0.288,0.153,0.442,0.223
		c0.158,0.069,0.319,0.129,0.487,0.181c0.087,0.015,0.177,0.032,0.273,0.05c0.093,0.011,0.184,0.021,0.271,0.021h0.136
		c0.193-0.021,0.381-0.086,0.558-0.198c0.178-0.115,0.307-0.285,0.398-0.509c0.031-0.051,0.051-0.099,0.065-0.151
		c0.013-0.05,0.027-0.101,0.039-0.161c0-0.048,0.002-0.098,0.005-0.147c0.006-0.046,0.009-0.098,0.009-0.145
		c0-0.344-0.118-0.664-0.346-0.955c-0.231-0.288-0.489-0.557-0.778-0.804c-0.095-0.078-0.19-0.155-0.275-0.228
		c-0.088-0.074-0.179-0.146-0.268-0.218c-0.326-0.273-0.619-0.576-0.885-0.91c-0.265-0.336-0.44-0.726-0.527-1.169
		c0-0.037-0.007-0.075-0.013-0.118c-0.015-0.036-0.015-0.076-0.015-0.117c-0.012,0-0.018-0.005-0.018-0.014v-0.026
		c-0.005-0.04-0.017-0.085-0.023-0.137c-0.002-0.045-0.006-0.091-0.006-0.131c0-0.358,0.078-0.712,0.229-1.049
		c0.153-0.336,0.367-0.63,0.64-0.873c0.198-0.187,0.413-0.326,0.647-0.414c0.239-0.089,0.478-0.142,0.723-0.161h0.179
		c0.125,0,0.253,0.005,0.38,0.021c0.13,0.016,0.264,0.039,0.399,0.067c0.161,0.039,0.312,0.082,0.463,0.132
		c0.152,0.05,0.304,0.112,0.451,0.179v1.292c-0.017-0.009-0.04-0.02-0.067-0.034c-0.023-0.019-0.046-0.03-0.064-0.041
		c-0.129-0.065-0.266-0.134-0.421-0.195c-0.151-0.066-0.305-0.114-0.463-0.154c-0.088-0.023-0.178-0.039-0.266-0.054
		c-0.088-0.017-0.178-0.024-0.265-0.024h-0.039h-0.049c-0.196,0.013-0.39,0.065-0.578,0.164c-0.183,0.097-0.331,0.26-0.441,0.484
		c-0.028,0.061-0.055,0.126-0.079,0.2c-0.026,0.072-0.044,0.147-0.052,0.228c0,0.037-0.002,0.075-0.006,0.117
		c-0.005,0.038-0.008,0.078-0.008,0.116c0,0.04,0.003,0.08,0.008,0.117c0.004,0.04,0.006,0.073,0.006,0.104
		c0.008,0.078,0.026,0.154,0.052,0.231c0.023,0.072,0.05,0.141,0.079,0.208c0.16,0.305,0.357,0.566,0.605,0.789
		c0.246,0.223,0.501,0.44,0.767,0.657c0.293,0.236,0.578,0.485,0.847,0.738c0.269,0.257,0.479,0.566,0.626,0.931
		c0.04,0.087,0.067,0.188,0.09,0.302c0.019,0.114,0.034,0.224,0.042,0.333c0,0.059,0.005,0.115,0.008,0.169
		c0.007,0.053,0.009,0.11,0.009,0.17c0,0.058-0.002,0.119-0.009,0.185c-0.003,0.065-0.011,0.13-0.023,0.2
		c-0.018,0.165-0.051,0.332-0.093,0.501c-0.043,0.167-0.101,0.32-0.17,0.455c-0.218,0.443-0.522,0.756-0.916,0.939
		C62.045,49.912,61.633,50,61.201,50c-0.087,0-0.182-0.006-0.272-0.016c-0.09-0.009-0.188-0.02-0.287-0.028
		c-0.206-0.02-0.415-0.065-0.619-0.134c-0.207-0.067-0.397-0.148-0.576-0.236v-1.341C59.477,48.265,59.514,48.283,59.549,48.305z"/>
	<rect x="79.166" y="36.586" fill="#DF0C00" width="83.559" height="13.368"/>
	<path d="M83.476,17.439h0.082c2.39,0,4.148,1.778,4.148,4.107v6.15c0,2.33-1.758,4.107-4.148,4.107h-0.082
		c-2.391,0-4.148-1.777-4.148-4.107v-6.15C79.327,19.218,81.084,17.439,83.476,17.439z M81.371,27.677
		c0,1.247,0.776,2.188,2.105,2.188h0.082c1.328,0,2.105-0.94,2.105-2.188v-6.109c0-1.247-0.777-2.187-2.105-2.187h-0.082
		c-1.329,0-2.105,0.939-2.105,2.187V27.677z"/>
	<path d="M97.699,28.393c0,2.044-1.574,3.412-3.515,3.412h-0.041c-0.593,0-1.287-0.225-1.676-0.674v4.005
		c0,0.531-0.449,0.94-0.981,0.94c-0.531,0-0.98-0.409-0.98-0.94V22.241c0-0.531,0.449-0.939,0.98-0.939
		c0.45,0,0.817,0.286,0.94,0.694c0.552-0.511,1.083-0.694,1.614-0.694h0.144c1.94,0,3.515,1.349,3.515,3.412V28.393z M95.737,24.714
		c0-0.961-0.675-1.532-1.553-1.532H94.02c-0.879,0-1.553,0.571-1.553,1.532v3.699c0,0.899,0.633,1.512,1.553,1.512h0.164
		c0.878,0,1.553-0.551,1.553-1.532V24.714z"/>
	<path d="M107.016,26.533c0,0.511-0.429,0.939-0.98,0.939h-4.128v0.92c0,0.981,0.716,1.532,1.595,1.532h0.143
		c0.98,0,1.287-0.592,1.594-0.98c0.164-0.204,0.348-0.348,0.715-0.348c0.512,0,0.961,0.45,0.961,1.002
		c0,0.163-0.041,0.307-0.123,0.47c-0.613,1.246-1.92,1.736-3.146,1.736h-0.184c-2.043,0-3.516-1.43-3.516-3.412v-3.679
		c0-2.063,1.533-3.412,3.475-3.412h0.102c2.044,0,3.494,1.471,3.494,3.33V26.533z M105.076,24.714c0-1.001-0.694-1.532-1.573-1.532
		h-0.041c-0.961,0-1.554,0.571-1.554,1.532v1.001h3.168V24.714z"/>
	<path d="M109.632,22.241c0-0.531,0.45-0.939,0.981-0.939c0.449,0,0.838,0.307,0.939,0.715c0.368-0.368,1.062-0.715,1.635-0.715
		h0.164c1.961,0,3.392,1.43,3.392,3.494v6.069c0,0.531-0.449,0.939-0.98,0.939s-0.981-0.408-0.981-0.939v-6.151
		c0-0.817-0.51-1.532-1.471-1.532h-0.143c-1.104,0-1.574,0.817-1.574,1.532v6.151c0,0.531-0.449,0.939-0.98,0.939
		s-0.981-0.408-0.981-0.939V22.241z"/>
	<path d="M126.452,21.792c-0.695,0-0.941-0.368-1.002-0.797c-0.185-1.206-0.94-1.655-1.9-1.655h-0.123
		c-1.001,0-1.777,0.776-1.777,1.798c0,0.756,0.245,1.349,1.104,1.778l2.738,1.409c1.246,0.654,2.187,1.778,2.187,3.598
		c0,2.309-1.778,3.882-4.067,3.882h-0.204c-2.146,0-4.066-1.45-4.066-3.964c0-0.654,0.511-0.981,1.002-0.981
		c0.49,0,1.042,0.327,1.042,0.981c0,1.308,0.857,2.044,2.022,2.044h0.204c1.206,0,2.003-0.757,2.003-1.962
		c0-0.92-0.47-1.451-1.328-1.9l-2.677-1.391c-1.43-0.756-1.982-1.981-1.982-3.433c0-2.207,1.859-3.76,3.801-3.76h0.123
		c2.166,0,3.883,1.389,3.883,3.392C127.432,21.383,127.043,21.792,126.452,21.792z"/>
	<path d="M132.131,28.74c0,0.674,0.307,1.042,0.899,1.001l0.327-0.021c0.593-0.021,0.981,0.47,0.981,1.001s-0.349,0.981-0.981,1.002
		c0,0-0.102,0.021-0.327,0.021c-1.899,0-2.86-1.308-2.86-2.963v-5.416h-0.654c-0.551,0-0.939-0.409-0.939-0.94
		s0.389-0.939,0.939-0.939h0.654v-3.106c0-0.531,0.449-0.939,0.98-0.939s0.98,0.408,0.98,0.939v3.106h1.328
		c0.553,0,0.941,0.408,0.941,0.939s-0.389,0.94-0.92,0.94h-1.35V28.74z"/>
	<path d="M142.962,29.23c0,0.307,0.163,0.511,0.45,0.654l0.203,0.102c0.409,0.225,0.512,0.511,0.512,0.879
		c0,0.47-0.409,0.939-0.961,0.939h-0.02c-0.716,0-1.35-0.408-1.656-0.919c-0.551,0.531-1.491,0.919-2.207,0.919h-0.204
		c-1.614,0-3.311-0.898-3.311-2.962v-0.226c0-1.145,0.511-1.88,1.226-2.35c1.022-0.675,2.371-0.818,3.598-1.043
		C140.919,25.163,141,25,141,24.714V24.57c0-0.817-0.592-1.389-1.39-1.389h-0.163c-0.654,0-1.206,0.204-1.472,0.797
		c-0.163,0.408-0.531,0.592-0.858,0.592c-0.511,0-1.021-0.408-1.021-0.96c0-0.143,0.02-0.286,0.082-0.429
		c0.653-1.492,2.166-1.88,3.27-1.88h0.163c1.636,0,3.352,1.246,3.352,3.289V29.23z M141,26.941l-1.164,0.245
		c-1.084,0.225-2.105,0.449-2.105,1.41v0.082c0,0.675,0.368,1.287,1.369,1.287h0.204c0.981,0,1.696-0.878,1.696-1.675V26.941z"/>
	<path d="M149.032,23.182c-0.879,0-1.492,0.571-1.492,1.532v3.679c0,0.981,0.613,1.532,1.492,1.532h0.103
		c1.021,0,1.491-0.735,1.491-1.389c0-0.613,0.572-0.92,0.981-0.92c0.49,0,0.98,0.47,0.98,1.042c0,1.287-1.185,3.146-3.453,3.146
		h-0.103c-1.9,0-3.454-1.368-3.454-3.412v-3.679c0-2.063,1.554-3.412,3.454-3.412h0.103c2.022,0,3.453,1.532,3.453,3.269
		c0,0.613-0.552,0.94-0.98,0.94c-0.43,0-0.981-0.307-0.981-0.94c0-0.674-0.531-1.389-1.491-1.389H149.032z"/>
	<path d="M162.274,30.354c0.103,0.143,0.144,0.327,0.144,0.511c0,0.511-0.43,0.939-1.022,0.939c-0.307,0-0.593-0.102-0.817-0.49
		l-2.411-4.169l-1.001,1.104v2.615c0,0.531-0.45,0.939-0.981,0.939s-0.98-0.408-0.98-0.939V18.379c0-0.531,0.449-0.939,0.98-0.939
		s0.981,0.408,0.981,0.939v7.009l3.311-3.76c0.225-0.225,0.449-0.326,0.715-0.326c0.552,0,1.001,0.429,1.001,0.98
		c0,0.245-0.102,0.49-0.286,0.674l-2.37,2.656L162.274,30.354z"/>
	<polygon fill="#FFFFFF" points="108.144,39.767 111.543,39.767 111.543,40.894 109.368,40.894 109.368,42.661 111.369,42.661 
		111.369,43.788 109.368,43.788 109.368,46.565 108.144,46.565 	"/>
	<path fill="#FFFFFF" d="M118.129,39.767h1.155v4.41c0,0.881-0.18,1.519-0.538,1.913c-0.36,0.396-0.857,0.593-1.491,0.593
		c-0.745,0-1.291-0.192-1.638-0.578c-0.346-0.385-0.52-0.973-0.52-1.763v-4.575h1.224v4.361c0,0.531,0.071,0.902,0.214,1.112
		s0.379,0.315,0.709,0.315c0.317,0,0.545-0.111,0.68-0.335c0.137-0.224,0.205-0.588,0.205-1.093V39.767z"/>
	<polygon fill="#FFFFFF" points="123.043,39.767 126.444,39.767 126.444,40.894 124.268,40.894 124.268,42.564 126.24,42.564 
		126.24,43.69 124.268,43.69 124.268,45.439 126.483,45.439 126.483,46.565 123.043,46.565 	"/>
	<polygon fill="#FFFFFF" points="133.748,46.565 130.134,46.565 130.134,39.767 131.358,39.767 131.358,45.439 133.748,45.439 	"/>
</g>
</svg>
