<?xml version="1.0" encoding="utf-8"?>
<!-- Generator: Adobe Illustrator 15.1.0, SVG Export Plug-In . SVG Version: 6.00 Build 0)  -->
<!DOCTYPE svg PUBLIC "-//W3C//DTD SVG 1.1//EN" "http://www.w3.org/Graphics/SVG/1.1/DTD/svg11.dtd">
<svg version="1.1" id="Layer_1" xmlns="http://www.w3.org/2000/svg" xmlns:xlink="http://www.w3.org/1999/xlink" x="0px" y="0px"
	 width="166px" height="60px" viewBox="0 0 166 60" enable-background="new 0 0 166 60" xml:space="preserve">
<path d="M22.116,52.275c-0.768,0-1.543-0.047-2.309-0.141l-1.437-4.043c-0.033-0.094-0.11-0.162-0.205-0.188
	c-1.285-0.344-2.526-0.857-3.688-1.529c-0.046-0.027-0.099-0.041-0.151-0.041c-0.043,0-0.088,0.01-0.128,0.027l-3.877,1.845
	c-1.215-0.952-2.312-2.052-3.266-3.267l1.843-3.877c0.042-0.088,0.038-0.191-0.012-0.278c-0.672-1.16-1.187-2.402-1.53-3.688
	c-0.026-0.095-0.096-0.171-0.189-0.205l-4.043-1.438c-0.093-0.764-0.139-1.54-0.139-2.309c0-0.771,0.046-1.547,0.139-2.311
	L7.167,29.4c0.093-0.034,0.163-0.11,0.189-0.206c0.343-1.285,0.858-2.526,1.53-3.688c0.05-0.086,0.054-0.19,0.012-0.279
	l-1.843-3.876c0.954-1.215,2.051-2.312,3.266-3.266l3.877,1.843c0.041,0.02,0.085,0.029,0.128,0.029c0.052,0,0.104-0.013,0.151-0.04
	c1.028-0.595,2.122-1.068,3.254-1.407v9.519l-5.54,12.459c-0.151,0.341-0.121,0.729,0.083,1.045c0.203,0.312,0.547,0.5,0.92,0.5
	h17.842c0.373,0,0.717-0.188,0.92-0.5s0.234-0.704,0.083-1.045l-5.54-12.459V18.51c1.133,0.339,2.226,0.812,3.254,1.407
	c0.046,0.027,0.098,0.04,0.149,0.04c0.045,0,0.089-0.009,0.129-0.028l3.877-1.843c1.216,0.954,2.313,2.05,3.265,3.266l-1.842,3.876
	c-0.043,0.089-0.039,0.193,0.011,0.279c0.672,1.162,1.187,2.403,1.53,3.688c0.025,0.096,0.096,0.172,0.189,0.206l4.043,1.437
	c0.092,0.766,0.139,1.542,0.139,2.309c0,0.77-0.047,1.545-0.139,2.312l-4.043,1.438c-0.093,0.033-0.164,0.108-0.189,0.205
	c-0.343,1.284-0.857,2.525-1.53,3.688c-0.05,0.086-0.055,0.188-0.011,0.277l1.842,3.877c-0.952,1.217-2.049,2.312-3.265,3.268
	l-3.877-1.844c-0.041-0.021-0.084-0.028-0.129-0.028c-0.051,0-0.103,0.017-0.149,0.041c-1.162,0.672-2.402,1.188-3.688,1.528
	c-0.095,0.023-0.172,0.098-0.205,0.188l-1.437,4.043C23.659,52.229,22.883,52.275,22.116,52.275z"/>
<circle fill="#C63926" cx="20.494" cy="13.616" r="2.729"/>
<polygon fill="#C63926" points="25.402,28.261 25.402,18.468 18.83,18.468 18.83,28.261 13.195,40.936 31.037,40.936 "/>
<circle fill="#C63926" cx="25.57" cy="10.546" r="1.769"/>
<circle fill="#C63926" cx="21.605" cy="6.316" r="1.316"/>
<g>
	<g>
		<path d="M47.02,45.236h0.849V44.84c0-0.869,0.125-1.507,0.375-1.896c0.254-0.391,0.682-0.582,1.285-0.582
			c0.242,0,0.461,0.015,0.657,0.041c0.195,0.025,0.396,0.09,0.597,0.185l-0.249,0.862c-0.167-0.073-0.323-0.123-0.466-0.146
			c-0.145-0.023-0.28-0.037-0.412-0.037c-0.188,0-0.332,0.037-0.432,0.107c-0.104,0.072-0.181,0.193-0.231,0.352
			c-0.054,0.16-0.085,0.357-0.099,0.605s-0.021,0.545-0.021,0.902h1.451v0.906h-1.451v6.063h-1.004v-6.063H47.02V45.236z"/>
		<path d="M50.912,48.723c0-1.26,0.215-2.177,0.647-2.771c0.431-0.591,1.046-0.888,1.85-0.888c0.854,0,1.485,0.305,1.889,0.912
			c0.403,0.599,0.608,1.521,0.608,2.744c0,1.268-0.22,2.188-0.655,2.775c-0.44,0.586-1.054,0.876-1.842,0.876
			c-0.857,0-1.486-0.304-1.891-0.905C51.113,50.863,50.912,49.951,50.912,48.723z M51.958,48.723c0,0.408,0.026,0.779,0.075,1.113
			c0.054,0.338,0.136,0.624,0.254,0.866c0.114,0.239,0.265,0.431,0.452,0.562c0.186,0.139,0.408,0.207,0.67,0.207
			c0.479,0,0.844-0.219,1.087-0.646c0.242-0.436,0.361-1.131,0.361-2.102c0-0.402-0.024-0.769-0.078-1.111
			c-0.05-0.338-0.132-0.627-0.25-0.868c-0.115-0.238-0.266-0.427-0.452-0.565c-0.189-0.132-0.408-0.195-0.669-0.195
			c-0.475,0-0.833,0.219-1.083,0.649C52.078,47.066,51.958,47.764,51.958,48.723z"/>
		<path d="M57.172,45.236h0.71l0.18,0.74h0.044c0.129-0.271,0.301-0.482,0.51-0.643c0.206-0.146,0.459-0.229,0.758-0.229
			c0.214,0,0.454,0.041,0.724,0.127l-0.196,1.014c-0.241-0.082-0.455-0.124-0.64-0.124c-0.299,0-0.538,0.091-0.726,0.26
			c-0.184,0.177-0.306,0.4-0.362,0.693v5.131h-1.003L57.172,45.236L57.172,45.236z"/>
		<path d="M63.729,47.326c0-1.654,0.267-2.91,0.793-3.764c0.531-0.854,1.338-1.285,2.432-1.285c0.586,0,1.084,0.117,1.488,0.354
			c0.41,0.239,0.74,0.577,0.996,1.014c0.256,0.438,0.442,0.971,0.565,1.592c0.119,0.621,0.183,1.318,0.183,2.09
			c0,1.656-0.269,2.914-0.804,3.77c-0.534,0.854-1.347,1.279-2.432,1.279c-0.578,0-1.069-0.116-1.481-0.355
			c-0.408-0.232-0.74-0.574-1.003-1.006c-0.26-0.439-0.448-0.972-0.563-1.595C63.782,48.801,63.729,48.094,63.729,47.326z
			 M64.829,47.326c0,0.55,0.037,1.068,0.119,1.561c0.077,0.496,0.198,0.93,0.37,1.301c0.162,0.371,0.387,0.668,0.654,0.894
			c0.271,0.229,0.592,0.335,0.978,0.335c0.696,0,1.226-0.335,1.59-1.003c0.358-0.677,0.544-1.701,0.544-3.084
			c0-0.541-0.043-1.06-0.121-1.55c-0.078-0.489-0.201-0.928-0.367-1.305c-0.17-0.375-0.388-0.678-0.656-0.896
			c-0.271-0.228-0.601-0.339-0.986-0.339c-0.688,0-1.219,0.339-1.576,1.003C65.012,44.916,64.829,45.939,64.829,47.326z"/>
		<path d="M71.589,45.236h0.708l0.159,0.748h0.052c0.35-0.61,0.889-0.92,1.621-0.92c0.734,0,1.284,0.272,1.65,0.826
			c0.371,0.549,0.554,1.441,0.554,2.688c0,0.59-0.063,1.11-0.183,1.584c-0.118,0.472-0.291,0.864-0.521,1.194
			c-0.219,0.33-0.49,0.586-0.812,0.759c-0.317,0.168-0.674,0.256-1.064,0.256c-0.27,0-0.484-0.019-0.643-0.046
			c-0.158-0.032-0.33-0.104-0.52-0.202V55h-1.004L71.589,45.236L71.589,45.236z M72.593,51.104c0.13,0.115,0.276,0.203,0.441,0.271
			c0.161,0.062,0.379,0.1,0.647,0.1c0.49,0,0.881-0.25,1.17-0.757c0.287-0.499,0.432-1.213,0.432-2.144
			c0-0.396-0.021-0.75-0.075-1.068c-0.052-0.312-0.132-0.586-0.24-0.812c-0.116-0.229-0.254-0.398-0.43-0.526
			c-0.171-0.128-0.386-0.188-0.634-0.188c-0.68,0-1.114,0.407-1.312,1.237L72.593,51.104L72.593,51.104z"/>
		<path d="M81.82,51.734c-0.223,0.201-0.508,0.357-0.854,0.475c-0.342,0.107-0.701,0.166-1.087,0.166
			c-0.438,0-0.815-0.088-1.135-0.256c-0.322-0.17-0.587-0.418-0.796-0.739c-0.211-0.321-0.364-0.706-0.465-1.151
			c-0.098-0.442-0.143-0.949-0.143-1.506c0-1.188,0.219-2.094,0.653-2.722c0.438-0.618,1.054-0.937,1.853-0.937
			c0.266,0,0.521,0.033,0.776,0.1c0.256,0.064,0.485,0.197,0.69,0.389c0.203,0.201,0.367,0.473,0.496,0.824
			C81.938,46.73,82,47.189,82,47.759c0,0.158-0.003,0.332-0.02,0.513c-0.018,0.181-0.031,0.367-0.049,0.562h-3.543
			c0,0.4,0.027,0.766,0.096,1.09c0.063,0.321,0.17,0.6,0.31,0.826c0.138,0.229,0.317,0.408,0.535,0.531
			c0.22,0.123,0.489,0.189,0.817,0.189c0.252,0,0.498-0.052,0.744-0.143c0.246-0.094,0.438-0.202,0.562-0.334L81.82,51.734z
			 M81.04,48c0.021-0.703-0.08-1.215-0.29-1.537c-0.216-0.324-0.508-0.486-0.88-0.486c-0.433,0-0.771,0.162-1.021,0.486
			c-0.252,0.322-0.397,0.834-0.447,1.537H81.04z"/>
		<path d="M86.823,52.209v-4.25c0-0.703-0.078-1.206-0.242-1.52c-0.162-0.312-0.453-0.463-0.871-0.463
			c-0.373,0-0.682,0.104-0.922,0.33c-0.242,0.228-0.42,0.5-0.525,0.822v5.077h-1.01v-6.974h0.727l0.186,0.738h0.039
			c0.18-0.252,0.418-0.467,0.719-0.644c0.303-0.179,0.664-0.269,1.08-0.269c0.301,0,0.562,0.045,0.789,0.127
			c0.23,0.086,0.416,0.224,0.57,0.426c0.154,0.201,0.271,0.467,0.354,0.806c0.076,0.335,0.115,0.757,0.115,1.263v4.523h-1.006
			L86.823,52.209L86.823,52.209z"/>
		<path d="M89.327,50.91c0.174,0.123,0.426,0.234,0.744,0.342c0.322,0.107,0.684,0.161,1.094,0.161c0.52,0,0.945-0.124,1.271-0.38
			c0.326-0.26,0.488-0.655,0.488-1.215c0-0.357-0.096-0.672-0.279-0.943c-0.188-0.27-0.42-0.518-0.693-0.748
			c-0.283-0.223-0.584-0.449-0.902-0.664c-0.318-0.223-0.617-0.463-0.896-0.73c-0.277-0.26-0.51-0.562-0.697-0.912
			c-0.188-0.348-0.277-0.76-0.277-1.239c0-0.781,0.234-1.354,0.703-1.731c0.467-0.383,1.082-0.566,1.834-0.566
			c0.465,0,0.879,0.047,1.24,0.129c0.363,0.082,0.656,0.189,0.881,0.318l-0.34,0.92c-0.164-0.104-0.402-0.194-0.715-0.281
			c-0.312-0.077-0.672-0.123-1.08-0.123c-0.502,0-0.875,0.123-1.117,0.371c-0.238,0.244-0.359,0.557-0.359,0.929
			c0,0.326,0.092,0.61,0.275,0.862c0.188,0.252,0.422,0.488,0.699,0.711s0.578,0.449,0.9,0.677c0.314,0.228,0.615,0.483,0.895,0.759
			c0.283,0.281,0.514,0.6,0.697,0.949c0.188,0.352,0.281,0.768,0.281,1.256c0,0.816-0.242,1.457-0.729,1.924
			c-0.48,0.467-1.17,0.697-2.051,0.697c-0.561,0-1.014-0.05-1.375-0.152c-0.354-0.101-0.643-0.22-0.855-0.348L89.327,50.91z"/>
		<path d="M94.397,45.236h0.85v-1.381l1.006-0.318v1.699h1.504v0.906h-1.504v4.152c0,0.408,0.049,0.706,0.146,0.887
			c0.096,0.182,0.256,0.271,0.479,0.271c0.186,0,0.348-0.021,0.479-0.062c0.139-0.041,0.281-0.102,0.438-0.16l0.195,0.797
			c-0.201,0.099-0.432,0.181-0.678,0.246c-0.244,0.06-0.502,0.084-0.771,0.084c-0.467,0-0.803-0.149-1.004-0.451
			c-0.195-0.301-0.297-0.793-0.297-1.473v-4.293h-0.852v-0.904H94.397z"/>
		<path d="M98.975,45.654c0.27-0.168,0.594-0.297,0.98-0.395c0.387-0.095,0.797-0.141,1.223-0.141c0.391,0,0.701,0.062,0.943,0.174
			c0.234,0.119,0.42,0.28,0.555,0.477c0.135,0.203,0.225,0.43,0.268,0.683c0.043,0.259,0.062,0.526,0.062,0.804
			c0,0.559-0.01,1.104-0.031,1.631c-0.027,0.532-0.037,1.036-0.037,1.512c0,0.354,0.01,0.683,0.037,0.981
			c0.021,0.302,0.066,0.586,0.131,0.854h-0.783l-0.246-0.821h-0.057c-0.141,0.243-0.338,0.454-0.605,0.631
			c-0.268,0.179-0.627,0.261-1.082,0.261c-0.498,0-0.904-0.174-1.223-0.521c-0.322-0.351-0.48-0.829-0.48-1.444
			c0-0.4,0.064-0.734,0.199-1.003c0.133-0.272,0.324-0.491,0.566-0.657c0.248-0.164,0.537-0.287,0.871-0.354
			c0.336-0.07,0.717-0.104,1.129-0.104c0.092,0,0.186,0,0.273,0c0.096,0,0.189,0.004,0.289,0.008
			c0.029-0.283,0.043-0.545,0.043-0.77c0-0.525-0.076-0.898-0.234-1.107c-0.154-0.215-0.439-0.322-0.855-0.322
			c-0.256,0-0.541,0.041-0.842,0.119c-0.303,0.074-0.561,0.179-0.756,0.303L98.975,45.654z M101.971,49.031
			c-0.094-0.014-0.182-0.021-0.271-0.025c-0.094-0.004-0.184-0.009-0.275-0.009c-0.223,0-0.438,0.021-0.646,0.06
			c-0.215,0.037-0.398,0.104-0.566,0.198c-0.162,0.095-0.295,0.214-0.391,0.371c-0.098,0.161-0.146,0.362-0.146,0.603
			c0,0.367,0.092,0.66,0.268,0.867c0.182,0.197,0.414,0.307,0.697,0.307c0.387,0,0.686-0.096,0.893-0.279
			c0.217-0.188,0.361-0.391,0.443-0.607v-1.48h-0.004V49.031L101.971,49.031z"/>
		<path d="M108.37,51.857c-0.23,0.174-0.496,0.311-0.793,0.394c-0.299,0.083-0.611,0.124-0.939,0.124
			c-0.441,0-0.818-0.088-1.125-0.256c-0.309-0.17-0.557-0.418-0.748-0.739c-0.189-0.321-0.332-0.71-0.418-1.155
			c-0.09-0.455-0.135-0.959-0.135-1.502c0-1.188,0.213-2.094,0.639-2.722c0.422-0.618,1.027-0.937,1.818-0.937
			c0.363,0,0.676,0.033,0.932,0.1c0.26,0.064,0.486,0.15,0.672,0.251l-0.277,0.879c-0.371-0.213-0.777-0.317-1.211-0.317
			c-0.504,0-0.887,0.219-1.141,0.662c-0.254,0.439-0.387,1.139-0.387,2.084c0,0.385,0.031,0.738,0.086,1.072
			c0.059,0.34,0.146,0.623,0.279,0.871c0.129,0.251,0.297,0.445,0.5,0.586c0.209,0.148,0.463,0.219,0.77,0.219
			c0.242,0,0.469-0.041,0.676-0.125c0.211-0.082,0.383-0.186,0.514-0.291L108.37,51.857z"/>
		<path d="M110.958,49.072h-0.529v3.137h-1.006v-9.762h1.006v5.943l0.459-0.203l1.631-2.951h1.156l-1.645,2.814l-0.486,0.444
			l0.572,0.542l1.799,3.169h-1.201L110.958,49.072z"/>
	</g>
	<g>
		<path d="M114.463,43.748c0-0.206,0.033-0.389,0.104-0.548c0.066-0.153,0.158-0.286,0.275-0.397
			c0.115-0.111,0.248-0.188,0.406-0.246c0.15-0.056,0.314-0.084,0.486-0.084c0.178,0,0.348,0.028,0.504,0.084
			c0.152,0.059,0.289,0.135,0.404,0.246c0.109,0.111,0.203,0.244,0.27,0.397c0.062,0.159,0.102,0.342,0.102,0.548
			c0,0.202-0.035,0.393-0.105,0.549c-0.07,0.157-0.162,0.293-0.277,0.4c-0.115,0.111-0.248,0.188-0.4,0.246
			c-0.154,0.055-0.32,0.084-0.496,0.084c-0.178,0-0.352-0.029-0.498-0.084c-0.154-0.059-0.287-0.135-0.4-0.246
			c-0.111-0.107-0.209-0.243-0.271-0.4C114.497,44.141,114.463,43.95,114.463,43.748z M114.77,43.748
			c0,0.165,0.027,0.312,0.076,0.434c0.055,0.123,0.123,0.23,0.209,0.312c0.09,0.084,0.191,0.146,0.307,0.189
			c0.115,0.037,0.242,0.06,0.373,0.06c0.145,0,0.271-0.021,0.391-0.06c0.117-0.045,0.223-0.105,0.309-0.188
			c0.086-0.083,0.152-0.188,0.199-0.312c0.055-0.123,0.074-0.271,0.074-0.438c0-0.166-0.021-0.308-0.076-0.437
			c-0.049-0.119-0.121-0.224-0.207-0.305c-0.088-0.087-0.188-0.148-0.312-0.189c-0.115-0.039-0.24-0.059-0.377-0.059
			s-0.268,0.02-0.389,0.059c-0.115,0.041-0.217,0.104-0.305,0.189c-0.088,0.081-0.154,0.186-0.199,0.305
			C114.793,43.441,114.77,43.582,114.77,43.748z M115.239,43.125c0.051-0.014,0.125-0.023,0.221-0.037
			c0.096-0.009,0.18-0.014,0.266-0.014c0.131,0,0.246,0.029,0.346,0.082c0.098,0.059,0.146,0.158,0.146,0.294
			c0,0.104-0.031,0.183-0.096,0.235c-0.064,0.058-0.146,0.086-0.248,0.096l0.139,0.062l0.354,0.531h-0.293l-0.342-0.503
			l-0.236-0.075v0.578h-0.25v-1.25L115.239,43.125L115.239,43.125z M115.668,43.294c-0.035,0-0.064,0-0.1,0
			c-0.033,0-0.062,0.013-0.08,0.021v0.346h0.168c0.195,0,0.291-0.062,0.291-0.194C115.948,43.348,115.854,43.294,115.668,43.294z"/>
	</g>
</g>
<g>
	<path fill="#C63926" d="M59.333,18.143c0.725,0.117,1.146,0.539,1.264,1.264v1.528c-0.118,0.783-0.549,1.195-1.293,1.233h-6.996
		c-0.392,0.039-0.607,0.256-0.646,0.647v3.791c0.039,0.392,0.254,0.598,0.646,0.617h4.438c0.724,0.098,1.126,0.499,1.205,1.204
		v1.587c-0.078,0.765-0.49,1.157-1.234,1.175h-4.409c-0.392,0.059-0.607,0.285-0.646,0.676v3.263v3.819
		c-0.059,0.746-0.461,1.158-1.206,1.236h-1.498c-0.706-0.039-1.098-0.402-1.176-1.088V35.13v-0.382V20.759v-1.382
		c0.02-0.685,0.363-1.097,1.028-1.234H59.333z"/>
	<path fill="#C63926" d="M76.867,18.172c0.646,0.118,1.046,0.501,1.203,1.147v14.842c-0.059,1.077-0.354,2.086-0.881,3.026
		c-1.313,2.117-3.174,3.174-5.586,3.174c-2.408,0-4.271-1.057-5.582-3.174c-0.549-0.94-0.824-1.949-0.824-3.026V19.319
		c0.099-0.666,0.49-1.048,1.178-1.147h1.527c0.744,0.118,1.146,0.54,1.205,1.264c0,4.918,0.011,9.826,0.029,14.725
		c0.059,1.508,0.858,2.291,2.406,2.351c1.605,0,2.46-0.771,2.561-2.322c0-4.896,0.01-9.813,0.026-14.75
		c0.062-0.725,0.46-1.146,1.206-1.264L76.867,18.172L76.867,18.172z"/>
	<path fill="#C63926" d="M87.713,22.169c-0.373,0.059-0.576,0.264-0.615,0.618v3.967c0.061,0.353,0.264,0.549,0.615,0.588h4.438
		c0.746,0.059,1.158,0.462,1.236,1.206v1.528c-0.078,0.765-0.5,1.167-1.266,1.205h-4.408c-0.354,0.039-0.559,0.234-0.615,0.587
		v3.763c0.039,0.393,0.242,0.598,0.615,0.617h7.084c0.703,0.1,1.125,0.509,1.264,1.232v1.527c-0.139,0.744-0.578,1.139-1.32,1.178
		H84.393c-0.726-0.021-1.118-0.401-1.177-1.146v-1.381v-16.9v-1.352c0.021-0.686,0.373-1.107,1.06-1.264h10.521
		c0.703,0.137,1.125,0.559,1.264,1.264v1.557c-0.139,0.745-0.578,1.145-1.322,1.205L87.713,22.169L87.713,22.169z"/>
	<path fill="#C63926" d="M112.657,40.186h-10.521c-0.686-0.098-1.059-0.5-1.117-1.205v-1.319V19.32c0.1-0.686,0.5-1.068,1.205-1.147
		h1.527c0.764,0.079,1.176,0.49,1.234,1.235v3.908V35.6c0.039,0.373,0.246,0.58,0.617,0.619h7.021
		c0.729,0.077,1.146,0.487,1.266,1.231v1.528C113.774,39.725,113.362,40.125,112.657,40.186z"/>
</g>
</svg>
