<?xml version="1.0" encoding="utf-8"?>
<!-- Generator: Adobe Illustrator 16.0.0, SVG Export Plug-In . SVG Version: 6.00 Build 0)  -->
<!DOCTYPE svg PUBLIC "-//W3C//DTD SVG 1.1//EN" "http://www.w3.org/Graphics/SVG/1.1/DTD/svg11.dtd">
<svg version="1.1" xmlns="http://www.w3.org/2000/svg" xmlns:xlink="http://www.w3.org/1999/xlink" x="0px" y="0px" width="50px"
	 height="50px" viewBox="0 0 50 50" enable-background="new 0 0 50 50" xml:space="preserve">
<g id="Layer_3" display="none">
	<rect display="inline" fill="#6B2000" width="50" height="50"/>
</g>
<g id="Layer_1" display="none">
	<g display="inline" opacity="0.35">
		<path fill="#FFFFFF" d="M24.535,11c0.311,0,0.62,0,0.93,0c4.523,0.256,7.749,1.979,10.141,4.393
			c2.394,2.415,4.158,5.6,4.396,10.156c0,0.301,0,0.602,0,0.902c-0.229,4.63-2.027,7.685-4.396,10.171
			c-2.484,2.36-5.541,4.149-10.153,4.378c-0.306,0-0.61,0-0.915,0c-4.523-0.257-7.748-1.979-10.14-4.393
			c-2.392-2.416-4.159-5.602-4.396-10.156c0-0.301,0-0.602,0-0.902c0.012-0.004,0.018-0.013,0.016-0.029
			c0.226-4.54,2.003-7.756,4.38-10.141C16.783,12.983,20.041,11.248,24.535,11z M21.595,13.152c-0.892,0.238-1.69,0.542-2.415,0.902
			c-2.205,1.093-4.022,2.657-5.295,4.664c-1.24,1.957-2.315,4.476-2.16,7.777c0.099,2.082,0.572,3.834,1.32,5.325
			c1.478,2.947,3.727,5.121,6.841,6.438c1.538,0.653,3.446,1.111,5.595,1.009c2.061-0.1,3.846-0.562,5.324-1.31
			c2.899-1.463,5.187-3.718,6.451-6.83c0.641-1.573,1.124-3.396,1.02-5.599c-0.196-4.173-1.892-7.003-4.125-9.161
			c-1.104-1.068-2.437-1.977-4.004-2.633c-1.521-0.637-3.504-1.109-5.625-1.008C23.478,12.779,22.493,12.91,21.595,13.152z"/>
		<path fill="#FFFFFF" d="M23.62,22.104c0.476,0.315,0.962,0.62,1.41,0.963c-1.013,0.639-2.007,1.297-3.015,1.94
			c0.152,0.118,0.326,0.214,0.479,0.331c1.017-0.646,2.033-1.291,3.046-1.941c0.453,0.282,0.899,0.571,1.319,0.889
			c-1.017,0.643-1.995,1.319-3,1.971c0.148,0.121,0.332,0.209,0.495,0.316c1.039-0.64,2.053-1.303,3.074-1.957
			c0-0.711,0-1.424,0-2.136c0.75,0,1.5,0,2.25,0c0,1.419,0,2.839,0,4.258c0.637,0.033,1.336,0.005,1.996,0.015
			c0,0.668,0,1.334,0,2.001c-1.416,0-2.83,0-4.246,0c0-0.677,0-1.354,0-2.029c-1.246,0.76-2.525,1.618-3.779,2.422
			c-1.307-0.852-2.566-1.75-3.87-2.604c-0.378,1.201-1.275,2.104-2.76,2.212c-0.927,0.065-1.979-0.05-3.045,0
			c0-2.091,0-4.183,0-6.273c1.333,0.089,2.797-0.179,3.854,0.149c0.935,0.292,1.598,1.041,1.905,1.973
			C21.041,23.778,22.324,22.936,23.62,22.104z M16.12,24.496c0,0.752,0,1.504,0,2.256c0.536,0.003,0.943,0.034,1.26-0.211
			c0.471-0.363,0.565-1.265,0.15-1.744c-0.277-0.321-0.746-0.389-1.396-0.347C16.118,24.453,16.119,24.475,16.12,24.496z"/>
		<path fill="#FFFFFF" d="M32.261,22.479c0.75,0,1.5,0,2.25,0c0,1.425,0,2.849,0,4.272c0.659,0,1.319,0,1.979,0
			c0,0.668,0,1.334,0,2.001c-1.415,0-2.83,0-4.245,0c0-2.075,0-4.151,0-6.229C32.244,22.504,32.243,22.482,32.261,22.479z"/>
	</g>
	<g display="inline">
		<path fill="#8C8C94" d="M24.535,10c0.311,0,0.62,0,0.93,0c4.523,0.256,7.749,1.979,10.141,4.393
			c2.394,2.415,4.158,5.6,4.396,10.156c0,0.301,0,0.602,0,0.902c-0.229,4.63-2.027,7.685-4.396,10.171
			c-2.484,2.36-5.541,4.149-10.153,4.378c-0.306,0-0.61,0-0.915,0c-4.523-0.257-7.748-1.979-10.14-4.393
			c-2.392-2.416-4.159-5.602-4.396-10.156c0-0.301,0-0.602,0-0.902c0.012-0.004,0.018-0.013,0.016-0.03
			c0.226-4.539,2.003-7.757,4.38-10.14C16.783,11.983,20.041,10.248,24.535,10z M21.595,12.152c-0.892,0.238-1.69,0.542-2.415,0.902
			c-2.205,1.093-4.022,2.657-5.295,4.664c-1.24,1.957-2.315,4.476-2.16,7.777c0.099,2.082,0.572,3.834,1.32,5.325
			c1.478,2.947,3.727,5.121,6.841,6.438c1.538,0.653,3.446,1.111,5.595,1.009c2.061-0.1,3.846-0.562,5.324-1.31
			c2.899-1.463,5.187-3.718,6.451-6.83c0.641-1.573,1.124-3.396,1.02-5.598c-0.196-4.174-1.892-7.004-4.125-9.162
			c-1.104-1.068-2.437-1.977-4.004-2.633c-1.521-0.637-3.504-1.109-5.625-1.008C23.478,11.779,22.493,11.91,21.595,12.152z"/>
		<path fill="#8C8C94" d="M23.62,21.104c0.476,0.315,0.962,0.62,1.41,0.963c-1.013,0.639-2.007,1.297-3.015,1.94
			c0.152,0.118,0.326,0.214,0.479,0.331c1.017-0.646,2.033-1.291,3.046-1.941c0.453,0.282,0.899,0.571,1.319,0.889
			c-1.017,0.643-1.995,1.319-3,1.971c0.148,0.121,0.332,0.209,0.495,0.316c1.039-0.639,2.053-1.303,3.074-1.957
			c0-0.711,0-1.424,0-2.136c0.75,0,1.5,0,2.25,0c0,1.419,0,2.839,0,4.258c0.637,0.033,1.336,0.005,1.996,0.015
			c0,0.668,0,1.334,0,2.001c-1.416,0-2.83,0-4.246,0c0-0.677,0-1.354,0-2.029c-1.246,0.76-2.525,1.618-3.779,2.422
			c-1.307-0.852-2.566-1.75-3.87-2.604c-0.378,1.201-1.275,2.104-2.76,2.212c-0.927,0.065-1.979-0.05-3.045,0
			c0-2.091,0-4.183,0-6.273c1.333,0.089,2.797-0.179,3.854,0.149c0.935,0.292,1.598,1.041,1.905,1.973
			C21.041,22.778,22.324,21.936,23.62,21.104z M16.12,23.496c0,0.752,0,1.504,0,2.256c0.536,0.003,0.943,0.034,1.26-0.211
			c0.471-0.363,0.565-1.265,0.15-1.744c-0.277-0.321-0.746-0.389-1.396-0.347C16.118,23.453,16.119,23.475,16.12,23.496z"/>
		<path fill="#8C8C94" d="M32.261,21.479c0.75,0,1.5,0,2.25,0c0,1.425,0,2.849,0,4.272c0.659,0,1.319,0,1.979,0
			c0,0.668,0,1.334,0,2.001c-1.415,0-2.83,0-4.245,0c0-2.075,0-4.151,0-6.229C32.244,21.504,32.243,21.482,32.261,21.479z"/>
	</g>
</g>
<g id="Layer_2" display="none">
	<g display="inline" opacity="0.35">
		<path fill="#FFFFFF" d="M37.562,16.313l-12.081-5.229C25.35,11.028,25.178,11,25.006,11c-0.005,0-0.011,0-0.016,0
			s-0.011,0-0.017,0c-0.176,0-0.351,0.029-0.483,0.088l-4.673,2.058l-7.41,3.262c-0.14,0.062-0.26,0.182-0.34,0.324l0.025,0.015
			c-0.065,0.122-0.1,0.259-0.09,0.386l1,12.581c0.023,0.283,0.228,0.656,0.457,0.828l4.367,3.286c0,0.004,0,0.009,0,0.013
			c0,0.119,0.004,0.236,0.012,0.354c-0.008,0.118-0.012,0.235-0.012,0.354c0,3.562,3.286,6.451,7.339,6.451
			c4.052,0,7.337-2.889,7.337-6.451c0-0.119-0.003-0.236-0.011-0.354c0.008-0.118,0.011-0.235,0.011-0.354
			c0-0.033,0-0.064-0.001-0.098c-0.059,3.519-3.319,6.354-7.336,6.354c-3.983,0-7.224-2.789-7.335-6.266l6.754,5.082
			c0.114,0.086,0.265,0.129,0.416,0.129c0.152,0,0.303-0.043,0.417-0.129l11.093-8.371c0.229-0.172,0.435-0.545,0.457-0.828
			l1.031-12.678C38.021,16.752,37.823,16.428,37.562,16.313z M24.975,12.994l8.994,3.893l-8.941,5.336l-8.909-5.33L24.975,12.994z
			 M35.666,29.549c-0.001,0.002-0.001,0.004-0.003,0.006l-10.664,8.047l-10.694-8.048c0-0.001-0.001-0.002-0.002-0.003
			l-0.958-12.054l0.656,0.392l10.577,6.33c0.123,0.074,0.285,0.111,0.448,0.111c0.163,0,0.325-0.037,0.448-0.11l10.441-6.232
			l0.725-0.433L35.666,29.549z"/>
		<path fill="#FFFFFF" d="M35.427,19.699l-9.035,5.533c-0.122,0.075-0.223,0.252-0.223,0.395l-0.021,9.267
			c0,0.142,0.096,0.188,0.21,0.104l8.425-6.123c0.116-0.084,0.22-0.269,0.229-0.41l0.619-8.645
			C35.641,19.679,35.548,19.624,35.427,19.699z"/>
		<path fill="#FFFFFF" d="M23.676,25.274L14.642,19.7c-0.124-0.075-0.215-0.021-0.206,0.12l0.577,8.666
			c0.009,0.142,0.112,0.326,0.229,0.411l8.489,6.208c0.115,0.084,0.211,0.037,0.21-0.104l-0.042-9.332
			C23.898,25.527,23.797,25.35,23.676,25.274z"/>
	</g>
	<g display="inline">
		<path fill="#8C8C94" d="M37.562,15.313l-12.081-5.229C25.35,10.028,25.178,10,25.006,10c-0.005,0-0.011,0-0.016,0
			s-0.011,0-0.017,0c-0.176,0-0.351,0.029-0.483,0.088l-4.673,2.058l-7.41,3.262c-0.14,0.062-0.26,0.182-0.34,0.324l0.025,0.015
			c-0.065,0.122-0.1,0.259-0.09,0.386l1,12.581c0.023,0.283,0.228,0.656,0.457,0.828l4.367,3.286c0,0.004,0,0.009,0,0.013
			c0,0.119,0.004,0.236,0.012,0.354c-0.008,0.118-0.012,0.235-0.012,0.354c0,3.562,3.286,6.451,7.339,6.451
			c4.052,0,7.337-2.889,7.337-6.451c0-0.119-0.003-0.236-0.011-0.354c0.008-0.118,0.011-0.235,0.011-0.354
			c0-0.033,0-0.064-0.001-0.098c-0.059,3.519-3.319,6.354-7.336,6.354c-3.983,0-7.224-2.789-7.335-6.266l6.754,5.082
			c0.114,0.086,0.265,0.129,0.416,0.129c0.152,0,0.303-0.043,0.417-0.129l11.093-8.371c0.229-0.172,0.435-0.545,0.457-0.828
			l1.031-12.678C38.021,15.752,37.823,15.428,37.562,15.313z M24.975,11.994l8.994,3.893l-8.941,5.336l-8.909-5.33L24.975,11.994z
			 M35.666,28.549c-0.001,0.002-0.001,0.004-0.003,0.006l-10.664,8.047l-10.694-8.048c0-0.001-0.001-0.002-0.002-0.003
			l-0.958-12.054l0.656,0.392l10.577,6.33c0.123,0.074,0.285,0.111,0.448,0.111c0.163,0,0.325-0.037,0.448-0.11l10.441-6.232
			l0.725-0.433L35.666,28.549z"/>
		<path fill="#8C8C94" d="M35.427,18.699l-9.035,5.533c-0.122,0.075-0.223,0.252-0.223,0.395l-0.021,9.267
			c0,0.142,0.096,0.188,0.21,0.104l8.425-6.123c0.116-0.084,0.22-0.269,0.229-0.41l0.619-8.645
			C35.641,18.679,35.548,18.624,35.427,18.699z"/>
		<path fill="#8C8C94" d="M23.676,24.274L14.642,18.7c-0.124-0.075-0.215-0.021-0.206,0.12l0.577,8.666
			c0.009,0.142,0.112,0.326,0.229,0.411l8.489,6.208c0.115,0.084,0.211,0.037,0.21-0.104l-0.042-9.332
			C23.898,24.527,23.797,24.35,23.676,24.274z"/>
	</g>
</g>
<g id="Layer_4" display="none">
	<g display="inline" opacity="0.35">
		<rect x="18.484" y="28.602" fill="#FFFFFF" width="1.316" height="5.213"/>
		<path fill="#FFFFFF" d="M30.407,30.095c-0.054-0.028-0.478-0.279-1.107-0.279c-0.849,0-1.44,0.593-1.44,1.39
			c0,0.776,0.566,1.393,1.44,1.393c0.618,0,1.051-0.244,1.107-0.276v1.399c-0.167,0.047-0.614,0.185-1.2,0.185
			c-1.479,0-2.775-1.02-2.775-2.7c0-1.556,1.174-2.697,2.775-2.697c0.62,0,1.076,0.15,1.2,0.188V30.095z"/>
		<path fill="#FFFFFF" d="M16.677,30.095c-0.053-0.028-0.476-0.279-1.106-0.279c-0.852,0-1.441,0.593-1.441,1.39
			c0,0.776,0.564,1.393,1.441,1.393c0.619,0,1.047-0.244,1.106-0.276v1.399c-0.165,0.047-0.613,0.185-1.201,0.185
			c-1.478,0-2.775-1.02-2.775-2.7c0-1.556,1.175-2.697,2.775-2.697c0.619,0,1.076,0.15,1.201,0.188V30.095z"/>
		<path fill="#FFFFFF" d="M37.3,31.205c0,1.493-1.15,2.7-2.754,2.7c-1.604,0-2.753-1.207-2.753-2.7c0-1.488,1.148-2.697,2.753-2.697
			C36.149,28.508,37.3,29.717,37.3,31.205z M34.546,29.834c-0.781,0-1.361,0.614-1.361,1.371c0,0.76,0.58,1.374,1.361,1.374
			c0.779,0,1.359-0.614,1.359-1.374C35.905,30.448,35.325,29.834,34.546,29.834z"/>
		<path fill="#FFFFFF" d="M24.79,29.785c-0.02-0.005-0.574-0.159-1.027-0.159c-0.53,0-0.816,0.178-0.816,0.427
			c0,0.318,0.387,0.429,0.603,0.499l0.364,0.114c0.854,0.272,1.244,0.855,1.244,1.491c0,1.31-1.152,1.748-2.16,1.748
			c-0.701,0-1.355-0.126-1.42-0.141v-1.2c0.117,0.028,0.669,0.192,1.243,0.192c0.653,0,0.956-0.189,0.956-0.485
			c0-0.265-0.261-0.417-0.589-0.52c-0.079-0.026-0.199-0.063-0.28-0.092c-0.734-0.229-1.344-0.661-1.344-1.523
			c0-0.975,0.731-1.631,1.944-1.631c0.641,0,1.244,0.156,1.283,0.166V29.785z"/>
		<path fill="#FFFFFF" d="M11.307,22.998c0-0.358-0.294-0.65-0.654-0.65c-0.359,0-0.653,0.292-0.653,0.65v1.369
			c0,0.362,0.294,0.654,0.653,0.654c0.36,0,0.654-0.292,0.654-0.654V22.998z"/>
		<path fill="#FFFFFF" d="M14.894,21.202c0-0.358-0.294-0.651-0.654-0.651c-0.358,0-0.653,0.293-0.653,0.651v3.165
			c0,0.362,0.294,0.654,0.653,0.654c0.36,0,0.654-0.292,0.654-0.654V21.202z"/>
		<path fill="#FFFFFF" d="M18.482,18.745c0-0.359-0.294-0.651-0.653-0.651c-0.362,0-0.656,0.292-0.656,0.651v6.923
			c0,0.36,0.294,0.651,0.656,0.651c0.359,0,0.653-0.291,0.653-0.651V18.745z"/>
		<path fill="#FFFFFF" d="M22.067,21.202c0-0.358-0.291-0.651-0.653-0.651c-0.358,0-0.653,0.293-0.653,0.651v3.165
			c0,0.362,0.294,0.654,0.653,0.654c0.362,0,0.653-0.292,0.653-0.654V21.202z"/>
		<path fill="#FFFFFF" d="M25.652,22.998c0-0.358-0.294-0.65-0.649-0.65c-0.362,0-0.653,0.292-0.653,0.65v1.369
			c0,0.362,0.291,0.654,0.653,0.654c0.355,0,0.649-0.292,0.649-0.654V22.998z"/>
		<path fill="#FFFFFF" d="M29.241,21.202c0-0.358-0.291-0.651-0.653-0.651c-0.358,0-0.648,0.293-0.648,0.651v3.165
			c0,0.362,0.29,0.654,0.648,0.654c0.362,0,0.653-0.292,0.653-0.654V21.202z"/>
		<path fill="#FFFFFF" d="M32.829,18.745c0-0.359-0.292-0.651-0.65-0.651c-0.36,0-0.651,0.292-0.651,0.651v6.923
			c0,0.36,0.291,0.651,0.651,0.651c0.358,0,0.65-0.291,0.65-0.651V18.745z"/>
		<path fill="#FFFFFF" d="M36.418,21.202c0-0.358-0.291-0.651-0.659-0.651c-0.357,0-0.649,0.293-0.649,0.651v3.165
			c0,0.362,0.292,0.654,0.649,0.654c0.368,0,0.659-0.292,0.659-0.654V21.202z"/>
		<path fill="#FFFFFF" d="M40,22.998c0-0.358-0.291-0.65-0.649-0.65c-0.36,0-0.652,0.292-0.652,0.65v1.369
			c0,0.362,0.292,0.654,0.652,0.654c0.358,0,0.649-0.292,0.649-0.654V22.998z"/>
	</g>
	<g display="inline">
		<rect x="18.484" y="27.602" fill="#8C8C94" width="1.316" height="5.213"/>
		<path fill="#8C8C94" d="M30.407,29.095c-0.054-0.028-0.478-0.279-1.107-0.279c-0.849,0-1.44,0.593-1.44,1.39
			c0,0.776,0.566,1.393,1.44,1.393c0.618,0,1.051-0.244,1.107-0.276v1.399c-0.167,0.047-0.614,0.185-1.2,0.185
			c-1.479,0-2.775-1.02-2.775-2.7c0-1.556,1.174-2.697,2.775-2.697c0.62,0,1.076,0.15,1.2,0.188V29.095z"/>
		<path fill="#8C8C94" d="M16.677,29.095c-0.053-0.028-0.476-0.279-1.106-0.279c-0.852,0-1.441,0.593-1.441,1.39
			c0,0.776,0.564,1.393,1.441,1.393c0.619,0,1.047-0.244,1.106-0.276v1.399c-0.165,0.047-0.613,0.185-1.201,0.185
			c-1.478,0-2.775-1.02-2.775-2.7c0-1.556,1.175-2.697,2.775-2.697c0.619,0,1.076,0.15,1.201,0.188V29.095z"/>
		<path fill="#8C8C94" d="M37.3,30.205c0,1.493-1.15,2.7-2.754,2.7c-1.604,0-2.753-1.207-2.753-2.7c0-1.488,1.148-2.697,2.753-2.697
			C36.149,27.508,37.3,28.717,37.3,30.205z M34.546,28.834c-0.781,0-1.361,0.614-1.361,1.371c0,0.76,0.58,1.374,1.361,1.374
			c0.779,0,1.359-0.614,1.359-1.374C35.905,29.448,35.325,28.834,34.546,28.834z"/>
		<path fill="#8C8C94" d="M24.79,28.785c-0.02-0.005-0.574-0.159-1.027-0.159c-0.53,0-0.816,0.178-0.816,0.427
			c0,0.318,0.387,0.429,0.603,0.499l0.364,0.114c0.854,0.272,1.244,0.855,1.244,1.491c0,1.31-1.152,1.748-2.16,1.748
			c-0.701,0-1.355-0.126-1.42-0.141v-1.2c0.117,0.028,0.669,0.192,1.243,0.192c0.653,0,0.956-0.189,0.956-0.485
			c0-0.265-0.261-0.417-0.589-0.52c-0.079-0.026-0.199-0.063-0.28-0.092c-0.734-0.229-1.344-0.661-1.344-1.523
			c0-0.975,0.731-1.631,1.944-1.631c0.641,0,1.244,0.156,1.283,0.166V28.785z"/>
		<path fill="#8C8C94" d="M11.307,21.998c0-0.358-0.294-0.65-0.654-0.65c-0.359,0-0.653,0.292-0.653,0.65v1.369
			c0,0.362,0.294,0.654,0.653,0.654c0.36,0,0.654-0.292,0.654-0.654V21.998z"/>
		<path fill="#8C8C94" d="M14.894,20.202c0-0.358-0.294-0.651-0.654-0.651c-0.358,0-0.653,0.293-0.653,0.651v3.165
			c0,0.362,0.294,0.654,0.653,0.654c0.36,0,0.654-0.292,0.654-0.654V20.202z"/>
		<path fill="#8C8C94" d="M18.482,17.745c0-0.359-0.294-0.651-0.653-0.651c-0.362,0-0.656,0.292-0.656,0.651v6.923
			c0,0.36,0.294,0.651,0.656,0.651c0.359,0,0.653-0.291,0.653-0.651V17.745z"/>
		<path fill="#8C8C94" d="M22.067,20.202c0-0.358-0.291-0.651-0.653-0.651c-0.358,0-0.653,0.293-0.653,0.651v3.165
			c0,0.362,0.294,0.654,0.653,0.654c0.362,0,0.653-0.292,0.653-0.654V20.202z"/>
		<path fill="#8C8C94" d="M25.652,21.998c0-0.358-0.294-0.65-0.649-0.65c-0.362,0-0.653,0.292-0.653,0.65v1.369
			c0,0.362,0.291,0.654,0.653,0.654c0.355,0,0.649-0.292,0.649-0.654V21.998z"/>
		<path fill="#8C8C94" d="M29.241,20.202c0-0.358-0.291-0.651-0.653-0.651c-0.358,0-0.648,0.293-0.648,0.651v3.165
			c0,0.362,0.29,0.654,0.648,0.654c0.362,0,0.653-0.292,0.653-0.654V20.202z"/>
		<path fill="#8C8C94" d="M32.829,17.745c0-0.359-0.292-0.651-0.65-0.651c-0.36,0-0.651,0.292-0.651,0.651v6.923
			c0,0.36,0.291,0.651,0.651,0.651c0.358,0,0.65-0.291,0.65-0.651V17.745z"/>
		<path fill="#8C8C94" d="M36.418,20.202c0-0.358-0.291-0.651-0.659-0.651c-0.357,0-0.649,0.293-0.649,0.651v3.165
			c0,0.362,0.292,0.654,0.649,0.654c0.368,0,0.659-0.292,0.659-0.654V20.202z"/>
		<path fill="#8C8C94" d="M40,21.998c0-0.358-0.291-0.65-0.649-0.65c-0.36,0-0.652,0.292-0.652,0.65v1.369
			c0,0.362,0.292,0.654,0.652,0.654c0.358,0,0.649-0.292,0.649-0.654V21.998z"/>
	</g>
</g>
<g id="Layer_5" display="none">
	<path display="inline" opacity="0.35" fill="#FFFFFF" d="M13.146,20.878c-0.378-0.826-1.31-1.201-2.18-0.812
		c-0.873,0.385-1.193,1.352-0.8,2.18l3.655,7.944c0.576,1.242,1.182,1.9,2.317,1.9c1.215,0,1.745-0.714,2.318-1.9
		c0,0,3.188-6.94,3.22-7.014c0.033-0.073,0.134-0.297,0.457-0.294c0.275,0.001,0.507,0.219,0.507,0.512v6.79
		c0,1.048,0.582,1.906,1.697,1.906c1.116,0,1.72-0.858,1.72-1.906v-5.555c0-1.07,0.765-1.765,1.812-1.765
		c1.047,0,1.741,0.719,1.741,1.765v5.555c0,1.048,0.581,1.906,1.696,1.906s1.722-0.858,1.722-1.906v-5.555
		c0-1.07,0.766-1.765,1.812-1.765c1.046,0,1.742,0.719,1.742,1.765v5.555c0,1.048,0.58,1.906,1.697,1.906
		c1.114,0,1.72-0.858,1.72-1.906v-6.322c0-2.324-1.869-3.951-4.113-3.951c-2.246,0-3.652,1.553-3.652,1.553
		c-0.75-0.968-1.78-1.551-3.522-1.551c-1.839,0-3.449,1.551-3.449,1.551c-0.749-0.968-2.021-1.551-3.076-1.551
		c-1.628,0-2.924,0.716-3.715,2.524l-2.333,5.499L13.146,20.878z"/>
	<path display="inline" fill="#8C8C94" d="M13.146,19.878c-0.378-0.826-1.31-1.201-2.18-0.812c-0.873,0.385-1.193,1.352-0.8,2.18
		l3.655,7.944c0.576,1.242,1.182,1.9,2.317,1.9c1.215,0,1.745-0.714,2.318-1.9c0,0,3.188-6.94,3.22-7.014
		c0.033-0.073,0.134-0.297,0.457-0.294c0.275,0.001,0.507,0.219,0.507,0.512v6.79c0,1.048,0.582,1.906,1.697,1.906
		c1.116,0,1.72-0.858,1.72-1.906v-5.555c0-1.07,0.765-1.765,1.812-1.765c1.047,0,1.741,0.719,1.741,1.765v5.555
		c0,1.048,0.581,1.906,1.696,1.906s1.722-0.858,1.722-1.906v-5.555c0-1.07,0.766-1.765,1.812-1.765c1.046,0,1.742,0.719,1.742,1.765
		v5.555c0,1.048,0.58,1.906,1.697,1.906c1.114,0,1.72-0.858,1.72-1.906v-6.322c0-2.324-1.869-3.951-4.113-3.951
		c-2.246,0-3.652,1.553-3.652,1.553c-0.75-0.968-1.78-1.551-3.522-1.551c-1.839,0-3.449,1.551-3.449,1.551
		c-0.749-0.968-2.021-1.551-3.076-1.551c-1.628,0-2.924,0.716-3.715,2.524l-2.333,5.499L13.146,19.878z"/>
</g>
<g id="Layer_6" display="none">
	<g display="inline" opacity="0.35">
		<path fill="#FFFFFF" d="M24.999,12c-0.446,0-0.889,0.022-1.326,0.063l-2.538,7.166c-0.061,0.17,0.039,0.312,0.222,0.312h1.314
			c0.184,0,0.54,0.007,1.228,0.007c0.689,0,2.193,0.859,1.669,2.589c-0.526,1.729-3.391,9.603-3.391,9.603
			c-0.062,0.17-0.262,0.311-0.446,0.311h-2.77c-0.184,0-0.286-0.142-0.224-0.312l3.222-9.062l0.347-0.984
			c0,0,0.071-0.422-0.393-0.422l-1.14-0.001c-0.185,0-0.384,0.141-0.445,0.31l-3.632,10.159c-0.06,0.171-0.261,0.31-0.443,0.31
			l-2.655-0.002c-0.184,0-0.283-0.141-0.224-0.312l6.621-18.812C14.735,14.936,11,20.031,11,26c0,6.564,4.518,12.072,10.615,13.587
			l3.082-8.841L28.513,19.8l0,0l0.108-0.312l5.439,0.003c1.636,0.002,3.331,0.871,2.453,3.245l-0.11,0.31
			c0,0.002,0,0.002-0.002,0.002l-0.998,2.802l-1.409,3.948c-0.468,1.33-0.877,2.257-3.335,2.256h-0.33c-0.001,0-0.003,0-0.003,0
			l-1.203-0.001l-1.206-0.001c-0.184,0-0.382,0.139-0.441,0.309l-1.631,4.668l-1.039,2.969C24.871,39.998,24.934,40,24.999,40
			C32.732,40,39,33.732,39,26C39,18.268,32.732,12,24.999,12z"/>
		<path fill="#FFFFFF" d="M29.656,30.317h0.01c0.585,0,0.88-0.638,0.937-0.984c0.06-0.349,2.521-7.238,2.521-7.238
			c0.174-0.462-0.043-0.649-0.043-0.649c-0.139-0.12-0.4-0.218-0.586-0.218l-0.396,0h-0.397c-0.184,0-0.383,0.14-0.442,0.311
			l-2.959,8.465c-0.06,0.171,0.041,0.312,0.225,0.312L29.656,30.317z"/>
	</g>
	<g display="inline">
		<path fill="#8C8C94" d="M24.999,11c-0.446,0-0.889,0.022-1.326,0.063l-2.538,7.166c-0.061,0.17,0.039,0.312,0.222,0.312h1.314
			c0.184,0,0.54,0.007,1.228,0.007c0.689,0,2.193,0.859,1.669,2.589c-0.526,1.729-3.391,9.603-3.391,9.603
			c-0.062,0.17-0.262,0.311-0.446,0.311h-2.77c-0.184,0-0.286-0.142-0.224-0.312l3.222-9.062l0.347-0.984
			c0,0,0.071-0.422-0.393-0.422l-1.14-0.001c-0.185,0-0.384,0.141-0.445,0.31l-3.632,10.159c-0.06,0.171-0.261,0.31-0.443,0.31
			l-2.655-0.002c-0.184,0-0.283-0.141-0.224-0.312l6.621-18.812C14.735,13.936,11,19.031,11,25c0,6.564,4.518,12.072,10.615,13.587
			l3.082-8.841L28.513,18.8l0,0l0.108-0.312l5.439,0.003c1.636,0.002,3.331,0.871,2.453,3.245l-0.11,0.31
			c0,0.002,0,0.002-0.002,0.002l-0.998,2.802l-1.409,3.948c-0.468,1.33-0.877,2.257-3.335,2.256h-0.33c-0.001,0-0.003,0-0.003,0
			l-1.203-0.001l-1.206-0.001c-0.184,0-0.382,0.139-0.441,0.309l-1.631,4.668l-1.039,2.969C24.871,38.998,24.934,39,24.999,39
			C32.732,39,39,32.732,39,25C39,17.268,32.732,11,24.999,11z"/>
		<path fill="#8C8C94" d="M29.656,29.317h0.01c0.585,0,0.88-0.638,0.937-0.984c0.06-0.349,2.521-7.238,2.521-7.238
			c0.174-0.462-0.043-0.649-0.043-0.649c-0.139-0.12-0.4-0.218-0.586-0.218l-0.396,0h-0.397c-0.184,0-0.383,0.14-0.442,0.311
			l-2.959,8.465c-0.06,0.171,0.041,0.312,0.225,0.312L29.656,29.317z"/>
	</g>
</g>
<g id="Layer_7" display="none">
	<g display="inline" opacity="0.35">
		<g>
			<path fill="#FFFFFF" d="M17.232,34.131c-2.171,0-4.213-0.847-5.749-2.382C9.947,30.213,9.102,28.171,9.102,26
				c0-2.171,0.846-4.213,2.381-5.749c1.536-1.536,3.578-2.381,5.749-2.381s4.213,0.845,5.749,2.381
				c1.536,1.536,2.381,3.578,2.381,5.749c0,2.171-0.846,4.213-2.381,5.749C21.445,33.284,19.403,34.131,17.232,34.131z
				 M17.232,18.569c-1.984,0-3.851,0.773-5.255,2.177C10.574,22.15,9.801,24.016,9.801,26c0,1.985,0.773,3.851,2.176,5.256
				c1.404,1.402,3.271,2.176,5.255,2.176c1.985,0,3.852-0.773,5.255-2.176c1.403-1.405,2.175-3.271,2.175-5.256
				c0-1.986-0.772-3.85-2.175-5.254C21.083,19.342,19.217,18.569,17.232,18.569z"/>
		</g>
		<path fill="#FFFFFF" d="M28.412,26.061c0.168-0.721-0.099-1.2-0.917-1.2c-0.771,0-1.308,0.467-1.479,1.2H28.412z M25.767,27.126
			c-0.223,0.945,0.092,1.378,0.913,1.378c0.695,0,1.045-0.289,1.226-0.645h3.521c-0.329,0.935-1.797,1.822-4.962,1.822
			c-2.874,0-4.619-0.855-4.125-2.965c0.507-2.167,2.715-3.032,5.429-3.032c2.349,0,4.562,0.677,3.983,3.142l-0.069,0.3H25.767z"/>
		<path fill="#FFFFFF" d="M32.588,26.083c0.174-0.744,0.333-1.478,0.438-2.188h3.546l-0.18,0.978h0.024
			c0.772-0.79,1.831-1.188,3.077-1.188c1.102,0,2.918,0.332,2.421,2.454l-0.778,3.331h-3.594l0.697-2.987
			c0.192-0.82-0.095-1.11-0.718-1.11c-0.831,0-1.283,0.465-1.482,1.321l-0.651,2.776h-3.594L32.588,26.083z"/>
		<polygon fill="#FFFFFF" points="14.989,26.189 11.143,21.449 15.856,21.458 17.897,24.22 21.292,21.449 26.747,21.449 
			19.938,26.677 23.767,31.605 19.017,31.605 17.066,28.735 13.437,31.605 8,31.605 		"/>
	</g>
	<g display="inline">
		<g>
			<path fill="#8C8C94" d="M17.232,33.131c-2.171,0-4.213-0.847-5.749-2.382C9.947,29.213,9.102,27.171,9.102,25
				c0-2.171,0.846-4.213,2.381-5.749c1.536-1.536,3.578-2.381,5.749-2.381s4.213,0.845,5.749,2.381
				c1.536,1.536,2.381,3.578,2.381,5.749c0,2.171-0.846,4.213-2.381,5.749C21.445,32.284,19.403,33.131,17.232,33.131z
				 M17.232,17.569c-1.984,0-3.851,0.773-5.255,2.177C10.574,21.15,9.801,23.016,9.801,25c0,1.985,0.773,3.851,2.176,5.256
				c1.404,1.402,3.271,2.176,5.255,2.176c1.985,0,3.852-0.773,5.255-2.176c1.403-1.405,2.175-3.271,2.175-5.256
				c0-1.986-0.772-3.85-2.175-5.254C21.083,18.342,19.217,17.569,17.232,17.569z"/>
		</g>
		<path fill="#8C8C94" d="M28.412,25.061c0.168-0.722-0.099-1.2-0.917-1.2c-0.771,0-1.308,0.467-1.479,1.2H28.412z M25.767,26.126
			c-0.223,0.945,0.092,1.378,0.913,1.378c0.695,0,1.045-0.289,1.226-0.645h3.521c-0.329,0.935-1.797,1.822-4.962,1.822
			c-2.874,0-4.619-0.855-4.125-2.965c0.507-2.167,2.715-3.032,5.429-3.032c2.349,0,4.562,0.677,3.983,3.142l-0.069,0.3H25.767z"/>
		<path fill="#8C8C94" d="M32.588,25.083c0.174-0.744,0.333-1.478,0.438-2.188h3.546l-0.18,0.978h0.024
			c0.772-0.79,1.831-1.188,3.077-1.188c1.102,0,2.918,0.332,2.421,2.454l-0.778,3.332h-3.594l0.697-2.987
			c0.192-0.821-0.095-1.11-0.718-1.11c-0.831,0-1.283,0.466-1.482,1.321l-0.651,2.776h-3.594L32.588,25.083z"/>
		<polygon fill="#8C8C94" points="14.989,25.189 11.143,20.449 15.856,20.458 17.897,23.22 21.292,20.449 26.747,20.449 
			19.938,25.677 23.767,30.605 19.017,30.605 17.066,27.735 13.437,30.605 8,30.605 		"/>
	</g>
</g>
<g id="Layer_8">
	<g>
		<path fill="#FFFFFF" d="M10.105,20.082c0.354,0.28,0.954,0.656,1.782,1.118c0.859,0.482,1.339,0.769,1.514,0.904
			c0.26,0.196,0.457,0.414,0.582,0.648c0.124,0.227,0.186,0.455,0.186,0.677c0,0.4-0.165,0.752-0.488,1.046
			c-0.327,0.296-0.78,0.447-1.35,0.447c-0.499,0-0.962-0.113-1.378-0.335c-0.413-0.218-0.724-0.496-0.925-0.828
			c-0.204-0.337-0.368-0.854-0.49-1.538l-0.014-0.079H9.092v3.528h0.434l0.012-0.081c0.039-0.256,0.092-0.357,0.128-0.396
			c0.052-0.052,0.122-0.078,0.215-0.078c0.078,0,0.291,0.039,0.855,0.223c0.465,0.151,0.779,0.24,0.933,0.266
			c0.238,0.045,0.504,0.067,0.812,0.067c0.92,0,1.683-0.276,2.268-0.821c0.588-0.55,0.887-1.212,0.887-1.97
			c0-0.398-0.094-0.785-0.279-1.151c-0.185-0.365-0.452-0.685-0.793-0.952c-0.335-0.262-0.964-0.642-1.869-1.127
			c-1.096-0.589-1.796-1.064-2.081-1.409c-0.19-0.225-0.286-0.477-0.286-0.747c0-0.355,0.154-0.679,0.457-0.962
			c0.303-0.285,0.695-0.429,1.165-0.429c0.419,0,0.833,0.108,1.229,0.322c0.391,0.211,0.697,0.501,0.911,0.863
			c0.214,0.365,0.366,0.865,0.45,1.488l0.011,0.083h0.437V15.33h-0.43l-0.017,0.076c-0.056,0.254-0.119,0.357-0.161,0.396
			c-0.062,0.057-0.141,0.085-0.239,0.085c-0.065,0-0.209-0.029-0.528-0.171c-0.586-0.256-1.15-0.386-1.675-0.386
			c-0.845,0-1.553,0.263-2.107,0.782C9.28,16.635,9,17.265,9,17.985c0,0.416,0.095,0.802,0.283,1.149
			C9.47,19.48,9.747,19.798,10.105,20.082z"/>
		<path fill="#FFFFFF" d="M16.584,19.372c0.063,0.072,0.138,0.256,0.138,0.722v2.528c0,0.802,0.053,1.334,0.16,1.629
			c0.159,0.433,0.434,0.782,0.815,1.036c0.38,0.255,0.939,0.384,1.662,0.384c0.668,0,1.205-0.134,1.596-0.399
			c0.393-0.268,0.66-0.593,0.795-0.968c0.135-0.369,0.2-0.874,0.2-1.54v-2.622c0-0.452,0.052-0.596,0.084-0.645
			c0.119-0.188,0.283-0.279,0.502-0.279h0.339v-0.362h-2.461v0.362h0.337c0.217,0,0.373,0.058,0.479,0.177
			c0.04,0.047,0.108,0.2,0.108,0.7v2.618c0,0.67-0.059,1.15-0.176,1.425c-0.114,0.265-0.333,0.486-0.648,0.659
			c-0.323,0.178-0.691,0.268-1.095,0.268c-0.315,0-0.584-0.057-0.798-0.167c-0.213-0.11-0.377-0.25-0.488-0.416
			c-0.114-0.167-0.193-0.409-0.238-0.718c-0.046-0.319-0.069-0.605-0.069-0.851v-2.818c0-0.426,0.054-0.597,0.101-0.666
			c0.094-0.142,0.253-0.211,0.483-0.211h0.342v-0.362h-2.957v0.362h0.336C16.344,19.217,16.497,19.269,16.584,19.372z"/>
		<path fill="#FFFFFF" d="M25.917,25.17h-0.343c-0.215,0-0.37-0.058-0.473-0.179c-0.033-0.037-0.109-0.177-0.109-0.697v-1.775
			c0.156,0.031,0.317,0.059,0.472,0.076c0.176,0.022,0.351,0.034,0.516,0.034c0.658,0,1.175-0.176,1.539-0.522
			c0.364-0.352,0.55-0.809,0.55-1.362c0-0.409-0.122-0.769-0.364-1.07c-0.239-0.295-0.538-0.508-0.884-0.634
			c-0.342-0.123-0.812-0.185-1.398-0.185h-2.46v0.362h0.34c0.216,0,0.377,0.06,0.48,0.178c0.04,0.044,0.105,0.195,0.105,0.699v4.2
			c0,0.459-0.05,0.605-0.079,0.65c-0.1,0.152-0.266,0.226-0.507,0.226h-0.34v0.363h2.955V25.17z M24.992,22.049v-2.544
			c0.21-0.046,0.387-0.07,0.524-0.07c0.244,0,0.467,0.055,0.66,0.165c0.191,0.11,0.335,0.273,0.44,0.499
			c0.107,0.229,0.162,0.479,0.162,0.742c0,0.388-0.109,0.693-0.33,0.932c-0.221,0.239-0.476,0.355-0.778,0.355
			c-0.097,0-0.203-0.007-0.32-0.023C25.252,22.093,25.137,22.075,24.992,22.049z"/>
		<path fill="#FFFFFF" d="M34.204,23.719h-0.396l-0.027,0.052c-0.199,0.381-0.397,0.668-0.586,0.854
			c-0.142,0.137-0.284,0.227-0.435,0.275c-0.155,0.045-0.414,0.068-0.769,0.068h-1.096c-0.188,0-0.27-0.019-0.306-0.033
			l-0.104-0.121c-0.012-0.039-0.025-0.151-0.025-0.469V22.32h1.291c0.256,0,0.444,0.029,0.562,0.085
			c0.11,0.053,0.189,0.125,0.238,0.216c0.019,0.04,0.068,0.175,0.125,0.574l0.011,0.083h0.35v-2.432H32.68l-0.004,0.091
			c-0.021,0.336-0.103,0.57-0.247,0.696c-0.104,0.092-0.331,0.139-0.678,0.139H30.46v-2.352h1.655c0.308,0,0.521,0.021,0.628,0.061
			c0.14,0.06,0.246,0.145,0.313,0.251c0.072,0.115,0.142,0.336,0.206,0.659l0.016,0.078h0.381l-0.071-1.613h-5.159v0.362h0.324
			c0.237,0,0.405,0.055,0.5,0.161c0.036,0.044,0.1,0.197,0.1,0.716v4.2c0,0.315-0.016,0.511-0.047,0.598
			c-0.03,0.08-0.083,0.139-0.164,0.178c-0.118,0.066-0.249,0.1-0.389,0.1h-0.324v0.363h5.15L34.204,23.719z"/>
		<path fill="#FFFFFF" d="M40.914,25.17c-0.34-0.036-0.615-0.122-0.819-0.253c-0.209-0.137-0.465-0.417-0.761-0.833l-1.26-1.742
			c0.493-0.128,0.869-0.336,1.118-0.618c0.276-0.307,0.416-0.678,0.416-1.102c0-0.394-0.122-0.74-0.365-1.027
			c-0.243-0.286-0.528-0.478-0.876-0.585c-0.334-0.104-0.855-0.155-1.547-0.155h-2.452v0.362h0.337c0.213,0,0.375,0.06,0.479,0.178
			c0.04,0.045,0.107,0.196,0.107,0.699v4.2c0,0.457-0.053,0.603-0.085,0.65c-0.1,0.151-0.264,0.226-0.502,0.226h-0.337v0.363h2.954
			V25.17h-0.347c-0.214,0-0.367-0.058-0.471-0.179c-0.04-0.045-0.108-0.195-0.108-0.697v-1.782l0.184,0.005
			c0.076,0,0.173-0.004,0.287-0.008l0.059-0.002l2.195,3.026H41V25.18L40.914,25.17z M38.319,20.686
			c0,0.393-0.142,0.706-0.435,0.958c-0.29,0.253-0.733,0.382-1.318,0.382l-0.17-0.002v-2.531c0.269-0.058,0.486-0.088,0.646-0.088
			c0.393,0,0.695,0.116,0.927,0.354C38.201,19.992,38.319,20.304,38.319,20.686z"/>
		<path fill="#FFFFFF" d="M13.557,33.681l-2.401-5.199l-0.026-0.055H9V28.8h0.096c0.328,0,0.493,0.048,0.572,0.088
			c0.111,0.058,0.185,0.127,0.224,0.212c0.062,0.118,0.094,0.328,0.094,0.622v4.5c0,0.484-0.061,0.644-0.098,0.695
			c-0.104,0.151-0.282,0.227-0.544,0.227H9v0.376h2.605v-0.376h-0.343c-0.243,0-0.419-0.062-0.526-0.184
			c-0.043-0.049-0.116-0.21-0.116-0.738v-4.164l2.476,5.406l0.026,0.056h0.291l2.502-5.463v4.165c0,0.483-0.061,0.644-0.098,0.696
			c-0.102,0.15-0.28,0.226-0.544,0.226h-0.343v0.376h3.133v-0.376h-0.34c-0.243,0-0.421-0.062-0.529-0.185
			c-0.043-0.048-0.117-0.207-0.117-0.737v-4.5c0-0.46,0.052-0.634,0.094-0.696c0.105-0.15,0.29-0.226,0.552-0.226h0.34v-0.373h-2.1
			L13.557,33.681z"/>
		<path fill="#FFFFFF" d="M20.718,35.032c-0.092-0.053-0.148-0.106-0.171-0.169c-0.027-0.071-0.06-0.242-0.06-0.656v-4.471
			c0-0.508,0.067-0.672,0.107-0.725c0.107-0.141,0.287-0.212,0.535-0.212h0.343v-0.373h-3.133V28.8h0.342
			c0.141,0,0.28,0.036,0.418,0.106c0.086,0.053,0.141,0.108,0.166,0.173c0.022,0.059,0.06,0.223,0.06,0.657v4.471
			c0,0.485-0.056,0.662-0.103,0.725c-0.108,0.142-0.286,0.212-0.541,0.212h-0.342v0.376h3.133v-0.376h-0.343
			C20.98,35.144,20.846,35.106,20.718,35.032z"/>
		<path fill="#FFFFFF" d="M27.546,33.764l-0.309-0.2l-0.055,0.074c-0.4,0.56-0.77,0.936-1.093,1.118
			c-0.326,0.183-0.706,0.275-1.132,0.275c-0.497,0-0.928-0.116-1.319-0.353c-0.384-0.238-0.674-0.577-0.861-1.01
			c-0.192-0.443-0.29-0.975-0.29-1.58c0-0.738,0.104-1.363,0.309-1.856c0.199-0.487,0.477-0.847,0.828-1.066
			c0.347-0.223,0.732-0.332,1.178-0.332c0.523,0,0.958,0.146,1.331,0.447c0.372,0.299,0.662,0.798,0.863,1.482l0.019,0.07h0.34
			l-0.171-2.465l-0.005-0.09h-0.346l-0.019,0.073c-0.036,0.148-0.089,0.259-0.158,0.331c-0.051,0.047-0.108,0.069-0.176,0.069
			c-0.019,0-0.082-0.01-0.257-0.098c-0.492-0.25-1.001-0.376-1.511-0.376c-0.65,0-1.259,0.164-1.811,0.487
			c-0.548,0.321-0.986,0.783-1.301,1.373c-0.314,0.587-0.474,1.239-0.474,1.939c0,0.868,0.243,1.636,0.72,2.278
			c0.642,0.867,1.559,1.306,2.725,1.306c0.65,0,1.217-0.146,1.688-0.438c0.474-0.291,0.893-0.755,1.242-1.381L27.546,33.764z"/>
		<path fill="#FFFFFF" d="M33.42,34.871c-0.22-0.143-0.491-0.439-0.807-0.885l-1.344-1.86c0.524-0.137,0.926-0.356,1.194-0.658
			c0.29-0.329,0.438-0.722,0.438-1.169c0-0.416-0.13-0.781-0.386-1.086c-0.252-0.3-0.564-0.509-0.93-0.622
			c-0.358-0.109-0.911-0.164-1.646-0.164H27.34V28.8h0.352c0.232,0,0.4,0.062,0.515,0.191c0.043,0.049,0.117,0.211,0.117,0.745
			v4.471c0,0.489-0.055,0.643-0.09,0.692c-0.104,0.164-0.283,0.244-0.542,0.244H27.34v0.376h3.132v-0.376h-0.367
			c-0.225,0-0.393-0.063-0.501-0.194c-0.036-0.038-0.12-0.188-0.12-0.742v-1.902l0.201,0.004c0.094,0,0.208-0.004,0.34-0.009
			l0.031-0.001l2.31,3.181l0.029,0.04h1.986v-0.366l-0.087-0.01C33.939,35.106,33.645,35.015,33.42,34.871z M31.544,30.367
			c0,0.417-0.15,0.752-0.461,1.022c-0.312,0.272-0.788,0.411-1.408,0.411l-0.191-0.006v-2.701c0.287-0.063,0.521-0.097,0.697-0.097
			c0.415,0,0.738,0.124,0.989,0.379C31.418,29.626,31.544,29.959,31.544,30.367z"/>
		<path fill="#FFFFFF" d="M37.229,28.279c-2.039,0-3.698,1.658-3.698,3.694c0,2.039,1.659,3.696,3.698,3.696
			c2.038,0,3.694-1.657,3.694-3.696C40.923,29.938,39.267,28.279,37.229,28.279z"/>
	</g>
	<g>
		<path fill="#8C8C94" d="M10.105,19.582c0.354,0.28,0.954,0.656,1.782,1.118c0.859,0.482,1.339,0.769,1.514,0.904
			c0.26,0.196,0.457,0.414,0.582,0.648c0.124,0.227,0.186,0.455,0.186,0.677c0,0.4-0.165,0.752-0.488,1.046
			c-0.327,0.296-0.78,0.447-1.35,0.447c-0.499,0-0.962-0.113-1.378-0.335c-0.413-0.218-0.724-0.496-0.925-0.828
			c-0.204-0.337-0.368-0.854-0.49-1.538l-0.014-0.079H9.092v3.528h0.434l0.012-0.082c0.039-0.255,0.092-0.356,0.128-0.396
			c0.052-0.052,0.122-0.078,0.215-0.078c0.078,0,0.291,0.039,0.855,0.222c0.465,0.151,0.779,0.241,0.933,0.266
			c0.238,0.045,0.504,0.067,0.812,0.067c0.92,0,1.683-0.276,2.268-0.821c0.588-0.55,0.887-1.212,0.887-1.97
			c0-0.398-0.094-0.785-0.279-1.151c-0.185-0.365-0.452-0.685-0.793-0.952c-0.335-0.262-0.964-0.642-1.869-1.127
			c-1.096-0.589-1.796-1.064-2.081-1.409c-0.19-0.225-0.286-0.477-0.286-0.747c0-0.355,0.154-0.679,0.457-0.962
			c0.303-0.285,0.695-0.429,1.165-0.429c0.419,0,0.833,0.108,1.229,0.322c0.391,0.211,0.697,0.501,0.911,0.863
			c0.214,0.365,0.366,0.865,0.45,1.488l0.011,0.083h0.437V14.83h-0.43l-0.017,0.076c-0.056,0.254-0.119,0.357-0.161,0.396
			c-0.062,0.057-0.141,0.085-0.239,0.085c-0.065,0-0.209-0.029-0.528-0.171c-0.586-0.256-1.15-0.386-1.675-0.386
			c-0.845,0-1.553,0.263-2.107,0.782C9.28,16.135,9,16.765,9,17.485c0,0.416,0.095,0.802,0.283,1.149
			C9.47,18.98,9.747,19.298,10.105,19.582z"/>
		<path fill="#8C8C94" d="M16.584,18.872c0.063,0.072,0.138,0.256,0.138,0.722v2.528c0,0.802,0.053,1.334,0.16,1.629
			c0.159,0.433,0.434,0.782,0.815,1.036c0.38,0.254,0.939,0.383,1.662,0.383c0.668,0,1.205-0.134,1.596-0.399
			c0.393-0.268,0.66-0.593,0.795-0.968c0.135-0.369,0.2-0.874,0.2-1.54v-2.622c0-0.452,0.052-0.596,0.084-0.645
			c0.119-0.188,0.283-0.279,0.502-0.279h0.339v-0.362h-2.461v0.362h0.337c0.217,0,0.373,0.058,0.479,0.177
			c0.04,0.047,0.108,0.2,0.108,0.7v2.618c0,0.67-0.059,1.15-0.176,1.425c-0.114,0.265-0.333,0.486-0.648,0.659
			c-0.323,0.178-0.691,0.268-1.095,0.268c-0.315,0-0.584-0.056-0.798-0.167c-0.213-0.11-0.377-0.25-0.488-0.416
			c-0.114-0.167-0.193-0.409-0.238-0.718c-0.046-0.319-0.069-0.605-0.069-0.851v-2.818c0-0.426,0.054-0.597,0.101-0.666
			c0.094-0.142,0.253-0.211,0.483-0.211h0.342v-0.362h-2.957v0.362h0.336C16.344,18.717,16.497,18.769,16.584,18.872z"/>
		<path fill="#8C8C94" d="M25.917,24.67h-0.343c-0.215,0-0.37-0.058-0.473-0.179c-0.033-0.037-0.109-0.177-0.109-0.697v-1.775
			c0.156,0.031,0.317,0.059,0.472,0.076c0.176,0.022,0.351,0.034,0.516,0.034c0.658,0,1.175-0.176,1.539-0.522
			c0.364-0.352,0.55-0.809,0.55-1.362c0-0.409-0.122-0.769-0.364-1.07c-0.239-0.295-0.538-0.508-0.884-0.634
			c-0.342-0.123-0.812-0.185-1.398-0.185h-2.46v0.362h0.34c0.216,0,0.377,0.06,0.48,0.178c0.04,0.044,0.105,0.195,0.105,0.699v4.2
			c0,0.459-0.05,0.605-0.079,0.65c-0.1,0.152-0.266,0.226-0.507,0.226h-0.34v0.364h2.955V24.67z M24.992,21.549v-2.544
			c0.21-0.046,0.387-0.07,0.524-0.07c0.244,0,0.467,0.055,0.66,0.165c0.191,0.11,0.335,0.273,0.44,0.499
			c0.107,0.229,0.162,0.479,0.162,0.742c0,0.388-0.109,0.693-0.33,0.932c-0.221,0.239-0.476,0.355-0.778,0.355
			c-0.097,0-0.203-0.007-0.32-0.023C25.252,21.593,25.137,21.575,24.992,21.549z"/>
		<path fill="#8C8C94" d="M34.204,23.219h-0.396l-0.027,0.052c-0.199,0.381-0.397,0.668-0.586,0.854
			c-0.142,0.137-0.284,0.227-0.435,0.275c-0.155,0.045-0.414,0.068-0.769,0.068h-1.096c-0.188,0-0.27-0.019-0.306-0.033
			l-0.104-0.121c-0.012-0.039-0.025-0.151-0.025-0.469V21.82h1.291c0.256,0,0.444,0.029,0.562,0.085
			c0.11,0.053,0.189,0.125,0.238,0.216c0.019,0.04,0.068,0.175,0.125,0.574l0.011,0.083h0.35v-2.432H32.68l-0.004,0.091
			c-0.021,0.336-0.103,0.57-0.247,0.696c-0.104,0.092-0.331,0.139-0.678,0.139H30.46v-2.352h1.655c0.308,0,0.521,0.021,0.628,0.061
			c0.14,0.06,0.246,0.145,0.313,0.251c0.072,0.115,0.142,0.336,0.206,0.659l0.016,0.078h0.381l-0.071-1.613h-5.159v0.362h0.324
			c0.237,0,0.405,0.055,0.5,0.161c0.036,0.044,0.1,0.197,0.1,0.716v4.2c0,0.315-0.016,0.511-0.047,0.598
			c-0.03,0.08-0.083,0.14-0.164,0.178c-0.118,0.066-0.249,0.1-0.389,0.1h-0.324v0.364h5.15L34.204,23.219z"/>
		<path fill="#8C8C94" d="M40.914,24.67c-0.34-0.037-0.615-0.123-0.819-0.253C39.886,24.28,39.63,24,39.334,23.583l-1.26-1.742
			c0.493-0.128,0.869-0.336,1.118-0.618c0.276-0.307,0.416-0.678,0.416-1.102c0-0.394-0.122-0.74-0.365-1.027
			c-0.243-0.286-0.528-0.478-0.876-0.585c-0.334-0.104-0.855-0.155-1.547-0.155h-2.452v0.362h0.337c0.213,0,0.375,0.06,0.479,0.178
			c0.04,0.045,0.107,0.196,0.107,0.699v4.2c0,0.457-0.053,0.603-0.085,0.65c-0.1,0.152-0.264,0.226-0.502,0.226h-0.337v0.364h2.954
			V24.67h-0.347c-0.214,0-0.367-0.058-0.471-0.179c-0.04-0.045-0.108-0.195-0.108-0.697v-1.782l0.184,0.005
			c0.076,0,0.173-0.004,0.287-0.008l0.059-0.002l2.195,3.027H41V24.68L40.914,24.67z M38.319,20.186
			c0,0.393-0.142,0.706-0.435,0.958c-0.29,0.253-0.733,0.382-1.318,0.382l-0.17-0.002v-2.531c0.269-0.058,0.486-0.088,0.646-0.088
			c0.393,0,0.695,0.116,0.927,0.354C38.201,19.492,38.319,19.804,38.319,20.186z"/>
		<path fill="#8C8C94" d="M13.557,33.181l-2.401-5.199l-0.026-0.055H9V28.3h0.096c0.328,0,0.493,0.048,0.572,0.088
			c0.111,0.058,0.185,0.127,0.224,0.212c0.062,0.118,0.094,0.328,0.094,0.622v4.5c0,0.484-0.061,0.644-0.098,0.695
			c-0.104,0.151-0.282,0.227-0.544,0.227H9v0.376h2.605v-0.376h-0.343c-0.243,0-0.419-0.062-0.526-0.184
			c-0.043-0.049-0.116-0.21-0.116-0.738v-4.164l2.476,5.406l0.026,0.056h0.291l2.502-5.463v4.165c0,0.483-0.061,0.644-0.098,0.696
			c-0.102,0.15-0.28,0.226-0.544,0.226h-0.343v0.376h3.133v-0.376h-0.34c-0.243,0-0.421-0.062-0.529-0.185
			c-0.043-0.048-0.117-0.207-0.117-0.737v-4.5c0-0.46,0.052-0.634,0.094-0.696c0.105-0.15,0.29-0.226,0.552-0.226h0.34v-0.373h-2.1
			L13.557,33.181z"/>
		<path fill="#8C8C94" d="M20.718,34.532c-0.092-0.053-0.148-0.106-0.171-0.169c-0.027-0.071-0.06-0.242-0.06-0.656v-4.471
			c0-0.508,0.067-0.672,0.107-0.725c0.107-0.141,0.287-0.212,0.535-0.212h0.343v-0.373h-3.133V28.3h0.342
			c0.141,0,0.28,0.036,0.418,0.106c0.086,0.053,0.141,0.108,0.166,0.173c0.022,0.059,0.06,0.223,0.06,0.657v4.471
			c0,0.485-0.056,0.662-0.103,0.725c-0.108,0.142-0.286,0.212-0.541,0.212h-0.342v0.376h3.133v-0.376h-0.343
			C20.98,34.644,20.846,34.606,20.718,34.532z"/>
		<path fill="#8C8C94" d="M27.546,33.264l-0.309-0.2l-0.055,0.074c-0.4,0.56-0.77,0.936-1.093,1.118
			c-0.326,0.183-0.706,0.275-1.132,0.275c-0.497,0-0.928-0.116-1.319-0.353c-0.384-0.238-0.674-0.577-0.861-1.01
			c-0.192-0.443-0.29-0.975-0.29-1.58c0-0.738,0.104-1.363,0.309-1.856c0.199-0.487,0.477-0.847,0.828-1.066
			c0.347-0.223,0.732-0.332,1.178-0.332c0.523,0,0.958,0.146,1.331,0.447c0.372,0.299,0.662,0.798,0.863,1.482l0.019,0.07h0.34
			l-0.171-2.465l-0.005-0.09h-0.346l-0.019,0.073c-0.036,0.148-0.089,0.259-0.158,0.331c-0.051,0.047-0.108,0.069-0.176,0.069
			c-0.019,0-0.082-0.01-0.257-0.098c-0.492-0.25-1.001-0.376-1.511-0.376c-0.65,0-1.259,0.164-1.811,0.487
			c-0.548,0.321-0.986,0.783-1.301,1.373c-0.314,0.587-0.474,1.239-0.474,1.939c0,0.868,0.243,1.636,0.72,2.278
			c0.642,0.867,1.559,1.306,2.725,1.306c0.65,0,1.217-0.146,1.688-0.438c0.474-0.291,0.893-0.755,1.242-1.381L27.546,33.264z"/>
		<path fill="#8C8C94" d="M33.42,34.371c-0.22-0.143-0.491-0.439-0.807-0.885l-1.344-1.86c0.524-0.137,0.926-0.356,1.194-0.658
			c0.29-0.329,0.438-0.722,0.438-1.169c0-0.416-0.13-0.781-0.386-1.086c-0.252-0.3-0.564-0.509-0.93-0.622
			c-0.358-0.109-0.911-0.164-1.646-0.164H27.34V28.3h0.352c0.232,0,0.4,0.062,0.515,0.191c0.043,0.049,0.117,0.211,0.117,0.745
			v4.471c0,0.489-0.055,0.643-0.09,0.692c-0.104,0.164-0.283,0.244-0.542,0.244H27.34v0.376h3.132v-0.376h-0.367
			c-0.225,0-0.393-0.063-0.501-0.194c-0.036-0.038-0.12-0.188-0.12-0.742v-1.902l0.201,0.004c0.094,0,0.208-0.004,0.34-0.009
			l0.031-0.001l2.31,3.181l0.029,0.04h1.986v-0.366l-0.087-0.01C33.939,34.606,33.645,34.515,33.42,34.371z M31.544,29.867
			c0,0.417-0.15,0.752-0.461,1.022c-0.312,0.272-0.788,0.411-1.408,0.411l-0.191-0.006v-2.701c0.287-0.063,0.521-0.097,0.697-0.097
			c0.415,0,0.738,0.124,0.989,0.379C31.418,29.126,31.544,29.459,31.544,29.867z"/>
		<path fill="#8C8C94" d="M37.229,27.779c-2.039,0-3.698,1.658-3.698,3.694c0,2.039,1.659,3.696,3.698,3.696
			c2.038,0,3.694-1.657,3.694-3.696C40.923,29.438,39.267,27.779,37.229,27.779z"/>
	</g>
</g>
<g id="Layer_9" display="none">
	<g display="inline" opacity="0.35">
		<path fill="#FFFFFF" d="M36.353,38.704c-1.297,0-3.031-0.544-5.299-1.661c-0.167-0.081-0.329-0.163-0.491-0.244
			c-3.177,1.122-7.697,1.842-11.62,1.842c-3.211,0-7.18-0.464-7.85-2.669c-0.492-1.619,0.962-3.539,4.447-5.87
			c0.154-0.103,0.306-0.204,0.458-0.304c0.583-3.136,2.066-7.104,3.905-10.435c1.251-2.266,3.703-6.067,6.059-6.067
			c1.921,0,3.046,2.302,3.346,6.842c0.013,0.184,0.023,0.366,0.034,0.546c4.643,3.977,10.766,12.961,9.486,16.5
			C38.578,37.877,37.944,38.704,36.353,38.704z M32.152,36.15c1.803,0.846,3.214,1.273,4.2,1.273c0.911,0,1.158-0.36,1.271-0.675
			c0.85-2.353-3.571-9.87-8.208-14.274c0.031,1.234,0.018,2.417-0.039,3.531v0.002l-0.001,0.021c0.096,0.347,0.068,0.747-0.08,1.188
			v0.006c-0.026,0.305-0.056,0.604-0.089,0.895l0.005,0.002l-0.001,0.002c0.101,0.037,0.202,0.076,0.304,0.114
			c3.821,1.445,5.676,2.959,5.669,4.627C35.179,34.097,34.16,35.201,32.152,36.15z M15.765,31.499
			c-3.482,2.429-3.577,3.67-3.447,4.101c0.325,1.069,2.925,1.761,6.625,1.761c3.33,0,7.096-0.534,10.03-1.395
			c-1.085-0.589-2.101-1.19-3.035-1.797h-0.001l-0.019-0.012c-0.349-0.091-0.681-0.313-0.99-0.664l-0.004-0.004
			c-0.25-0.174-0.495-0.349-0.729-0.522L24.19,32.97l-0.002-0.002c-0.083,0.069-0.166,0.137-0.25,0.206
			c-2.391,1.956-4.228,2.906-5.617,2.906c-0.738,0-1.362-0.276-1.803-0.8C15.874,34.518,15.623,33.248,15.765,31.499z M27.48,33.628
			c0.979,0.601,2.039,1.195,3.163,1.776c2.045-0.794,3.257-1.738,3.261-2.547c0.002-0.479-0.467-1.771-4.842-3.426
			c-0.013-0.004-0.024-0.009-0.036-0.014C28.753,31.066,28.284,32.767,27.48,33.628z M17.166,30.566
			c-0.291,1.882-0.174,3.29,0.331,3.888c0.199,0.237,0.46,0.346,0.824,0.346c0.733,0,2.162-0.454,4.807-2.616
			c0.01-0.009,0.02-0.017,0.029-0.025c-1.24-1.021-2.52-2.298-2.869-3.445C19.277,29.261,18.231,29.882,17.166,30.566z
			 M25.801,32.54c0.177,0.122,0.36,0.246,0.547,0.368c0.304-0.124,0.903-1.012,1.33-3.221c-0.605,0.683-1.362,1.429-2.264,2.23
			C25.543,32.167,25.672,32.373,25.801,32.54z M21.476,28.093c-0.002,0.024-0.002,0.057,0.003,0.097
			c0.06,0.482,0.662,1.406,2.12,2.668c-0.289-0.865-0.557-1.894-0.801-3.077c-0.279-0.012-0.524-0.004-0.731,0.024
			C21.873,27.896,21.675,27.993,21.476,28.093z M24.142,27.948c0.23,1.057,0.479,1.967,0.746,2.723
			c0.8-0.729,1.463-1.399,1.983-2.007C25.841,28.335,24.928,28.096,24.142,27.948z M25.962,14.577c-2.364,0-6.904,7.849-8.45,14.262
			c1.052-0.644,2.082-1.224,3.074-1.73l0-0.001l0.019-0.009c0.254-0.258,0.613-0.435,1.072-0.526l0.004-0.002
			c0.277-0.131,0.55-0.254,0.818-0.37l-0.001-0.005l0.003-0.002c-0.018-0.104-0.036-0.211-0.053-0.318
			c-0.558-3.413-0.37-5.611,0.573-6.722c0.443-0.521,1.056-0.797,1.769-0.797c0.896,0,1.967,0.429,3.195,1.277
			C27.597,15.084,26.451,14.577,25.962,14.577z M24.626,26.739c0.893,0.182,1.917,0.464,3.062,0.845
			c0.151-0.236,0.267-0.452,0.346-0.646c0.016-0.213,0.032-0.432,0.046-0.652c-0.105-0.076-0.343-0.141-0.71-0.141
			C26.695,26.145,25.744,26.353,24.626,26.739z M24.791,19.636c-0.34,0-0.592,0.11-0.793,0.347
			c-0.381,0.448-0.924,1.782-0.287,5.686c0.002,0.012,0.005,0.025,0.007,0.038c1.474-0.552,2.728-0.842,3.652-0.842
			c0.296,0,0.55,0.029,0.767,0.08c0.031-1.15,0.016-2.367-0.044-3.633C26.746,20.229,25.58,19.636,24.791,19.636z"/>
	</g>
	<g display="inline">
		<path fill="#8C8C94" d="M36.353,37.704c-1.297,0-3.031-0.544-5.299-1.661c-0.167-0.081-0.329-0.163-0.491-0.244
			c-3.177,1.122-7.697,1.842-11.62,1.842c-3.211,0-7.18-0.464-7.85-2.669c-0.492-1.619,0.962-3.539,4.447-5.87
			c0.154-0.103,0.306-0.204,0.458-0.304c0.583-3.136,2.066-7.104,3.905-10.435c1.251-2.266,3.703-6.067,6.059-6.067
			c1.921,0,3.046,2.302,3.346,6.842c0.013,0.184,0.023,0.366,0.034,0.546c4.643,3.977,10.766,12.961,9.486,16.5
			C38.578,36.877,37.944,37.704,36.353,37.704z M32.152,35.15c1.803,0.846,3.214,1.273,4.2,1.273c0.911,0,1.158-0.36,1.271-0.675
			c0.85-2.353-3.571-9.87-8.208-14.274c0.031,1.234,0.018,2.417-0.039,3.531v0.001l-0.001,0.021c0.096,0.347,0.068,0.747-0.08,1.188
			v0.006c-0.026,0.305-0.056,0.604-0.089,0.895l0.005,0.002l-0.001,0.002c0.101,0.037,0.202,0.076,0.304,0.114
			c3.821,1.445,5.676,2.959,5.669,4.627C35.179,33.097,34.16,34.201,32.152,35.15z M15.765,30.499
			c-3.482,2.429-3.577,3.67-3.447,4.101c0.325,1.069,2.925,1.761,6.625,1.761c3.33,0,7.096-0.534,10.03-1.395
			c-1.085-0.589-2.101-1.19-3.035-1.797h-0.001l-0.019-0.012c-0.349-0.091-0.681-0.313-0.99-0.664l-0.004-0.004
			c-0.25-0.174-0.495-0.349-0.729-0.522L24.19,31.97l-0.002-0.002c-0.083,0.069-0.166,0.137-0.25,0.206
			c-2.391,1.956-4.228,2.906-5.617,2.906c-0.738,0-1.362-0.276-1.803-0.8C15.874,33.518,15.623,32.248,15.765,30.499z M27.48,32.628
			c0.979,0.601,2.039,1.195,3.163,1.776c2.045-0.794,3.257-1.738,3.261-2.547c0.002-0.479-0.467-1.771-4.842-3.426
			c-0.013-0.004-0.024-0.009-0.036-0.014C28.753,30.066,28.284,31.767,27.48,32.628z M17.166,29.566
			c-0.291,1.882-0.174,3.29,0.331,3.888c0.199,0.237,0.46,0.346,0.824,0.346c0.733,0,2.162-0.454,4.807-2.616
			c0.01-0.009,0.02-0.017,0.029-0.025c-1.24-1.021-2.52-2.298-2.869-3.445C19.277,28.261,18.231,28.882,17.166,29.566z
			 M25.801,31.54c0.177,0.122,0.36,0.246,0.547,0.368c0.304-0.124,0.903-1.012,1.33-3.221c-0.605,0.683-1.362,1.429-2.264,2.23
			C25.543,31.167,25.672,31.373,25.801,31.54z M21.476,27.093c-0.002,0.024-0.002,0.057,0.003,0.097
			c0.06,0.482,0.662,1.406,2.12,2.668c-0.289-0.865-0.557-1.894-0.801-3.077c-0.279-0.012-0.524-0.004-0.731,0.024
			C21.873,26.896,21.675,26.993,21.476,27.093z M24.142,26.948c0.23,1.057,0.479,1.967,0.746,2.723
			c0.8-0.729,1.463-1.399,1.983-2.007C25.841,27.335,24.928,27.096,24.142,26.948z M25.962,13.577c-2.364,0-6.904,7.849-8.45,14.262
			c1.052-0.644,2.082-1.224,3.074-1.73l0-0.001l0.019-0.009c0.254-0.258,0.613-0.435,1.072-0.526l0.004-0.002
			c0.277-0.13,0.55-0.253,0.818-0.37l-0.001-0.005l0.003-0.001c-0.018-0.105-0.036-0.211-0.053-0.319
			c-0.558-3.412-0.37-5.611,0.573-6.722c0.443-0.521,1.056-0.797,1.769-0.797c0.896,0,1.967,0.429,3.195,1.277
			C27.597,14.084,26.451,13.577,25.962,13.577z M24.626,25.739c0.893,0.182,1.917,0.464,3.062,0.845
			c0.151-0.236,0.267-0.452,0.346-0.646c0.016-0.213,0.032-0.432,0.046-0.652c-0.105-0.076-0.343-0.141-0.71-0.141
			C26.695,25.145,25.744,25.353,24.626,25.739z M24.791,18.636c-0.34,0-0.592,0.11-0.793,0.347
			c-0.381,0.448-0.924,1.782-0.287,5.686c0.002,0.012,0.005,0.025,0.007,0.038c1.474-0.552,2.728-0.842,3.652-0.842
			c0.296,0,0.55,0.029,0.767,0.08c0.031-1.15,0.016-2.367-0.044-3.633C26.746,19.229,25.58,18.636,24.791,18.636z"/>
	</g>
</g>
<g id="Layer_10" display="none">
	<g display="inline" opacity="0.35">
		<path fill="#FFFFFF" d="M11,30.826v-9.652h1.949v4.286l3.937-4.286h2.621l-3.635,3.759l3.832,5.893h-2.521l-2.653-4.529
			l-1.58,1.612v2.917H11z"/>
		<path fill="#FFFFFF" d="M23.173,30.826l-3.45-9.652h2.114l2.442,7.143l2.364-7.143h2.067l-3.457,9.652H23.173z"/>
		<path fill="#FFFFFF" d="M29.678,30.826v-9.652h2.917l1.75,6.583l1.732-6.583H39v9.652h-1.811v-7.598l-1.915,7.598h-1.877
			l-1.91-7.598v7.598H29.678z"/>
	</g>
	<g display="inline">
		<path fill="#8C8C94" d="M11,29.826v-9.652h1.949v4.286l3.937-4.286h2.621l-3.635,3.759l3.832,5.893h-2.521l-2.653-4.53
			l-1.58,1.613v2.917H11z"/>
		<path fill="#8C8C94" d="M23.173,29.826l-3.45-9.652h2.114l2.442,7.143l2.364-7.143h2.067l-3.457,9.652H23.173z"/>
		<path fill="#8C8C94" d="M29.678,29.826v-9.652h2.917l1.75,6.583l1.732-6.583H39v9.652h-1.811v-7.598l-1.915,7.598h-1.877
			l-1.91-7.598v7.598H29.678z"/>
	</g>
</g>
</svg>
