<?xml version="1.0" encoding="utf-8"?>
<!-- Generator: Adobe Illustrator 16.0.0, SVG Export Plug-In . SVG Version: 6.00 Build 0)  -->
<!DOCTYPE svg PUBLIC "-//W3C//DTD SVG 1.1//EN" "http://www.w3.org/Graphics/SVG/1.1/DTD/svg11.dtd">
<svg version="1.1" id="Layer_1" xmlns="http://www.w3.org/2000/svg" xmlns:xlink="http://www.w3.org/1999/xlink" x="0px" y="0px"
	 width="50px" height="50px" viewBox="0 0 50 50" enable-background="new 0 0 50 50" xml:space="preserve">
<g id="Layer_3" display="none">
	<rect display="inline" fill="#6B2000" width="50" height="50"/>
</g>
<g id="Layer_1_1_" display="none">
	<g display="inline" opacity="0.55">
		<path fill="#FFFFFF" d="M24.535,11c0.311,0,0.62,0,0.93,0c4.523,0.256,7.749,1.979,10.141,4.393
			c2.395,2.415,4.158,5.6,4.396,10.156c0,0.301,0,0.602,0,0.902c-0.229,4.63-2.027,7.685-4.396,10.171
			c-2.483,2.36-5.541,4.149-10.152,4.378c-0.306,0-0.61,0-0.915,0c-4.523-0.257-7.748-1.979-10.14-4.393
			c-2.392-2.416-4.159-5.603-4.396-10.156c0-0.301,0-0.602,0-0.902c0.012-0.004,0.018-0.013,0.016-0.029
			c0.226-4.54,2.003-7.755,4.38-10.141C16.783,12.983,20.041,11.248,24.535,11z M21.595,13.152c-0.892,0.238-1.69,0.542-2.415,0.902
			c-2.205,1.093-4.022,2.657-5.295,4.664c-1.24,1.957-2.315,4.476-2.16,7.777c0.099,2.082,0.572,3.834,1.32,5.325
			c1.478,2.947,3.727,5.121,6.841,6.438c1.538,0.653,3.446,1.111,5.595,1.01c2.061-0.101,3.846-0.562,5.324-1.311
			c2.899-1.463,5.188-3.718,6.451-6.83c0.641-1.572,1.124-3.396,1.02-5.6c-0.195-4.172-1.892-7.002-4.125-9.16
			c-1.104-1.068-2.437-1.977-4.004-2.633c-1.521-0.637-3.504-1.109-5.625-1.008C23.478,12.779,22.493,12.91,21.595,13.152z"/>
		<path fill="#FFFFFF" d="M23.62,22.104c0.476,0.315,0.962,0.62,1.41,0.963c-1.013,0.639-2.007,1.297-3.015,1.94
			c0.152,0.118,0.326,0.214,0.479,0.331c1.017-0.646,2.033-1.291,3.046-1.941c0.453,0.282,0.899,0.571,1.319,0.889
			c-1.018,0.643-1.995,1.319-3,1.971c0.148,0.121,0.332,0.209,0.495,0.316c1.039-0.64,2.053-1.303,3.074-1.957
			c0-0.711,0-1.424,0-2.136c0.75,0,1.5,0,2.25,0c0,1.419,0,2.839,0,4.258c0.637,0.033,1.336,0.005,1.996,0.015
			c0,0.668,0,1.334,0,2.001c-1.416,0-2.83,0-4.246,0c0-0.677,0-1.354,0-2.029c-1.246,0.76-2.525,1.618-3.779,2.422
			c-1.307-0.852-2.566-1.75-3.87-2.604c-0.378,1.201-1.275,2.104-2.76,2.212c-0.927,0.065-1.979-0.05-3.045,0
			c0-2.091,0-4.183,0-6.273c1.333,0.089,2.797-0.179,3.854,0.149c0.935,0.292,1.598,1.041,1.905,1.973
			C21.041,23.778,22.324,22.936,23.62,22.104z M16.12,24.496c0,0.752,0,1.504,0,2.256c0.536,0.003,0.943,0.034,1.26-0.211
			c0.471-0.363,0.565-1.265,0.15-1.744c-0.277-0.321-0.746-0.389-1.396-0.347C16.118,24.453,16.119,24.475,16.12,24.496z"/>
		<path fill="#FFFFFF" d="M32.261,22.479c0.75,0,1.5,0,2.25,0c0,1.425,0,2.849,0,4.272c0.659,0,1.319,0,1.979,0
			c0,0.668,0,1.334,0,2.001c-1.415,0-2.83,0-4.245,0c0-2.075,0-4.151,0-6.229C32.244,22.504,32.243,22.482,32.261,22.479z"/>
	</g>
	<g display="inline">
		<path fill="#ACACAC" d="M24.535,10c0.311,0,0.62,0,0.93,0c4.523,0.256,7.749,1.979,10.141,4.393
			c2.395,2.415,4.158,5.6,4.396,10.156c0,0.301,0,0.602,0,0.902c-0.229,4.63-2.027,7.685-4.396,10.171
			c-2.483,2.36-5.541,4.149-10.152,4.378c-0.306,0-0.61,0-0.915,0c-4.523-0.257-7.748-1.979-10.14-4.393
			c-2.392-2.416-4.159-5.603-4.396-10.156c0-0.301,0-0.602,0-0.902c0.012-0.004,0.018-0.013,0.016-0.03
			c0.226-4.539,2.003-7.757,4.38-10.14C16.783,11.983,20.041,10.248,24.535,10z M21.595,12.152c-0.892,0.238-1.69,0.542-2.415,0.902
			c-2.205,1.093-4.022,2.657-5.295,4.664c-1.24,1.957-2.315,4.476-2.16,7.777c0.099,2.082,0.572,3.834,1.32,5.325
			c1.478,2.947,3.727,5.121,6.841,6.438c1.538,0.653,3.446,1.111,5.595,1.01c2.061-0.101,3.846-0.562,5.324-1.311
			c2.899-1.463,5.188-3.718,6.451-6.83c0.641-1.572,1.124-3.396,1.02-5.598c-0.195-4.174-1.892-7.004-4.125-9.162
			c-1.104-1.068-2.437-1.977-4.004-2.633c-1.521-0.637-3.504-1.109-5.625-1.008C23.478,11.779,22.493,11.91,21.595,12.152z"/>
		<path fill="#ACACAC" d="M23.62,21.104c0.476,0.315,0.962,0.62,1.41,0.963c-1.013,0.639-2.007,1.297-3.015,1.94
			c0.152,0.118,0.326,0.214,0.479,0.331c1.017-0.646,2.033-1.291,3.046-1.941c0.453,0.282,0.899,0.571,1.319,0.889
			c-1.018,0.643-1.995,1.319-3,1.971c0.148,0.121,0.332,0.209,0.495,0.316c1.039-0.639,2.053-1.303,3.074-1.957
			c0-0.711,0-1.424,0-2.136c0.75,0,1.5,0,2.25,0c0,1.419,0,2.839,0,4.258c0.637,0.033,1.336,0.005,1.996,0.015
			c0,0.668,0,1.334,0,2.001c-1.416,0-2.83,0-4.246,0c0-0.677,0-1.354,0-2.029c-1.246,0.76-2.525,1.618-3.779,2.422
			c-1.307-0.852-2.566-1.75-3.87-2.604c-0.378,1.201-1.275,2.104-2.76,2.212c-0.927,0.065-1.979-0.05-3.045,0
			c0-2.091,0-4.183,0-6.273c1.333,0.089,2.797-0.179,3.854,0.149c0.935,0.292,1.598,1.041,1.905,1.973
			C21.041,22.778,22.324,21.936,23.62,21.104z M16.12,23.496c0,0.752,0,1.504,0,2.256c0.536,0.003,0.943,0.034,1.26-0.211
			c0.471-0.363,0.565-1.265,0.15-1.744c-0.277-0.321-0.746-0.389-1.396-0.347C16.118,23.453,16.119,23.475,16.12,23.496z"/>
		<path fill="#ACACAC" d="M32.261,21.479c0.75,0,1.5,0,2.25,0c0,1.425,0,2.849,0,4.272c0.659,0,1.319,0,1.979,0
			c0,0.668,0,1.334,0,2.001c-1.415,0-2.83,0-4.245,0c0-2.075,0-4.151,0-6.229C32.244,21.504,32.243,21.482,32.261,21.479z"/>
	</g>
</g>
<g opacity="0.35">
	<path fill="#FFFFFF" d="M37.562,16.313l-12.082-5.229C25.35,11.028,25.178,11,25.006,11c-0.005,0-0.011,0-0.016,0
		c-0.005,0-0.011,0-0.017,0c-0.176,0-0.351,0.029-0.483,0.088l-4.673,2.058l-7.41,3.262c-0.14,0.062-0.26,0.182-0.34,0.324
		l0.025,0.015c-0.065,0.122-0.1,0.259-0.09,0.386l1,12.581c0.023,0.283,0.228,0.656,0.457,0.828l4.367,3.286
		c0,0.004,0,0.009,0,0.013c0,0.119,0.004,0.236,0.012,0.354c-0.008,0.117-0.012,0.234-0.012,0.354c0,3.562,3.286,6.451,7.339,6.451
		c4.052,0,7.337-2.889,7.337-6.451c0-0.119-0.003-0.236-0.011-0.354c0.008-0.118,0.011-0.235,0.011-0.354
		c0-0.032,0-0.063-0.001-0.098c-0.06,3.519-3.319,6.354-7.336,6.354c-3.983,0-7.224-2.789-7.335-6.267l6.754,5.082
		c0.114,0.086,0.265,0.129,0.416,0.129c0.152,0,0.303-0.043,0.417-0.129l11.093-8.371c0.229-0.172,0.436-0.545,0.457-0.828
		l1.031-12.678C38.021,16.752,37.823,16.428,37.562,16.313z M24.975,12.994l8.994,3.893l-8.941,5.336l-8.909-5.33L24.975,12.994z
		 M35.666,29.549c-0.001,0.002-0.001,0.004-0.003,0.006l-10.664,8.047l-10.694-8.047c0-0.002-0.001-0.003-0.002-0.004l-0.958-12.054
		l0.656,0.392l10.577,6.33c0.123,0.074,0.285,0.111,0.448,0.111s0.325-0.037,0.448-0.11l10.441-6.232l0.726-0.433L35.666,29.549z"/>
	<path fill="#FFFFFF" d="M35.427,19.699l-9.034,5.533c-0.123,0.075-0.224,0.252-0.224,0.395l-0.021,9.268
		c0,0.142,0.096,0.188,0.209,0.104l8.426-6.123c0.115-0.084,0.22-0.27,0.229-0.41l0.619-8.645
		C35.641,19.679,35.548,19.624,35.427,19.699z"/>
	<path fill="#FFFFFF" d="M23.676,25.274L14.642,19.7c-0.124-0.075-0.215-0.021-0.206,0.12l0.577,8.667
		c0.009,0.142,0.112,0.326,0.229,0.41l8.489,6.209c0.115,0.084,0.211,0.037,0.21-0.104l-0.042-9.332
		C23.898,25.527,23.797,25.35,23.676,25.274z"/>
</g>
<g>
	<path fill="#8C8C94" d="M37.562,15.313l-12.082-5.229C25.35,10.028,25.178,10,25.006,10c-0.005,0-0.011,0-0.016,0
		c-0.005,0-0.011,0-0.017,0c-0.176,0-0.351,0.029-0.483,0.088l-4.673,2.058l-7.41,3.262c-0.14,0.062-0.26,0.182-0.34,0.324
		l0.025,0.015c-0.065,0.122-0.1,0.259-0.09,0.386l1,12.581c0.023,0.283,0.228,0.656,0.457,0.828l4.367,3.286
		c0,0.004,0,0.009,0,0.013c0,0.119,0.004,0.236,0.012,0.354c-0.008,0.117-0.012,0.234-0.012,0.354c0,3.562,3.286,6.451,7.339,6.451
		c4.052,0,7.337-2.889,7.337-6.451c0-0.119-0.003-0.236-0.011-0.354c0.008-0.118,0.011-0.235,0.011-0.354
		c0-0.032,0-0.063-0.001-0.098c-0.06,3.519-3.319,6.354-7.336,6.354c-3.983,0-7.224-2.789-7.335-6.267l6.754,5.082
		c0.114,0.086,0.265,0.129,0.416,0.129c0.152,0,0.303-0.043,0.417-0.129l11.093-8.371c0.229-0.172,0.436-0.545,0.457-0.828
		l1.031-12.678C38.021,15.752,37.823,15.428,37.562,15.313z M24.975,11.994l8.994,3.893l-8.941,5.336l-8.909-5.33L24.975,11.994z
		 M35.666,28.549c-0.001,0.002-0.001,0.004-0.003,0.006l-10.664,8.047l-10.694-8.047c0-0.002-0.001-0.003-0.002-0.004l-0.958-12.054
		l0.656,0.392l10.577,6.33c0.123,0.074,0.285,0.111,0.448,0.111s0.325-0.037,0.448-0.11l10.441-6.232l0.726-0.433L35.666,28.549z"/>
	<path fill="#8C8C94" d="M35.427,18.699l-9.034,5.533c-0.123,0.075-0.224,0.252-0.224,0.395l-0.021,9.268
		c0,0.142,0.096,0.188,0.209,0.104l8.426-6.123c0.115-0.084,0.22-0.27,0.229-0.41l0.619-8.645
		C35.641,18.679,35.548,18.624,35.427,18.699z"/>
	<path fill="#8C8C94" d="M23.676,24.274L14.642,18.7c-0.124-0.075-0.215-0.021-0.206,0.12l0.577,8.667
		c0.009,0.142,0.112,0.326,0.229,0.41l8.489,6.209c0.115,0.084,0.211,0.037,0.21-0.104l-0.042-9.332
		C23.898,24.527,23.797,24.35,23.676,24.274z"/>
</g>
<g id="Layer_4" display="none">
	<g display="inline" opacity="0.55">
		<rect x="18.484" y="28.602" fill="#FFFFFF" width="1.316" height="5.213"/>
		<path fill="#FFFFFF" d="M30.407,30.096c-0.054-0.029-0.478-0.279-1.107-0.279c-0.849,0-1.44,0.593-1.44,1.39
			c0,0.776,0.566,1.394,1.44,1.394c0.618,0,1.052-0.244,1.107-0.276v1.399c-0.167,0.047-0.614,0.185-1.2,0.185
			c-1.479,0-2.775-1.021-2.775-2.7c0-1.557,1.174-2.697,2.775-2.697c0.62,0,1.076,0.15,1.2,0.188V30.096z"/>
		<path fill="#FFFFFF" d="M16.677,30.096c-0.053-0.029-0.476-0.279-1.106-0.279c-0.852,0-1.441,0.593-1.441,1.39
			c0,0.776,0.564,1.394,1.441,1.394c0.619,0,1.047-0.244,1.106-0.276v1.399c-0.165,0.047-0.613,0.185-1.201,0.185
			c-1.478,0-2.775-1.021-2.775-2.7c0-1.557,1.175-2.697,2.775-2.697c0.619,0,1.076,0.15,1.201,0.188V30.096z"/>
		<path fill="#FFFFFF" d="M37.3,31.205c0,1.493-1.149,2.699-2.754,2.699s-2.753-1.206-2.753-2.699c0-1.488,1.148-2.697,2.753-2.697
			C36.148,28.508,37.3,29.717,37.3,31.205z M34.546,29.834c-0.78,0-1.36,0.614-1.36,1.371c0,0.76,0.58,1.374,1.36,1.374
			c0.779,0,1.358-0.614,1.358-1.374C35.904,30.448,35.325,29.834,34.546,29.834z"/>
		<path fill="#FFFFFF" d="M24.79,29.785c-0.02-0.006-0.574-0.159-1.027-0.159c-0.53,0-0.816,0.179-0.816,0.427
			c0,0.318,0.387,0.43,0.603,0.499l0.364,0.114c0.854,0.271,1.244,0.855,1.244,1.491c0,1.31-1.152,1.747-2.16,1.747
			c-0.701,0-1.355-0.125-1.42-0.141v-1.199c0.117,0.027,0.669,0.191,1.243,0.191c0.653,0,0.956-0.189,0.956-0.484
			c0-0.266-0.261-0.418-0.589-0.521c-0.079-0.026-0.199-0.063-0.28-0.092c-0.734-0.229-1.344-0.661-1.344-1.522
			c0-0.976,0.731-1.632,1.944-1.632c0.641,0,1.244,0.156,1.283,0.166L24.79,29.785L24.79,29.785z"/>
		<path fill="#FFFFFF" d="M11.307,22.998c0-0.358-0.294-0.65-0.654-0.65c-0.359,0-0.653,0.292-0.653,0.65v1.369
			c0,0.362,0.294,0.654,0.653,0.654c0.36,0,0.654-0.292,0.654-0.654V22.998z"/>
		<path fill="#FFFFFF" d="M14.894,21.202c0-0.358-0.294-0.651-0.654-0.651c-0.358,0-0.653,0.293-0.653,0.651v3.165
			c0,0.362,0.294,0.654,0.653,0.654c0.36,0,0.654-0.292,0.654-0.654V21.202z"/>
		<path fill="#FFFFFF" d="M18.482,18.745c0-0.359-0.294-0.651-0.653-0.651c-0.362,0-0.656,0.292-0.656,0.651v6.923
			c0,0.359,0.294,0.65,0.656,0.65c0.359,0,0.653-0.291,0.653-0.65V18.745z"/>
		<path fill="#FFFFFF" d="M22.067,21.202c0-0.358-0.291-0.651-0.653-0.651c-0.358,0-0.653,0.293-0.653,0.651v3.165
			c0,0.362,0.294,0.654,0.653,0.654c0.362,0,0.653-0.292,0.653-0.654V21.202z"/>
		<path fill="#FFFFFF" d="M25.652,22.998c0-0.358-0.294-0.65-0.649-0.65c-0.362,0-0.653,0.292-0.653,0.65v1.369
			c0,0.362,0.291,0.654,0.653,0.654c0.355,0,0.649-0.292,0.649-0.654V22.998z"/>
		<path fill="#FFFFFF" d="M29.241,21.202c0-0.358-0.291-0.651-0.653-0.651c-0.357,0-0.648,0.293-0.648,0.651v3.165
			c0,0.362,0.291,0.654,0.648,0.654c0.362,0,0.653-0.292,0.653-0.654V21.202z"/>
		<path fill="#FFFFFF" d="M32.829,18.745c0-0.359-0.292-0.651-0.649-0.651c-0.361,0-0.652,0.292-0.652,0.651v6.923
			c0,0.359,0.291,0.65,0.652,0.65c0.357,0,0.649-0.291,0.649-0.65V18.745z"/>
		<path fill="#FFFFFF" d="M36.418,21.202c0-0.358-0.291-0.651-0.659-0.651c-0.356,0-0.649,0.293-0.649,0.651v3.165
			c0,0.362,0.293,0.654,0.649,0.654c0.368,0,0.659-0.292,0.659-0.654V21.202z"/>
		<path fill="#FFFFFF" d="M40,22.998c0-0.358-0.291-0.65-0.648-0.65c-0.36,0-0.652,0.292-0.652,0.65v1.369
			c0,0.362,0.292,0.654,0.652,0.654c0.357,0,0.648-0.292,0.648-0.654V22.998z"/>
	</g>
	<g display="inline">
		<rect x="18.484" y="27.602" fill="#ACACAC" width="1.316" height="5.213"/>
		<path fill="#ACACAC" d="M30.407,29.096c-0.054-0.029-0.478-0.279-1.107-0.279c-0.849,0-1.44,0.593-1.44,1.39
			c0,0.776,0.566,1.394,1.44,1.394c0.618,0,1.052-0.244,1.107-0.276v1.399c-0.167,0.047-0.614,0.185-1.2,0.185
			c-1.479,0-2.775-1.021-2.775-2.7c0-1.557,1.174-2.697,2.775-2.697c0.62,0,1.076,0.15,1.2,0.188V29.096z"/>
		<path fill="#ACACAC" d="M16.677,29.096c-0.053-0.029-0.476-0.279-1.106-0.279c-0.852,0-1.441,0.593-1.441,1.39
			c0,0.776,0.564,1.394,1.441,1.394c0.619,0,1.047-0.244,1.106-0.276v1.399c-0.165,0.047-0.613,0.185-1.201,0.185
			c-1.478,0-2.775-1.021-2.775-2.7c0-1.557,1.175-2.697,2.775-2.697c0.619,0,1.076,0.15,1.201,0.188V29.096z"/>
		<path fill="#ACACAC" d="M37.3,30.205c0,1.493-1.149,2.699-2.754,2.699s-2.753-1.206-2.753-2.699c0-1.488,1.148-2.697,2.753-2.697
			C36.148,27.508,37.3,28.717,37.3,30.205z M34.546,28.834c-0.78,0-1.36,0.614-1.36,1.371c0,0.76,0.58,1.374,1.36,1.374
			c0.779,0,1.358-0.614,1.358-1.374C35.904,29.448,35.325,28.834,34.546,28.834z"/>
		<path fill="#ACACAC" d="M24.79,28.785c-0.02-0.006-0.574-0.159-1.027-0.159c-0.53,0-0.816,0.179-0.816,0.427
			c0,0.318,0.387,0.43,0.603,0.499l0.364,0.114c0.854,0.271,1.244,0.855,1.244,1.491c0,1.31-1.152,1.747-2.16,1.747
			c-0.701,0-1.355-0.125-1.42-0.141v-1.199c0.117,0.027,0.669,0.191,1.243,0.191c0.653,0,0.956-0.189,0.956-0.484
			c0-0.266-0.261-0.418-0.589-0.521c-0.079-0.026-0.199-0.063-0.28-0.092c-0.734-0.229-1.344-0.661-1.344-1.523
			c0-0.975,0.731-1.631,1.944-1.631c0.641,0,1.244,0.156,1.283,0.166L24.79,28.785L24.79,28.785z"/>
		<path fill="#ACACAC" d="M11.307,21.998c0-0.358-0.294-0.65-0.654-0.65c-0.359,0-0.653,0.292-0.653,0.65v1.369
			c0,0.362,0.294,0.654,0.653,0.654c0.36,0,0.654-0.292,0.654-0.654V21.998z"/>
		<path fill="#ACACAC" d="M14.894,20.202c0-0.358-0.294-0.651-0.654-0.651c-0.358,0-0.653,0.293-0.653,0.651v3.165
			c0,0.362,0.294,0.654,0.653,0.654c0.36,0,0.654-0.292,0.654-0.654V20.202z"/>
		<path fill="#ACACAC" d="M18.482,17.745c0-0.359-0.294-0.651-0.653-0.651c-0.362,0-0.656,0.292-0.656,0.651v6.923
			c0,0.36,0.294,0.651,0.656,0.651c0.359,0,0.653-0.291,0.653-0.651V17.745z"/>
		<path fill="#ACACAC" d="M22.067,20.202c0-0.358-0.291-0.651-0.653-0.651c-0.358,0-0.653,0.293-0.653,0.651v3.165
			c0,0.362,0.294,0.654,0.653,0.654c0.362,0,0.653-0.292,0.653-0.654V20.202z"/>
		<path fill="#ACACAC" d="M25.652,21.998c0-0.358-0.294-0.65-0.649-0.65c-0.362,0-0.653,0.292-0.653,0.65v1.369
			c0,0.362,0.291,0.654,0.653,0.654c0.355,0,0.649-0.292,0.649-0.654V21.998z"/>
		<path fill="#ACACAC" d="M29.241,20.202c0-0.358-0.291-0.651-0.653-0.651c-0.357,0-0.648,0.293-0.648,0.651v3.165
			c0,0.362,0.291,0.654,0.648,0.654c0.362,0,0.653-0.292,0.653-0.654V20.202z"/>
		<path fill="#ACACAC" d="M32.829,17.745c0-0.359-0.292-0.651-0.649-0.651c-0.361,0-0.652,0.292-0.652,0.651v6.923
			c0,0.36,0.291,0.651,0.652,0.651c0.357,0,0.649-0.291,0.649-0.651V17.745z"/>
		<path fill="#ACACAC" d="M36.418,20.202c0-0.358-0.291-0.651-0.659-0.651c-0.356,0-0.649,0.293-0.649,0.651v3.165
			c0,0.362,0.293,0.654,0.649,0.654c0.368,0,0.659-0.292,0.659-0.654V20.202z"/>
		<path fill="#ACACAC" d="M40,21.998c0-0.358-0.291-0.65-0.648-0.65c-0.36,0-0.652,0.292-0.652,0.65v1.369
			c0,0.362,0.292,0.654,0.652,0.654c0.357,0,0.648-0.292,0.648-0.654V21.998z"/>
	</g>
</g>
</svg>
